<?xml version="1.0" encoding="UTF-8"?>
<svg version="1.1" xmlns="http://www.w3.org/2000/svg" width="500" height="500">
<path d="M0 0 C1.11761719 0.44472656 2.23523438 0.88945312 3.38671875 1.34765625 C17.4768036 7.07232313 30.40066101 15.05932152 43.16015625 23.27734375 C43.90015869 23.75292725 44.64016113 24.22851074 45.40258789 24.71850586 C45.92973389 25.14139893 46.45687988 25.56429199 47 26 C47 26.66 47 27.32 47 28 C47.85078125 28.38865234 47.85078125 28.38865234 48.71875 28.78515625 C66.80153769 38.41485997 83.42560959 58.45028709 95 75 C95.39251953 75.5573584 95.78503906 76.1147168 96.18945312 76.68896484 C106.79124695 91.83138432 115.52222895 107.6783132 122 125 C122.27328125 125.72638672 122.5465625 126.45277344 122.828125 127.20117188 C123.64827767 129.40049637 124.45328553 131.60458384 125.25 133.8125 C125.48428711 134.45711182 125.71857422 135.10172363 125.95996094 135.76586914 C128.05462681 141.73957371 129.54535432 147.84353502 131 154 C131.30284912 155.24366333 131.30284912 155.24366333 131.61181641 156.51245117 C138.55412491 186.53991636 138.33340033 223.08189594 131 253 C130.81808105 253.79100098 130.63616211 254.58200195 130.44873047 255.39697266 C125.096915 278.32990846 115.29204295 299.99328574 103 320 C102.43200684 320.9266748 102.43200684 320.9266748 101.85253906 321.87207031 C100.64115638 323.83802123 99.41699912 325.79533573 98.1875 327.75 C97.80215088 328.37148926 97.41680176 328.99297852 97.01977539 329.63330078 C96.06756946 331.12501271 95.04001603 332.56812457 94 334 C93.34 334 92.68 334 92 334 C91.66162109 335.06154297 91.66162109 335.06154297 91.31640625 336.14453125 C89.70436549 339.64127248 87.5826116 341.8977636 84.9375 344.6875 C81.58041094 348.06920684 81.58041094 348.06920684 79 352 C78.34 352 77.68 352 77 352 C76.7525 352.57234375 76.505 353.1446875 76.25 353.734375 C74.80683801 356.35010611 73.11783778 358.14773456 71 360.25 C70.29875 360.95640625 69.5975 361.6628125 68.875 362.390625 C67 364 67 364 65 364 C65 364.66 65 365.32 65 366 C63.32464541 367.51984883 61.58294378 368.96706453 59.8125 370.375 C58.84957031 371.14585937 57.88664062 371.91671875 56.89453125 372.7109375 C55.93933594 373.46632813 54.98414063 374.22171875 54 375 C53.09636719 375.75539063 52.19273437 376.51078125 51.26171875 377.2890625 C49 379 49 379 47 379 C47 379.66 47 380.32 47 381 C44.57120938 382.67544365 42.14825824 384.22875159 39.625 385.75 C38.51572144 386.42760376 38.51572144 386.42760376 37.3840332 387.11889648 C35.91122307 388.01747018 34.4367248 388.91328351 32.96044922 389.80615234 C31.42135613 390.74340828 29.89714337 391.70510506 28.37890625 392.67578125 C-19.84062131 423.18902952 -80.63497817 429.22680407 -135.55078125 417.453125 C-153.84514109 413.14856974 -171.50320469 405.93321967 -188 397 C-188.61456055 396.67 -189.22912109 396.34 -189.86230469 396 C-198.03063317 391.58142189 -205.62596321 386.646229 -213 381 C-214.13112958 380.14923302 -215.26265857 379.29899686 -216.39453125 378.44921875 C-221.56398713 374.53848184 -226.45240106 370.63618853 -231 366 C-232.53350301 364.63659544 -234.07530386 363.28247039 -235.625 361.9375 C-244.14842893 354.30325143 -252.70391753 345.58379789 -259 336 C-259 335.34 -259 334.68 -259 334 C-259.66 334 -260.32 334 -261 334 C-262.23339844 332.43041992 -262.23339844 332.43041992 -263.609375 330.23046875 C-264.3660144 329.02910278 -264.3660144 329.02910278 -265.13793945 327.8034668 C-265.93590942 326.50856323 -265.93590942 326.50856323 -266.75 325.1875 C-267.29422607 324.31327393 -267.83845215 323.43904785 -268.39916992 322.53833008 C-272.154132 316.46811773 -275.74751998 310.35584921 -279 304 C-279.58394531 302.89398438 -280.16789062 301.78796875 -280.76953125 300.6484375 C-284.1749666 294.11365896 -286.98779759 287.63256795 -289.171875 280.58984375 C-290.00342753 277.82780313 -290.00342753 277.82780313 -291.5 274.625 C-310.6005402 228.46536119 -305.96534789 170.80832015 -289 125 C-288.74025391 124.27828613 -288.48050781 123.55657227 -288.21289062 122.81298828 C-278.80552386 96.93063795 -262.63897814 71.36663484 -243 52 C-242.24460938 51.22140625 -241.48921875 50.4428125 -240.7109375 49.640625 C-235.67731532 44.48915883 -230.48143041 39.77374871 -224.8359375 35.30078125 C-222.56064257 33.45484638 -220.39901372 31.55941947 -218.2265625 29.59765625 C-214.0860734 25.95829198 -209.68717354 23.01034846 -205 20.125 C-204.16895752 19.6096167 -203.33791504 19.0942334 -202.48168945 18.56323242 C-199.9945908 17.03068171 -197.49882173 15.51334223 -195 14 C-193.97011963 13.36843994 -193.97011963 13.36843994 -192.91943359 12.72412109 C-136.71536024 -21.51351513 -60.27613989 -26.11664832 0 0 Z " fill="#CD1127" transform="translate(315,28)"/>
<path d="M0 0 C3.41136046 3.09450667 4.55429019 6.66437334 6 10.9375 C6.2475 11.63423828 6.495 12.33097656 6.75 13.04882812 C8.90333785 19.26771269 10.49066813 25.59822407 12 32 C12.20157715 32.82798096 12.4031543 33.65596191 12.61083984 34.5090332 C19.5554451 64.53638643 19.33344697 101.08170566 12 131 C11.81808105 131.79100098 11.63616211 132.58200195 11.44873047 133.39697266 C6.096915 156.32990846 -3.70795705 177.99328574 -16 198 C-16.37866211 198.6177832 -16.75732422 199.23556641 -17.14746094 199.87207031 C-18.35884362 201.83802123 -19.58300088 203.79533573 -20.8125 205.75 C-21.19784912 206.37148926 -21.58319824 206.99297852 -21.98022461 207.63330078 C-22.93243054 209.12501271 -23.95998397 210.56812457 -25 212 C-25.66 212 -26.32 212 -27 212 C-27.33837891 213.06154297 -27.33837891 213.06154297 -27.68359375 214.14453125 C-29.29563451 217.64127248 -31.4173884 219.8977636 -34.0625 222.6875 C-37.41958906 226.06920684 -37.41958906 226.06920684 -40 230 C-40.66 230 -41.32 230 -42 230 C-42.2475 230.57234375 -42.495 231.1446875 -42.75 231.734375 C-44.19316199 234.35010611 -45.88216222 236.14773456 -48 238.25 C-48.70125 238.95640625 -49.4025 239.6628125 -50.125 240.390625 C-52 242 -52 242 -54 242 C-54 242.66 -54 243.32 -54 244 C-55.67535459 245.51984883 -57.41705622 246.96706453 -59.1875 248.375 C-60.15042969 249.14585937 -61.11335938 249.91671875 -62.10546875 250.7109375 C-63.06066406 251.46632813 -64.01585937 252.22171875 -65 253 C-65.90363281 253.75539063 -66.80726563 254.51078125 -67.73828125 255.2890625 C-70 257 -70 257 -72 257 C-72 257.66 -72 258.32 -72 259 C-74.42879062 260.67544365 -76.85174176 262.22875159 -79.375 263.75 C-80.48427856 264.42760376 -80.48427856 264.42760376 -81.6159668 265.11889648 C-83.08877693 266.01747018 -84.5632752 266.91328351 -86.03955078 267.80615234 C-87.57864387 268.74340828 -89.10285663 269.70510506 -90.62109375 270.67578125 C-138.84062131 301.18902952 -199.63497817 307.22680407 -254.55078125 295.453125 C-272.84514109 291.14856974 -290.50320469 283.93321967 -307 275 C-307.61456055 274.67 -308.22912109 274.34 -308.86230469 274 C-317.03063317 269.58142189 -324.62596321 264.646229 -332 259 C-333.13112958 258.14923302 -334.26265857 257.29899686 -335.39453125 256.44921875 C-340.56398713 252.53848184 -345.45240106 248.63618853 -350 244 C-351.53350301 242.63659544 -353.07530386 241.28247039 -354.625 239.9375 C-363.14842893 232.30325143 -371.70391753 223.58379789 -378 214 C-378 213.34 -378 212.68 -378 212 C-378.66 212 -379.32 212 -380 212 C-381.23339844 210.43041992 -381.23339844 210.43041992 -382.609375 208.23046875 C-383.3660144 207.02910278 -383.3660144 207.02910278 -384.13793945 205.8034668 C-384.66991943 204.94019775 -385.20189941 204.07692871 -385.75 203.1875 C-386.29422607 202.31327393 -386.83845215 201.43904785 -387.39916992 200.53833008 C-391.154132 194.46811773 -394.74751998 188.35584921 -398 182 C-398.87591797 180.34097656 -398.87591797 180.34097656 -399.76953125 178.6484375 C-409 160.93768802 -409 160.93768802 -409 154 C-274.36 154 -139.72 154 -1 154 C-1 103.84 -1 53.68 -1 2 C-0.67 1.34 -0.34 0.68 0 0 Z " fill="#012B80" transform="translate(434,150)"/>
<path d="M0 0 C1.45249146 0.00410889 1.45249146 0.00410889 2.93432617 0.00830078 C12.42135458 0.14302231 21.59158945 1.42118066 30.875 3.3125 C31.64448975 3.4664624 32.41397949 3.6204248 33.20678711 3.77905273 C39.83075217 5.16742475 45.71022557 7.53103186 51.875 10.3125 C52.68710938 10.67085937 53.49921875 11.02921875 54.3359375 11.3984375 C66.0557655 16.8884566 78.09708976 24.7290874 86.875 34.3125 C86.875 34.9725 86.875 35.6325 86.875 36.3125 C87.45765625 36.55742188 88.0403125 36.80234375 88.640625 37.0546875 C91.23802236 38.51685874 92.71475831 40.15990414 94.625 42.4375 C95.23859375 43.16195312 95.8521875 43.88640625 96.484375 44.6328125 C96.94328125 45.18710938 97.4021875 45.74140625 97.875 46.3125 C97.545 46.9725 97.215 47.6325 96.875 48.3125 C96.44832031 47.9 96.02164063 47.4875 95.58203125 47.0625 C86.55996362 38.72871382 76.51390617 33.08022283 64.875 29.3125 C64.08867187 28.9825 63.30234375 28.6525 62.4921875 28.3125 C44.49485472 21.43590718 22.91312949 22.49374855 4.875 28.3125 C3.78832031 28.62445313 2.70164062 28.93640625 1.58203125 29.2578125 C-5.34562661 31.34752425 -11.09920006 34.34526521 -17.125 38.3125 C-17.85074219 38.75207031 -18.57648438 39.19164062 -19.32421875 39.64453125 C-28.72161302 45.49892229 -36.98838183 53.10757274 -43.125 62.3125 C-43.785 62.3125 -44.445 62.3125 -45.125 62.3125 C-45.3725 62.993125 -45.62 63.67375 -45.875 64.375 C-47.125 67.3125 -47.125 67.3125 -48.875 70.3125 C-57.80287638 85.7697188 -61.91159145 100.84665452 -61.6875 118.5625 C-61.68160858 119.63834854 -61.68160858 119.63834854 -61.67559814 120.7359314 C-61.47761588 146.45682946 -52.76180043 167.6139482 -34.8125 186.3515625 C-33.125 188.3125 -33.125 188.3125 -33.125 190.3125 C-32.55007812 190.57546875 -31.97515625 190.8384375 -31.3828125 191.109375 C-28.99444984 192.38206652 -27.0919732 193.84878026 -25 195.5625 C-15.49197268 203.00557487 -5.54238832 207.60918555 5.875 211.3125 C6.69379639 211.58537842 7.51259277 211.85825684 8.35620117 212.1394043 C15.72201757 214.39493002 22.63730404 214.81585416 30.3125 214.75 C32.14216309 214.74081543 32.14216309 214.74081543 34.00878906 214.73144531 C46.76695608 214.51384341 59.89902397 213.49239392 71.13964844 207.01074219 C72.875 206.3125 72.875 206.3125 75.875 207.3125 C74.25115184 208.35596136 72.62583893 209.39714323 71 210.4375 C70.09507812 211.01757812 69.19015625 211.59765625 68.2578125 212.1953125 C67.14148438 212.89398438 66.02515625 213.59265625 64.875 214.3125 C63.78541992 215.02116211 63.78541992 215.02116211 62.67382812 215.74414062 C56.41427173 219.69570416 50.16106538 222.30609497 43.125 224.5625 C42.06007324 224.90603516 40.99514648 225.24957031 39.89794922 225.60351562 C18.85760219 232.21170512 -4.67462678 232.66346078 -26.125 227.3125 C-27.14851563 227.05726563 -28.17203125 226.80203125 -29.2265625 226.5390625 C-58.3120912 217.99371849 -82.62483939 195.36241633 -97.125 169.3125 C-109.78249491 145.5877748 -114.3924483 112.43887861 -106.77734375 86.38671875 C-103.8943783 78.42726903 -98.38745939 71.82284631 -93.125 65.3125 C-92.25418782 64.20262286 -91.38431865 63.09200483 -90.515625 61.98046875 C-86.9338906 57.4912815 -83.21471352 53.34549946 -79.125 49.3125 C-77.99191406 48.14460938 -77.99191406 48.14460938 -76.8359375 46.953125 C-71.80231532 41.80165883 -66.60643041 37.08624871 -60.9609375 32.61328125 C-58.68564257 30.76734638 -56.52401372 28.87191947 -54.3515625 26.91015625 C-50.21086037 23.27060473 -45.81157522 20.3241657 -41.125 17.4375 C-40.30628418 16.92719238 -39.48756836 16.41688477 -38.64404297 15.89111328 C-30.94432016 11.12844416 -23.14345011 6.51982794 -15.125 2.3125 C-13.9803125 1.70728516 -13.9803125 1.70728516 -12.8125 1.08984375 C-8.57274508 -0.13648071 -4.39124614 -0.02502999 0 0 Z " fill="#FCFBFA" transform="translate(151.125,30.6875)"/>
<path d="M0 0 C0.66 0 1.32 0 2 0 C1.38276305 3.28081552 0.62507786 6.44775668 -0.34765625 9.640625 C-0.61924561 10.53426758 -0.89083496 11.42791016 -1.1706543 12.34863281 C-1.46496338 13.30608398 -1.75927246 14.26353516 -2.0625 15.25 C-2.52233276 16.75191895 -2.52233276 16.75191895 -2.99145508 18.28417969 C-5.34905399 25.9524616 -7.75328937 33.60571439 -10.1875 41.25 C-10.5079126 42.2596582 -10.8283252 43.26931641 -11.15844727 44.30957031 C-13.01892637 50.11691268 -15.02489408 55.84970838 -17.13208008 61.57177734 C-18.14713234 64.41163945 -18.99193257 67.2689404 -19.75 70.1875 C-20.11351562 71.57001953 -20.11351562 71.57001953 -20.484375 72.98046875 C-20.65453125 73.64691406 -20.8246875 74.31335938 -21 75 C-19.46666016 75.39832031 -19.46666016 75.39832031 -17.90234375 75.8046875 C-14.22482062 76.85857242 -10.96779272 78.36716583 -7.5625 80.125 C-6.33728237 80.75008388 -5.11202015 81.37508035 -3.88671875 82 C-3.2529834 82.32613281 -2.61924805 82.65226562 -1.96630859 82.98828125 C9.80591607 89.09920477 9.80591607 89.09920477 21.9375 94.4375 C27.96078607 96.85179235 33.60736645 99.87349531 39.30249023 102.96655273 C39.99802002 103.34368408 40.6935498 103.72081543 41.41015625 104.109375 C42.03027588 104.44936523 42.65039551 104.78935547 43.28930664 105.13964844 C45.16808677 106.13588184 45.16808677 106.13588184 48 107 C48 107.66 48 108.32 48 109 C22.26 109 -3.48 109 -30 109 C-30.33 114.28 -30.66 119.56 -31 125 C-31.82051282 134.64102564 -31.82051282 134.64102564 -33 137 C-33.32817528 139.20547109 -33.6089024 141.4180686 -33.8671875 143.6328125 C-34.03075298 145.00392672 -34.19449667 146.37501969 -34.35839844 147.74609375 C-34.44279175 148.46265137 -34.52718506 149.17920898 -34.61413574 149.91748047 C-36.00574266 161.69371797 -37.48177081 173.40088375 -40 185 C-42.45737487 182.54262513 -42.95133279 180.58730965 -44.0234375 177.28515625 C-44.405 176.12306641 -44.7865625 174.96097656 -45.1796875 173.76367188 C-45.57414062 172.54228516 -45.96859375 171.32089844 -46.375 170.0625 C-48.85444018 162.45475106 -51.37462481 154.88227215 -54.14257812 147.37426758 C-55.22270966 144.38329971 -56.16066511 141.36156081 -57.0625 138.3125 C-58.1516911 134.70321967 -59.27067081 131.14353363 -60.625 127.625 C-62.51129706 122.65203502 -64 118.34153273 -64 113 C-80.40157236 115.66001041 -96.7400555 118.5809497 -113.0625 121.6875 C-116.25283259 122.29344307 -119.4433094 122.89859207 -122.63414001 123.50190735 C-124.59112047 123.87203168 -126.54781656 124.24366407 -128.50416565 124.61711121 C-133.32568517 125.53008719 -138.13544404 126.35286299 -143 127 C-141.37660195 125.29115995 -139.70680947 123.62553283 -138 122 C-137.34 122 -136.68 122 -136 122 C-136 121.34 -136 120.68 -136 120 C-133.59768493 118.16673524 -131.18368547 116.44775516 -128.6875 114.75 C-127.11466999 113.66060687 -125.54310031 112.56939235 -123.97265625 111.4765625 C-123.15168457 110.90583008 -122.33071289 110.33509766 -121.48486328 109.74707031 C-117.48556139 106.9352208 -113.55381327 104.03417125 -109.625 101.125 C-108.84882324 100.55088379 -108.07264648 99.97676758 -107.27294922 99.38525391 C-105.67852223 98.20522736 -104.08445043 97.02472073 -102.49072266 95.84375 C-98.10376769 92.5963197 -93.70753235 89.36148494 -89.3125 86.125 C-87.70438797 84.94015725 -86.09631129 83.75526652 -84.48828125 82.5703125 C-83.32552083 81.71354167 -82.16276042 80.85677083 -81 80 C-83.80049772 67.72509117 -92.3042528 55.5905694 -98.41796875 44.67578125 C-99.27879299 43.13810321 -100.13946793 41.60034157 -101 40.0625 C-101.42651855 39.3008252 -101.85303711 38.53915039 -102.29248047 37.75439453 C-105.56870275 31.86623574 -108.60648453 25.89168081 -111.52734375 19.8203125 C-112.83699775 17.31216877 -114.30910071 15.25116741 -116 13 C-116 12.34 -116 11.68 -116 11 C-112.22272911 12.81309003 -108.62730178 14.9073259 -105 17 C-105 17.66 -105 18.32 -105 19 C-104.33226562 19.21269531 -103.66453125 19.42539063 -102.9765625 19.64453125 C-98.99043242 21.45973747 -95.8180018 24.00620255 -92.375 26.6875 C-87.79179865 30.19783803 -83.23759824 33.60030786 -78.3125 36.625 C-73.47931812 39.59645774 -69.036049 42.93807303 -64.58911133 46.44970703 C-58.89425532 51.7219109 -58.89425532 51.7219109 -52.02026367 53.82104492 C-49.51014353 52.80091996 -48.50535524 51.6066643 -46.8125 49.5 C-42.1144022 43.88031372 -36.89069785 38.84219621 -31.671875 33.7109375 C-27.36150739 29.44455323 -23.26996638 25.11464008 -19.41015625 20.43359375 C-18.94480469 19.96050781 -18.47945313 19.48742187 -18 19 C-17.34 19 -16.68 19 -16 19 C-15.73195557 18.40525879 -15.46391113 17.81051758 -15.18774414 17.19775391 C-13.99020301 14.98187204 -12.79681017 13.57920472 -10.99609375 11.8359375 C-10.13274414 10.98902344 -10.13274414 10.98902344 -9.25195312 10.125 C-8.65318359 9.5475 -8.05441406 8.97 -7.4375 8.375 C-6.24650616 7.21839849 -5.05759995 6.05964222 -3.87109375 4.8984375 C-3.34443115 4.38974121 -2.81776855 3.88104492 -2.27514648 3.35693359 C-0.8835783 2.00599895 -0.8835783 2.00599895 0 0 Z " fill="#FCFBFB" transform="translate(336,89)"/>
<path d="M0 0 C3.41136046 3.09450667 4.55429019 6.66437334 6 10.9375 C6.2475 11.63423828 6.495 12.33097656 6.75 13.04882812 C8.90333785 19.26771269 10.49066813 25.59822407 12 32 C12.20157715 32.82798096 12.4031543 33.65596191 12.61083984 34.5090332 C19.5554451 64.53638643 19.33344697 101.08170566 12 131 C11.81808105 131.79100098 11.63616211 132.58200195 11.44873047 133.39697266 C7.15334255 151.80303615 -0.14575469 169.35119299 -9 186 C-10.18414294 182.44757118 -9.69535532 181.30169438 -8.5625 177.8125 C-8.27503906 176.91144531 -7.98757813 176.01039063 -7.69140625 175.08203125 C-7.34916016 174.05142578 -7.34916016 174.05142578 -7 173 C-6.34 173 -5.68 173 -5 173 C-5 172.01 -5 171.02 -5 170 C-4.34 170 -3.68 170 -3 170 C-3 168.35 -3 166.7 -3 165 C-2.01 164.67 -1.02 164.34 0 164 C0 162.02 0 160.04 0 158 C-133.98 158 -267.96 158 -406 158 C-406.495 159.98 -406.495 159.98 -407 162 C-407.66 159.36 -408.32 156.72 -409 154 C-274.36 154 -139.72 154 -1 154 C-1 103.84 -1 53.68 -1 2 C-0.67 1.34 -0.34 0.68 0 0 Z " fill="#052A7A" transform="translate(434,150)"/>
<path d="M0 0 C0.66 0.33 1.32 0.66 2 1 C1.67 1.99 1.34 2.98 1 4 C0.67 54.16 0.34 104.32 0 156 C-134.31 156 -268.62 156 -407 156 C-406.67 157.98 -406.34 159.96 -406 162 C-408 160 -408 160 -409 154 C-274.36 154 -139.72 154 -1 154 C-1 103.84 -1 53.68 -1 2 C-0.67 1.34 -0.34 0.68 0 0 Z " fill="#341F61" transform="translate(434,150)"/>
<path d="M0 0 C2 1 2 1 3.1875 4.4375 C4 8 4 8 3 10 C2.67 60.16 2.34 110.32 2 162 C-200.455 162.495 -200.455 162.495 -407 163 C-412 147 -412 147 -411 143 C-407.95064142 149.23732437 -407.33140994 153.67724532 -406 161 C-271.69 161 -137.38 161 1 161 C0.505 81.305 0.505 81.305 0 0 Z " fill="#A6233E" transform="translate(431,142)"/>
<path d="M0 0 C4.51617599 -0.07654536 8.59085217 -0.10228696 13 1 C13 1.66 13 2.32 13 3 C15.64 3 18.28 3 21 3 C21 3.66 21 4.32 21 5 C22.58294782 5.05437607 24.16644256 5.09296271 25.75 5.125 C27.07257813 5.15980469 27.07257813 5.15980469 28.421875 5.1953125 C31.13657879 4.98965312 32.61174422 4.21436735 35 3 C37.75 3.875 37.75 3.875 40 5 C39.01 5.33 38.02 5.66 37 6 C37.66 6.33 38.32 6.66 39 7 C39 7.66 39 8.32 39 9 C40.15628906 8.98259766 40.15628906 8.98259766 41.3359375 8.96484375 C42.33882812 8.95582031 43.34171875 8.94679688 44.375 8.9375 C45.37273437 8.92589844 46.37046875 8.91429687 47.3984375 8.90234375 C50 9 50 9 52 10 C54.55106029 10.15644172 57.07918663 10.25821389 59.6328125 10.31640625 C60.76056595 10.3475779 60.76056595 10.3475779 61.91110229 10.37937927 C64.31564085 10.44482705 66.72028967 10.50373738 69.125 10.5625 C70.75391771 10.60568977 72.38282422 10.64930421 74.01171875 10.69335938 C78.00769915 10.80050351 82.00379059 10.90178433 86 11 C84 13 84 13 82.06738281 13.24291992 C81.28717773 13.23881104 80.50697266 13.23470215 79.703125 13.23046875 C78.83461914 13.22950195 77.96611328 13.22853516 77.07128906 13.22753906 C75.67475098 13.20771973 75.67475098 13.20771973 74.25 13.1875 C72.81092285 13.17348145 72.81092285 13.17348145 71.34277344 13.15917969 C46.87752072 12.83845873 23.16814988 8.85483153 0 1 C0 0.67 0 0.34 0 0 Z " fill="#075E55" transform="translate(158,438)"/>
<path d="M0 0 C0.33 0 0.66 0 1 0 C0.99333817 0.84587677 0.98667633 1.69175354 0.97981262 2.56326294 C0.91932393 10.59388562 0.87383569 18.62443012 0.84456348 26.65522957 C0.8290077 30.78246016 0.80795766 34.90950015 0.77368164 39.03662109 C0.74072336 43.03075874 0.72307148 47.02471482 0.71536827 51.01897812 C0.70988935 52.5313693 0.69919374 54.04375225 0.68280983 55.55606461 C0.59136434 64.35915824 1.17615194 72.42351732 3.33573914 80.99899292 C4.24484789 85.10617725 4.21658342 88.81272046 4 93 C3.67 93 3.34 93 3 93 C-3.86637727 62.86793664 -5.75539255 30.53987579 0 0 Z " fill="#AC4027" transform="translate(15,192)"/>
<path d="M0 0 C4.49739854 4.49739854 4.49739854 4.49739854 5.96484375 7.57421875 C6.28783447 8.23776367 6.6108252 8.90130859 6.94360352 9.58496094 C7.27158936 10.27879883 7.5995752 10.97263672 7.9375 11.6875 C8.63089747 13.12462348 9.32620151 14.56082865 10.0234375 15.99609375 C10.35827148 16.68558105 10.69310547 17.37506836 11.03808594 18.08544922 C12.61597706 21.22601322 14.42118399 24.22553354 16.28515625 27.203125 C17.24022297 29.60383915 16.91589324 30.59802509 16 33 C14.23413086 34.64746094 14.23413086 34.64746094 11.96484375 36.234375 C11.15595703 36.80800781 10.34707031 37.38164062 9.51367188 37.97265625 C8.66353516 38.55917969 7.81339844 39.14570313 6.9375 39.75 C6.08349609 40.35199219 5.22949219 40.95398438 4.34960938 41.57421875 C2.23972686 43.05938745 0.123247 44.53403146 -2 46 C-2.495 44.515 -2.495 44.515 -3 43 C1.75 40 1.75 40 4 40 C3.67 38.35 3.34 36.7 3 35 C3.99 34.505 4.98 34.01 6 33.5 C9.41696541 31.22862266 9.41696541 31.22862266 9.5 27.125 C9.22588966 23.52145192 8.27809917 20.38320369 7 17 C6.63893903 15.33911955 6.29537827 13.67381019 6 12 C5.01 12 4.02 12 3 12 C2.01 8.04 1.02 4.08 0 0 Z " fill="#C6182B" transform="translate(239,137)"/>
<path d="M0 0 C3.77727089 1.81309003 7.37269822 3.9073259 11 6 C11 6.66 11 7.32 11 8 C12.0209375 8.3403125 12.0209375 8.3403125 13.0625 8.6875 C16.79614324 10.35572357 19.72163421 12.55729608 23 15 C21.68 15.33 20.36 15.66 19 16 C19 15.34 19 14.68 19 14 C16.525 13.505 16.525 13.505 14 13 C14 14.65 14 16.3 14 18 C14.66 18 15.32 18 16 18 C16 20.97 16 23.94 16 27 C16.66 27 17.32 27 18 27 C18.33 29.31 18.66 31.62 19 34 C16.08713117 32.54356559 15.63353605 30.48205859 14.25 27.5625 C11.8576715 22.64363921 9.24501529 17.98301705 6.38671875 13.32421875 C3.84425299 9.0629029 1.57221027 4.71663082 0 0 Z " fill="#FAEAED" transform="translate(220,100)"/>
<path d="M0 0 C2 1 2 1 3.1875 4.4375 C4 8 4 8 3 10 C2.8940633 12.00156476 2.85333873 14.00668391 2.84178162 16.01101685 C2.8319928 17.29271759 2.82220398 18.57441833 2.81211853 19.8949585 C2.80621394 21.32336388 2.80040352 22.75176966 2.79467773 24.18017578 C2.78510192 25.67799146 2.77509202 27.17580441 2.76467896 28.6736145 C2.73759166 32.74772894 2.71660285 36.82185501 2.69667697 40.89600992 C2.67484096 45.15081825 2.64744063 49.40559057 2.62062073 53.66036987 C2.57066152 61.72095775 2.52573469 69.78156557 2.48259836 77.84219253 C2.43325354 87.0174206 2.37832521 96.19261256 2.32291877 105.36780572 C2.20904919 124.2451703 2.10222101 143.12256894 2 162 C1.67 162 1.34 162 1 162 C0.67 108.54 0.34 55.08 0 0 Z " fill="#8E244D" transform="translate(431,142)"/>
<path d="M0 0 C-3.65648704 2.34960574 -7.32534432 4.67892002 -11 7 C-12.34191406 7.85658203 -12.34191406 7.85658203 -13.7109375 8.73046875 C-18.42392317 11.66702136 -22.56130533 13.81767507 -28 15 C-28 14.34 -28 13.68 -28 13 C-27.01 12.34 -26.02 11.68 -25 11 C-28.00803054 9.99732315 -29.94076313 9.89720566 -33.078125 9.9375 C-34.57279297 9.94910156 -34.57279297 9.94910156 -36.09765625 9.9609375 C-38.18359616 9.98678558 -40.26953371 10.01282432 -42.35546875 10.0390625 C-47.69337533 10.08028186 -52.74293367 9.95043007 -58 9 C-58 8.67 -58 8.34 -58 8 C-57.28682617 7.9906543 -56.57365234 7.98130859 -55.83886719 7.97167969 C-43.7368207 7.77354024 -31.71265456 7.57489088 -19.8125 5.1875 C-19.03165039 5.03442383 -18.25080078 4.88134766 -17.44628906 4.72363281 C-12.76532348 3.69271802 -8.88563711 2.1007524 -4.7331543 -0.29956055 C-3 -1 -3 -1 0 0 Z " fill="#F9DCDE" transform="translate(227,238)"/>
<path d="M0 0 C0.66 0.33 1.32 0.66 2 1 C1.67 1.99 1.34 2.98 1 4 C0.89688623 6.01650213 0.85358923 8.03624139 0.84178162 10.05534363 C0.8319928 11.32159073 0.82220398 12.58783783 0.81211853 13.89245605 C0.80621434 15.29833947 0.80040389 16.70422327 0.79467773 18.11010742 C0.78509906 19.58836643 0.77508899 21.06662271 0.76467896 22.5448761 C0.73762264 26.56108177 0.716617 30.57729921 0.69667697 34.59354568 C0.67482191 38.7896246 0.64743087 42.98566725 0.62062073 47.18171692 C0.57068735 55.12894023 0.52575091 63.07618367 0.48259836 71.02344638 C0.43323151 80.07052615 0.37831133 89.11756951 0.32291877 98.16461408 C0.20908882 116.7763756 0.10225197 135.38817146 0 154 C-0.33 154 -0.66 154 -1 154 C-1.02333463 134.21620512 -1.04098196 114.43241303 -1.05181217 94.64860725 C-1.05697393 85.46316188 -1.06401434 76.27772505 -1.07543945 67.09228516 C-1.08538996 59.08858544 -1.09185431 51.08489191 -1.09408849 43.08118618 C-1.09539498 38.84119646 -1.0984769 34.60122444 -1.10573006 30.36124039 C-1.11249604 26.37389856 -1.11461577 22.38658179 -1.11310768 18.39923477 C-1.11338375 16.93264632 -1.11538546 15.46605707 -1.11920547 13.99947357 C-1.12415164 12.00332743 -1.12239545 10.00716797 -1.12025452 8.01101685 C-1.12117631 6.89196016 -1.1220981 5.77290348 -1.12304783 4.61993599 C-1 2 -1 2 0 0 Z " fill="#4A1851" transform="translate(434,150)"/>
<path d="M0 0 C0 0.99 0 1.98 0 3 C-1.82291667 3.16276042 -3.64583333 3.32552083 -5.46875 3.48828125 C-9.15787081 4.23407573 -12.49662839 5.62735545 -16 7 C-15.1843457 7.03963867 -14.36869141 7.07927734 -13.52832031 7.12011719 C-10.44099935 7.27828449 -7.35497985 7.45169521 -4.26904297 7.63476562 C-2.30107366 7.74708503 -0.33216352 7.84251874 1.63671875 7.9375 C9.01716368 8.38707025 15.40923522 9.41357386 22.32519531 12.07128906 C25.20488334 13.07113693 27.98646334 13.57423427 31 14 C31 14.66 31 15.32 31 16 C32.32 16.66 33.64 17.32 35 18 C34.01 18.495 34.01 18.495 33 19 C31.07421875 18.328125 31.07421875 18.328125 28.6875 17.25 C11.26288597 10.01054718 -7.44161496 9.65141019 -26 10 C-23.76860954 7.48708517 -21.83381612 6.33125163 -18.69140625 5.17578125 C-17.86189453 4.86962891 -17.03238281 4.56347656 -16.17773438 4.24804688 C-15.31470703 3.93931641 -14.45167969 3.63058594 -13.5625 3.3125 C-12.27375977 2.83200195 -12.27375977 2.83200195 -10.95898438 2.34179688 C-6.99864922 0.90083707 -4.28384178 0 0 0 Z " fill="#BE293E" transform="translate(168,22)"/>
<path d="M0 0 C0 0.33 0 0.66 0 1 C-4.8752782 1.57356214 -7.07156138 -0.29919845 -11 -3 C-13.7282504 -3.78215588 -13.7282504 -3.78215588 -16 -4 C-16 -4.66 -16 -5.32 -16 -6 C-21.28 -6.66 -26.56 -7.32 -32 -8 C-32 -8.66 -32 -9.32 -32 -10 C-35.50023856 -9.85957505 -39.00012399 -9.71166774 -42.5 -9.5625 C-43.48226562 -9.52318359 -44.46453125 -9.48386719 -45.4765625 -9.44335938 C-54.81258179 -9.7479373 -54.81258179 -9.7479373 -63 -7 C-65.01964199 -6.92755947 -67.04167124 -6.91622812 -69.0625 -6.9375 C-70.16722656 -6.94652344 -71.27195313 -6.95554687 -72.41015625 -6.96484375 C-73.69212891 -6.98224609 -73.69212891 -6.98224609 -75 -7 C-58.98511397 -23.01488603 -16.36695281 -9.75052508 0 0 Z " fill="#BC3A4C" transform="translate(231,66)"/>
<path d="M0 0 C0.33 0 0.66 0 1 0 C1 3.63 1 7.26 1 11 C0.01 10.67 -0.98 10.34 -2 10 C-2.07554099 14.81564097 -2.12923948 19.63091901 -2.16479492 24.44702148 C-2.17965472 26.07696558 -2.19994836 27.70687141 -2.22631836 29.33666992 C-2.40863765 40.91573206 -1.41442999 51.67312052 1 63 C1.21140625 64.00482422 1.4228125 65.00964844 1.640625 66.04492188 C2.07282983 68.03460769 2.53164814 70.01851137 3 72 C-2.96808926 67.41454726 -4.01795656 56.98892741 -5 50 C-6.3292178 33.17035312 -6.74042355 15.76777652 0 0 Z " fill="#BA2C3F" transform="translate(94,116)"/>
<path d="M0 0 C0.33 0 0.66 0 1 0 C1 3.3 1 6.6 1 10 C0.34 10 -0.32 10 -1 10 C-1.2165625 11.7634375 -1.2165625 11.7634375 -1.4375 13.5625 C-1.91410176 17.38212272 -2.44453544 21.19110019 -3 25 C-1.2984375 25.433125 -1.2984375 25.433125 0.4375 25.875 C1.613125 26.24625 2.78875 26.6175 4 27 C4.33 27.66 4.66 28.32 5 29 C6.90386607 29.7348255 8.81079601 30.46297538 10.734375 31.14453125 C15.44142353 32.92184785 19.81863995 35.21242663 24 38 C24.99 38.309375 25.98 38.61875 27 38.9375 C29.87001217 39.95396265 31.11128681 40.69157276 33 43 C29.28597038 43 28.1806079 42.84319207 25.05078125 41.3125 C24.2925708 40.94697021 23.53436035 40.58144043 22.75317383 40.20483398 C21.94775146 39.80723877 21.1423291 39.40964355 20.3125 39 C18.61474603 38.17804927 16.91682554 37.35644243 15.21875 36.53515625 C14.35636719 36.11508301 13.49398438 35.69500977 12.60546875 35.26220703 C8.52444509 33.28517439 4.41869698 31.36155161 0.3125 29.4375 C-1.10814813 28.76969123 -2.52872849 28.10173826 -3.94921875 27.43359375 C-4.95597656 26.96050781 -5.96273438 26.48742187 -7 26 C-5.9914183 19.13899028 -4.42531383 12.87467203 -1.90234375 6.41015625 C-1.1055283 4.28186563 -0.49831698 2.21417133 0 0 Z " fill="#BE404F" transform="translate(322,138)"/>
<path d="M0 0 C0.66 0 1.32 0 2 0 C1.3703336 3.35734992 0.58087706 6.59497991 -0.41015625 9.86328125 C-0.67763672 10.74951172 -0.94511719 11.63574219 -1.22070312 12.54882812 C-1.49849609 13.46083984 -1.77628906 14.37285156 -2.0625 15.3125 C-2.34416016 16.24384766 -2.62582031 17.17519531 -2.91601562 18.13476562 C-3.60859994 20.42381547 -4.30332378 22.71219287 -5 25 C-5.33 25 -5.66 25 -6 25 C-5.85904936 23.3745692 -5.71207913 21.74965949 -5.5625 20.125 C-5.48128906 19.22007813 -5.40007812 18.31515625 -5.31640625 17.3828125 C-5 15 -5 15 -4 13 C-5.65 13.33 -7.3 13.66 -9 14 C-9.33 14.99 -9.66 15.98 -10 17 C-10.9590625 17.2165625 -10.9590625 17.2165625 -11.9375 17.4375 C-12.618125 17.623125 -13.29875 17.80875 -14 18 C-15.10836423 19.88316159 -15.10836423 19.88316159 -16 22 C-17 23 -18 24 -19 25 C-19.33 25.99 -19.66 26.98 -20 28 C-21.98 28.33 -23.96 28.66 -26 29 C-23.63024363 25.27609713 -21.35037463 21.90365801 -18 19 C-17.34 19 -16.68 19 -16 19 C-15.73195557 18.40525879 -15.46391113 17.81051758 -15.18774414 17.19775391 C-13.99020301 14.98187204 -12.79681017 13.57920472 -10.99609375 11.8359375 C-10.42052734 11.27132812 -9.84496094 10.70671875 -9.25195312 10.125 C-8.65318359 9.5475 -8.05441406 8.97 -7.4375 8.375 C-6.24650616 7.21839849 -5.05759995 6.05964222 -3.87109375 4.8984375 C-3.34443115 4.38974121 -2.81776855 3.88104492 -2.27514648 3.35693359 C-0.8835783 2.00599895 -0.8835783 2.00599895 0 0 Z " fill="#F7D3D5" transform="translate(336,89)"/>
<path d="M0 0 C4.72084346 1.79751554 9.25206511 3.96137372 13.8125 6.125 C14.60076172 6.49753906 15.38902344 6.87007812 16.20117188 7.25390625 C18.13473705 8.16795524 20.06745388 9.08379842 22 10 C22 10.66 22 11.32 22 12 C-3.41 12 -28.82 12 -55 12 C-55 11.67 -55 11.34 -55 11 C-53.84488167 10.98786972 -53.84488167 10.98786972 -52.66642761 10.97549438 C-45.41215257 10.89758096 -38.15807961 10.8103004 -30.90404797 10.71247292 C-27.17459527 10.66250882 -23.44517092 10.61617897 -19.71557617 10.578125 C-16.11687631 10.54127335 -12.51841349 10.49491407 -8.91991615 10.44193649 C-7.54643216 10.42339183 -6.17289735 10.4082841 -4.79933739 10.39665604 C-2.87678472 10.37979563 -0.95436266 10.34962546 0.96801758 10.31884766 C2.06277908 10.30552399 3.15754059 10.29220032 4.28547668 10.2784729 C7.21937563 10.19095 7.21937563 10.19095 10 8 C9.36191406 7.67386719 8.72382813 7.34773437 8.06640625 7.01171875 C7.24011719 6.57472656 6.41382813 6.13773438 5.5625 5.6875 C4.73878906 5.25824219 3.91507812 4.82898438 3.06640625 4.38671875 C1 3 1 3 0 0 Z " fill="#F7BFC3" transform="translate(362,186)"/>
<path d="M0 0 C0.66 0.33 1.32 0.66 2 1 C-2.5235426 5.77485052 -2.5235426 5.77485052 -4.9921875 6.94140625 C-7.3212702 8.16938565 -8.32016641 9.45864324 -9.875 11.5625 C-12.14969284 14.35944374 -12.74033548 14.92787097 -16.375 15.9375 C-17.24125 15.958125 -18.1075 15.97875 -19 16 C-19 16.99 -19 17.98 -19 19 C-14.05 19 -9.1 19 -4 19 C-4 19.33 -4 19.66 -4 20 C-8.10163031 20.86666713 -12.2066266 21.71618274 -16.3125 22.5625 C-17.47974609 22.80935547 -18.64699219 23.05621094 -19.84960938 23.31054688 C-21.52700195 23.65375977 -21.52700195 23.65375977 -23.23828125 24.00390625 C-24.7857605 24.32597046 -24.7857605 24.32597046 -26.36450195 24.65454102 C-29 25 -29 25 -32 24 C-27.25 20 -27.25 20 -25 20 C-25 19.34 -25 18.68 -25 18 C-23.56640625 16.76660156 -23.56640625 16.76660156 -21.5625 15.390625 C-20.83160156 14.88273438 -20.10070312 14.37484375 -19.34765625 13.8515625 C-18.57292969 13.32304687 -17.79820312 12.79453125 -17 12.25 C-15.49915993 11.2147585 -13.99915697 10.17830234 -12.5 9.140625 C-11.75878906 8.62822266 -11.01757812 8.11582031 -10.25390625 7.58789062 C-6.77614873 5.13778936 -3.3830121 2.57874015 0 0 Z " fill="#F9D2D7" transform="translate(225,191)"/>
<path d="M0 0 C0.66 3.3 1.32 6.6 2 10 C1.34 10 0.68 10 0 10 C-0.495 7.03 -0.495 7.03 -1 4 C-11.55544663 3.59574885 -20.68766081 4.57427016 -31 7 C-32.60384856 7.35560443 -34.20796415 7.7100097 -35.8125 8.0625 C-36.84697266 8.29453125 -36.84697266 8.29453125 -37.90234375 8.53125 C-45.60166362 10.25176841 -53.12266678 11.43091509 -61 12 C-61.33 11.34 -61.66 10.68 -62 10 C-48.60588984 7.33863515 -35.19568787 4.7939711 -21.7300415 2.52182007 C-19.77899767 2.19239611 -17.82870043 1.85856014 -15.87841797 1.5246582 C-14.67588379 1.32445068 -13.47334961 1.12424316 -12.234375 0.91796875 C-11.17444336 0.74031982 -10.11451172 0.5626709 -9.02246094 0.37963867 C-5.98097282 -0.00238993 -3.06189548 -0.06729755 0 0 Z " fill="#BD4456" transform="translate(272,202)"/>
<path d="M0 0 C9.12177122 6.64206642 9.12177122 6.64206642 12 10 C12 10.66 12 11.32 12 12 C12.58265625 12.24492188 13.1653125 12.48984375 13.765625 12.7421875 C16.36302236 14.20435874 17.83975831 15.84740414 19.75 18.125 C20.36359375 18.84945312 20.9771875 19.57390625 21.609375 20.3203125 C22.06828125 20.87460938 22.5271875 21.42890625 23 22 C22.67 22.66 22.34 23.32 22 24 C21.57332031 23.5875 21.14664063 23.175 20.70703125 22.75 C13.31391919 15.92089855 4.7198554 9.87509236 -5 7 C-2.33333333 6.33333333 0.33333333 5.66666667 3 5 C2.01 4.67 1.02 4.34 0 4 C0 2.68 0 1.36 0 0 Z " fill="#FAE2E4" transform="translate(226,55)"/>
<path d="M0 0 C1.4989493 2.99789859 0.38906446 4.99593451 -0.41796875 8.2109375 C-2.1059294 15.74953329 -2.41530672 22.89393464 -2.3125 30.625 C-2.31572266 31.84445313 -2.31894531 33.06390625 -2.32226562 34.3203125 C-2.2766785 42.07841153 -1.46364823 49.39078821 0 57 C0.35926708 59.33063638 0.68137357 61.66340622 1 64 C0.505 62.515 0.505 62.515 0 61 C-0.66 61 -1.32 61 -2 61 C-4.14714623 55.74621985 -4.27740738 51.16008942 -4.23046875 45.5859375 C-4.23001053 44.69387604 -4.22955231 43.80181458 -4.2290802 42.88272095 C-4.22607036 41.00513369 -4.21822223 39.12754865 -4.20581055 37.25 C-4.18751601 34.37751418 -4.18530136 31.50535061 -4.18554688 28.6328125 C-4.18063239 26.80468472 -4.17480438 24.97655911 -4.16796875 23.1484375 C-4.16685593 22.29108002 -4.1657431 21.43372253 -4.16459656 20.55038452 C-4.15821671 19.74920197 -4.15183685 18.94801941 -4.14526367 18.12255859 C-4.14145187 17.42117767 -4.13764008 16.71979675 -4.13371277 15.99716187 C-3.99315 13.89768702 -3.56967791 12.02185813 -3 10 C-3.66 10 -4.32 10 -5 10 C-3.66511872 6.40608886 -2.03977277 3.24509304 0 0 Z " fill="#BA695F" transform="translate(45,115)"/>
<path d="M0 0 C4.44084528 1.48028176 8.62922698 3.71983915 12 7 C12.36453722 8.32514207 12.7018576 9.65835921 13 11 C13.66 11.33 14.32 11.66 15 12 C14.67 12.66 14.34 13.32 14 14 C7.69732561 13.63223832 2.66748157 12.83374078 -3 10 C-3 9.67 -3 9.34 -3 9 C0.465 8.505 0.465 8.505 4 8 C2.68 5.36 1.36 2.72 0 0 Z " fill="#FBECED" transform="translate(214,48)"/>
<path d="M0 0 C-12.24959827 6.78588857 -26.85865773 7.37678333 -40.5625 7.4375 C-42.30877686 7.4523645 -42.30877686 7.4523645 -44.09033203 7.4675293 C-51.48726533 7.39399377 -57.97752412 6.32723131 -65 4 C-61.89472979 3.15488965 -59.58280872 2.97804708 -56.375 3.375 C-55.59898437 3.46523437 -54.82296875 3.55546875 -54.0234375 3.6484375 C-52 4 -52 4 -50 5 C-48.27164535 5.09629223 -46.53962747 5.13075017 -44.80859375 5.1328125 C-43.26848633 5.13474609 -43.26848633 5.13474609 -41.69726562 5.13671875 C-40.62154297 5.13285156 -39.54582031 5.12898437 -38.4375 5.125 C-36.81811523 5.13080078 -36.81811523 5.13080078 -35.16601562 5.13671875 C-34.14056641 5.13542969 -33.11511719 5.13414062 -32.05859375 5.1328125 C-31.11298584 5.13168457 -30.16737793 5.13055664 -29.19311523 5.12939453 C-27.02361749 5.2450282 -27.02361749 5.2450282 -26 4 C-24.33636912 3.83957845 -22.66851122 3.72232982 -21 3.625 C-14.1950706 3.07492748 -6.28326733 -1.8849802 0 0 Z " fill="#BA3045" transform="translate(222,239)"/>
<path d="M0 0 C0.99 0 1.98 0 3 0 C2.67 11.55 2.34 23.1 2 35 C1.67 35 1.34 35 1 35 C0.17074928 29.95210075 -0.15422872 25.05739692 -0.125 19.9375 C-0.12886719 19.25623047 -0.13273437 18.57496094 -0.13671875 17.87304688 C-0.12891571 13.81156646 0.21686873 9.98402497 1 6 C0.34 6 -0.32 6 -1 6 C-1.268125 6.86625 -1.53625 7.7325 -1.8125 8.625 C-2.97111987 11.91791964 -4.38209839 14.91127875 -6 18 C-6.66 18 -7.32 18 -8 18 C-6.52232949 11.35048271 -3.37863948 5.8754328 0 0 Z " fill="#B81B2C" transform="translate(39,125)"/>
<path d="M0 0 C-2.64738916 1.4606285 -3.89448334 2 -7 2 C-7.33 2.99 -7.66 3.98 -8 5 C-18.43249471 8.9954235 -30.13417603 8.12939408 -41.125 8.0625 C-42.57291511 8.05747252 -44.02083192 8.05291183 -45.46875 8.04882812 C-48.97920259 8.03792705 -52.48959007 8.02073202 -56 8 C-56 7.67 -56 7.34 -56 7 C-55.36199463 6.98541748 -54.72398926 6.97083496 -54.06665039 6.95581055 C-36.8423025 6.51812621 -20.81228716 5.32689769 -4.44140625 -0.328125 C-2 -1 -2 -1 0 0 Z " fill="#C54D5E" transform="translate(200,254)"/>
<path d="M0 0 C0.33 0.66 0.66 1.32 1 2 C0.01 3.485 0.01 3.485 -1 5 C-1.66 5 -2.32 5 -3 5 C-3 6.32 -3 7.64 -3 9 C-3.99 9 -4.98 9 -6 9 C-6.09796875 9.61488281 -6.1959375 10.22976562 -6.296875 10.86328125 C-6.44640625 11.67152344 -6.5959375 12.47976562 -6.75 13.3125 C-6.88921875 14.11300781 -7.0284375 14.91351563 -7.171875 15.73828125 C-8 18 -8 18 -9.98046875 19.41796875 C-12.78815073 21.61741014 -12.89045532 23.55101599 -13.5625 27 C-14.8409882 33.47979114 -14.8409882 33.47979114 -18 36 C-16.66954636 21.36500996 -9.7972432 10.77696752 0 0 Z " fill="#E0F9DA" transform="translate(61,93)"/>
<path d="M0 0 C0.33 0 0.66 0 1 0 C1.78444879 12.81266364 -2.58032835 25.76208876 -6 38 C-6.33 38 -6.66 38 -7 38 C-6.67 33.05 -6.34 28.1 -6 23 C-5.34 23 -4.68 23 -4 23 C-4.99 19.7 -5.98 16.4 -7 13 C-5.68 13 -4.36 13 -3 13 C-2.01 8.71 -1.02 4.42 0 0 Z " fill="#184F6C" transform="translate(447,261)"/>
<path d="M0 0 C1.59277078 3.05639797 2.86832193 6.16739513 4.125 9.375 C6.15378134 14.28996432 8.48404461 18.89622154 11.125 23.5 C11.46160645 24.08700684 11.79821289 24.67401367 12.14501953 25.27880859 C13.92978126 28.33222448 15.80857755 31.22329081 18 34 C17.67 34.66 17.34 35.32 17 36 C10.26739292 31.86902699 10.26739292 31.86902699 9.25 28.5625 C9.1675 27.716875 9.085 26.87125 9 26 C8.484375 24.96875 7.96875 23.9375 7.4375 22.875 C6 20 6 20 6 17 C5.34 17 4.68 17 4 17 C1.16625922 11.33251843 0.36776168 6.30267439 0 0 Z " fill="#BD3345" transform="translate(46,180)"/>
<path d="M0 0 C3.54561974 2.70831595 4.34358638 6.53375681 5.5625 10.625 C6.31158542 13.12040531 7.11285066 15.54643186 8 18 C8.66 18.33 9.32 18.66 10 19 C10.12117188 17.79601562 10.24234375 16.59203125 10.3671875 15.3515625 C10.53599859 13.77599234 10.70529459 12.20047408 10.875 10.625 C10.99294922 9.43390625 10.99294922 9.43390625 11.11328125 8.21875 C11.7734375 2.2265625 11.7734375 2.2265625 14 0 C12.88156738 9.37579682 11.65562772 18.70030388 10 28 C7.61566108 25.61566108 7.10987297 23.81726333 6.0546875 20.625 C5.70019531 19.55765625 5.34570312 18.4903125 4.98046875 17.390625 C4.61566406 16.27171875 4.25085938 15.1528125 3.875 14 C3.50246094 12.88109375 3.12992187 11.7621875 2.74609375 10.609375 C0 2.28056319 0 2.28056319 0 0 Z " fill="#FCD9DD" transform="translate(286,246)"/>
<path d="M0 0 C0 0.66 0 1.32 0 2 C16.52767983 5.85645863 33.14738837 5.30254642 50 5 C50 5.33 50 5.66 50 6 C32.34574913 8.6534874 10.65815709 9.2978593 -6 2 C-2.25 0 -2.25 0 0 0 Z " fill="#FAD2D6" transform="translate(126,254)"/>
<path d="M0 0 C0.66 0.33 1.32 0.66 2 1 C-2.24061408 13.05664787 -7.37336945 24.52873985 -13 36 C-14.18414294 32.44757118 -13.69535532 31.30169438 -12.5625 27.8125 C-12.27503906 26.91144531 -11.98757813 26.01039063 -11.69140625 25.08203125 C-11.46324219 24.39496094 -11.23507812 23.70789063 -11 23 C-10.34 23 -9.68 23 -9 23 C-9 22.01 -9 21.02 -9 20 C-8.34 20 -7.68 20 -7 20 C-7 18.35 -7 16.7 -7 15 C-6.01 14.67 -5.02 14.34 -4 14 C-3.96261719 13.40832031 -3.92523438 12.81664062 -3.88671875 12.20703125 C-3.48623099 7.39332549 -2.9614965 3.99158223 0 0 Z " fill="#1D5665" transform="translate(438,300)"/>
<path d="M0 0 C0.99 0.33 1.98 0.66 3 1 C-3.18524262 5.04769554 -9.3105939 8.84461976 -16 12 C-16 11 -16 10 -16 9 C-19.96 9 -23.92 9 -28 9 C-28 8.67 -28 8.34 -28 8 C-27.43603516 7.89977539 -26.87207031 7.79955078 -26.29101562 7.69628906 C-23.69154393 7.2268513 -21.09594247 6.73856221 -18.5 6.25 C-17.613125 6.09273437 -16.72625 5.93546875 -15.8125 5.7734375 C-11.36051996 4.92232367 -7.54799845 3.93399116 -3.53125 1.796875 C-2.3659375 1.20390625 -1.200625 0.6109375 0 0 Z " fill="#F7CED1" transform="translate(224,237)"/>
<path d="M0 0 C9.9 0 19.8 0 30 0 C26.55366118 2.29755922 25.28931609 2.23643976 21.23828125 2.1953125 C20.12001953 2.18886719 19.00175781 2.18242187 17.84960938 2.17578125 C16.09874023 2.15064453 16.09874023 2.15064453 14.3125 2.125 C13.13365234 2.11597656 11.95480469 2.10695312 10.74023438 2.09765625 C7.82661974 2.07406423 4.91341108 2.0411454 2 2 C2 3.65 2 5.3 2 7 C1.01 7.495 1.01 7.495 0 8 C0 5.36 0 2.72 0 0 Z " fill="#C43D50" transform="translate(306,198)"/>
<path d="M0 0 C3.77727089 1.81309003 7.37269822 3.9073259 11 6 C11 6.66 11 7.32 11 8 C12.2065625 8.433125 12.2065625 8.433125 13.4375 8.875 C16 10 16 10 17 12 C14.0625 11.625 14.0625 11.625 11 11 C10.67 10.34 10.34 9.68 10 9 C9.01 8.67 8.02 8.34 7 8 C7.33 8.99 7.66 9.98 8 11 C7.01 11 6.02 11 5 11 C4.35165346 9.730447 3.70642185 8.45930294 3.0625 7.1875 C2.70285156 6.47980469 2.34320313 5.77210937 1.97265625 5.04296875 C1 3 1 3 0 0 Z " fill="#FADADB" transform="translate(220,100)"/>
<path d="M0 0 C4.6029598 1.72497507 8.93255824 3.9095871 13.3125 6.125 C14.05306641 6.49753906 14.79363281 6.87007812 15.55664062 7.25390625 C17.37201217 8.16744806 19.18613282 9.08347487 21 10 C21 10.33 21 10.66 21 11 C16.38 11 11.76 11 7 11 C7.99 10.01 8.98 9.02 10 8 C9.04287109 7.51080078 9.04287109 7.51080078 8.06640625 7.01171875 C7.24011719 6.57472656 6.41382813 6.13773438 5.5625 5.6875 C4.73878906 5.25824219 3.91507812 4.82898438 3.06640625 4.38671875 C1 3 1 3 0 0 Z " fill="#FADBDE" transform="translate(362,186)"/>
<path d="M0 0 C1.65 0 3.3 0 5 0 C5.33 1.32 5.66 2.64 6 4 C8.31 4.66 10.62 5.32 13 6 C13 4.68 13 3.36 13 2 C14.65 2.33 16.3 2.66 18 3 C18.33 2.01 18.66 1.02 19 0 C19 1.32 19 2.64 19 4 C18.01 4.33 17.02 4.66 16 5 C14.79117904 7.00016466 14.79117904 7.00016466 14 9 C10.26234143 8.37123501 7.80966403 6.6829182 4.75 4.5 C3.85796875 3.8709375 2.9659375 3.241875 2.046875 2.59375 C1.37140625 2.0678125 0.6959375 1.541875 0 1 C0 0.67 0 0.34 0 0 Z " fill="#B93C4E" transform="translate(271,135)"/>
<path d="M0 0 C1.97650679 3.95301358 -1.28374799 9.88819631 -2.625 13.9375 C-3.08183463 15.292173 -3.53963371 16.64652311 -4 18 C-5.65 18.33 -7.3 18.66 -9 19 C-6.83711034 12.09716067 -4.60658125 5.7033863 0 0 Z " fill="#BF2C41" transform="translate(104,97)"/>
<path d="M0 0 C0.66 0 1.32 0 2 0 C2 1.98 2 3.96 2 6 C2.66 6 3.32 6 4 6 C2.31326082 10.49797113 0.18326108 14.72886302 -2 19 C-2.66 19 -3.32 19 -4 19 C-4 20.65 -4 22.3 -4 24 C-4.66 24.33 -5.32 24.66 -6 25 C-4.98262809 18.7083579 -3.43756146 13.13768133 -0.8046875 7.32421875 C0.08620309 4.75101534 0.14356085 2.70372925 0 0 Z " fill="#C12137" transform="translate(337,88)"/>
<path d="M0 0 C5.03647184 1.85249539 9.63079742 4.46056929 14.296875 7.078125 C18.4682507 9.35961212 22.38176614 10.8543916 27 12 C27 12.33 27 12.66 27 13 C22.26683542 12.51866123 18.35445544 12.00069574 14 10 C13.071875 9.62875 12.14375 9.2575 11.1875 8.875 C10.465625 8.58625 9.74375 8.2975 9 8 C9 7.34 9 6.68 9 6 C5.7 5.34 2.4 4.68 -1 4 C-0.67 2.68 -0.34 1.36 0 0 Z " fill="#B92C3F" transform="translate(93,243)"/>
<path d="M0 0 C0.66 0.33 1.32 0.66 2 1 C-2.52278267 5.77404838 -2.52278267 5.77404838 -4.98828125 6.94140625 C-7.31987846 8.1683244 -8.36118643 9.47093711 -9.9375 11.5625 C-12.00000217 14.09208282 -12.68670543 14.89783873 -15.875 15.9375 C-16.57625 15.958125 -17.2775 15.97875 -18 16 C-15.0005275 10.8342418 -11.67328089 7.93720727 -6.75 4.625 C-5.77546875 3.95017578 -5.77546875 3.95017578 -4.78125 3.26171875 C-3.19416966 2.16476616 -1.59799227 1.08099477 0 0 Z " fill="#F6CBD1" transform="translate(225,191)"/>
<path d="M0 0 C2.12534659 0.14069196 4.25027529 0.28770921 6.375 0.4375 C8.15003906 0.55931641 8.15003906 0.55931641 9.9609375 0.68359375 C13 1 13 1 15 2 C16.66565749 2.15222973 18.33656496 2.24917215 20.0078125 2.31640625 C20.99394531 2.35830078 21.98007813 2.40019531 22.99609375 2.44335938 C24.54490234 2.50233398 24.54490234 2.50233398 26.125 2.5625 C27.68541016 2.62727539 27.68541016 2.62727539 29.27734375 2.69335938 C31.85142528 2.7996288 34.42560508 2.90166583 37 3 C37 3.33 37 3.66 37 4 C32.52095901 4.087842 28.04214276 4.14067447 23.5625 4.1875 C21.67241211 4.22520508 21.67241211 4.22520508 19.74414062 4.26367188 C12.46213204 4.32071111 6.7452176 3.7964395 0 1 C0 0.67 0 0.34 0 0 Z " fill="#B9253A" transform="translate(129,259)"/>
<path d="M0 0 C0 0.99 0 1.98 0 3 C-1.7325 3.1546875 -1.7325 3.1546875 -3.5 3.3125 C-8.01254635 3.85850205 -11.78645422 5.32911116 -16 7 C-16.66 7 -17.32 7 -18 7 C-18 7.66 -18 8.32 -18 9 C-20.64 9.33 -23.28 9.66 -26 10 C-23.76860954 7.48708517 -21.83381612 6.33125163 -18.69140625 5.17578125 C-17.86189453 4.86962891 -17.03238281 4.56347656 -16.17773438 4.24804688 C-15.31470703 3.93931641 -14.45167969 3.63058594 -13.5625 3.3125 C-12.27375977 2.83200195 -12.27375977 2.83200195 -10.95898438 2.34179688 C-6.99864922 0.90083707 -4.28384178 0 0 0 Z " fill="#AA4329" transform="translate(168,22)"/>
<path d="M0 0 C3.43653844 3.79882412 4.68800779 8.28932476 6.25 13.0625 C6.53101563 13.87783203 6.81203125 14.69316406 7.1015625 15.53320312 C7.36195313 16.31759766 7.62234375 17.10199219 7.890625 17.91015625 C8.12813477 18.62308838 8.36564453 19.33602051 8.61035156 20.07055664 C9 22 9 22 8 25 C7.67 25 7.34 25 7 25 C7 23.35 7 21.7 7 20 C6.34 20 5.68 20 5 20 C5 19.01 5 18.02 5 17 C4.34 17 3.68 17 3 17 C3 14.03 3 11.06 3 8 C2.01 8 1.02 8 0 8 C0 5.36 0 2.72 0 0 Z " fill="#BF3B50" transform="translate(280,232)"/>
<path d="M0 0 C5.97689202 0.7471115 11.05821919 3.70547946 16 7 C17.485 7.4640625 17.485 7.4640625 19 7.9375 C21.87001217 8.95396265 23.11128681 9.69157276 25 12 C21.30049965 12 20.08509414 11.80761637 16.92578125 10.3203125 C16.17619141 9.96839844 15.42660156 9.61648437 14.65429688 9.25390625 C13.88150391 8.88136719 13.10871094 8.50882813 12.3125 8.125 C11.52810547 7.76019531 10.74371094 7.39539063 9.93554688 7.01953125 C4.12984517 4.25969033 4.12984517 4.25969033 3 2 C2.01 1.34 1.02 0.68 0 0 Z " fill="#BE3648" transform="translate(330,169)"/>
<path d="M0 0 C0.99 0.33 1.98 0.66 3 1 C4.52279395 4.59933116 5.38379893 6.84860322 4.125 10.625 C1.25716646 13.83022572 -1.98617793 16.38214466 -6 18 C-7.32 17.67 -8.64 17.34 -10 17 C-6.04 14.03 -2.08 11.06 2 8 C1.67 6.68 1.34 5.36 1 4 C0.66666667 2.66666667 0.33333333 1.33333333 0 0 Z " fill="#F8D9DA" transform="translate(253,161)"/>
<path d="M0 0 C0.33 0 0.66 0 1 0 C1.01458252 0.73001221 1.02916504 1.46002441 1.04418945 2.2121582 C1.11951437 5.57942142 1.21589144 8.94578279 1.3125 12.3125 C1.33505859 13.46041016 1.35761719 14.60832031 1.38085938 15.79101562 C1.58915818 22.47551375 2.34531892 28.32716541 4.46557617 34.68432617 C5.04633985 37.20079188 4.83643586 38.58668257 4 41 C3.67 39.35 3.34 37.7 3 36 C2.34 36 1.68 36 1 36 C0.23737336 31.27382588 -0.11892423 26.75795287 -0.09765625 21.97265625 C-0.09443359 20.68681641 -0.09121094 19.40097656 -0.08789062 18.07617188 C-0.07953802 16.73828055 -0.07107311 15.40038993 -0.0625 14.0625 C-0.05747659 12.69726726 -0.05291517 11.33203274 -0.04882812 9.96679688 C-0.03708851 6.64448543 -0.02066679 3.32226592 0 0 Z " fill="#EEACB5" transform="translate(88,140)"/>
<path d="M0 0 C0.99 0.33 1.98 0.66 3 1 C3.33 3.64 3.66 6.28 4 9 C4.66 9 5.32 9 6 9 C7.02909892 11.57274729 8.04310611 14.1264446 8.9375 16.75 C9.288125 17.4925 9.63875 18.235 10 19 C10.99 19.33 11.98 19.66 13 20 C13.6875 22.0625 13.6875 22.0625 14 24 C13.01 24 12.02 24 11 24 C9.53515625 22.09375 9.53515625 22.09375 8.0625 19.5 C7.54429688 18.58734375 7.02609375 17.6746875 6.4921875 16.734375 C5.75355469 15.38085938 5.75355469 15.38085938 5 14 C4.38511719 12.89398438 4.38511719 12.89398438 3.7578125 11.765625 C1.68108479 7.85470713 0.44707716 4.47077162 0 0 Z " fill="#FAD4D6" transform="translate(49,186)"/>
<path d="M0 0 C3.9492568 0.55105909 7.34920174 1.38935371 11 3 C11 3.66 11 4.32 11 5 C11.66 5 12.32 5 13 5 C13 5.99 13 6.98 13 8 C13.99 8.33 14.98 8.66 16 9 C16.33 9.99 16.66 10.98 17 12 C12.9625531 10.60827683 10.10184153 8.70711315 6.8125 6 C5.95269531 5.29875 5.09289062 4.5975 4.20703125 3.875 C2 2 2 2 0 0 Z " fill="#C13147" transform="translate(237,111)"/>
<path d="M0 0 C6.52307692 0.61538462 6.52307692 0.61538462 8.9375 2.5625 C9.288125 3.036875 9.63875 3.51125 10 4 C9.67 4.99 9.34 5.98 9 7 C6.69 5.35 4.38 3.7 2 2 C2.66 2.94875 3.32 3.8975 4 4.875 C6 8 6 8 6 10 C4.02 10.33 2.04 10.66 0 11 C0 7.37 0 3.74 0 0 Z " fill="#BE2439" transform="translate(218,98)"/>
<path d="M0 0 C-3.84631279 3.94355104 -8.56230536 3.76987909 -13.75 4.1875 C-15.08224609 4.3102832 -15.08224609 4.3102832 -16.44140625 4.43554688 C-18.62684071 4.63529088 -20.81262449 4.8230145 -23 5 C-23.33 4.34 -23.66 3.68 -24 3 C-21.50159546 2.49061655 -19.00176612 1.99236886 -16.5 1.5 C-15.80390625 1.35691406 -15.1078125 1.21382812 -14.390625 1.06640625 C-9.50912797 0.11722627 -4.97281701 -0.13440046 0 0 Z " fill="#BD3345" transform="translate(234,209)"/>
<path d="M0 0 C0.66 0 1.32 0 2 0 C-0.02189166 7.78121942 -2.38630407 15.39772708 -5 23 C-6.07169239 19.78492282 -6.02006037 17.84874864 -5.75 14.5 C-5.68296875 13.5409375 -5.6159375 12.581875 -5.546875 11.59375 C-4.93022309 8.66905809 -4.17790219 7.93281857 -2 6 C-0.79950593 2.89992799 -0.79950593 2.89992799 0 0 Z " fill="#F9D5D7" transform="translate(328,115)"/>
<path d="M0 0 C4.62090116 1.64199012 8.63843785 4.0340968 12.8125 6.5625 C13.50537109 6.97435547 14.19824219 7.38621094 14.91210938 7.81054688 C16.62701317 8.84286827 18.31619055 9.91770235 20 11 C20 11.33 20 11.66 20 12 C18.35 12 16.7 12 15 12 C15 11.34 15 10.68 15 10 C14.01 10 13.02 10 12 10 C12 9.34 12 8.68 12 8 C9.36 7.34 6.72 6.68 4 6 C4 5.34 4 4.68 4 4 C3.34 4 2.68 4 2 4 C2 3.34 2 2.68 2 2 C1.34 2 0.68 2 0 2 C0 1.34 0 0.68 0 0 Z " fill="#AB4F2B" transform="translate(336,39)"/>
<path d="M0 0 C4.51617599 -0.07654536 8.59085217 -0.10228696 13 1 C13 1.66 13 2.32 13 3 C15.64 3 18.28 3 21 3 C20.67 3.99 20.34 4.98 20 6 C13.17576662 4.76583013 6.60632156 3.1084005 0 1 C0 0.67 0 0.34 0 0 Z " fill="#14546C" transform="translate(158,438)"/>
<path d="M0 0 C3.55160994 3.55160994 5.67453246 6.61740215 7.875 11 C8.37386719 11.92425781 8.37386719 11.92425781 8.8828125 12.8671875 C9.8046875 14.6875 9.8046875 14.6875 11 18 C10.1953125 20.4375 10.1953125 20.4375 9 22 C6 15.375 6 15.375 6 12 C5.01 12 4.02 12 3 12 C2.01 8.04 1.02 4.08 0 0 Z " fill="#BE3345" transform="translate(239,137)"/>
<path d="M0 0 C2 1 2 1 3.1875 4.4375 C4 8 4 8 3 10 C2.84655791 11.88472859 2.75040429 13.77427874 2.68359375 15.6640625 C2.64169922 16.78554687 2.59980469 17.90703125 2.55664062 19.0625 C2.51732422 20.238125 2.47800781 21.41375 2.4375 22.625 C2.39431641 23.80835938 2.35113281 24.99171875 2.30664062 26.2109375 C2.20032574 29.14050328 2.09829358 32.07015588 2 35 C1.67 35 1.34 35 1 35 C0.505 17.675 0.505 17.675 0 0 Z " fill="#8F244E" transform="translate(431,142)"/>
<path d="M0 0 C-3.09647525 1.53687482 -6.20325282 3.05165282 -9.3125 4.5625 C-10.19357422 5.00013672 -11.07464844 5.43777344 -11.98242188 5.88867188 C-12.82998047 6.29794922 -13.67753906 6.70722656 -14.55078125 7.12890625 C-15.33106689 7.51119385 -16.11135254 7.89348145 -16.9152832 8.28735352 C-19 9 -19 9 -22 8 C-19 6 -19 6 -16 6 C-16 5.34 -16 4.68 -16 4 C-12.62902617 2.50178941 -10.79557881 2 -7 2 C-7 1.34 -7 0.68 -7 0 C-3.86650268 -1.04449911 -3.01031744 -0.93423645 0 0 Z " fill="#245F68" transform="translate(336,425)"/>
<path d="M0 0 C1.45880109 0.14107747 2.91703551 0.28802415 4.375 0.4375 C5.59316406 0.55931641 5.59316406 0.55931641 6.8359375 0.68359375 C9 1 9 1 11 2 C11.34342449 3.33076989 11.67619874 4.66431979 12 6 C12.66 6.66 13.32 7.32 14 8 C14 8.66 14 9.32 14 10 C10.67312232 8.45315734 7.75296022 6.54045021 4.75 4.4375 C3.85796875 3.81746094 2.9659375 3.19742188 2.046875 2.55859375 C1.37140625 2.04425781 0.6959375 1.52992187 0 1 C0 0.67 0 0.34 0 0 Z " fill="#C5374B" transform="translate(219,50)"/>
<path d="M0 0 C6.69920873 -0.16356156 12.9561169 0.42397869 19.5625 1.5 C20.93245117 1.71462891 20.93245117 1.71462891 22.33007812 1.93359375 C24.55442736 2.28296798 26.7775921 2.63851822 29 3 C29 3.33 29 3.66 29 4 C24.71 4 20.42 4 16 4 C16 3.34 16 2.68 16 2 C14.64455078 2.03480469 14.64455078 2.03480469 13.26171875 2.0703125 C12.08222656 2.08835937 10.90273438 2.10640625 9.6875 2.125 C7.92986328 2.15980469 7.92986328 2.15980469 6.13671875 2.1953125 C3 2 3 2 0 0 Z " fill="#A5522C" transform="translate(247,13)"/>
<path d="M0 0 C1.84216739 3.22957379 2.50290748 6.14928511 3.0625 9.8125 C3.22621094 10.86566406 3.38992187 11.91882813 3.55859375 13.00390625 C3.70425781 13.99261719 3.84992187 14.98132813 4 16 C4.11472656 16.77214844 4.22945312 17.54429687 4.34765625 18.33984375 C4.57303473 19.89209836 4.78807073 21.44585205 5 23 C4.67 22.01 4.34 21.02 4 20 C3.34 20 2.68 20 2 20 C0.19320413 15.37630977 -0.21839082 11.57471347 -0.125 6.625 C-0.10695312 5.37976563 -0.08890625 4.13453125 -0.0703125 2.8515625 C-0.04710937 1.91054687 -0.02390625 0.96953125 0 0 Z " fill="#BE3F51" transform="translate(41,156)"/>
<path d="M0 0 C6.0018137 -0.21824777 11.19233704 0.4943096 17 2 C17 2.66 17 3.32 17 4 C18.32 4.66 19.64 5.32 21 6 C20.01 6.495 20.01 6.495 19 7 C16.93359375 6.29296875 16.93359375 6.29296875 14.4375 5.1875 C9.65669778 3.17636195 5.08610994 1.98440838 0 1 C0 0.67 0 0.34 0 0 Z " fill="#C13A4B" transform="translate(182,34)"/>
<path d="M0 0 C0.75410156 0.00322266 1.50820313 0.00644531 2.28515625 0.00976562 C3.06246094 0.01814453 3.83976562 0.02652344 4.640625 0.03515625 C5.43339844 0.03966797 6.22617187 0.04417969 7.04296875 0.04882812 C8.99222008 0.0605706 10.94143238 0.07850479 12.890625 0.09765625 C12.890625 0.42765625 12.890625 0.75765625 12.890625 1.09765625 C4.47544453 2.61781788 -3.5582478 3.37499011 -12.109375 3.09765625 C-8.05704397 0.92676463 -4.59864353 -0.03483821 0 0 Z " fill="#1C5465" transform="translate(256.109375,446.90234375)"/>
<path d="M0 0 C1.32 0.33 2.64 0.66 4 1 C-0.95 4.3 -5.9 7.6 -11 11 C-11.66 10.67 -12.32 10.34 -13 10 C-12.67 9.34 -12.34 8.68 -12 8 C-11.34 8 -10.68 8 -10 8 C-9.67 6.68 -9.34 5.36 -9 4 C-8.34 4 -7.68 4 -7 4 C-6.01 3.34 -5.02 2.68 -4 2 C-2.68 2 -1.36 2 0 2 C0 1.34 0 0.68 0 0 Z " fill="#245C67" transform="translate(356,409)"/>
<path d="M0 0 C0.33 0 0.66 0 1 0 C1.36285965 20.48141135 1.36285965 20.48141135 -2 28 C-2.33 28 -2.66 28 -3 28 C-3.125 20.25 -3.125 20.25 -2 18 C-1.78308608 16.62793479 -1.61076837 15.24860728 -1.46484375 13.8671875 C-1.37783203 13.06152344 -1.29082031 12.25585938 -1.20117188 11.42578125 C-1.11416016 10.58402344 -1.02714844 9.74226562 -0.9375 8.875 C-0.80118164 7.60076172 -0.80118164 7.60076172 -0.66210938 6.30078125 C-0.4379632 4.2008855 -0.21853552 2.10048707 0 0 Z " fill="#C14554" transform="translate(305,206)"/>
<path d="M0 0 C2.5722047 1.28610235 3.00974907 2.33393981 4 5 C3.69975781 7.60382455 3.32804363 8.70106336 1.37109375 10.484375 C0.73300781 10.90203125 0.09492188 11.3196875 -0.5625 11.75 C-1.20316406 12.17796875 -1.84382812 12.6059375 -2.50390625 13.046875 C-3.24447266 13.51867187 -3.24447266 13.51867187 -4 14 C-4.33 13.01 -4.66 12.02 -5 11 C-4.34 11 -3.68 11 -3 11 C-2.67 10.01 -2.34 9.02 -2 8 C-1.34 8 -0.68 8 0 8 C0 5.36 0 2.72 0 0 Z " fill="#C0253B" transform="translate(252,161)"/>
<path d="M0 0 C0.99 0.33 1.98 0.66 3 1 C1.69161864 3.002807 0.37857806 5.00226099 -0.9375 7 C-1.49727539 7.85851562 -1.49727539 7.85851562 -2.06835938 8.734375 C-3.01944589 10.17385729 -4.00694276 11.58914489 -5 13 C-5.33 13 -5.66 13 -6 13 C-6 11.02 -6 9.04 -6 7 C-5.34 7 -4.68 7 -4 7 C-3.896875 6.401875 -3.79375 5.80375 -3.6875 5.1875 C-2.91123545 2.71756736 -1.92911079 1.67748765 0 0 Z " fill="#235A66" transform="translate(415,347)"/>
<path d="M0 0 C-0.1875 2.8125 -0.1875 2.8125 -1 6 C-3.3125 7.9375 -3.3125 7.9375 -6 9 C-8.3125 8.6875 -8.3125 8.6875 -10 8 C-8.02 6.68 -6.04 5.36 -4 4 C-6.31 4 -8.62 4 -11 4 C-3.28571429 0 -3.28571429 0 0 0 Z " fill="#C52135" transform="translate(230,234)"/>
<path d="M0 0 C5.2391444 4.19131552 9.18168024 8.48931141 13 14 C11.35 13.67 9.7 13.34 8 13 C8 11.68 8 10.36 8 9 C6.35 9 4.7 9 3 9 C2.01 6.03 1.02 3.06 0 0 Z " fill="#A94931" transform="translate(383,73)"/>
<path d="M0 0 C6.95776959 1.36874156 13.38603107 3.4533129 20 6 C16.2164712 7.36653252 13.30274771 6.67877281 9.4375 5.8125 C8.30183594 5.57144531 7.16617187 5.33039062 5.99609375 5.08203125 C2.73013326 3.90253835 1.71785457 2.95275358 0 0 Z " fill="#AC4E29" transform="translate(292,21)"/>
<path d="M0 0 C7.45121951 14.32926829 7.45121951 14.32926829 7 22 C4.96452217 18.94678325 3.71962237 16.09623565 2.375 12.6875 C1.92898438 11.57761719 1.48296875 10.46773437 1.0234375 9.32421875 C0.00286905 6.00931894 -0.19790082 3.44243277 0 0 Z " fill="#286962" transform="translate(436,153)"/>
<path d="M0 0 C4.08055151 0.50547372 5.66272295 2.50088882 8.25 5.5625 C8.95640625 6.38878906 9.6628125 7.21507813 10.390625 8.06640625 C10.92171875 8.70449219 11.4528125 9.34257813 12 10 C11.67 10.66 11.34 11.32 11 12 C10.45730469 11.51789063 9.91460937 11.03578125 9.35546875 10.5390625 C8.64003906 9.90742187 7.92460937 9.27578125 7.1875 8.625 C6.47980469 7.99851562 5.77210938 7.37203125 5.04296875 6.7265625 C2.91196181 4.859401 2.91196181 4.859401 0 3 C0 2.01 0 1.02 0 0 Z " fill="#F6B3B9" transform="translate(237,67)"/>
<path d="M0 0 C-3.098534 1.20258256 -6.20458066 2.38440783 -9.3125 3.5625 C-10.19357422 3.90474609 -11.07464844 4.24699219 -11.98242188 4.59960938 C-12.82998047 4.91865234 -13.67753906 5.23769531 -14.55078125 5.56640625 C-15.33106689 5.86490479 -16.11135254 6.16340332 -16.9152832 6.47094727 C-19 7 -19 7 -22 6 C-18.99382731 2.99382731 -16.17618402 3.40414684 -12 3 C-12 2.34 -12 1.68 -12 1 C-10.56496445 0.63597631 -9.12683494 0.28413409 -7.6875 -0.0625 C-6.88699219 -0.25972656 -6.08648437 -0.45695312 -5.26171875 -0.66015625 C-3 -1 -3 -1 0 0 Z " fill="#1F6360" transform="translate(312,436)"/>
<path d="M0 0 C6.625 -0.25 6.625 -0.25 10 2 C10.66 2 11.32 2 12 2 C12.33 3.65 12.66 5.3 13 7 C8.1725201 5.58707905 4.2837641 3.57025846 0 1 C0 0.67 0 0.34 0 0 Z " fill="#BD283F" transform="translate(362,185)"/>
<path d="M0 0 C2.11945455 7.6543679 -1.37799302 15.76326073 -4 23 C-5.06366506 19.75404339 -4.91053386 17.72582954 -4.00390625 14.453125 C-3.77509766 13.60878906 -3.54628906 12.76445312 -3.31054688 11.89453125 C-3.06369141 11.02183594 -2.81683594 10.14914063 -2.5625 9.25 C-2.31951172 8.36183594 -2.07652344 7.47367188 -1.82617188 6.55859375 C-1.22603684 4.36986597 -0.61706655 2.18400314 0 0 Z " fill="#AB5E30" transform="translate(21,168)"/>
<path d="M0 0 C3.85025879 0.60355408 6.86101159 1.76772603 10.3125 3.5625 C11.19550781 4.01753906 12.07851562 4.47257812 12.98828125 4.94140625 C13.65214844 5.29074219 14.31601563 5.64007813 15 6 C13 8 13 8 10.375 8.125 C9.59125 8.08375 8.8075 8.0425 8 8 C7.773125 7.195625 7.54625 6.39125 7.3125 5.5625 C6.879375 4.716875 6.44625 3.87125 6 3 C3.48051222 2.26259783 3.48051222 2.26259783 1 2 C0.67 1.34 0.34 0.68 0 0 Z " fill="#FADFE0" transform="translate(198,40)"/>
<path d="M0 0 C2.875 -0.125 2.875 -0.125 6 0 C6.66 0.66 7.32 1.32 8 2 C11.59679066 1.67673447 11.59679066 1.67673447 15 1 C14.01 2.485 14.01 2.485 13 4 C13.66 4.66 14.32 5.32 15 6 C9.45949887 5.43174347 4.96284034 3.37113483 0 1 C0 0.67 0 0.34 0 0 Z " fill="#124865" transform="translate(142,431)"/>
<path d="M0 0 C2.03288895 2.60536918 3.74969771 5.18037686 5.25 8.125 C5.60578125 8.80820313 5.9615625 9.49140625 6.328125 10.1953125 C6.54984375 10.79085937 6.7715625 11.38640625 7 12 C6.67 12.66 6.34 13.32 6 14 C3.5625 13.1875 3.5625 13.1875 1 11 C0.23437883 7.34442851 0.06962633 3.72817347 0 0 Z " fill="#AD492C" transform="translate(424,127)"/>
<path d="M0 0 C3.42771135 3.9173844 8 9.52151811 8 15 C7.01 14.67 6.02 14.34 5 14 C5 13.34 5 12.68 5 12 C4.34 12 3.68 12 3 12 C3 10.68 3 9.36 3 8 C2.34 8 1.68 8 1 8 C0.67 5.36 0.34 2.72 0 0 Z " fill="#BF3649" transform="translate(226,112)"/>
<path d="M0 0 C0.99 0.33 1.98 0.66 3 1 C1.98679688 1.70576172 1.98679688 1.70576172 0.953125 2.42578125 C-0.38492188 3.35970703 -0.38492188 3.35970703 -1.75 4.3125 C-2.63171875 4.92738281 -3.5134375 5.54226562 -4.421875 6.17578125 C-6.64432169 7.74833065 -8.83192994 9.35368512 -11 11 C-11.33 10.01 -11.66 9.02 -12 8 C-9.87330165 5.66063182 -7.93775144 4.19346152 -5 3 C-4.01 3 -3.02 3 -2 3 C-2 2.34 -2 1.68 -2 1 C-1.34 0.67 -0.68 0.34 0 0 Z " fill="#F9D7DB" transform="translate(132,67)"/>
<path d="M0 0 C1.15242188 0.00902344 2.30484375 0.01804688 3.4921875 0.02734375 C4.36101562 0.03894531 5.22984375 0.05054688 6.125 0.0625 C6.125 0.3925 6.125 0.7225 6.125 1.0625 C4.07421875 1.29036458 2.0234375 1.51822917 -0.02734375 1.74609375 C-1.88640229 1.88136614 -1.88640229 1.88136614 -2.875 3.0625 C-4.89464199 3.13494053 -6.91667124 3.14627188 -8.9375 3.125 C-10.04222656 3.11597656 -11.14695313 3.10695312 -12.28515625 3.09765625 C-13.56712891 3.08025391 -13.56712891 3.08025391 -14.875 3.0625 C-10.99572606 -0.81677394 -5.20574076 -0.0531198 0 0 Z " fill="#BD273A" transform="translate(170.875,55.9375)"/>
<path d="M0 0 C0 0.99 0 1.98 0 3 C0.95211112 5.02323613 1.94773272 7.02699884 3 9 C1 9 1 9 -1.375 6.8125 C-3.72570111 4.29389166 -5.89676626 1.72641411 -8 -1 C-4.59745511 -2.2151946 -3.06748874 -1.86240388 0 0 Z " fill="#225B6E" transform="translate(84,387)"/>
<path d="M0 0 C0.71484375 1.546875 0.71484375 1.546875 1 4 C-0.05391226 6.53857885 -1.13965574 8.84495527 -2.4375 11.25 C-2.77587891 11.8996875 -3.11425781 12.549375 -3.46289062 13.21875 C-4.29786887 14.81814494 -5.14753114 16.40985859 -6 18 C-6.66 18 -7.32 18 -8 18 C-6.52232949 11.35048271 -3.37863948 5.8754328 0 0 Z " fill="#AC5C28" transform="translate(39,125)"/>
<path d="M0 0 C0.33 0.99 0.66 1.98 1 3 C-0.2578125 5.0078125 -0.2578125 5.0078125 -2.125 7.125 C-2.72570312 7.82882813 -3.32640625 8.53265625 -3.9453125 9.2578125 C-6.31139318 11.264033 -7.95461799 11.65225742 -11 12 C-7.49102731 7.81576108 -3.91939465 3.80411834 0 0 Z " fill="#FAD8D8" transform="translate(309,118)"/>
<path d="M0 0 C1.65 0 3.3 0 5 0 C2.71320518 4.09215914 0.09346293 7.49950248 -3 11 C-3.33 11 -3.66 11 -4 11 C-4 9.35 -4 7.7 -4 6 C-2.68 5.67 -1.36 5.34 0 5 C-0.33 4.01 -0.66 3.02 -1 2 C-0.67 1.34 -0.34 0.68 0 0 Z " fill="#1C5769" transform="translate(397,369)"/>
<path d="M0 0 C0.99 0.33 1.98 0.66 3 1 C3 2.32 3 3.64 3 5 C3.61875 5.226875 4.2375 5.45375 4.875 5.6875 C7.68240771 7.42148712 8.17387474 8.84570354 9 12 C8.54296875 14.1640625 8.54296875 14.1640625 8 16 C6.84800669 14.08702939 5.70362312 12.16947471 4.5625 10.25 C3.92441406 9.18265625 3.28632812 8.1153125 2.62890625 7.015625 C1.30526901 4.56515029 0.46702949 2.71008663 0 0 Z " fill="#1B6269" transform="translate(38,334)"/>
<path d="M0 0 C1.62477811 2.96162086 2.51695886 5.69266927 3.1875 9 C3.36667969 9.845625 3.54585938 10.69125 3.73046875 11.5625 C4.00334098 14.03021411 3.76424119 15.65849506 3 18 C2.67 16.02 2.34 14.04 2 12 C1.34 12 0.68 12 0 12 C-0.19477739 10.37585622 -0.38059458 8.75063577 -0.5625 7.125 C-0.66691406 6.22007812 -0.77132813 5.31515625 -0.87890625 4.3828125 C-1 2 -1 2 0 0 Z " fill="#1B6065" transform="translate(443,175)"/>
<path d="M0 0 C0.33 0 0.66 0 1 0 C1 3.3 1 6.6 1 10 C0.34 10 -0.32 10 -1 10 C-1.12375 11.258125 -1.2475 12.51625 -1.375 13.8125 C-1.69868059 17.10325263 -2.06604999 18.09907498 -4 21 C-3.54034292 13.69303751 -2.11670277 7.00242552 0 0 Z " fill="#BB293C" transform="translate(322,138)"/>
<path d="M0 0 C0.33 0 0.66 0 1 0 C0.67373505 6.32278971 0.38495108 11.55464391 -3 17 C-4.3582089 13.26039816 -3.62928896 10.59470752 -2.625 6.8125 C-2.34914062 5.74644531 -2.07328125 4.68039063 -1.7890625 3.58203125 C-1 1 -1 1 0 0 Z " fill="#F2E2DA" transform="translate(47,112)"/>
<path d="M0 0 C0 0.66 0 1.32 0 2 C-0.66 2 -1.32 2 -2 2 C-2.165 2.7425 -2.33 3.485 -2.5 4.25 C-4.67674742 8.2407036 -7.916523 9.30013399 -12 11 C-10.5611898 7.612801 -8.77880501 5.6405896 -6 3.25 C-5.29875 2.63640625 -4.5975 2.0228125 -3.875 1.390625 C-2 0 -2 0 0 0 Z " fill="#DBF8D2" transform="translate(92,63)"/>
<path d="M0 0 C2.29160319 -0.02692484 4.58329546 -0.04636124 6.875 -0.0625 C8.15117187 -0.07410156 9.42734375 -0.08570313 10.7421875 -0.09765625 C14 0 14 0 16 1 C17.53668865 1.22467831 19.07968054 1.40796805 20.625 1.5625 C21.44226563 1.64628906 22.25953125 1.73007812 23.1015625 1.81640625 C23.72804687 1.87699219 24.35453125 1.93757813 25 2 C25 2.33 25 2.66 25 3 C16.4488728 3.27733386 8.41518047 2.52016163 0 1 C0 0.67 0 0.34 0 0 Z " fill="#225E62" transform="translate(194,447)"/>
<path d="M0 0 C2.475 0.495 2.475 0.495 5 1 C5 1.66 5 2.32 5 3 C5.886875 3.103125 6.77375 3.20625 7.6875 3.3125 C11.0826755 4.01715907 13.21942098 4.9554566 16 7 C16 7.66 16 8.32 16 9 C10.0942118 7.44584521 5.02261107 4.40465533 0 1 C0 0.67 0 0.34 0 0 Z " fill="#296C66" transform="translate(117,418)"/>
<path d="M0 0 C0.66 0.33 1.32 0.66 2 1 C-0.97 8.92 -0.97 8.92 -4 17 C-4.66 16.67 -5.32 16.34 -6 16 C-6 15.34 -6 14.68 -6 14 C-5.34 14 -4.68 14 -4 14 C-3.94392578 13.11248047 -3.94392578 13.11248047 -3.88671875 12.20703125 C-3.48623099 7.39332549 -2.9614965 3.99158223 0 0 Z " fill="#236364" transform="translate(438,300)"/>
<path d="M0 0 C-0.33 1.65 -0.66 3.3 -1 5 C-6.94 5.495 -6.94 5.495 -13 6 C-10.65890118 4.43926745 -8.43666597 3.13626133 -5.9375 1.875 C-5.24527344 1.52179688 -4.55304688 1.16859375 -3.83984375 0.8046875 C-2 0 -2 0 0 0 Z " fill="#C43247" transform="translate(213,247)"/>
<path d="M0 0 C0.66 0.33 1.32 0.66 2 1 C-2.91467577 7.41638225 -2.91467577 7.41638225 -7 8 C-7.33 8.66 -7.66 9.32 -8 10 C-10.5625 10.625 -10.5625 10.625 -13 11 C-9.0299782 6.78185183 -4.69159716 3.38772897 0 0 Z " fill="#F6CED1" transform="translate(241,179)"/>
<path d="M0 0 C-1.38188453 3.21043882 -2.92421903 5.04936365 -5.625 7.25 C-6.57246094 8.03117187 -6.57246094 8.03117187 -7.5390625 8.828125 C-8.02117187 9.21484375 -8.50328125 9.6015625 -9 10 C-8.45276317 6.62537285 -7.9451 4.91765 -6 2 C-3 0 -3 0 0 0 Z " fill="#C02D40" transform="translate(312,114)"/>
<path d="M0 0 C-1.03204102 3.21079428 -2.58748662 4.59940291 -5.375 6.3125 C-9 8 -9 8 -11.4375 7.75 C-11.953125 7.5025 -12.46875 7.255 -13 7 C-4.79310345 0 -4.79310345 0 0 0 Z " fill="#BE3C4F" transform="translate(146,62)"/>
<path d="M0 0 C0.33 0 0.66 0 1 0 C1.48350422 7.89723556 -0.32335279 15.33532703 -2 23 C-4.31405622 15.70985295 -2.41310861 7.07845192 0 0 Z " fill="#1E6665" transform="translate(447,261)"/>
<path d="M0 0 C0.33 0 0.66 0 1 0 C1 5.28 1 10.56 1 16 C0.34 16 -0.32 16 -1 16 C-1 17.98 -1 19.96 -1 22 C-1.33 22 -1.66 22 -2 22 C-2.29883729 14.52906777 -1.15925507 7.36955011 0 0 Z " fill="#BB4251" transform="translate(301,236)"/>
<path d="M0 0 C0 0.99 0 1.98 0 3 C1.32 3.33 2.64 3.66 4 4 C4 4.66 4 5.32 4 6 C-0.97306516 5.50269348 -4.63799813 4.44697666 -9 2 C-5.86501708 0.14223235 -3.62528568 -0.20140476 0 0 Z " fill="#F8D0D5" transform="translate(116,249)"/>
<path d="M0 0 C0.66 0 1.32 0 2 0 C2.33 0.99 2.66 1.98 3 3 C2.34 3 1.68 3 1 3 C1 3.66 1 4.32 1 5 C-1.31 6.32 -3.62 7.64 -6 9 C-6.33 7.35 -6.66 5.7 -7 4 C-4.525 4.495 -4.525 4.495 -2 5 C-1.855625 4.360625 -1.71125 3.72125 -1.5625 3.0625 C-1 1 -1 1 0 0 Z " fill="#C32336" transform="translate(199,206)"/>
<path d="M0 0 C5.452999 1.56818272 9.76486783 3.03810217 14 7 C10.14354879 7.22036864 7.50776784 6.60355101 4 5 C4 4.34 4 3.68 4 3 C3.01 3 2.02 3 1 3 C0.67 2.01 0.34 1.02 0 0 Z " fill="#AA512A" transform="translate(322,32)"/>
<path d="M0 0 C2.04224637 0.11514149 4.08380159 0.24257326 6.125 0.375 C7.26195312 0.44460937 8.39890625 0.51421875 9.5703125 0.5859375 C12.95393616 0.99443876 15.81612441 1.80967569 19 3 C19 3.33 19 3.66 19 4 C12.1781317 4.38614349 6.50422293 3.00865708 0 1 C0 0.67 0 0.34 0 0 Z " fill="#C14B5C" transform="translate(157,242)"/>
<path d="M0 0 C5.28 1.65 10.56 3.3 16 5 C16 5.33 16 5.66 16 6 C15.21625 5.95875 14.4325 5.9175 13.625 5.875 C10.83883881 5.71271266 10.83883881 5.71271266 9 8 C9 7.34 9 6.68 9 6 C8.34 6 7.68 6 7 6 C7 5.01 7 4.02 7 3 C4.69 2.67 2.38 2.34 0 2 C0 1.34 0 0.68 0 0 Z " fill="#F9D8D8" transform="translate(144,238)"/>
<path d="M0 0 C1.19935725 3.47651527 0.80128318 5.69868278 -0.25 9.1875 C-0.62898438 10.50814453 -0.62898438 10.50814453 -1.015625 11.85546875 C-1.34046875 12.56316406 -1.6653125 13.27085937 -2 14 C-2.99 14.33 -3.98 14.66 -5 15 C-1.92482916 4.44191344 -1.92482916 4.44191344 0 0 Z " fill="#A8542F" transform="translate(27,151)"/>
<path d="M0 0 C0.99 0.33 1.98 0.66 3 1 C-2.445 4.96 -2.445 4.96 -8 9 C-8.33 8.01 -8.66 7.02 -9 6 C-8.01 6 -7.02 6 -6 6 C-6 5.01 -6 4.02 -6 3 C-4.02 2.67 -2.04 2.34 0 2 C0 1.34 0 0.68 0 0 Z " fill="#BB2E3F" transform="translate(230,185)"/>
<path d="M0 0 C1.75128818 0.28382946 3.50100003 0.57739529 5.25 0.875 C6.71179688 1.11863281 6.71179688 1.11863281 8.203125 1.3671875 C10.77264117 1.94855848 12.72071056 2.70840265 15 4 C9.47322267 4.19392201 5.24385089 3.7479503 0 2 C0 1.34 0 0.68 0 0 Z " fill="#B25328" transform="translate(277,17)"/>
<path d="M0 0 C2.54131358 2.30283254 4.07110295 4.67313793 5.6875 7.6875 C6.12449219 8.49574219 6.56148438 9.30398437 7.01171875 10.13671875 C7.33785156 10.75160156 7.66398437 11.36648437 8 12 C7.34 12 6.68 12 6 12 C5.67 12.66 5.34 13.32 5 14 C3.5393715 11.35261084 3 10.10551666 3 7 C2.34 6.67 1.68 6.34 1 6 C0.375 2.9375 0.375 2.9375 0 0 Z " fill="#F4C9CA" transform="translate(97,192)"/>
<path d="M0 0 C3.48331435 3.01887244 4.79157144 5.56909529 6 10 C5.01 10 4.02 10 3 10 C0.96564469 6.27034861 0 4.33094958 0 0 Z " fill="#AD492E" transform="translate(418,117)"/>
<path d="M0 0 C0.99 0.33 1.98 0.66 3 1 C3.33 1.99 3.66 2.98 4 4 C2.35 5.32 0.7 6.64 -1 8 C-1.66 6.68 -2.32 5.36 -3 4 C-2.01 2.68 -1.02 1.36 0 0 Z " fill="#C91B36" transform="translate(299,121)"/>
<path d="M0 0 C0.66 0.33 1.32 0.66 2 1 C1 4 1 4 -2.4375 5.75 C-3.613125 6.1625 -4.78875 6.575 -6 7 C-6.66 6.67 -7.32 6.34 -8 6 C-2.25 1.125 -2.25 1.125 0 0 Z " fill="#BB3446" transform="translate(131,70)"/>
<path d="M0 0 C1.54363098 4.11634927 0.73840234 7.77096844 0 12 C-0.99 13.485 -0.99 13.485 -2 15 C-2.66 15 -3.32 15 -4 15 C-3.52229477 13.06213915 -3.04278429 11.12472326 -2.5625 9.1875 C-2.29566406 8.10855469 -2.02882813 7.02960938 -1.75390625 5.91796875 C-1.23922588 3.9259157 -0.65062825 1.95188476 0 0 Z " fill="#BE3044" transform="translate(327,123)"/>
<path d="M0 0 C0.33 0 0.66 0 1 0 C1 3.63 1 7.26 1 11 C0.01 10.67 -0.98 10.34 -2 10 C-2.33 10.99 -2.66 11.98 -3 13 C-2.45144652 8.428721 -1.58255197 4.32564205 0 0 Z " fill="#C03749" transform="translate(94,116)"/>
<path d="M0 0 C0.33 0.66 0.66 1.32 1 2 C0.01 3.485 0.01 3.485 -1 5 C-1.66 5 -2.32 5 -3 5 C-3 6.32 -3 7.64 -3 9 C-3.99 9 -4.98 9 -6 9 C-6.66 10.32 -7.32 11.64 -8 13 C-8 9.21775154 -6.90729614 8.2717904 -4.5625 5.375 C-3.92441406 4.57835938 -3.28632812 3.78171875 -2.62890625 2.9609375 C-1 1 -1 1 0 0 Z " fill="#D8F6B1" transform="translate(61,93)"/>
<path d="M0 0 C4.83540096 2.61111652 8.87103901 5.37457083 13 9 C12.01 9.33 11.02 9.66 10 10 C9.67 9.01 9.34 8.02 9 7 C6.98491642 6.26676204 6.98491642 6.26676204 5 6 C5 5.34 5 4.68 5 4 C2.525 3.01 2.525 3.01 0 2 C0 1.34 0 0.68 0 0 Z " fill="#BC3043" transform="translate(234,68)"/>
<path d="M0 0 C7.21147541 0.68032787 7.21147541 0.68032787 10 4 C12.09989652 5.17574711 12.09989652 5.17574711 14 6 C13.01 6.495 13.01 6.495 12 7 C9.1796875 5.78515625 9.1796875 5.78515625 5.875 4.0625 C4.77929688 3.49660156 3.68359375 2.93070313 2.5546875 2.34765625 C1.71164063 1.90292969 0.86859375 1.45820313 0 1 C0 0.67 0 0.34 0 0 Z " fill="#C14658" transform="translate(136,233)"/>
<path d="M0 0 C2.64 1.98 5.28 3.96 8 6 C7.67 6.66 7.34 7.32 7 8 C5.02 7.34 3.04 6.68 1 6 C0.67 4.02 0.34 2.04 0 0 Z " fill="#FAE2E2" transform="translate(120,222)"/>
<path d="M0 0 C3.63 1.32 7.26 2.64 11 4 C11 4.99 11 5.98 11 7 C10.67 6.34 10.34 5.68 10 5 C7.69 5 5.38 5 3 5 C3 4.34 3 3.68 3 3 C2.01 2.67 1.02 2.34 0 2 C0 1.34 0 0.68 0 0 Z " fill="#F9DAD9" transform="translate(328,170)"/>
<path d="M0 0 C0.66 0.33 1.32 0.66 2 1 C1.67 1.99 1.34 2.98 1 4 C0.85507877 5.40664926 0.75371069 6.8181133 0.68359375 8.23046875 C0.64169922 9.03291016 0.59980469 9.83535156 0.55664062 10.66210938 C0.51732422 11.49548828 0.47800781 12.32886719 0.4375 13.1875 C0.39431641 14.03248047 0.35113281 14.87746094 0.30664062 15.74804688 C0.20068482 17.83184433 0.0998498 19.91590103 0 22 C-0.33 22 -0.66 22 -1 22 C-1.02895225 18.70835171 -1.0467823 15.41673601 -1.0625 12.125 C-1.07506836 10.71927734 -1.07506836 10.71927734 -1.08789062 9.28515625 C-1.09111328 8.38925781 -1.09433594 7.49335938 -1.09765625 6.5703125 C-1.10289307 5.74289551 -1.10812988 4.91547852 -1.11352539 4.06298828 C-1 2 -1 2 0 0 Z " fill="#422351" transform="translate(434,150)"/>
<path d="M0 0 C0.66 0 1.32 0 2 0 C1.25749403 4.08378283 0.17076699 8.01939223 -1 12 C-1.33 12 -1.66 12 -2 12 C-2 10.02 -2 8.04 -2 6 C-2.66 5.67 -3.32 5.34 -4 5 C-2.71937515 3.2925002 -1.38232443 1.62626404 0 0 Z " fill="#F4B5BA" transform="translate(336,89)"/>
<path d="M0 0 C1.32 0.33 2.64 0.66 4 1 C4.33 2.65 4.66 4.3 5 6 C5.66 6 6.32 6 7 6 C7.33 7.65 7.66 9.3 8 11 C7.67 10.34 7.34 9.68 7 9 C6.34 9 5.68 9 5 9 C3.35 6.03 1.7 3.06 0 0 Z " fill="#266867" transform="translate(49,353)"/>
<path d="M0 0 C-0.66 0 -1.32 0 -2 0 C-2 0.66 -2 1.32 -2 2 C-4.75078884 2.91692961 -6.35948913 3.10886083 -9.1875 3.0625 C-11.0746875 3.0315625 -11.0746875 3.0315625 -13 3 C-10.85642985 0.85642985 -9.92072889 0.52040399 -7.0625 -0.1875 C-6.37285156 -0.36667969 -5.68320313 -0.54585937 -4.97265625 -0.73046875 C-3 -1 -3 -1 0 0 Z " fill="#BE2941" transform="translate(207,214)"/>
<path d="M0 0 C3.96 0 7.92 0 12 0 C8.2311658 1.8844171 6.31987525 2.33429462 2.25 2.625 C1.26515625 2.69976562 0.2803125 2.77453125 -0.734375 2.8515625 C-1.48203125 2.90054688 -2.2296875 2.94953125 -3 3 C-2.01 2.67 -1.02 2.34 0 2 C0 1.34 0 0.68 0 0 Z " fill="#FDDDE0" transform="translate(224,207)"/>
<path d="M0 0 C1.11375 0.185625 1.11375 0.185625 2.25 0.375 C-1.07307692 5.175 -1.07307692 5.175 -4.5 6.1875 C-5.2425 6.249375 -5.985 6.31125 -6.75 6.375 C-3.42692308 0.46730769 -3.42692308 0.46730769 0 0 Z " fill="#F9E2E3" transform="translate(213.75,200.625)"/>
<path d="M0 0 C0.93619813 3.15506142 1.1057123 5.96586502 1.0625 9.25 C1.05347656 10.14203125 1.04445313 11.0340625 1.03515625 11.953125 C1.02355469 12.62859375 1.01195312 13.3040625 1 14 C-0.32 14 -1.64 14 -3 14 C-2.69024532 12.22868439 -2.37709575 10.45796222 -2.0625 8.6875 C-1.88847656 7.70136719 -1.71445312 6.71523437 -1.53515625 5.69921875 C-1 3 -1 3 0 0 Z " fill="#BD4D5D" transform="translate(318,150)"/>
<path d="M0 0 C4.43458973 1.3937282 6.87378374 3.60582235 10 7 C5.25 6.125 5.25 6.125 3 5 C3 4.34 3 3.68 3 3 C2.01 3 1.02 3 0 3 C0 2.01 0 1.02 0 0 Z " fill="#FAD2D7" transform="translate(258,127)"/>
<path d="M0 0 C0.33 0 0.66 0 1 0 C1.125 6.75 1.125 6.75 0 9 C-0.66 9 -1.32 9 -2 9 C-2 10.65 -2 12.3 -2 14 C-2.99 14.495 -2.99 14.495 -4 15 C-2.07289294 4.44191344 -2.07289294 4.44191344 0 0 Z " fill="#BB3D4D" transform="translate(335,98)"/>
<path d="M0 0 C-0.33 1.65 -0.66 3.3 -1 5 C-0.34 5.33 0.32 5.66 1 6 C-2 6 -2 6 -4.6875 3.5 C-5.450625 2.675 -6.21375 1.85 -7 1 C-2.25 0 -2.25 0 0 0 Z " fill="#175471" transform="translate(95,396)"/>
<path d="M0 0 C2.64 0 5.28 0 8 0 C8 1.65 8 3.3 8 5 C4.62496331 3.8141763 2.35277269 2.72426311 0 0 Z " fill="#F9DDE0" transform="translate(92,241)"/>
<path d="M0 0 C2.97 0.495 2.97 0.495 6 1 C6 1.66 6 2.32 6 3 C6.99 3 7.98 3 9 3 C8.67 4.32 8.34 5.64 8 7 C6.66382648 6.02471263 5.3311249 5.04466681 4 4.0625 C3.2575 3.51722656 2.515 2.97195312 1.75 2.41015625 C1.1725 1.94480469 0.595 1.47945312 0 1 C0 0.67 0 0.34 0 0 Z " fill="#BF3C4E" transform="translate(126,226)"/>
<path d="M0 0 C2.31 0 4.62 0 7 0 C7.33 1.65 7.66 3.3 8 5 C5 5 5 5 2.3125 2.5 C1.549375 1.675 0.78625 0.85 0 0 Z " fill="#C13246" transform="translate(118,220)"/>
<path d="M0 0 C4.85963179 0.60745397 8.7405518 2.72758967 13 5 C9.28574649 6.11665191 7.49360475 5.79401325 4 4 C3.67 3.34 3.34 2.68 3 2 C2.01 1.34 1.02 0.68 0 0 Z " fill="#BB253A" transform="translate(330,169)"/>
<path d="M0 0 C0.99 0 1.98 0 3 0 C2.67 1.65 2.34 3.3 2 5 C0.02 5.33 -1.96 5.66 -4 6 C-2.1875 3 -2.1875 3 0 0 Z " fill="#F7D8D9" transform="translate(314,112)"/>
<path d="M0 0 C0.66 0.33 1.32 0.66 2 1 C1.67 2.32 1.34 3.64 1 5 C1.99 5 2.98 5 4 5 C4 6.98 4 8.96 4 11 C1.3513141 7.80331012 -0.93992341 4.60513403 -3 1 C-2.01 0.67 -1.02 0.34 0 0 Z " fill="#C32234" transform="translate(246,69)"/>
<path d="M0 0 C0.99 0 1.98 0 3 0 C3.53190541 1.43344 4.05015258 2.87195367 4.5625 4.3125 C4.85253906 5.11300781 5.14257812 5.91351563 5.44140625 6.73828125 C6 9 6 9 5 12 C4.16180842 10.37750059 3.3295884 8.75191503 2.5 7.125 C2.0359375 6.22007812 1.571875 5.31515625 1.09375 4.3828125 C0 2 0 2 0 0 Z " fill="#266C60" transform="translate(32,322)"/>
<path d="M0 0 C-2.31 1.65 -4.62 3.3 -7 5 C-8.32 4.34 -9.64 3.68 -11 3 C-9.73581754 2.30034557 -8.46334598 1.61565237 -7.1875 0.9375 C-6.47980469 0.55464844 -5.77210938 0.17179688 -5.04296875 -0.22265625 C-3 -1 -3 -1 0 0 Z " fill="#F6A1A8" transform="translate(227,238)"/>
<path d="M0 0 C0.99 0.33 1.98 0.66 3 1 C-0.465 3.97 -0.465 3.97 -4 7 C-4.33 5.35 -4.66 3.7 -5 2 C-4.34 1.67 -3.68 1.34 -3 1 C-2.01 1.33 -1.02 1.66 0 2 C0 1.34 0 0.68 0 0 Z " fill="#BE1F35" transform="translate(295,129)"/>
<path d="M0 0 C0.66 0 1.32 0 2 0 C2.33 1.32 2.66 2.64 3 4 C3.66 4 4.32 4 5 4 C5.33 6.31 5.66 8.62 6 11 C3.46166551 9.73083275 3.10599099 8.58375191 1.875 6.0625 C1.52179688 5.35222656 1.16859375 4.64195313 0.8046875 3.91015625 C0 2 0 2 0 0 Z " fill="#FCDEE2" transform="translate(233,123)"/>
<path d="M0 0 C-1.5830577 4.2742558 -4.50568404 6.26531794 -8 9 C-8 8.01 -8 7.02 -8 6 C-7.34 6 -6.68 6 -6 6 C-6 5.01 -6 4.02 -6 3 C-2.66666667 0 -2.66666667 0 0 0 Z " fill="#B63041" transform="translate(336,89)"/>
<path d="M0 0 C1 2 1 2 0.375 3.9375 C-1.7290605 7.09359075 -4.67958136 8.33979068 -8 10 C-6.34908222 5.70761377 -3.26245434 3.1206085 0 0 Z " fill="#CCF5C0" transform="translate(78,74)"/>
<path d="M0 0 C1.32 0.99 2.64 1.98 4 3 C3.67 4.32 3.34 5.64 3 7 C0.97954558 6.39816251 -1.02111039 5.72693904 -3 5 C-3.33 4.34 -3.66 3.68 -4 3 C-1.525 3.495 -1.525 3.495 1 4 C0.67 2.68 0.34 1.36 0 0 Z " fill="#F9CACF" transform="translate(234,62)"/>
<path d="M0 0 C2 1 2 1 3.1875 4.3125 C3.90649268 7.57562063 4.20286847 8.99282882 3 12 C0.97649676 8.96474514 0.67875982 7.80573798 0.375 4.3125 C0.30023438 3.50425781 0.22546875 2.69601563 0.1484375 1.86328125 C0.09945313 1.24839844 0.05046875 0.63351563 0 0 Z " fill="#BD3348" transform="translate(276,220)"/>
<path d="M0 0 C1.09054688 0.02320313 2.18109375 0.04640625 3.3046875 0.0703125 C4.40039062 0.08835938 5.49609375 0.10640625 6.625 0.125 C7.46804687 0.14820313 8.31109375 0.17140625 9.1796875 0.1953125 C8.03515625 1.71484375 8.03515625 1.71484375 6.1796875 3.1953125 C3.48046875 3.26953125 3.48046875 3.26953125 0.4921875 2.8828125 C-0.99861328 2.70298828 -0.99861328 2.70298828 -2.51953125 2.51953125 C-3.27878906 2.41253906 -4.03804687 2.30554688 -4.8203125 2.1953125 C-2.8203125 0.1953125 -2.8203125 0.1953125 0 0 Z " fill="#BD1B2C" transform="translate(209.8203125,212.8046875)"/>
<path d="M0 0 C0 0.66 0 1.32 0 2 C1.32 2.33 2.64 2.66 4 3 C0.37 3.66 -3.26 4.32 -7 5 C-2.25 0 -2.25 0 0 0 Z " fill="#F3A5AD" transform="translate(200,211)"/>
<path d="M0 0 C0.66 0.33 1.32 0.66 2 1 C1.34 2.32 0.68 3.64 0 5 C-0.66 5 -1.32 5 -2 5 C-2.33 5.66 -2.66 6.32 -3 7 C-3.66 6.67 -4.32 6.34 -5 6 C-5 4.68 -5 3.36 -5 2 C-2.525 2.495 -2.525 2.495 0 3 C0 2.01 0 1.02 0 0 Z " fill="#BF2D3F" transform="translate(289,135)"/>
<path d="M0 0 C3.74171065 0.50563657 5.5571028 1.11293967 8 4 C8.556875 4.556875 9.11375 5.11375 9.6875 5.6875 C10.3371875 6.3371875 10.3371875 6.3371875 11 7 C7.41584854 7 6.58796261 6.21108216 3.8125 4.0625 C3.09707031 3.51722656 2.38164062 2.97195312 1.64453125 2.41015625 C1.10183594 1.94480469 0.55914062 1.47945312 0 1 C0 0.67 0 0.34 0 0 Z " fill="#BD3549" transform="translate(260,127)"/>
<path d="M0 0 C5.53846154 0.61538462 5.53846154 0.61538462 7.875 2.5625 C8.431875 3.2740625 8.431875 3.2740625 9 4 C8.67 4.99 8.34 5.98 8 7 C7.236875 6.34 6.47375 5.68 5.6875 5 C3.15722061 2.70149462 3.15722061 2.70149462 0 3 C0 2.01 0 1.02 0 0 Z " fill="#C53749" transform="translate(219,98)"/>
<path d="M0 0 C5.859375 -0.390625 5.859375 -0.390625 8 0 C9.32 1.32 10.64 2.64 12 4 C6.06 2.515 6.06 2.515 0 1 C0 0.67 0 0.34 0 0 Z " fill="#296864" transform="translate(158,438)"/>
<path d="M0 0 C0.99 0.33 1.98 0.66 3 1 C1.75023244 4.65316671 1.32901247 5.78065836 -2 8 C-2 6.35 -2 4.7 -2 3 C-1.34 3 -0.68 3 0 3 C0 2.01 0 1.02 0 0 Z " fill="#20566D" transform="translate(404,361)"/>
<path d="M0 0 C1.34173403 0.92543709 2.67320159 1.86577405 4 2.8125 C5.11375 3.59560547 5.11375 3.59560547 6.25 4.39453125 C6.8275 4.92433594 7.405 5.45414063 8 6 C8 6.99 8 7.98 8 9 C7.34 8.67 6.68 8.34 6 8 C6 7.34 6 6.68 6 6 C5.195625 5.7525 4.39125 5.505 3.5625 5.25 C2.716875 4.8375 1.87125 4.425 1 4 C0.33984375 1.921875 0.33984375 1.921875 0 0 Z " fill="#BB3144" transform="translate(78,231)"/>
<path d="M0 0 C1.32 0.33 2.64 0.66 4 1 C4 1.66 4 2.32 4 3 C4.66 3 5.32 3 6 3 C6.33 4.65 6.66 6.3 7 8 C1.125 3.375 1.125 3.375 0 0 Z " fill="#BD2D3E" transform="translate(109,209)"/>
<path d="M0 0 C0.99 0.33 1.98 0.66 3 1 C4.1875 4.5625 4.1875 4.5625 5 8 C4.01 8.495 4.01 8.495 3 9 C0.70620251 5.55930376 0 4.27709699 0 0 Z " fill="#B8293C" transform="translate(97,188)"/>
<path d="M0 0 C0.66 1.32 1.32 2.64 2 4 C1.01 5.485 1.01 5.485 0 7 C-0.39387788 9.32387947 -0.73486085 11.65793749 -1 14 C-1.33 14 -1.66 14 -2 14 C-2.3690205 4.58997722 -2.3690205 4.58997722 0 0 Z " fill="#B61E20" transform="translate(18,186)"/>
<path d="M0 0 C2.83374881 3.20336822 3.5205537 5.78087253 4 10 C3.01 9.67 2.02 9.34 1 9 C0.67 6.03 0.34 3.06 0 0 Z " fill="#F6CCD3" transform="translate(93,182)"/>
<path d="M0 0 C0.33 0.99 0.66 1.98 1 3 C-0.62339805 4.70884005 -2.29319053 6.37446717 -4 8 C-4.66 8 -5.32 8 -6 8 C-4.55746343 4.63408134 -2.66735273 2.48952921 0 0 Z " fill="#F5C7CB" transform="translate(297,130)"/>
<path d="M0 0 C0.66 0.33 1.32 0.66 2 1 C-0.57784846 3.64752004 -2.91648098 5.94432065 -6 8 C-5.67 6.35 -5.34 4.7 -5 3 C-3.35 2.67 -1.7 2.34 0 2 C0 1.34 0 0.68 0 0 Z " fill="#B72539" transform="translate(319,105)"/>
<path d="M0 0 C0.33 0.66 0.66 1.32 1 2 C0.0625 4.125 0.0625 4.125 -1 6 C-2.65 5.67 -4.3 5.34 -6 5 C-3.375 1.125 -3.375 1.125 0 0 Z " fill="#FAE4E5" transform="translate(334,94)"/>
<path d="M0 0 C3.24299151 2.38957269 5.50902342 4.2047869 7 8 C6.01 8 5.02 8 4 8 C4 7.34 4 6.68 4 6 C3.01 6 2.02 6 1 6 C0.67 4.02 0.34 2.04 0 0 Z " fill="#AD5527" transform="translate(396,87)"/>
<path d="M0 0 C0.33 1.32 0.66 2.64 1 4 C-0.65 5.32 -2.3 6.64 -4 8 C-4.66 7.67 -5.32 7.34 -6 7 C-4.02 4.69 -2.04 2.38 0 0 Z " fill="#BB3849" transform="translate(116,82)"/>
<path d="M0 0 C0.99 0.66 1.98 1.32 3 2 C2.01 3.485 2.01 3.485 1 5 C-1.1640625 5.29296875 -1.1640625 5.29296875 -3.625 5.1875 C-4.44226563 5.16042969 -5.25953125 5.13335937 -6.1015625 5.10546875 C-7.04128906 5.05326172 -7.04128906 5.05326172 -8 5 C-8 4.67 -8 4.34 -8 4 C-5.69 4 -3.38 4 -1 4 C-0.67 2.68 -0.34 1.36 0 0 Z " fill="#043176" transform="translate(165,433)"/>
<path d="M0 0 C-1.62339805 1.70884005 -3.29319053 3.37446717 -5 5 C-5.66 5 -6.32 5 -7 5 C-7 3.68 -7 2.36 -7 1 C-4.53721199 -0.231394 -2.7204945 -0.07159196 0 0 Z " fill="#BA273E" transform="translate(221,194)"/>
<path d="M0 0 C2.31 0.33 4.62 0.66 7 1 C7 1.66 7 2.32 7 3 C2.545 3.495 2.545 3.495 -2 4 C-1.34 3.67 -0.68 3.34 0 3 C0 2.01 0 1.02 0 0 Z " fill="#05356C" transform="translate(307,432)"/>
<path d="M0 0 C1.32 0 2.64 0 4 0 C4 0.66 4 1.32 4 2 C2.35 2.66 0.7 3.32 -1 4 C-1 4.66 -1 5.32 -1 6 C-1.66 5.67 -2.32 5.34 -3 5 C-1.125 1.125 -1.125 1.125 0 0 Z " fill="#235E6A" transform="translate(363,403)"/>
<path d="M0 0 C1.98 0 3.96 0 6 0 C4.3545622 1.68762851 2.68711423 3.3540349 1 5 C0.67 5 0.34 5 0 5 C0 3.35 0 1.7 0 0 Z " fill="#1E566B" transform="translate(369,397)"/>
<path d="M0 0 C1.99097846 2.98646769 2.94124926 5.59687262 4 9 C3.01 9 2.02 9 1 9 C-0.4783226 6.04335481 -0.06032783 3.25770263 0 0 Z " fill="#BE3F4F" transform="translate(289,258)"/>
<path d="M0 0 C0.99 0.33 1.98 0.66 3 1 C3.33 4.3 3.66 7.6 4 11 C1.6870518 8.6870518 1.50419025 7.52095125 0.875 4.375 C0.70742188 3.55773437 0.53984375 2.74046875 0.3671875 1.8984375 C0.24601562 1.27195313 0.12484375 0.64546875 0 0 Z " fill="#FCDDE0" transform="translate(282,234)"/>
<path d="M0 0 C1.32 0 2.64 0 4 0 C4 0.99 4 1.98 4 3 C4.99 3 5.98 3 7 3 C7.33 4.32 7.66 5.64 8 7 C4.2047869 5.50902342 2.38957269 3.24299151 0 0 Z " fill="#F7D3D3" transform="translate(76,228)"/>
<path d="M0 0 C4.875 4.75 4.875 4.75 6 7 C3.03 6.505 3.03 6.505 0 6 C0 4.02 0 2.04 0 0 Z " fill="#BD2F43" transform="translate(66,218)"/>
<path d="M0 0 C0.66 0.33 1.32 0.66 2 1 C1.01 2.485 1.01 2.485 0 4 C-0.99 4 -1.98 4 -3 4 C-3 4.66 -3 5.32 -3 6 C-4.32 6.33 -5.64 6.66 -7 7 C-7 6.34 -7 5.68 -7 5 C-5.46875 3.7109375 -5.46875 3.7109375 -3.5 2.375 C-2.8503125 1.92898437 -2.200625 1.48296875 -1.53125 1.0234375 C-1.0259375 0.68570313 -0.520625 0.34796875 0 0 Z " fill="#D6FABF" transform="translate(104,52)"/>
<path d="M0 0 C0 0.99 0 1.98 0 3 C-2.64 3.33 -5.28 3.66 -8 4 C-5.57415142 1.34311822 -3.76063134 0 0 0 Z " fill="#965740" transform="translate(150,28)"/>
<path d="M0 0 C-0.99 1.485 -0.99 1.485 -2 3 C-4.97 2.67 -7.94 2.34 -11 2 C-11 1.67 -11 1.34 -11 1 C-7.26562152 0.12132271 -3.83225427 -0.08912219 0 0 Z " fill="#B91E21" transform="translate(193,17)"/>
<path d="M0 0 C-1.26607607 0.53229326 -2.53810412 1.05044544 -3.8125 1.5625 C-4.52019531 1.85253906 -5.22789062 2.14257812 -5.95703125 2.44140625 C-8 3 -8 3 -11 2 C-7.62346206 -1.37653794 -4.38842265 -1.24183024 0 0 Z " fill="#387969" transform="translate(301,440)"/>
<path d="M0 0 C1.98 0 3.96 0 6 0 C6.66 1.32 7.32 2.64 8 4 C5.64828869 3.40138258 3.3140622 2.73075648 1 2 C0.67 1.34 0.34 0.68 0 0 Z " fill="#1D636B" transform="translate(142,431)"/>
<path d="M0 0 C2.475 0.495 2.475 0.495 5 1 C5 1.66 5 2.32 5 3 C6.32 3.33 7.64 3.66 9 4 C8.34 4.66 7.68 5.32 7 6 C5.83054208 5.19152271 4.66449539 4.37810888 3.5 3.5625 C2.8503125 3.11003906 2.200625 2.65757812 1.53125 2.19140625 C1.0259375 1.79824219 0.520625 1.40507812 0 1 C0 0.67 0 0.34 0 0 Z " fill="#1E6464" transform="translate(108,412)"/>
<path d="M0 0 C0.103125 0.639375 0.20625 1.27875 0.3125 1.9375 C0.539375 2.618125 0.76625 3.29875 1 4 C1.99 4.33 2.98 4.66 4 5 C4.33 6.65 4.66 8.3 5 10 C4.01 9.34 3.02 8.68 2 8 C2 7.34 2 6.68 2 6 C1.34 6 0.68 6 0 6 C0 4.02 0 2.04 0 0 Z " fill="#BA263B" transform="translate(271,208)"/>
<path d="M0 0 C0.99 0.33 1.98 0.66 3 1 C0.69 2.65 -1.62 4.3 -4 6 C-4.33 5.01 -4.66 4.02 -5 3 C-2.6875 1.4375 -2.6875 1.4375 0 0 Z " fill="#B82F41" transform="translate(241,177)"/>
<path d="M0 0 C2.5722047 1.28610235 3.00974907 2.33393981 4 5 C3.625 7.25 3.625 7.25 3 9 C0.23776722 6.23776722 0.42143709 3.79293383 0 0 Z " fill="#B84150" transform="translate(252,161)"/>
<path d="M0 0 C0.99 0.495 0.99 0.495 2 1 C2.73075648 3.3140622 3.40138258 5.64828869 4 8 C3.34 8.66 2.68 9.32 2 10 C0.68373308 6.38026598 0 3.90432869 0 0 Z " fill="#895031" transform="translate(431,142)"/>
<path d="M0 0 C0.99 0 1.98 0 3 0 C2.67 1.32 2.34 2.64 2 4 C2.66 4 3.32 4 4 4 C4 5.65 4 7.3 4 9 C1.49701566 6.06171403 0.53069061 3.82097239 0 0 Z " fill="#217578" transform="translate(28,313)"/>
<path d="M0 0 C-0.33 0.99 -0.66 1.98 -1 3 C-5.455 3.495 -5.455 3.495 -10 4 C-4 0 -4 0 0 0 Z " fill="#BE182E" transform="translate(203,253)"/>
<path d="M0 0 C0.33 0.66 0.66 1.32 1 2 C1.99 2.33 2.98 2.66 4 3 C4.6875 5.0625 4.6875 5.0625 5 7 C4.01 7 3.02 7 2 7 C0 4 0 4 0 0 Z " fill="#FBDEE0" transform="translate(58,203)"/>
<path d="M0 0 C3.465 1.485 3.465 1.485 7 3 C7 3.33 7 3.66 7 4 C4.03 4 1.06 4 -2 4 C-1.34 2.68 -0.68 1.36 0 0 Z " fill="#FEDCDB" transform="translate(376,193)"/>
<path d="M0 0 C3.2542015 2.83430453 4.5206753 4.68607774 5 9 C3.0625 7.875 3.0625 7.875 1 6 C0.25 2.8125 0.25 2.8125 0 0 Z " fill="#BF4B5A" transform="translate(239,137)"/>
<path d="M0 0 C2.88437779 1.29299694 4.87219421 2.65941363 7 5 C5.68 5.33 4.36 5.66 3 6 C0 2.25 0 2.25 0 0 Z " fill="#F9BCBF" transform="translate(220,100)"/>
<path d="M0 0 C0.99 0.33 1.98 0.66 3 1 C-0.465 3.97 -0.465 3.97 -4 7 C-4 6.01 -4 5.02 -4 4 C-3.34 4 -2.68 4 -2 4 C-1.34 2.68 -0.68 1.36 0 0 Z " fill="#FDDEE0" transform="translate(116,79)"/>
</svg>
