<?xml version="1.0" encoding="UTF-8"?>
<svg version="1.1" xmlns="http://www.w3.org/2000/svg" width="500" height="500">
<path d="M0 0 C0 0.66 0 1.32 0 2 C1.06541016 2.37318359 1.06541016 2.37318359 2.15234375 2.75390625 C5.32095991 4.14044748 7.79345877 5.86938437 10.5625 7.9375 C11.49191406 8.62714844 12.42132813 9.31679687 13.37890625 10.02734375 C14.24386719 10.67832031 15.10882813 11.32929687 16 12 C16.77214844 12.53753906 17.54429687 13.07507813 18.33984375 13.62890625 C18.88769531 14.08136719 19.43554688 14.53382812 20 15 C20 15.66 20 16.32 20 17 C20.61875 17.309375 21.2375 17.61875 21.875 17.9375 C23.25 18.625 24.625 19.3125 26 20 C26 20.66 26 21.32 26 22 C26.66 22 27.32 22 28 22 C28 22.66 28 23.32 28 24 C29.32 24.66 30.64 25.32 32 26 C32 26.66 32 27.32 32 28 C32.99 28.33 33.98 28.66 35 29 C35 29.66 35 30.32 35 31 C36.32 31.66 37.64 32.32 39 33 C39 33.66 39 34.32 39 35 C39.66 35 40.32 35 41 35 C41 35.66 41 36.32 41 37 C41.66 37 42.32 37 43 37 C44.515625 38.6875 44.515625 38.6875 46.25 41 C46.86488281 41.81597656 47.47976563 42.63195312 48.11328125 43.47265625 C48.73589844 44.30667969 49.35851562 45.14070313 50 46 C50.59167969 46.76183594 51.18335938 47.52367188 51.79296875 48.30859375 C52.33566406 49.01113281 52.87835938 49.71367188 53.4375 50.4375 C53.93121094 51.07558594 54.42492187 51.71367188 54.93359375 52.37109375 C56 54 56 54 56 56 C56.66 56 57.32 56 58 56 C59.6793197 58.40722626 61.2306181 60.80655746 62.75 63.3125 C63.19811035 64.04146484 63.6462207 64.77042969 64.10791016 65.52148438 C67.6011695 71.24483241 70.91474408 77.04565258 74 83 C74.51433594 83.98613281 74.51433594 83.98613281 75.0390625 84.9921875 C76.05449216 86.9817692 77.02575825 88.98994731 78 91 C78.43957031 91.84949219 78.87914062 92.69898438 79.33203125 93.57421875 C94.71493641 124.62414604 98.64036035 159.84290645 98 194 C97.98114746 195.05719238 97.98114746 195.05719238 97.96191406 196.13574219 C97.08241641 232.55412478 83.81477165 268.19293021 65 299 C64.04867187 300.57587891 64.04867187 300.57587891 63.078125 302.18359375 C59.49116168 308.00129253 59.49116168 308.00129253 58 310 C57.34 310 56.68 310 56 310 C55.71125 310.763125 55.4225 311.52625 55.125 312.3125 C54 315 54 315 52 318 C51.34 318 50.68 318 50 318 C49.7421875 318.56203125 49.484375 319.1240625 49.21875 319.703125 C47.85830223 322.26704579 46.27211038 324.45226365 44.5 326.75 C43.8915625 327.54921875 43.283125 328.3484375 42.65625 329.171875 C42.1096875 329.77515625 41.563125 330.3784375 41 331 C40.34 331 39.68 331 39 331 C38.34 332.32 37.68 333.64 37 335 C36.34 335 35.68 335 35 335 C34.67 335.99 34.34 336.98 34 338 C33.34 338 32.68 338 32 338 C31.34 339.32 30.68 340.64 30 342 C29.34 342 28.68 342 28 342 C28 342.66 28 343.32 28 344 C27.34 344 26.68 344 26 344 C26 344.66 26 345.32 26 346 C24.1015625 347.7265625 24.1015625 347.7265625 21.625 349.625 C20.81289063 350.25664062 20.00078125 350.88828125 19.1640625 351.5390625 C17 353 17 353 15 353 C15 353.66 15 354.32 15 355 C9.58823529 359 9.58823529 359 7 359 C7 359.66 7 360.32 7 361 C4.59274732 362.67933813 2.19352145 364.23068946 -0.3125 365.75 C-1.04436523 366.19956055 -1.77623047 366.64912109 -2.53027344 367.11230469 C-8.25314601 370.60333236 -14.04634724 373.91685839 -20 377 C-20.928125 377.48984375 -21.85625 377.9796875 -22.8125 378.484375 C-56.80485499 396.02298369 -93.07402056 401.67931442 -131 401 C-131.721875 400.98743164 -132.44375 400.97486328 -133.1875 400.96191406 C-169.57957815 400.09120516 -205.21855466 386.79912205 -236 368 C-237.05058594 367.36578125 -238.10117188 366.7315625 -239.18359375 366.078125 C-245.00129253 362.49116168 -245.00129253 362.49116168 -247 361 C-247 360.34 -247 359.68 -247 359 C-248.01513672 358.69255859 -248.01513672 358.69255859 -249.05078125 358.37890625 C-253.02863594 356.51906161 -255.93127799 353.84666387 -259.1875 350.9375 C-260.42948002 349.84073611 -261.67290363 348.74560413 -262.91796875 347.65234375 C-263.46219482 347.16757568 -264.0064209 346.68280762 -264.56713867 346.18334961 C-266.01032765 344.90119835 -266.01032765 344.90119835 -268 344 C-268 343.34 -268 342.68 -268 342 C-268.66 342 -269.32 342 -270 342 C-270 341.34 -270 340.68 -270 340 C-270.66 340 -271.32 340 -272 340 C-272 339.34 -272 338.68 -272 338 C-272.99 337.67 -273.98 337.34 -275 337 C-275 336.34 -275 335.68 -275 335 C-276.32 334.34 -277.64 333.68 -279 333 C-279 332.34 -279 331.68 -279 331 C-279.66 331 -280.32 331 -281 331 C-281 330.34 -281 329.68 -281 329 C-281.66 329 -282.32 329 -283 329 C-284.7265625 327.1015625 -284.7265625 327.1015625 -286.625 324.625 C-287.25664062 323.81289063 -287.88828125 323.00078125 -288.5390625 322.1640625 C-290 320 -290 320 -290 318 C-290.66 318 -291.32 318 -292 318 C-296 312.58823529 -296 312.58823529 -296 310 C-296.66 310 -297.32 310 -298 310 C-299.67933813 307.59274732 -301.23068946 305.19352145 -302.75 302.6875 C-303.19956055 301.95563477 -303.64912109 301.22376953 -304.11230469 300.46972656 C-307.60333236 294.74685399 -310.91685839 288.95365276 -314 283 C-314.48984375 282.071875 -314.9796875 281.14375 -315.484375 280.1875 C-329.26069926 253.48699524 -337.48803311 223.08790029 -338 193 C-338.01514648 192.17113281 -338.03029297 191.34226562 -338.04589844 190.48828125 C-338.13924024 184.32316935 -338.11557142 178.16462885 -338 172 C-337.98114746 170.94280762 -337.98114746 170.94280762 -337.96191406 169.86425781 C-337.11273754 134.70141782 -324.98347549 97.34444077 -305.34765625 68.13671875 C-303.85198003 65.95364312 -303.85198003 65.95364312 -303 63 C-302.34 63 -301.68 63 -301 63 C-300.62681641 61.93458984 -300.62681641 61.93458984 -300.24609375 60.84765625 C-298.85955252 57.67904009 -297.13061563 55.20654123 -295.0625 52.4375 C-294.37285156 51.50808594 -293.68320312 50.57867187 -292.97265625 49.62109375 C-292.32167969 48.75613281 -291.67070312 47.89117187 -291 47 C-290.46246094 46.22785156 -289.92492187 45.45570312 -289.37109375 44.66015625 C-288.91863281 44.11230469 -288.46617187 43.56445312 -288 43 C-287.34 43 -286.68 43 -286 43 C-285.690625 42.38125 -285.38125 41.7625 -285.0625 41.125 C-284.375 39.75 -283.6875 38.375 -283 37 C-282.34 37 -281.68 37 -281 37 C-281 36.34 -281 35.68 -281 35 C-280.34 35 -279.68 35 -279 35 C-278.34 33.68 -277.68 32.36 -277 31 C-276.34 31 -275.68 31 -275 31 C-274.505 29.515 -274.505 29.515 -274 28 C-273.34 28 -272.68 28 -272 28 C-271.34 26.68 -270.68 25.36 -270 24 C-269.34 24 -268.68 24 -268 24 C-268 23.34 -268 22.68 -268 22 C-267.34 22 -266.68 22 -266 22 C-266 21.34 -266 20.68 -266 20 C-265.34 20 -264.68 20 -264 20 C-264 19.34 -264 18.68 -264 18 C-262.05586103 16.32930252 -260.11291545 14.78053209 -258.0625 13.25 C-257.47364014 12.80479004 -256.88478027 12.35958008 -256.27807617 11.90087891 C-243.08588224 2 -243.08588224 2 -240 2 C-240 1.34 -240 0.68 -240 0 C-239.46632813 -0.29132813 -238.93265625 -0.58265625 -238.3828125 -0.8828125 C-234.32749143 -3.1139407 -230.35106599 -5.40327411 -226.4375 -7.875 C-220.22020188 -11.63632032 -213.59368789 -14.38984248 -206.90722656 -17.19482422 C-205.22041117 -17.90694879 -203.54301352 -18.64129205 -201.8671875 -19.37890625 C-134.67987508 -48.57884176 -61.58555631 -35.3789366 0 0 Z " fill="#CC0303" transform="translate(370,67)"/>
<path d="M0 0 C0.66 0 1.32 0 2 0 C3.74254326 3.29912341 5.39772293 6.63050558 7 10 C7.37640625 10.78761719 7.7528125 11.57523438 8.140625 12.38671875 C10.39042671 17.84916105 10.39042671 17.84916105 9.25390625 21.19921875 C8.125 23.3125 8.125 23.3125 6.8828125 25.17578125 C5.84683606 26.95958911 5.84683606 26.95958911 6.0546875 28.98046875 C6.9044958 31.25522389 6.9044958 31.25522389 9.54296875 32.671875 C12.31447068 35.29797222 12.36461029 35.71359462 12.48828125 39.328125 C12.45518977 40.96946243 12.39575882 42.61044165 12.3125 44.25 C12.28994141 45.09046875 12.26738281 45.9309375 12.24414062 46.796875 C12.18537714 48.86534964 12.09569885 50.93290488 12 53 C9.5 51.625 9.5 51.625 7 50 C7 49.34 7 48.68 7 48 C6.34 48 5.68 48 5 48 C4.8283066 56.62488152 4.72884335 65.24648925 4.71759319 73.87292671 C4.71018192 77.88035895 4.67936829 81.8845626 4.59204102 85.89111328 C3.2840978 105.6527954 3.2840978 105.6527954 10.51679993 123.1211853 C12.69444427 125.22831994 14.950384 127.07056199 17.42895508 128.8110199 C19.89958438 130.68081308 21.7129881 133.01941477 23.625 135.4375 C24.31851563 136.30503906 25.01203125 137.17257812 25.7265625 138.06640625 C28.5063726 141.65341207 31.27523846 145.24594887 34 148.875 C34.48162598 149.50591553 34.96325195 150.13683105 35.45947266 150.78686523 C37.94415136 154.14804103 39.60874817 156.71253206 40 161 C29.84477104 159.41599548 21.39652274 150.53675396 13.58007812 144.25683594 C12.09762986 143.07765737 10.58865023 141.93205352 9.078125 140.7890625 C8.39234375 140.19867188 7.7065625 139.60828125 7 139 C7 138.34 7 137.68 7 137 C6.34 137 5.68 137 5 137 C5 152.84 5 168.68 5 185 C2.36 185 -0.28 185 -3 185 C-3 166.19 -3 147.38 -3 128 C-4.98 127.01 -4.98 127.01 -7 126 C-8.485 125.01 -8.485 125.01 -10 124 C-10 123.34 -10 122.68 -10 122 C-10.78503906 121.67708984 -10.78503906 121.67708984 -11.5859375 121.34765625 C-14.96795631 119.45963604 -17.7133171 116.9754736 -20.625 114.4375 C-24.55820931 110.85426322 -24.55820931 110.85426322 -29 108 C-32.30475148 124.43523727 -32.13035205 140.02021494 -27 156 C-26.63777344 157.14210938 -26.27554688 158.28421875 -25.90234375 159.4609375 C-23.09102002 167.48512251 -19.03186521 174.17398613 -14 181 C-13.5565625 181.60585938 -13.113125 182.21171875 -12.65625 182.8359375 C-3.76804235 194.18641889 9.37959361 201.85465892 23 206 C24.216875 206.391875 25.43375 206.78375 26.6875 207.1875 C42.25694992 211.00642168 60.81122966 209.89375251 75 202 C76.0003125 201.44828125 77.000625 200.8965625 78.03125 200.328125 C82.12906702 198.00072407 86.06858971 195.75577292 89.734375 192.78125 C92 191 92 191 94 191 C94 190.34 94 189.68 94 189 C95.1566991 187.80928034 96.31956139 186.62396727 97.51171875 185.46875 C111.92375171 171.24585133 118.9699036 151.69744527 119.29760742 131.66381836 C119.30497925 130.22147827 119.30497925 130.22147827 119.3125 128.75 C119.32083862 127.38403687 119.32083862 127.38403687 119.3293457 125.99047852 C119.2636613 119.79649506 118.42017844 114.02539359 117 108 C116.38125 108.495 115.7625 108.99 115.125 109.5 C113 111 113 111 111 111 C111 111.66 111 112.32 111 113 C109.38617052 114.45659977 107.70636784 115.84048951 106 117.1875 C104.55006359 118.33738012 103.10141056 119.4893083 101.67651367 120.67007446 C100 122 100 122 97.97387695 123.32870483 C94.58030926 125.77962029 92.3570513 127.6567297 91.25854492 131.78944397 C90.978792 135.19335218 90.94422384 138.51862031 91 141.93359375 C90.98912354 143.16666763 90.97824707 144.39974152 90.96704102 145.67018127 C90.94092681 149.59351479 90.96970453 153.5142366 91 157.4375 C90.99635877 160.10360807 90.98022912 162.76945939 90.96484375 165.43554688 C90.93502162 171.9575068 90.95021554 178.47818794 91 185 C88.36 185 85.72 185 83 185 C83 169.49 83 153.98 83 138 C78.2035176 141.5973618 73.72797282 145.03508583 69.25 148.9375 C55.10002372 161 55.10002372 161 49 161 C50.82455427 148.79286312 62.04529892 138.83691391 70 130 C70.46857422 129.47889648 70.93714844 128.95779297 71.41992188 128.42089844 C73.33778114 126.29073529 75.25995225 124.16507103 77.1953125 122.05078125 C77.79085937 121.37402344 78.38640625 120.69726562 79 120 C79.52330399 119.43392029 80.04660797 118.86784058 80.58576965 118.28460693 C82.48789495 115.21183406 82.39851317 112.99819919 82.43237305 109.39550781 C82.4425647 108.74143448 82.45275635 108.08736115 82.46325684 107.41346741 C82.49335711 105.25993247 82.50264769 103.10684254 82.51171875 100.953125 C82.52856774 99.45667038 82.54671828 97.9602299 82.56611633 96.46380615 C82.61359902 92.53147803 82.64341933 88.59920722 82.66955566 84.66668701 C82.69937008 80.65137413 82.74589734 76.63625867 82.79101562 72.62109375 C82.87702896 64.74749287 82.94438276 56.87387398 83 49 C82.21625 49.495 81.4325 49.99 80.625 50.5 C78 52 78 52 76 52 C75.83737072 49.26843041 75.71889314 46.54657878 75.625 43.8125 C75.57472656 43.04357422 75.52445313 42.27464844 75.47265625 41.48242188 C75.32559887 35.77169376 75.32559887 35.77169376 77.36230469 33.44116211 C78.87800303 32.25448882 80.43719321 31.1239083 82 30 C82 26.77791987 81.48674779 24.83828786 79.875 22.0625 C78.08949972 17.85382078 79.78768255 13.53108769 81.41015625 9.47265625 C81.95542969 8.34730469 82.50070312 7.22195312 83.0625 6.0625 C83.61035156 4.91910156 84.15820312 3.77570313 84.72265625 2.59765625 C85.14417969 1.74042969 85.56570313 0.88320312 86 0 C86.66 0 87.32 0 88 0 C89.37448233 2.53241602 90.72421399 5.0735432 92.0625 7.625 C92.45244141 8.33785156 92.84238281 9.05070313 93.24414062 9.78515625 C95.02148925 13.21402351 96.02583737 15.32822831 95.875 19.25 C95.06872054 21.78402116 94.18951044 24.03252886 92.9375 26.375 C92.57527344 27.06335938 92.21304688 27.75171875 91.83984375 28.4609375 C91.56269531 28.96882813 91.28554688 29.47671875 91 30 C91.5775 30.268125 92.155 30.53625 92.75 30.8125 C93.4925 31.204375 94.235 31.59625 95 32 C95.73734375 32.34675781 96.4746875 32.69351563 97.234375 33.05078125 C100.16309822 36.28403985 99.41833096 40.00188604 99.25 44.1875 C99.23195313 45.03248047 99.21390625 45.87746094 99.1953125 46.74804688 C99.14820586 48.83251573 99.07646233 50.91640144 99 53 C95.93224489 51.57568513 93.78959901 50.09219926 91 48 C91 67.14 91 86.28 91 106 C91.66 106 92.32 106 93 106 C93.3403125 105.16662109 93.3403125 105.16662109 93.6875 104.31640625 C95.37697184 101.33468957 97.53502125 99.3129083 100 96.9375 C102.68210288 94.34506045 104.92789175 92.10816238 107 89 C106.70286867 85.31252398 104.7092326 83.05868758 102.4375 80.25 C101.79683594 79.45078125 101.15617188 78.6515625 100.49609375 77.828125 C100.00238281 77.22484375 99.50867188 76.6215625 99 76 C102.96130371 76 103.82914401 77.34877125 106.6875 80 C107.49574219 80.7425 108.30398438 81.485 109.13671875 82.25 C109.75160156 82.8275 110.36648438 83.405 111 84 C115.39062985 81.03335821 117.48005879 78.00541682 119 73 C119.45573732 70.02173141 119.59724906 67.07172411 119.6875 64.0625 C119.72166016 63.28326172 119.75582031 62.50402344 119.79101562 61.70117188 C119.8726071 59.80125607 119.93799885 57.90065597 120 56 C123.21524305 57.40844718 125.32183868 59.10344786 127.75 61.625 C128.67039062 62.57246094 128.67039062 62.57246094 129.609375 63.5390625 C130.06828125 64.02117187 130.5271875 64.50328125 131 65 C134.67122982 63.37416965 137.59266789 61.08706468 140.75 58.625 C148.83472231 52.42708358 156.54327429 47.82897867 167 49 C173.25727567 50.77188227 177.54134683 53.46615492 181 59 C180.59350518 62.39458831 178.98420642 65.23590545 177.4375 68.25 C176.98246094 69.14203125 176.52742188 70.0340625 176.05859375 70.953125 C175.70925781 71.62859375 175.35992187 72.3040625 175 73 C172.54762026 72.03526218 170.15729204 71.08089305 167.8125 69.875 C160.9826087 67.75014493 154.848408 68.53085887 148.49609375 71.63671875 C146.34321434 73.59848093 146.22459129 75.13672592 146 78 C147.22227193 79.97301282 147.22227193 79.97301282 149.19140625 81.59375 C149.88943359 82.23183594 150.58746094 82.86992187 151.30664062 83.52734375 C152.05107422 84.17832031 152.79550781 84.82929688 153.5625 85.5 C154.27986328 86.15097656 154.99722656 86.80195313 155.73632812 87.47265625 C159.73954367 91.08540319 163.8336415 94.57739902 168 98 C164.15298315 99.28233895 162.12179454 98.48942803 158.1875 97.5625 C145.56477663 94.82585786 135.57277524 95.18834431 124 101 C124.79664063 102.52367187 124.79664063 102.52367187 125.609375 104.078125 C133.84677396 120.04076314 138.41015282 134.70188555 138.25 152.8125 C138.24033203 153.96250488 138.23066406 155.11250977 138.22070312 156.29736328 C137.82424565 184.29915444 126.99096086 208.37584577 107 228 C100.68301887 234 100.68301887 234 98 234 C98 234.66 98 235.32 98 236 C96.97519531 236.54269531 95.95039063 237.08539063 94.89453125 237.64453125 C93.53381697 238.36711745 92.17314196 239.08977762 90.8125 239.8125 C90.13896484 240.16892578 89.46542969 240.52535156 88.77148438 240.89257812 C85.93744853 242.39945572 83.16525656 243.89356357 80.46484375 245.6328125 C77.31842018 247.37805537 74.23416846 248.17711974 70.75 249.0625 C69.50734375 249.38347656 68.2646875 249.70445312 66.984375 250.03515625 C65.65635886 250.35722004 64.32822996 250.67881915 63 251 C62.30003906 251.18240234 61.60007812 251.36480469 60.87890625 251.55273438 C55.05482624 252.99071519 49.4892865 253.3835181 43.5 253.375 C42.0766333 253.37693359 42.0766333 253.37693359 40.62451172 253.37890625 C31.70324643 253.2473374 23.52043759 251.53127058 15 249 C15 248.34 15 247.68 15 247 C13.97519531 246.89945313 12.95039063 246.79890625 11.89453125 246.6953125 C-4.87893515 243.7006515 -21.35391124 228.42960318 -31 215 C-36.13078613 207.3371376 -40.51269048 199.53703369 -44 191 C-44.36996094 190.12988281 -44.73992187 189.25976562 -45.12109375 188.36328125 C-53.83268631 166.50452335 -53.03423331 137.60068409 -44 116 C-42.29955114 112.30415264 -40.41141344 108.79047568 -38.3203125 105.30078125 C-36.83409202 103.1530049 -36.83409202 103.1530049 -37 101 C-38.0725 100.360625 -39.145 99.72125 -40.25 99.0625 C-40.85328125 98.70285156 -41.4565625 98.34320313 -42.078125 97.97265625 C-49.82116182 94.0539242 -59.01287153 96.06211596 -67.1484375 97.5546875 C-70.83207109 98.12993987 -74.28065243 98.14305183 -78 98 C-75.1453285 94.07482668 -71.90173411 91.0462802 -68.23828125 87.9140625 C-65.79773394 85.82703251 -63.39715659 83.69917815 -61 81.5625 C-60.236875 80.88316406 -59.47375 80.20382813 -58.6875 79.50390625 C-57.8521875 78.75947266 -57.8521875 78.75947266 -57 78 C-58.16657361 74.40196135 -58.16657361 74.40196135 -60.62890625 71.63671875 C-66.38109695 68.81291604 -71.77099867 67.64213884 -78.01953125 69.6484375 C-79.70901104 70.36691101 -81.3579169 71.17895845 -83 72 C-84.485 72.495 -84.485 72.495 -86 73 C-86.33773437 72.37351562 -86.67546875 71.74703125 -87.0234375 71.1015625 C-87.46945313 70.28429687 -87.91546875 69.46703125 -88.375 68.625 C-88.81585938 67.81289062 -89.25671875 67.00078125 -89.7109375 66.1640625 C-90.9443893 63.89185698 -90.9443893 63.89185698 -93 62 C-92.54445233 56.96826893 -88.62989115 54.09906836 -85 51 C-80.49901051 48.20208761 -75.14090212 48.36503739 -70 49 C-66.82237957 50.03374511 -63.94607803 51.43436996 -61 53 C-59.824375 53.5775 -58.64875 54.155 -57.4375 54.75 C-56.2309375 55.36875 -56.2309375 55.36875 -55 56 C-55 56.66 -55 57.32 -55 58 C-54.278125 58.226875 -53.55625 58.45375 -52.8125 58.6875 C-49.46799444 60.24826926 -47.55926385 62.3733871 -45 65 C-44.01 65.33 -43.02 65.66 -42 66 C-41.79375 65.443125 -41.5875 64.88625 -41.375 64.3125 C-39.42316968 61.02987629 -37.05769006 59.29326754 -34 57 C-33.34 57 -32.68 57 -32 57 C-31.97421875 57.89460938 -31.9484375 58.78921875 -31.921875 59.7109375 C-31.53836506 67.88667223 -31.02839103 76.27238047 -25.4921875 82.76953125 C-24.06517317 84.21206756 -24.06517317 84.21206756 -22 84 C-21.13375 82.9171875 -21.13375 82.9171875 -20.25 81.8125 C-17.74147346 78.67684183 -15.13410822 76.49304063 -12 74 C-11.34 74.33 -10.68 74.66 -10 75 C-10.66128906 75.74765625 -11.32257813 76.4953125 -12.00390625 77.265625 C-12.84824219 78.25046875 -13.69257813 79.2353125 -14.5625 80.25 C-15.40941406 81.22453125 -16.25632812 82.1990625 -17.12890625 83.203125 C-19.19310521 85.73245851 -19.19310521 85.73245851 -19.01171875 88.1171875 C-17.73575412 90.4917626 -16.21834592 92.03245063 -14.25 93.875 C-11.71807665 96.30256092 -9.32470212 98.70433719 -7.125 101.4375 C-5.25835959 104.03874519 -5.25835959 104.03874519 -3 105 C-3 86.19 -3 67.38 -3 48 C-4.65 49.32 -6.3 50.64 -8 52 C-8.66 52 -9.32 52 -10 52 C-10.13510253 49.08178537 -10.2341305 46.16982348 -10.3125 43.25 C-10.35439453 42.425 -10.39628906 41.6 -10.43945312 40.75 C-10.56331392 34.60650439 -10.56331392 34.60650439 -7.60546875 31.421875 C-5 30 -5 30 -3 30 C-3.37253906 29.34773438 -3.74507813 28.69546875 -4.12890625 28.0234375 C-4.60199219 27.14945313 -5.07507813 26.27546875 -5.5625 25.375 C-6.03816406 24.51648438 -6.51382813 23.65796875 -7.00390625 22.7734375 C-8.7182044 18.00029363 -7.38823427 14.86957028 -5.37109375 10.3515625 C-4.73476819 9.10515161 -4.09008594 7.86297492 -3.4375 6.625 C-3.10814453 5.98433594 -2.77878906 5.34367188 -2.43945312 4.68359375 C-1.63360518 3.11861368 -0.81781507 1.55875979 0 0 Z " fill="#FDF7F7" transform="translate(206,124)"/>
<path d="M0 0 C0.33 0 0.66 0 1 0 C1 5.61 1 11.22 1 17 C2.65 16.01 4.3 15.02 6 14 C6.66 14 7.32 14 8 14 C8.23284721 22.54538709 8.40994566 31.08942563 8.51812172 39.6372118 C8.5700726 43.60751562 8.64038873 47.57563257 8.75439453 51.54467773 C8.86395237 55.38338483 8.92302191 59.22000486 8.94877243 63.06015587 C8.96709344 64.51671882 9.00287245 65.97318157 9.05730057 67.42884254 C9.34451004 75.43684655 8.8315643 80.96468508 3.22021484 87.1472168 C1.49068598 88.77607861 -0.24918822 90.39403644 -2 92 C-3.52830868 93.76758084 -5.03262019 95.55652098 -6.5 97.375 C-7.22574219 98.27347656 -7.95148438 99.17195313 -8.69921875 100.09765625 C-19.55965932 112.01985737 -19.55965932 112.01985737 -26 126 C-15.06108258 120.38198809 -5.69815036 112.90581513 3.56640625 104.90625 C6 103 6 103 8 103 C8 118.51 8 134.02 8 150 C10.64 150 13.28 150 16 150 C15.97557327 149.32063385 15.95114655 148.6412677 15.92597961 147.9413147 C15.68160573 140.83603936 15.51631557 133.73196611 15.39575195 126.62353516 C15.34061314 123.97525512 15.26567769 121.32730724 15.17016602 118.68017578 C14.35248274 95.42648764 14.35248274 95.42648764 18.35473633 90.10693359 C21.12737936 87.5845874 23.73134601 85.80577195 27 84 C28.38128975 82.82276789 29.73999729 81.61790925 31.0625 80.375 C34 78 34 78 36 78 C36 77.34 36 76.68 36 76 C39.46153846 73 39.46153846 73 42 73 C44.44572378 79.93933362 45.52213497 86.15130429 45.4375 93.5 C45.42847656 94.45342285 45.41945313 95.4068457 45.41015625 96.38916016 C44.94394786 115.82422233 38.84387201 133.24521045 26 148 C25.51273438 148.61746094 25.02546875 149.23492187 24.5234375 149.87109375 C23.40198893 151.29093946 22.20845689 152.65343375 21 154 C20.34 154 19.68 154 19 154 C19 154.66 19 155.32 19 156 C15.85795366 158.59385953 12.39990614 160.75989678 9 163 C8.19691406 163.54527344 7.39382813 164.09054687 6.56640625 164.65234375 C-8.82201089 174.58280013 -28.22291665 177.03994412 -46 173.68359375 C-62.73542394 169.87018335 -77.20042862 161.34518463 -88 148 C-88.96873047 146.82244141 -88.96873047 146.82244141 -89.95703125 145.62109375 C-97.36770433 136.11332771 -101.7981705 126.52399363 -105 115 C-105.24621094 114.17371094 -105.49242187 113.34742188 -105.74609375 112.49609375 C-108.88897997 100.03292424 -108.03736408 85.11209224 -104 73 C-95.55876554 76.73854207 -88.53232954 84.31230726 -81.77734375 90.46875 C-80.06737572 92.06839039 -80.06737572 92.06839039 -78 93 C-78 111.81 -78 130.62 -78 150 C-75.36 150 -72.72 150 -70 150 C-70 134.16 -70 118.32 -70 102 C-69.34 102 -68.68 102 -68 102 C-68 102.66 -68 103.32 -68 104 C-67.45601562 104.23332031 -66.91203125 104.46664062 -66.3515625 104.70703125 C-63.34561775 106.35980154 -60.97369407 108.44878334 -58.375 110.6875 C-51.14554838 116.81394702 -43.97541617 122.68299837 -35 126 C-40.1371391 114.09117754 -49.43247848 104.29885838 -57.84765625 94.58203125 C-58.30089264 94.04500076 -58.75412903 93.50797028 -59.22109985 92.95466614 C-61.00545104 90.92227671 -61.00545104 90.92227671 -63.24569702 89.01997375 C-68.35935358 84.21202953 -70.59988004 80.71177193 -71.02172852 73.62255859 C-71.05253819 70.79344309 -70.97225124 67.97577849 -70.87890625 65.1484375 C-70.86208532 63.63819197 -70.84929063 62.12789677 -70.84031677 60.61758423 C-70.80622214 56.67401553 -70.71806811 52.73350966 -70.61798096 48.7911377 C-70.52531681 44.75571111 -70.4846832 40.71978133 -70.43945312 36.68359375 C-70.34340858 28.7876688 -70.19015225 20.8942171 -70 13 C-69.34 13 -68.68 13 -68 13 C-66.61767557 14.62626404 -65.28062485 16.2925002 -64 18 C-65.32 18 -66.64 18 -68 18 C-68 27.57 -68 37.14 -68 47 C-66.35 47 -64.7 47 -63 47 C-62.19311595 43.05523353 -61.99999571 41.00001715 -63 37 C-55.08 36.67 -47.16 36.34 -39 36 C-38.21625 33.36 -37.4325 30.72 -36.625 28 C-36.38217285 27.1853125 -36.1393457 26.370625 -35.88916016 25.53125 C-34.46599287 20.71401981 -33.18694369 15.88088993 -32 11 C-31.34 11 -30.68 11 -30 11 C-28.98857805 14.22570078 -27.99291347 17.45605865 -27 20.6875 C-26.71382813 21.59951172 -26.42765625 22.51152344 -26.1328125 23.45117188 C-25.72675781 24.78051758 -25.72675781 24.78051758 -25.3125 26.13671875 C-25.06113281 26.94842529 -24.80976563 27.76013184 -24.55078125 28.59643555 C-24 31 -24 31 -24 36 C-15.42 36 -6.84 36 2 36 C2 36.66 2 37.32 2 38 C2.99 38 3.98 38 5 38 C5.33 31.73 5.66 25.46 6 19 C4.02 18.67 2.04 18.34 0 18 C0 12.06 0 6.12 0 0 Z " fill="#CB0405" transform="translate(281,159)"/>
<path d="M0 0 C0.33 0 0.66 0 1 0 C1 5.61 1 11.22 1 17 C2.65 16.01 4.3 15.02 6 14 C6.66 14 7.32 14 8 14 C8.23284721 22.54538709 8.40994566 31.08942563 8.51812172 39.6372118 C8.5700726 43.60751562 8.64038873 47.57563257 8.75439453 51.54467773 C8.86395237 55.38338483 8.92302191 59.22000486 8.94877243 63.06015587 C8.96709344 64.51671882 9.00287245 65.97318157 9.05730057 67.42884254 C9.34451004 75.43684655 8.8315643 80.96468508 3.22021484 87.1472168 C1.49068598 88.77607861 -0.24918822 90.39403644 -2 92 C-3.52830868 93.76758084 -5.03262019 95.55652098 -6.5 97.375 C-7.22574219 98.27347656 -7.95148438 99.17195313 -8.69921875 100.09765625 C-19.55809385 112.02287623 -19.55809385 112.02287623 -26 126 C-24.02 125.505 -24.02 125.505 -22 125 C-22.33 125.66 -22.66 126.32 -23 127 C-28.01462597 127.93493027 -31.97278473 128.13112344 -37 127 C-36.34 126.67 -35.68 126.34 -35 126 C-40.1371391 114.09117754 -49.43247848 104.29885838 -57.84765625 94.58203125 C-58.30089264 94.04500076 -58.75412903 93.50797028 -59.22109985 92.95466614 C-61.00545104 90.92227671 -61.00545104 90.92227671 -63.24569702 89.01997375 C-68.35935358 84.21202953 -70.59988004 80.71177193 -71.02172852 73.62255859 C-71.05253819 70.79344309 -70.97225124 67.97577849 -70.87890625 65.1484375 C-70.86208532 63.63819197 -70.84929063 62.12789677 -70.84031677 60.61758423 C-70.80622214 56.67401553 -70.71806811 52.73350966 -70.61798096 48.7911377 C-70.52531681 44.75571111 -70.4846832 40.71978133 -70.43945312 36.68359375 C-70.34340858 28.7876688 -70.19015225 20.8942171 -70 13 C-69.34 13 -68.68 13 -68 13 C-66.61767557 14.62626404 -65.28062485 16.2925002 -64 18 C-65.32 18 -66.64 18 -68 18 C-68 27.57 -68 37.14 -68 47 C-66.35 47 -64.7 47 -63 47 C-62.19311595 43.05523353 -61.99999571 41.00001715 -63 37 C-55.08 36.67 -47.16 36.34 -39 36 C-37.824375 32.04 -37.824375 32.04 -36.625 28 C-36.38217285 27.1853125 -36.1393457 26.370625 -35.88916016 25.53125 C-34.46599287 20.71401981 -33.18694369 15.88088993 -32 11 C-31.34 11 -30.68 11 -30 11 C-28.98857805 14.22570078 -27.99291347 17.45605865 -27 20.6875 C-26.57074219 22.05551758 -26.57074219 22.05551758 -26.1328125 23.45117188 C-25.86210937 24.33740234 -25.59140625 25.22363281 -25.3125 26.13671875 C-25.06113281 26.94842529 -24.80976563 27.76013184 -24.55078125 28.59643555 C-24 31 -24 31 -24 36 C-15.42 36 -6.84 36 2 36 C2 36.66 2 37.32 2 38 C2.99 38 3.98 38 5 38 C5.33 31.73 5.66 25.46 6 19 C4.02 18.67 2.04 18.34 0 18 C0 12.06 0 6.12 0 0 Z " fill="#CB0606" transform="translate(281,159)"/>
<path d="M0 0 C0.66 0 1.32 0 2 0 C4.31 8.25 6.62 16.5 9 25 C16.92 25.33 24.84 25.66 33 26 C30.05223152 29.6847106 28.16112101 31.87444861 24.5625 34.5625 C23.78132813 35.15289062 23.00015625 35.74328125 22.1953125 36.3515625 C21.47085938 36.89554688 20.74640625 37.43953125 20 38 C18.33001351 39.32917292 16.66142513 40.66014102 15 42 C15.5304175 45.10232563 16.29543111 48.06540428 17.2265625 51.06640625 C17.4534375 51.79923828 17.6803125 52.53207031 17.9140625 53.28710938 C18.38983132 54.80983101 18.87165516 56.33067339 19.359375 57.84960938 C19.58367187 58.58115234 19.80796875 59.31269531 20.0390625 60.06640625 C20.24740723 60.72584229 20.45575195 61.38527832 20.67041016 62.06469727 C21.05485501 64.32210048 20.69066728 65.83677227 20 68 C19.03578125 67.24074219 18.0715625 66.48148437 17.078125 65.69921875 C15.80210194 64.69528885 14.52605924 63.69138391 13.25 62.6875 C12.61578125 62.18798828 11.9815625 61.68847656 11.328125 61.17382812 C10.09740849 60.20592087 8.86249374 59.24332328 7.62304688 58.28662109 C6.32118305 57.2546081 5.07881961 56.14774004 3.859375 55.01953125 C1.99856152 53.74017065 1.99856152 53.74017065 -0.3359375 54.46484375 C-3.80205596 56.46218181 -6.64681231 58.90728928 -9.625 61.5625 C-15.61583503 66.87194501 -15.61583503 66.87194501 -19 68 C-17.81068326 61.06753531 -15.97712213 54.5406762 -13.70703125 47.8828125 C-12.98280626 44.92989513 -12.68772885 43.70975471 -14 41 C-16.05417423 38.94526246 -16.05417423 38.94526246 -18.625 37.0625 C-19.5221875 36.37027344 -20.419375 35.67804688 -21.34375 34.96484375 C-23.57977893 33.31083999 -25.83673511 31.70521571 -28.125 30.125 C-29.07375 29.42375 -30.0225 28.7225 -31 28 C-31 27.34 -31 26.68 -31 26 C-23.08 25.67 -15.16 25.34 -7 25 C-6.21625 22.36 -5.4325 19.72 -4.625 17 C-4.38217285 16.1853125 -4.1393457 15.370625 -3.88916016 14.53125 C-2.46599287 9.71401981 -1.18694369 4.88088993 0 0 Z " fill="#FDF5F5" transform="translate(249,170)"/>
<path d="M0 0 C0.66 0.33 1.32 0.66 2 1 C2.0580476 4.27075883 2.09361165 7.54138524 2.125 10.8125 C2.14175781 11.74126953 2.15851563 12.67003906 2.17578125 13.62695312 C2.18222656 14.51962891 2.18867188 15.41230469 2.1953125 16.33203125 C2.20578613 17.15421143 2.21625977 17.9763916 2.22705078 18.82348633 C2 21 2 21 0 24 C-0.99 24 -1.98 24 -3 24 C-3.66 23.34 -4.32 22.68 -5 22 C-5.33 28.93 -5.66 35.86 -6 43 C-5.01 43 -4.02 43 -3 43 C-3 42.01 -3 41.02 -3 40 C0.55824216 41.42329686 1.35276389 42.64518946 3 46 C4.57408661 48.04033505 6.20506258 50.02105865 7.85546875 52 C9 54 9 54 8.87109375 56.015625 C7.84414902 58.35503272 6.60644949 59.87102791 4.875 61.75 C4.24980469 62.43578125 3.62460937 63.1215625 2.98046875 63.828125 C2.00013672 64.90320313 2.00013672 64.90320313 1 66 C-0.84437553 68.17333228 -2.68564904 70.34905607 -4.51953125 72.53125 C-6 74 -6 74 -8 74 C-8 54.86 -8 35.72 -8 16 C-4 18 -4 18 0 21 C0 14.07 0 7.14 0 0 Z " fill="#CA0809" transform="translate(305,156)"/>
<path d="M0 0 C3 3.625 3 3.625 3 7 C-1.34285714 11 -1.34285714 11 -4 11 C-4 16.94 -4 22.88 -4 29 C-2.35 27.68 -0.7 26.36 1 25 C1.66 25 2.32 25 3 25 C3 43.81 3 62.62 3 82 C-1.47982373 79.76008814 -3.86902594 77.25970982 -7.1875 73.625 C-7.73341797 73.0475 -8.27933594 72.47 -8.84179688 71.875 C-9.62200195 71.02808594 -9.62200195 71.02808594 -10.41796875 70.1640625 C-10.89000732 69.65311035 -11.3620459 69.1421582 -11.84838867 68.61572266 C-13.20509903 66.71224393 -13.73613544 65.32241094 -14 63 C-12.1640625 60.30859375 -12.1640625 60.30859375 -9.625 57.4375 C-6.15541094 53.59955201 -6.15541094 53.59955201 -4 49 C-2.35 49 -0.7 49 1 49 C1 42.4 1 35.8 1 29 C-0.98 29.33 -2.96 29.66 -5 30 C-5 23.07 -5 16.14 -5 9 C-4.01 9 -3.02 9 -2 9 C-1.7834375 7.88625 -1.7834375 7.88625 -1.5625 6.75 C-1.09812508 4.47972261 -0.58136431 2.24240521 0 0 Z " fill="#CC0304" transform="translate(200,147)"/>
<path d="M0 0 C3.70344028 1.23448009 5.30250982 3.23334341 8 6 C8.66 6.33 9.32 6.66 10 7 C10 25.81 10 44.62 10 64 C12.64 64 15.28 64 18 64 C18 48.16 18 32.32 18 16 C18.66 16 19.32 16 20 16 C20 16.66 20 17.32 20 18 C20.598125 18.2475 21.19625 18.495 21.8125 18.75 C24.28647521 20.16370012 25.43370255 21.65055383 27 24 C25.34385343 24.38218767 23.67542976 24.71395102 22 25 C21.67 24.67 21.34 24.34 21 24 C20.67 37.53 20.34 51.06 20 65 C16.535 65.495 16.535 65.495 13 66 C13 66.66 13 67.32 13 68 C12.34 68 11.68 68 11 68 C10.67 68.99 10.34 69.98 10 71 C6.70303895 69.90101298 5.95329411 69.05402613 3.8125 66.4375 C3.28269531 65.79683594 2.75289062 65.15617187 2.20703125 64.49609375 C1.80871094 64.00238281 1.41039062 63.50867188 1 63 C1.99 62.505 1.99 62.505 3 62 C4.32 63.32 5.64 64.64 7 66 C7.09273534 58.63731904 7.16378235 51.27476427 7.20724869 43.91161728 C7.22811201 40.4924632 7.25640505 37.07370906 7.30175781 33.65478516 C7.35358618 29.72303069 7.37295578 25.79143743 7.390625 21.859375 C7.41127014 20.63321472 7.43191528 19.40705444 7.45318604 18.14373779 C7.45348816 17.00285706 7.45379028 15.86197632 7.45410156 14.68652344 C7.46298401 13.68280701 7.47186646 12.67909058 7.48101807 11.6449585 C6.86933601 8.28152212 5.57858111 7.16367875 3 5 C1.25 3.375 1.25 3.375 0 2 C0 1.34 0 0.68 0 0 Z " fill="#BF3635" transform="translate(193,245)"/>
<path d="M0 0 C3 3.625 3 3.625 3 7 C-1.34285714 11 -1.34285714 11 -4 11 C-4 16.94 -4 22.88 -4 29 C-2.35 27.68 -0.7 26.36 1 25 C1.66 25 2.32 25 3 25 C3 43.81 3 62.62 3 82 C-0.75843663 80.12078169 -2.14975355 78.97529385 -4.75 75.875 C-5.36359375 75.15054688 -5.9771875 74.42609375 -6.609375 73.6796875 C-7.06828125 73.12539062 -7.5271875 72.57109375 -8 72 C-7.01 71.505 -7.01 71.505 -6 71 C-5.01 71.66 -4.02 72.32 -3 73 C-1.13705026 71.42730089 -0.10578264 70.50865619 0.39872742 68.0827179 C0.40983047 67.36101913 0.42093353 66.63932037 0.43237305 65.89575195 C0.45216721 65.07512772 0.47196136 64.25450348 0.49235535 63.40901184 C0.49874527 62.52767075 0.50513519 61.64632965 0.51171875 60.73828125 C0.52966995 59.83248825 0.54762115 58.92669525 0.56611633 57.99345398 C0.62030659 55.09985004 0.65414286 52.20641185 0.6875 49.3125 C0.72066539 47.35088835 0.75515432 45.38929859 0.79101562 43.42773438 C0.87603806 38.61860903 0.9428076 33.80953359 1 29 C-0.98 29.33 -2.96 29.66 -5 30 C-5 23.07 -5 16.14 -5 9 C-4.01 9 -3.02 9 -2 9 C-1.7834375 7.88625 -1.7834375 7.88625 -1.5625 6.75 C-1.09812508 4.47972261 -0.58136431 2.24240521 0 0 Z " fill="#C0393A" transform="translate(200,147)"/>
<path d="M0 0 C0 0.33 0 0.66 0 1 C-32.74139993 9.07751902 -66.84405984 11.01036501 -100 4 C-100 3.67 -100 3.34 -100 3 C-98.783125 2.979375 -97.56625 2.95875 -96.3125 2.9375 C-95.28576172 2.92009766 -95.28576172 2.92009766 -94.23828125 2.90234375 C-92 3 -92 3 -89.70376587 3.49603271 C-86.90984895 4.01680367 -84.34176177 4.14059288 -81.50146484 4.16113281 C-80.42198578 4.17074036 -79.34250671 4.1803479 -78.23031616 4.19024658 C-76.48822372 4.1966214 -76.48822372 4.1966214 -74.7109375 4.203125 C-73.49789948 4.20882507 -72.28486145 4.21452515 -71.0350647 4.22039795 C-68.46121083 4.22984389 -65.88734488 4.23638032 -63.31347656 4.24023438 C-59.43792462 4.24984398 -55.56292536 4.28083156 -51.6875 4.3125 C-37.14667649 4.37382504 -22.88819148 4.11779314 -8.73974609 0.40722656 C-5.84966562 -0.26926154 -2.95160151 -0.05676157 0 0 Z " fill="#8B0909" transform="translate(307,460)"/>
<path d="M0 0 C1.4429252 3.96036916 0.73967936 7.74440305 0.1875 11.8125 C0.10435547 12.49892578 0.02121094 13.18535156 -0.06445312 13.89257812 C-0.48977653 17.17408791 -1.03789546 20.12174637 -2.02734375 23.30053711 C-3.03063113 27.11650439 -3.24367467 30.29745636 -3.23046875 34.234375 C-3.23039322 35.24220032 -3.23039322 35.24220032 -3.23031616 36.27038574 C-3.22673577 38.4304523 -3.2078991 40.59003208 -3.1875 42.75 C-3.17997581 44.23795433 -3.17273423 45.72591012 -3.16577148 47.21386719 C-3.27383492 65.71352683 -3.27383492 65.71352683 -1 84 C-0.88321201 86.67678073 -0.9545494 89.31841457 -1 92 C-0.34 92 0.32 92 1 92 C1.84681133 97.08086796 2.09038099 101.84828377 2 107 C1.67 107 1.34 107 1 107 C-4.48917217 84.510382 -6.43357579 63.127117 -6 40 C-5.98743164 39.29520508 -5.97486328 38.59041016 -5.96191406 37.86425781 C-5.68294037 26.31246967 -5.2338629 10.46772579 0 0 Z " fill="#810909" transform="translate(38,199)"/>
<path d="M0 0 C0.66 0.33 1.32 0.66 2 1 C2.0580476 4.27075883 2.09361165 7.54138524 2.125 10.8125 C2.14175781 11.74126953 2.15851563 12.67003906 2.17578125 13.62695312 C2.18222656 14.51962891 2.18867188 15.41230469 2.1953125 16.33203125 C2.20578613 17.15421143 2.21625977 17.9763916 2.22705078 18.82348633 C2 21 2 21 0 24 C-0.99 24 -1.98 24 -3 24 C-3.66 23.34 -4.32 22.68 -5 22 C-5.33 37.84 -5.66 53.68 -6 70 C-5.34 70.33 -4.68 70.66 -4 71 C-4.66 71.99 -5.32 72.98 -6 74 C-6.66 74 -7.32 74 -8 74 C-8 54.86 -8 35.72 -8 16 C-4 18 -4 18 0 21 C0 14.07 0 7.14 0 0 Z " fill="#C04040" transform="translate(305,156)"/>
<path d="M0 0 C0.33 0 0.66 0 1 0 C4.15286816 13.77723904 3.26322698 28.95936088 3 43 C2.98743164 43.70479492 2.97486328 44.40958984 2.96191406 45.13574219 C2.46388934 65.75803108 -2.88641151 85.42723819 -9 105 C-9.33 105 -9.66 105 -10 105 C-10.32971887 99.83440434 -9.50031326 96.19513917 -7.734375 91.35546875 C-6.56479366 87.60409883 -6.31021065 83.90865416 -6 80 C-5.34 80 -4.68 80 -4 80 C-3.67 76.7 -3.34 73.4 -3 70 C-2.34 70 -1.68 70 -1 70 C-1.01160156 69.43152344 -1.02320313 68.86304688 -1.03515625 68.27734375 C-1.04417969 67.50519531 -1.05320312 66.73304688 -1.0625 65.9375 C-1.07410156 65.18339844 -1.08570313 64.42929687 -1.09765625 63.65234375 C-1 61 -1 61 -0.5 58.11523438 C0.30397281 52.6066312 0.12269085 47.05794777 0.09765625 41.50390625 C0.0962413 40.31522446 0.09482635 39.12654266 0.09336853 37.90184021 C0.08779114 34.12203406 0.07524275 30.34228811 0.0625 26.5625 C0.05748208 23.9928394 0.05291968 21.42317787 0.04882812 18.85351562 C0.03782911 12.56899003 0.0211135 6.28449932 0 0 Z " fill="#740808" transform="translate(465,218)"/>
<path d="M0 0 C0.66 0 1.32 0 2 0 C3.38232443 1.62626404 4.71937515 3.2925002 6 5 C4.68 5 3.36 5 2 5 C2 25.79 2 46.58 2 68 C2.66 68.33 3.32 68.66 4 69 C3.01 69 2.02 69 1 69 C0 68 0 68 -0.12025452 65.29820251 C-0.11803391 64.09241043 -0.11581329 62.88661835 -0.11352539 61.64428711 C-0.11367142 60.98089828 -0.11381744 60.31750946 -0.1139679 59.63401794 C-0.11326881 57.43176044 -0.10547665 55.22958655 -0.09765625 53.02734375 C-0.09579206 51.50419664 -0.09436816 49.98104893 -0.09336853 48.457901 C-0.08954346 44.44162349 -0.07971328 40.42538192 -0.06866455 36.40911865 C-0.05845019 32.31376634 -0.05387086 28.21840824 -0.04882812 24.12304688 C-0.038091 16.08201472 -0.02101472 8.04101183 0 0 Z " fill="#B81D1D" transform="translate(211,172)"/>
<path d="M0 0 C0 0.66 0 1.32 0 2 C-0.969375 2.639375 -1.93875 3.27875 -2.9375 3.9375 C-6.24255225 5.71061007 -6.24255225 5.71061007 -7 9 C-8.7421875 10.203125 -8.7421875 10.203125 -10.875 11.25 C-11.57367188 11.60578125 -12.27234375 11.9615625 -12.9921875 12.328125 C-15 13 -15 13 -18 12 C-18 12.66 -18 13.32 -18 14 C-18.79664063 14.32871094 -18.79664063 14.32871094 -19.609375 14.6640625 C-24.75450384 16.97373713 -27.05356818 19.05420373 -30 24 C-32.65799923 26.41636294 -33.35294333 27 -37 27 C-37 27.66 -37 28.32 -37 29 C-38.65 29.33 -40.3 29.66 -42 30 C-42 29.34 -42 28.68 -42 28 C-41.34 28 -40.68 28 -40 28 C-40 27.34 -40 26.68 -40 26 C-38.05586103 24.32930252 -36.11291545 22.78053209 -34.0625 21.25 C-33.47364014 20.80479004 -32.88478027 20.35958008 -32.27807617 19.90087891 C-19.08588224 10 -19.08588224 10 -16 10 C-16 9.34 -16 8.68 -16 8 C-15.40832031 7.67386719 -14.81664062 7.34773438 -14.20703125 7.01171875 C-10.78864136 5.1212878 -7.38755883 3.23913204 -4.0625 1.1875 C-2 0 -2 0 0 0 Z " fill="#9D0709" transform="translate(146,59)"/>
<path d="M0 0 C0 15.51 0 31.02 0 47 C-0.33 47 -0.66 47 -1 47 C-1.33 33.8 -1.66 20.6 -2 7 C-3.65 7 -5.3 7 -7 7 C-8.52012037 9.25427272 -8.52012037 9.25427272 -10 12 C-12.62915498 14.8361147 -14.90846257 16.88135463 -18.875 17.3125 C-19.57625 17.209375 -20.2775 17.10625 -21 17 C-21.33 17.99 -21.66 18.98 -22 20 C-23.32 19.67 -24.64 19.34 -26 19 C-24.90945313 18.19949219 -24.90945313 18.19949219 -23.796875 17.3828125 C-17.11783408 12.43347192 -10.69481645 7.29986143 -4.3984375 1.87109375 C-2 0 -2 0 0 0 Z " fill="#C61214" transform="translate(289,262)"/>
<path d="M0 0 C0.66 0 1.32 0 2 0 C2 22.11 2 44.22 2 67 C1.34 66.67 0.68 66.34 0 66 C-0.15359878 57.54241822 -0.30178042 49.08476662 -0.4429636 40.62696934 C-0.50868604 36.70007172 -0.57630471 32.7732255 -0.64819336 28.84643555 C-0.71744515 25.05992533 -0.7817991 21.27336119 -0.84269524 17.48670769 C-0.86685111 16.03892916 -0.8927997 14.59117944 -0.92053413 13.14346504 C-0.95895022 11.12250107 -0.99051574 9.10141032 -1.02172852 7.08032227 C-1.04171402 5.92782486 -1.06169952 4.77532745 -1.08229065 3.58790588 C-1 1 -1 1 0 0 Z " fill="#FED9D9" transform="translate(209,172)"/>
<path d="M0 0 C0.66 0 1.32 0 2 0 C2 0.66 2 1.32 2 2 C2.8971875 2.37125 2.8971875 2.37125 3.8125 2.75 C6.28647521 4.16370012 7.43370255 5.65055383 9 8 C7.34385343 8.38218767 5.67542976 8.71395102 4 9 C3.67 8.67 3.34 8.34 3 8 C2.67 21.53 2.34 35.06 2 49 C1.34 49 0.68 49 0 49 C0 32.83 0 16.66 0 0 Z " fill="#BA181A" transform="translate(211,261)"/>
<path d="M0 0 C0.66 0 1.32 0 2 0 C2 0.99 2 1.98 2 3 C2.66 3 3.32 3 4 3 C4.67413211 4.91405367 5.3390332 6.83136026 6 8.75 C6.37125 9.81734375 6.7425 10.8846875 7.125 11.984375 C8 15 8 15 8 19 C8.66 19 9.32 19 10 19 C10.19335938 19.54269531 10.38671875 20.08539063 10.5859375 20.64453125 C10.84632812 21.35996094 11.10671875 22.07539063 11.375 22.8125 C11.63023438 23.52019531 11.88546875 24.22789062 12.1484375 24.95703125 C13.0265769 27.24773359 13.0265769 27.24773359 15 30 C15.125 32.6875 15.125 32.6875 15 35 C15.99 35 16.98 35 18 35 C18.4125 36.03125 18.825 37.0625 19.25 38.125 C20.38666905 40.83005376 21.51865309 42.73475855 23.25 45.1875 C25 48 25 48 24.609375 50.17578125 C24.40828125 50.77777344 24.2071875 51.37976563 24 52 C19.24555628 45.32354711 15.51411374 38.39446265 12 31 C11.70947754 30.39285156 11.41895508 29.78570312 11.11962891 29.16015625 C0.79462157 7.54890495 0.79462157 7.54890495 0 0 Z " fill="#890709" transform="translate(43,317)"/>
<path d="M0 0 C0.33 0 0.66 0 1 0 C1 5.61 1 11.22 1 17 C2.65 16.01 4.3 15.02 6 14 C6.66 14 7.32 14 8 14 C8 36.11 8 58.22 8 81 C7.67 81 7.34 81 7 81 C6.67 60.54 6.34 40.08 6 19 C4.02 18.67 2.04 18.34 0 18 C0 12.06 0 6.12 0 0 Z " fill="#B42F2C" transform="translate(281,159)"/>
<path d="M0 0 C4.455 0.99 4.455 0.99 9 2 C8.67 3.32 8.34 4.64 8 6 C9.65 5.34 11.3 4.68 13 4 C13.66 4.66 14.32 5.32 15 6 C18.58343976 6.16677282 18.58343976 6.16677282 22 6 C22 6.66 22 7.32 22 8 C21.34 8 20.68 8 20 8 C19.87625 9.134375 19.7525 10.26875 19.625 11.4375 C19.315625 13.2009375 19.315625 13.2009375 19 15 C18.01 15.495 18.01 15.495 17 16 C14.32926351 13.67129243 11.66424199 11.33613337 9 9 C7.74509766 7.90558594 7.74509766 7.90558594 6.46484375 6.7890625 C5.65144531 6.07492188 4.83804687 5.36078125 4 4.625 C3.236875 3.95726562 2.47375 3.28953125 1.6875 2.6015625 C1.130625 2.07304687 0.57375 1.54453125 0 1 C0 0.67 0 0.34 0 0 Z " fill="#C90808" transform="translate(356,206)"/>
<path d="M0 0 C1.32 0 2.64 0 4 0 C4 0.66 4 1.32 4 2 C7.465 1.505 7.465 1.505 11 1 C11 2.65 11 4.3 11 6 C12.32 5.67 13.64 5.34 15 5 C15.22429687 5.59554688 15.44859375 6.19109375 15.6796875 6.8046875 C17.38809208 9.64528919 19.23165386 10.55055808 22.125 12.125 C23.78028702 13.03001528 25.41517779 13.97659082 27 15 C27 15.66 27 16.32 27 17 C28.32 17.33 29.64 17.66 31 18 C30.34 18.33 29.68 18.66 29 19 C22.10065263 16.07901194 15.69385595 11.66438079 9.3125 7.75 C8.59304199 7.31389404 7.87358398 6.87778809 7.13232422 6.4284668 C5.38561198 5.34136548 3.68735511 4.17712602 2 3 C2 2.34 2 1.68 2 1 C1.34 0.67 0.68 0.34 0 0 Z " fill="#9E0608" transform="translate(121,425)"/>
<path d="M0 0 C0.78375 0.495 1.5675 0.99 2.375 1.5 C-0.47233534 2.92366767 -2.55253098 2.02297345 -5.625 1.5 C-5.955 1.83 -6.285 2.16 -6.625 2.5 C-9.11555422 2.57258446 -11.59136497 2.4963636 -14.08203125 2.4375 C-16.44251485 2.49551496 -18.37211466 2.82781044 -20.625 3.5 C-20.625 5.15 -20.625 6.8 -20.625 8.5 C-19.305 9.16 -17.985 9.82 -16.625 10.5 C-17.615 11.16 -18.605 11.82 -19.625 12.5 C-21.6875 10.8125 -21.6875 10.8125 -23.625 8.5 C-23.75 6 -23.75 6 -22.625 3.5 C-15.72181015 -1.9024964 -8.19301668 -3.3902138 0 0 Z " fill="#C01516" transform="translate(374.625,193.5)"/>
<path d="M0 0 C5.48673322 1.25306768 10.48920381 2.83546309 15.625 5.125 C16.64400391 5.5737146 16.64400391 5.5737146 17.68359375 6.03149414 C24.73207827 9.2083795 31.38112792 13.01833476 38 17 C34.28272326 18.13583456 32.52948291 17.66670026 29 16 C29 15.34 29 14.68 29 14 C28.45859375 13.88785156 27.9171875 13.77570312 27.359375 13.66015625 C24.49971779 12.86002037 21.94256292 11.6876185 19.25 10.4375 C18.26515625 9.98246094 17.2803125 9.52742188 16.265625 9.05859375 C15.51796875 8.70925781 14.7703125 8.35992187 14 8 C14 7.34 14 6.68 14 6 C10.7 5.34 7.4 4.68 4 4 C4 3.34 4 2.68 4 2 C2.68 1.67 1.36 1.34 0 1 C0 0.67 0 0.34 0 0 Z " fill="#8A080A" transform="translate(323,45)"/>
<path d="M0 0 C0.33 0 0.66 0 1 0 C1 18.48 1 36.96 1 56 C1.99 56 2.98 56 4 56 C4 56.66 4 57.32 4 58 C4.66 58.33 5.32 58.66 6 59 C4.515 59.495 4.515 59.495 3 60 C2.67 60.66 2.34 61.32 2 62 C1.67 60.68 1.34 59.36 1 58 C-1.97 57.67 -4.94 57.34 -8 57 C-8 56.67 -8 56.34 -8 56 C-5.36 56 -2.72 56 0 56 C0 37.52 0 19.04 0 0 Z " fill="#CB625F" transform="translate(297,253)"/>
<path d="M0 0 C3.81684226 1.55500981 6.19195732 4.03595495 9 7 C6.36 7.33 3.72 7.66 1 8 C0.34 13.61 -0.32 19.22 -1 25 C-1.33 25 -1.66 25 -2 25 C-2.05834353 21.77090994 -2.09371115 18.54195662 -2.125 15.3125 C-2.14175781 14.40048828 -2.15851563 13.48847656 -2.17578125 12.54882812 C-2.20936169 7.93151773 -2.23556185 4.18067669 0 0 Z " fill="#C30907" transform="translate(177,232)"/>
<path d="M0 0 C0.495 0.433125 0.99 0.86625 1.5 1.3125 C0.2508258 4.77175163 -1.17527795 7.45943203 -3.5 10.3125 C-3.17 7.3425 -2.84 4.3725 -2.5 1.3125 C-7.25316041 -1.51410557 -11.14154777 -2.09947056 -16.5625 -1.9375 C-17.25666016 -1.93234375 -17.95082031 -1.9271875 -18.66601562 -1.921875 C-21.64310298 -1.8766391 -24.40114669 -1.7100479 -27.30859375 -1.046875 C-29.5 -0.6875 -29.5 -0.6875 -32.5 -2.6875 C-10.30825988 -6.95807542 -10.30825988 -6.95807542 0 0 Z " fill="#C02A29" transform="translate(168.5,223.6875)"/>
<path d="M0 0 C2.35741499 2.35741499 2.73354976 3.91164534 3.65625 7.09375 C3.95660156 8.125 4.25695312 9.15625 4.56640625 10.21875 C4.87449219 11.3015625 5.18257813 12.384375 5.5 13.5 C5.80808594 14.551875 6.11617188 15.60375 6.43359375 16.6875 C11.17346931 33.12449336 11.17346931 33.12449336 11 41 C10.34 41 9.68 41 9 41 C8.81824219 39.96101563 8.63648438 38.92203125 8.44921875 37.8515625 C7.18095339 30.76424729 5.88024214 23.84871029 3.55078125 17.015625 C3 15 3 15 3 11 C2.34 11 1.68 11 1 11 C0.67 7.37 0.34 3.74 0 0 Z " fill="#85090A" transform="translate(454,175)"/>
<path d="M0 0 C4.30983135 2.52645286 5.29942025 5.49346365 7 10 C7.9075 9.484375 8.815 8.96875 9.75 8.4375 C13 7 13 7 15.375 7.3125 C15.91125 7.539375 16.4475 7.76625 17 8 C16.01 8.66 15.02 9.32 14 10 C12.80767387 12.05003955 12.80767387 12.05003955 12 14 C8.30099992 13.11223998 4.65449539 12.05418136 1 11 C1.33 8.36 1.66 5.72 2 3 C1.34 3 0.68 3 0 3 C0 2.01 0 1.02 0 0 Z " fill="#C41A1C" transform="translate(113,186)"/>
<path d="M0 0 C0.96661363 3.12180401 0.98988909 5.52083795 0.5625 8.75 C0.46066406 9.54921875 0.35882813 10.3484375 0.25390625 11.171875 C0.12822266 12.07679688 0.12822266 12.07679688 0 13 C-0.66 13 -1.32 13 -2 13 C-1.979375 14.258125 -1.95875 15.51625 -1.9375 16.8125 C-1.89113917 19.64051087 -2.08307039 21.24921116 -3 24 C-3.14835948 25.77166975 -3.24770018 27.54767612 -3.31640625 29.32421875 C-3.35830078 30.35224609 -3.40019531 31.38027344 -3.44335938 32.43945312 C-3.48267578 33.51130859 -3.52199219 34.58316406 -3.5625 35.6875 C-3.60568359 36.77095703 -3.64886719 37.85441406 -3.69335938 38.97070312 C-3.79946838 41.64700791 -3.90152361 44.32340526 -4 47 C-4.33 47 -4.66 47 -5 47 C-5.54825913 30.57921734 -5.82133054 15.53047826 0 0 Z " fill="#F9CECD" transform="translate(161,243)"/>
<path d="M0 0 C0.66 0 1.32 0 2 0 C1.89300781 0.56847656 1.78601563 1.13695312 1.67578125 1.72265625 C1.02913115 5.88763912 0.63993152 8.94086425 2.5 12.8125 C4 16 4 16 4.0625 18.1875 C2.38196421 21.05429635 -0.19719863 22.33024599 -3 24 C-3 22.35 -3 20.7 -3 19 C-1.35 19 0.3 19 2 19 C0.19587357 15.73539027 -0.83394693 14.11070205 -4 12 C-3.52494322 10.18641846 -3.04483958 8.37415821 -2.5625 6.5625 C-2.29566406 5.55316406 -2.02882813 4.54382813 -1.75390625 3.50390625 C-1 1 -1 1 0 0 Z " fill="#C10B0E" transform="translate(285,135)"/>
<path d="M0 0 C0 15.51 0 31.02 0 47 C-0.33 47 -0.66 47 -1 47 C-1.33 32.48 -1.66 17.96 -2 3 C-3.65 3.66 -5.3 4.32 -7 5 C-2.25 0 -2.25 0 0 0 Z " fill="#B92D2B" transform="translate(289,262)"/>
<path d="M0 0 C2.64 1.98 5.28 3.96 8 6 C4.16579033 7.27806989 2.11624618 6.52182373 -1.8125 5.625 C-9.20834149 4.01190774 -16.42934611 3.33828808 -24 3 C-24 2.67 -24 2.34 -24 2 C-16.41 2 -8.82 2 -1 2 C-0.67 1.34 -0.34 0.68 0 0 Z " fill="#FCCFCC" transform="translate(366,216)"/>
<path d="M0 0 C0.33 0 0.66 0 1 0 C1.53515017 8.52523958 0.0695051 15.58711036 -2.5 23.6875 C-2.83386719 24.78255859 -3.16773438 25.87761719 -3.51171875 27.00585938 C-4.3276364 29.6750757 -5.15714905 32.33919129 -6 35 C-6.33 35 -6.66 35 -7 35 C-7.32971887 29.83440434 -6.50031326 26.19513917 -4.734375 21.35546875 C-3.56479366 17.60409883 -3.31021065 13.90865416 -3 10 C-2.34 10 -1.68 10 -1 10 C-0.67 6.7 -0.34 3.4 0 0 Z " fill="#9A0A0B" transform="translate(462,288)"/>
<path d="M0 0 C0.33 0 0.66 0 1 0 C1.02465622 4.25414623 1.04283899 8.50825498 1.05493164 12.76245117 C1.05997101 14.21070073 1.06680253 15.65894517 1.07543945 17.10717773 C1.08752247 19.18474588 1.09323211 21.26224697 1.09765625 23.33984375 C1.10289307 24.59144287 1.10812988 25.84304199 1.11352539 27.13256836 C1 30 1 30 0 31 C-0.36760731 33.32817964 -0.70241581 35.6618385 -1 38 C-1.66 38 -2.32 38 -3 38 C-3.33 38.66 -3.66 39.32 -4 40 C-3.855625 39.13632812 -3.71125 38.27265625 -3.5625 37.3828125 C-3.376875 36.26648438 -3.19125 35.15015625 -3 34 C-2.835 33.02804687 -2.67 32.05609375 -2.5 31.0546875 C-0.87642007 20.72973387 -0.39886939 10.43358354 0 0 Z " fill="#C93736" transform="translate(344,270)"/>
<path d="M0 0 C2.68605545 7.35460353 3.3904165 13.83092536 3.1875 21.625 C3.17396484 22.62917969 3.16042969 23.63335937 3.14648438 24.66796875 C3.11156152 27.11256864 3.06252748 29.55597734 3 32 C2.67 32 2.34 32 2 32 C1.95101563 30.72125 1.90203125 29.4425 1.8515625 28.125 C1.77647009 26.41664778 1.70092513 24.70831541 1.625 23 C1.5940625 22.16082031 1.563125 21.32164062 1.53125 20.45703125 C1.27950298 15.04447022 0.48441108 10.21354136 -1 5 C-1.99 5 -2.98 5 -4 5 C-4.33 5.66 -4.66 6.32 -5 7 C-6.32 6.67 -7.64 6.34 -9 6 C-8.01 5.67 -7.02 5.34 -6 5 C-6 4.34 -6 3.68 -6 3 C-2.53846154 0 -2.53846154 0 0 0 Z " fill="#C23639" transform="translate(323,232)"/>
<path d="M0 0 C1.98 0 3.96 0 6 0 C2.46466895 2.8931333 -1.15464984 5.56415163 -4.9375 8.125 C-5.93652344 8.80820312 -6.93554688 9.49140625 -7.96484375 10.1953125 C-10.93688286 11.96247089 -13.68848446 13.04257226 -17 14 C-17 13.34 -17 12.68 -17 12 C-16.34 12 -15.68 12 -15 12 C-15 11.34 -15 10.68 -15 10 C-14.01 10 -13.02 10 -12 10 C-12 9.34 -12 8.68 -12 8 C-11.43410156 7.73445313 -10.86820312 7.46890625 -10.28515625 7.1953125 C-9.55167969 6.84210938 -8.81820313 6.48890625 -8.0625 6.125 C-7.33160156 5.77695312 -6.60070312 5.42890625 -5.84765625 5.0703125 C-3.83667541 4.1315023 -3.83667541 4.1315023 -3 2 C-2.01 2 -1.02 2 0 2 C0 1.34 0 0.68 0 0 Z " fill="#870808" transform="translate(371,427)"/>
<path d="M0 0 C0.66 0.33 1.32 0.66 2 1 C2.0580476 4.27075883 2.09361165 7.54138524 2.125 10.8125 C2.14175781 11.74126953 2.15851563 12.67003906 2.17578125 13.62695312 C2.18222656 14.51962891 2.18867188 15.41230469 2.1953125 16.33203125 C2.20578613 17.15421143 2.21625977 17.9763916 2.22705078 18.82348633 C2 21 2 21 0 24 C-0.99 24 -1.98 24 -3 24 C-5 22 -5 22 -6 20 C-4.02 20.33 -2.04 20.66 0 21 C0 14.07 0 7.14 0 0 Z " fill="#BF0B0B" transform="translate(305,156)"/>
<path d="M0 0 C-2.2731366 8.7894615 -6.9628726 15.57630909 -12 23 C-12.33 21.68 -12.66 20.36 -13 19 C-12.01 18.67 -11.02 18.34 -10 18 C-10.33 16.68 -10.66 15.36 -11 14 C-10.01 14.33 -9.02 14.66 -8 15 C-8 13.35 -8 11.7 -8 10 C-7.01 10 -6.02 10 -5 10 C-5.061875 8.72125 -5.12375 7.4425 -5.1875 6.125 C-5.29296875 3.9453125 -5.29296875 3.9453125 -5 2 C-2 0 -2 0 0 0 Z " fill="#BF1B1D" transform="translate(321,282)"/>
<path d="M0 0 C1.4429252 3.96036916 0.73967936 7.74440305 0.1875 11.8125 C0.10435547 12.49892578 0.02121094 13.18535156 -0.06445312 13.89257812 C-0.49954986 17.24949235 -1.0905093 20.31285477 -2.03515625 23.578125 C-3.02735812 27.09702718 -3.39966214 30.29453792 -3.625 33.9375 C-3.73714844 35.65259766 -3.73714844 35.65259766 -3.8515625 37.40234375 C-3.90054688 38.25957031 -3.94953125 39.11679688 -4 40 C-4.33 40 -4.66 40 -5 40 C-5.64121683 27.56751818 -5.67849932 11.35699864 0 0 Z " fill="#760808" transform="translate(38,199)"/>
<path d="M0 0 C3 3.625 3 3.625 3 7 C-1.34285714 11 -1.34285714 11 -4 11 C-3.67 17.27 -3.34 23.54 -3 30 C-3.66 30 -4.32 30 -5 30 C-5 23.07 -5 16.14 -5 9 C-4.01 9 -3.02 9 -2 9 C-1.7834375 7.88625 -1.7834375 7.88625 -1.5625 6.75 C-1.09812508 4.47972261 -0.58136431 2.24240521 0 0 Z " fill="#D54243" transform="translate(200,147)"/>
<path d="M0 0 C2.95514876 2.75134539 5.1524809 5.39733775 7 9 C7 9.99 7 10.98 7 12 C1.84535266 11.51675181 -1.81550319 8.81389239 -6 6 C-5.34 5.67 -4.68 5.34 -4 5 C-1.375 5.9375 -1.375 5.9375 1 7 C0.67 4.69 0.34 2.38 0 0 Z " fill="#F7C4C2" transform="translate(239,273)"/>
<path d="M0 0 C0.99 0.33 1.98 0.66 3 1 C3 6.94 3 12.88 3 19 C-0.56311466 17.21844267 -2.35645475 15.83236991 -5 13 C-2.525 13.495 -2.525 13.495 0 14 C0 9.38 0 4.76 0 0 Z " fill="#FAC0BF" transform="translate(302,158)"/>
<path d="M0 0 C-1.03640625 0.48210937 -2.0728125 0.96421875 -3.140625 1.4609375 C-4.51043032 2.09892902 -5.88022123 2.73695148 -7.25 3.375 C-7.93191406 3.69210937 -8.61382812 4.00921875 -9.31640625 4.3359375 C-9.98027344 4.6453125 -10.64414062 4.9546875 -11.328125 5.2734375 C-12.29202148 5.72154785 -12.29202148 5.72154785 -13.27539062 6.17871094 C-14.63354169 6.82548616 -15.96993409 7.517958 -17.296875 8.2265625 C-19 9 -19 9 -22 9 C-22 8.34 -22 7.68 -22 7 C-20.35 6.67 -18.7 6.34 -17 6 C-17 5.34 -17 4.68 -17 4 C-15.35 4 -13.7 4 -12 4 C-12 3.34 -12 2.68 -12 2 C-11.01 2 -10.02 2 -9 2 C-9 1.34 -9 0.68 -9 0 C-3.375 -1.125 -3.375 -1.125 0 0 Z " fill="#890809" transform="translate(348,445)"/>
<path d="M0 0 C2.31 0.66 4.62 1.32 7 2 C7.33 3.32 7.66 4.64 8 6 C8.78375 6.061875 9.5675 6.12375 10.375 6.1875 C11.674375 6.5896875 11.674375 6.5896875 13 7 C14.3125 9.5625 14.3125 9.5625 15 12 C15.66 12 16.32 12 17 12 C17 12.66 17 13.32 17 14 C13.32177947 12.38750996 10.46975834 10.10253751 7.375 7.5625 C6.41335937 6.78003906 5.45171875 5.99757813 4.4609375 5.19140625 C2 3 2 3 0 0 Z M13 6 C15 7 15 7 15 7 Z " fill="#900708" transform="translate(104,411)"/>
<path d="M0 0 C0.66 0 1.32 0 2 0 C2.3125 2.1875 2.3125 2.1875 2 5 C-0.4375 7.8125 -0.4375 7.8125 -3 10 C-3.33 10 -3.66 10 -4 10 C-4.33 13.96 -4.66 17.92 -5 22 C-3.68 22.33 -2.36 22.66 -1 23 C-2.375 24.5 -2.375 24.5 -4 26 C-4.66 26 -5.32 26 -6 26 C-6.13510253 23.08178537 -6.2341305 20.16982348 -6.3125 17.25 C-6.35439453 16.425 -6.39628906 15.6 -6.43945312 14.75 C-6.56331392 8.60650439 -6.56331392 8.60650439 -3.60546875 5.421875 C-1 4 -1 4 1 4 C0.67 2.68 0.34 1.36 0 0 Z " fill="#FCDDDB" transform="translate(202,150)"/>
<path d="M0 0 C0.66 0.33 1.32 0.66 2 1 C1.01 2.485 1.01 2.485 0 4 C-0.66 4 -1.32 4 -2 4 C-2.33 4.99 -2.66 5.98 -3 7 C-6.41482003 9.56111503 -8.74808535 10.36444983 -13 10 C-13 10.66 -13 11.32 -13 12 C-13.66 12 -14.32 12 -15 12 C-15 12.66 -15 13.32 -15 14 C-16.65 14 -18.3 14 -20 14 C-17.50506504 11.18368359 -14.73437182 9.59044019 -11.4375 7.8125 C-10.46683594 7.28269531 -9.49617188 6.75289063 -8.49609375 6.20703125 C-6 5 -6 5 -4 5 C-4 4.34 -4 3.68 -4 3 C-2 1.375 -2 1.375 0 0 Z " fill="#C4272A" transform="translate(308,355)"/>
<path d="M0 0 C-0.33 0.66 -0.66 1.32 -1 2 C-3.33435745 2.77811915 -5.61683055 3.402188 -8 4 C-8.98742187 4.27328125 -9.97484375 4.5465625 -10.9921875 4.828125 C-12.04664063 5.11171875 -13.10109375 5.3953125 -14.1875 5.6875 C-15.19167969 5.95949219 -16.19585937 6.23148438 -17.23046875 6.51171875 C-20.00888002 7.00156559 -21.3571992 6.76744703 -24 6 C-21.12854755 4.98867084 -18.25354777 3.99075598 -15.375 3 C-14.56675781 2.71382812 -13.75851563 2.42765625 -12.92578125 2.1328125 C-8.46885356 0.61093475 -4.77962528 -0.37123303 0 0 Z " fill="#830809" transform="translate(199,39)"/>
<path d="M0 0 C5.625 -0.25 5.625 -0.25 9 2 C10.0725 2.12375 11.145 2.2475 12.25 2.375 C16.71057956 3.11842993 19.20915448 4.60170998 23 7 C19.2573851 8.87130745 14.76921396 6.36058175 10.9375 5.1875 C10.00099609 4.91357422 9.06449219 4.63964844 8.09960938 4.35742188 C7.20951172 4.08865234 6.31941406 3.81988281 5.40234375 3.54296875 C4.58241943 3.29571045 3.76249512 3.04845215 2.91772461 2.79370117 C1 2 1 2 0 0 Z " fill="#7C0707" transform="translate(170,452)"/>
<path d="M0 0 C0.66 0.66 1.32 1.32 2 2 C1.6700572 5.39770885 0.1807479 7.2681087 -2.0625 9.75 C-2.61035156 10.36359375 -3.15820312 10.9771875 -3.72265625 11.609375 C-4.14417969 12.06828125 -4.56570313 12.5271875 -5 13 C-6.98 11.68 -8.96 10.36 -11 9 C-10.34 8.67 -9.68 8.34 -9 8 C-8.34 8.33 -7.68 8.66 -7 9 C-7 8.01 -7 7.02 -7 6 C-6.34 6 -5.68 6 -5 6 C-5 6.66 -5 7.32 -5 8 C-4.01 8 -3.02 8 -2 8 C-2 6.68 -2 5.36 -2 4 C-1.34 4 -0.68 4 0 4 C0 2.68 0 1.36 0 0 Z " fill="#BE1B1A" transform="translate(323,196)"/>
<path d="M0 0 C0.66 0 1.32 0 2 0 C2 0.66 2 1.32 2 2 C1.34 2 0.68 2 0 2 C-0.2165625 2.8971875 -0.2165625 2.8971875 -0.4375 3.8125 C-1.52255987 8.03217728 -2.6332686 10.1943905 -6 13 C-8.75 13.75 -8.75 13.75 -11 14 C-11 13.34 -11 12.68 -11 12 C-10.34 12 -9.68 12 -9 12 C-8.5359375 11.071875 -8.5359375 11.071875 -8.0625 10.125 C-7.375 8.75 -6.6875 7.375 -6 6 C-5.34 6 -4.68 6 -4 6 C-4 5.34 -4 4.68 -4 4 C-3.34 4 -2.68 4 -2 4 C-1.34 2.68 -0.68 1.36 0 0 Z " fill="#800607" transform="translate(93,98)"/>
<path d="M0 0 C0.33 0.66 0.66 1.32 1 2 C-2.46969559 7.17993561 -5.09392819 10.52769087 -11 13 C-11.33 13.66 -11.66 14.32 -12 15 C-15.0625 15.625 -15.0625 15.625 -18 16 C-15.79664924 13.69995046 -13.47632832 11.73441677 -10.9375 9.8125 C-10.24527344 9.28269531 -9.55304688 8.75289063 -8.83984375 8.20703125 C-7 7 -7 7 -5 7 C-5 6.34 -5 5.68 -5 5 C-3.37446717 3.29319053 -1.70884005 1.62339805 0 0 Z " fill="#F9CDCB" transform="translate(305,308)"/>
<path d="M0 0 C2 0 2 0 4.125 2 C4.74375 2.66 5.3625 3.32 6 4 C6.66 3.01 7.32 2.02 8 1 C10.97 1.33 13.94 1.66 17 2 C17 2.33 17 2.66 17 3 C15.35 3.33 13.7 3.66 12 4 C12 4.66 12 5.32 12 6 C11.34 6 10.68 6 10 6 C9.67 6.99 9.34 7.98 9 9 C5.72712496 7.90904165 4.95539407 7.08205507 2.8125 4.5 C2.01779297 3.55640625 2.01779297 3.55640625 1.20703125 2.59375 C0 1 0 1 0 0 Z " fill="#C8282A" transform="translate(194,307)"/>
<path d="M0 0 C0.33 1.32 0.66 2.64 1 4 C-14.74487472 6.29612756 -14.74487472 6.29612756 -22 6 C-18.20856066 3.79659808 -14.09676496 2.89456757 -9.875 1.875 C-9.14667969 1.69324219 -8.41835938 1.51148438 -7.66796875 1.32421875 C-2.28148496 0 -2.28148496 0 0 0 Z " fill="#C3292D" transform="translate(282,371)"/>
<path d="M0 0 C7.92 0 15.84 0 24 0 C22.68 1.65 21.36 3.3 20 5 C18.68 4.67 17.36 4.34 16 4 C16 3.01 16 2.02 16 1 C10.72 1 5.44 1 0 1 C0 0.67 0 0.34 0 0 Z " fill="#FFE0DF" transform="translate(258,196)"/>
<path d="M0 0 C2.19858192 3.29787288 3.08315174 6.13806357 4.1875 9.9375 C4.55230469 11.16339844 4.91710937 12.38929688 5.29296875 13.65234375 C5.93853762 16.70898753 6.1197357 18.15430227 5 21 C3.35 19.35 1.7 17.7 0 16 C0.66 16 1.32 16 2 16 C2.33 14.68 2.66 13.36 3 12 C2.34 12 1.68 12 1 12 C0.67 8.04 0.34 4.08 0 0 Z " fill="#F6BDBD" transform="translate(264,217)"/>
<path d="M0 0 C0.33 0 0.66 0 1 0 C1 5.61 1 11.22 1 17 C2.98 16.34 4.96 15.68 7 15 C7 19.62 7 24.24 7 29 C6.67 29 6.34 29 6 29 C6 25.7 6 22.4 6 19 C4.02 18.67 2.04 18.34 0 18 C0 12.06 0 6.12 0 0 Z " fill="#CB2E2F" transform="translate(281,159)"/>
<path d="M0 0 C6.51951952 1.5045045 6.51951952 1.5045045 9 4.0625 C11.77531384 6.75108528 14.23988771 6.71076059 18 7 C18 6.34 18 5.68 18 5 C18.66 5 19.32 5 20 5 C19.67 5.99 19.34 6.98 19 8 C18.01 8 17.02 8 16 8 C16 8.66 16 9.32 16 10 C9.8034553 8.53239731 4.93130534 4.88851943 0 1 C0 0.67 0 0.34 0 0 Z " fill="#BF2B2B" transform="translate(204,317)"/>
<path d="M0 0 C0.99 0.33 1.98 0.66 3 1 C-7.37357631 8.66742597 -7.37357631 8.66742597 -13 10 C-12.625 7.5625 -12.625 7.5625 -12 5 C-11.34 4.67 -10.68 4.34 -10 4 C-10 4.66 -10 5.32 -10 6 C-8.68 6 -7.36 6 -6 6 C-6 5.34 -6 4.68 -6 4 C-4.68 3.67 -3.36 3.34 -2 3 C-2 2.34 -2 1.68 -2 1 C-1.34 0.67 -0.68 0.34 0 0 Z " fill="#FCD3CF" transform="translate(268,275)"/>
<path d="M0 0 C1.98 0.66 3.96 1.32 6 2 C6 2.66 6 3.32 6 4 C7.32 4.33 8.64 4.66 10 5 C9.77169299 6.62818946 9.51656424 8.2526349 9.25 9.875 C9.11078125 10.77992188 8.9715625 11.68484375 8.828125 12.6171875 C8 15 8 15 5.921875 16.3203125 C4.97054688 16.65675781 4.97054688 16.65675781 4 17 C4.309375 16.2575 4.61875 15.515 4.9375 14.75 C5.288125 13.8425 5.63875 12.935 6 12 C6.433125 11.01 6.433125 11.01 6.875 10 C7.22061449 7.75963661 7.22061449 7.75963661 5.25 5.4375 C3.53509176 3.57968274 1.83266675 1.74103341 0 0 Z " fill="#C12127" transform="translate(379,175)"/>
<path d="M0 0 C0.1953125 6.0546875 0.1953125 6.0546875 0 8 C-0.66 8.66 -1.32 9.32 -2 10 C-4.31 7.36 -6.62 4.72 -9 2 C-8.34 1.67 -7.68 1.34 -7 1 C-6.01 1.66 -5.02 2.32 -4 3 C-3.525625 2.505 -3.05125 2.01 -2.5625 1.5 C-1 0 -1 0 0 0 Z " fill="#C51617" transform="translate(201,217)"/>
<path d="M0 0 C7.92 0 15.84 0 24 0 C24 0.33 24 0.66 24 1 C15.585 1.495 15.585 1.495 7 2 C6.67 2.99 6.34 3.98 6 5 C4 4 2 3 0 2 C0 1.34 0 0.68 0 0 Z " fill="#FDE0DB" transform="translate(218,196)"/>
<path d="M0 0 C4.15151338 1.44202476 7.29978445 3.5010438 10.8125 6.125 C11.78832031 6.84945312 12.76414062 7.57390625 13.76953125 8.3203125 C14.50558594 8.87460938 15.24164063 9.42890625 16 10 C12.84150454 11.05283182 11.969245 11.29904469 9 10 C8.54625 9.21625 8.0925 8.4325 7.625 7.625 C5.58854018 4.33533414 3.507183 3.4808106 0 2 C0 1.34 0 0.68 0 0 Z " fill="#810808" transform="translate(370,69)"/>
<path d="M0 0 C1.65 0 3.3 0 5 0 C4.01 0.495 4.01 0.495 3 1 C1.86649466 3.01669827 1.86649466 3.01669827 1 5 C0.34 5 -0.32 5 -1 5 C-1.33 5.99 -1.66 6.98 -2 8 C-2.66 8 -3.32 8 -4 8 C-4.66 9.32 -5.32 10.64 -6 12 C-6.66 12 -7.32 12 -8 12 C-8.33 12.66 -8.66 13.32 -9 14 C-9 12.68 -9 11.36 -9 10 C-8.01 9.67 -7.02 9.34 -6 9 C-5.67 8.01 -5.34 7.02 -5 6 C-2.4375 4.8125 -2.4375 4.8125 0 4 C0 2.68 0 1.36 0 0 Z " fill="#7E0709" transform="translate(406,397)"/>
<path d="M0 0 C0.33 1.32 0.66 2.64 1 4 C0.01 4.495 0.01 4.495 -1 5 C-1.680625 6.7325 -1.680625 6.7325 -2.375 8.5 C-4 12 -4 12 -6.1875 12.9375 C-6.785625 12.958125 -7.38375 12.97875 -8 13 C-6.40956621 7.91061189 -3.2553049 4.12543357 0 0 Z " fill="#99080A" transform="translate(77,117)"/>
<path d="M0 0 C0.99 0 1.98 0 3 0 C1.53012914 6.14673271 -1.05966587 11.42234327 -4 17 C-5.09658936 13.71023192 -4.79953138 12.28696233 -4 9 C-3.34 9 -2.68 9 -2 9 C-2 7.68 -2 6.36 -2 5 C-1.34 5 -0.68 5 0 5 C0 3.35 0 1.7 0 0 Z " fill="#8A0709" transform="translate(449,331)"/>
<path d="M0 0 C0.33 0 0.66 0 1 0 C1 2.64 1 5.28 1 8 C1.66 8 2.32 8 3 8 C3.84681133 13.08086796 4.09038099 17.84828377 4 23 C3.67 23 3.34 23 3 23 C0.95062675 15.21726112 -0.49155247 8.06510168 0 0 Z " fill="#920A0B" transform="translate(36,283)"/>
<path d="M0 0 C3.2826932 1.49076434 5.93077441 3.38620321 8.75 5.625 C9.94882812 6.57246094 9.94882812 6.57246094 11.171875 7.5390625 C11.77515625 8.02117187 12.3784375 8.50328125 13 9 C12.34 9.66 11.68 10.32 11 11 C10.67 10.34 10.34 9.68 10 9 C8.02111039 8.27306096 6.02045442 7.60183749 4 7 C4 6.34 4 5.68 4 5 C2.68 5 1.36 5 0 5 C0 3.35 0 1.7 0 0 Z " fill="#C12524" transform="translate(252,225)"/>
<path d="M0 0 C4.51478398 0.53115106 7.34666857 2.36620292 11 5 C9.7508258 8.45925163 8.32472205 11.14693203 6 14 C6.33 11.03 6.66 8.06 7 5 C3.535 3.02 3.535 3.02 0 1 C0 0.67 0 0.34 0 0 Z " fill="#BD1E21" transform="translate(159,220)"/>
<path d="M0 0 C-5.3534215 3.37498312 -10.75086092 5.77759071 -17 7 C-17.66 6.67 -18.32 6.34 -19 6 C-16.58967749 4.79783666 -14.17316521 3.61325022 -11.75 2.4375 C-11.06808594 2.09525391 -10.38617188 1.75300781 -9.68359375 1.40039062 C-5.97831091 -0.38030356 -3.92128522 -1.3058334 0 0 Z " fill="#760709" transform="translate(175,47)"/>
<path d="M0 0 C0.99 0 1.98 0 3 0 C3 0.66 3 1.32 3 2 C1.1015625 3.7265625 1.1015625 3.7265625 -1.375 5.625 C-2.59316406 6.57246094 -2.59316406 6.57246094 -3.8359375 7.5390625 C-6 9 -6 9 -8 9 C-6.375 3.25 -6.375 3.25 -3 1 C-2.01 1.33 -1.02 1.66 0 2 C0 1.34 0 0.68 0 0 Z " fill="#950708" transform="translate(393,411)"/>
<path d="M0 0 C3 1 3 1 4 3 C4.99 3.33 5.98 3.66 7 4 C7.33 5.65 7.66 7.3 8 9 C8.99 9.33 9.98 9.66 11 10 C11 10.99 11 11.98 11 13 C10.34 13 9.68 13 9 13 C9 12.34 9 11.68 9 11 C8.34 11 7.68 11 7 11 C5.2734375 9.1015625 5.2734375 9.1015625 3.375 6.625 C2.42753906 5.40683594 2.42753906 5.40683594 1.4609375 4.1640625 C0 2 0 2 0 0 Z " fill="#850808" transform="translate(80,385)"/>
<path d="M0 0 C0.99 0 1.98 0 3 0 C1.42986223 5.96652354 -1.75029782 10.82909025 -5 16 C-5.33 15.01 -5.66 14.02 -6 13 C-5.04504326 11.30712215 -4.0409066 9.64142963 -3 8 C-2.30420546 5.80869466 -2.30420546 5.80869466 -2 4 C-1.34 4 -0.68 4 0 4 C0 2.68 0 1.36 0 0 Z " fill="#810809" transform="translate(441,348)"/>
<path d="M0 0 C4.21814817 3.9700218 7.61227103 8.30840284 11 13 C9.68 13 8.36 13 7 13 C5.95107762 11.36368108 4.95093297 9.69514137 4 8 C3.01 7.67 2.02 7.34 1 7 C0.67 4.69 0.34 2.38 0 0 Z " fill="#BE1E21" transform="translate(172,335)"/>
<path d="M0 0 C0.99 0.66 1.98 1.32 3 2 C0.03 5.63 -2.94 9.26 -6 13 C-6.33 11.68 -6.66 10.36 -7 9 C-6.34 9 -5.68 9 -5 9 C-5 8.01 -5 7.02 -5 6 C-4.34 6 -3.68 6 -3 6 C-2.67 5.01 -2.34 4.02 -2 3 C-1.34 2.01 -0.68 1.02 0 0 Z " fill="#C1191B" transform="translate(268,259)"/>
<path d="M0 0 C0.66 0.99 1.32 1.98 2 3 C1.2575 3.8353125 1.2575 3.8353125 0.5 4.6875 C-1.24754367 7.38162983 -1.26218749 8.85375007 -1 12 C-2.32 11.01 -3.64 10.02 -5 9 C-4.42647107 5.12867972 -2.51295648 2.91827204 0 0 Z " fill="#C42024" transform="translate(191,204)"/>
<path d="M0 0 C3.47775179 1.51553404 5.9557984 3.5773456 8.75 6.125 C9.94882812 7.21167969 9.94882812 7.21167969 11.171875 8.3203125 C11.77515625 8.87460938 12.3784375 9.42890625 13 10 C11.15625 10.62890625 11.15625 10.62890625 9 11 C5.16897047 7.83940064 2.61192443 4.1597315 0 0 Z " fill="#FAB9BA" transform="translate(305,199)"/>
<path d="M0 0 C0.66 0 1.32 0 2 0 C3.65625 1.828125 3.65625 1.828125 5.5 4.25 C6.41265625 5.43335937 6.41265625 5.43335937 7.34375 6.640625 C8.79739033 8.71137679 9.94765743 10.7058932 11 13 C9.82780457 12.21654285 8.66236332 11.42297164 7.5 10.625 C6.8503125 10.18414062 6.200625 9.74328125 5.53125 9.2890625 C5.0259375 8.86367187 4.520625 8.43828125 4 8 C4 7.34 4 6.68 4 6 C3.01 6 2.02 6 1 6 C0.67 4.02 0.34 2.04 0 0 Z " fill="#880709" transform="translate(411,104)"/>
<path d="M0 0 C0.66 0 1.32 0 2 0 C1.67 2.97 1.34 5.94 1 9 C-1.64752004 6.42215154 -3.94432065 4.08351902 -6 1 C-4.7934375 1.0309375 -4.7934375 1.0309375 -3.5625 1.0625 C-1.06645115 1.29633621 -1.06645115 1.29633621 0 0 Z " fill="#C51A1B" transform="translate(220,241)"/>
<path d="M0 0 C2.88437779 1.29299694 4.87219421 2.65941363 7 5 C6.01 5.33 5.02 5.66 4 6 C4 5.34 4 4.68 4 4 C2.68 4 1.36 4 0 4 C-0.33 6.97 -0.66 9.94 -1 13 C-1.33 13 -1.66 13 -2 13 C-2.16682272 8.07872966 -2.24828052 4.49656104 0 0 Z " fill="#BC2323" transform="translate(177,232)"/>
<path d="M0 0 C4.75481646 0.57634139 7.97048212 2.55068521 12 5 C12 5.66 12 6.32 12 7 C13.32 7.33 14.64 7.66 16 8 C15.01 8.495 15.01 8.495 14 9 C11.50390625 7.890625 11.50390625 7.890625 8.5625 6.25 C7.59441406 5.71890625 6.62632812 5.1878125 5.62890625 4.640625 C3.38617759 3.24100236 1.74287161 1.96146907 0 0 Z " fill="#7C0707" transform="translate(136,435)"/>
<path d="M0 0 C1.5625 1.25 1.5625 1.25 3 3 C3 7.17962468 -0.38800114 10.05312949 -3 13 C-3.33 12.01 -3.66 11.02 -4 10 C-3.34 10 -2.68 10 -2 10 C-2 8.35 -2 6.7 -2 5 C-1.34 4.67 -0.68 4.34 0 4 C0 2.68 0 1.36 0 0 Z " fill="#C02528" transform="translate(311,207)"/>
<path d="M0 0 C1.65 0 3.3 0 5 0 C5.94137255 2.82411765 6.11725382 4.52918032 6.09765625 7.44921875 C6.09282227 8.72055664 6.09282227 8.72055664 6.08789062 10.01757812 C6.07951172 10.89865234 6.07113281 11.77972656 6.0625 12.6875 C6.05798828 13.58017578 6.05347656 14.47285156 6.04882812 15.39257812 C6.03704983 17.59511987 6.02060164 19.79752599 6 22 C5.67 22 5.34 22 5 22 C4.96132812 20.12054688 4.96132812 20.12054688 4.921875 18.203125 C4.86558831 16.55204877 4.8082411 14.90100845 4.75 13.25 C4.73582031 12.425 4.72164062 11.6 4.70703125 10.75 C4.53289188 5.6888713 4.53289188 5.6888713 1.953125 1.421875 C1.30859375 0.95265625 0.6640625 0.4834375 0 0 Z " fill="#CA3A3A" transform="translate(213,155)"/>
<path d="M0 0 C4.5565527 3.71274665 6.57400393 8.79007402 9 14 C8.01 14.495 8.01 14.495 7 15 C7 14.01 7 13.02 7 12 C6.01 11.67 5.02 11.34 4 11 C0 4.94285714 0 4.94285714 0 0 Z " fill="#830808" transform="translate(435,136)"/>
<path d="M0 0 C0.99 0.66 1.98 1.32 3 2 C-1.625 5 -1.625 5 -5 5 C-5.33 5.99 -5.66 6.98 -6 8 C-7.32 7.67 -8.64 7.34 -10 7 C-6.7 4.69 -3.4 2.38 0 0 Z " fill="#C51E25" transform="translate(273,274)"/>
<path d="M0 0 C4 2 4 2 6 5 C5.360625 5.226875 4.72125 5.45375 4.0625 5.6875 C1.72806339 6.85250896 1.72806339 6.85250896 1.25 9.625 C1.1675 10.40875 1.085 11.1925 1 12 C0.67 12 0.34 12 0 12 C0 8.04 0 4.08 0 0 Z " fill="#F7BEBC" transform="translate(326,180)"/>
<path d="M0 0 C6.06860493 1.32405926 11.39763719 3.32850292 17 6 C13.44757118 7.18414294 12.30169438 6.69535532 8.8125 5.5625 C7.91144531 5.27503906 7.01039063 4.98757812 6.08203125 4.69140625 C5.39496094 4.46324219 4.70789063 4.23507813 4 4 C4 3.34 4 2.68 4 2 C2.68 1.67 1.36 1.34 0 1 C0 0.67 0 0.34 0 0 Z " fill="#760708" transform="translate(323,45)"/>
<path d="M0 0 C-1.64178265 4.77609498 -4.26546702 8.79382904 -7 13 C-7.33 11.68 -7.66 10.36 -8 9 C-7.34 9 -6.68 9 -6 9 C-6.0825 8.2575 -6.165 7.515 -6.25 6.75 C-6 4 -6 4 -4.125 1.6875 C-2 0 -2 0 0 0 Z " fill="#8C0809" transform="translate(435,364)"/>
<path d="M0 0 C0 4.71428571 0 4.71428571 -1 7 C-4.20883825 8.95320589 -6.2205439 10 -10 10 C-6.7 6.7 -3.4 3.4 0 0 Z " fill="#C12526" transform="translate(320,344)"/>
<path d="M0 0 C1.86889895 2.80334843 3.27024908 5.51277094 4.6875 8.5625 C5.14511719 9.53316406 5.60273438 10.50382812 6.07421875 11.50390625 C6.37972656 12.32761719 6.68523437 13.15132813 7 14 C6.67 14.66 6.34 15.32 6 16 C5.34 16 4.68 16 4 16 C4 14.68 4 13.36 4 12 C3.34 12 2.68 12 2 12 C0.86235649 7.73383684 0 4.43513689 0 0 Z " fill="#C02B2C" transform="translate(161,312)"/>
<path d="M0 0 C0 0.66 0 1.32 0 2 C-1.32 2.33 -2.64 2.66 -4 3 C-4 4.65 -4 6.3 -4 8 C-2.68 8.66 -1.36 9.32 0 10 C-0.99 10.66 -1.98 11.32 -3 12 C-5.0625 10.3125 -5.0625 10.3125 -7 8 C-7 5.4375 -7 5.4375 -6 3 C-2.79310345 0 -2.79310345 0 0 0 Z " fill="#C52E34" transform="translate(358,194)"/>
<path d="M0 0 C0.99 0.33 1.98 0.66 3 1 C2.67 1.99 2.34 2.98 2 4 C2 3.34 2 2.68 2 2 C1.34 2 0.68 2 0 2 C-0.19335938 2.63808594 -0.38671875 3.27617188 -0.5859375 3.93359375 C-0.84632813 4.75988281 -1.10671875 5.58617188 -1.375 6.4375 C-1.75785156 7.67306641 -1.75785156 7.67306641 -2.1484375 8.93359375 C-3 11 -3 11 -5 12 C-5 10.35 -5 8.7 -5 7 C-4.34 7 -3.68 7 -3 7 C-2.87625 6.030625 -2.7525 5.06125 -2.625 4.0625 C-2.41875 3.051875 -2.2125 2.04125 -2 1 C-1.34 0.67 -0.68 0.34 0 0 Z " fill="#C01D1F" transform="translate(292,122)"/>
<path d="M0 0 C1.31534494 3.65857532 0.65468309 6.08026481 -0.4375 9.75 C-0.86869141 11.22726563 -0.86869141 11.22726563 -1.30859375 12.734375 C-1.53675781 13.48203125 -1.76492187 14.2296875 -2 15 C-2.66 15 -3.32 15 -4 15 C-3.43179252 9.54520815 -2.05362055 5.08940744 0 0 Z " fill="#7B080A" transform="translate(45,175)"/>
<path d="M0 0 C5.852795 0.51482919 11.3297637 1.45357192 17 3 C17 3.33 17 3.66 17 4 C15.52093108 4.02689216 14.04172517 4.04634621 12.5625 4.0625 C11.32693359 4.07990234 11.32693359 4.07990234 10.06640625 4.09765625 C8 4 8 4 7 3 C4.67182036 2.63239269 2.3381615 2.29758419 0 2 C0 1.34 0 0.68 0 0 Z " fill="#BC1B1B" transform="translate(221,373)"/>
<path d="M0 0 C5.46864457 1.01591421 10.76390013 2.07091057 16 4 C16 4.33 16 4.66 16 5 C9.375 5.25 9.375 5.25 6 3 C4.0103005 2.60986284 2.00980131 2.26797351 0 2 C0 1.34 0 0.68 0 0 Z " fill="#790608" transform="translate(307,40)"/>
<path d="M0 0 C0.66 0.33 1.32 0.66 2 1 C0.02 3.31 -1.96 5.62 -4 8 C-5.32 7.67 -6.64 7.34 -8 7 C-5.36 4.69 -2.72 2.38 0 0 Z " fill="#C72628" transform="translate(276,201)"/>
<path d="M0 0 C0.99 0.99 1.98 1.98 3 3 C1.54744301 6.82946843 -0.42895561 8.12050295 -4 10 C-4.33 9.01 -4.66 8.02 -5 7 C-3.35 6.67 -1.7 6.34 0 6 C0 4.02 0 2.04 0 0 Z " fill="#BE2626" transform="translate(147,197)"/>
<path d="M0 0 C0.66 0 1.32 0 2 0 C2 1.65 2 3.3 2 5 C1.34 5 0.68 5 0 5 C0 6.65 0 8.3 0 10 C-0.33 9.34 -0.66 8.68 -1 8 C-1.99 7.67 -2.98 7.34 -4 7 C-3.525625 6.21625 -3.05125 5.4325 -2.5625 4.625 C-1.66101977 3.11051322 -0.78820515 1.5764103 0 0 Z " fill="#C91514" transform="translate(196,196)"/>
<path d="M0 0 C0.66 0.33 1.32 0.66 2 1 C0.02 3.31 -1.96 5.62 -4 8 C-5.32 7.67 -6.64 7.34 -8 7 C-5.36 4.69 -2.72 2.38 0 0 Z " fill="#FAD1CE" transform="translate(347,182)"/>
<path d="M0 0 C0.66 0.33 1.32 0.66 2 1 C-3.625 5.875 -3.625 5.875 -7 7 C-7.66 6.34 -8.32 5.68 -9 5 C-3.375 1.125 -3.375 1.125 0 0 Z " fill="#F7C7C4" transform="translate(361,174)"/>
<path d="M0 0 C2.0703125 0.4609375 2.0703125 0.4609375 6.0703125 4.4609375 C1.4503125 3.8009375 -3.1696875 3.1409375 -7.9296875 2.4609375 C-5.36890985 -0.09984015 -3.50086147 0.14642386 0 0 Z " fill="#C12928" transform="translate(371.9296875,170.5390625)"/>
<path d="M0 0 C1.03274898 2.68514734 1.07566569 3.7921588 0.07421875 6.54296875 C-0.38339844 7.41566406 -0.84101562 8.28835937 -1.3125 9.1875 C-1.76238281 10.06792969 -2.21226563 10.94835937 -2.67578125 11.85546875 C-4 14 -4 14 -6 15 C-4.36041242 9.76727367 -2.61047965 4.84803364 0 0 Z " fill="#820809" transform="translate(55,152)"/>
<path d="M0 0 C0.99 0.33 1.98 0.66 3 1 C3 1.66 3 2.32 3 3 C3.66 3 4.32 3 5 3 C5 3.66 5 4.32 5 5 C6.32 5.66 7.64 6.32 9 7 C8.67 7.66 8.34 8.32 8 9 C6.68 8.34 5.36 7.68 4 7 C4 6.34 4 5.68 4 5 C3.01 5 2.02 5 1 5 C0.67 3.35 0.34 1.7 0 0 Z " fill="#810807" transform="translate(393,86)"/>
<path d="M0 0 C0 3.99191204 -1.25498212 5.18079244 -4 8 C-6.75 8.8125 -6.75 8.8125 -9 9 C-6.31941902 5.42589203 -3.57410797 2.68058098 0 0 Z " fill="#C11F24" transform="translate(313,239)"/>
<path d="M0 0 C0.33 0 0.66 0 1 0 C1 1.65 1 3.3 1 5 C1.99 5.33 2.98 5.66 4 6 C2.35 7.32 0.7 8.64 -1 10 C-2.31223496 6.06329512 -1.24296256 3.87511856 0 0 Z " fill="#FAC1BE" transform="translate(232,228)"/>
<path d="M0 0 C2 3 2 3 2 4.9375 C0.47841502 8.07576903 -2.0691916 9.25398648 -5 11 C-5 9.35 -5 7.7 -5 6 C-3.35 6 -1.7 6 0 6 C0 4.02 0 2.04 0 0 Z " fill="#C22527" transform="translate(287,148)"/>
<path d="M0 0 C5.09448798 0.43173627 8.84512277 0.75400216 13 4 C13 4.66 13 5.32 13 6 C8.31479085 4.78184562 4.29456388 3.30440013 0 1 C0 0.67 0 0.34 0 0 Z " fill="#8A0809" transform="translate(156,446)"/>
<path d="M0 0 C3.96 0 7.92 0 12 0 C12 0.66 12 1.32 12 2 C12.66 2.33 13.32 2.66 14 3 C13.01 3.33 12.02 3.66 11 4 C10.67 4.66 10.34 5.32 10 6 C9.67 4.68 9.34 3.36 9 2 C6.03 1.67 3.06 1.34 0 1 C0 0.67 0 0.34 0 0 Z " fill="#CE3636" transform="translate(289,309)"/>
<path d="M0 0 C0.96661363 3.12180401 0.98988909 5.52083795 0.5625 8.75 C0.40974609 9.94882813 0.40974609 9.94882813 0.25390625 11.171875 C0.12822266 12.07679688 0.12822266 12.07679688 0 13 C-0.99 13.33 -1.98 13.66 -3 14 C-2.40380045 9.13103697 -1.43023178 4.67209049 0 0 Z " fill="#F5C2BC" transform="translate(161,243)"/>
<path d="M0 0 C0.66 0.33 1.32 0.66 2 1 C-3.0940919 7.70459519 -3.0940919 7.70459519 -6.875 8.9375 C-7.57625 8.958125 -8.2775 8.97875 -9 9 C-6 6 -3 3 0 0 Z " fill="#C32D30" transform="translate(243,227)"/>
<path d="M0 0 C0.6875 1.6875 0.6875 1.6875 1 4 C-0.3125 6.75 -0.3125 6.75 -2 9 C-2.66 9 -3.32 9 -4 9 C-4 9.99 -4 10.98 -4 12 C-4.66 12 -5.32 12 -6 12 C-4.43358249 7.69235185 -2.31663844 3.93828536 0 0 Z " fill="#720607" transform="translate(62,139)"/>
<path d="M0 0 C1.32 0 2.64 0 4 0 C9 5.22727273 9 5.22727273 9 8 C8.34 8 7.68 8 7 8 C7 7.34 7 6.68 7 6 C6.34 6 5.68 6 5 6 C5 5.34 5 4.68 5 4 C4.34 4 3.68 4 3 4 C3 3.34 3 2.68 3 2 C2.01 1.67 1.02 1.34 0 1 C0 0.67 0 0.34 0 0 Z " fill="#7D0707" transform="translate(95,403)"/>
<path d="M0 0 C1.32 0.66 2.64 1.32 4 2 C3.34 3.32 2.68 4.64 2 6 C-2.875 3.25 -2.875 3.25 -4 1 C-2.68 1.33 -1.36 1.66 0 2 C0 1.34 0 0.68 0 0 Z " fill="#CA1F24" transform="translate(372,216)"/>
<path d="M0 0 C0.99 0.33 1.98 0.66 3 1 C2.8125 3.3125 2.8125 3.3125 2 6 C-0.4375 7.875 -0.4375 7.875 -3 9 C-3.66 8.67 -4.32 8.34 -5 8 C-4.175 7.4225 -3.35 6.845 -2.5 6.25 C-1.675 5.5075 -0.85 4.765 0 4 C0 2.68 0 1.36 0 0 Z " fill="#FAD1CE" transform="translate(288,150)"/>
<path d="M0 0 C1.98 0.99 1.98 0.99 4 2 C4.17942163 5.94727588 4.09350689 8.5980513 2 12 C1.34 12 0.68 12 0 12 C0.37125 10.948125 0.7425 9.89625 1.125 8.8125 C2.04276246 4.81367786 1.91384609 3.50871784 0 0 Z " fill="#C32E30" transform="translate(213,136)"/>
<path d="M0 0 C1.32 0.33 2.64 0.66 4 1 C4.33 4.3 4.66 7.6 5 11 C2.09591658 7.12788877 1.14920536 4.59682146 0 0 Z " fill="#BF2122" transform="translate(179,282)"/>
<path d="M0 0 C0.33 0.66 0.66 1.32 1 2 C-0.25 4.625 -0.25 4.625 -2 7 C-2.99 7 -3.98 7 -5 7 C-5 7.66 -5 8.32 -5 9 C-5.66 9 -6.32 9 -7 9 C-5.44499019 5.18315774 -2.96404505 2.80804268 0 0 Z " fill="#FBD3D1" transform="translate(306,221)"/>
<path d="M0 0 C0.66 0.33 1.32 0.66 2 1 C-1.33562767 5.51290803 -3.33289301 7.68206814 -9 9 C-6 6 -3 3 0 0 Z " fill="#F59691" transform="translate(194,198)"/>
<path d="M0 0 C2.0625 0.4375 2.0625 0.4375 4 1 C3.21625 1.598125 2.4325 2.19625 1.625 2.8125 C-1.14574323 4.91085249 -1.14574323 4.91085249 -3 8 C-3.99 7.67 -4.98 7.34 -6 7 C-5.01 6.67 -4.02 6.34 -3 6 C-1.84478498 3.52869082 -1.84478498 3.52869082 -1 1 C-0.67 0.67 -0.34 0.34 0 0 Z " fill="#C12A2D" transform="translate(187,201)"/>
<path d="M0 0 C1.98 0.99 1.98 0.99 4 2 C3.01 2.33 2.02 2.66 1 3 C1 7.29 1 11.58 1 16 C0.67 16 0.34 16 0 16 C0 10.72 0 5.44 0 0 Z " fill="#B5181A" transform="translate(298,173)"/>
<path d="M0 0 C0.66 0.66 1.32 1.32 2 2 C1.7831713 6.87864583 0.25135812 9.43399432 -3 13 C-2.343621 8.51474352 -1.29925791 4.33085971 0 0 Z " fill="#F9C6C1" transform="translate(300,138)"/>
<path d="M0 0 C0.99 0 1.98 0 3 0 C3.53190541 1.43344 4.05015258 2.87195367 4.5625 4.3125 C4.85253906 5.11300781 5.14257812 5.91351563 5.44140625 6.73828125 C6 9 6 9 5 12 C4.16440201 10.18854294 3.33157951 8.37580533 2.5 6.5625 C2.0359375 5.55316406 1.571875 4.54382813 1.09375 3.50390625 C0 1 0 1 0 0 Z " fill="#BC1D1F" transform="translate(295,126)"/>
<path d="M0 0 C0 0.66 0 1.32 0 2 C-2.75 4.1875 -2.75 4.1875 -6 6 C-8.203125 5.61328125 -8.203125 5.61328125 -10 5 C-8.71186658 4.16121545 -7.41936744 3.32913217 -6.125 2.5 C-5.40570313 2.0359375 -4.68640625 1.571875 -3.9453125 1.09375 C-2 0 -2 0 0 0 Z " fill="#850607" transform="translate(146,59)"/>
<path d="M0 0 C9.41002278 0.96355353 9.41002278 0.96355353 14 2 C14 2.33 14 2.66 14 3 C4.58997722 3.3690205 4.58997722 3.3690205 0 1 C0 0.67 0 0.34 0 0 Z " fill="#7D0909" transform="translate(293,37)"/>
<path d="M0 0 C2.97 0 5.94 0 9 0 C9 0.66 9 1.32 9 2 C9.66 2.33 10.32 2.66 11 3 C8.69 3.33 6.38 3.66 4 4 C4 3.34 4 2.68 4 2 C2.68 1.34 1.36 0.68 0 0 Z " fill="#AE0808" transform="translate(284,36)"/>
<path d="M0 0 C3.66881155 0.70554068 6.70450534 2.27735506 10 4 C7.45297384 5.27351308 6.5717055 4.80191925 3.875 4.0625 C3.15054688 3.86785156 2.42609375 3.67320312 1.6796875 3.47265625 C1.12539062 3.31667969 0.57109375 3.16070312 0 3 C0 2.01 0 1.02 0 0 Z " fill="#930A0B" transform="translate(183,455)"/>
<path d="M0 0 C1.18414294 3.55242882 0.69535532 4.69830562 -0.4375 8.1875 C-0.72496094 9.08855469 -1.01242187 9.98960937 -1.30859375 10.91796875 C-1.53675781 11.60503906 -1.76492188 12.29210937 -2 13 C-2.33 13 -2.66 13 -3 13 C-3.31563182 7.73946963 -2.66590937 4.55426184 0 0 Z " fill="#7C0808" transform="translate(458,310)"/>
<path d="M0 0 C3.36591866 1.44253657 5.51047079 3.33264727 8 6 C7.01 6.495 7.01 6.495 6 7 C6 6.34 6 5.68 6 5 C4.02 5 2.04 5 0 5 C0 3.35 0 1.7 0 0 Z " fill="#BF2222" transform="translate(225,273)"/>
<path d="M0 0 C4.455 0.99 4.455 0.99 9 2 C8.67 3.65 8.34 5.3 8 7 C6.66382648 6.02471263 5.3311249 5.04466681 4 4.0625 C3.2575 3.51722656 2.515 2.97195312 1.75 2.41015625 C1.1725 1.94480469 0.595 1.47945312 0 1 C0 0.67 0 0.34 0 0 Z " fill="#C01A1C" transform="translate(356,206)"/>
<path d="M0 0 C3.33717549 1.3809002 5.22301036 2.8201238 7 6 C6.6875 8.25 6.6875 8.25 6 10 C5 8 4 6 3 4 C2.01 3.67 1.02 3.34 0 3 C0 2.01 0 1.02 0 0 Z " fill="#FDD3D0" transform="translate(380,177)"/>
<path d="M0 0 C3.0831351 1.19899698 6.06279492 2.47700477 9 4 C9 4.66 9 5.32 9 6 C3.50847458 5.38983051 3.50847458 5.38983051 1.125 3.5625 C0 2 0 2 0 0 Z " fill="#83080A" transform="translate(361,63)"/>
<path d="M0 0 C0.33 1.32 0.66 2.64 1 4 C0.01 4.495 0.01 4.495 -1 5 C-1.65213292 7.02463255 -1.65213292 7.02463255 -2 9 C-3.32 8.67 -4.64 8.34 -6 8 C-4.02 5.36 -2.04 2.72 0 0 Z " fill="#C83D41" transform="translate(327,334)"/>
<path d="M0 0 C0.33 0 0.66 0 1 0 C1 2.64 1 5.28 1 8 C-0.32 8.33 -1.64 8.66 -3 9 C-2.01 6.03 -1.02 3.06 0 0 Z " fill="#C82E2E" transform="translate(339,310)"/>
<path d="M0 0 C3.74633486 1.24877829 5.41041797 3.06047445 8 6 C8 6.99 8 7.98 8 9 C1.95057034 4.25855513 1.95057034 4.25855513 0 2 C0 1.34 0 0.68 0 0 Z " fill="#C11D23" transform="translate(193,245)"/>
<path d="M0 0 C2.9375 0.8125 2.9375 0.8125 6 2 C6.33 2.99 6.66 3.98 7 5 C7.66 5.33 8.32 5.66 9 6 C8.67 6.66 8.34 7.32 8 8 C7.01 7.34 6.02 6.68 5 6 C5 5.34 5 4.68 5 4 C4.360625 3.71125 3.72125 3.4225 3.0625 3.125 C1 2 1 2 0 0 Z " fill="#F7CAC4" transform="translate(191,242)"/>
<path d="M0 0 C0.66 0.33 1.32 0.66 2 1 C2 2.98 2 4.96 2 7 C-1 8 -1 8 -4 7 C-3.67 5.68 -3.34 4.36 -3 3 C-1.515 3.99 -1.515 3.99 0 5 C0 3.35 0 1.7 0 0 Z " fill="#C22021" transform="translate(269,232)"/>
<path d="M0 0 C0.99 0.33 1.98 0.66 3 1 C1.02 1.99 1.02 1.99 -1 3 C-1 3.66 -1 4.32 -1 5 C-2.98 5.99 -2.98 5.99 -5 7 C-5 5.68 -5 4.36 -5 3 C-3.35 2.67 -1.7 2.34 0 2 C0 1.34 0 0.68 0 0 Z " fill="#FDDED9" transform="translate(318,232)"/>
<path d="M0 0 C3.63 0 7.26 0 11 0 C10.67 0.99 10.34 1.98 10 3 C3.375 2.25 3.375 2.25 0 0 Z " fill="#C11718" transform="translate(364,222)"/>
<path d="M0 0 C0 3.69418201 -1.28179295 5.77836178 -3 9 C-3.33 8.01 -3.66 7.02 -4 6 C-4.99 5.67 -5.98 5.34 -7 5 C-4.69 3.35 -2.38 1.7 0 0 Z " fill="#FEDBD9" transform="translate(189,204)"/>
<path d="M0 0 C0.33 0.99 0.66 1.98 1 3 C-0.98 4.98 -2.96 6.96 -5 9 C-5.99 8.67 -6.98 8.34 -8 8 C-7.50628906 7.59007812 -7.01257813 7.18015625 -6.50390625 6.7578125 C-5.86324219 6.21898437 -5.22257813 5.68015625 -4.5625 5.125 C-3.92441406 4.59132812 -3.28632813 4.05765625 -2.62890625 3.5078125 C-0.89194996 2.0777243 -0.89194996 2.0777243 0 0 Z " fill="#F9CFCD" transform="translate(150,200)"/>
<path d="M0 0 C0.66 0 1.32 0 2 0 C2.25 2.75 2.25 2.75 2 6 C0 8.375 0 8.375 -2 10 C-2.33 9.34 -2.66 8.68 -3 8 C-2.505 7.4225 -2.01 6.845 -1.5 6.25 C0.36980013 3.89599371 0.36980013 3.89599371 0 0 Z " fill="#C63438" transform="translate(386,182)"/>
<path d="M0 0 C-2.83430453 3.2542015 -4.68607774 4.5206753 -9 5 C-9 4.34 -9 3.68 -9 3 C-8.34 3 -7.68 3 -7 3 C-6.67 2.01 -6.34 1.02 -6 0 C-3 -1 -3 -1 0 0 Z " fill="#9A0605" transform="translate(91,107)"/>
<path d="M0 0 C0.66 0.33 1.32 0.66 2 1 C0.8125 3.4375 0.8125 3.4375 -1 6 C-3.6875 6.8125 -3.6875 6.8125 -6 7 C-6 6.34 -6 5.68 -6 5 C-5.34 5 -4.68 5 -4 5 C-4 4.34 -4 3.68 -4 3 C-2 1.375 -2 1.375 0 0 Z " fill="#710503" transform="translate(110,82)"/>
<path d="M0 0 C1.98 0 3.96 0 6 0 C5.34 1.32 4.68 2.64 4 4 C2.68 3.67 1.36 3.34 0 3 C0 2.01 0 1.02 0 0 Z " fill="#FDEAE7" transform="translate(274,197)"/>
<path d="M0 0 C3.68754757 0.49831724 5.60490662 1.10067643 8 4 C4.37673261 5.2077558 3.35853631 4.54311128 0 3 C0 2.01 0 1.02 0 0 Z " fill="#BF1A1F" transform="translate(139,193)"/>
<path d="M0 0 C1.98 0 3.96 0 6 0 C3.63707344 2.52588702 2.33537489 3.88820837 -1 5 C-0.67 3.35 -0.34 1.7 0 0 Z " fill="#BE1817" transform="translate(343,181)"/>
<path d="M0 0 C1 3 1 3 0.125 5.0625 C-0.24625 5.701875 -0.6175 6.34125 -1 7 C-1.33 7.66 -1.66 8.32 -2 9 C-2.66 8.34 -3.32 7.68 -4 7 C-3.68134222 3.70720291 -2.45484649 2.13464912 0 0 Z " fill="#FBC9C7" transform="translate(117,179)"/>
<path d="M0 0 C0.66 0 1.32 0 2 0 C5 5.75 5 5.75 5 8 C4.34 8 3.68 8 3 8 C3 6.68 3 5.36 3 4 C1.68 4 0.36 4 -1 4 C-0.67 2.68 -0.34 1.36 0 0 Z " fill="#F6B7B3" transform="translate(292,124)"/>
<path d="M0 0 C-1.36983503 3.16115776 -1.9890638 3.9927092 -5 6 C-5 4.35 -5 2.7 -5 1 C-3 0 -3 0 0 0 Z " fill="#940809" transform="translate(416,390)"/>
<path d="M0 0 C0 4.0333534 -1.60879918 5.83517538 -4 9 C-4.66 9 -5.32 9 -6 9 C-4.47291037 5.56404834 -2.40072955 2.88087546 0 0 Z " fill="#F8C4C0" transform="translate(269,262)"/>
<path d="M0 0 C2.475 0.495 2.475 0.495 5 1 C5.33 2.98 5.66 4.96 6 7 C1.125 2.25 1.125 2.25 0 0 Z " fill="#C02627" transform="translate(223,252)"/>
<path d="M0 0 C0.66 0.66 1.32 1.32 2 2 C1.68134222 5.29279709 0.45484649 6.86535088 -2 9 C-2 7.35 -2 5.7 -2 4 C-1.34 4 -0.68 4 0 4 C0 2.68 0 1.36 0 0 Z " fill="#C12125" transform="translate(323,196)"/>
<path d="M0 0 C0.66 0 1.32 0 2 0 C2.33 2.97 2.66 5.94 3 9 C2.67 9 2.34 9 2 9 C2 7.35 2 5.7 2 4 C1.01 4.33 0.02 4.66 -1 5 C-0.67 3.35 -0.34 1.7 0 0 Z " fill="#CB282D" transform="translate(172,177)"/>
<path d="M0 0 C0.66 0 1.32 0 2 0 C0.52307692 6.64615385 0.52307692 6.64615385 -2.125 8.4375 C-2.74375 8.623125 -3.3625 8.80875 -4 9 C-2.80100302 5.9168649 -1.52299523 2.93720508 0 0 Z " fill="#810709" transform="translate(67,130)"/>
<path d="M0 0 C0.66 0 1.32 0 2 0 C0.84414715 3.91211733 -0.35534962 6.8745041 -3 10 C-3.3636198 5.75776898 -2.5393228 3.41831915 0 0 Z " fill="#BE2023" transform="translate(204,124)"/>
<path d="M0 0 C0.66 0.33 1.32 0.66 2 1 C1.67 1.66 1.34 2.32 1 3 C0.34 3 -0.32 3 -1 3 C-1 3.66 -1 4.32 -1 5 C-2.65 5 -4.3 5 -6 5 C-4.06745228 2.9754262 -2.36841312 1.57894208 0 0 Z " fill="#D1484B" transform="translate(294,364)"/>
<path d="M0 0 C0.66 0 1.32 0 2 0 C1.67 0.99 1.34 1.98 1 3 C0.01 3 -0.98 3 -2 3 C-2 3.66 -2 4.32 -2 5 C-3.32 4.67 -4.64 4.34 -6 4 C-6 3.34 -6 2.68 -6 2 C-4.02 2 -2.04 2 0 2 C0 1.34 0 0.68 0 0 Z " fill="#C81E21" transform="translate(222,322)"/>
<path d="M0 0 C-0.66 1.98 -1.32 3.96 -2 6 C-2.66 6 -3.32 6 -4 6 C-4.33 4.68 -4.66 3.36 -5 2 C-2 0 -2 0 0 0 Z " fill="#BD1315" transform="translate(321,282)"/>
<path d="M0 0 C2.46800047 1.15173355 4.04783565 2.04783565 6 4 C3.92446352 4.5534764 2.15634036 5 0 5 C0 3.35 0 1.7 0 0 Z " fill="#C11A1B" transform="translate(252,225)"/>
<path d="M0 0 C1.32 0.33 2.64 0.66 4 1 C1.03 3.475 1.03 3.475 -2 6 C-2 4.68 -2 3.36 -2 2 C-1.34 2 -0.68 2 0 2 C0 1.34 0 0.68 0 0 Z " fill="#C22E2F" transform="translate(135,211)"/>
<path d="M0 0 C0.66 0 1.32 0 2 0 C2 2.97 2 5.94 2 9 C1.67 9 1.34 9 1 9 C1 7.02 1 5.04 1 3 C-0.32 3.33 -1.64 3.66 -3 4 C-1.625 2 -1.625 2 0 0 Z " fill="#B91C1D" transform="translate(200,173)"/>
<path d="M0 0 C2.31 1.98 4.62 3.96 7 6 C6.01 6.495 6.01 6.495 5 7 C2.875 6.0625 2.875 6.0625 1 5 C1 4.34 1 3.68 1 3 C0.34 3 -0.32 3 -1 3 C-0.67 2.01 -0.34 1.02 0 0 Z " fill="#FCDCD7" transform="translate(210,152)"/>
<path d="M0 0 C0.66 0 1.32 0 2 0 C1.85892253 1.45880109 1.71197585 2.91703551 1.5625 4.375 C1.48128906 5.18710938 1.40007812 5.99921875 1.31640625 6.8359375 C1 9 1 9 0 11 C-1 10 -1 10 -1.1328125 7.96875 C-1.13023437 7.1540625 -1.12765625 6.339375 -1.125 5.5 C-1.12757813 4.6853125 -1.13015625 3.870625 -1.1328125 3.03125 C-1 1 -1 1 0 0 Z " fill="#C73136" transform="translate(285,135)"/>
<path d="M0 0 C0.99 0 1.98 0 3 0 C3.33 1.98 3.66 3.96 4 6 C3.01 6.495 3.01 6.495 2 7 C0.5393715 4.35261084 0 3.10551666 0 0 Z " fill="#BD1918" transform="translate(209,126)"/>
<path d="M0 0 C0.33 1.32 0.66 2.64 1 4 C-0.98 5.32 -2.96 6.64 -5 8 C-3.8141763 4.62496331 -2.72426311 2.35277269 0 0 Z " fill="#6F0407" transform="translate(77,117)"/>
<path d="M0 0 C0.99 0.33 1.98 0.66 3 1 C3.33333333 2.33333333 3.66666667 3.66666667 4 5 C4.99 5.33 5.98 5.66 7 6 C5 7 5 7 2.9375 6.375 C1 5 1 5 0.25 2.375 C0.1675 1.59125 0.085 0.8075 0 0 Z " fill="#BF090C" transform="translate(400,94)"/>
</svg>
