<?xml version="1.0" encoding="UTF-8"?>
<svg version="1.1" xmlns="http://www.w3.org/2000/svg" width="500" height="500">
<path d="M0 0 C0.72268066 0.01256836 1.44536133 0.02513672 2.18994141 0.03808594 C48.10283871 1.04897426 96.09667211 20.17126943 131 50 C131 50.66 131 51.32 131 52 C131.61875 52.309375 132.2375 52.61875 132.875 52.9375 C134.25 53.625 135.625 54.3125 137 55 C137 55.66 137 56.32 137 57 C137.66 57 138.32 57 139 57 C139 57.66 139 58.32 139 59 C140.32 59.66 141.64 60.32 143 61 C143 61.66 143 62.32 143 63 C143.66 63 144.32 63 145 63 C146.625 64.375 146.625 64.375 148 66 C148 66.66 148 67.32 148 68 C148.66 68 149.32 68 150 68 C150 68.66 150 69.32 150 70 C150.66 70 151.32 70 152 70 C155.20797408 73.4902758 158.07484332 77.27128269 161 81 C161.63550781 81.80566406 162.27101563 82.61132812 162.92578125 83.44140625 C167 88.72136038 167 88.72136038 167 91 C167.66 91 168.32 91 169 91 C172 95.38461538 172 95.38461538 172 98 C172.66 98 173.32 98 174 98 C175.17672733 100.10873703 176.35011791 102.21922564 177.51953125 104.33203125 C178.46822536 106.04168318 179.42338132 107.74777489 180.38671875 109.44921875 C198.61159371 142.05426902 208.8315855 176.9109737 208.52148438 214.42724609 C208.49999667 217.50047606 208.52147293 220.57136983 208.546875 223.64453125 C208.574386 242.48517072 205.9995688 260.983269 200.625 279.0625 C200.32392334 280.10140381 200.02284668 281.14030762 199.71264648 282.21069336 C194.26375104 300.61703061 185.98843531 317.645062 176 334 C175.04867187 335.57587891 175.04867187 335.57587891 174.078125 337.18359375 C170.49116168 343.00129253 170.49116168 343.00129253 169 345 C168.34 345 167.68 345 167 345 C166.71125 345.763125 166.4225 346.52625 166.125 347.3125 C165 350 165 350 163 353 C162.34 353 161.68 353 161 353 C160.7421875 353.56203125 160.484375 354.1240625 160.21875 354.703125 C158.85830223 357.26704579 157.27211038 359.45226365 155.5 361.75 C154.8915625 362.54921875 154.283125 363.3484375 153.65625 364.171875 C153.1096875 364.77515625 152.563125 365.3784375 152 366 C151.34 366 150.68 366 150 366 C150 366.66 150 367.32 150 368 C149.34 368 148.68 368 148 368 C148 368.66 148 369.32 148 370 C147.34 370 146.68 370 146 370 C145.67 370.99 145.34 371.98 145 373 C144.34 373 143.68 373 143 373 C143 373.66 143 374.32 143 375 C142.34 375 141.68 375 141 375 C141 375.66 141 376.32 141 377 C140.34 377 139.68 377 139 377 C139 377.66 139 378.32 139 379 C137.26608049 380.60634015 135.461909 382.1375287 133.625 383.625 C132.62726563 384.44226563 131.62953125 385.25953125 130.6015625 386.1015625 C128 388 128 388 126 388 C126 388.66 126 389.32 126 390 C123.97143555 391.60058594 123.97143555 391.60058594 121.13671875 393.484375 C120.10353516 394.17273438 119.07035156 394.86109375 118.00585938 395.5703125 C116.91080078 396.28960937 115.81574219 397.00890625 114.6875 397.75 C113.63498047 398.45382812 112.58246094 399.15765625 111.49804688 399.8828125 C72.77954295 425.52041879 29.24202913 437.04464089 -17 436 C-17.68465332 435.98743164 -18.36930664 435.97486328 -19.07470703 435.96191406 C-66.08118975 434.89925309 -110.57795892 416.08615295 -147 387 C-147.91523438 386.29359375 -148.83046875 385.5871875 -149.7734375 384.859375 C-150.69382812 384.14265625 -151.61421875 383.4259375 -152.5625 382.6875 C-153.83287109 381.70330078 -153.83287109 381.70330078 -155.12890625 380.69921875 C-156.05509766 379.85810547 -156.05509766 379.85810547 -157 379 C-157 378.34 -157 377.68 -157 377 C-157.66 377 -158.32 377 -159 377 C-159 376.34 -159 375.68 -159 375 C-159.66 375 -160.32 375 -161 375 C-161 374.34 -161 373.68 -161 373 C-161.99 372.67 -162.98 372.34 -164 372 C-164 371.34 -164 370.68 -164 370 C-164.66 370 -165.32 370 -166 370 C-166 369.34 -166 368.68 -166 368 C-166.66 368 -167.32 368 -168 368 C-168 367.34 -168 366.68 -168 366 C-168.66 366 -169.32 366 -170 366 C-171.60634015 364.26608049 -173.1375287 362.461909 -174.625 360.625 C-175.85089844 359.12839844 -175.85089844 359.12839844 -177.1015625 357.6015625 C-179 355 -179 355 -179 353 C-179.66 353 -180.32 353 -181 353 C-182.46678456 351.11326467 -183.80468081 349.23619505 -185.125 347.25 C-185.52388428 346.65872314 -185.92276855 346.06744629 -186.33374023 345.45825195 C-187.16011454 344.231866 -187.98390156 343.00373294 -188.80517578 341.77392578 C-189.88005926 340.17807303 -190.98326032 338.60138112 -192.08984375 337.02734375 C-197.1853467 329.69183752 -201.20474738 322.05966129 -205.03417969 314.01708984 C-205.96596006 312.07109151 -206.92135529 310.13850314 -207.8828125 308.20703125 C-222.71239552 278.03581591 -227.76662467 243.34001758 -227 210 C-226.97164062 208.700625 -226.94328125 207.40125 -226.9140625 206.0625 C-225.66899754 169.96876814 -213.94018606 135.24924004 -195.4453125 104.453125 C-194.19820238 102.33640836 -193.06491898 100.21255012 -192 98 C-191.34 98 -190.68 98 -190 98 C-189.7421875 97.28457031 -189.484375 96.56914062 -189.21875 95.83203125 C-187.92615235 92.82839889 -186.3722291 90.36494628 -184.5 87.6875 C-183.58734375 86.36298828 -183.58734375 86.36298828 -182.65625 85.01171875 C-182.1096875 84.34785156 -181.563125 83.68398437 -181 83 C-180.34 83 -179.68 83 -179 83 C-178.7421875 82.43796875 -178.484375 81.8759375 -178.21875 81.296875 C-176.85830223 78.73295421 -175.27211038 76.54773635 -173.5 74.25 C-172.8915625 73.45078125 -172.283125 72.6515625 -171.65625 71.828125 C-171.1096875 71.22484375 -170.563125 70.6215625 -170 70 C-169.34 70 -168.68 70 -168 70 C-168 69.34 -168 68.68 -168 68 C-167.34 68 -166.68 68 -166 68 C-166 67.34 -166 66.68 -166 66 C-163.26044438 62.95604931 -160.81936528 60.55603771 -157 59 C-157 58.34 -157 57.68 -157 57 C-156.34 57 -155.68 57 -155 57 C-155 56.34 -155 55.68 -155 55 C-151.53846154 52 -151.53846154 52 -149 52 C-149 51.34 -149 50.68 -149 50 C-147.26451831 48.55473264 -145.46024037 47.1912778 -143.625 45.875 C-142.62726563 45.15054688 -141.62953125 44.42609375 -140.6015625 43.6796875 C-138 42 -138 42 -136 42 C-136 41.34 -136 40.68 -136 40 C-133.59274732 38.32066187 -131.19352145 36.76931054 -128.6875 35.25 C-127.95563477 34.80043945 -127.22376953 34.35087891 -126.46972656 33.88769531 C-120.74685399 30.39666764 -114.95365276 27.08314161 -109 24 C-108.071875 23.51015625 -107.14375 23.0203125 -106.1875 22.515625 C-73.16754607 5.47873387 -36.87448187 -0.75270386 0 0 Z " fill="#01356B" transform="translate(259,32)"/>
<path d="M0 0 C134.97 0 269.94 0 409 0 C408.20064908 5.59545644 407.22824075 9.31292621 404.8125 14.1875 C404.33731934 15.17012817 404.33731934 15.17012817 403.85253906 16.17260742 C403.20817406 17.50092355 402.55962955 18.82722105 401.90673828 20.15136719 C401.11688832 21.76169133 400.35121711 23.38383054 399.58984375 25.0078125 C394.60046285 35.4520559 388.41716008 45.37425988 382 55 C381.34 55 380.68 55 380 55 C379.71125 55.763125 379.4225 56.52625 379.125 57.3125 C378 60 378 60 376 63 C375.34 63 374.68 63 374 63 C373.61328125 63.84304688 373.61328125 63.84304688 373.21875 64.703125 C371.85830223 67.26704579 370.27211038 69.45226365 368.5 71.75 C367.8915625 72.54921875 367.283125 73.3484375 366.65625 74.171875 C365.83640625 75.07679688 365.83640625 75.07679688 365 76 C364.34 76 363.68 76 363 76 C363 76.66 363 77.32 363 78 C362.34 78 361.68 78 361 78 C361 78.66 361 79.32 361 80 C360.34 80 359.68 80 359 80 C358.67 80.99 358.34 81.98 358 83 C357.34 83 356.68 83 356 83 C356 83.66 356 84.32 356 85 C355.34 85 354.68 85 354 85 C354 85.66 354 86.32 354 87 C353.34 87 352.68 87 352 87 C352 87.66 352 88.32 352 89 C350.26608049 90.60634015 348.461909 92.1375287 346.625 93.625 C345.62726563 94.44226563 344.62953125 95.25953125 343.6015625 96.1015625 C341 98 341 98 339 98 C339 98.66 339 99.32 339 100 C336.97143555 101.60058594 336.97143555 101.60058594 334.13671875 103.484375 C333.10353516 104.17273438 332.07035156 104.86109375 331.00585938 105.5703125 C329.91080078 106.28960937 328.81574219 107.00890625 327.6875 107.75 C326.63498047 108.45382812 325.58246094 109.15765625 324.49804688 109.8828125 C285.77954295 135.52041879 242.24202913 147.04464089 196 146 C195.31534668 145.98743164 194.63069336 145.97486328 193.92529297 145.96191406 C146.91881025 144.89925309 102.42204108 126.08615295 66 97 C64.62714844 95.94039062 64.62714844 95.94039062 63.2265625 94.859375 C62.30617187 94.14265625 61.38578125 93.4259375 60.4375 92.6875 C59.59058594 92.03136719 58.74367187 91.37523437 57.87109375 90.69921875 C57.25363281 90.13847656 56.63617188 89.57773437 56 89 C56 88.34 56 87.68 56 87 C55.34 87 54.68 87 54 87 C54 86.34 54 85.68 54 85 C53.34 85 52.68 85 52 85 C52 84.34 52 83.68 52 83 C51.01 82.67 50.02 82.34 49 82 C49 81.34 49 80.68 49 80 C48.34 80 47.68 80 47 80 C47 79.34 47 78.68 47 78 C46.34 78 45.68 78 45 78 C45 77.34 45 76.68 45 76 C44.34 76 43.68 76 43 76 C41.39365985 74.26608049 39.8624713 72.461909 38.375 70.625 C37.55773437 69.62726563 36.74046875 68.62953125 35.8984375 67.6015625 C34 65 34 65 34 63 C33.34 63 32.68 63 32 63 C30.53321544 61.11326467 29.19531919 59.23619505 27.875 57.25 C27.47611572 56.65872314 27.07723145 56.06744629 26.66625977 55.45825195 C25.83988546 54.231866 25.01609844 53.00373294 24.19482422 51.77392578 C23.11994074 50.17807303 22.01673968 48.60138112 20.91015625 47.02734375 C15.8229537 39.70378681 11.80976516 32.0864113 7.98779297 24.05664062 C6.99489157 21.98936395 5.97131493 19.93967847 4.94140625 17.890625 C4.29339452 16.57334739 3.64622578 15.25565467 3 13.9375 C2.4225 12.77089844 1.845 11.60429687 1.25 10.40234375 C0 7 0 7 0 0 Z " fill="#F8F7F8" transform="translate(46,322)"/>
<path d="M0 0 C0.72268066 0.01256836 1.44536133 0.02513672 2.18994141 0.03808594 C48.10283871 1.04897426 96.09667211 20.17126943 131 50 C131 50.66 131 51.32 131 52 C131.61875 52.309375 132.2375 52.61875 132.875 52.9375 C134.25 53.625 135.625 54.3125 137 55 C137 55.66 137 56.32 137 57 C137.66 57 138.32 57 139 57 C139 57.66 139 58.32 139 59 C140.32 59.66 141.64 60.32 143 61 C143 61.66 143 62.32 143 63 C143.66 63 144.32 63 145 63 C146.625 64.375 146.625 64.375 148 66 C148 66.66 148 67.32 148 68 C148.66 68 149.32 68 150 68 C150 68.66 150 69.32 150 70 C150.66 70 151.32 70 152 70 C155.20797408 73.4902758 158.07484332 77.27128269 161 81 C161.63550781 81.80566406 162.27101563 82.61132812 162.92578125 83.44140625 C167 88.72136038 167 88.72136038 167 91 C167.66 91 168.32 91 169 91 C172 95.38461538 172 95.38461538 172 98 C172.66 98 173.32 98 174 98 C175.17672733 100.10873703 176.35011791 102.21922564 177.51953125 104.33203125 C178.46822536 106.04168318 179.42338132 107.74777489 180.38671875 109.44921875 C183.53778041 115.08659756 186.47925397 120.82259342 189.3125 126.625 C189.66223877 127.31722656 190.01197754 128.00945312 190.37231445 128.72265625 C192.83505505 133.85806802 193.61477482 138.3165329 194 144 C191.11930546 145.44034727 188.64973952 145.12404254 185.42886925 145.12304783 C184.3997207 145.1247786 184.3997207 145.1247786 183.34978127 145.12654433 C181.02787196 145.12921212 178.70603061 145.12468749 176.38412476 145.12025452 C174.71185433 145.12069019 173.03958397 145.12156501 171.36731398 145.12284368 C166.75418664 145.1250895 162.14108232 145.12106617 157.52795792 145.11606562 C152.55998483 145.11176255 147.59201312 145.11320744 142.6240387 145.1139679 C134.01075302 145.11449322 125.3974749 145.11134552 116.78419113 145.10573006 C104.3307013 145.09761623 91.87721513 145.09499996 79.42372294 145.09374207 C59.22063093 145.09155136 39.01754295 145.08489078 18.81445312 145.07543945 C-0.81542948 145.06626581 -20.445311 145.05918474 -40.07519531 145.05493164 C-41.88900696 145.05453756 -41.88900696 145.05453756 -43.73946126 145.05413551 C-49.80546884 145.05283051 -55.87147643 145.05156679 -61.93748403 145.05032361 C-112.2916588 145.03995042 -162.64582921 145.0223316 -213 145 C-213.08427702 140.59262776 -212.74710218 137.68440214 -210.91015625 133.65625 C-210.45946777 132.66326904 -210.0087793 131.67028809 -209.54443359 130.6472168 C-209.05539551 129.60863525 -208.56635742 128.57005371 -208.0625 127.5 C-207.56830566 126.43370361 -207.07411133 125.36740723 -206.56494141 124.26879883 C-203.10552196 116.95429647 -199.27684477 110.16205481 -194.6796875 103.51171875 C-192.86627112 101.03964803 -192.86627112 101.03964803 -192 98 C-191.34 98 -190.68 98 -190 98 C-189.7421875 97.28457031 -189.484375 96.56914062 -189.21875 95.83203125 C-187.92615235 92.82839889 -186.3722291 90.36494628 -184.5 87.6875 C-183.58734375 86.36298828 -183.58734375 86.36298828 -182.65625 85.01171875 C-182.1096875 84.34785156 -181.563125 83.68398437 -181 83 C-180.34 83 -179.68 83 -179 83 C-178.7421875 82.43796875 -178.484375 81.8759375 -178.21875 81.296875 C-176.85830223 78.73295421 -175.27211038 76.54773635 -173.5 74.25 C-172.8915625 73.45078125 -172.283125 72.6515625 -171.65625 71.828125 C-171.1096875 71.22484375 -170.563125 70.6215625 -170 70 C-169.34 70 -168.68 70 -168 70 C-168 69.34 -168 68.68 -168 68 C-167.34 68 -166.68 68 -166 68 C-166 67.34 -166 66.68 -166 66 C-163.26044438 62.95604931 -160.81936528 60.55603771 -157 59 C-157 58.34 -157 57.68 -157 57 C-156.34 57 -155.68 57 -155 57 C-155 56.34 -155 55.68 -155 55 C-151.53846154 52 -151.53846154 52 -149 52 C-149 51.34 -149 50.68 -149 50 C-147.26451831 48.55473264 -145.46024037 47.1912778 -143.625 45.875 C-142.62726563 45.15054688 -141.62953125 44.42609375 -140.6015625 43.6796875 C-138 42 -138 42 -136 42 C-136 41.34 -136 40.68 -136 40 C-133.59274732 38.32066187 -131.19352145 36.76931054 -128.6875 35.25 C-127.95563477 34.80043945 -127.22376953 34.35087891 -126.46972656 33.88769531 C-120.74685399 30.39666764 -114.95365276 27.08314161 -109 24 C-108.071875 23.51015625 -107.14375 23.0203125 -106.1875 22.515625 C-73.16754607 5.47873387 -36.87448187 -0.75270386 0 0 Z " fill="#FCF6F5" transform="translate(259,32)"/>
<path d="M0 0 C0.66 0 1.32 0 2 0 C2 0.66 2 1.32 2 2 C115.19 2 228.38 2 345 2 C344.34 2.33 343.68 2.66 343 3 C342.3192868 4.32621709 341.65540744 5.66109623 341 7 C339.87000485 8.60971007 338.7011076 10.19263168 337.5 11.75 C336.8915625 12.54921875 336.283125 13.3484375 335.65625 14.171875 C335.1096875 14.77515625 334.563125 15.3784375 334 16 C333.34 16 332.68 16 332 16 C332 16.66 332 17.32 332 18 C331.34 18 330.68 18 330 18 C330 18.66 330 19.32 330 20 C329.34 20 328.68 20 328 20 C327.67 20.99 327.34 21.98 327 23 C326.34 23 325.68 23 325 23 C325 23.66 325 24.32 325 25 C324.34 25 323.68 25 323 25 C323 25.66 323 26.32 323 27 C322.34 27 321.68 27 321 27 C321 27.66 321 28.32 321 29 C319.26608049 30.60634015 317.461909 32.1375287 315.625 33.625 C314.12839844 34.85089844 314.12839844 34.85089844 312.6015625 36.1015625 C310 38 310 38 308 38 C308 38.66 308 39.32 308 40 C305.97143555 41.60058594 305.97143555 41.60058594 303.13671875 43.484375 C302.10353516 44.17273438 301.07035156 44.86109375 300.00585938 45.5703125 C298.91080078 46.28960937 297.81574219 47.00890625 296.6875 47.75 C295.63498047 48.45382812 294.58246094 49.15765625 293.49804688 49.8828125 C254.77954295 75.52041879 211.24202913 87.04464089 165 86 C164.31534668 85.98743164 163.63069336 85.97486328 162.92529297 85.96191406 C115.91881025 84.89925309 71.42204108 66.08615295 35 37 C34.08476563 36.29359375 33.16953125 35.5871875 32.2265625 34.859375 C31.30617188 34.14265625 30.38578125 33.4259375 29.4375 32.6875 C28.59058594 32.03136719 27.74367188 31.37523437 26.87109375 30.69921875 C26.25363281 30.13847656 25.63617188 29.57773437 25 29 C25 28.34 25 27.68 25 27 C24.34 27 23.68 27 23 27 C23 26.34 23 25.68 23 25 C22.34 25 21.68 25 21 25 C21 24.34 21 23.68 21 23 C20.01 22.67 19.02 22.34 18 22 C18 21.34 18 20.68 18 20 C17.34 20 16.68 20 16 20 C16 19.34 16 18.68 16 18 C15.34 18 14.68 18 14 18 C14 17.34 14 16.68 14 16 C13.34 16 12.68 16 12 16 C10.39365985 14.26608049 8.8624713 12.461909 7.375 10.625 C6.55773437 9.62726563 5.74046875 8.62953125 4.8984375 7.6015625 C3 5 3 5 3 3 C2.34 3 1.68 3 1 3 C0.67 2.01 0.34 1.02 0 0 Z " fill="#FDF8F8" transform="translate(77,382)"/>
<path d="M0 0 C0.72268066 0.01256836 1.44536133 0.02513672 2.18994141 0.03808594 C48.10283871 1.04897426 96.09667211 20.17126943 131 50 C131 50.66 131 51.32 131 52 C131.61875 52.309375 132.2375 52.61875 132.875 52.9375 C134.25 53.625 135.625 54.3125 137 55 C137 55.66 137 56.32 137 57 C137.66 57 138.32 57 139 57 C139 57.66 139 58.32 139 59 C140.32 59.66 141.64 60.32 143 61 C143 61.66 143 62.32 143 63 C143.66 63 144.32 63 145 63 C146.625 64.375 146.625 64.375 148 66 C148 66.66 148 67.32 148 68 C148.66 68 149.32 68 150 68 C150 68.66 150 69.32 150 70 C150.66 70 151.32 70 152 70 C153.60406253 71.75751978 155.13567377 73.58175224 156.625 75.4375 C157.44226563 76.44683594 158.25953125 77.45617187 159.1015625 78.49609375 C161 81 161 81 161 82 C48.8 82 -63.4 82 -179 82 C-176 78 -173 74 -170 70 C-169.34 70 -168.68 70 -168 70 C-168 69.34 -168 68.68 -168 68 C-167.34 68 -166.68 68 -166 68 C-166 67.34 -166 66.68 -166 66 C-163.26044438 62.95604931 -160.81936528 60.55603771 -157 59 C-157 58.34 -157 57.68 -157 57 C-156.34 57 -155.68 57 -155 57 C-155 56.34 -155 55.68 -155 55 C-151.53846154 52 -151.53846154 52 -149 52 C-149 51.34 -149 50.68 -149 50 C-147.26451831 48.55473264 -145.46024037 47.1912778 -143.625 45.875 C-142.62726563 45.15054688 -141.62953125 44.42609375 -140.6015625 43.6796875 C-138 42 -138 42 -136 42 C-136 41.34 -136 40.68 -136 40 C-133.59274732 38.32066187 -131.19352145 36.76931054 -128.6875 35.25 C-127.58970215 34.57565918 -127.58970215 34.57565918 -126.46972656 33.88769531 C-120.74685399 30.39666764 -114.95365276 27.08314161 -109 24 C-108.071875 23.51015625 -107.14375 23.0203125 -106.1875 22.515625 C-73.16754607 5.47873387 -36.87448187 -0.75270386 0 0 Z " fill="#FCF9F9" transform="translate(259,32)"/>
<path d="M0 0 C130.02 0 260.04 0 394 0 C400 14 400 14 400 20 C397.11930546 21.44034727 394.64973952 21.12404254 391.42886925 21.12304783 C390.3997207 21.1247786 390.3997207 21.1247786 389.34978127 21.12654433 C387.02787196 21.12921212 384.70603061 21.12468749 382.38412476 21.12025452 C380.71185433 21.12069019 379.03958397 21.12156501 377.36731398 21.12284368 C372.75418664 21.1250895 368.14108232 21.12106617 363.52795792 21.11606562 C358.55998483 21.11176255 353.59201312 21.11320744 348.6240387 21.1139679 C340.01075302 21.11449322 331.3974749 21.11134552 322.78419113 21.10573006 C310.3307013 21.09761623 297.87721513 21.09499996 285.42372294 21.09374207 C265.22063093 21.09155136 245.01754295 21.08489078 224.81445312 21.07543945 C205.18457052 21.06626581 185.554689 21.05918474 165.92480469 21.05493164 C164.11099304 21.05453756 164.11099304 21.05453756 162.26053874 21.05413551 C156.19453116 21.05283051 150.12852357 21.05156679 144.06251597 21.05032361 C93.7083412 21.03995042 43.35417079 21.0223316 -7 21 C-7 15 -7 15 0 0 Z " fill="#FDFCFC" transform="translate(53,156)"/>
<path d="M0 0 C122.1 0 244.2 0 370 0 C369.07315328 3.70738688 367.99707367 6.01467385 366.0625 9.25 C365.53785156 10.14203125 365.01320313 11.0340625 364.47265625 11.953125 C363.74369141 12.96632813 363.74369141 12.96632813 363 14 C362.34 14 361.68 14 361 14 C360.566875 15.175625 360.566875 15.175625 360.125 16.375 C359 19 359 19 357 21 C353.01132274 21.89289539 349.18637447 22.12517917 345.10912323 22.12584114 C343.9478732 22.12844889 342.78662316 22.13105664 341.59018373 22.13374341 C340.32384962 22.13151268 339.0575155 22.12928196 337.75280762 22.12698364 C336.3865961 22.12813632 335.02038489 22.12972484 333.65417433 22.13171089 C329.90538474 22.13588397 326.15662063 22.13382263 322.40783095 22.13072467 C318.36279233 22.12846258 314.31775809 22.13195422 310.27272034 22.13470459 C302.35063476 22.13915258 294.42855866 22.13819012 286.50647271 22.13529195 C280.06835548 22.13303412 273.63024092 22.13272705 267.19212341 22.13381577 C265.81797447 22.13404561 265.81797447 22.13404561 264.41606495 22.13428011 C262.55506154 22.13459983 260.69405813 22.13492404 258.83305472 22.1352527 C241.3799911 22.13810465 223.92693274 22.13482493 206.47386998 22.12945233 C191.49641199 22.12498455 176.51896175 22.12576057 161.54150391 22.13037109 C144.15114035 22.13572188 126.76078139 22.13782998 109.37041712 22.13475883 C107.51623694 22.13444028 105.66205676 22.13412591 103.80787659 22.13381577 C102.89557029 22.13366149 101.98326399 22.13350721 101.04331204 22.13334826 C94.61248665 22.13248463 88.18166417 22.1339427 81.75083923 22.13629532 C73.91446516 22.1390991 66.07810111 22.1383428 58.24172819 22.13301457 C54.24306142 22.1303854 50.24441135 22.12935927 46.24574471 22.13266373 C42.58552193 22.13564276 38.92533136 22.134007 35.26511151 22.12868617 C33.31334639 22.12703946 31.36157905 22.13030526 29.40981627 22.13374341 C28.24856623 22.13113566 27.0873162 22.12852791 25.89087677 22.12584114 C24.89090809 22.12567879 23.89093942 22.12551644 22.86066866 22.12534916 C19.83960117 21.99297162 16.97008178 21.55538786 14 21 C14 20.34 14 19.68 14 19 C13.08976074 18.85377197 13.08976074 18.85377197 12.16113281 18.70458984 C9.53227375 17.84750814 8.92467727 17.00753647 7.421875 14.7265625 C6.98359375 14.0665625 6.5453125 13.4065625 6.09375 12.7265625 C5.6503125 12.03304688 5.206875 11.33953125 4.75 10.625 C4.29109375 9.93921875 3.8321875 9.2534375 3.359375 8.546875 C0 3.4078311 0 3.4078311 0 0 Z " fill="#FDFCFC" transform="translate(65,363)"/>
<path d="M0 0 C129.36 0 258.72 0 392 0 C391.24879594 3.00481624 390.6017735 5.06861322 389.25 7.75 C388.94578125 8.36359375 388.6415625 8.9771875 388.328125 9.609375 C387.88984375 10.39828125 387.4515625 11.1871875 387 12 C386.76653457 12.64252175 386.53306913 13.2850435 386.29252899 13.94703561 C385.13842336 16.52159052 384.10812238 18.10399032 382 20 C377.15728353 21.25657383 372.29314455 21.0934795 367.32327271 21.03605652 C365.78949178 21.04742192 364.25573334 21.06226502 362.72201622 21.08028871 C358.50501094 21.11956701 354.28938413 21.10878336 350.07229304 21.08977449 C345.52537282 21.07786774 340.97876331 21.11185464 336.4319458 21.1398468 C327.52332346 21.18703506 318.61519734 21.19043151 309.70647897 21.17762073 C302.46642572 21.167762 295.22652035 21.17238006 287.9864769 21.18734169 C286.95674103 21.18943372 285.92700516 21.19152576 284.86606517 21.19368118 C282.77426892 21.19795582 280.68247271 21.20224664 278.59067653 21.2065535 C258.96524737 21.24490334 239.34009943 21.23182591 219.71467124 21.20279822 C201.75541011 21.17776414 183.79691433 21.21489623 165.83778025 21.28176483 C147.40361796 21.34988313 128.96981387 21.37740652 110.53552711 21.36033612 C100.18350644 21.35143057 89.83209082 21.35845588 79.48016739 21.40755272 C70.66702964 21.44885978 61.85490789 21.45165361 53.04178132 21.40462073 C48.54414462 21.3816626 44.0483357 21.37642527 39.55080032 21.41892624 C35.43286704 21.45736677 31.31832253 21.44501541 27.20057748 21.39218608 C25.71138725 21.38198205 24.22192989 21.39034304 22.73298325 21.41914525 C11.72073449 21.61711624 11.72073449 21.61711624 7.63324714 17.77576697 C3.82506831 12.10214327 2.19693796 6.59081387 0 0 Z " fill="#D72924" transform="translate(54,344)"/>
<path d="M0 0 C1.53552374 -0.01268079 3.0710141 -0.03015552 4.60643482 -0.05199969 C8.8194014 -0.09790085 13.0296258 -0.07524189 17.24260187 -0.04115129 C21.78817426 -0.01626215 26.33327499 -0.05467833 30.87875366 -0.08493042 C39.78061079 -0.1338546 48.68144801 -0.123275 57.58334517 -0.09139137 C64.81766238 -0.06655276 72.05169365 -0.0631782 79.28604126 -0.07515335 C80.31550615 -0.07683891 81.34497104 -0.07852448 82.40563184 -0.08026112 C84.49694507 -0.08377808 86.58825821 -0.08734443 88.67957127 -0.09095962 C108.29178161 -0.12232979 127.90342646 -0.08625705 147.51554406 -0.02715559 C164.34519995 0.02199066 181.17402128 0.01345445 198.00366211 -0.03726196 C217.54544029 -0.09612385 237.08672279 -0.11930852 256.62857723 -0.08552706 C258.71221344 -0.08202301 260.79584972 -0.07856493 262.87948608 -0.07515335 C263.9046852 -0.07345632 264.92988433 -0.07175929 265.98615009 -0.07001083 C273.21212999 -0.0605115 280.43779558 -0.07654756 287.66372681 -0.10242844 C296.46955485 -0.13327456 305.27430435 -0.12494596 314.08000875 -0.06634025 C318.57356956 -0.03741975 323.06533219 -0.02611999 327.55887985 -0.06248093 C331.67309944 -0.09526901 335.7838556 -0.07725568 339.89776075 -0.01872785 C341.38551833 -0.00644153 342.8735687 -0.01269332 344.36113799 -0.03936152 C355.36234941 -0.22145409 355.36234941 -0.22145409 359.44869423 3.62228656 C363.2570389 9.29627148 364.8855732 14.80524866 367.08276367 21.39682007 C237.72276367 21.39682007 108.36276367 21.39682007 -24.91723633 21.39682007 C-19.70866338 5.77110122 -17.02838315 -0.3052741 0 0 Z " fill="#DA241D" transform="translate(78.917236328125,134.60317993164063)"/>
<path d="M0 0 C0.72268066 0.01256836 1.44536133 0.02513672 2.18994141 0.03808594 C43.46444211 0.94684825 84.31673235 16.52780168 118 40 C118 40.33 118 40.66 118 41 C34.18 41 -49.64 41 -136 41 C-127.87142271 34.49713817 -119.48717538 28.97139083 -110.0859375 24.48828125 C-108.02455276 23.49411975 -105.98699842 22.44900043 -103.9765625 21.35546875 C-72.31641967 4.37551321 -35.45482104 -0.7237249 0 0 Z " fill="#DA241E" transform="translate(259,32)"/>
<path d="M0 0 C83.16 0 166.32 0 252 0 C243.95112987 8.04887013 234.13926655 13.24564163 223.91992188 18.08496094 C221.89075971 19.05206417 219.87510774 20.04429746 217.859375 21.0390625 C186.66481523 36.29195673 152.48977805 41.77914904 118 41 C116.97302002 40.98114746 116.97302002 40.98114746 115.92529297 40.96191406 C75.54897965 40.04913927 32.01940686 26.07714608 0 1 C0 0.67 0 0.34 0 0 Z " fill="#D9241E" transform="translate(124,427)"/>
<path d="M0 0 C0.66 0 1.32 0 2 0 C2 0.66 2 1.32 2 2 C115.19 2 228.38 2 345 2 C344.34 2.33 343.68 2.66 343 3 C342.3192868 4.32621709 341.65540744 5.66109623 341 7 C339.87000485 8.60971007 338.7011076 10.19263168 337.5 11.75 C336.8915625 12.54921875 336.283125 13.3484375 335.65625 14.171875 C335.1096875 14.77515625 334.563125 15.3784375 334 16 C333.34 16 332.68 16 332 16 C332 16.66 332 17.32 332 18 C331.34 18 330.68 18 330 18 C330 18.66 330 19.32 330 20 C329.34 20 328.68 20 328 20 C327.67 20.99 327.34 21.98 327 23 C176.025 22.505 176.025 22.505 22 22 C22.33 22.99 22.66 23.98 23 25 C22.34 25 21.68 25 21 25 C21 24.34 21 23.68 21 23 C20.01 22.67 19.02 22.34 18 22 C18 21.34 18 20.68 18 20 C17.34 20 16.68 20 16 20 C16 19.34 16 18.68 16 18 C15.34 18 14.68 18 14 18 C14 17.34 14 16.68 14 16 C13.34 16 12.68 16 12 16 C10.39365985 14.26608049 8.8624713 12.461909 7.375 10.625 C6.55773437 9.62726563 5.74046875 8.62953125 4.8984375 7.6015625 C3 5 3 5 3 3 C2.34 3 1.68 3 1 3 C0.67 2.01 0.34 1.02 0 0 Z " fill="#DA241D" transform="translate(77,382)"/>
<path d="M0 0 C0.33 0.99 0.66 1.98 1 3 C1.64423158 2.99674487 2.28846317 2.99348974 2.95221692 2.99013597 C41.10554082 2.79773893 79.25890722 2.62097895 117.41239645 2.46462174 C121.99001933 2.44584856 126.56764166 2.42694428 131.14526367 2.40795898 C132.05661425 2.40418144 132.96796482 2.40040389 133.90693208 2.39651188 C148.67773124 2.33497404 163.44846041 2.26280737 178.21919105 2.1867362 C193.36698311 2.10895883 208.514794 2.04254899 223.66268319 1.98676747 C233.01531735 1.95196618 242.36782289 1.90822012 251.72036006 1.85315516 C258.12731157 1.81628096 264.53424757 1.79041428 270.94128219 1.77332608 C274.64190906 1.76312723 278.34234572 1.74795835 282.04288292 1.71975899 C286.04873621 1.68935934 290.05429151 1.68208009 294.06025696 1.67720032 C295.23825766 1.66457084 296.41625837 1.65194137 297.62995607 1.63892919 C299.23256926 1.64266381 299.23256926 1.64266381 300.86755848 1.64647388 C301.79293692 1.64229696 302.71831537 1.63812004 303.67173558 1.63381654 C306.4440346 2.06983662 307.35333657 2.76170771 309 5 C309 5.66 309 6.32 309 7 C309.66 7 310.32 7 311 7 C311 7.66 311 8.32 311 9 C311.66 9 312.32 9 313 9 C314.60406253 10.75751978 316.13567377 12.58175224 317.625 14.4375 C318.44226563 15.44683594 319.25953125 16.45617187 320.1015625 17.49609375 C322 20 322 20 322 21 C209.8 21 97.6 21 -18 21 C-15 17 -12 13 -9 9 C-8.34 9 -7.68 9 -7 9 C-7 8.34 -7 7.68 -7 7 C-6.34 7 -5.68 7 -5 7 C-5 6.34 -5 5.68 -5 5 C-3.37446717 3.29319053 -1.70884005 1.62339805 0 0 Z " fill="#D82520" transform="translate(98,93)"/>
<path d="M0 0 C0.72268066 0.01256836 1.44536133 0.02513672 2.18994141 0.03808594 C27.64757662 0.59860004 60.43899613 5.62599742 82 20 C82 20.66 82 21.32 82 22 C21.61 22 -38.78 22 -101 22 C-101 21.34 -101 20.68 -101 20 C-69.81536095 4.21172673 -34.58520254 -0.70597373 0 0 Z " fill="#F5F5F4" transform="translate(259,32)"/>
<path d="M0 0 C60.72 0 121.44 0 184 0 C184 0.66 184 1.32 184 2 C152.80833913 17.30653173 118.49899777 22.77935732 84 22 C83.31534668 21.98743164 82.63069336 21.97486328 81.92529297 21.96191406 C54.14808297 21.33396329 24.778681 14.81033751 0 2 C0 1.34 0 0.68 0 0 Z " fill="#F6F5F5" transform="translate(158,446)"/>
<path d="M0 0 C0.66 0 1.32 0 2 0 C2.66 6.6 3.32 13.2 4 20 C7.18344154 16.81655846 8.88523707 14.76979479 11 11 C12.98553511 7.46056784 15.02448584 4.77030629 18 2 C16.38168081 9.34467941 14.69857238 16.67349113 13 24 C14.11375 23.34 15.2275 22.68 16.375 22 C19.75 20 19.75 20 22 20 C22 19.34 22 18.68 22 18 C24.97 16.68 27.94 15.36 31 14 C28.97104835 18.0579033 26.51614645 20.88473447 23.4375 24.125 C19.81366093 27.76403407 19.81366093 27.76403407 17 32 C17.57524414 31.83701416 18.15048828 31.67402832 18.74316406 31.50610352 C20.95708107 31.00962472 22.84673797 30.88520256 25.109375 30.90234375 C25.86347656 30.90556641 26.61757812 30.90878906 27.39453125 30.91210938 C28.56048828 30.92467773 28.56048828 30.92467773 29.75 30.9375 C30.54277344 30.94201172 31.33554687 30.94652344 32.15234375 30.95117188 C34.10159508 30.96291435 36.05080738 30.98084854 38 31 C34.03252957 33.64498029 29.71213817 35.12248716 25.2734375 36.7890625 C21.43296578 38.03348378 21.43296578 38.03348378 19 41 C19.52207031 41.17015625 20.04414063 41.3403125 20.58203125 41.515625 C23.05907839 42.33118518 25.53024165 43.16261412 28 44 C28.99386719 44.33644531 29.98773438 44.67289063 31.01171875 45.01953125 C31.99785156 45.36371094 32.98398437 45.70789063 34 46.0625 C34.928125 46.38347656 35.85625 46.70445312 36.8125 47.03515625 C39 48 39 48 40 50 C37.10388456 49.85865273 34.2081919 49.7120847 31.3125 49.5625 C30.08756836 49.50352539 30.08756836 49.50352539 28.83789062 49.44335938 C24.80344189 49.23101997 20.94252691 48.95552078 17 48 C17 48.66 17 49.32 17 50 C17.66 50 18.32 50 19 50 C20.22857975 51.69344776 21.45150288 53.39167337 22.62890625 55.12109375 C24.10796331 57.24947545 24.10796331 57.24947545 26.75 59.75 C29 62 29 62 30 65 C25.95698825 63.51481201 22.38853744 61.57122002 18.6875 59.375 C17.61886719 58.74335938 16.55023438 58.11171875 15.44921875 57.4609375 C14.23685547 56.73777344 14.23685547 56.73777344 13 56 C13.27714844 57.16917969 13.55429688 58.33835937 13.83984375 59.54296875 C14.20577401 61.09113523 14.57165693 62.63931291 14.9375 64.1875 C15.11990234 64.95642578 15.30230469 65.72535156 15.49023438 66.51757812 C16.39120113 70.33440092 17.26637997 74.14656426 18 78 C14.84819923 75.00652435 12.66928695 71.53845819 10.375 67.875 C7.96040058 63.72029353 7.96040058 63.72029353 5 60 C3.68 67.92 2.36 75.84 1 84 C-0.67421941 80.65156117 -1.27118643 79.25929559 -1.59765625 75.77734375 C-1.67693359 74.99166016 -1.75621094 74.20597656 -1.83789062 73.39648438 C-1.91201172 72.58501953 -1.98613281 71.77355469 -2.0625 70.9375 C-2.21709031 69.32132854 -2.37452726 67.7054262 -2.53515625 66.08984375 C-2.600979 65.37691162 -2.66680176 64.66397949 -2.73461914 63.92944336 C-2.96916727 61.78581335 -2.96916727 61.78581335 -4 59 C-7.78633401 64.01132442 -10.78597036 69.16069195 -13.66796875 74.7421875 C-15 77 -15 77 -17 78 C-16.38477641 70.00209339 -14.48931581 61.73397372 -10 55 C-15.89760413 57.88022527 -21.2115199 61.07473447 -26.44921875 65.01171875 C-28 66 -28 66 -30 66 C-28.58862407 62.85424668 -26.87599513 60.54733227 -24.5625 58 C-22.72102941 55.96364376 -20.99304129 53.99019996 -19.40234375 51.75 C-18.93957031 51.1725 -18.47679687 50.595 -18 50 C-17.34 50 -16.68 50 -16 50 C-16 49.34 -16 48.68 -16 48 C-23.92 48.66 -31.84 49.32 -40 50 C-36.97032952 47.72774714 -35.47296619 46.61880685 -32.14453125 45.46484375 C-31.44005859 45.21283203 -30.73558594 44.96082031 -30.00976562 44.70117188 C-28.5332548 44.18800234 -27.05669148 43.67498383 -25.58007812 43.16210938 C-21.55821296 42.00829789 -21.55821296 42.00829789 -19 39 C-19.54527344 38.82984375 -20.09054688 38.6596875 -20.65234375 38.484375 C-26.28384978 36.67459186 -31.63939569 34.49654622 -37 32 C-37 31.67 -37 31.34 -37 31 C-34.62492145 30.97280444 -32.25016036 30.95306753 -29.875 30.9375 C-29.20984375 30.92912109 -28.5446875 30.92074219 -27.859375 30.91210938 C-23.79318646 30.89217708 -19.9879908 31.21109839 -16 32 C-16.44730469 31.49210937 -16.89460938 30.98421875 -17.35546875 30.4609375 C-19.24266203 28.31219291 -21.12229212 26.15703633 -23 24 C-23.52078125 23.40703125 -24.0415625 22.8140625 -24.578125 22.203125 C-28 18.23060345 -28 18.23060345 -28 16 C-25.69 16.66 -23.38 17.32 -21 18 C-21 18.66 -21 19.32 -21 20 C-20.278125 20.268125 -19.55625 20.53625 -18.8125 20.8125 C-16.02220157 21.990626 -13.57750674 23.4188404 -11 25 C-11.37253906 23.73542969 -11.74507812 22.47085938 -12.12890625 21.16796875 C-12.60721915 19.50794161 -13.08505921 17.84777818 -13.5625 16.1875 C-13.80935547 15.35412109 -14.05621094 14.52074219 -14.31054688 13.66210938 C-14.53935547 12.85966797 -14.76816406 12.05722656 -15.00390625 11.23046875 C-15.21861572 10.49207764 -15.4333252 9.75368652 -15.65454102 8.99291992 C-16 7 -16 7 -15 4 C-15 4.66 -15 5.32 -15 6 C-14.34 6 -13.68 6 -13 6 C-11.3682707 8.47410219 -9.85299836 10.93659659 -8.375 13.5 C-7.74464844 14.57314453 -7.74464844 14.57314453 -7.1015625 15.66796875 C-6.06111411 17.44146033 -5.02971096 19.22025266 -4 21 C-3.91435791 20.43490723 -3.82871582 19.86981445 -3.74047852 19.28759766 C-3.35130182 16.73285367 -2.95696515 14.17893253 -2.5625 11.625 C-2.42779297 10.73554688 -2.29308594 9.84609375 -2.15429688 8.9296875 C-2.02216797 8.07890625 -1.89003906 7.228125 -1.75390625 6.3515625 C-1.57323608 5.17327881 -1.57323608 5.17327881 -1.38891602 3.97119141 C-1 2 -1 2 0 0 Z " fill="#FBD004" transform="translate(226,210)"/>
<path d="M0 0 C1.8359375 1.66796875 1.8359375 1.66796875 3 3 C2.2059375 2.83886719 1.411875 2.67773438 0.59375 2.51171875 C-3.79746107 1.88644848 -8.07091703 1.81594408 -12.5 1.8125 C-13.32886719 1.80025391 -14.15773437 1.78800781 -15.01171875 1.77539062 C-23.63382391 1.75482917 -29.71372339 4.63589036 -37 9 C-37.62261719 9.35835937 -38.24523437 9.71671875 -38.88671875 10.0859375 C-47.68350646 15.66053106 -52.31186678 25.23022551 -55 35 C-57.93357229 49.23471654 -56.77524502 63.80979161 -48.90698242 76.22338867 C-45.05675482 81.9276402 -41.03325985 86.58080421 -35 90 C-34.10152344 90.55558594 -33.20304687 91.11117187 -32.27734375 91.68359375 C-21.28461374 97.70110588 -9.10000036 97.35008033 3 95 C-1.80511593 100.60596858 -9.33459738 102.5745227 -16.45483398 103.22387695 C-36.65075791 104.10496517 -36.65075791 104.10496517 -45 99 C-46.12341797 98.36384766 -46.12341797 98.36384766 -47.26953125 97.71484375 C-53.35193383 93.99494166 -58.15946943 89.18965266 -63 84 C-63.75990234 83.24589844 -63.75990234 83.24589844 -64.53515625 82.4765625 C-74.13150252 72.32263036 -74.48131837 56.15433402 -74.2421875 43.07421875 C-74.03032212 37.32133946 -73.28022986 32.31506816 -71 27 C-70.55914062 25.9584375 -70.11828125 24.916875 -69.6640625 23.84375 C-64.25106563 12.54246872 -55.97963075 4.89181559 -45 -1 C-43.83597656 -1.62648437 -43.83597656 -1.62648437 -42.6484375 -2.265625 C-29.67718884 -7.88204195 -12.24084167 -7.0773596 0 0 Z " fill="#F5CD0A" transform="translate(198,201)"/>
<path d="M0 0 C1.75994274 3.16789693 2.24872886 5.24364431 3 9 C-132.63 9 -268.26 9 -408 9 C-408.66 12.63 -409.32 16.26 -410 20 C-410.99 20.66 -411.98 21.32 -413 22 C-412.38357466 19.37271142 -411.75732213 16.74846418 -411.125 14.125 C-410.95097656 13.37863281 -410.77695312 12.63226563 -410.59765625 11.86328125 C-409.2265625 6.2265625 -409.2265625 6.2265625 -407 4 C-407 4.66 -407 5.32 -407 6 C-205.535 5.505 -205.535 5.505 0 5 C0 3.35 0 1.7 0 0 Z " fill="#3F6183" transform="translate(453,171)"/>
<path d="M0 0 C3.1913079 1.59565395 4.11784709 4.84661121 5.625 7.9375 C5.94984375 8.58396484 6.2746875 9.23042969 6.609375 9.89648438 C9 14.73297991 9 14.73297991 9 17 C-120.36 17 -249.72 17 -383 17 C-380 8 -380 8 -377 5 C-377 6.98 -377 8.96 -377 11 C-377.66 11 -378.32 11 -379 11 C-379 12.32 -379 13.64 -379 15 C-252.28 14.67 -125.56 14.34 5 14 C5.33 13.34 5.66 12.68 6 12 C4.35 12.33 2.7 12.66 1 13 C1 10.36 1 7.72 1 5 C-0.98 4.505 -0.98 4.505 -3 4 C-1.515 2.02 -1.515 2.02 0 0 Z " fill="#CD4038" transform="translate(437,139)"/>
<path d="M0 0 C122.76 0 245.52 0 372 0 C372 1.32 372 2.64 372 4 C249.24 3.67 126.48 3.34 0 3 C0 2.01 0 1.02 0 0 Z " fill="#CB4643" transform="translate(64,136)"/>
<path d="M0 0 C0.66 0 1.32 0 2 0 C2 0.66 2 1.32 2 2 C115.19 2 228.38 2 345 2 C344.34 2.33 343.68 2.66 343 3 C342.731875 3.556875 342.46375 4.11375 342.1875 4.6875 C340.54972654 7.87684831 338.34249974 10.28763188 336 13 C335.67 12.01 335.34 11.02 335 10 C334.01 9.67 333.02 9.34 332 9 C332 8.01 332 7.02 332 6 C224.75 5.67 117.5 5.34 7 5 C6.67 5.99 6.34 6.98 6 8 C4.5 6.625 4.5 6.625 3 5 C3 4.34 3 3.68 3 3 C2.34 3 1.68 3 1 3 C0.67 2.01 0.34 1.02 0 0 Z " fill="#CB504B" transform="translate(77,382)"/>
<path d="M0 0 C0.66 0.33 1.32 0.66 2 1 C1.67 1.99 1.34 2.98 1 4 C0.34 4 -0.32 4 -1 4 C-1 4.66 -1 5.32 -1 6 C1.64 5.67 4.28 5.34 7 5 C7 4.34 7 3.68 7 3 C7.99 2.67 8.98 2.34 10 2 C10 2.99 10 3.98 10 5 C83.26 5 156.52 5 232 5 C232.33 3.68 232.66 2.36 233 1 C234.66926454 1.97473126 236.33535642 2.95489789 238 3.9375 C239.3921875 4.75541016 239.3921875 4.75541016 240.8125 5.58984375 C241.534375 6.05519531 242.25625 6.52054687 243 7 C243 7.33 243 7.66 243 8 C159.18 8 75.36 8 -11 8 C-7.34685159 5.07748127 -3.88488011 2.52968938 0 0 Z " fill="#C43630" transform="translate(134,65)"/>
<path d="M0 0 C9.06863266 3.39869476 16.91326678 7.74362341 25 13 C24.01 13.66 23.02 14.32 22 15 C21.67 14.01 21.34 13.02 21 12 C19.02 11.67 17.04 11.34 15 11 C15 10.34 15 9.68 15 9 C14.401875 8.855625 13.80375 8.71125 13.1875 8.5625 C11.43849596 8.1127561 9.71322977 7.57107659 8 7 C7.67 7.99 7.34 8.98 7 10 C6.01 9.67 5.02 9.34 4 9 C4.33 7.68 4.66 6.36 5 5 C-19.9300576 4.9532913 -44.86010865 4.91801668 -69.79020119 4.89637566 C-81.36552009 4.88606054 -92.94081182 4.87199567 -104.51611328 4.84912109 C-114.60445625 4.82919447 -124.69277954 4.81628528 -134.78114164 4.81182301 C-140.12345337 4.80921441 -145.46570878 4.80307809 -150.80800247 4.78853989 C-155.83611489 4.77496751 -160.86414777 4.77077669 -165.89227676 4.77378464 C-167.73775159 4.77323432 -169.58322906 4.76925484 -171.42868805 4.76158905 C-173.94902649 4.75163323 -176.46906497 4.75403346 -178.9894104 4.75949097 C-179.71899542 4.75366528 -180.44858045 4.7478396 -181.20027411 4.74183738 C-185.53290683 4.76718113 -188.93621208 5.57155791 -193 7 C-193.66 6.67 -194.32 6.34 -195 6 C-186.16734519 -0.13521472 -177.15069075 0.35577383 -166.88232422 0.52416992 C-165.05822443 0.53545741 -163.23410967 0.54451173 -161.4099884 0.55151367 C-156.48267184 0.57670362 -151.55615081 0.63295204 -146.62917852 0.6949594 C-141.47102581 0.75453435 -136.31270138 0.78529525 -131.15432739 0.81916809 C-121.3973137 0.88758829 -111.64072699 0.98176226 -101.88402951 1.08528739 C-90.77170337 1.20193535 -79.65920717 1.28972396 -68.54660392 1.37513959 C-45.69740364 1.55141107 -22.8486534 1.76375857 0 2 C0 1.34 0 0.68 0 0 Z " fill="#D4504C" transform="translate(341,52)"/>
<path d="M0 0 C0.33 0 0.66 0 1 0 C0.88382356 1.37577361 0.75654223 2.75061045 0.625 4.125 C0.55539062 4.89070313 0.48578125 5.65640625 0.4140625 6.4453125 C0 9 0 9 -2 15 C-137.3 14.67 -272.6 14.34 -412 14 C-412.33 14.99 -412.66 15.98 -413 17 C-413.66 14.36 -414.32 11.72 -415 9 C-414.34 9 -413.68 9 -413 9 C-413 9.99 -413 10.98 -413 12 C-277.7 12 -142.4 12 -3 12 C-2.67 9.36 -2.34 6.72 -2 4 C-0.9375 1.5 -0.9375 1.5 0 0 Z " fill="#0A345E" transform="translate(458,308)"/>
<path d="M0 0 C1.65 0 3.3 0 5 0 C5 0.66 5 1.32 5 2 C101.525 2.495 101.525 2.495 200 3 C196.64422635 6.35577365 193.28213309 6.11602647 188.65277219 6.14772969 C187.94616413 6.14754533 187.23955607 6.14736097 186.51153564 6.14717102 C185.37556478 6.15268605 185.37556478 6.15268605 184.216645 6.1583125 C181.67730073 6.16933144 179.1379974 6.17319012 176.59863281 6.17700195 C174.77853262 6.18326791 172.9584337 6.18991483 171.13833618 6.19691467 C165.15994149 6.2179401 159.18154659 6.228315 153.203125 6.23828125 C151.14413184 6.24232924 149.08513882 6.24644618 147.02614594 6.25063133 C137.35336149 6.26967892 127.68058467 6.2839114 118.00778508 6.2922433 C106.84543567 6.30201732 95.68328448 6.32834303 84.52100492 6.36874419 C75.89072033 6.39890828 67.26049256 6.41371242 58.63015628 6.41702431 C53.47668839 6.41937427 48.32343236 6.42832797 43.17002106 6.45348549 C38.32069625 6.47677655 33.47172267 6.48099524 28.62235641 6.47072411 C26.8454382 6.4702289 25.06850262 6.47654474 23.29163742 6.49028015 C20.8594729 6.50802487 18.42856544 6.50088113 15.99639893 6.48774719 C15.29871375 6.49871644 14.60102858 6.50968568 13.88220143 6.52098733 C8.42337976 6.45016262 4.60362899 4.68860929 0 2 C0 1.34 0 0.68 0 0 Z " fill="#D64E4C" transform="translate(148,441)"/>
<path d="M0 0 C122.1 0 244.2 0 370 0 C369.67 1.32 369.34 2.64 369 4 C368.34 3.34 367.68 2.68 367 2 C364.2970504 1.69550948 364.2970504 1.69550948 361.07476807 1.74831772 C359.80406338 1.74310222 358.53335869 1.73788673 357.2241478 1.73251319 C355.80079849 1.73683798 354.37744974 1.74135133 352.95410156 1.74603271 C351.45237196 1.74373038 349.95064349 1.7405554 348.44891739 1.73657823 C344.30709408 1.72819026 340.16536233 1.73237354 336.02353859 1.73855066 C331.56268299 1.74305788 327.10184363 1.73610003 322.64099121 1.73059082 C313.89618636 1.72167659 305.15141575 1.72362784 296.40660954 1.7294161 C289.30236084 1.73392463 282.19812178 1.73454901 275.09387207 1.73236847 C274.084489 1.732062 273.07510594 1.73175554 272.03513551 1.73143978 C269.98488203 1.73080036 267.93462856 1.73015194 265.8843751 1.7294946 C246.63880421 1.72378536 227.39325234 1.7303585 208.14768457 1.74109533 C191.6179781 1.75003138 175.08829972 1.74847951 158.55859375 1.73925781 C139.38400179 1.72856565 120.20942652 1.72433474 101.034832 1.73048234 C98.99193065 1.73111947 96.94902929 1.73174821 94.90612793 1.73236847 C93.90086319 1.73267702 92.89559845 1.73298557 91.85987115 1.73330347 C84.76045854 1.73503358 77.66105648 1.73210853 70.56164551 1.72740936 C61.91514095 1.72181222 53.26867273 1.7232923 44.62217236 1.73397085 C40.20680935 1.73924335 35.79150702 1.74125762 31.37614441 1.73467255 C27.33968773 1.72874342 23.30334837 1.73193752 19.26690245 1.74262765 C17.80125785 1.74487466 16.33560347 1.74369656 14.86996508 1.73887607 C12.88839401 1.73285514 10.90679546 1.74018457 8.92523193 1.74831772 C7.82132992 1.74864242 6.7174279 1.74896713 5.58007431 1.74930167 C2.83630192 1.74009359 2.83630192 1.74009359 1 4 C0.67 2.68 0.34 1.36 0 0 Z " fill="#FCD5D1" transform="translate(65,363)"/>
<path d="M0 0 C1.9375 0.8125 1.9375 0.8125 4 2 C4.33 2.99 4.66 3.98 5 5 C-95.32 5 -195.64 5 -299 5 C-299 4.67 -299 4.34 -299 4 C-298.37231645 3.99864347 -297.7446329 3.99728694 -297.09792864 3.99588931 C-259.9299186 3.91531052 -222.76194733 3.82438539 -185.59399638 3.71994839 C-181.13525561 3.70742891 -176.6765146 3.69499623 -172.21777344 3.68261719 C-171.33008547 3.68015119 -170.4423975 3.6776852 -169.5278099 3.67514448 C-155.13791671 3.63537661 -140.74801562 3.60264714 -126.35809942 3.57250018 C-111.60236404 3.54143087 -96.84666228 3.502841 -82.09096467 3.45720994 C-72.97947435 3.42927208 -63.86800874 3.40726212 -54.756487 3.39273749 C-48.51582171 3.38222841 -42.27520415 3.36444138 -36.03457476 3.34083296 C-32.429339 3.32741229 -28.8241704 3.3172945 -25.21890831 3.31578636 C-21.31779915 3.31407103 -17.41684484 3.29707817 -13.51577759 3.2784729 C-11.79109865 3.281375 -11.79109865 3.281375 -10.03157771 3.28433573 C-8.99302712 3.27687024 -7.95447654 3.26940475 -6.88445473 3.26171303 C-5.98299866 3.25943471 -5.0815426 3.25715638 -4.15276968 3.25480902 C-1.7873407 3.20006714 -1.7873407 3.20006714 0 1 C0 0.67 0 0.34 0 0 Z " fill="#F1AEAE" transform="translate(398,91)"/>
<path d="M0 0 C101.31 0.33 202.62 0.66 307 1 C307 1.33 307 1.66 307 2 C207.01 2 107.02 2 4 2 C4.33 2.99 4.66 3.98 5 5 C4.34 5 3.68 5 3 5 C3 4.34 3 3.68 3 3 C2.01 2.67 1.02 2.34 0 2 C0 1.34 0 0.68 0 0 Z " fill="#BF332E" transform="translate(95,402)"/>
<path d="M0 0 C99.99 0 199.98 0 303 0 C303 0.99 303 1.98 303 3 C302.34 3 301.68 3 301 3 C301 3.66 301 4.32 301 5 C300.34 4.67 299.68 4.34 299 4 C299.33 3.01 299.66 2.02 300 1 C201 1 102 1 0 1 C0 0.67 0 0.34 0 0 Z " fill="#F1A7A6" transform="translate(99,404)"/>
<path d="M0 0 C81.84 0 163.68 0 248 0 C248 0.66 248 1.32 248 2 C128.705 1.505 128.705 1.505 7 1 C7.66 2.65 8.32 4.3 9 6 C4.69127714 4.56375905 3.45397435 3.45397435 0 0 Z " fill="#C13936" transform="translate(124,427)"/>
<path d="M0 0 C1.98 0.495 1.98 0.495 4 1 C2.87926138 1.83905565 1.75325453 2.67107831 0.625 3.5 C-0.00148438 3.9640625 -0.62796875 4.428125 -1.2734375 4.90625 C-3 6 -3 6 -5 6 C-4.67 4.68 -4.34 3.36 -4 2 C-81.22 2 -158.44 2 -238 2 C-238 1.67 -238 1.34 -238 1 C-207.96904044 0.97720563 -177.93808117 0.95949975 -147.90711487 0.94893467 C-144.36467162 0.94768391 -140.82222838 0.94638959 -137.27978516 0.94506836 C-136.57452469 0.94480605 -135.86926423 0.94454374 -135.14263223 0.94427348 C-123.71116193 0.93991777 -112.27969663 0.93203076 -100.8482293 0.9228472 C-89.12547132 0.91350792 -77.40271596 0.90794381 -65.67995441 0.90591151 C-59.09253057 0.90460446 -52.50511811 0.90151899 -45.91769791 0.89426994 C-39.72411302 0.88750917 -33.53054425 0.88538316 -27.33695602 0.88689232 C-25.05763919 0.88661602 -22.77832184 0.88461124 -20.49900818 0.88079453 C-17.39931253 0.8758564 -14.29967862 0.87700218 -11.19998169 0.87974548 C-9.83132452 0.87537622 -9.83132452 0.87537622 -8.4350177 0.87091869 C-2.22824242 0.88587879 -2.22824242 0.88587879 0 2 C0 1.34 0 0.68 0 0 Z " fill="#CA2620" transform="translate(372,427)"/>
<path d="M0 0 C0 0.99 0 1.98 0 3 C5.94 2.505 5.94 2.505 12 2 C12 4.64 12 7.28 12 10 C13.65 10 15.3 10 17 10 C17 12.31 17 14.62 17 17 C17.99 17.33 18.98 17.66 20 18 C18.73433762 20.10743309 17.46276162 22.21088672 16.1875 24.3125 C15.83107422 24.90740234 15.47464844 25.50230469 15.10742188 26.11523438 C13.3144716 29.0596206 11.60825874 31.72085908 9 34 C9.61522359 26.00209339 11.51068419 17.73397372 16 11 C10.10239587 13.88022527 4.7884801 17.07473447 -0.44921875 21.01171875 C-2 22 -2 22 -4 22 C-2.58862407 18.85424668 -0.87599513 16.54733227 1.4375 14 C3.27897059 11.96364376 5.00695871 9.99019996 6.59765625 7.75 C7.06042969 7.1725 7.52320313 6.595 8 6 C8.66 6 9.32 6 10 6 C10 5.34 10 4.68 10 4 C-1.88 4.99 -1.88 4.99 -14 6 C-10.94997276 3.71247957 -9.2608271 2.52908046 -5.875 1.3125 C-5.19179687 1.06113281 -4.50859375 0.80976563 -3.8046875 0.55078125 C-2 0 -2 0 0 0 Z " fill="#E8C71E" transform="translate(200,254)"/>
<path d="M0 0 C60.72 0 121.44 0 184 0 C184 0.66 184 1.32 184 2 C182.02 2.66 180.04 3.32 178 4 C178.33 3.01 178.66 2.02 179 1 C122.24 1 65.48 1 7 1 C8.32 2.65 9.64 4.3 11 6 C7.08406554 5.21681311 3.63593365 3.60820142 0 2 C0 1.34 0 0.68 0 0 Z " fill="#FBE8E5" transform="translate(158,446)"/>
<path d="M0 0 C-2.475 1.485 -2.475 1.485 -5 3 C51.76 3 108.52 3 167 3 C167 2.34 167 1.68 167 1 C168.65 1.66 170.3 2.32 172 3 C172 3.66 172 4.32 172 5 C111.61 5 51.22 5 -11 5 C-11 4.34 -11 3.68 -11 3 C-9.73581754 2.30034557 -8.46334598 1.61565237 -7.1875 0.9375 C-6.47980469 0.55464844 -5.77210938 0.17179687 -5.04296875 -0.22265625 C-3 -1 -3 -1 0 0 Z " fill="#FBEAE9" transform="translate(169,49)"/>
<path d="M0 0 C0.79019531 0.433125 1.58039063 0.86625 2.39453125 1.3125 C14.24231316 7.16191918 26.08020149 7.50528144 39 5 C34.19488407 10.60596858 26.66540262 12.5745227 19.54516602 13.22387695 C16.90149122 13.33921264 14.27116204 13.37881463 11.625 13.375 C10.23825073 13.37693359 10.23825073 13.37693359 8.82348633 13.37890625 C2.26320283 13.27695394 -3.28354653 12.45144361 -9 9 C-7 8 -7 8 -4.9375 8.4375 C-0.97296125 9.19666699 2.97261138 9.28291573 7 9 C7.33 8.67 7.66 8.34 8 8 C7.01 7.34 6.02 6.68 5 6 C5 5.34 5 4.68 5 4 C4.01 4 3.02 4 2 4 C2 3.34 2 2.68 2 2 C1.34 2 0.68 2 0 2 C0 1.34 0 0.68 0 0 Z " fill="#EDC916" transform="translate(162,291)"/>
<path d="M0 0 C2.31 0.66 4.62 1.32 7 2 C7 2.66 7 3.32 7 4 C8.0828125 4.4021875 8.0828125 4.4021875 9.1875 4.8125 C11.97590126 5.98982498 14.44095724 7.39145884 17 9 C17 8.01 17 7.02 17 6 C17.66 6 18.32 6 19 6 C19 7.32 19 8.64 19 10 C16.36 9.67 13.72 9.34 11 9 C11 9.99 11 10.98 11 12 C11.66 12 12.32 12 13 12 C13 13.98 13 15.96 13 18 C12.01 18.33 11.02 18.66 10 19 C10.33 19.598125 10.66 20.19625 11 20.8125 C12 23 12 23 12 26 C9.03 26.66 6.06 27.32 3 28 C3.33 27.34 3.66 26.68 4 26 C5.33333333 25.66666667 6.66666667 25.33333333 8 25 C8.33 24.34 8.66 23.68 9 23 C8.45472656 22.82984375 7.90945312 22.6596875 7.34765625 22.484375 C1.71615022 20.67459186 -3.63939569 18.49654622 -9 16 C-9 15.67 -9 15.34 -9 15 C-6.62492145 14.97280444 -4.25016036 14.95306753 -1.875 14.9375 C-0.87726563 14.92493164 -0.87726563 14.92493164 0.140625 14.91210938 C4.20681354 14.89217708 8.0120092 15.21109839 12 16 C11.55269531 15.49210938 11.10539062 14.98421875 10.64453125 14.4609375 C8.75733797 12.31219291 6.87770788 10.15703633 5 8 C4.47921875 7.40703125 3.9584375 6.8140625 3.421875 6.203125 C0 2.23060345 0 2.23060345 0 0 Z " fill="#E6C71B" transform="translate(198,226)"/>
<path d="M0 0 C1.8359375 1.66796875 1.8359375 1.66796875 3 3 C2.13036621 2.83701416 1.26073242 2.67402832 0.36474609 2.50610352 C-2.77223578 2.03425883 -5.66904654 1.88531745 -8.8359375 1.90234375 C-10.43115234 1.90717773 -10.43115234 1.90717773 -12.05859375 1.91210938 C-13.70021484 1.92467773 -13.70021484 1.92467773 -15.375 1.9375 C-16.49261719 1.94201172 -17.61023438 1.94652344 -18.76171875 1.95117188 C-21.50786804 1.96290756 -24.25390586 1.97932637 -27 2 C-26.67 1.34 -26.34 0.68 -26 0 C-29.22791555 -2.1519437 -30.28400809 -2.20086443 -34 -2 C-34.33 -1.01 -34.66 -0.02 -35 1 C-38.96 1 -42.92 1 -47 1 C-36.14176698 -9.85823302 -12.17362528 -7.0384967 0 0 Z " fill="#F7CF11" transform="translate(198,201)"/>
<path d="M0 0 C1.81495662 0.44850658 3.62693134 0.90909571 5.4375 1.375 C6.44683594 1.63023437 7.45617187 1.88546875 8.49609375 2.1484375 C11 3 11 3 12 5 C9.10388456 4.85865273 6.2081919 4.7120847 3.3125 4.5625 C2.49587891 4.52318359 1.67925781 4.48386719 0.83789062 4.44335938 C-3.19655811 4.23101997 -7.05747309 3.95552078 -11 3 C-11 3.66 -11 4.32 -11 5 C-10.34 5 -9.68 5 -9 5 C-7.77142025 6.69344776 -6.54849712 8.39167337 -5.37109375 10.12109375 C-3.89203669 12.24947545 -3.89203669 12.24947545 -1.25 14.75 C1 17 1 17 2 20 C-2.04301175 18.51481201 -5.61146256 16.57122002 -9.3125 14.375 C-10.38113281 13.74335938 -11.44976562 13.11171875 -12.55078125 12.4609375 C-13.35902344 11.97882813 -14.16726562 11.49671875 -15 11 C-14.72285156 12.16917969 -14.44570312 13.33835937 -14.16015625 14.54296875 C-13.79422599 16.09113523 -13.42834307 17.63931291 -13.0625 19.1875 C-12.88009766 19.95642578 -12.69769531 20.72535156 -12.50976562 21.51757812 C-11.60879887 25.33440092 -10.73362003 29.14656426 -10 33 C-13.27286682 30.2180632 -14.96427697 26.72045933 -17 23 C-16.34 23 -15.68 23 -15 23 C-15.27540704 19.18186553 -15.27540704 19.18186553 -17 16 C-17.04092937 13.66702567 -17.04241723 11.33294775 -17 9 C-15.35 9 -13.7 9 -12 9 C-12 6.69 -12 4.38 -12 2 C-6.06 1.505 -6.06 1.505 0 1 C0 0.67 0 0.34 0 0 Z " fill="#E3C51F" transform="translate(254,255)"/>
<path d="M0 0 C3.28355153 3.28355153 3.30248453 4.34306593 3.68359375 8.74609375 C4.0301228 11.21457847 4.72120486 13.3436126 5.5625 15.6875 C6.71506209 18.9213878 7.33634597 21.52442495 7 25 C3.4124787 23.66749209 0.1635377 22.169283 -3 20 C-3 19.34 -3 18.68 -3 18 C-3.78375 17.855625 -4.5675 17.71125 -5.375 17.5625 C-8 17 -8 17 -10 16 C-8.68 18.31 -7.36 20.62 -6 23 C-6.66 23 -7.32 23 -8 23 C-8 22.34 -8 21.68 -8 21 C-9.32 21 -10.64 21 -12 21 C-11.67 19.68 -11.34 18.36 -11 17 C-12.32 16.67 -13.64 16.34 -15 16 C-15.33 14.35 -15.66 12.7 -16 11 C-13.39417629 10.06934867 -12.35801776 9.85082593 -9.75 10.9375 C-9.1725 11.288125 -8.595 11.63875 -8 12 C-8 12.99 -8 13.98 -8 15 C-4.65976579 15.09278428 -2.31243305 14.82810826 1 14 C0.67 9.38 0.34 4.76 0 0 Z " fill="#21444C" transform="translate(208,210)"/>
<path d="M0 0 C-0.99 1.485 -0.99 1.485 -2 3 C-4.625 3.1875 -4.625 3.1875 -7 3 C-7 4.65 -7 6.3 -7 8 C-4.46874724 9.41750155 -2.27509226 10.1907652 0.5625 10.9375 C3.74136983 11.92005977 5.0201464 12.43783652 7 15 C6.67 15.66 6.34 16.32 6 17 C0.39 17 -5.22 17 -11 17 C-11 18.32 -11 19.64 -11 21 C-10.34 21 -9.68 21 -9 21 C-8.67 22.32 -8.34 23.64 -8 25 C-11.79379058 23.50958227 -13.68343758 21.30937488 -16 18 C-16 17.34 -16 16.68 -16 16 C-16.66 16 -17.32 16 -18 16 C-18 15.34 -18 14.68 -18 14 C-10.74 14.33 -3.48 14.66 4 15 C1.81375 14.236875 -0.3725 13.47375 -2.625 12.6875 C-7.27093205 11.06580674 -11.64080784 9.28689927 -16 7 C-15.67 6.01 -15.34 5.02 -15 4 C-12.12890625 2.578125 -12.12890625 2.578125 -8.5625 1.25 C-7.38816406 0.80140625 -6.21382812 0.3528125 -5.00390625 -0.109375 C-2 -1 -2 -1 0 0 Z " fill="#173D4F" transform="translate(261,244)"/>
<path d="M0 0 C4.7548961 2.25231921 9.17387403 4.90326692 13.6328125 7.6953125 C15.80178813 8.89075451 17.58213207 9.54316781 20 10 C20 10.99 20 11.98 20 13 C19.13375 12.67 18.2675 12.34 17.375 12 C14.04281725 11.01268659 11.44840462 10.83579026 8 11 C7.34 12.32 6.68 13.64 6 15 C6.66 15 7.32 15 8 15 C8 15.66 8 16.32 8 17 C7.34 17 6.68 17 6 17 C6.33 17.66 6.66 18.32 7 19 C7.039992 20.99960012 7.04346799 23.00047242 7 25 C5.35 24.67 3.7 24.34 2 24 C2 22.35 2 20.7 2 19 C1.01 18.67 0.02 18.34 -1 18 C-0.67 16.68 -0.34 15.36 0 14 C1.65 16.64 3.3 19.28 5 22 C4.72285156 20.91460937 4.44570312 19.82921875 4.16015625 18.7109375 C3.7941437 17.26565719 3.4282654 15.82034288 3.0625 14.375 C2.88009766 13.66214844 2.69769531 12.94929688 2.50976562 12.21484375 C1.48683201 8.16030687 0.62042633 4.14052941 0 0 Z " fill="#01375F" transform="translate(238,265)"/>
<path d="M0 0 C0.33 1.98 0.66 3.96 1 6 C1.66 4.68 2.32 3.36 3 2 C3.99 2 4.98 2 6 2 C6 5 6 5 3.9375 7.5625 C0.63497366 10.30289419 -1.92124658 10.83464188 -6 12 C-7.65 13.65 -9.3 15.3 -11 17 C-5.06 17.33 0.88 17.66 7 18 C6.34 18.33 5.68 18.66 5 19 C5 19.66 5 20.32 5 21 C4.42926758 20.83701416 3.85853516 20.67402832 3.27050781 20.50610352 C0.98346733 19.99631481 -0.98964456 19.88564032 -3.328125 19.90234375 C-4.52695313 19.90717773 -4.52695313 19.90717773 -5.75 19.91210938 C-6.575 19.92048828 -7.4 19.92886719 -8.25 19.9375 C-9.09046875 19.94201172 -9.9309375 19.94652344 -10.796875 19.95117188 C-12.86461401 19.96292039 -14.93231624 19.98085478 -17 20 C-15.3383196 15.87582937 -12.37661982 12.93445961 -9.375 9.75 C-8.859375 9.19570312 -8.34375 8.64140625 -7.8125 8.0703125 C-6.54574965 6.7097288 -5.27342185 5.35434163 -4 4 C-4.66 3.67 -5.32 3.34 -6 3 C-6 2.34 -6 1.68 -6 1 C-3 0 -3 0 0 0 Z " fill="#043764" transform="translate(260,222)"/>
<path d="M0 0 C1.28777344 -0.01836914 1.28777344 -0.01836914 2.6015625 -0.03710938 C3.4265625 -0.03904297 4.2515625 -0.04097656 5.1015625 -0.04296875 C5.85002441 -0.04707764 6.59848633 -0.05118652 7.36962891 -0.05541992 C9.375 0.1875 9.375 0.1875 12.375 2.1875 C3.795 2.1875 -4.785 2.1875 -13.625 2.1875 C-13.625 2.8475 -13.625 3.5075 -13.625 4.1875 C-14.285 4.1875 -14.945 4.1875 -15.625 4.1875 C-15.625 6.1675 -15.625 8.1475 -15.625 10.1875 C-20.4900343 13.30112195 -22.82624059 14.1875 -28.625 14.1875 C-30.87565102 16.10416921 -30.87565102 16.10416921 -32.625 18.1875 C-33.285 18.1875 -33.945 18.1875 -34.625 18.1875 C-32.53794212 12.24741219 -29.92176297 10.33651348 -24.625 7.1875 C-23.8 6.66929687 -22.975 6.15109375 -22.125 5.6171875 C-21.3 5.10414063 -20.475 4.59109375 -19.625 4.0625 C-18.8 3.54429687 -17.975 3.02609375 -17.125 2.4921875 C-11.68910142 -0.34467207 -5.99390495 0.00454084 0 0 Z " fill="#264950" transform="translate(185.625,201.8125)"/>
<path d="M0 0 C0.99 0.33 1.98 0.66 3 1 C3.33 4.96 3.66 8.92 4 13 C7.79788698 14.12126781 7.79788698 14.12126781 11 14 C11 13.01 11 12.02 11 11 C11.66 11 12.32 11 13 11 C12.35952602 14.44748958 11.00294981 16.84644185 9.0625 19.75 C8.53785156 20.54921875 8.01320312 21.3484375 7.47265625 22.171875 C6.98667969 22.77515625 6.50070313 23.3784375 6 24 C5.34 24 4.68 24 4 24 C2.3879491 17.23514355 1.73381405 10.95041086 2 4 C1.34 4 0.68 4 0 4 C-0.66 8.62 -1.32 13.24 -2 18 C-2.33 18 -2.66 18 -3 18 C-3 12.72 -3 7.44 -3 2 C-2.01 2 -1.02 2 0 2 C0 1.34 0 0.68 0 0 Z " fill="#193F47" transform="translate(226,206)"/>
<path d="M0 0 C1.07744247 3.23232741 0.97480162 3.84947792 0.00390625 6.94140625 C-0.22490234 7.68970703 -0.45371094 8.43800781 -0.68945312 9.20898438 C-0.93630859 9.98564453 -1.18316406 10.76230469 -1.4375 11.5625 C-3.25046892 16.69086281 -3.25046892 16.69086281 -4 22 C-3.34 22 -2.68 22 -2 22 C-2 22.66 -2 23.32 -2 24 C-3.32 24 -4.64 24 -6 24 C-6.33 22.02 -6.66 20.04 -7 18 C-8.98 18.66 -10.96 19.32 -13 20 C-15.60018816 16.09971775 -15.15085514 12.52565431 -15 8 C-14.67 8 -14.34 8 -14 8 C-13.67 11.3 -13.34 14.6 -13 18 C-10.03095494 15.22974629 -7.94991497 12.52038458 -5.9375 9 C-4.11929604 5.83622866 -2.2456492 2.87869572 0 0 Z " fill="#D1B924" transform="translate(243,212)"/>
<path d="M0 0 C-0.75 4.75 -0.75 4.75 -3 7 C-3.33 7.66 -3.66 8.32 -4 9 C-6.93300669 10.0317435 -9.66212836 10.10790988 -12.75 10.0625 C-13.54921875 10.05347656 -14.3484375 10.04445313 -15.171875 10.03515625 C-15.77515625 10.02355469 -16.3784375 10.01195312 -17 10 C-17 10.66 -17 11.32 -17 12 C-26.24 12 -35.48 12 -45 12 C-45 11.34 -45 10.68 -45 10 C-46.32 10 -47.64 10 -49 10 C-49 9.34 -49 8.68 -49 8 C-48.05769531 8.32355469 -47.11539063 8.64710938 -46.14453125 8.98046875 C-41.34408975 10.34495715 -36.64803019 10.33030521 -31.6875 10.3125 C-30.3581543 10.33666992 -30.3581543 10.33666992 -29.00195312 10.36132812 C-20.25635588 10.36770712 -12.6640811 8.23541324 -5 4 C-5 3.34 -5 2.68 -5 2 C-2 0 -2 0 0 0 Z " fill="#254742" transform="translate(205,293)"/>
<path d="M0 0 C0 0.66 0 1.32 0 2 C-0.66 2 -1.32 2 -2 2 C-2.20625 2.556875 -2.4125 3.11375 -2.625 3.6875 C-4.55000774 6.92501302 -7.03850902 8.68231141 -10 11 C-10.79953138 7.71303767 -11.09658936 6.28976808 -10 3 C-13.63 3 -17.26 3 -21 3 C-20.67 2.34 -20.34 1.68 -20 1 C-13.50927229 -0.38993361 -6.60476723 -0.12647427 0 0 Z " fill="#093553" transform="translate(210,258)"/>
<path d="M0 0 C0.33 0.66 0.66 1.32 1 2 C1.57524414 1.83701416 2.15048828 1.67402832 2.74316406 1.50610352 C4.95708107 1.00962472 6.84673797 0.88520256 9.109375 0.90234375 C9.86347656 0.90556641 10.61757812 0.90878906 11.39453125 0.91210938 C12.17183594 0.92048828 12.94914063 0.92886719 13.75 0.9375 C14.54277344 0.94201172 15.33554687 0.94652344 16.15234375 0.95117188 C18.10159508 0.96291435 20.05080738 0.98084854 22 1 C19.59816164 2.60122557 17.84821846 3.53585561 15.20703125 4.5078125 C14.49482422 4.77207031 13.78261719 5.03632813 13.04882812 5.30859375 C12.31083984 5.57800781 11.57285156 5.84742188 10.8125 6.125 C10.06291016 6.40214844 9.31332031 6.67929688 8.54101562 6.96484375 C6.69529041 7.64670402 4.84781213 8.32381559 3 9 C3.33 8.01 3.66 7.02 4 6 C2.35 5.01 0.7 4.02 -1 3 C-0.67 2.01 -0.34 1.02 0 0 Z " fill="#ECCA1D" transform="translate(242,240)"/>
<path d="M0 0 C5.19644079 1.59890486 10.06612142 3.74138003 15 6 C14.67 6.99 14.34 7.98 14 9 C11.39231738 10.18450668 8.88180426 11.18682581 6.1875 12.125 C5.46240234 12.38925781 4.73730469 12.65351563 3.99023438 12.92578125 C0.68345011 14.1177968 -2.57777889 15.18588661 -6 16 C-6 15.34 -6 14.68 -6 14 C-3.36 13.34 -0.72 12.68 2 12 C2 11.34 2 10.68 2 10 C2.66 9.67 3.32 9.34 4 9 C3.67 8.34 3.34 7.68 3 7 C4.32 7 5.64 7 7 7 C7 6.01 7 5.02 7 4 C5.68 4 4.36 4 3 4 C3 3.34 3 2.68 3 2 C2.01 2 1.02 2 0 2 C0 1.34 0 0.68 0 0 Z " fill="#1D4148" transform="translate(192,243)"/>
<path d="M0 0 C-1.32586469 0.80411238 -2.66123831 1.59254807 -4 2.375 C-4.7425 2.81585938 -5.485 3.25671875 -6.25 3.7109375 C-13.14695218 6.94388384 -19.87459192 7.38581237 -27.375 7.375 C-28.76174927 7.37693359 -28.76174927 7.37693359 -30.17651367 7.37890625 C-36.73679717 7.27695394 -42.28354653 6.45144361 -48 3 C-46 2 -46 2 -44.25 2.55859375 C-43.5075 2.84863281 -42.765 3.13867188 -42 3.4375 C-36.85759457 5.08397191 -32.09672501 5.27658173 -26.75 5.25 C-25.98171875 5.24669678 -25.2134375 5.24339355 -24.421875 5.23999023 C-20.18729587 5.17060857 -16.1687978 4.82313842 -12 4 C-12 3.34 -12 2.68 -12 2 C-14.31 2 -16.62 2 -19 2 C-19 1.67 -19 1.34 -19 1 C-18.09636719 0.93941406 -17.19273437 0.87882812 -16.26171875 0.81640625 C-14.49248047 0.69072266 -14.49248047 0.69072266 -12.6875 0.5625 C-10.92986328 0.44068359 -10.92986328 0.44068359 -9.13671875 0.31640625 C-1.39388145 -0.46462715 -1.39388145 -0.46462715 0 0 Z " fill="#B3A832" transform="translate(201,297)"/>
<path d="M0 0 C2.31583452 4.47728007 3.09961056 7.76348972 3 12.8125 C2.95746992 17.59713382 3.11844142 22.29301778 3.5 27.0625 C4.00417352 33.38952261 4.10457205 39.65596207 4 46 C3.67 46 3.34 46 3 46 C0.26084651 30.70860915 -0.18769207 15.49502341 0 0 Z " fill="#062445" transform="translate(32,242)"/>
<path d="M0 0 C-0.99 1.485 -0.99 1.485 -2 3 C-4.625 3.1875 -4.625 3.1875 -7 3 C-7 4.65 -7 6.3 -7 8 C-3.535 9.98 -3.535 9.98 0 12 C-0.99 12.495 -0.99 12.495 -2 13 C-4.43557572 12.09176973 -6.76195517 11.13171929 -9.125 10.0625 C-9.78371094 9.77181641 -10.44242188 9.48113281 -11.12109375 9.18164062 C-12.75049505 8.46139802 -14.37566132 7.73158857 -16 7 C-15.67 6.01 -15.34 5.02 -15 4 C-12.12890625 2.578125 -12.12890625 2.578125 -8.5625 1.25 C-7.38816406 0.80140625 -6.21382812 0.3528125 -5.00390625 -0.109375 C-2 -1 -2 -1 0 0 Z " fill="#274842" transform="translate(261,244)"/>
<path d="M0 0 C0 3 0 3 -1.35546875 4.61328125 C-2.26232422 5.45439453 -2.26232422 5.45439453 -3.1875 6.3125 C-6.39511259 9.37668275 -9.21992289 12.5459648 -12 16 C-12.66 14.68 -13.32 13.36 -14 12 C-12.68 12 -11.36 12 -10 12 C-10 11.01 -10 10.02 -10 9 C-11.65 9.33 -13.3 9.66 -15 10 C-13 7 -13 7 -10.375 6.3125 C-9.59125 6.209375 -8.8075 6.10625 -8 6 C-8 5.34 -8 4.68 -8 4 C-5.36 2.68 -2.72 1.36 0 0 Z " fill="#DBC127" transform="translate(256,224)"/>
<path d="M0 0 C2.40201504 4.19879794 2.15864149 7.24075541 2 12 C1.34 12 0.68 12 0 12 C-0.33 11.01 -0.66 10.02 -1 9 C-1.66 8.67 -2.32 8.34 -3 8 C-3.33 10.31 -3.66 12.62 -4 15 C-5.32 14.67 -6.64 14.34 -8 14 C-6.58036591 8.32146365 -3.60636039 4.46825784 0 0 Z " fill="#1D414F" transform="translate(222,268)"/>
<path d="M0 0 C0.33 0 0.66 0 1 0 C0.83628906 1.051875 0.67257813 2.10375 0.50390625 3.1875 C-0.23675732 9.11280857 -0.10688691 15.03849689 -0.0625 21 C-0.05798828 22.15628906 -0.05347656 23.31257813 -0.04882812 24.50390625 C-0.03712529 27.33599225 -0.02072996 30.16796811 0 33 C-0.66 33 -1.32 33 -2 33 C-2.8560993 27.79491625 -3.18278481 22.77158038 -3.1875 17.5 C-3.19974609 16.77941406 -3.21199219 16.05882812 -3.22460938 15.31640625 C-3.23957087 9.80060169 -2.50014917 5.00029834 0 0 Z " fill="#3F553E" transform="translate(125,231)"/>
<path d="M0 0 C1.26972656 -0.00257813 2.53945312 -0.00515625 3.84765625 -0.0078125 C5.16636719 -0.00007812 6.48507813 0.00765625 7.84375 0.015625 C9.16246094 0.00789062 10.48117188 0.00015625 11.83984375 -0.0078125 C13.10957031 -0.00523437 14.37929687 -0.00265625 15.6875 0 C16.84443359 0.00225586 18.00136719 0.00451172 19.19335938 0.00683594 C22.31271267 0.26307544 24.52951974 0.93763537 27.34375 2.265625 C27.01375 2.925625 26.68375 3.585625 26.34375 4.265625 C19.59375 3.390625 19.59375 3.390625 17.34375 2.265625 C13.99599886 1.99751242 10.6385286 2.03395826 7.28125 2.015625 C6.36408203 1.995 5.44691406 1.974375 4.50195312 1.953125 C-1.75963772 1.91762342 -6.85881359 2.89626125 -12.65625 5.265625 C-11.65625 2.265625 -11.65625 2.265625 -9.50976562 1.09472656 C-6.22112276 0.13919686 -3.42453753 0.00667737 0 0 Z " fill="#344F3C" transform="translate(167.65625,194.734375)"/>
<path d="M0 0 C0.66 0 1.32 0 2 0 C3.22857975 1.69344776 4.45150288 3.39167337 5.62890625 5.12109375 C7.10796331 7.24947545 7.10796331 7.24947545 9.75 9.75 C12 12 12 12 13 15 C8.22390502 13.35821735 4.20617096 10.73453298 0 8 C0.99 7.67 1.98 7.34 3 7 C3 6.01 3 5.02 3 4 C2.01 4 1.02 4 0 4 C0 2.68 0 1.36 0 0 Z " fill="#D1BD2D" transform="translate(243,260)"/>
<path d="M0 0 C1.02556195 3.45652361 0.7734238 6.08048276 0.265625 9.6484375 C-0.47355564 16.19236024 -0.61859663 21.9093382 2 28 C2.39011428 29.51201154 2.74603785 31.03337615 3.0625 32.5625 C3.65575526 35.3914941 4.28245689 38.1996769 5 41 C-0.09919586 36.70440235 -1.58617669 29.25162266 -2.20849609 22.85791016 C-2.32494085 20.63071992 -2.37229649 18.41765165 -2.375 16.1875 C-2.37653076 15.4951123 -2.37806152 14.80272461 -2.37963867 14.08935547 C-2.27404046 9.14452747 -1.33262883 4.76015017 0 0 Z " fill="#274339" transform="translate(143,234)"/>
<path d="M0 0 C0.66 0 1.32 0 2 0 C2 2.64 2 5.28 2 8 C1.34 8 0.68 8 0 8 C-0.06058594 8.83144531 -0.12117187 9.66289062 -0.18359375 10.51953125 C-0.26738281 11.60621094 -0.35117188 12.69289062 -0.4375 13.8125 C-0.51871094 14.89144531 -0.59992188 15.97039062 -0.68359375 17.08203125 C-1 20 -1 20 -2 23 C-3.65 22.67 -5.3 22.34 -7 22 C-7.33 20.02 -7.66 18.04 -8 16 C-6.29159719 17.63412443 -5.06546953 18.86906094 -4 21 C-3.87153687 20.15236084 -3.87153687 20.15236084 -3.74047852 19.28759766 C-3.35130182 16.73285367 -2.95696515 14.17893253 -2.5625 11.625 C-2.42779297 10.73554688 -2.29308594 9.84609375 -2.15429688 8.9296875 C-2.02216797 8.07890625 -1.89003906 7.228125 -1.75390625 6.3515625 C-1.63345947 5.56604004 -1.5130127 4.78051758 -1.38891602 3.97119141 C-1 2 -1 2 0 0 Z " fill="#C0B22B" transform="translate(226,210)"/>
<path d="M0 0 C0.33 0 0.66 0 1 0 C0.98839844 0.74765625 0.97679687 1.4953125 0.96484375 2.265625 C0.95582031 3.25046875 0.94679687 4.2353125 0.9375 5.25 C0.92589844 6.22453125 0.91429687 7.1990625 0.90234375 8.203125 C0.98804423 10.65758678 1.29293934 12.66168914 2 15 C0.35 15.33 -1.3 15.66 -3 16 C-3.33 17.98 -3.66 19.96 -4 22 C-3.34 22.33 -2.68 22.66 -2 23 C-3.98 23.99 -3.98 23.99 -6 25 C-5.01140088 18.77764083 -3.77570154 12.88953666 -1.6640625 6.94921875 C-0.8855202 4.66396813 -0.38420439 2.38206722 0 0 Z " fill="#194353" transform="translate(244,210)"/>
<path d="M0 0 C3.39417765 3.12621626 5.6062718 5.56541027 7 10 C6.01 9.67 5.02 9.34 4 9 C4 8.34 4 7.68 4 7 C3.01 7.33 2.02 7.66 1 8 C0.34 12.95 -0.32 17.9 -1 23 C-1.66 23 -2.32 23 -3 23 C-2.6902353 20.1038504 -2.37728812 17.20810424 -2.0625 14.3125 C-1.97548828 13.49587891 -1.88847656 12.67925781 -1.79882812 11.83789062 C-1.36241272 7.84549781 -0.88697624 3.92347148 0 0 Z " fill="#2E4939" transform="translate(230,269)"/>
<path d="M0 0 C0.90105469 0.00902344 1.80210937 0.01804688 2.73046875 0.02734375 C3.41753906 0.03894531 4.10460937 0.05054688 4.8125 0.0625 C1.0625 3.0625 1.0625 3.0625 -1.1875 3.0625 C-1.1875 3.7225 -1.1875 4.3825 -1.1875 5.0625 C-4.09350261 6.31914978 -5.98354584 7.0625 -9.1875 7.0625 C-8.8575 5.0825 -8.5275 3.1025 -8.1875 1.0625 C-5.17259443 0.05753148 -3.14568308 -0.04085303 0 0 Z " fill="#0F3A58" transform="translate(249.1875,224.9375)"/>
<path d="M0 0 C-0.45196245 1.60597325 -0.91182327 3.20972508 -1.375 4.8125 C-1.63023437 5.70582031 -1.88546875 6.59914063 -2.1484375 7.51953125 C-3 10 -3 10 -5 13 C-5.33 10.69 -5.66 8.38 -6 6 C-6.5775 6.350625 -7.155 6.70125 -7.75 7.0625 C-10.39786506 8.16577711 -11.33185326 7.80156509 -14 7 C-13.45730469 6.66226562 -12.91460937 6.32453125 -12.35546875 5.9765625 C-11.64003906 5.53054688 -10.92460937 5.08453125 -10.1875 4.625 C-9.47980469 4.18414062 -8.77210938 3.74328125 -8.04296875 3.2890625 C-2.83030303 0 -2.83030303 0 0 0 Z " fill="#324F3C" transform="translate(216,265)"/>
<path d="M0 0 C1 2 1 2 0 6 C5.94 6.33 11.88 6.66 18 7 C17.01 7.495 17.01 7.495 16 8 C16 8.66 16 9.32 16 10 C15.42926758 9.83701416 14.85853516 9.67402832 14.27050781 9.50610352 C11.98346733 8.99631481 10.01035544 8.88564032 7.671875 8.90234375 C6.47304687 8.90717773 6.47304687 8.90717773 5.25 8.91210938 C4.425 8.92048828 3.6 8.92886719 2.75 8.9375 C1.90953125 8.94201172 1.0690625 8.94652344 0.203125 8.95117188 C-1.86461401 8.96292039 -3.93231624 8.98085478 -6 9 C-4.38617243 5.59787701 -2.41396234 2.89675481 0 0 Z " fill="#3D543A" transform="translate(249,233)"/>
<path d="M0 0 C0 0.33 0 0.66 0 1 C-0.84763916 1.03758423 -0.84763916 1.03758423 -1.71240234 1.07592773 C-4.26683742 1.19179956 -6.8208955 1.31456537 -9.375 1.4375 C-10.26445312 1.47681641 -11.15390625 1.51613281 -12.0703125 1.55664062 C-12.92109375 1.59853516 -13.771875 1.64042969 -14.6484375 1.68359375 C-15.43395996 1.72025146 -16.21948242 1.75690918 -17.02880859 1.79467773 C-19.07523496 1.890891 -19.07523496 1.890891 -21 3 C-21.33 3.99 -21.66 4.98 -22 6 C-25.96 6 -29.92 6 -34 6 C-25.45424975 -2.54575025 -11.03784936 -0.39964362 0 0 Z " fill="#CBB928" transform="translate(185,196)"/>
<path d="M0 0 C1.53445094 3.06890187 0.54984289 5.70094266 0 9 C0.99 7.35 1.98 5.7 3 4 C4.27351308 6.54702616 3.80191925 7.4282945 3.0625 10.125 C2.86785156 10.84945313 2.67320312 11.57390625 2.47265625 12.3203125 C2.23869141 13.15175781 2.23869141 13.15175781 2 14 C0.35 14 -1.3 14 -3 14 C-3.58718592 10.65559323 -4.05863115 7.40060685 -4 4 C-2.0625 1.375 -2.0625 1.375 0 0 Z " fill="#1B4654" transform="translate(210,278)"/>
<path d="M0 0 C0.66 0 1.32 0 2 0 C2.70180531 1.4096347 3.38593958 2.82807641 4.0625 4.25 C4.44535156 5.03890625 4.82820312 5.8278125 5.22265625 6.640625 C6.08564091 9.25993522 5.93045933 10.44855176 5 13 C1.36440339 9.56638098 -1.36113346 6.2026393 -4 2 C-2.68 2.33 -1.36 2.66 0 3 C0 2.01 0 1.02 0 0 Z " fill="#EAC917" transform="translate(234,266)"/>
<path d="M0 0 C3 1 3 1 5 3 C5.66 3 6.32 3 7 3 C7.18175781 3.84884766 7.18175781 3.84884766 7.3671875 4.71484375 C7.53476563 5.44832031 7.70234375 6.18179688 7.875 6.9375 C8.11863281 8.03384766 8.11863281 8.03384766 8.3671875 9.15234375 C8.82961523 11.20700294 8.82961523 11.20700294 11 12 C11.33 11.34 11.66 10.68 12 10 C12 12.64 12 15.28 12 18 C9.21234235 15.4696646 7.32536505 12.60660199 5.3125 9.4375 C4.68988281 8.46683594 4.06726563 7.49617187 3.42578125 6.49609375 C2 4 2 4 2 2 C1.34 2 0.68 2 0 2 C0 1.34 0 0.68 0 0 Z " fill="#2F4931" transform="translate(211,214)"/>
<path d="M0 0 C0 0.99 0 1.98 0 3 C-0.8971875 3.061875 -0.8971875 3.061875 -1.8125 3.125 C-4.32599124 3.83841974 -4.32599124 3.83841974 -5.3125 6.875 C-7.5225489 10.96768315 -9.71174325 11.46847973 -14 13 C-14.99 13.66 -15.98 14.32 -17 15 C-15.4614092 11.19263971 -13.12165284 9.06130455 -10.0625 6.375 C-9.18722656 5.59898437 -8.31195313 4.82296875 -7.41015625 4.0234375 C-2.61776062 0 -2.61776062 0 0 0 Z " fill="#C6B026" transform="translate(151,202)"/>
<path d="M0 0 C0.33 0.66 0.66 1.32 1 2 C0.67 2.66 0.34 3.32 0 4 C1.32 4.33 2.64 4.66 4 5 C2.39805929 5.98280415 0.79336258 6.96111717 -0.8125 7.9375 C-1.70582031 8.48277344 -2.59914062 9.02804687 -3.51953125 9.58984375 C-6 11 -6 11 -9 12 C-7.55575365 8.76138697 -5.74227753 6.38030837 -3.375 3.75 C-2.74335938 3.04359375 -2.11171875 2.3371875 -1.4609375 1.609375 C-0.97882813 1.07828125 -0.49671875 0.5471875 0 0 Z " fill="#C4B535" transform="translate(205,264)"/>
<path d="M0 0 C2.97 0.495 2.97 0.495 6 1 C4.68 3.31 3.36 5.62 2 8 C3.32 7.01 4.64 6.02 6 5 C6.66 5.33 7.32 5.66 8 6 C7.01 7.485 7.01 7.485 6 9 C2.375 9.6875 2.375 9.6875 -1 10 C-1 8.68 -1 7.36 -1 6 C-0.34 6 0.32 6 1 6 C0.67 4.02 0.34 2.04 0 0 Z " fill="#143D52" transform="translate(194,268)"/>
<path d="M0 0 C2 1.375 2 1.375 4 3 C4 3.66 4 4.32 4 5 C-1.94 5 -7.88 5 -14 5 C-14 5.33 -14 5.66 -14 6 C-15.98 6 -17.96 6 -20 6 C-20 5.01 -20 4.02 -20 3 C-13.4 3 -6.8 3 0 3 C0 2.01 0 1.02 0 0 Z " fill="#394E32" transform="translate(206,237)"/>
<path d="M0 0 C11.70615034 2.89066059 11.70615034 2.89066059 16 6 C13 7 13 7 10 6 C7.60745424 5.77439324 5.21071877 5.59151405 2.8125 5.4375 C1.54019531 5.35371094 0.26789063 5.26992187 -1.04296875 5.18359375 C-2.01878906 5.12300781 -2.99460938 5.06242188 -4 5 C-4 4.67 -4 4.34 -4 4 C-0.535 3.505 -0.535 3.505 3 3 C2.01 2.01 1.02 1.02 0 0 Z " fill="#C0B43A" transform="translate(185,197)"/>
<path d="M0 0 C2 1 2 1 3.125 4.1875 C3.91680237 7.63749602 4.1714979 10.484293 4 14 C2.35 13.67 0.7 13.34 -1 13 C-1 11.35 -1 9.7 -1 8 C-1.99 7.67 -2.98 7.34 -4 7 C-3.67 5.68 -3.34 4.36 -3 3 C-1.35 5.64 0.3 8.28 2 11 C1.67 9.9275 1.34 8.855 1 7.75 C0 4 0 4 0 0 Z " fill="#325044" transform="translate(241,276)"/>
<path d="M0 0 C0.33 0.66 0.66 1.32 1 2 C1.57524414 1.83701416 2.15048828 1.67402832 2.74316406 1.50610352 C4.95708107 1.00962472 6.84673797 0.88520256 9.109375 0.90234375 C9.86347656 0.90556641 10.61757812 0.90878906 11.39453125 0.91210938 C12.17183594 0.92048828 12.94914063 0.92886719 13.75 0.9375 C14.54277344 0.94201172 15.33554687 0.94652344 16.15234375 0.95117188 C18.10159508 0.96291435 20.05080738 0.98084854 22 1 C16.83743097 4.44171269 12.19864958 4.06294977 6.1875 3.5625 C5.14819336 3.48418945 5.14819336 3.48418945 4.08789062 3.40429688 C2.39145563 3.27560181 0.69565137 3.13863816 -1 3 C-0.67 2.01 -0.34 1.02 0 0 Z " fill="#C6B938" transform="translate(242,240)"/>
<path d="M0 0 C0.33 0.66 0.66 1.32 1 2 C1.66 2 2.32 2 3 2 C4.32421875 3.6796875 4.32421875 3.6796875 5.6875 5.875 C6.14511719 6.59429687 6.60273438 7.31359375 7.07421875 8.0546875 C7.53248047 9.01761719 7.53248047 9.01761719 8 10 C7.67 10.66 7.34 11.32 7 12 C6.34 11.67 5.68 11.34 5 11 C5 12.65 5 14.3 5 16 C3.13389074 13.20083611 2.31214617 11.18061731 1.375 8 C1.11460937 7.13375 0.85421875 6.2675 0.5859375 5.375 C0 3 0 3 0 0 Z " fill="#D5C133" transform="translate(210,214)"/>
<path d="M0 0 C5.94 0 11.88 0 18 0 C18 0.99 18 1.98 18 3 C18.66 3.33 19.32 3.66 20 4 C12.57142857 6.42857143 12.57142857 6.42857143 9 5 C10.65 4.67 12.3 4.34 14 4 C14 3.34 14 2.68 14 2 C7.07 1.505 7.07 1.505 0 1 C0 0.67 0 0.34 0 0 Z " fill="#113B54" transform="translate(251,239)"/>
<path d="M0 0 C0.99 0 1.98 0 3 0 C3 0.99 3 1.98 3 3 C3.66 3 4.32 3 5 3 C5 4.65 5 6.3 5 8 C5.66 8 6.32 8 7 8 C7 8.99 7 9.98 7 11 C7.66 11 8.32 11 9 11 C9.33 13.31 9.66 15.62 10 18 C6.7138046 15.26992997 5.13517398 11.64211324 3.3125 7.875 C2.99216797 7.22917969 2.67183594 6.58335937 2.34179688 5.91796875 C0 1.15448428 0 1.15448428 0 0 Z " fill="#8D1D1C" transform="translate(54,345)"/>
<path d="M0 0 C1.98 0 3.96 0 6 0 C6.25 2.3125 6.25 2.3125 6 5 C4 6.8125 4 6.8125 2 8 C2 7.01 2 6.02 2 5 C1.01 4.67 0.02 4.34 -1 4 C-0.67 2.68 -0.34 1.36 0 0 Z " fill="#C2221E" transform="translate(410,387)"/>
<path d="M0 0 C0 0.66 0 1.32 0 2 C-0.66 2 -1.32 2 -2 2 C-2.66 3.32 -3.32 4.64 -4 6 C-4.33 4.68 -4.66 3.36 -5 2 C-9.95 2 -14.9 2 -20 2 C-20 1.67 -20 1.34 -20 1 C-13.30386804 0.202163 -6.74233419 -0.12910853 0 0 Z " fill="#465C31" transform="translate(210,258)"/>
<path d="M0 0 C0 1.65 0 3.3 0 5 C-4.62 5.33 -9.24 5.66 -14 6 C-10.94997276 3.71247957 -9.2608271 2.52908046 -5.875 1.3125 C-5.19179687 1.06113281 -4.50859375 0.80976563 -3.8046875 0.55078125 C-2 0 -2 0 0 0 Z " fill="#BCAF42" transform="translate(200,254)"/>
<path d="M0 0 C0.99626083 3.17021017 0.96516845 5.4973489 0.44140625 8.765625 C0.30283203 9.65507812 0.16425781 10.54453125 0.02148438 11.4609375 C-0.12998047 12.38132812 -0.28144531 13.30171875 -0.4375 14.25 C-0.58509766 15.18585938 -0.73269531 16.12171875 -0.88476562 17.0859375 C-1.24947522 19.39184331 -1.62144974 21.69633288 -2 24 C-3.94158017 20.48375245 -4.18311068 18.0284349 -4 14 C-3.67 14 -3.34 14 -3 14 C-2.86722656 13.15695312 -2.73445312 12.31390625 -2.59765625 11.4453125 C-2.42105469 10.34960938 -2.24445313 9.25390625 -2.0625 8.125 C-1.88847656 7.03445313 -1.71445313 5.94390625 -1.53515625 4.8203125 C-1 2 -1 2 0 0 Z " fill="#B1AC43" transform="translate(229,270)"/>
<path d="M0 0 C1.98 0 3.96 0 6 0 C5.29875 0.556875 4.5975 1.11375 3.875 1.6875 C0.88655739 4.09124732 -2.05940238 6.53810432 -5 9 C-6.125 5.25 -6.125 5.25 -5 3 C-3.35 3 -1.7 3 0 3 C0 2.01 0 1.02 0 0 Z " fill="#173D4B" transform="translate(145,201)"/>
<path d="M0 0 C2.31 0.66 4.62 1.32 7 2 C7 2.66 7 3.32 7 4 C8.32 4.66 9.64 5.32 11 6 C9.68 6 8.36 6 7 6 C6.67 6.99 6.34 7.98 6 9 C4.99406757 7.8803014 3.9954151 6.7540588 3 5.625 C2.443125 4.99851563 1.88625 4.37203125 1.3125 3.7265625 C0 2 0 2 0 0 Z " fill="#CDBA2F" transform="translate(198,226)"/>
<path d="M0 0 C2.06365451 3.09548177 2.70846051 5.28892843 3.5625 8.875 C3.81128906 9.90367187 4.06007812 10.93234375 4.31640625 11.9921875 C4.92153884 14.65477088 5.48071863 17.31951904 6 20 C2.72713318 17.2180632 1.03572303 13.72045933 -1 10 C-0.34 10 0.32 10 1 10 C0.67 6.7 0.34 3.4 0 0 Z " fill="#B4AD45" transform="translate(238,268)"/>
<path d="M0 0 C2 1.25 2 1.25 4 3 C4 4.32 4 5.64 4 7 C-1.61 7 -7.22 7 -13 7 C-13 6.67 -13 6.34 -13 6 C-8.71 6 -4.42 6 0 6 C0 4.02 0 2.04 0 0 Z " fill="#123A50" transform="translate(202,233)"/>
<path d="M0 0 C0.33 1.98 0.66 3.96 1 6 C2.65 6.33 4.3 6.66 6 7 C6.33 7.99 6.66 8.98 7 10 C2.01987239 8.49087042 -1.24259942 5.44338151 -5 2 C-2 0 -2 0 0 0 Z " fill="#2F4B40" transform="translate(158,282)"/>
<path d="M0 0 C0.92069386 3.48815722 1.36297417 6.37025829 1 10 C-1 13.375 -1 13.375 -3 16 C-4.49828872 12.11764181 -3.43110582 9.56550712 -2.0625 5.75 C-1.68222656 4.67234375 -1.30195313 3.5946875 -0.91015625 2.484375 C-0.45962891 1.25460937 -0.45962891 1.25460937 0 0 Z " fill="#B3AD43" transform="translate(213,272)"/>
<path d="M0 0 C2.9375 0.8125 2.9375 0.8125 6 2 C6.33 2.99 6.66 3.98 7 5 C3.04 5 -0.92 5 -5 5 C-4.01 4.67 -3.02 4.34 -2 4 C-2 3.34 -2 2.68 -2 2 C-1.34 2 -0.68 2 0 2 C0 1.34 0 0.68 0 0 Z " fill="#F0CC13" transform="translate(248,252)"/>
<path d="M0 0 C2.4377963 -0.05397335 4.87439685 -0.09365616 7.3125 -0.125 C8.00279297 -0.14175781 8.69308594 -0.15851563 9.40429688 -0.17578125 C13.17135396 -0.21217794 14.78431704 -0.14378864 18 2 C15.93906592 2.223293 13.8761161 2.42802887 11.8125 2.625 C10.66394531 2.74101562 9.51539063 2.85703125 8.33203125 2.9765625 C4.96669584 3.00023426 2.98778294 2.47419799 0 1 C0 0.67 0 0.34 0 0 Z " fill="#CCBE3C" transform="translate(189,241)"/>
<path d="M0 0 C0.66 0.33 1.32 0.66 2 1 C-0.66666667 3.66666667 -3.33333333 6.33333333 -6 9 C-6.81017578 9.87205078 -6.81017578 9.87205078 -7.63671875 10.76171875 C-9 12 -9 12 -11 12 C-8.92835249 6.10377246 -6.32970624 4.0856194 -1 1 C-0.67 0.67 -0.34 0.34 0 0 Z " fill="#556538" transform="translate(162,208)"/>
<path d="M0 0 C3.91114026 0.67400718 6.87119182 2.54256033 10.25 4.5625 C11.32765625 5.20316406 12.4053125 5.84382813 13.515625 6.50390625 C14.33546875 6.99761719 15.1553125 7.49132812 16 8 C15.01 8.66 14.02 9.32 13 10 C12.67 9.01 12.34 8.02 12 7 C9.03 6.505 9.03 6.505 6 6 C6 5.34 6 4.68 6 4 C4.68 3.67 3.36 3.34 2 3 C2 2.34 2 1.68 2 1 C1.34 0.67 0.68 0.34 0 0 Z " fill="#871B18" transform="translate(350,57)"/>
<path d="M0 0 C-2.475 1.485 -2.475 1.485 -5 3 C-2.03 3.33 0.94 3.66 4 4 C4 4.33 4 4.66 4 5 C-0.95 5 -5.9 5 -11 5 C-11 4.34 -11 3.68 -11 3 C-9.73581754 2.30034557 -8.46334598 1.61565237 -7.1875 0.9375 C-6.47980469 0.55464844 -5.77210938 0.17179687 -5.04296875 -0.22265625 C-3 -1 -3 -1 0 0 Z " fill="#CCC2C0" transform="translate(169,49)"/>
<path d="M0 0 C1.31602523 0.61754259 2.62773556 1.24428742 3.9375 1.875 C4.66839844 2.22304688 5.39929688 2.57109375 6.15234375 2.9296875 C8 4 8 4 9 6 C8.278125 5.79375 7.55625 5.5875 6.8125 5.375 C3.55358415 4.94047789 1.91695496 5.58319331 -1 7 C-0.67 4.69 -0.34 2.38 0 0 Z " fill="#103C52" transform="translate(145,295)"/>
<path d="M0 0 C0.6875 1.75 0.6875 1.75 1 4 C-0.3125 5.9375 -0.3125 5.9375 -2 8 C-2.350625 8.886875 -2.70125 9.77375 -3.0625 10.6875 C-4 13 -4 13 -6 14 C-5.49013275 8.77386072 -3.81277971 3.81277971 0 0 Z " fill="#344F3E" transform="translate(150,220)"/>
<path d="M0 0 C0.66 0.33 1.32 0.66 2 1 C2.59355614 3.64860427 2.74209269 6.29197322 3 9 C3.66 9 4.32 9 5 9 C5 9.99 5 10.98 5 12 C3.68 12.33 2.36 12.66 1 13 C1 10.36 1 7.72 1 5 C-0.32 4.67 -1.64 4.34 -3 4 C-2.01 2.68 -1.02 1.36 0 0 Z " fill="#B8241D" transform="translate(437,139)"/>
<path d="M0 0 C6.27 0.33 12.54 0.66 19 1 C19 1.33 19 1.66 19 2 C14.05 2 9.1 2 4 2 C4.33 3.32 4.66 4.64 5 6 C4.01 5.34 3.02 4.68 2 4 C2 3.34 2 2.68 2 2 C1.34 2 0.68 2 0 2 C0 1.34 0 0.68 0 0 Z " fill="#3B502D" transform="translate(243,258)"/>
<path d="M0 0 C0 0.66 0 1.32 0 2 C-0.66 2 -1.32 2 -2 2 C-2.12375 2.5775 -2.2475 3.155 -2.375 3.75 C-3.03816998 6.13741194 -3.58836567 7.95313022 -5 10 C-7.625 10.75 -7.625 10.75 -10 11 C-8.02 8.36 -6.04 5.72 -4 3 C-4.66 3 -5.32 3 -6 3 C-6 2.34 -6 1.68 -6 1 C-3 0 -3 0 0 0 Z " fill="#325248" transform="translate(260,222)"/>
<path d="M0 0 C0.94875 0.350625 1.8975 0.70125 2.875 1.0625 C2.875 2.0525 2.875 3.0425 2.875 4.0625 C1.225 3.7325 -0.425 3.4025 -2.125 3.0625 C-1.135 4.5475 -1.135 4.5475 -0.125 6.0625 C-1.445 5.7325 -2.765 5.4025 -4.125 5.0625 C-4.455 3.4125 -4.785 1.7625 -5.125 0.0625 C-3.125 -0.9375 -3.125 -0.9375 0 0 Z " fill="#163F54" transform="translate(197.125,220.9375)"/>
<path d="M0 0 C2.15641331 3.23461997 2.81100973 5.67072961 3.6875 9.4375 C3.95949219 10.57058594 4.23148437 11.70367187 4.51171875 12.87109375 C4.96085657 15.74916889 4.98469931 17.31025087 4 20 C1.39099399 13.35441866 0.3856646 7.11484687 0 0 Z " fill="#082846" transform="translate(459,191)"/>
<path d="M0 0 C1 2 1 2 0.25 4.4375 C-0.95715861 6.91217514 -1.74069825 8.43586802 -4 10 C-5.32 9.67 -6.64 9.34 -8 9 C-5.36 6.03 -2.72 3.06 0 0 Z " fill="#9A221C" transform="translate(88,104)"/>
<path d="M0 0 C0.66 0.33 1.32 0.66 2 1 C1.67 1.99 1.34 2.98 1 4 C0.34 4 -0.32 4 -1 4 C-0.67 4.99 -0.34 5.98 0 7 C-1.98 7 -3.96 7 -6 7 C-6 6.01 -6 5.02 -6 4 C-3 1.8125 -3 1.8125 0 0 Z " fill="#AC2220" transform="translate(134,65)"/>
<path d="M0 0 C0.66 0.99 1.32 1.98 2 3 C1.67 3.66 1.34 4.32 1 5 C0.34 5 -0.32 5 -1 5 C-1 5.66 -1 6.32 -1 7 C-1.66 7 -2.32 7 -3 7 C-3 7.66 -3 8.32 -3 9 C-3.66 9 -4.32 9 -5 9 C-5.33 9.99 -5.66 10.98 -6 12 C-6.66 12 -7.32 12 -8 12 C-7.690625 11.401875 -7.38125 10.80375 -7.0625 10.1875 C-5.89790296 7.91043228 -5.89790296 7.91043228 -5 5 C-3.35 4.67 -1.7 4.34 0 4 C0 2.68 0 1.36 0 0 Z " fill="#95201F" transform="translate(410,393)"/>
<path d="M0 0 C0.33 0 0.66 0 1 0 C0.5547115 5.27315333 -0.08373163 10.01770224 -2 15 C-2.33 14.34 -2.66 13.68 -3 13 C-3.66 12.67 -4.32 12.34 -5 12 C-4.34 12 -3.68 12 -3 12 C-2.87625 10.7625 -2.7525 9.525 -2.625 8.25 C-2.24253695 5.1237803 -1.69450477 2.71120763 0 0 Z " fill="#082549" transform="translate(458,308)"/>
<path d="M0 0 C4.29 0 8.58 0 13 0 C12.01 1.485 12.01 1.485 11 3 C5.71988532 3.58667941 4.38982994 3.29237246 0 0 Z " fill="#06355B" transform="translate(168,305)"/>
<path d="M0 0 C2.60018816 3.90028225 2.15085514 7.47434569 2 12 C1 10 0 8 -1 6 C-1.99 6.33 -2.98 6.66 -4 7 C-2.92598892 4.08482708 -2.22189824 2.22189824 0 0 Z " fill="#4C5B33" transform="translate(222,268)"/>
<path d="M0 0 C6.75 1.625 6.75 1.625 9 5 C6.525 4.01 6.525 4.01 4 3 C5.32 5.31 6.64 7.62 8 10 C7.34 10 6.68 10 6 10 C6 9.34 6 8.68 6 8 C4.68 8 3.36 8 2 8 C2.04125 7.236875 2.0825 6.47375 2.125 5.6875 C2.22080824 2.77281584 2.22080824 2.77281584 0 0 Z " fill="#4F674C" transform="translate(194,223)"/>
<path d="M0 0 C0.33 0 0.66 0 1 0 C0.40546697 11.70615034 0.40546697 11.70615034 -3 16 C-4.57159226 12.85681547 -3.04018399 10.07066611 -2.0625 6.875 C-1.86720703 6.21628906 -1.67191406 5.55757812 -1.47070312 4.87890625 C-0.98695014 3.25066448 -0.49430925 1.62506818 0 0 Z " fill="#072543" transform="translate(44,177)"/>
<path d="M0 0 C2.35171131 0.59861742 4.6859378 1.26924352 7 2 C7.33 2.66 7.66 3.32 8 4 C2.06 3.67 -3.88 3.34 -10 3 C-10 2.67 -10 2.34 -10 2 C-6.7 2 -3.4 2 0 2 C0 1.34 0 0.68 0 0 Z " fill="#A4A54C" transform="translate(258,256)"/>
<path d="M0 0 C5.97897503 -0.74737188 9.32379721 1.6768102 14 5 C13.01 5.495 13.01 5.495 12 6 C9.92803369 5.26821134 7.8891448 4.44100997 5.875 3.5625 C4.77929688 3.08941406 3.68359375 2.61632812 2.5546875 2.12890625 C1.71164063 1.75636719 0.86859375 1.38382813 0 1 C0 0.67 0 0.34 0 0 Z " fill="#3D543B" transform="translate(247,251)"/>
<path d="M0 0 C1.32 0 2.64 0 4 0 C4 0.99 4 1.98 4 3 C5.65 3 7.3 3 9 3 C8.67 3.99 8.34 4.98 8 6 C6.35 6 4.7 6 3 6 C2.814375 5.071875 2.814375 5.071875 2.625 4.125 C2.12802644 1.80879168 2.12802644 1.80879168 0 0 Z " fill="#1D465A" transform="translate(198,201)"/>
<path d="M0 0 C4.92127034 -0.16682272 8.50343896 -0.24828052 13 2 C12.67 2.66 12.34 3.32 12 4 C7.6822542 3.49202991 3.96697886 2.80317221 0 1 C0 0.67 0 0.34 0 0 Z " fill="#2D4941" transform="translate(182,195)"/>
<path d="M0 0 C2.93200474 2.85276137 5.64315404 5.65079784 8 9 C6.68 9 5.36 9 4 9 C3.67 7.68 3.34 6.36 3 5 C2.01 5 1.02 5 0 5 C0 3.35 0 1.7 0 0 Z " fill="#9C2422" transform="translate(412,105)"/>
<path d="M0 0 C2.475 0.99 2.475 0.99 5 2 C5 2.66 5 3.32 5 4 C5.66 4.33 6.32 4.66 7 5 C6.01 5 5.02 5 4 5 C3.67 5.99 3.34 6.98 3 8 C2.01 7.67 1.02 7.34 0 7 C0.2784375 6.1028125 0.2784375 6.1028125 0.5625 5.1875 C1.22093687 2.83591238 1.22093687 2.83591238 0 0 Z " fill="#B4221F" transform="translate(345,54)"/>
<path d="M0 0 C2.44710376 1.86977097 2.96931493 2.82502483 3.51171875 5.91796875 C3.56972656 6.99691406 3.62773438 8.07585937 3.6875 9.1875 C3.75324219 10.27417969 3.81898437 11.36085938 3.88671875 12.48046875 C3.92410156 13.31191406 3.96148437 14.14335937 4 15 C0.59141414 11.59141414 0.06991606 6.67798535 -0.125 2 C-0.08375 1.34 -0.0425 0.68 0 0 Z " fill="#062644" transform="translate(37,293)"/>
<path d="M0 0 C0.99 0 1.98 0 3 0 C3 1.98 3 3.96 3 6 C1.35 6 -0.3 6 -2 6 C-1.34 4.02 -0.68 2.04 0 0 Z " fill="#F0CD0F" transform="translate(207,262)"/>
<path d="M0 0 C0.99 0.33 1.98 0.66 3 1 C1.68 4.63 0.36 8.26 -1 12 C-1.33 12 -1.66 12 -2 12 C-1.85904936 10.3745692 -1.71207913 8.74965949 -1.5625 7.125 C-1.48128906 6.22007812 -1.40007812 5.31515625 -1.31640625 4.3828125 C-1 2 -1 2 0 0 Z " fill="#DBC123" transform="translate(144,224)"/>
<path d="M0 0 C0.66 0.33 1.32 0.66 2 1 C1.34 2.32 0.68 3.64 0 5 C-0.99 5 -1.98 5 -3 5 C-3 5.66 -3 6.32 -3 7 C-4.32 7.33 -5.64 7.66 -7 8 C-7 7.34 -7 6.68 -7 6 C-6.34 6 -5.68 6 -5 6 C-5 5.34 -5 4.68 -5 4 C-4.34 4 -3.68 4 -3 4 C-3 3.34 -3 2.68 -3 2 C-2.01 1.34 -1.02 0.68 0 0 Z " fill="#9A1F1C" transform="translate(96,96)"/>
<path d="M0 0 C6.4 0.36923077 6.4 0.36923077 9.4375 3.5625 C9.953125 4.366875 10.46875 5.17125 11 6 C7.08406554 5.21681311 3.63593365 3.60820142 0 2 C0 1.34 0 0.68 0 0 Z " fill="#B9B4B1" transform="translate(158,446)"/>
<path d="M0 0 C1.98 0 3.96 0 6 0 C6.99 1.98 7.98 3.96 9 6 C5.06326356 4.68775452 2.77280706 3.08089673 0 0 Z " fill="#952726" transform="translate(124,427)"/>
<path d="M0 0 C-1.09068668 3.77545388 -1.9083091 6.47043472 -5 9 C-5 6.36 -5 3.72 -5 1 C-2 0 -2 0 0 0 Z " fill="#981F1D" transform="translate(441,354)"/>
<path d="M0 0 C2.23960447 2.87949147 4.29864224 5.76742026 6 9 C5.67 9.66 5.34 10.32 5 11 C3.046875 10.2890625 3.046875 10.2890625 1 9 C0.390625 6.8359375 0.390625 6.8359375 0.25 4.375 C0.19328125 3.55773437 0.1365625 2.74046875 0.078125 1.8984375 C0.05234375 1.27195312 0.0265625 0.64546875 0 0 Z " fill="#C7B726" transform="translate(144,269)"/>
<path d="M0 0 C1.49251706 2.98503412 2.60987721 5.61234773 3.625 8.75 C3.88539063 9.54921875 4.14578125 10.3484375 4.4140625 11.171875 C4.60742188 11.77515625 4.80078125 12.3784375 5 13 C4.01 12.67 3.02 12.34 2 12 C2 11.01 2 10.02 2 9 C1.34 9 0.68 9 0 9 C0 6.03 0 3.06 0 0 Z " fill="#34503B" transform="translate(125,264)"/>
<path d="M0 0 C1.15957207 3.47871621 0.77456651 4.34219645 -0.4375 7.6875 C-0.86869141 8.89986328 -0.86869141 8.89986328 -1.30859375 10.13671875 C-1.53675781 10.75160156 -1.76492187 11.36648437 -2 12 C-4.0234375 8.25 -4.0234375 8.25 -3.8125 6 C-2.86632381 3.67095092 -1.59058401 1.93636314 0 0 Z " fill="#B6B048" transform="translate(243,212)"/>
<path d="M0 0 C0.66 0 1.32 0 2 0 C2 2.64 2 5.28 2 8 C1.34 8 0.68 8 0 8 C-0.33 8.66 -0.66 9.32 -1 10 C-1.125 2.25 -1.125 2.25 0 0 Z " fill="#C1B33F" transform="translate(226,210)"/>
<path d="M0 0 C0.99 0.33 1.98 0.66 3 1 C3 5.29 3 9.58 3 14 C2.67 14 2.34 14 2 14 C2 10.7 2 7.4 2 4 C1.34 4 0.68 4 0 4 C-0.33 4.66 -0.66 5.32 -1 6 C-0.67 4.02 -0.34 2.04 0 0 Z " fill="#3E5A50" transform="translate(226,206)"/>
<path d="M0 0 C-0.49831724 3.68754757 -1.10067643 5.60490662 -4 8 C-4.99 7.67 -5.98 7.34 -7 7 C-6.34 7 -5.68 7 -5 7 C-5.061875 6.21625 -5.12375 5.4325 -5.1875 4.625 C-5.125625 3.75875 -5.06375 2.8925 -5 2 C-2 0 -2 0 0 0 Z " fill="#1C455F" transform="translate(205,293)"/>
<path d="M0 0 C3.79303725 1.00193437 6.71536341 1.81024227 10 4 C9.67 4.66 9.34 5.32 9 6 C5.7 5.01 2.4 4.02 -1 3 C-0.67 2.01 -0.34 1.02 0 0 Z " fill="#3E5B4E" transform="translate(249,272)"/>
<path d="M0 0 C3.77805964 1.84509889 7.42245507 3.7903399 11 6 C9 7 9 7 7.0625 6.75 C4.73031728 5.90193356 3.61295687 4.8549004 2 3 C1.67 3.99 1.34 4.98 1 6 C0.67 4.02 0.34 2.04 0 0 Z " fill="#324B33" transform="translate(238,265)"/>
<path d="M0 0 C0.33 1.32 0.66 2.64 1 4 C-0.65 5.32 -2.3 6.64 -4 8 C-4.33 6.35 -4.66 4.7 -5 3 C-4.01 3.33 -3.02 3.66 -2 4 C-2 3.01 -2 2.02 -2 1 C-1.34 0.67 -0.68 0.34 0 0 Z " fill="#113A58" transform="translate(204,261)"/>
<path d="M0 0 C1.65 0 3.3 0 5 0 C5 0.66 5 1.32 5 2 C5.99 2 6.98 2 8 2 C8 2.99 8 3.98 8 5 C2.25 3.125 2.25 3.125 0 2 C0 1.34 0 0.68 0 0 Z " fill="#A32320" transform="translate(148,441)"/>
<path d="M0 0 C5.28 0 10.56 0 16 0 C14.68 1.32 13.36 2.64 12 4 C12 3.01 12 2.02 12 1 C8.04 1 4.08 1 0 1 C0 0.67 0 0.34 0 0 Z " fill="#B12626" transform="translate(404,386)"/>
<path d="M0 0 C0.66 0 1.32 0 2 0 C2 3.3 2 6.6 2 10 C-1 6 -1 6 -0.6875 2.75 C-0.460625 1.8425 -0.23375 0.935 0 0 Z " fill="#F5CD1B" transform="translate(226,218)"/>
<path d="M0 0 C1.27351308 2.54702616 0.80191925 3.4282945 0.0625 6.125 C-0.13214844 6.84945313 -0.32679688 7.57390625 -0.52734375 8.3203125 C-0.68332031 8.87460937 -0.83929688 9.42890625 -1 10 C-1.66 10 -2.32 10 -3 10 C-3.75 7.25 -3.75 7.25 -4 4 C-2.0625 1.625 -2.0625 1.625 0 0 Z " fill="#153B4A" transform="translate(210,278)"/>
<path d="M0 0 C0 0.66 0 1.32 0 2 C-1.98 2.66 -3.96 3.32 -6 4 C-6.33 2.68 -6.66 1.36 -7 0 C-4.3333581 -1.33332095 -2.83319697 -0.67102033 0 0 Z " fill="#02366A" transform="translate(249,272)"/>
<path d="M0 0 C3.96 0 7.92 0 12 0 C12 0.33 12 0.66 12 1 C10.02 1.33 8.04 1.66 6 2 C6 2.33 6 2.66 6 3 C4.02 3 2.04 3 0 3 C0 2.01 0 1.02 0 0 Z " fill="#536641" transform="translate(186,240)"/>
<path d="M0 0 C1.60080151 4.00200378 0.29279692 7.04556236 -1 11 C-0.34 11.33 0.32 11.66 1 12 C-0.98 12.99 -0.98 12.99 -3 14 C-2.69024532 12.22868439 -2.37709575 10.45796222 -2.0625 8.6875 C-1.88847656 7.70136719 -1.71445313 6.71523437 -1.53515625 5.69921875 C-1 3 -1 3 0 0 Z " fill="#3A4F2E" transform="translate(241,221)"/>
<path d="M0 0 C3.465 1.98 3.465 1.98 7 4 C6.67 4.66 6.34 5.32 6 6 C5.01 6 4.02 6 3 6 C3 5.34 3 4.68 3 4 C2.01 4 1.02 4 0 4 C0 2.68 0 1.36 0 0 Z " fill="#AD1F21" transform="translate(366,66)"/>
<path d="M0 0 C1.32 0 2.64 0 4 0 C2.80100302 3.0831351 1.52299523 6.06279492 0 9 C-1.53445094 5.93109813 -0.54984289 3.29905734 0 0 Z " fill="#881D18" transform="translate(442,345)"/>
<path d="M0 0 C-3.83325617 2.70582788 -6.32538149 3.32613618 -11 3 C-7.74003139 -0.25996861 -4.40088745 -1.46696248 0 0 Z " fill="#BDB847" transform="translate(201,297)"/>
<path d="M0 0 C0.99 0.33 1.98 0.66 3 1 C3.33 1.99 3.66 2.98 4 4 C3.34 4 2.68 4 2 4 C2.33 5.65 2.66 7.3 3 9 C1.5 7.875 1.5 7.875 0 6 C-0.1875 2.8125 -0.1875 2.8125 0 0 Z " fill="#0D3652" transform="translate(240,268)"/>
<path d="M0 0 C0.66 0.33 1.32 0.66 2 1 C1.01 2.485 1.01 2.485 0 4 C-1.9453125 4.29296875 -1.9453125 4.29296875 -4.125 4.1875 C-5.40375 4.125625 -6.6825 4.06375 -8 4 C-5.31143836 2.20762558 -3.0466145 1.01553817 0 0 Z " fill="#3E553D" transform="translate(259,243)"/>
<path d="M0 0 C0 0.99 0 1.98 0 3 C-2 4.6875 -2 4.6875 -4 6 C-5.32 5.34 -6.64 4.68 -8 4 C-5.36 2.68 -2.72 1.36 0 0 Z " fill="#B0AF44" transform="translate(256,224)"/>
<path d="M0 0 C0.33 0 0.66 0 1 0 C1.125 5.75 1.125 5.75 0 8 C-0.99 7.67 -1.98 7.34 -3 7 C-3.33 6.01 -3.66 5.02 -4 4 C-3.34 3.67 -2.68 3.34 -2 3 C-1.34 3.33 -0.68 3.66 0 4 C0 2.68 0 1.36 0 0 Z " fill="#043663" transform="translate(222,218)"/>
<path d="M0 0 C3 1 3 1 5 3 C5.66 3 6.32 3 7 3 C7.33 4.32 7.66 5.64 8 7 C6.35 6.67 4.7 6.34 3 6 C2.67 4.68 2.34 3.36 2 2 C1.34 2 0.68 2 0 2 C0 1.34 0 0.68 0 0 Z " fill="#23464A" transform="translate(211,214)"/>
<path d="M0 0 C1.5 1 1.5 1 3 3 C3.27345479 5.71846235 3.13491285 8.25677199 3 11 C0.39665076 8.28817788 0.00543309 7.10866187 -0.1875 3.25 C-0.125625 2.1775 -0.06375 1.105 0 0 Z " fill="#536649" transform="translate(208,210)"/>
<path d="M0 0 C2.0625 0.4375 2.0625 0.4375 4 1 C2.25 4.875 2.25 4.875 0 6 C-0.38218767 4.34385343 -0.71395102 2.67542976 -1 1 C-0.67 0.67 -0.34 0.34 0 0 Z " fill="#093857" transform="translate(135,208)"/>
<path d="M0 0 C0 0.66 0 1.32 0 2 C-1.65 2.33 -3.3 2.66 -5 3 C-5.33 3.99 -5.66 4.98 -6 6 C-7.32 5.67 -8.64 5.34 -10 5 C-8.71186658 4.16121545 -7.41936744 3.32913217 -6.125 2.5 C-5.40570313 2.0359375 -4.68640625 1.571875 -3.9453125 1.09375 C-2 0 -2 0 0 0 Z " fill="#821A18" transform="translate(146,59)"/>
<path d="M0 0 C1.65 0 3.3 0 5 0 C6.33332095 2.6666419 5.67102033 4.16680303 5 7 C2.46447088 5.73223544 2.15080425 4.53176935 1 2 C0.67 1.34 0.34 0.68 0 0 Z " fill="#153E52" transform="translate(255,272)"/>
<path d="M0 0 C0.99 0 1.98 0 3 0 C3 0.99 3 1.98 3 3 C0.03 3.66 -2.94 4.32 -6 5 C-5.67 4.34 -5.34 3.68 -5 3 C-3.66666667 2.66666667 -2.33333333 2.33333333 -1 2 C-0.67 1.34 -0.34 0.68 0 0 Z " fill="#BDAB22" transform="translate(207,249)"/>
<path d="M0 0 C1.32 0.66 2.64 1.32 4 2 C3.67 2.66 3.34 3.32 3 4 C0.69 3.67 -1.62 3.34 -4 3 C-2.68 2.01 -1.36 1.02 0 0 Z " fill="#DABD1B" transform="translate(206,245)"/>
<path d="M0 0 C1.98 0 3.96 0 6 0 C5.67 1.32 5.34 2.64 5 4 C2.525 3.01 2.525 3.01 0 2 C0 1.34 0 0.68 0 0 Z " fill="#DEC21C" transform="translate(197,243)"/>
<path d="M0 0 C0.33 0 0.66 0 1 0 C1 1.65 1 3.3 1 5 C2.98 5.495 2.98 5.495 5 6 C4.01 7.485 4.01 7.485 3 9 C2.34 9 1.68 9 1 9 C0.67 6.03 0.34 3.06 0 0 Z " fill="#344E2D" transform="translate(229,221)"/>
<path d="M0 0 C0.66 0 1.32 0 2 0 C2.25 7.5 2.25 7.5 0 12 C0.33 9.03 0.66 6.06 1 3 C0.34 3 -0.32 3 -1 3 C-0.67 2.01 -0.34 1.02 0 0 Z " fill="#CAB931" transform="translate(238,220)"/>
<path d="M0 0 C0 0.99 0 1.98 0 3 C-1.11375 3.433125 -1.11375 3.433125 -2.25 3.875 C-4.56739797 4.82302644 -6.77917115 5.84845911 -9 7 C-3.65789474 0 -3.65789474 0 0 0 Z " fill="#BAAF31" transform="translate(151,202)"/>
<path d="M0 0 C1.2065625 0.0309375 1.2065625 0.0309375 2.4375 0.0625 C0.08472731 2.78676311 -2.18746331 3.8766763 -5.5625 5.0625 C-3.15007962 0.07683121 -3.15007962 0.07683121 0 0 Z " fill="#E8CB24" transform="translate(168.5625,202.9375)"/>
<path d="M0 0 C-5.2734375 3.22265625 -5.2734375 3.22265625 -7 4 C-7.66 3.67 -8.32 3.34 -9 3 C-8.67 2.01 -8.34 1.02 -8 0 C-5.04215769 -1.22393475 -3.00272755 -0.96516243 0 0 Z " fill="#801A15" transform="translate(360,439)"/>
<path d="M0 0 C0.66 0.33 1.32 0.66 2 1 C1.01 2.485 1.01 2.485 0 4 C-3.625 4.6875 -3.625 4.6875 -7 5 C-4.88437775 2.67281553 -2.94982021 1.14186589 0 0 Z " fill="#39524C" transform="translate(200,273)"/>
<path d="M0 0 C3.3 0 6.6 0 10 0 C7.08235 1.9451 5.37462715 2.45276317 2 3 C2 2.34 2 1.68 2 1 C1.34 0.67 0.68 0.34 0 0 Z " fill="#F9D008" transform="translate(246,243)"/>
</svg>
