<?xml version="1.0" encoding="UTF-8"?>
<svg version="1.1" xmlns="http://www.w3.org/2000/svg" width="500" height="500">
<path d="M0 0 C0.73895508 0.01256836 1.47791016 0.02513672 2.23925781 0.03808594 C37.59926161 0.87632502 72.4765545 13.49569614 102.546875 31.5546875 C104.66359164 32.80179762 106.78744988 33.93508102 109 35 C109 35.66 109 36.32 109 37 C109.78375 37.309375 110.5675 37.61875 111.375 37.9375 C114 39 114 39 116 40 C116 40.66 116 41.32 116 42 C116.59474121 42.11408203 117.18948242 42.22816406 117.80224609 42.34570312 C120.16461252 43.04900706 121.32793836 43.85439677 123.1640625 45.46875 C123.72867187 45.95730469 124.29328125 46.44585937 124.875 46.94921875 C125.74125 47.71685547 125.74125 47.71685547 126.625 48.5 C130.55225501 52.12159946 130.55225501 52.12159946 135 55 C135 55.66 135 56.32 135 57 C135.66 57 136.32 57 137 57 C137 57.66 137 58.32 137 59 C138.32 59.66 139.64 60.32 141 61 C141 61.66 141 62.32 141 63 C141.99 63.33 142.98 63.66 144 64 C144 64.66 144 65.32 144 66 C144.66 66 145.32 66 146 66 C146 66.66 146 67.32 146 68 C146.66 68 147.32 68 148 68 C148 68.66 148 69.32 148 70 C148.66 70 149.32 70 150 70 C150 70.66 150 71.32 150 72 C150.66 72 151.32 72 152 72 C153.515625 73.6875 153.515625 73.6875 155.25 76 C155.86488281 76.81597656 156.47976563 77.63195312 157.11328125 78.47265625 C157.73589844 79.30667969 158.35851562 80.14070313 159 81 C159.59167969 81.76183594 160.18335938 82.52367188 160.79296875 83.30859375 C161.33566406 84.01113281 161.87835938 84.71367188 162.4375 85.4375 C162.93121094 86.07558594 163.42492187 86.71367188 163.93359375 87.37109375 C165 89 165 89 165 91 C165.66 91 166.32 91 167 91 C168.6793197 93.40722626 170.2306181 95.80655746 171.75 98.3125 C172.19811035 99.04146484 172.6462207 99.77042969 173.10791016 100.52148438 C176.6011695 106.24483241 179.91474408 112.04565258 183 118 C183.51433594 118.98613281 183.51433594 118.98613281 184.0390625 119.9921875 C185.05449216 121.9817692 186.02575825 123.98994731 187 126 C187.43957031 126.84949219 187.87914062 127.69898438 188.33203125 128.57421875 C203.52762698 159.24606765 207.59816233 194.24200884 207 228 C206.98743164 228.71945801 206.97486328 229.43891602 206.96191406 230.18017578 C205.9658237 271.3959554 189.97687701 310.48807537 167.1875 344.25 C166.61169189 345.10956299 166.03588379 345.96912598 165.44262695 346.85473633 C164.62604614 348.04812622 164.62604614 348.04812622 163.79296875 349.265625 C163.3033667 349.98524414 162.81376465 350.70486328 162.30932617 351.44628906 C161.87724854 351.95901367 161.4451709 352.47173828 161 353 C160.34 353 159.68 353 159 353 C158.7421875 353.56203125 158.484375 354.1240625 158.21875 354.703125 C156.85830223 357.26704579 155.27211038 359.45226365 153.5 361.75 C152.8915625 362.54921875 152.283125 363.3484375 151.65625 364.171875 C151.1096875 364.77515625 150.563125 365.3784375 150 366 C149.34 366 148.68 366 148 366 C148 366.66 148 367.32 148 368 C147.34 368 146.68 368 146 368 C146 368.66 146 369.32 146 370 C143.625 372.625 143.625 372.625 141 375 C140.34 375 139.68 375 139 375 C139 375.66 139 376.32 139 377 C137.43059199 378.43812673 135.79125965 379.8003005 134.125 381.125 C133.11179687 381.93324219 132.09859375 382.74148438 131.0546875 383.57421875 C130.04664063 384.37472656 129.03859375 385.17523438 128 386 C127.19820313 386.66644531 126.39640625 387.33289063 125.5703125 388.01953125 C89.38675227 417.92883777 42.83494387 435.09665539 -4 436 C-5.03640625 436.02835937 -6.0728125 436.05671875 -7.140625 436.0859375 C-10.09919361 436.12725829 -13.04210754 436.07849654 -16 436 C-16.6801416 435.98743164 -17.3602832 435.97486328 -18.06103516 435.96191406 C-37.03561073 435.56210576 -55.93477715 432.93351031 -74 427 C-75.16917969 426.64292969 -76.33835938 426.28585937 -77.54296875 425.91796875 C-87.72199982 422.71087677 -97.37549624 418.59008346 -107 414 C-107.70382813 413.66516602 -108.40765625 413.33033203 -109.1328125 412.98535156 C-125.68284299 404.98152127 -140.67320525 394.31443697 -154.46875 382.20703125 C-156.9066354 380.00996201 -156.9066354 380.00996201 -159.34375 378.32421875 C-159.8903125 377.88722656 -160.436875 377.45023437 -161 377 C-161 376.34 -161 375.68 -161 375 C-161.66 375 -162.32 375 -163 375 C-165.625 372.625 -165.625 372.625 -168 370 C-168 369.34 -168 368.68 -168 368 C-168.66 368 -169.32 368 -170 368 C-170 367.34 -170 366.68 -170 366 C-170.66 366 -171.32 366 -172 366 C-173.60634015 364.26608049 -175.1375287 362.461909 -176.625 360.625 C-177.85089844 359.12839844 -177.85089844 359.12839844 -179.1015625 357.6015625 C-181 355 -181 355 -181 353 C-181.66 353 -182.32 353 -183 353 C-187 347.58823529 -187 347.58823529 -187 345 C-187.66 345 -188.32 345 -189 345 C-190.60601214 342.76084846 -192.06655722 340.53520091 -193.5 338.1875 C-193.94214844 337.4668335 -194.38429687 336.74616699 -194.83984375 336.00366211 C-215.18594708 302.40449325 -228.27452448 265.51981397 -229 226 C-229.01514648 225.32952637 -229.03029297 224.65905273 -229.04589844 223.96826172 C-229.49268243 201.61271627 -226.91273905 180.54478445 -221 159 C-220.78472656 158.20658203 -220.56945312 157.41316406 -220.34765625 156.59570312 C-217.20290725 145.14490804 -213.36152698 134.58778608 -208 124 C-207.54109375 123.02417969 -207.0821875 122.04835938 -206.609375 121.04296875 C-201.6267463 110.57658489 -195.42644485 100.63966727 -189 91 C-188.34 91 -187.68 91 -187 91 C-186.79503906 90.32324219 -186.59007812 89.64648438 -186.37890625 88.94921875 C-184.51906161 84.97136406 -181.84666387 82.06872201 -178.9375 78.8125 C-177.84073611 77.57051998 -176.74560413 76.32709637 -175.65234375 75.08203125 C-175.16757568 74.53780518 -174.68280762 73.9935791 -174.18334961 73.43286133 C-172.90119835 71.98967235 -172.90119835 71.98967235 -172 70 C-171.34 70 -170.68 70 -170 70 C-170 69.34 -170 68.68 -170 68 C-169.34 68 -168.68 68 -168 68 C-168 67.34 -168 66.68 -168 66 C-167.34 66 -166.68 66 -166 66 C-165.505 64.515 -165.505 64.515 -165 63 C-164.34 63 -163.68 63 -163 63 C-163 62.34 -163 61.68 -163 61 C-162.34 61 -161.68 61 -161 61 C-161 60.34 -161 59.68 -161 59 C-160.34 59 -159.68 59 -159 59 C-159 58.34 -159 57.68 -159 57 C-155.5097242 53.79202592 -151.72871731 50.92515668 -148 48 C-147.19433594 47.36449219 -146.38867188 46.72898438 -145.55859375 46.07421875 C-140.27863962 42 -140.27863962 42 -138 42 C-138 41.34 -138 40.68 -138 40 C-135.59274732 38.32066187 -133.19352145 36.76931054 -130.6875 35.25 C-129.95563477 34.80043945 -129.22376953 34.35087891 -128.46972656 33.88769531 C-122.74685399 30.39666764 -116.95365276 27.08314161 -111 24 C-110.071875 23.51015625 -109.14375 23.0203125 -108.1875 22.515625 C-74.34007382 5.05179341 -37.72933971 -0.64694599 0 0 Z " fill="#DA2211" transform="translate(261,32)"/>
<path d="M0 0 C1.42447102 4.27341305 -0.32520848 7.19432457 -1.9375 11.1875 C-2.41413086 12.38656982 -2.41413086 12.38656982 -2.90039062 13.60986328 C-6.15469933 21.63937837 -9.90649621 29.36822268 -14 37 C-14.52980469 37.98871094 -15.05960937 38.97742188 -15.60546875 39.99609375 C-19.33433707 46.63440007 -23.55526987 52.94301395 -27.8125 59.25 C-28.38830811 60.10956299 -28.96411621 60.96912598 -29.55737305 61.85473633 C-30.37395386 63.04812622 -30.37395386 63.04812622 -31.20703125 64.265625 C-31.6966333 64.98524414 -32.18623535 65.70486328 -32.69067383 66.44628906 C-33.33879028 67.21537598 -33.33879028 67.21537598 -34 68 C-34.66 68 -35.32 68 -36 68 C-36.2578125 68.56203125 -36.515625 69.1240625 -36.78125 69.703125 C-38.14169777 72.26704579 -39.72788962 74.45226365 -41.5 76.75 C-42.1084375 77.54921875 -42.716875 78.3484375 -43.34375 79.171875 C-44.16359375 80.07679688 -44.16359375 80.07679688 -45 81 C-45.66 81 -46.32 81 -47 81 C-47 81.66 -47 82.32 -47 83 C-47.66 83 -48.32 83 -49 83 C-49 83.66 -49 84.32 -49 85 C-51.375 87.625 -51.375 87.625 -54 90 C-54.66 90 -55.32 90 -56 90 C-56 90.66 -56 91.32 -56 92 C-57.56940801 93.43812673 -59.20874035 94.8003005 -60.875 96.125 C-61.88820313 96.93324219 -62.90140625 97.74148438 -63.9453125 98.57421875 C-64.95335937 99.37472656 -65.96140625 100.17523438 -67 101 C-67.80179687 101.66644531 -68.60359375 102.33289063 -69.4296875 103.01953125 C-105.61324773 132.92883777 -152.16505613 150.09665539 -199 151 C-200.03640625 151.02835938 -201.0728125 151.05671875 -202.140625 151.0859375 C-205.09919361 151.12725829 -208.04210754 151.07849654 -211 151 C-211.6801416 150.98743164 -212.3602832 150.97486328 -213.06103516 150.96191406 C-232.03561073 150.56210576 -250.93477715 147.93351031 -269 142 C-270.16917969 141.64292969 -271.33835937 141.28585937 -272.54296875 140.91796875 C-282.72199982 137.71087677 -292.37549624 133.59008346 -302 129 C-302.70382812 128.66516602 -303.40765625 128.33033203 -304.1328125 127.98535156 C-320.68284299 119.98152127 -335.67320525 109.31443697 -349.46875 97.20703125 C-351.9066354 95.00996201 -351.9066354 95.00996201 -354.34375 93.32421875 C-354.8903125 92.88722656 -355.436875 92.45023437 -356 92 C-356 91.34 -356 90.68 -356 90 C-356.66 90 -357.32 90 -358 90 C-360.625 87.625 -360.625 87.625 -363 85 C-363 84.34 -363 83.68 -363 83 C-363.66 83 -364.32 83 -365 83 C-365 82.34 -365 81.68 -365 81 C-365.66 81 -366.32 81 -367 81 C-368.60634015 79.26608049 -370.1375287 77.461909 -371.625 75.625 C-372.44226563 74.62726563 -373.25953125 73.62953125 -374.1015625 72.6015625 C-376 70 -376 70 -376 68 C-376.66 68 -377.32 68 -378 68 C-382 62.58823529 -382 62.58823529 -382 60 C-382.66 60 -383.32 60 -384 60 C-385.60596347 57.76091632 -387.06626841 55.53492707 -388.5 53.1875 C-388.94069824 52.47118408 -389.38139648 51.75486816 -389.83544922 51.0168457 C-396.96651367 39.26463885 -403.25848365 27.12941554 -408.6875 14.5 C-409.214646 13.28896606 -409.214646 13.28896606 -409.75244141 12.0534668 C-412.12212007 6.36636021 -412.12212007 6.36636021 -411 3 C-411 3.66 -411 4.32 -411 5 C-410.45538022 4.98986028 -409.91076044 4.97972055 -409.34963703 4.96927357 C-396.04328161 4.725403 -382.7373222 4.54457195 -369.42920399 4.43006611 C-362.99304864 4.37281622 -356.5585138 4.2952501 -350.12329102 4.17016602 C-343.90505398 4.05006505 -337.68836882 3.98475367 -331.4690609 3.95635033 C-329.10434237 3.93612745 -326.73970259 3.89663491 -324.37565041 3.83696938 C-302.95884501 3.31825901 -302.95884501 3.31825901 -295.2565918 10.44213867 C-294.309787 11.42731307 -293.37547614 12.42471772 -292.45683289 13.436203 C-290.00340682 15.99644486 -288.35184101 16.99260348 -285 18 C-285 18.66 -285 19.32 -285 20 C-284.0925 20.226875 -283.185 20.45375 -282.25 20.6875 C-278.70648198 21.68861586 -275.38626652 23.05785886 -272 24.5 C-252.16067632 32.88976375 -230.43362894 31.7378973 -210.62207031 23.89599609 C-204.04776814 21.17058229 -197.98589078 17.8614864 -192 14 C-192.64324219 14.26554687 -193.28648437 14.53109375 -193.94921875 14.8046875 C-213.53174882 22.45891466 -234.4767556 21.88027558 -253.6875 13.5 C-261.7991964 9.91718809 -261.7991964 9.91718809 -265 7 C-265 6.34 -265 5.68 -265 5 C-178.54 4.67 -92.08 4.34 -3 4 C-2.67 3.34 -2.34 2.68 -2 2 C-1.34 2 -0.68 2 0 2 C0 1.34 0 0.68 0 0 Z " fill="#003472" transform="translate(456,317)"/>
<path d="M0 0 C49.17 0 98.34 0 149 0 C152.21933223 7.72639736 154.91380166 14.43842369 156.6875 22.4375 C156.89536133 23.34636963 157.10322266 24.25523926 157.31738281 25.19165039 C161.55946356 44.09445632 162.34195295 62.70148496 162 82 C161.98743164 82.71945801 161.97486328 83.43891602 161.96191406 84.18017578 C161.51079233 102.84648831 157.42116335 121.20347604 152 139 C151.34 139 150.68 139 150 139 C150 139.66 150 140.32 150 141 C149.34 141.66 148.68 142.32 148 143 C148 143.33 148 143.66 148 144 C98.83 144 49.66 144 -1 144 C-0.34 139.38 0.32 134.76 1 130 C1.2034619 127.60701057 1.38081172 125.21116406 1.5 122.8125 C1.87616674 116.75963514 2.75325011 110.93114025 4 105 C4.66 105 5.32 105 6 105 C7.46991389 107.03409246 8.80817268 109.05669976 10.125 111.1875 C10.52170898 111.81664307 10.91841797 112.44578613 11.32714844 113.09399414 C14.63138158 118.35066894 17.86860482 123.64993319 21.078125 128.96484375 C23.26172617 132.41333585 25.60243937 135.69715354 28 139 C27.75092896 138.14003418 27.75092896 138.14003418 27.49682617 137.26269531 C18.80118463 107.18536703 18.80118463 107.18536703 19 101 C19.66 101 20.32 101 21 101 C21 101.66 21 102.32 21 103 C21.83917969 103.07476562 22.67835938 103.14953125 23.54296875 103.2265625 C27.80185208 104.17939741 30.71489845 105.9841649 34.3125 108.375 C34.94478516 108.77460938 35.57707031 109.17421875 36.22851562 109.5859375 C40.87026115 112.61078346 40.87026115 112.61078346 42 116 C43.3303125 116.185625 43.3303125 116.185625 44.6875 116.375 C47.71402798 116.94604301 50.1754987 117.8163078 53 119 C52.50113281 118.45214844 52.00226563 117.90429688 51.48828125 117.33984375 C46.65951151 112.00825778 41.90153961 106.62061909 37.1875 101.1875 C36.63682861 100.55384521 36.08615723 99.92019043 35.51879883 99.26733398 C27 89.42595818 27 89.42595818 27 87 C35.24240421 86.92473645 43.45275734 87.15784899 51.6875 87.5 C52.87794922 87.54769531 54.06839844 87.59539062 55.29492188 87.64453125 C58.19669946 87.7610685 61.09838086 87.87959289 64 88 C62.87722656 87.54109375 61.75445312 87.0821875 60.59765625 86.609375 C53.67083544 83.77149064 46.75659721 80.93365342 39.9375 77.84375 C36.67532442 76.42312515 33.34321623 75.21571499 30 74 C30 72.68 30 71.36 30 70 C30.52956299 69.82871582 31.05912598 69.65743164 31.60473633 69.48095703 C34.00889688 68.70038884 36.41069278 67.91277811 38.8125 67.125 C39.64587891 66.85558594 40.47925781 66.58617187 41.33789062 66.30859375 C42.14033203 66.04433594 42.94277344 65.78007812 43.76953125 65.5078125 C44.87711792 65.14647217 44.87711792 65.14647217 46.00708008 64.77783203 C48.26312595 63.97929358 48.26312595 63.97929358 51 62 C51.99 62 52.98 62 54 62 C54 61.34 54 60.68 54 60 C57.3 58.68 60.6 57.36 64 56 C55.71998931 55.7528355 47.66303981 56.42516315 39.4387207 57.28857422 C34.93463828 57.75490074 30.53668352 58.11997841 26 58 C26.98507495 54.27860574 28.44392687 52.45981629 31.375 50.125 C33.92537195 48.07521759 35.59321222 46.33157446 37.125 43.4375 C39.08809775 39.83848746 41.04590713 37.82279985 44 35 C47.03053672 31.69395994 50.01600307 28.34805756 53 25 C49.92358174 26.16819319 47.13936523 27.40344931 44.375 29.1875 C43.68921875 29.62707031 43.0034375 30.06664062 42.296875 30.51953125 C41.53890625 31.00808594 40.7809375 31.49664062 40 32 C38.70835937 32.81017578 38.70835937 32.81017578 37.390625 33.63671875 C31.78982914 37.15699299 26.34468355 40.82107037 20.99609375 44.71484375 C19 46 19 46 17 46 C18.36042926 38.40884699 20.30739088 31.07723493 22.5 23.6875 C22.80808594 22.62982422 23.11617188 21.57214844 23.43359375 20.48242188 C25.76669549 12.54687197 25.76669549 12.54687197 27.10351562 9.41333008 C28.23214816 6.80413539 28.23214816 6.80413539 28 3 C27.45730469 3.90363281 26.91460937 4.80726563 26.35546875 5.73828125 C25.63303739 6.92982388 24.91036864 8.1212226 24.1875 9.3125 C23.83107422 9.90740234 23.47464844 10.50230469 23.10742188 11.11523438 C20.32977499 15.67669119 20.32977499 15.67669119 18.40625 17.5625 C16.36366266 19.65047817 15.47228416 22.02313099 14.3125 24.6875 C13.87550781 25.68136719 13.43851562 26.67523438 12.98828125 27.69921875 C12.66214844 28.45847656 12.33601563 29.21773437 12 30 C11.34 30 10.68 30 10 30 C9.71125 30.5775 9.4225 31.155 9.125 31.75 C7.5625 34.875 7.5625 34.875 6 38 C5.34 38 4.68 38 4 38 C3.51963783 34.66683783 3.04093096 31.33343987 2.5625 28 C2.42779297 27.06542969 2.29308594 26.13085938 2.15429688 25.16796875 C1.76409225 22.44605356 1.38190916 19.72308922 1 17 C0.84120361 15.93265625 0.84120361 15.93265625 0.67919922 14.84375 C-0.03617358 9.75665452 0 5.27016721 0 0 Z " fill="#FDFDFB" transform="translate(306,178)"/>
<path d="M0 0 C1.12224472 -0.00073013 2.24448944 -0.00146027 3.40074158 -0.00221252 C7.11302898 0.00127306 10.82406438 0.04018312 14.53613281 0.0793457 C17.10873733 0.0886703 19.68135072 0.09578807 22.25396729 0.1007843 C28.33499307 0.11792934 34.41550156 0.15734162 40.49633241 0.20753175 C47.4200508 0.26343724 54.34379079 0.29091462 61.26767874 0.31600893 C75.50844664 0.36825854 89.74883624 0.45619318 103.98925781 0.56762695 C104.01097644 9.38430763 104.01097644 9.38430763 103.62207031 12.8293457 C103.5019458 13.91046631 103.5019458 13.91046631 103.37939453 15.01342773 C103.29189941 15.75318848 103.2044043 16.49294922 103.11425781 17.25512695 C103.02547363 18.03098145 102.93668945 18.80683594 102.84521484 19.60620117 C102.0624432 26.28796194 101.09149886 32.93072874 99.98925781 39.56762695 C95.75887965 37.73475263 94.88396686 35.76893831 92.98925781 31.56762695 C92.43238281 30.66012695 91.87550781 29.75262695 91.30175781 28.81762695 C89.98925781 26.56762695 89.98925781 26.56762695 89.98925781 24.56762695 C89.32925781 24.56762695 88.66925781 24.56762695 87.98925781 24.56762695 C87.58707031 23.81932617 87.58707031 23.81932617 87.17675781 23.0559082 C83.3636573 16.06940497 79.19581913 9.32108891 74.98925781 2.56762695 C75.55618106 6.53030477 76.41009329 10.0295349 77.86425781 13.75512695 C79.6098807 18.40592006 81.01159134 23.05553153 82.26269531 27.8605957 C83.20497767 31.37135741 84.31169693 34.82310693 85.43847656 38.27856445 C86.04030497 40.7797804 86.0843621 43.00433989 85.98925781 45.56762695 C82.52687973 44.9104163 79.98291552 43.527155 76.98925781 41.69262695 C75.72082031 40.92305664 75.72082031 40.92305664 74.42675781 40.13793945 C72.18573669 38.69420469 70.02387337 37.29139847 67.98925781 35.56762695 C67.98925781 34.90762695 67.98925781 34.24762695 67.98925781 33.56762695 C67.18875 33.36459961 67.18875 33.36459961 66.37207031 33.1574707 C59.6196131 31.20650123 54.54794383 27.80336891 48.98925781 23.56762695 C49.69953125 24.25985352 50.40980469 24.95208008 51.14160156 25.6652832 C54.11425343 28.64002334 56.8360786 31.79667607 59.55175781 35.00512695 C60.59968571 36.23841165 61.64787094 37.47147772 62.69628906 38.7043457 C63.23334473 39.33646973 63.77040039 39.96859375 64.32373047 40.61987305 C66.01627 42.59921641 67.72479589 44.56360218 69.43847656 46.5246582 C69.99140381 47.16024658 70.54433105 47.79583496 71.11401367 48.45068359 C72.18274819 49.67835565 73.25508329 50.90290417 74.33129883 52.12402344 C77.98925781 56.34304544 77.98925781 56.34304544 77.98925781 58.56762695 C71.38589987 58.67510786 64.9894776 58.27094522 58.42675781 57.56762695 C52.2430596 56.9077947 46.21092863 56.45146974 39.98925781 56.56762695 C49.41232424 61.47456938 59.08535439 66.19928582 69.30175781 69.19262695 C70.51863281 69.64637695 71.73550781 70.10012695 72.98925781 70.56762695 C73.71972656 72.65356445 73.71972656 72.65356445 73.98925781 74.56762695 C72.96445312 74.89375977 71.93964844 75.21989258 70.88378906 75.5559082 C69.52300658 75.99698942 68.16233532 76.43841388 66.80175781 76.88012695 C66.12822266 77.0934668 65.4546875 77.30680664 64.76074219 77.52661133 C60.81070078 78.81760047 57.5401147 80.37255179 53.98925781 82.56762695 C52.13092687 83.29898689 50.25490049 83.98689177 48.36425781 84.63012695 C45.15242524 85.72566984 42.83627563 86.66961507 39.98925781 88.56762695 C40.64821045 88.53733398 41.30716309 88.50704102 41.98608398 88.47583008 C66.17578321 87.37754634 66.17578321 87.37754634 76.98925781 87.56762695 C75.42010681 91.27496175 73.11030528 93.77654559 70.36425781 96.69262695 C66.17109987 101.20786804 62.31130035 105.85436189 58.58300781 110.7668457 C58.05707031 111.36110352 57.53113281 111.95536133 56.98925781 112.56762695 C56.32925781 112.56762695 55.66925781 112.56762695 54.98925781 112.56762695 C54.72113281 113.14512695 54.45300781 113.72262695 54.17675781 114.31762695 C52.97124978 116.60174744 51.55790259 118.52194226 49.98925781 120.56762695 C55.22024501 117.52920247 60.31456756 114.39776285 65.23925781 110.88012695 C68.70359496 108.40715672 72.13677106 106.39755816 75.98925781 104.56762695 C76.64925781 103.90762695 77.30925781 103.24762695 77.98925781 102.56762695 C80.31200958 102.16715251 82.64665138 101.82791656 84.98925781 101.56762695 C81.83266234 122.51256631 81.83266234 122.51256631 76.98925781 131.56762695 C75.69740772 135.51116935 74.98925781 138.40164218 74.98925781 142.56762695 C79.33233536 137.90283996 81.51752357 132.35189028 83.98925781 126.56762695 C84.64925781 126.56762695 85.30925781 126.56762695 85.98925781 126.56762695 C86.39144531 124.89700195 86.39144531 124.89700195 86.80175781 123.19262695 C87.98925781 119.56762695 87.98925781 119.56762695 90.98925781 117.56762695 C92.08211552 115.57305775 92.94055443 113.53513621 93.82910156 111.44262695 C95.24441931 109.15524474 96.58629613 108.6682108 98.98925781 107.56762695 C99.1631604 108.77878174 99.1631604 108.77878174 99.34057617 110.0144043 C99.86572935 113.65767086 100.39617485 117.30014737 100.92675781 120.94262695 C101.10916016 122.21364258 101.2915625 123.4846582 101.47949219 124.79418945 C101.74536133 126.61176758 101.74536133 126.61176758 102.01660156 128.46606445 C102.17894287 129.58674316 102.34128418 130.70742188 102.50854492 131.86206055 C102.84963315 134.52491949 102.84963315 134.52491949 103.98925781 136.56762695 C104.12341254 139.23998905 104.03244322 141.89013184 103.98925781 144.56762695 C89.26387123 144.73140549 74.53860577 144.85471289 59.81249237 144.93031216 C52.97429392 144.96635308 46.13666251 145.01545723 39.29882812 145.09570312 C32.69824014 145.17312764 26.09808577 145.21363384 19.49702454 145.23176765 C16.98039994 145.24468816 14.46380707 145.26991946 11.94743347 145.30773735 C8.41835273 145.35865906 4.89169451 145.36554588 1.36230469 145.36230469 C-0.19352829 145.40005508 -0.19352829 145.40005508 -1.78079224 145.43856812 C-8.39228435 145.37299466 -11.7447439 144.00742536 -16.43398285 139.30249119 C-16.95431343 138.72998599 -17.47464401 138.15748079 -18.01074219 137.56762695 C-18.77644531 136.78516602 -19.54214844 136.00270508 -20.33105469 135.1965332 C-29.07907429 125.1798614 -35.82481462 115.29802521 -40.01074219 102.56762695 C-40.36394531 101.66270508 -40.71714844 100.7577832 -41.08105469 99.82543945 C-48.01607556 79.21436342 -46.21040721 53.11645822 -36.67480469 33.70825195 C-34.57195294 29.58904107 -32.33397292 25.5662158 -30.01074219 21.56762695 C-29.35074219 21.56762695 -28.69074219 21.56762695 -28.01074219 21.56762695 C-27.91277344 21.00172852 -27.81480469 20.43583008 -27.71386719 19.8527832 C-25.78845068 13.59517956 -20.62780571 8.60387751 -15.01074219 5.56762695 C-14.53014343 4.72855301 -14.04954468 3.88947906 -13.55438232 3.02497864 C-9.53574113 -0.85733733 -5.3816832 -0.0911851 0 0 Z " fill="#FEFEFB" transform="translate(198.0107421875,177.432373046875)"/>
<path d="M0 0 C35.31 0 70.62 0 107 0 C105.74830725 3.75507824 103.82358723 5.24058521 101 8 C96.70555258 12.51467549 94.17559699 17.29881968 91.484375 22.91015625 C90.13902872 25.71060074 88.70548925 28.44347469 87.25 31.1875 C85.29674706 35.07528461 84.18978448 38.72606269 83.39453125 42.9921875 C83 45 83 45 82 47.875 C75.59876435 67.87886139 78.23883793 92.07127879 87 111 C88.22621233 114.29808833 89.42967535 117.60325626 90.62109375 120.9140625 C92.07042584 124.15761024 93.68744905 126.31366196 96 129 C96.93718377 130.16796633 97.869125 131.34015118 98.796875 132.515625 C99.28027344 133.12664062 99.76367188 133.73765625 100.26171875 134.3671875 C100.75285156 134.98851562 101.24398437 135.60984375 101.75 136.25 C102.25660156 136.88679687 102.76320313 137.52359375 103.28515625 138.1796875 C107 142.88582379 107 142.88582379 107 144 C71.69 144 36.38 144 0 144 C0 143.34 0 142.68 0 142 C-0.66 142 -1.32 142 -2 142 C-7.86371109 125.52264424 -11.6465212 107.08513911 -12.5625 89.625 C-12.6251001 88.43970703 -12.6251001 88.43970703 -12.68896484 87.23046875 C-14.06668061 59.11382044 -12.77695207 29.05963863 -1 3 C0.32 3.33 1.64 3.66 3 4 C3 3.34 3 2.68 3 2 C2.01 2 1.02 2 0 2 C0 1.34 0 0.68 0 0 Z " fill="#FDFDFC" transform="translate(45,178)"/>
<path d="M0 0 C1.32 0 2.64 0 4 0 C4.57264978 4.7685278 5.14222844 9.53740872 5.70898438 14.30664062 C5.90215379 15.92848581 6.0961569 17.55023192 6.29101562 19.171875 C6.57121355 21.50495162 6.84839554 23.83836996 7.125 26.171875 C7.21249512 26.89493835 7.29999023 27.61800171 7.39013672 28.36297607 C7.77275291 31.61377021 8 34.71954191 8 38 C10.42130331 36.78934835 10.84658222 35.78126593 12.125 33.4375 C12.74375 32.303125 13.3625 31.16875 14 30 C14.66 30 15.32 30 16 30 C16.268125 29.13375 16.53625 28.2675 16.8125 27.375 C17.97111987 24.08208036 19.38209839 21.08872125 21 18 C21.66 18 22.32 18 23 18 C23.4021875 16.92492187 23.4021875 16.92492187 23.8125 15.828125 C25.01283981 12.96942097 26.40806482 10.40853175 28 7.75 C28.515625 6.87859375 29.03125 6.0071875 29.5625 5.109375 C31 3 31 3 33 2 C32.45061453 7.36389251 31.50454367 12.10268269 29.8125 17.25 C29.36590857 18.62979504 28.92066542 20.01002699 28.4765625 21.390625 C28.23969727 22.12345703 28.00283203 22.85628906 27.75878906 23.61132812 C26.34643874 28.05741421 25.02100164 32.52976147 23.6875 37 C23.42106689 37.89106445 23.15463379 38.78212891 22.88012695 39.70019531 C22.25257177 41.79987748 21.62615675 43.89990037 21 46 C21.73863281 45.50371094 22.47726562 45.00742188 23.23828125 44.49609375 C30.10027016 39.90108974 36.99588608 35.37629308 44 31 C44.91394531 30.42765625 45.82789063 29.8553125 46.76953125 29.265625 C47.64996094 28.72421875 48.53039062 28.1828125 49.4375 27.625 C50.21996094 27.14289063 51.00242187 26.66078125 51.80859375 26.1640625 C53.89227269 25.05722413 55.69473487 24.45160091 58 24 C57.62488281 24.42410156 57.24976563 24.84820312 56.86328125 25.28515625 C54.228019 28.30541903 51.71537935 31.32425127 49.4375 34.625 C47.25584796 37.76462104 44.70466171 40.29533829 42 43 C41.01 44.5159375 41.01 44.5159375 40 46.0625 C37.94265318 49.08422815 35.83734032 50.74467821 33 53 C31.96348744 54.64420786 30.95803399 56.30886173 30 58 C30.74983154 57.90912109 31.49966309 57.81824219 32.2722168 57.72460938 C35.74308349 57.30852146 39.21523169 56.90421792 42.6875 56.5 C43.86634766 56.35691406 45.04519531 56.21382812 46.25976562 56.06640625 C54.21130225 55.15143491 61.9982967 54.81971754 70 55 C65.80003855 58.19372069 63.41581802 60 58 60 C58 60.66 58 61.32 58 62 C50.41217484 66.26815165 42.30398118 68.54105412 34 71 C34 71.66 34 72.32 34 73 C35.00417969 73.36351562 36.00835937 73.72703125 37.04296875 74.1015625 C44.93246993 76.98995183 52.60746079 80.07634336 60.203125 83.67578125 C63.43554549 85.20621498 66.70150895 86.61923631 70 88 C70 88.33 70 88.66 70 89 C61.1976098 89.14569473 52.52221013 88.7048247 43.75 88 C42.51636719 87.90460938 41.28273438 87.80921875 40.01171875 87.7109375 C37.00746767 87.47804982 34.00360877 87.24100659 31 87 C35.33907634 92.67186235 39.79077349 98.19445135 44.5 103.5625 C45.06098389 104.20582275 45.62196777 104.84914551 46.19995117 105.51196289 C47.79771281 107.34329513 49.39849038 109.17194557 51 111 C51.79019531 111.90492188 52.58039063 112.80984375 53.39453125 113.7421875 C54.92745296 115.49677406 56.46219298 117.24969601 58 119 C56.515 119.495 56.515 119.495 55 120 C53.30712215 119.04504326 51.64142963 118.0409066 50 117 C49.319375 116.855625 48.63875 116.71125 47.9375 116.5625 C46 116 46 116 44.21484375 114.19140625 C41.8436678 111.84532211 39.43729948 110.16321283 36.625 108.375 C35.70976562 107.78460938 34.79453125 107.19421875 33.8515625 106.5859375 C30.95736197 104.97628625 28.16745273 103.94369536 25 103 C25 102.34 25 101.68 25 101 C24.34 101 23.68 101 23 101 C25.52411736 112.02333181 28.08485283 122.98732197 31.56323242 133.75561523 C33.10500044 138.68499868 33.10500044 138.68499868 32 142 C31.45472656 141.07960938 30.90945313 140.15921875 30.34765625 139.2109375 C24.4033796 129.21779576 18.34490109 119.2959793 11.73828125 109.72265625 C10 107 10 107 10 105 C9.34 105 8.68 105 8 105 C8.020625 106.0725 8.04125 107.145 8.0625 108.25 C8 112 8 112 7.5234375 113.828125 C6.827219 116.71691221 6.72616538 119.53398241 6.5625 122.5 C5.47138554 139.05722892 5.47138554 139.05722892 3 144 C2.01 144 1.02 144 0 144 C-0.19335938 142.82824219 -0.38671875 141.65648437 -0.5859375 140.44921875 C-0.84890068 138.86196961 -1.11192569 137.27473072 -1.375 135.6875 C-1.57863159 134.45314209 -1.57863159 134.45314209 -1.78637695 133.19384766 C-2.52572457 128.74027292 -3.31652056 124.30508969 -4.1875 119.875 C-5.00472309 115.50522032 -5.16751995 111.43927874 -5 107 C-8.70658975 110.40605545 -10.84217348 113.47883967 -13 118 C-13.99 118.495 -13.99 118.495 -15 119 C-16.05352843 121.30965848 -17.05719096 123.6429774 -18 126 C-18.66 126 -19.32 126 -20 126 C-20.268125 126.86625 -20.53625 127.7325 -20.8125 128.625 C-22.93001853 134.64321057 -25.27157563 138.65496139 -30 143 C-29.20022813 135.64209884 -26.99535997 128.841222 -24.5625 121.875 C-22.24394768 115.05500303 -20.69098902 107.99571601 -19 101 C-20.216875 101.433125 -21.43375 101.86625 -22.6875 102.3125 C-23.37199219 102.55613281 -24.05648437 102.79976563 -24.76171875 103.05078125 C-27.34852768 104.14780493 -29.61858693 105.50934449 -32 107 C-32.85078125 107.53238281 -33.7015625 108.06476563 -34.578125 108.61328125 C-39.85486097 111.96910018 -45.08143642 115.37285741 -50.22265625 118.93359375 C-52 120 -52 120 -54 120 C-52.39595667 116.10973399 -49.73491869 113.37416748 -46.875 110.375 C-42.67686094 105.89051467 -38.72003665 101.3046764 -34.94921875 96.44921875 C-32.38389225 93.22585259 -29.69591363 90.11435058 -27 87 C-27.96301025 87.06058594 -28.92602051 87.12117188 -29.91821289 87.18359375 C-33.51687399 87.40941704 -37.11570826 87.63237105 -40.71459961 87.85449219 C-42.26738213 87.95072369 -43.82011768 88.04771638 -45.37280273 88.14550781 C-47.61429901 88.28654578 -49.85595414 88.42477694 -52.09765625 88.5625 C-53.12621483 88.62812134 -53.12621483 88.62812134 -54.17555237 88.69506836 C-58.45670669 88.95474006 -62.71151216 89.03900842 -67 89 C-61.16756185 85.1117079 -54.81344557 82.15530833 -48.2109375 79.82421875 C-44.3199575 78.3736944 -40.53572939 76.65752884 -36.734375 74.98828125 C-34 74 -34 74 -30 74 C-30.33 73.01 -30.66 72.02 -31 71 C-33.43527058 69.75943109 -33.43527058 69.75943109 -36.5 68.75 C-37.66660156 68.32460937 -38.83320313 67.89921875 -40.03515625 67.4609375 C-40.98865967 67.11434082 -40.98865967 67.11434082 -41.96142578 66.76074219 C-45.65406688 65.38274582 -49.29402795 63.87721688 -52.9375 62.375 C-53.64648438 62.08592773 -54.35546875 61.79685547 -55.0859375 61.49902344 C-59.14929007 59.82644305 -63.09221524 58.0181048 -67 56 C-67 55.67 -67 55.34 -67 55 C-58.02505354 54.74482185 -49.22269412 55.5468214 -40.3125 56.5 C-38.91737106 56.64504539 -37.52218892 56.78957994 -36.12695312 56.93359375 C-32.75074676 57.284065 -29.37516292 57.63964186 -26 58 C-32.02437384 50.36721699 -32.02437384 50.36721699 -38.4375 43.0625 C-42.50966684 38.60922916 -46.30696373 33.97831099 -50.0546875 29.25 C-51.98055544 26.82039747 -51.98055544 26.82039747 -55 25 C-55 24.34 -55 23.68 -55 23 C-52.09542774 23.99585334 -50.01951308 24.98408144 -47.625 26.9375 C-45.02501556 29.1690047 -45.02501556 29.1690047 -41.5625 30.4375 C-38.36575952 31.83957916 -36.31773914 33.30716599 -33.73828125 35.6015625 C-29.00498974 39.40946893 -23.45154681 42.3495936 -18 45 C-20.2178409 36.38955885 -22.59060431 27.83516395 -25.125 19.3125 C-25.50519287 18.02134277 -25.50519287 18.02134277 -25.89306641 16.70410156 C-26.25924072 15.48352051 -26.25924072 15.48352051 -26.6328125 14.23828125 C-26.84824707 13.51680908 -27.06368164 12.79533691 -27.28564453 12.05200195 C-27.96322747 9.95141569 -27.96322747 9.95141569 -29.07763672 7.90698242 C-30.23820201 5.50751829 -30.14616684 3.63100306 -30 1 C-23.94523749 6.52106004 -19.82402033 14.81084179 -16 22 C-16 22.66 -16 23.32 -16 24 C-15.34 24 -14.68 24 -14 24 C-12.5625 26.046875 -12.5625 26.046875 -11 28.75 C-10.484375 29.63171875 -9.96875 30.5134375 -9.4375 31.421875 C-8.5526601 33.00881613 -7.70896771 34.62058356 -6.9375 36.265625 C-6.11668483 38.18089748 -6.11668483 38.18089748 -4 39 C-4.01160156 38.39671875 -4.02320313 37.7934375 -4.03515625 37.171875 C-4.04417969 36.37265625 -4.05320312 35.5734375 -4.0625 34.75 C-4.07410156 33.96109375 -4.08570313 33.1721875 -4.09765625 32.359375 C-4 30 -4 30 -3.52514648 28.10546875 C-3.01002204 26.04018134 -2.72379501 24.06818763 -2.5 21.953125 C-2.4175 21.19 -2.335 20.426875 -2.25 19.640625 C-2.1675 18.85171875 -2.085 18.0628125 -2 17.25 C-1.83388263 15.69264964 -1.66721959 14.13535739 -1.5 12.578125 C-1.37818359 11.44213867 -1.37818359 11.44213867 -1.25390625 10.28320312 C-0.87218466 6.85064509 -0.43800176 3.42579948 0 0 Z " fill="#FCCC07" transform="translate(302,178)"/>
<path d="M0 0 C1.21115479 -0.01861084 2.42230957 -0.03722168 3.67016602 -0.05639648 C12.16990848 0.003115 19.34701076 1.59354307 27.3125 4.5 C28.2209668 4.82178223 29.12943359 5.14356445 30.06542969 5.47509766 C47.45206585 11.7791317 47.45206585 11.7791317 50.3125 17.5 C49.74144531 17.31824219 49.17039062 17.13648438 48.58203125 16.94921875 C45.83483956 16.09754565 43.07748975 15.29203577 40.3125 14.5 C39.32378906 14.21382812 38.33507812 13.92765625 37.31640625 13.6328125 C17.71478697 8.49381119 -1.98119409 11.93736092 -19.6875 21.5 C-21.06211093 22.79073636 -22.40827795 24.11466737 -23.6875 25.5 C-24.491875 25.809375 -25.29625 26.11875 -26.125 26.4375 C-29.47216951 27.82535077 -31.22953097 29.85768329 -33.6875 32.5 C-34.5125 33.304375 -35.3375 34.10875 -36.1875 34.9375 C-41.36907147 40.10699798 -41.36907147 40.10699798 -44.6875 46.5 C-45.3475 46.5 -46.0075 46.5 -46.6875 46.5 C-46.95949219 47.21800781 -47.23148438 47.93601563 -47.51171875 48.67578125 C-48.67592536 51.47219778 -50.04733172 54.0313018 -51.5 56.6875 C-61.39945589 76.87557957 -64.03406985 103.1955327 -56.75 124.76953125 C-56.399375 125.67058594 -56.04875 126.57164062 -55.6875 127.5 C-55.3471875 128.58861328 -55.3471875 128.58861328 -55 129.69921875 C-50.35063076 144.02508773 -40.37542641 158.02137675 -28.6875 167.5 C-27.86765625 167.81839844 -27.0478125 168.13679687 -26.203125 168.46484375 C-23.28168208 169.66699029 -21.89430946 171.27180673 -19.6875 173.5 C-16.14266689 175.44305293 -12.41708734 176.94557059 -8.6875 178.5 C-7.66076172 178.95246094 -7.66076172 178.95246094 -6.61328125 179.4140625 C11.37698365 186.88171963 32.52034677 184.17205746 50.3125 177.5 C46.95016469 181.35249672 43.27273262 183.31317257 38.75 185.5 C38.03545654 185.84885254 37.32091309 186.19770508 36.5847168 186.55712891 C17.19146363 195.88840065 -5.23446261 199.15126955 -26.1015625 192.39453125 C-32.16036132 190.13118686 -37.97349767 187.52506006 -43.6875 184.5 C-43.6875 183.84 -43.6875 183.18 -43.6875 182.5 C-44.37585938 182.44328125 -45.06421875 182.3865625 -45.7734375 182.328125 C-49.71450762 181.20814261 -52.29861474 178.90538716 -55.3125 176.25 C-55.92206543 175.72003418 -56.53163086 175.19006836 -57.15966797 174.64404297 C-66.56038493 166.26850203 -75.62759232 156.26048993 -80.25 144.4375 C-81.90367229 140.21377296 -81.90367229 140.21377296 -84.17578125 136.3125 C-86.5062669 131.97671274 -87.29233079 127.35162769 -88.3125 122.5625 C-88.5290625 121.58603516 -88.745625 120.60957031 -88.96875 119.60351562 C-94.08731209 96.3014197 -92.74183419 70.11784511 -79.6875 49.3125 C-79.0275 48.384375 -78.3675 47.45625 -77.6875 46.5 C-76.90195799 44.88205909 -76.1326104 43.25620676 -75.375 41.625 C-72.8767748 36.49706406 -69.65010515 32.56589581 -65.6875 28.5 C-65.16414063 27.93152344 -64.64078125 27.36304688 -64.1015625 26.77734375 C-62.6875 25.5 -62.6875 25.5 -60.6875 25.5 C-60.48640625 24.93925781 -60.2853125 24.37851563 -60.078125 23.80078125 C-58.14888547 20.60886529 -55.44475112 18.78242986 -52.4375 16.6875 C-51.81343262 16.25099121 -51.18936523 15.81448242 -50.54638672 15.36474609 C-34.49729055 4.39269265 -19.25816189 0.19388639 0 0 Z " fill="#FCCB06" transform="translate(214.6875,152.5)"/>
<path d="M0 0 C-0.99 0.33 -1.98 0.66 -3 1 C-3 1.66 -3 2.32 -3 3 C-2.030625 3.309375 -1.06125 3.61875 -0.0625 3.9375 C3 5 3 5 4 6 C6.44608998 6.15980437 8.86731058 6.25929447 11.31640625 6.31640625 C12.04746078 6.33718735 12.77851532 6.35796844 13.53172302 6.37937927 C15.87521656 6.44495024 18.21882539 6.50379432 20.5625 6.5625 C22.14779855 6.60567808 23.73308529 6.64929213 25.31835938 6.69335938 C29.21212037 6.8006392 33.10599772 6.9018849 37 7 C37.33 4.69 37.66 2.38 38 0 C39.32 0.66 40.64 1.32 42 2 C42 3.98 42 5.96 42 8 C91.83 8 141.66 8 193 8 C193.66 10.64 194.32 13.28 195 16 C194.34 15.67 193.68 15.34 193 15 C192.67 13.02 192.34 11.04 192 9 C104.88 9 17.76 9 -72 9 C-71 6 -71 6 -67.61328125 4.02734375 C-66.18475207 3.32040154 -64.75087036 2.62419763 -63.3125 1.9375 C-62.60416016 1.58623047 -61.89582031 1.23496094 -61.16601562 0.87304688 C-41.59516358 -8.68649212 -19.93994644 -8.21056618 0 0 Z " fill="#DA2410" transform="translate(263,169)"/>
<path d="M0 0 C36.63 0 73.26 0 111 0 C111 0.33 111 0.66 111 1 C98.79 1.33 86.58 1.66 74 2 C74 3.32 74 4.64 74 6 C75.32 6.33 76.64 6.66 78 7 C77.01 7.33 76.02 7.66 75 8 C73.79117904 10.00016466 73.79117904 10.00016466 73 12 C72.01 11.67 71.02 11.34 70 11 C70.66 10.34 71.32 9.68 72 9 C71.42894531 9.26554687 70.85789062 9.53109375 70.26953125 9.8046875 C54.05983939 16.86582513 34.47689989 17.24553884 17.84521484 11.21923828 C4.21221502 5.83898078 4.21221502 5.83898078 0 2 C0 1.34 0 0.68 0 0 Z " fill="#023570" transform="translate(191,322)"/>
<path d="M0 0 C1.12224472 -0.00073013 2.24448944 -0.00146027 3.40074158 -0.00221252 C7.11302898 0.00127306 10.82406438 0.04018312 14.53613281 0.0793457 C17.10873733 0.0886703 19.68135072 0.09578807 22.25396729 0.1007843 C28.33499307 0.11792934 34.41550156 0.15734162 40.49633241 0.20753175 C47.4200508 0.26343724 54.34379079 0.29091462 61.26767874 0.31600893 C75.50844664 0.36825854 89.74883624 0.45619318 103.98925781 0.56762695 C104.01097644 9.38430763 104.01097644 9.38430763 103.62207031 12.8293457 C103.5019458 13.91046631 103.5019458 13.91046631 103.37939453 15.01342773 C103.29189941 15.75318848 103.2044043 16.49294922 103.11425781 17.25512695 C103.02547363 18.03098145 102.93668945 18.80683594 102.84521484 19.60620117 C102.0624432 26.28796194 101.09149886 32.93072874 99.98925781 39.56762695 C95.75887965 37.73475263 94.88396686 35.76893831 92.98925781 31.56762695 C92.43238281 30.66012695 91.87550781 29.75262695 91.30175781 28.81762695 C89.98925781 26.56762695 89.98925781 26.56762695 89.98925781 24.56762695 C89.32925781 24.56762695 88.66925781 24.56762695 87.98925781 24.56762695 C87.58707031 23.81932617 87.58707031 23.81932617 87.17675781 23.0559082 C83.3636573 16.06940497 79.19581913 9.32108891 74.98925781 2.56762695 C74.32925781 3.88762695 73.66925781 5.20762695 72.98925781 6.56762695 C72.98925781 4.91762695 72.98925781 3.26762695 72.98925781 1.56762695 C62.49712839 1.65197829 52.00515185 1.74684142 41.51324081 1.85515404 C36.64150596 1.90511615 31.76979278 1.95144625 26.89794922 1.98950195 C22.1970238 2.02635575 17.49627977 2.07271607 12.79550934 2.12569046 C11.00138783 2.14423389 9.20722744 2.15934205 7.41304779 2.17097092 C4.90147803 2.18783423 2.39032361 2.21686934 -0.12109375 2.2487793 C-0.86412247 2.25093948 -1.60715118 2.25309967 -2.37269592 2.25532532 C-6.04235983 2.31495201 -8.96262983 2.4015761 -12.01074219 4.56762695 C-13.02262114 6.22710843 -14.02339678 7.89343257 -15.01074219 9.56762695 C-16.00074219 9.89762695 -16.99074219 10.22762695 -18.01074219 10.56762695 C-18.34074219 11.55762695 -18.67074219 12.54762695 -19.01074219 13.56762695 C-21.07324219 14.25512695 -21.07324219 14.25512695 -23.01074219 14.56762695 C-23.11386719 15.20700195 -23.21699219 15.84637695 -23.32324219 16.50512695 C-23.55011719 17.18575195 -23.77699219 17.86637695 -24.01074219 18.56762695 C-25.00074219 18.89762695 -25.99074219 19.22762695 -27.01074219 19.56762695 C-27.09324219 20.35137695 -27.17574219 21.13512695 -27.26074219 21.94262695 C-28.01074219 24.56762695 -28.01074219 24.56762695 -30.07324219 25.88012695 C-31.03230469 26.22043945 -31.03230469 26.22043945 -32.01074219 26.56762695 C-31.35074219 24.91762695 -30.69074219 23.26762695 -30.01074219 21.56762695 C-29.35074219 21.56762695 -28.69074219 21.56762695 -28.01074219 21.56762695 C-27.91277344 21.00172852 -27.81480469 20.43583008 -27.71386719 19.8527832 C-25.78845068 13.59517956 -20.62780571 8.60387751 -15.01074219 5.56762695 C-14.53014343 4.72855301 -14.04954468 3.88947906 -13.55438232 3.02497864 C-9.53574113 -0.85733733 -5.3816832 -0.0911851 0 0 Z " fill="#FDFDF9" transform="translate(198.0107421875,177.432373046875)"/>
<path d="M0 0 C1.32 0.66 2.64 1.32 4 2 C4 3.98 4 5.96 4 8 C53.83 8 103.66 8 155 8 C155.66 10.64 156.32 13.28 157 16 C156.34 15.67 155.68 15.34 155 15 C154.67 13.02 154.34 11.04 154 9 C66.88 9 -20.24 9 -110 9 C-109.67 8.01 -109.34 7.02 -109 6 C-107.35 5.67 -105.7 5.34 -104 5 C-104 5.66 -104 6.32 -104 7 C-70.01 7 -36.02 7 -1 7 C-0.67 4.69 -0.34 2.38 0 0 Z " fill="#D04C3A" transform="translate(301,169)"/>
<path d="M0 0 C0.98120464 3.05263664 0.98120464 4.94736336 0 8 C-0.66 8 -1.32 8 -2 8 C-1.83242188 8.73605469 -1.66484375 9.47210938 -1.4921875 10.23046875 C-1.28851563 11.20628906 -1.08484375 12.18210938 -0.875 13.1875 C-0.66617188 14.15042969 -0.45734375 15.11335937 -0.2421875 16.10546875 C0.02891012 19.34552253 -0.57618825 21.11546285 -2 24 C-1.01 23.67 -0.02 23.34 1 23 C2.33900491 22.92013396 3.68173663 22.89508358 5.02307129 22.90666199 C5.83903275 22.91106796 6.6549942 22.91547394 7.49568176 22.92001343 C8.38720444 22.92989288 9.27872711 22.93977234 10.19726562 22.94995117 C11.13898117 22.95623032 12.08069672 22.96250946 13.0509491 22.96897888 C15.09714684 22.98283624 17.14333129 22.99877352 19.1894989 23.01653099 C22.4250368 23.04312315 25.66050684 23.06102057 28.89611816 23.07600403 C38.09607262 23.11881046 47.29589153 23.16659377 56.49560547 23.24682617 C62.12058244 23.29524985 67.74537108 23.32431571 73.37052917 23.34057045 C75.51723295 23.3504929 77.66391551 23.36774025 79.8105011 23.39235497 C82.80814796 23.42596917 85.80492299 23.43497844 88.80273438 23.43823242 C90.14001839 23.46216064 90.14001839 23.46216064 91.50431824 23.48657227 C96.29682896 23.60109974 96.29682896 23.60109974 100.0748291 20.97261047 C100.3801355 20.32164902 100.68544189 19.67068756 101 19 C102.98 19.495 102.98 19.495 105 20 C104.195625 20.61875 103.39125 21.2375 102.5625 21.875 C99.96125481 23.74164041 99.96125481 23.74164041 99 26 C63.03 26 27.06 26 -10 26 C-10 26.66 -10 27.32 -10 28 C-9.01 28 -8.02 28 -7 28 C-7 28.66 -7 29.32 -7 30 C-8.32 29.67 -9.64 29.34 -11 29 C-11.33 30.32 -11.66 31.64 -12 33 C-13 31 -13 31 -12.46875 28.70703125 C-9.13265358 18.739098 -4.73268652 9.37165648 0 0 Z " fill="#CF2718" transform="translate(55,152)"/>
<path d="M0 0 C36.63 0 73.26 0 111 0 C111 0.33 111 0.66 111 1 C109.38507156 1.00546844 109.38507156 1.00546844 107.73751831 1.01104736 C97.58506722 1.04800906 87.43291912 1.10579469 77.28069878 1.18390274 C72.06146879 1.22339039 66.84240785 1.25557263 61.62304688 1.27099609 C56.58484006 1.28615408 51.54709795 1.32058465 46.50909805 1.36830902 C44.58824836 1.38313162 42.66733233 1.39104152 40.74642563 1.39188385 C38.05294156 1.39425261 35.36074266 1.42132446 32.66748047 1.45410156 C31.87553787 1.4490712 31.08359528 1.44404083 30.26765442 1.43885803 C25.08899024 1.53618585 22.11556555 2.58631423 18 6 C17.67 6.66 17.34 7.32 17 8 C18.98 7.34 20.96 6.68 23 6 C23 7.65 23 9.3 23 11 C25.64 11 28.28 11 31 11 C31 11.66 31 12.32 31 13 C34.77112931 12.86125385 38.54181445 12.71278907 42.3125 12.5625 C43.38435547 12.52318359 44.45621094 12.48386719 45.56054688 12.44335938 C46.58857422 12.40146484 47.61660156 12.35957031 48.67578125 12.31640625 C49.62364502 12.27974854 50.57150879 12.24309082 51.5480957 12.20532227 C54.136171 12.08569813 54.136171 12.08569813 57 11 C58.39439664 10.93334624 59.79169875 10.91461801 61.1875 10.9375 C63.0746875 10.9684375 63.0746875 10.9684375 65 11 C55.20022034 17.53318644 38.70952282 15.82373182 27.625 13.9375 C18.42668617 11.92446587 7.0684808 8.44215972 0 2 C0 1.34 0 0.68 0 0 Z " fill="#2D506D" transform="translate(191,322)"/>
<path d="M0 0 C4.31965446 4.26952308 8.51608949 8.64833039 12.6875 13.0625 C13.70166992 14.12307617 13.70166992 14.12307617 14.73632812 15.20507812 C15.70795898 16.2347168 15.70795898 16.2347168 16.69921875 17.28515625 C17.28533936 17.90269775 17.87145996 18.52023926 18.4753418 19.15649414 C20.01366553 21.01652337 21.01436865 22.80468883 22 25 C15.35476666 23.99314646 10.69684356 21.69684356 6 17 C4.2429168 15.74190719 2.44861556 14.53455387 0.625 13.375 C-0.29023438 12.78460938 -1.20546875 12.19421875 -2.1484375 11.5859375 C-5.04263803 9.97628625 -7.83254727 8.94369536 -11 8 C-11 7.34 -11 6.68 -11 6 C-11.66 6 -12.32 6 -13 6 C-12.01 10.29 -11.02 14.58 -10 19 C-10.66 19 -11.32 19 -12 19 C-13.32 13.72 -14.64 8.44 -16 3 C-13.09869813 3.72532547 -10.51867482 4.50117465 -7.75 5.5625 C-7.04359375 5.83191406 -6.3371875 6.10132813 -5.609375 6.37890625 C-5.07828125 6.58386719 -4.5471875 6.78882813 -4 7 C-4 6.34 -4 5.68 -4 5 C-2.68 4.67 -1.36 4.34 0 4 C0 2.68 0 1.36 0 0 Z " fill="#FACE18" transform="translate(338,273)"/>
<path d="M0 0 C49.17 0 98.34 0 149 0 C149 0.33 149 0.66 149 1 C110.06 1 71.12 1 31 1 C31 2.98 31 4.96 31 7 C30.125 9.5546875 30.125 9.5546875 29 11.875 C28.62875 12.65617188 28.2575 13.43734375 27.875 14.2421875 C27.441875 15.11230469 27.441875 15.11230469 27 16 C25.85018426 12.19676332 26.48438956 10.65529576 28 7 C28 5.35 28 3.7 28 2 C19.09 1.67 10.18 1.34 1 1 C1.66 4.63 2.32 8.26 3 12 C3.19099708 13.95779316 3.34257928 15.92093034 3.4140625 17.88671875 C3.45273437 18.84384766 3.49140625 19.80097656 3.53125 20.78710938 C3.5621875 21.74423828 3.593125 22.70136719 3.625 23.6875 C3.66367187 24.68716797 3.70234375 25.68683594 3.7421875 26.71679688 C3.83510872 29.14436379 3.92096061 31.5719484 4 34 C3.67 34 3.34 34 3 34 C2.49095237 30.02193721 1.99442573 26.04240442 1.5 22.0625 C1.35691406 20.94552734 1.21382813 19.82855469 1.06640625 18.67773438 C0.93105469 17.57880859 0.79570312 16.47988281 0.65625 15.34765625 C0.53056641 14.34742432 0.40488281 13.34719238 0.27539062 12.31665039 C-0.06442033 8.22415762 0 4.10657625 0 0 Z " fill="#FEF2DE" transform="translate(306,178)"/>
<path d="M0 0 C1.12224472 -0.00073013 2.24448944 -0.00146027 3.40074158 -0.00221252 C7.11302898 0.00127306 10.82406438 0.04018312 14.53613281 0.0793457 C17.10873733 0.0886703 19.68135072 0.09578807 22.25396729 0.1007843 C28.33499307 0.11792934 34.41550156 0.15734162 40.49633241 0.20753175 C47.4200508 0.26343724 54.34379079 0.29091462 61.26767874 0.31600893 C75.50844664 0.36825854 89.74883624 0.45619318 103.98925781 0.56762695 C103.98925781 3.20762695 103.98925781 5.84762695 103.98925781 8.56762695 C103.65925781 8.56762695 103.32925781 8.56762695 102.98925781 8.56762695 C102.98925781 6.25762695 102.98925781 3.94762695 102.98925781 1.56762695 C94.40925781 1.56762695 85.82925781 1.56762695 76.98925781 1.56762695 C78.30925781 3.54762695 79.62925781 5.52762695 80.98925781 7.56762695 C80.65925781 8.55762695 80.32925781 9.54762695 79.98925781 10.56762695 C78.33925781 7.92762695 76.68925781 5.28762695 74.98925781 2.56762695 C74.32925781 3.88762695 73.66925781 5.20762695 72.98925781 6.56762695 C72.98925781 4.91762695 72.98925781 3.26762695 72.98925781 1.56762695 C62.49712839 1.65197829 52.00515185 1.74684142 41.51324081 1.85515404 C36.64150596 1.90511615 31.76979278 1.95144625 26.89794922 1.98950195 C22.1970238 2.02635575 17.49627977 2.07271607 12.79550934 2.12569046 C11.00138783 2.14423389 9.20722744 2.15934205 7.41304779 2.17097092 C4.90147803 2.18783423 2.39032361 2.21686934 -0.12109375 2.2487793 C-0.86412247 2.25093948 -1.60715118 2.25309967 -2.37269592 2.25532532 C-6.04235983 2.31495201 -8.96262983 2.4015761 -12.01074219 4.56762695 C-13.02262114 6.22710843 -14.02339678 7.89343257 -15.01074219 9.56762695 C-16.00074219 9.89762695 -16.99074219 10.22762695 -18.01074219 10.56762695 C-18.34074219 11.55762695 -18.67074219 12.54762695 -19.01074219 13.56762695 C-21.07324219 14.25512695 -21.07324219 14.25512695 -23.01074219 14.56762695 C-23.11386719 15.20700195 -23.21699219 15.84637695 -23.32324219 16.50512695 C-23.55011719 17.18575195 -23.77699219 17.86637695 -24.01074219 18.56762695 C-25.00074219 18.89762695 -25.99074219 19.22762695 -27.01074219 19.56762695 C-27.09324219 20.35137695 -27.17574219 21.13512695 -27.26074219 21.94262695 C-28.01074219 24.56762695 -28.01074219 24.56762695 -30.07324219 25.88012695 C-31.03230469 26.22043945 -31.03230469 26.22043945 -32.01074219 26.56762695 C-31.35074219 24.91762695 -30.69074219 23.26762695 -30.01074219 21.56762695 C-29.35074219 21.56762695 -28.69074219 21.56762695 -28.01074219 21.56762695 C-27.91277344 21.00172852 -27.81480469 20.43583008 -27.71386719 19.8527832 C-25.78845068 13.59517956 -20.62780571 8.60387751 -15.01074219 5.56762695 C-14.53014343 4.72855301 -14.04954468 3.88947906 -13.55438232 3.02497864 C-9.53574113 -0.85733733 -5.3816832 -0.0911851 0 0 Z " fill="#FFF1EC" transform="translate(198.0107421875,177.432373046875)"/>
<path d="M0 0 C3.42668448 1.71334224 4.13612232 5.7124525 5.5 9.125 C5.80808594 9.87265625 6.11617188 10.6203125 6.43359375 11.390625 C8.27338699 15.92299117 9.64044445 20.24155558 11 25 C-28.27 25 -67.54 25 -108 25 C-108 24.67 -108 24.34 -108 24 C-70.05 24 -32.1 24 7 24 C6.10940039 14.73960026 6.10940039 14.73960026 3 12 C3 10.68 3 9.36 3 8 C2.34 8 1.68 8 1 8 C0.505 4.04 0.505 4.04 0 0 Z " fill="#CF2717" transform="translate(444,152)"/>
<path d="M0 0 C1 3 1 3 0 6 C-49.83 6 -99.66 6 -151 6 C-151.33 7.65 -151.66 9.3 -152 11 C-152.33 11 -152.66 11 -153 11 C-153 9.02 -153 7.04 -153 5 C-103.5 4.67 -54 4.34 -3 4 C-2.67 3.34 -2.34 2.68 -2 2 C-1.34 2 -0.68 2 0 2 C0 1.34 0 0.68 0 0 Z " fill="#4E6D8D" transform="translate(456,317)"/>
<path d="M0 0 C1.32 0 2.64 0 4 0 C4.19408107 5.55287496 4.22894978 9.84555363 2 15 C1.92353835 17.3320802 1.90856701 19.66845878 2 22 C3.32 22.33 4.64 22.66 6 23 C5.34 24.32 4.68 25.64 4 27 C3.34 27 2.68 27 2 27 C1.731875 27.86625 1.46375 28.7325 1.1875 29.625 C-0.93001853 35.64321057 -3.27157563 39.65496139 -8 44 C-7.20022813 36.64209884 -4.99535997 29.841222 -2.5625 22.875 C-0.24394768 16.05500303 1.30901098 8.99571601 3 2 C1.35 2.33 -0.3 2.66 -2 3 C-1.34 2.01 -0.68 1.02 0 0 Z " fill="#F9D433" transform="translate(280,277)"/>
<path d="M0 0 C0.66 0.33 1.32 0.66 2 1 C-5.59229878 6.45520727 -13.65489406 11.43687976 -23 13 C-22.34 12.01 -21.68 11.02 -21 10 C-22.03898437 9.95101563 -23.07796875 9.90203125 -24.1484375 9.8515625 C-31.92424495 9.44914019 -39.41534279 8.87592056 -47 7 C-47.78632813 6.81050781 -48.57265625 6.62101562 -49.3828125 6.42578125 C-51.25881225 5.96495204 -53.13005181 5.48480138 -55 5 C-55 4.34 -55 3.68 -55 3 C-52.93728361 3.3110685 -50.87483534 3.62391516 -48.8125 3.9375 C-47.66394531 4.11152344 -46.51539063 4.28554688 -45.33203125 4.46484375 C-43.36951656 4.78004247 -41.41096856 5.12816888 -39.46875 5.55078125 C-28.07860735 7.62335468 -13.73735175 6.13643814 -3.15234375 1.33203125 C-2.11207031 0.89246094 -1.07179688 0.45289063 0 0 Z " fill="#E3C52E" transform="translate(263,330)"/>
<path d="M0 0 C0.99 0.33 1.98 0.66 3 1 C-5.41822008 10.44527962 -5.41822008 10.44527962 -8.6875 13.5625 C-11.47212298 16.49764314 -13.52211296 19.68959427 -15.66796875 23.109375 C-17 25 -17 25 -19 26 C-18.82210938 25.07767578 -18.82210938 25.07767578 -18.640625 24.13671875 C-18.44726562 22.92435547 -18.44726562 22.92435547 -18.25 21.6875 C-18.11078125 20.88699219 -17.9715625 20.08648437 -17.828125 19.26171875 C-17.75327524 16.80899018 -17.75327524 16.80899018 -19.984375 15.20703125 C-20.64953125 14.80871094 -21.3146875 14.41039062 -22 14 C-15.69344585 9.94749942 -9.35542044 5.97307136 -2.8984375 2.1640625 C-1.06150702 1.13923545 -1.06150702 1.13923545 0 0 Z " fill="#FAD12A" transform="translate(357,202)"/>
<path d="M0 0 C1.22596039 3.67788118 0.84310077 4.78449613 0 9 C52.47 9.495 52.47 9.495 106 10 C106 10.33 106 10.66 106 11 C70.03 11 34.06 11 -3 11 C-3 11.66 -3 12.32 -3 13 C-2.01 13 -1.02 13 0 13 C0 13.66 0 14.32 0 15 C-1.32 14.67 -2.64 14.34 -4 14 C-4.33 15.32 -4.66 16.64 -5 18 C-6 16 -6 16 -5.29296875 13.3203125 C-4.92816406 12.26585937 -4.56335937 11.21140625 -4.1875 10.125 C-3.83042969 9.07570312 -3.47335938 8.02640625 -3.10546875 6.9453125 C-2.19683694 4.52443481 -1.21563659 2.27725588 0 0 Z " fill="#D3594B" transform="translate(48,167)"/>
<path d="M0 0 C1.31162109 -0.00257813 2.62324219 -0.00515625 3.97460938 -0.0078125 C4.65048096 -0.00362305 5.32635254 0.00056641 6.02270508 0.00488281 C8.08769989 0.01561386 10.15182842 0.00494785 12.21679688 -0.0078125 C14.18229492 -0.00394531 14.18229492 -0.00394531 16.1875 0 C17.37996338 0.00225586 18.57242676 0.00451172 19.80102539 0.00683594 C22.95934027 0.26017031 25.18235262 0.91568693 28.02734375 2.265625 C24.56444617 3.34398346 21.46746508 3.3241737 17.85546875 3.22265625 C-6.06631795 2.74006131 -24.46647783 5.83055088 -43.97265625 20.265625 C-43.97265625 19.275625 -43.97265625 18.285625 -43.97265625 17.265625 C-42.546875 15.87890625 -42.546875 15.87890625 -40.66015625 14.578125 C-40.04527344 14.14113281 -39.43039063 13.70414063 -38.796875 13.25390625 C-36.97265625 12.265625 -36.97265625 12.265625 -33.97265625 12.265625 C-33.64265625 11.275625 -33.31265625 10.285625 -32.97265625 9.265625 C-31.1184082 8.31420898 -31.1184082 8.31420898 -28.7109375 7.51171875 C-27.83888672 7.21458984 -26.96683594 6.91746094 -26.06835938 6.61132812 C-24.69067383 6.16176758 -24.69067383 6.16176758 -23.28515625 5.703125 C-22.38603516 5.39955078 -21.48691406 5.09597656 -20.56054688 4.78320312 C-18.03483759 3.93265246 -15.50449833 3.09771014 -12.97265625 2.265625 C-12.02487305 1.90766846 -11.07708984 1.54971191 -10.10058594 1.1809082 C-6.59820317 0.15605393 -3.64592696 0.00689072 0 0 Z " fill="#D53E01" transform="translate(204.97265625,150.734375)"/>
<path d="M0 0 C35.31 0 70.62 0 107 0 C106.67 0.99 106.34 1.98 106 3 C105.34 3 104.68 3 104 3 C104 2.34 104 1.68 104 1 C69.68 1 35.36 1 0 1 C0 0.67 0 0.34 0 0 Z " fill="#FEF0E8" transform="translate(45,178)"/>
<path d="M0 0 C0.69077637 -0.00918457 1.38155273 -0.01836914 2.09326172 -0.02783203 C5.76205591 -0.00513472 7.30283344 0.16022229 10.4375 2.25 C3.5075 2.25 -3.4225 2.25 -10.5625 2.25 C-10.8925 3.24 -11.2225 4.23 -11.5625 5.25 C-12.15417969 5.23839844 -12.74585938 5.22679687 -13.35546875 5.21484375 C-17.56481785 5.16677614 -21.4547333 5.18993117 -25.5625 6.25 C-25.8925 7.24 -26.2225 8.23 -26.5625 9.25 C-28.55859375 9.91015625 -28.55859375 9.91015625 -31 10.3125 C-34.70413657 10.88171515 -34.70413657 10.88171515 -37.5625 13.25 C-38.5525 12.59 -39.5425 11.93 -40.5625 11.25 C-38.3566576 10.11988348 -36.14804973 8.99584212 -33.9375 7.875 C-33.32003906 7.55789062 -32.70257813 7.24078125 -32.06640625 6.9140625 C-21.83540614 1.74471508 -11.38379049 0.08508835 0 0 Z " fill="#D73D03" transform="translate(234.5625,162.75)"/>
<path d="M0 0 C4.875 4.625 4.875 4.625 6 8 C-0.60335794 8.1074809 -6.99978022 7.70331827 -13.5625 7 C-19.74619821 6.34016775 -25.77832918 5.88384279 -32 6 C-28.7 7.65 -25.4 9.3 -22 11 C-25.42738597 12.14246199 -26.59342399 11.83816881 -30 10.875 C-30.86625 10.64554688 -31.7325 10.41609375 -32.625 10.1796875 C-35.64108879 8.68156445 -36.52184888 6.96602691 -38 4 C-24.97359973 3.82984383 -12.00876125 4.35708541 1 5 C0.505 2.525 0.505 2.525 0 0 Z " fill="#FDF6BD" transform="translate(270,228)"/>
<path d="M0 0 C2.31 0 4.62 0 7 0 C0 3.5 0 3.5 -7 7 C-6.34104736 6.96970703 -5.68209473 6.93941406 -5.00317383 6.90820312 C19.1865254 5.80991939 19.1865254 5.80991939 30 6 C28.25 9.875 28.25 9.875 26 11 C26 10.01 26 9.02 26 8 C25.36199463 8.03029297 24.72398926 8.06058594 24.06665039 8.09179688 C11.03546668 8.7002386 -1.9541178 9.15952845 -15 9 C-13.6875 7.5 -13.6875 7.5 -12 6 C-11.01 6 -10.02 6 -9 6 C-9 5.34 -9 4.68 -9 4 C-5.62902617 2.50178941 -3.79557881 2 0 2 C0 1.34 0 0.68 0 0 Z " fill="#FCF4B1" transform="translate(245,259)"/>
<path d="M0 0 C2.31 0 4.62 0 7 0 C7 0.66 7 1.32 7 2 C9.475 2.495 9.475 2.495 12 3 C12 3.99 12 4.98 12 6 C9.64575325 6.02726927 7.29183038 6.04696719 4.9375 6.0625 C2.97103516 6.07990234 2.97103516 6.07990234 0.96484375 6.09765625 C-2.78901224 6.00519674 -6.29014049 5.54841401 -10 5 C-13.14298674 4.75236658 -16.28873076 4.59227431 -19.4375 4.4375 C-20.26443359 4.39431641 -21.09136719 4.35113281 -21.94335938 4.30664062 C-23.96209549 4.20161967 -25.98102951 4.10041441 -28 4 C-27.67 5.65 -27.34 7.3 -27 9 C-28.70884005 7.37660195 -30.37446717 5.70680947 -32 4 C-32 3.34 -32 2.68 -32 2 C-23.75759579 1.92473645 -15.54724266 2.15784899 -7.3125 2.5 C-6.12205078 2.54769531 -4.93160156 2.59539062 -3.70507812 2.64453125 C-0.80330054 2.7610685 2.09838086 2.87959289 5 3 C2.525 2.01 2.525 2.01 0 1 C0 0.67 0 0.34 0 0 Z " fill="#FEFBCD" transform="translate(365,263)"/>
<path d="M0 0 C0.33 0 0.66 0 1 0 C0.43189471 5.79859195 -0.73679735 10.97686594 -2.5625 16.5 C-2.79646484 17.22703125 -3.03042969 17.9540625 -3.27148438 18.703125 C-3.84132781 20.47080261 -4.41975404 22.23570969 -5 24 C-5.33 24 -5.66 24 -6 24 C-6 21.36 -6 18.72 -6 16 C-6.45375 16.495 -6.9075 16.99 -7.375 17.5 C-9 19 -9 19 -11 19 C-11.66 21.31 -12.32 23.62 -13 26 C-13.66 26 -14.32 26 -15 26 C-14.57742724 24.5164999 -14.13643678 23.03823576 -13.6875 21.5625 C-13.44386719 20.73878906 -13.20023437 19.91507813 -12.94921875 19.06640625 C-12.63597656 18.38449219 -12.32273437 17.70257813 -12 17 C-11.01 16.67 -10.02 16.34 -9 16 C-8.26909801 14.36048651 -7.6124907 12.68732847 -7 11 C-6.01320865 9.23058102 -4.99164225 7.48014011 -3.9375 5.75 C-3.41027344 4.87859375 -2.88304687 4.0071875 -2.33984375 3.109375 C-1 1 -1 1 0 0 Z " fill="#F8D138" transform="translate(334,180)"/>
<path d="M0 0 C0.66 0.33 1.32 0.66 2 1 C0 4 0 4 -2.5 4.75 C-6.88046094 6.31445034 -10.11283861 8.78074382 -13.828125 11.5390625 C-16 13 -16 13 -18 13 C-18.33 13.99 -18.66 14.98 -19 16 C-19.99 16.33 -20.98 16.66 -22 17 C-22.33 17.66 -22.66 18.32 -23 19 C-24.32 19 -25.64 19 -27 19 C-27 19.66 -27 20.32 -27 21 C-28.98 21.33 -30.96 21.66 -33 22 C-31.71034824 20.62437146 -30.37310707 19.29233607 -29 18 C-28.34 18 -27.68 18 -27 18 C-27 17.34 -27 16.68 -27 16 C-24.59278532 14.32068838 -22.19360596 12.76909872 -19.6875 11.25 C-18.96288574 10.80551514 -18.23827148 10.36103027 -17.49169922 9.90307617 C-4.05981133 1.71880901 -4.05981133 1.71880901 0 0 Z " fill="#9A1E15" transform="translate(150,56)"/>
<path d="M0 0 C1.32 0 2.64 0 4 0 C4.33 5.61 4.66 11.22 5 17 C4.01 16.67 3.02 16.34 2 16 C0.68 17.65 -0.64 19.3 -2 21 C-2.28100502 13.83437211 -1.20443195 7.05453001 0 0 Z " fill="#F9CF25" transform="translate(302,178)"/>
<path d="M0 0 C1.24716797 -0.02900391 2.49433594 -0.05800781 3.77929688 -0.08789062 C16.2143127 -0.17195469 26.61354539 3.50684883 37.9375 8.3125 C34.38507118 9.49664294 33.23919438 9.00785532 29.75 7.875 C28.84894531 7.58753906 27.94789063 7.30007812 27.01953125 7.00390625 C26.33246094 6.77574219 25.64539063 6.54757813 24.9375 6.3125 C24.9375 5.6525 24.9375 4.9925 24.9375 4.3125 C22.6275 4.3125 20.3175 4.3125 17.9375 4.3125 C17.9375 3.6525 17.9375 2.9925 17.9375 2.3125 C5.3975 2.3125 -7.1425 2.3125 -20.0625 2.3125 C-20.0625 1.9825 -20.0625 1.6525 -20.0625 1.3125 C-13.36706572 0.0610817 -6.7938317 0.05154652 0 0 Z " fill="#FDB016" transform="translate(214.0625,152.6875)"/>
<path d="M0 0 C0.87840996 3.09720845 0.99435406 4.90645403 0 8 C-0.66 8 -1.32 8 -2 8 C-1.83242188 8.73605469 -1.66484375 9.47210938 -1.4921875 10.23046875 C-1.28851563 11.20628906 -1.08484375 12.18210938 -0.875 13.1875 C-0.66617188 14.15042969 -0.45734375 15.11335937 -0.2421875 16.10546875 C0.02891012 19.34552253 -0.57618825 21.11546285 -2 24 C-3.32 24 -4.64 24 -6 24 C-7.01148716 14.65310935 -4.37174234 8.18400574 0 0 Z " fill="#D82411" transform="translate(55,152)"/>
<path d="M0 0 C1.16180608 3.92759816 0.75984959 6.97279717 0 11 C-0.33 11.33 -0.66 11.66 -1 12 C-1.144375 13.051875 -1.28875 14.10375 -1.4375 15.1875 C-1.9530323 18.68166337 -2.79042981 21.69384149 -4 25 C-3.01 25 -2.02 25 -1 25 C-1 24.34 -1 23.68 -1 23 C0.32 23.33 1.64 23.66 3 24 C1.54550599 25.0055761 0.08627557 26.00430435 -1.375 27 C-2.18710937 27.556875 -2.99921875 28.11375 -3.8359375 28.6875 C-6 30 -6 30 -8 30 C-6.72977021 22.96735667 -4.98783682 16.19875528 -2.875 9.375 C-2.59785156 8.46621094 -2.32070313 7.55742187 -2.03515625 6.62109375 C-1.36102123 4.41272041 -0.68260023 2.20576837 0 0 Z " fill="#FEF8C9" transform="translate(331,194)"/>
<path d="M0 0 C2.76691737 2.5200232 4.67255441 5.35719179 6.6875 8.5 C7.31011719 9.4590625 7.93273437 10.418125 8.57421875 11.40625 C10 14 10 14 10 17 C9.01 16.34 8.02 15.68 7 15 C7.144375 15.59167969 7.28875 16.18335938 7.4375 16.79296875 C8.40822694 20.92529941 9.27593702 24.7229762 9 29 C6.3201241 26.3201241 5.92237386 23.38667449 5.0625 19.8125 C4.09098451 15.79450384 3.06606483 11.98101413 1.3828125 8.1953125 C0.0485832 5.11226287 -0.29990472 3.29895194 0 0 Z " fill="#F7CF33" transform="translate(272,179)"/>
<path d="M0 0 C-4.19996145 3.19372069 -6.58418198 5 -12 5 C-12 5.66 -12 6.32 -12 7 C-12.66 6.67 -13.32 6.34 -14 6 C-13 4 -13 4 -10 3 C-17.05934323 2.93092244 -24.07567797 3.13367287 -31.125 3.5 C-32.55972656 3.57154297 -32.55972656 3.57154297 -34.0234375 3.64453125 C-36.34907911 3.76081333 -38.67458253 3.87933246 -41 4 C-40.67 3.01 -40.34 2.02 -40 1 C-40 1.66 -40 2.32 -40 3 C-39.25016846 2.90912109 -38.50033691 2.81824219 -37.7277832 2.72460938 C-34.25691651 2.30852146 -30.78476831 1.90421792 -27.3125 1.5 C-25.54422852 1.28537109 -25.54422852 1.28537109 -23.74023438 1.06640625 C-15.78869775 0.15143491 -8.0017033 -0.18028246 0 0 Z " fill="#F3D03D" transform="translate(372,233)"/>
<path d="M0 0 C0 3.76687864 -0.23537317 4.91190305 -2 8 C-3.98 8 -5.96 8 -8 8 C-7.67 7.34 -7.34 6.68 -7 6 C-9.64 6.33 -12.28 6.66 -15 7 C-15 7.66 -15 8.32 -15 9 C-17.64 9.33 -20.28 9.66 -23 10 C-21.19557386 6.39114772 -16.75702036 5.43994851 -13.1875 3.875 C-12.36701172 3.50246094 -11.54652344 3.12992188 -10.70117188 2.74609375 C-9.50911133 2.21822266 -9.50911133 2.21822266 -8.29296875 1.6796875 C-7.5661792 1.35726074 -6.83938965 1.03483398 -6.09057617 0.70263672 C-4 0 -4 0 0 0 Z " fill="#B82111" transform="translate(175,46)"/>
<path d="M0 0 C0.33 0.99 0.66 1.98 1 3 C0.67 3.66 0.34 4.32 0 5 C-0.66 5 -1.32 5 -2 5 C-2.6814823 6.89179203 -2.6814823 6.89179203 -3 9 C-2.34 9.66 -1.68 10.32 -1 11 C-2.57789598 12.15330947 -4.1625482 13.29737927 -5.75 14.4375 C-6.63171875 15.07558594 -7.5134375 15.71367187 -8.421875 16.37109375 C-10.72699125 17.8275081 -12.34349572 18.55931821 -15 19 C-13.35575077 14.93831292 -10.46975146 12.06456388 -7.5 8.9375 C-4.78869481 6.06155483 -2.20153517 3.30230276 0 0 Z " fill="#F6D130" transform="translate(263,279)"/>
<path d="M0 0 C0.66 0 1.32 0 2 0 C2.33 0.99 2.66 1.98 3 3 C2.34 3 1.68 3 1 3 C1.01160156 3.99902344 1.02320313 4.99804688 1.03515625 6.02734375 C1.04417969 7.31769531 1.05320312 8.60804688 1.0625 9.9375 C1.07410156 11.22527344 1.08570313 12.51304687 1.09765625 13.83984375 C1 17 1 17 0 18 C-0.20931897 20.16296273 -0.36797069 22.3309471 -0.5 24.5 C-0.88888889 30.88888889 -0.88888889 30.88888889 -2 32 C-2.36760731 34.32817964 -2.70241581 36.6618385 -3 39 C-3.66 39 -4.32 39 -5 39 C-4.86722656 38.15179688 -4.73445313 37.30359375 -4.59765625 36.4296875 C-3.66129406 30.21005541 -2.88248263 24.09216936 -2.5 17.8125 C-2.12383326 11.75963514 -1.24674989 5.93114025 0 0 Z " fill="#FDF6B9" transform="translate(310,283)"/>
<path d="M0 0 C0.66 0 1.32 0 2 0 C2 0.99 2 1.98 2 3 C1.01 3.495 1.01 3.495 0 4 C-1.87680157 6.73700228 -3.01370974 9.0475271 -3.9375 12.25 C-4.288125 13.1575 -4.63875 14.065 -5 15 C-6.9375 15.5625 -6.9375 15.5625 -9 16 C-10.01187895 17.65948148 -11.0126546 19.32580562 -12 21 C-12.99 21 -13.98 21 -15 21 C-13.47054837 15.94992386 -10.37909719 12.6646737 -6.9375 8.8125 C-5.84073611 7.57051998 -4.74560413 6.32709637 -3.65234375 5.08203125 C-3.16757568 4.53780518 -2.68280762 3.9935791 -2.18334961 3.43286133 C-0.90119835 1.98967235 -0.90119835 1.98967235 0 0 Z " fill="#9D1E14" transform="translate(89,102)"/>
<path d="M0 0 C0.66 0.33 1.32 0.66 2 1 C1.3503125 1.5878125 1.3503125 1.5878125 0.6875 2.1875 C-1.13858339 4.01043451 -1.13858339 4.01043451 -2.5 6.625 C-4 9 -4 9 -7 10 C-7.33 10.99 -7.66 11.98 -8 13 C-10.0625 13.6875 -10.0625 13.6875 -12 14 C-12.103125 14.639375 -12.20625 15.27875 -12.3125 15.9375 C-12.539375 16.618125 -12.76625 17.29875 -13 18 C-13.99 18.33 -14.98 18.66 -16 19 C-16.0825 19.78375 -16.165 20.5675 -16.25 21.375 C-17 24 -17 24 -19.0625 25.3125 C-20.0215625 25.6528125 -20.0215625 25.6528125 -21 26 C-20.34 24.35 -19.68 22.7 -19 21 C-18.34 21 -17.68 21 -17 21 C-16.90203125 20.43410156 -16.8040625 19.86820313 -16.703125 19.28515625 C-14.77770849 13.0275526 -9.61706352 8.03625055 -4 5 C-1.72462308 2.42816686 -1.72462308 2.42816686 0 0 Z " fill="#FEF4BB" transform="translate(187,178)"/>
<path d="M0 0 C7.67544778 1.72064983 14.10111509 6.24290656 20.58203125 10.51171875 C22.99990766 12.12662046 22.99990766 12.12662046 26 13 C26 13.66 26 14.32 26 15 C20.65296249 14.58868942 18.61648225 13.84251239 15 10 C12.71228814 8.81635777 10.41037547 7.92706749 8 7 C8 6.34 8 5.68 8 5 C7.236875 5.061875 6.47375 5.12375 5.6875 5.1875 C3 5 3 5 1.1875 3.625 C0 2 0 2 0 0 Z " fill="#881C14" transform="translate(344,54)"/>
<path d="M0 0 C12.25520638 0.87537188 24.21090185 4.70304882 36 8 C36 8.33 36 8.66 36 9 C34.02 9.33 32.04 9.66 30 10 C30 9.34 30 8.68 30 8 C28.5459375 8.0309375 28.5459375 8.0309375 27.0625 8.0625 C24 8 24 8 23 7 C21.48586842 6.67533241 19.96311431 6.39052676 18.4375 6.125 C15.04150309 5.47976059 11.90679596 4.69695739 8.6875 3.4375 C5.72474452 2.28252753 3.12194255 1.48780352 0 1 C0 0.67 0 0.34 0 0 Z " fill="#851B12" transform="translate(284,35)"/>
<path d="M0 0 C0.66 0.33 1.32 0.66 2 1 C1.67 1.66 1.34 2.32 1 3 C3.64 3.99 6.28 4.98 9 6 C9 6.66 9 7.32 9 8 C10.0828125 7.8453125 10.0828125 7.8453125 11.1875 7.6875 C15.12041589 8.12449065 16.46321923 10.10082197 19 13 C11.39162534 10.92957946 4.2271408 8.14169523 -3 5 C-3 3.68 -3 2.36 -3 1 C-2.01 0.67 -1.02 0.34 0 0 Z " fill="#FDF5B3" transform="translate(339,247)"/>
<path d="M0 0 C0.99 0.33 1.98 0.66 3 1 C1.56354149 2.60509934 0.12579294 4.20904424 -1.3125 5.8125 C-2.11300781 6.70582031 -2.91351563 7.59914062 -3.73828125 8.51953125 C-5.45224581 10.39926786 -7.17877604 12.22592747 -9 14 C-8.67 12.35 -8.34 10.7 -8 9 C-9.32 9 -10.64 9 -12 9 C-12 9.66 -12 10.32 -12 11 C-13.65 11.33 -15.3 11.66 -17 12 C-13.90617802 8.36812202 -10.38191497 6.42034943 -6.21875 4.24609375 C-3.93483117 3.04785987 -3.93483117 3.04785987 -1.90625 1.28515625 C-0.96265625 0.64900391 -0.96265625 0.64900391 0 0 Z " fill="#F0D239" transform="translate(357,202)"/>
<path d="M0 0 C11.22 0 22.44 0 34 0 C34 2.64 34 5.28 34 8 C33.67 8 33.34 8 33 8 C33 5.69 33 3.38 33 1 C24.42 1 15.84 1 7 1 C8.32 2.98 9.64 4.96 11 7 C10.67 7.99 10.34 8.98 10 10 C7.525 6.04 7.525 6.04 5 2 C4.34 3.32 3.68 4.64 3 6 C3 4.35 3 2.7 3 1 C2.01 0.67 1.02 0.34 0 0 Z " fill="#FFF3E1" transform="translate(268,178)"/>
<path d="M0 0 C1.35688365 3.08382647 0.90841398 4.27475805 -0.1875 7.5625 C-1.98508928 10.97172104 -3.04821951 11.80996931 -6 14 C-6.33 15.010625 -6.66 16.02125 -7 17.0625 C-8 20 -8 20 -10.125 21.375 C-10.74375 21.58125 -11.3625 21.7875 -12 22 C-10.67219091 17.5739697 -8.92222599 13.84339941 -6.5625 9.875 C-5.96566406 8.86179688 -5.36882813 7.84859375 -4.75390625 6.8046875 C-3.26917682 4.43044311 -1.72385664 2.20358433 0 0 Z " fill="#A72117" transform="translate(68,130)"/>
<path d="M0 0 C8.75306698 1.38206321 16.12452654 5.11933192 24 9 C23.34 9.66 22.68 10.32 22 11 C21.01 10.67 20.02 10.34 19 10 C16.91705987 9.51776289 14.83118047 9.05294959 12.7421875 8.59765625 C11 8 11 8 10 6 C7.65961814 4.86897474 7.65961814 4.86897474 4.9375 3.875 C4.01839844 3.52179687 3.09929687 3.16859375 2.15234375 2.8046875 C1.44207031 2.53914063 0.73179687 2.27359375 0 2 C0 1.34 0 0.68 0 0 Z " fill="#AD211B" transform="translate(320,44)"/>
<path d="M0 0 C7.4736245 0.49007374 7.4736245 0.49007374 10 2.9375 C11 5 11 5 11 7 C12.65 7 14.3 7 16 7 C16.33 8.32 16.66 9.64 17 11 C19.97 11.495 19.97 11.495 23 12 C23.33 12.99 23.66 13.98 24 15 C15.27678944 11.90466722 7.27360186 6.64880979 0 1 C0 0.67 0 0.34 0 0 Z " fill="#042753" transform="translate(124,427)"/>
<path d="M0 0 C0.33 0 0.66 0 1 0 C1.28571429 8.57142857 1.28571429 8.57142857 -1 12 C-0.34 12 0.32 12 1 12 C-0.27721526 16.99275057 -2.17330957 19.57611908 -6 23 C-5.13188291 15.01332277 -2.59242925 7.57787013 0 0 Z " fill="#F8D035" transform="translate(278,298)"/>
<path d="M0 0 C0.33 0 0.66 0 1 0 C0.55362542 10.46630933 -0.1214634 20.67716783 -2 31 C-3.953125 30.1640625 -3.953125 30.1640625 -6 29 C-6.75 26.375 -6.75 26.375 -7 24 C-6.34 24 -5.68 24 -5 24 C-2.53672161 17.86504249 -1.568847 12.19732327 -1.2109375 5.6015625 C-1 3 -1 3 0 0 Z " fill="#FEF5B7" transform="translate(300,186)"/>
<path d="M0 0 C2.90457226 0.99585334 4.98048692 1.98408144 7.375 3.9375 C10.39597262 6.31112134 13.47834864 7.50003738 17 9 C18.9375 10.6875 18.9375 10.6875 20 12 C19.01 12.495 19.01 12.495 18 13 C17.34 12.67 16.68 12.34 16 12 C16 11.34 16 10.68 16 10 C14.35 10 12.7 10 11 10 C10.67 10.66 10.34 11.32 10 12 C9.52949219 11.44570312 9.05898438 10.89140625 8.57421875 10.3203125 C7.95160156 9.59585938 7.32898438 8.87140625 6.6875 8.125 C6.07261719 7.40570313 5.45773438 6.68640625 4.82421875 5.9453125 C2.9587676 3.80820669 2.9587676 3.80820669 0 2 C0 1.34 0 0.68 0 0 Z " fill="#F2D450" transform="translate(247,201)"/>
<path d="M0 0 C0.66 0 1.32 0 2 0 C2 2.97 2 5.94 2 9 C2.99 9.33 3.98 9.66 5 10 C5.33 16.93 5.66 23.86 6 31 C3.73903396 28.73903396 3.62817116 27.98857669 3.1484375 24.9296875 C3.01953125 24.115 2.890625 23.3003125 2.7578125 22.4609375 C2.63148438 21.60757812 2.50515625 20.75421875 2.375 19.875 C2.2409375 19.04484375 2.106875 18.2146875 1.96875 17.359375 C1.1728609 12.17797452 0.86686829 7.24054827 1 2 C0.34 1.67 -0.32 1.34 -1 1 C-0.67 0.67 -0.34 0.34 0 0 Z " fill="#FBE273" transform="translate(296,283)"/>
<path d="M0 0 C2.72797663 2.72797663 3.2419699 5.80898557 4.1875 9.4375 C4.47270508 10.4594043 4.47270508 10.4594043 4.76367188 11.50195312 C5.65538519 14.86150773 6.12158796 16.63523612 5 20 C1.04 13.07 1.04 13.07 -3 6 C-2.34 5.67 -1.68 5.34 -1 5 C-0.34444881 2.47266765 -0.34444881 2.47266765 0 0 Z " fill="#F6CF38" transform="translate(329,300)"/>
<path d="M0 0 C-3.465 1.485 -3.465 1.485 -7 3 C-1.39 3.33 4.22 3.66 10 4 C10 4.33 10 4.66 10 5 C-3.365 5.495 -3.365 5.495 -17 6 C-14.39603427 4.26402284 -11.82975532 2.76478888 -9.0625 1.3125 C-8.20785156 0.85488281 -7.35320312 0.39726562 -6.47265625 -0.07421875 C-3.7592717 -1.0901305 -2.65995075 -1.01831061 0 0 Z " fill="#F4D13F" transform="translate(252,261)"/>
<path d="M0 0 C10.72192025 -0.4519779 21.3540176 0.8851443 32 2 C32 2.33 32 2.66 32 3 C24.74 3 17.48 3 10 3 C10.33 3.66 10.66 4.32 11 5 C7.27566618 3.7874262 3.62197194 2.49140021 0 1 C0 0.67 0 0.34 0 0 Z " fill="#F2CF3C" transform="translate(235,233)"/>
<path d="M0 0 C-6.19479329 2.94776396 -12.38757278 5.17778624 -19 7 C-19 7.66 -19 8.32 -19 9 C-18.01 9.66 -17.02 10.32 -16 11 C-17.98 11 -19.96 11 -22 11 C-22.33 9.35 -22.66 7.7 -23 6 C-21.75336669 5.49166409 -20.50250613 4.99368855 -19.25 4.5 C-18.55390625 4.2215625 -17.8578125 3.943125 -17.140625 3.65625 C-15 3 -15 3 -11 3 C-11 2.34 -11 1.68 -11 1 C-9.5437328 0.63743142 -8.08488815 0.28520207 -6.625 -0.0625 C-5.81289063 -0.25972656 -5.00078125 -0.45695313 -4.1640625 -0.66015625 C-2 -1 -2 -1 0 0 Z " fill="#F9CD1E" transform="translate(355,242)"/>
<path d="M0 0 C3.42668448 1.71334224 4.13612232 5.7124525 5.5 9.125 C5.80808594 9.87265625 6.11617188 10.6203125 6.43359375 11.390625 C8.25305348 15.87289918 9.75976842 20.32432696 11 25 C10.01 25 9.02 25 8 25 C7.731875 23.783125 7.46375 22.56625 7.1875 21.3125 C6.31391525 17.74902838 4.91510104 15.13380171 3 12 C3 10.68 3 9.36 3 8 C2.34 8 1.68 8 1 8 C0.67 5.36 0.34 2.72 0 0 Z " fill="#881C14" transform="translate(444,152)"/>
<path d="M0 0 C7.28867664 0.8746412 13.24880641 3.01474587 19.875 6.125 C21.02742188 6.66382813 22.17984375 7.20265625 23.3671875 7.7578125 C24.23601562 8.16773438 25.10484375 8.57765625 26 9 C26 9.66 26 10.32 26 11 C26.99 11.33 27.98 11.66 29 12 C28.01 12.495 28.01 12.495 27 13 C24.4601132 11.83950863 22.0239397 10.6222569 19.5625 9.3125 C13.18989877 6.01117048 6.84586802 3.20460156 0 1 C0 0.67 0 0.34 0 0 Z " fill="#D34002" transform="translate(234,154)"/>
<path d="M0 0 C4.875 2.625 4.875 2.625 6 6 C6.66 6.66 7.32 7.32 8 8 C8 8.66 8 9.32 8 10 C8.66 10.33 9.32 10.66 10 11 C10.28875 11.969375 10.5775 12.93875 10.875 13.9375 C11.6889291 17.10056957 11.6889291 17.10056957 14.125 18.375 C15.053125 18.684375 15.053125 18.684375 16 19 C15.34 19.99 14.68 20.98 14 22 C11 18.25 11 18.25 11 16 C10.34 16 9.68 16 9 16 C7.3633245 13.73701547 5.85434489 11.48732888 4.375 9.125 C3.95476562 8.47402344 3.53453125 7.82304687 3.1015625 7.15234375 C0 2.26838981 0 2.26838981 0 0 Z " fill="#062349" transform="translate(63,361)"/>
<path d="M0 0 C0.66 1.32 1.32 2.64 2 4 C2.33 3.01 2.66 2.02 3 1 C3.66 1 4.32 1 5 1 C4.67 3.97 4.34 6.94 4 10 C3.01 10.33 2.02 10.66 1 11 C0.67 11.66 0.34 12.32 0 13 C-0.66 13 -1.32 13 -2 13 C-1.85966889 11.02043559 -1.7125877 9.04134859 -1.5625 7.0625 C-1.48128906 5.96035156 -1.40007812 4.85820312 -1.31640625 3.72265625 C-1 1 -1 1 0 0 Z " fill="#163E5C" transform="translate(302,322)"/>
<path d="M0 0 C3.34243648 1.89404734 3.97997149 2.94091591 5.25 6.6875 C5.4975 7.780625 5.745 8.87375 6 10 C6.66 10 7.32 10 8 10 C8 13.3 8 16.6 8 20 C5.28500494 17.28500494 4.2555205 14.0732495 2.875 10.5625 C2.59785156 9.88123047 2.32070313 9.19996094 2.03515625 8.49804688 C0.85157074 5.52159169 0 3.23200972 0 0 Z " fill="#0A274E" transform="translate(44,320)"/>
<path d="M0 0 C4.29 0 8.58 0 13 0 C11.68220801 6.58895995 10.08168031 9.52328163 5 14 C2.6875 14.8125 2.6875 14.8125 1 15 C4.2088159 9.86589456 7.95747857 5.50896622 12 1 C8.04 1 4.08 1 0 1 C0 0.67 0 0.34 0 0 Z " fill="#F6D445" transform="translate(263,264)"/>
<path d="M0 0 C1.32 0 2.64 0 4 0 C3.38461538 5.53846154 3.38461538 5.53846154 1.4375 7.875 C0.7259375 8.431875 0.7259375 8.431875 0 9 C-0.99 8.67 -1.98 8.34 -3 8 C-1.68 6.68 -0.36 5.36 1 4 C-2.0831351 5.19899698 -5.06279492 6.47700477 -8 8 C-7.3125 5.625 -7.3125 5.625 -6 3 C-3.4375 1.75 -3.4375 1.75 -1 1 C-0.67 0.67 -0.34 0.34 0 0 Z " fill="#FEF9D0" transform="translate(358,199)"/>
<path d="M0 0 C0.66 0.33 1.32 0.66 2 1 C0.58833114 1.98635837 -0.82956184 2.96381255 -2.25 3.9375 C-3.43335938 4.75541016 -3.43335938 4.75541016 -4.640625 5.58984375 C-6.82636993 6.89622441 -8.5153801 7.54980511 -11 8 C-11 7.34 -11 6.68 -11 6 C-11.495 6.165 -11.99 6.33 -12.5 6.5 C-16.03444089 7.20688818 -19.39690701 7.06005155 -23 7 C-23 6.67 -23 6.34 -23 6 C-21.38931641 5.72736328 -21.38931641 5.72736328 -19.74609375 5.44921875 C-18.30981711 5.19575817 -16.87362352 4.94182672 -15.4375 4.6875 C-14.73302734 4.56955078 -14.02855469 4.45160156 -13.30273438 4.33007812 C-9.67197011 3.67754446 -6.46315467 2.86513489 -3.09765625 1.33203125 C-2.07542969 0.89246094 -1.05320312 0.45289063 0 0 Z " fill="#AFA94C" transform="translate(263,330)"/>
<path d="M0 0 C3.88698768 4.2403502 4.89129015 9.39096352 5.125 15 C5.08375 15.66 5.0425 16.32 5 17 C1.20411134 16.45773019 -0.47211993 14.79872437 -3 12 C-0.525 12.495 -0.525 12.495 2 13 C1.855625 12.39671875 1.71125 11.7934375 1.5625 11.171875 C1.376875 10.37265625 1.19125 9.5734375 1 8.75 C0.814375 7.96109375 0.62875 7.1721875 0.4375 6.359375 C0 4 0 4 0 0 Z " fill="#FEF6BF" transform="translate(279,206)"/>
<path d="M0 0 C0.99 0.33 1.98 0.66 3 1 C2.34 1 1.68 1 1 1 C1.020625 2.0725 1.04125 3.145 1.0625 4.25 C1 8 1 8 0.5234375 9.796875 C-0.47550534 14.0013807 -0.40678881 18.38316246 -0.62109375 22.6875 C-0.97290008 25.76308523 -1.55751201 27.35092979 -3 30 C-2.88957755 26.12444143 -2.75907636 22.24980668 -2.625 18.375 C-2.5940625 17.28058594 -2.563125 16.18617188 -2.53125 15.05859375 C-2.33680788 9.71143541 -2.15326382 4.98926984 0 0 Z " fill="#F5D33C" transform="translate(309,282)"/>
<path d="M0 0 C3.68465123 0.92116281 5.90115942 1.9061888 9 4 C9.33 4.66 9.66 5.32 10 6 C8.35 5.67 6.7 5.34 5 5 C5 4.34 5 3.68 5 3 C4.34 3 3.68 3 3 3 C3.99 7.29 4.98 11.58 6 16 C5.34 16 4.68 16 4 16 C2.68 10.72 1.36 5.44 0 0 Z " fill="#FBE883" transform="translate(322,276)"/>
<path d="M0 0 C1.98270912 0.95098266 3.96108379 1.91100703 5.9375 2.875 C7.59072266 3.67550781 7.59072266 3.67550781 9.27734375 4.4921875 C12 6 12 6 13 8 C12.42894531 7.81824219 11.85789062 7.63648438 11.26953125 7.44921875 C4.25435838 5.27440363 -2.83049367 3.58448337 -10 2 C-6.34811918 0.92825237 -3.73567172 1.23588533 0 2 C0 1.34 0 0.68 0 0 Z " fill="#FB971C" transform="translate(252,162)"/>
<path d="M0 0 C0 0.99 0 1.98 0 3 C-1.6210103 3.69685498 -3.24696066 4.38222861 -4.875 5.0625 C-5.77992188 5.44535156 -6.68484375 5.82820313 -7.6171875 6.22265625 C-10 7 -10 7 -12 6 C-8.57918552 1.23529412 -8.57918552 1.23529412 -6 0.1875 C-4.00775949 0.00072745 -2.00097632 0 0 0 Z " fill="#E7C41E" transform="translate(252,336)"/>
<path d="M0 0 C2.31 0.66 4.62 1.32 7 2 C7.33 3.32 7.66 4.64 8 6 C2.72 7.65 -2.56 9.3 -8 11 C-8 10.34 -8 9.68 -8 9 C-4 7.66666667 0 6.33333333 4 5 C2.68 3.35 1.36 1.7 0 0 Z " fill="#FEF8C2" transform="translate(264,246)"/>
<path d="M0 0 C0.33 0 0.66 0 1 0 C0.48594831 4.96916636 -0.23384882 9.29026351 -2 14 C-2.66 13.01 -3.32 12.02 -4 11 C-4.66 11 -5.32 11 -6 11 C-4.74527195 6.50389116 -3.1520343 3.45706988 0 0 Z " fill="#F6D03A" transform="translate(334,180)"/>
<path d="M0 0 C0.66 0 1.32 0 2 0 C2.061875 0.9075 2.12375 1.815 2.1875 2.75 C2.8432028 7.54543835 4.88347864 11.74499579 6.84375 16.1328125 C7.91056297 18.77822034 8.54749378 21.19240457 9 24 C2.9538788 16.74465456 1.16932092 9.23148094 0 0 Z " fill="#F4CF30" transform="translate(127,274)"/>
<path d="M0 0 C2.91843445 2.626591 4.94517315 5.66976339 7 9 C7 9.66 7 10.32 7 11 C6.34 11 5.68 11 5 11 C4.67 12.32 4.34 13.64 4 15 C3.32243118 13.44219668 2.65840543 11.87849904 2 10.3125 C1.62875 9.44238281 1.2575 8.57226562 0.875 7.67578125 C-0.01870488 4.9427998 -0.16449676 2.85299066 0 0 Z " fill="#F5D452" transform="translate(272,179)"/>
<path d="M0 0 C1.32 0.33 2.64 0.66 4 1 C1.20974503 4.10844194 -0.54858886 5.78184945 -4.74511719 6.41259766 C-7.96741016 6.49150056 -11.15416398 6.43579467 -14.375 6.3125 C-15.49261719 6.28994141 -16.61023438 6.26738281 -17.76171875 6.24414062 C-20.5091989 6.18543378 -23.25389761 6.10336846 -26 6 C-26 5.67 -26 5.34 -26 5 C-25.31897217 4.9906543 -24.63794434 4.98130859 -23.9362793 4.97167969 C-20.85261353 4.91801869 -17.77047206 4.83436449 -14.6875 4.75 C-13.61564453 4.73582031 -12.54378906 4.72164062 -11.43945312 4.70703125 C-9.89741211 4.65869141 -9.89741211 4.65869141 -8.32421875 4.609375 C-7.37635498 4.58842773 -6.42849121 4.56748047 -5.4519043 4.54589844 C-2.83403151 4.21202196 -2.83403151 4.21202196 -1.16723633 1.96191406 C-0.78204834 1.31448242 -0.39686035 0.66705078 0 0 Z " fill="#CE2F0E" transform="translate(156,171)"/>
<path d="M0 0 C2 3.75 2 3.75 2 6 C2.66 6 3.32 6 4 6 C6.22825644 8.22825644 6.69239369 9.65761628 7.625 12.625 C7.88539062 13.44226563 8.14578125 14.25953125 8.4140625 15.1015625 C8.60742188 15.72804688 8.80078125 16.35453125 9 17 C8.01 17 7.02 17 6 17 C4.80015203 14.73495035 3.61505231 12.46410112 2.4375 10.1875 C2.09525391 9.54490234 1.75300781 8.90230469 1.40039062 8.24023438 C0.5234977 6.53073605 -0.24515617 4.76678706 -1 3 C-0.67 2.01 -0.34 1.02 0 0 Z " fill="#052347" transform="translate(55,343)"/>
<path d="M0 0 C2.31 0.66 4.62 1.32 7 2 C7.33 1.34 7.66 0.68 8 0 C9.98 2.31 11.96 4.62 14 7 C13.01 7.33 12.02 7.66 11 8 C9.30712215 7.04504326 7.64142963 6.0409066 6 5 C5.278125 4.855625 4.55625 4.71125 3.8125 4.5625 C2 4 2 4 0.75 1.9375 C0.5025 1.298125 0.255 0.65875 0 0 Z " fill="#F7DC6A" transform="translate(346,290)"/>
<path d="M0 0 C2.31 0 4.62 0 7 0 C6.15695313 0.41765625 6.15695313 0.41765625 5.296875 0.84375 C3.75716811 1.61884055 2.22583595 2.41078092 0.703125 3.21875 C-4.50115194 5.93690738 -9.24487949 7.82766064 -15 9 C-13.6875 7.5 -13.6875 7.5 -12 6 C-11.01 6 -10.02 6 -9 6 C-9 5.34 -9 4.68 -9 4 C-5.62902617 2.50178941 -3.79557881 2 0 2 C0 1.34 0 0.68 0 0 Z " fill="#FEF9CB" transform="translate(245,259)"/>
<path d="M0 0 C1.11988052 3.35964157 0.71980913 5.58090665 0 9 C0.33 9.66 0.66 10.32 1 11 C-0.32 11 -1.64 11 -3 11 C-3 11.66 -3 12.32 -3 13 C-2.01 13 -1.02 13 0 13 C0 13.66 0 14.32 0 15 C-1.32 14.67 -2.64 14.34 -4 14 C-4.33 15.32 -4.66 16.64 -5 18 C-6 16 -6 16 -5.29296875 13.3203125 C-4.92816406 12.26585937 -4.56335937 11.21140625 -4.1875 10.125 C-3.83042969 9.07570312 -3.47335938 8.02640625 -3.10546875 6.9453125 C-2.19683694 4.52443481 -1.21563659 2.27725588 0 0 Z " fill="#894C4A" transform="translate(48,167)"/>
<path d="M0 0 C2.475 0.495 2.475 0.495 5 1 C5 1.66 5 2.32 5 3 C6.32 3 7.64 3 9 3 C9.33 2.01 9.66 1.02 10 0 C12.50037734 2.17424117 13.43628586 3.73045798 14 7 C9.24190251 6.40523781 5.05289706 4.5093872 1 2 C0.67 1.34 0.34 0.68 0 0 Z " fill="#F8CF2E" transform="translate(340,286)"/>
<path d="M0 0 C5.15245057 1.41692391 9.82701421 3.64368446 14 7 C14.33 7.99 14.66 8.98 15 10 C11.9666893 8.96000776 9.92809348 7.9403702 7.4375 5.875 C4.98412212 3.59352616 4.98412212 3.59352616 1 4 C0.67 2.68 0.34 1.36 0 0 Z " fill="#FDF7C6" transform="translate(244,198)"/>
<path d="M0 0 C0.66 0.33 1.32 0.66 2 1 C-0.45054858 4.67582287 -1.9054322 4.6897383 -6 6 C-6.70125 6.556875 -7.4025 7.11375 -8.125 7.6875 C-8.74375 8.120625 -9.3625 8.55375 -10 9 C-12.1171875 8.58203125 -12.1171875 8.58203125 -14 8 C-12.23174858 6.85018626 -10.46030479 5.70528078 -8.6875 4.5625 C-7.70136719 3.92441406 -6.71523437 3.28632812 -5.69921875 2.62890625 C-3 1 -3 1 0 0 Z " fill="#7A180D" transform="translate(150,56)"/>
<path d="M0 0 C1.32 0 2.64 0 4 0 C4.33 5.61 4.66 11.22 5 17 C4.34 16.67 3.68 16.34 3 16 C3 11.71 3 7.42 3 3 C2.01 3.33 1.02 3.66 0 4 C0 2.68 0 1.36 0 0 Z " fill="#F5D750" transform="translate(302,178)"/>
<path d="M0 0 C0.33 0.66 0.66 1.32 1 2 C-1.52636352 6.90411743 -4.91997391 11.42481562 -8 16 C-8 12.59163545 -7.20984243 11.01774074 -5.6875 8 C-5.25824219 7.13375 -4.82898438 6.2675 -4.38671875 5.375 C-3.10962126 3.18774571 -1.87888356 1.67501642 0 0 Z " fill="#F7D442" transform="translate(145,186)"/>
<path d="M0 0 C0.98120464 3.05263664 0.98120464 4.94736336 0 8 C-0.66 8 -1.32 8 -2 8 C-2 9.65 -2 11.3 -2 13 C-3.98 13.99 -3.98 13.99 -6 15 C-4.36041242 9.76727367 -2.61047965 4.84803364 0 0 Z " fill="#8A1C13" transform="translate(55,152)"/>
<path d="M0 0 C4.42228774 3.60334557 7.06376171 8.70407883 9 14 C8.67 14.99 8.34 15.98 8 17 C7.67 17 7.34 17 7 17 C7 15.35 7 13.7 7 12 C6.01 12 5.02 12 4 12 C3.67 9.69 3.34 7.38 3 5 C2.01 4.67 1.02 4.34 0 4 C0 2.68 0 1.36 0 0 Z " fill="#801710" transform="translate(435,136)"/>
<path d="M0 0 C4.66666667 0.66666667 9.33333333 1.33333333 14 2 C14 2.66 14 3.32 14 4 C15.65 4.33 17.3 4.66 19 5 C14.83326479 6.79341438 11.25336659 5.01173384 7.25 3.5625 C6.20392578 3.19801758 6.20392578 3.19801758 5.13671875 2.82617188 C3.42114902 2.22689752 1.71010285 1.61470115 0 1 C0 0.67 0 0.34 0 0 Z " fill="#052043" transform="translate(172,453)"/>
<path d="M0 0 C0.66 0 1.32 0 2 0 C2 1.65 2 3.3 2 5 C4.64 5 7.28 5 10 5 C10 5.33 10 5.66 10 6 C8.27119018 6.05449838 6.54187288 6.09301688 4.8125 6.125 C3.84957031 6.14820313 2.88664063 6.17140625 1.89453125 6.1953125 C-1.12812778 5.9913544 -3.26769985 5.26874632 -6 4 C-5.38125 3.71125 -4.7625 3.4225 -4.125 3.125 C-1.86674235 2.06279958 -1.86674235 2.06279958 0 0 Z " fill="#173D50" transform="translate(212,328)"/>
<path d="M0 0 C-3.24481751 2.16321167 -6.35055759 3.6314591 -10 5 C-10.99 4.67 -11.98 4.34 -13 4 C-13 3.01 -13 2.02 -13 1 C-8.61414671 0.29826347 -4.44209357 -0.10834375 0 0 Z " fill="#052651" transform="translate(333,451)"/>
<path d="M0 0 C3.3 0 6.6 0 10 0 C8.02 0.99 8.02 0.99 6 2 C7.65 3.65 9.3 5.3 11 7 C6.96678237 5.78065514 3.45730521 4.44045073 0 2 C0 1.34 0 0.68 0 0 Z " fill="#25444A" transform="translate(192,323)"/>
<path d="M0 0 C0.33 0 0.66 0 1 0 C1.02686553 1.97909398 1.04633375 3.95828971 1.0625 5.9375 C1.07410156 7.03964844 1.08570313 8.14179688 1.09765625 9.27734375 C1 12 1 12 0 13 C-0.36760731 15.32817964 -0.70241581 17.6618385 -1 20 C-1.66 20 -2.32 20 -3 20 C-2.68839539 17.79154015 -2.37567654 15.58323749 -2.0625 13.375 C-1.88847656 12.14523437 -1.71445312 10.91546875 -1.53515625 9.6484375 C-1.06225699 6.42443816 -0.54848998 3.21187824 0 0 Z " fill="#FFFBD2" transform="translate(308,302)"/>
<path d="M0 0 C3.3 0 6.6 0 10 0 C9.01 0.33 8.02 0.66 7 1 C7.680625 1.928125 8.36125 2.85625 9.0625 3.8125 C9.701875 4.864375 10.34125 5.91625 11 7 C10.67 7.99 10.34 8.98 10 10 C7.525 6.04 7.525 6.04 5 2 C4.34 3.32 3.68 4.64 3 6 C3 4.35 3 2.7 3 1 C2.01 0.67 1.02 0.34 0 0 Z " fill="#FEF6D2" transform="translate(268,178)"/>
<path d="M0 0 C1.37562854 1.28965176 2.70766393 2.62689293 4 4 C4 4.66 4 5.32 4 6 C4.66 6 5.32 6 6 6 C7.6875 8.375 7.6875 8.375 9 11 C8.67 11.66 8.34 12.32 8 13 C6.5 11.625 6.5 11.625 5 10 C5 9.34 5 8.68 5 8 C4.34 8 3.68 8 3 8 C0.25624329 5.04518508 0 4.22528092 0 0 Z " fill="#831C11" transform="translate(422,117)"/>
<path d="M0 0 C2.125 0.375 2.125 0.375 4 1 C2.42065361 1.98558449 0.83634827 2.96322541 -0.75 3.9375 C-2.07257813 4.75541016 -2.07257813 4.75541016 -3.421875 5.58984375 C-5.68399917 6.82715712 -7.48566325 7.53590513 -10 8 C-9.67 7.01 -9.34 6.02 -9 5 C-6.68895182 3.94952356 -4.35416349 2.94992562 -2 2 C-1.34 1.34 -0.68 0.68 0 0 Z " fill="#06224B" transform="translate(356,437)"/>
<path d="M0 0 C0.33 0.99 0.66 1.98 1 3 C1.804375 3.763125 2.60875 4.52625 3.4375 5.3125 C6.16491051 8.17295492 7.03252833 10.21806528 8 14 C2.94336573 10.57933564 0.16492103 6.08997609 -3 1 C-2.01 0.67 -1.02 0.34 0 0 Z " fill="#EFCA2A" transform="translate(147,310)"/>
<path d="M0 0 C1.32 0 2.64 0 4 0 C3.64950425 3.24208567 3.43778819 4.61527704 0.9375 6.8125 C0.298125 7.204375 -0.34125 7.59625 -1 8 C-1 7.01 -1 6.02 -1 5 C-1.66 4.67 -2.32 4.34 -3 4 C-1.75 2 -1.75 2 0 0 Z " fill="#FACB0C" transform="translate(345,211)"/>
<path d="M0 0 C0 0.66 0 1.32 0 2 C-0.66 2 -1.32 2 -2 2 C-2 2.99 -2 3.98 -2 5 C-5.83887763 6.48320272 -8.06204091 7.22419163 -12 6 C-10.37829621 4.99466333 -8.75252763 3.99588093 -7.125 3 C-5.76761719 2.1646875 -5.76761719 2.1646875 -4.3828125 1.3125 C-2 0 -2 0 0 0 Z " fill="#FCB10F" transform="translate(179,160)"/>
<path d="M0 0 C0.99 0.66 1.98 1.32 3 2 C3 2.66 3 3.32 3 4 C-2.77759884 4.12036664 -8.27959989 3.8320582 -14 3 C-14 2.67 -14 2.34 -14 2 C-9.38 2 -4.76 2 0 2 C0 1.34 0 0.68 0 0 Z " fill="#FDEA8E" transform="translate(273,232)"/>
<path d="M0 0 C0.66 0 1.32 0 2 0 C2 1.32 2 2.64 2 4 C0.68 4 -0.64 4 -2 4 C-2.33 5.65 -2.66 7.3 -3 9 C-3.99 9 -4.98 9 -6 9 C-6.33 8.34 -6.66 7.68 -7 7 C-6.34 7 -5.68 7 -5 7 C-5 6.34 -5 5.68 -5 5 C-4.34 5 -3.68 5 -3 5 C-2.67 4.01 -2.34 3.02 -2 2 C-1.34 2 -0.68 2 0 2 C0 1.34 0 0.68 0 0 Z " fill="#901C13" transform="translate(98,93)"/>
<path d="M0 0 C-4.75 3 -4.75 3 -7 3 C-7 3.66 -7 4.32 -7 5 C-9.64 5.33 -12.28 5.66 -15 6 C-13.48400735 2.9680147 -11.1403567 2.58975563 -8.0625 1.3125 C-6.98097656 0.85488281 -5.89945313 0.39726563 -4.78515625 -0.07421875 C-2 -1 -2 -1 0 0 Z " fill="#831A11" transform="translate(167,50)"/>
<path d="M0 0 C1.32 0 2.64 0 4 0 C4.33 1.32 4.66 2.64 5 4 C7.97 4.495 7.97 4.495 11 5 C11.33 5.99 11.66 6.98 12 8 C7.69235185 6.43358249 3.93828536 4.31663844 0 2 C0 1.34 0 0.68 0 0 Z " fill="#052143" transform="translate(136,434)"/>
<path d="M0 0 C1 2 1 2 1 6 C1.66 5.67 2.32 5.34 3 5 C1.55746343 8.36591866 -0.33264727 10.51047079 -3 13 C-2.45144652 8.428721 -1.58255197 4.32564205 0 0 Z " fill="#F7DF7B" transform="translate(275,308)"/>
<path d="M0 0 C0 0.66 0 1.32 0 2 C-5.00873617 6.89225393 -5.00873617 6.89225393 -8.875 7.3125 C-9.926875 7.1578125 -9.926875 7.1578125 -11 7 C-4.36842105 0 -4.36842105 0 0 0 Z " fill="#FDF5B9" transform="translate(266,288)"/>
<path d="M0 0 C2.31 0 4.62 0 7 0 C7 0.66 7 1.32 7 2 C7.66 2 8.32 2 9 2 C9 2.66 9 3.32 9 4 C9.66 4.33 10.32 4.66 11 5 C7.37 5 3.74 5 0 5 C0 4.67 0 4.34 0 4 C1.65 3.67 3.3 3.34 5 3 C2.525 2.01 2.525 2.01 0 1 C0 0.67 0 0.34 0 0 Z " fill="#FAF0A9" transform="translate(365,263)"/>
<path d="M0 0 C0.33 0.66 0.66 1.32 1 2 C0.67 2.66 0.34 3.32 0 4 C4.29 4 8.58 4 13 4 C13 4.33 13 4.66 13 5 C5.08 5.495 5.08 5.495 -3 6 C-1 1 -1 1 0 0 Z " fill="#FDEF99" transform="translate(335,230)"/>
<path d="M0 0 C0.99 0 1.98 0 3 0 C1.82701739 3.97009499 0.51692311 6.74897431 -2 10 C-2.71162443 11.64797236 -3.39031953 13.31165408 -4 15 C-4.6875 13.375 -4.6875 13.375 -5 11 C-3.5625 7.75 -3.5625 7.75 -2 5 C-1.34 5 -0.68 5 0 5 C0 3.35 0 1.7 0 0 Z " fill="#FEF4B6" transform="translate(135,197)"/>
<path d="M0 0 C0 2 0 2 -1.125 3.5 C-3.56199269 5.44959415 -6.02437647 6.14037542 -9 7 C-9 7.99 -9 8.98 -9 10 C-10.32 9.67 -11.64 9.34 -13 9 C-11.21326795 7.4941255 -9.42046492 5.9954515 -7.625 4.5 C-6.62726563 3.6646875 -5.62953125 2.829375 -4.6015625 1.96875 C-2 0 -2 0 0 0 Z " fill="#FCAD13" transform="translate(167,167)"/>
<path d="M0 0 C1.98 0.99 3.96 1.98 6 3 C6 3.66 6 4.32 6 5 C6.639375 5.12375 7.27875 5.2475 7.9375 5.375 C8.618125 5.58125 9.29875 5.7875 10 6 C10.33 6.66 10.66 7.32 11 8 C6.45614035 8.36842105 6.45614035 8.36842105 4.375 6.6875 C3.92125 6.130625 3.4675 5.57375 3 5 C2.1646875 4.2265625 2.1646875 4.2265625 1.3125 3.4375 C0 2 0 2 0 0 Z " fill="#831911" transform="translate(371,69)"/>
<path d="M0 0 C0 2.31 0 4.62 0 7 C-0.99 7.495 -0.99 7.495 -2 8 C-1.67 6.35 -1.34 4.7 -1 3 C-2.32 3 -3.64 3 -5 3 C-5 3.66 -5 4.32 -5 5 C-6.65 5.33 -8.3 5.66 -10 6 C-4.4 0 -4.4 0 0 0 Z " fill="#F7D546" transform="translate(350,208)"/>
<path d="M0 0 C1.33735521 2.67471043 0.71006471 3.69340172 -0.1875 6.5 C-0.42855469 7.2940625 -0.66960938 8.088125 -0.91796875 8.90625 C-2.22818739 11.44154671 -3.37907206 12.00155126 -6 13 C-4.58707905 8.1725201 -2.57025846 4.2837641 0 0 Z " fill="#81190F" transform="translate(62,139)"/>
<path d="M0 0 C0.66 0 1.32 0 2 0 C2 0.99 2 1.98 2 3 C1.01 3.495 1.01 3.495 0 4 C-0.45375 4.825 -0.9075 5.65 -1.375 6.5 C-3 9 -3 9 -5.1875 9.8125 C-5.785625 9.874375 -6.38375 9.93625 -7 10 C-1.85046729 2.18691589 -1.85046729 2.18691589 0 0 Z " fill="#871B10" transform="translate(89,102)"/>
<path d="M0 0 C0.99 0.33 1.98 0.66 3 1 C3 1.66 3 2.32 3 3 C2.34 3 1.68 3 1 3 C0.5978125 4.11375 0.5978125 4.11375 0.1875 5.25 C-0.94229421 7.86636554 -2.20893202 9.80187111 -4 12 C-4.33 10.35 -4.66 8.7 -5 7 C-4.01 7 -3.02 7 -2 7 C-2 5.68 -2 4.36 -2 3 C-1.34 3 -0.68 3 0 3 C0 2.01 0 1.02 0 0 Z " fill="#F6D029" transform="translate(167,196)"/>
<path d="M0 0 C0.625 1.875 0.625 1.875 1 4 C-1.46278801 6.46278801 -3.70676982 6.99771255 -7 8 C-3.375 2.25 -3.375 2.25 0 0 Z " fill="#FCF4BC" transform="translate(349,215)"/>
<path d="M0 0 C0.99 0.66 1.98 1.32 3 2 C1.625 4 1.625 4 0 6 C-0.66 6 -1.32 6 -2 6 C-2 6.66 -2 7.32 -2 8 C-3.98 8.99 -3.98 8.99 -6 10 C-5.67 8.68 -5.34 7.36 -5 6 C-3.68 5.67 -2.36 5.34 -1 5 C-0.67 3.35 -0.34 1.7 0 0 Z " fill="#06264D" transform="translate(402,401)"/>
<path d="M0 0 C3.48331435 3.01887244 4.79157144 5.56909529 6 10 C5.01 10 4.02 10 3 10 C0.96564469 6.27034861 0 4.33094958 0 0 Z " fill="#FEF4B7" transform="translate(318,294)"/>
<path d="M0 0 C2 1.75 2 1.75 4 4 C4 5.32 4 6.64 4 8 C4.66 8 5.32 8 6 8 C6 9.65 6 11.3 6 13 C2.97989905 9.40464172 0 4.81374718 0 0 Z " fill="#FDF7B7" transform="translate(159,281)"/>
<path d="M0 0 C7.50769231 0.61538462 7.50769231 0.61538462 10 2.5625 C10.33 3.036875 10.66 3.51125 11 4 C10.01 4.495 10.01 4.495 9 5 C8.34 4.67 7.68 4.34 7 4 C7 3.34 7 2.68 7 2 C5.35 2 3.7 2 2 2 C1.67 2.66 1.34 3.32 1 4 C0.67 2.68 0.34 1.36 0 0 Z " fill="#F7D331" transform="translate(256,209)"/>
<path d="M0 0 C1.2380014 3.57644848 0.74926071 6.33694766 0 10 C-0.66 10 -1.32 10 -2 10 C-2.33 10.66 -2.66 11.32 -3 12 C-2.14285714 3.42857143 -2.14285714 3.42857143 0 0 Z " fill="#FEF6BD" transform="translate(161,212)"/>
<path d="M0 0 C1.39049921 3.16022548 0.90218951 4.27014325 -0.3125 7.625 C-2 11 -2 11 -4 13 C-3.40895235 8.15340923 -2.02055843 4.39251833 0 0 Z " fill="#F4D443" transform="translate(133,205)"/>
<path d="M0 0 C0.66 0 1.32 0 2 0 C2 2.97 2 5.94 2 9 C1.01 8.34 0.02 7.68 -1 7 C-0.67 4.69 -0.34 2.38 0 0 Z " fill="#D23105" transform="translate(301,169)"/>
<path d="M0 0 C0.99 0 1.98 0 3 0 C3.8638129 1.45264038 4.71580454 2.9123163 5.5625 4.375 C6.27599609 5.59316406 6.27599609 5.59316406 7.00390625 6.8359375 C7.33261719 7.55007813 7.66132813 8.26421875 8 9 C7.67 9.66 7.34 10.32 7 11 C5.82750647 9.54634731 4.66216184 8.08692581 3.5 6.625 C2.52546875 5.40683594 2.52546875 5.40683594 1.53125 4.1640625 C0 2 0 2 0 0 Z " fill="#F3D546" transform="translate(136,300)"/>
<path d="M0 0 C0.66 0.33 1.32 0.66 2 1 C-0.05233685 3.2477975 -1.00667261 4.0022242 -4 5 C-4.66 5.66 -5.32 6.32 -6 7 C-6.99 6.34 -7.98 5.68 -9 5 C-7.54735962 4.1361871 -6.0876837 3.28419546 -4.625 2.4375 C-3.40683594 1.72400391 -3.40683594 1.72400391 -2.1640625 0.99609375 C-1.44992188 0.66738281 -0.73578125 0.33867187 0 0 Z " fill="#D84602" transform="translate(203,169)"/>
<path d="M0 0 C1.46015291 0.28241641 2.91809793 0.57626614 4.375 0.875 C5.18710937 1.03742187 5.99921875 1.19984375 6.8359375 1.3671875 C9 2 9 2 11 4 C9.54119891 3.85892253 8.08296449 3.71197585 6.625 3.5625 C5.40683594 3.44068359 5.40683594 3.44068359 4.1640625 3.31640625 C2 3 2 3 0 2 C0 1.34 0 0.68 0 0 Z " fill="#7B1812" transform="translate(320,44)"/>
<path d="M0 0 C0.99 0 1.98 0 3 0 C1.80100302 3.0831351 0.52299523 6.06279492 -1 9 C-2.60031344 5.79937313 -1.03173691 3.27728194 0 0 Z " fill="#042147" transform="translate(439,352)"/>
<path d="M0 0 C1.65 0 3.3 0 5 0 C4.45276317 3.37462715 3.9451 5.08235 2 8 C2 6.02 2 4.04 2 2 C1.34 2 0.68 2 0 2 C0 1.34 0 0.68 0 0 Z " fill="#F9D12A" transform="translate(282,275)"/>
<path d="M0 0 C-1.4562545 0.67119549 -2.91507867 1.33681807 -4.375 2 C-5.59316406 2.556875 -5.59316406 2.556875 -6.8359375 3.125 C-9 4 -9 4 -11 4 C-11 3.01 -11 2.02 -11 1 C-9.5437328 0.63743142 -8.08488815 0.28520207 -6.625 -0.0625 C-5.40683594 -0.35833984 -5.40683594 -0.35833984 -4.1640625 -0.66015625 C-2 -1 -2 -1 0 0 Z " fill="#FBDD6C" transform="translate(355,242)"/>
<path d="M0 0 C0.66 0 1.32 0 2 0 C2.33 0.99 2.66 1.98 3 3 C3.99 3.33 4.98 3.66 6 4 C6 5.98 6 7.96 6 10 C3.25722422 6.80009492 1.3697164 3.99500618 0 0 Z " fill="#FEF9CB" transform="translate(279,188)"/>
<path d="M0 0 C0.99 0.33 1.98 0.66 3 1 C0.69 2.65 -1.62 4.3 -4 6 C-4.33 4.68 -4.66 3.36 -5 2 C-3.35 2 -1.7 2 0 2 C0 1.34 0 0.68 0 0 Z " fill="#06254E" transform="translate(374,426)"/>
<path d="M0 0 C0.66 0 1.32 0 2 0 C1.49202991 4.3177458 0.80317221 8.03302114 -1 12 C-1.33 12 -1.66 12 -2 12 C-2 9.69 -2 7.38 -2 5 C-1.34 5 -0.68 5 0 5 C0 3.35 0 1.7 0 0 Z " fill="#FEF9C9" transform="translate(277,296)"/>
<path d="M0 0 C0.8125 1.625 0.8125 1.625 1 4 C-0.46818136 6.24609835 -2.15852858 8.02378677 -4 10 C-4.33 9.34 -4.66 8.68 -5 8 C-3.52830189 4.26415094 -3.52830189 4.26415094 -1 3 C-0.67 2.01 -0.34 1.02 0 0 Z " fill="#FEF4B1" transform="translate(290,292)"/>
<path d="M0 0 C0.33 0.66 0.66 1.32 1 2 C1.66 2.33 2.32 2.66 3 3 C-1.75 6 -1.75 6 -4 6 C-2.84826645 3.53199953 -1.95216435 1.95216435 0 0 Z " fill="#F5D75B" transform="translate(252,292)"/>
<path d="M0 0 C2.31 0.66 4.62 1.32 7 2 C7.33 3.32 7.66 4.64 8 6 C7.01 6 6.02 6 5 6 C5 5.01 5 4.02 5 3 C2.525 2.01 2.525 2.01 0 1 C0 0.67 0 0.34 0 0 Z " fill="#FDF4A9" transform="translate(264,246)"/>
<path d="M0 0 C1 4 1 4 0 7 C0.99 7.33 1.98 7.66 3 8 C1.35 8.66 -0.3 9.32 -2 10 C-1.34 6.7 -0.68 3.4 0 0 Z " fill="#FEF09A" transform="translate(325,214)"/>
<path d="M0 0 C0.33 0 0.66 0 1 0 C0.67 2.64 0.34 5.28 0 8 C-0.66 7.34 -1.32 6.68 -2 6 C-2.99 6.495 -2.99 6.495 -4 7 C-2.92598892 4.08482708 -2.22189824 2.22189824 0 0 Z " fill="#F6DD73" transform="translate(334,180)"/>
<path d="M0 0 C0 3.90838866 -1.50567876 5.11594107 -4 8 C-3.67 5.69 -3.34 3.38 -3 1 C-2.01 0.67 -1.02 0.34 0 0 Z " fill="#052249" transform="translate(436,361)"/>
<path d="M0 0 C2.31 0 4.62 0 7 0 C7 0.66 7 1.32 7 2 C7.99 2.33 8.98 2.66 10 3 C8 4 8 4 6.0546875 3.44140625 C5.33539063 3.15136719 4.61609375 2.86132812 3.875 2.5625 C3.15054688 2.27503906 2.42609375 1.98757813 1.6796875 1.69140625 C0.84824219 1.34916016 0.84824219 1.34916016 0 1 C0 0.67 0 0.34 0 0 Z " fill="#C7B233" transform="translate(182,341)"/>
<path d="M0 0 C-0.33 2.97 -0.66 5.94 -1 9 C-1.33 9 -1.66 9 -2 9 C-2 6.69 -2 4.38 -2 2 C-3.32 2.33 -4.64 2.66 -6 3 C-3.375 0 -3.375 0 0 0 Z " fill="#FFFCDD" transform="translate(283,279)"/>
<path d="M0 0 C0.66 0.33 1.32 0.66 2 1 C-0.06756277 3.7972908 -1.14440371 4.02692273 -4.6875 4.6875 C-5.780625 4.790625 -6.87375 4.89375 -8 5 C-6.35197949 1.70395897 -3.32254422 1.22409524 0 0 Z " fill="#F8D64B" transform="translate(260,255)"/>
<path d="M0 0 C2.31 0 4.62 0 7 0 C6.34 0.66 5.68 1.32 5 2 C4.01 2 3.02 2 2 2 C2 2.66 2 3.32 2 4 C0.68 3.67 -0.64 3.34 -2 3 C-1.34 3 -0.68 3 0 3 C0 2.01 0 1.02 0 0 Z " fill="#FCCC05" transform="translate(357,235)"/>
<path d="M0 0 C1.45047396 2.90094791 0.45356803 4.55972596 -0.4375 7.625 C-0.72496094 8.62789062 -1.01242188 9.63078125 -1.30859375 10.6640625 C-1.53675781 11.43492187 -1.76492187 12.20578125 -2 13 C-2.33 13 -2.66 13 -3 13 C-3.31563182 7.73946963 -2.66590937 4.55426184 0 0 Z " fill="#FDF9BC" transform="translate(128,216)"/>
<path d="M0 0 C0.33 0 0.66 0 1 0 C1.36923077 4.55384615 1.36923077 4.55384615 -0.5 6.8125 C-0.995 7.204375 -1.49 7.59625 -2 8 C-2.99 7.67 -3.98 7.34 -5 7 C-4.360625 6.21625 -3.72125 5.4325 -3.0625 4.625 C-1.01857687 2.20460719 -1.01857687 2.20460719 0 0 Z " fill="#FDF3C4" transform="translate(360,200)"/>
<path d="M0 0 C2.76276177 0.52268466 5.3260876 1.10869587 8 2 C8 2.66 8 3.32 8 4 C5.69 3.67 3.38 3.34 1 3 C0.67 2.01 0.34 1.02 0 0 Z " fill="#971E18" transform="translate(362,65)"/>
<path d="M0 0 C5.75 1.75 5.75 1.75 8 4 C5.6875 4.6875 5.6875 4.6875 3 5 C1.1875 3.6875 1.1875 3.6875 0 2 C0 1.34 0 0.68 0 0 Z " fill="#861911" transform="translate(336,50)"/>
<path d="M0 0 C2.475 0.495 2.475 0.495 5 1 C5.33 2.98 5.66 4.96 6 7 C1.125 2.25 1.125 2.25 0 0 Z " fill="#04214B" transform="translate(82,388)"/>
<path d="M0 0 C0.33 0 0.66 0 1 0 C0.67 2.31 0.34 4.62 0 7 C-0.99 7 -1.98 7 -3 7 C-3 5.35 -3 3.7 -3 2 C-2.01 2.495 -2.01 2.495 -1 3 C-0.67 2.01 -0.34 1.02 0 0 Z " fill="#F8D954" transform="translate(305,315)"/>
<path d="M0 0 C0.66 0 1.32 0 2 0 C2 0.66 2 1.32 2 2 C2.66 2 3.32 2 4 2 C4.66 3.32 5.32 4.64 6 6 C3.13275314 5.42655063 2.1385485 5.1385485 0 3 C0 2.01 0 1.02 0 0 Z " fill="#801511" transform="translate(409,102)"/>
<path d="M0 0 C1.98 0.99 1.98 0.99 4 2 C4 2.66 4 3.32 4 4 C4.66 4 5.32 4 6 4 C6 4.66 6 5.32 6 6 C3.83125748 5.49396008 2.00032373 5.00016187 0 4 C0 2.68 0 1.36 0 0 Z " fill="#7C180D" transform="translate(392,85)"/>
<path d="M0 0 C0.86625 0.3403125 0.86625 0.3403125 1.75 0.6875 C0 2.25 0 2.25 -2.25 3.6875 C-4.5 3.375 -4.5 3.375 -6.25 2.6875 C-2.80384615 -0.38942308 -2.80384615 -0.38942308 0 0 Z " fill="#821A14" transform="translate(142.25,61.3125)"/>
</svg>
