<?xml version="1.0" encoding="UTF-8"?>
<svg version="1.1" xmlns="http://www.w3.org/2000/svg" width="500" height="500">
<path d="M0 0 C3.15662141 0.02150853 6.31097423 0.00000442 9.4675293 -0.02539062 C27.98182719 -0.05149414 45.91421915 2.55789354 63.71557617 7.70898438 C64.74062256 8.00087646 65.76566895 8.29276855 66.82177734 8.59350586 C77.30206496 11.69383328 87.20733742 15.88998027 97.09057617 20.52148438 C98.19143555 21.02292969 99.29229492 21.524375 100.42651367 22.04101562 C110.75660863 26.95134843 120.57991609 33.18104432 130.09057617 39.52148438 C130.09057617 40.18148437 130.09057617 40.84148437 130.09057617 41.52148438 C130.85370117 41.81023437 131.61682617 42.09898438 132.40307617 42.39648438 C135.09057617 43.52148438 135.09057617 43.52148438 138.09057617 45.52148438 C138.09057617 46.18148437 138.09057617 46.84148437 138.09057617 47.52148438 C138.65260742 47.77929688 139.21463867 48.03710938 139.79370117 48.30273438 C142.35762196 49.66318214 144.54283983 51.24937399 146.84057617 53.02148438 C147.63979492 53.62992188 148.43901367 54.23835938 149.26245117 54.86523438 C149.86573242 55.41179687 150.46901367 55.95835938 151.09057617 56.52148438 C151.09057617 57.18148437 151.09057617 57.84148437 151.09057617 58.52148438 C151.75057617 58.52148438 152.41057617 58.52148438 153.09057617 58.52148438 C153.09057617 59.18148437 153.09057617 59.84148437 153.09057617 60.52148438 C153.75057617 60.52148438 154.41057617 60.52148438 155.09057617 60.52148438 C157.71557617 62.89648437 157.71557617 62.89648437 160.09057617 65.52148438 C160.09057617 66.18148437 160.09057617 66.84148437 160.09057617 67.52148438 C160.75057617 67.52148438 161.41057617 67.52148438 162.09057617 67.52148438 C162.09057617 68.18148437 162.09057617 68.84148437 162.09057617 69.52148438 C162.75057617 69.52148438 163.41057617 69.52148438 164.09057617 69.52148438 C167.29855025 73.01176017 170.16541949 76.79276707 173.09057617 80.52148438 C173.72608398 81.32714844 174.3615918 82.1328125 175.01635742 82.96289062 C179.09057617 88.24284476 179.09057617 88.24284476 179.09057617 90.52148438 C179.75057617 90.52148438 180.41057617 90.52148438 181.09057617 90.52148438 C182.76994235 92.92877725 184.32145207 95.32779384 185.84057617 97.83398438 C186.29158691 98.5694751 186.74259766 99.30496582 187.20727539 100.06274414 C217.75351395 150.2035447 229.05133445 208.72727215 216.09057617 266.52148438 C210.19081046 290.4512016 200.92655595 312.50401299 188.09057617 333.52148438 C187.13924805 335.09736328 187.13924805 335.09736328 186.16870117 336.70507812 C182.58173785 342.5227769 182.58173785 342.5227769 181.09057617 344.52148438 C180.43057617 344.52148438 179.77057617 344.52148438 179.09057617 344.52148438 C178.80182617 345.28460938 178.51307617 346.04773438 178.21557617 346.83398438 C177.09057617 349.52148438 177.09057617 349.52148438 175.09057617 352.52148438 C174.43057617 352.52148438 173.77057617 352.52148438 173.09057617 352.52148438 C172.83276367 353.08351563 172.57495117 353.64554687 172.30932617 354.22460938 C170.94887841 356.78853016 169.36268656 358.97374803 167.59057617 361.27148438 C166.98213867 362.07070313 166.37370117 362.86992187 165.74682617 363.69335938 C165.20026367 364.29664063 164.65370117 364.89992188 164.09057617 365.52148438 C163.43057617 365.52148438 162.77057617 365.52148438 162.09057617 365.52148438 C161.43057617 366.84148437 160.77057617 368.16148437 160.09057617 369.52148438 C159.43057617 369.52148438 158.77057617 369.52148438 158.09057617 369.52148438 C157.76057617 370.51148438 157.43057617 371.50148438 157.09057617 372.52148438 C156.43057617 372.52148438 155.77057617 372.52148438 155.09057617 372.52148438 C154.43057617 373.84148437 153.77057617 375.16148437 153.09057617 376.52148438 C152.43057617 376.52148438 151.77057617 376.52148438 151.09057617 376.52148438 C151.09057617 377.18148438 151.09057617 377.84148437 151.09057617 378.52148438 C149.35665666 380.12782453 147.55248517 381.65901307 145.71557617 383.14648438 C144.7178418 383.96375 143.72010742 384.78101563 142.69213867 385.62304688 C140.09057617 387.52148438 140.09057617 387.52148438 138.09057617 387.52148438 C138.09057617 388.18148438 138.09057617 388.84148437 138.09057617 389.52148438 C132.67881147 393.52148438 132.67881147 393.52148438 130.09057617 393.52148438 C130.09057617 394.18148438 130.09057617 394.84148437 130.09057617 395.52148438 C127.68334991 397.20080408 125.28401871 398.75210247 122.77807617 400.27148438 C122.04911133 400.71959473 121.32014648 401.16770508 120.5690918 401.62939453 C114.84574376 405.12265387 109.04492359 408.43622845 103.09057617 411.52148438 C102.10444336 412.03582031 102.10444336 412.03582031 101.09838867 412.56054688 C99.10856116 413.576102 97.10352893 414.55254974 95.09057617 415.52148438 C94.14827148 415.98425781 93.2059668 416.44703125 92.23510742 416.92382812 C41.35961281 441.27714041 -19.53080925 440.88397711 -72.1550293 422.74755859 C-86.43050204 417.61854351 -99.98780028 410.4130949 -112.90942383 402.52148438 C-113.96000977 401.88726562 -115.0105957 401.25304687 -116.09301758 400.59960938 C-121.91071636 397.01264605 -121.91071636 397.01264605 -123.90942383 395.52148438 C-123.90942383 394.86148437 -123.90942383 394.20148438 -123.90942383 393.52148438 C-124.92456055 393.21404297 -124.92456055 393.21404297 -125.96020508 392.90039062 C-129.93805976 391.04054598 -132.84070182 388.36814824 -136.09692383 385.45898438 C-137.33890385 384.36222048 -138.58232746 383.26708851 -139.82739258 382.17382812 C-140.37161865 381.68906006 -140.91584473 381.20429199 -141.4765625 380.70483398 C-142.91975148 379.42268273 -142.91975148 379.42268273 -144.90942383 378.52148438 C-144.90942383 377.86148437 -144.90942383 377.20148438 -144.90942383 376.52148438 C-146.22942383 375.86148437 -147.54942383 375.20148438 -148.90942383 374.52148438 C-148.90942383 373.86148437 -148.90942383 373.20148438 -148.90942383 372.52148438 C-149.89942383 372.19148438 -150.88942383 371.86148437 -151.90942383 371.52148438 C-151.90942383 370.86148437 -151.90942383 370.20148438 -151.90942383 369.52148438 C-153.22942383 368.86148437 -154.54942383 368.20148438 -155.90942383 367.52148438 C-155.90942383 366.86148437 -155.90942383 366.20148438 -155.90942383 365.52148438 C-156.56942383 365.52148438 -157.22942383 365.52148438 -157.90942383 365.52148438 C-157.90942383 364.86148437 -157.90942383 364.20148438 -157.90942383 363.52148438 C-158.56942383 363.52148438 -159.22942383 363.52148438 -159.90942383 363.52148438 C-161.63598633 361.62304688 -161.63598633 361.62304688 -163.53442383 359.14648438 C-164.16606445 358.334375 -164.79770508 357.52226562 -165.44848633 356.68554688 C-166.90942383 354.52148438 -166.90942383 354.52148438 -166.90942383 352.52148438 C-167.56942383 352.52148438 -168.22942383 352.52148438 -168.90942383 352.52148438 C-172.90942383 347.10971967 -172.90942383 347.10971967 -172.90942383 344.52148438 C-173.56942383 344.52148438 -174.22942383 344.52148438 -174.90942383 344.52148438 C-176.58876196 342.1142317 -178.14011328 339.71500583 -179.65942383 337.20898438 C-180.10898438 336.47711914 -180.55854492 335.74525391 -181.02172852 334.99121094 C-184.51275619 329.26833836 -187.82628222 323.47513714 -190.90942383 317.52148438 C-191.39926758 316.59335937 -191.88911133 315.66523438 -192.39379883 314.70898438 C-206.75651887 286.87195996 -214.30274943 255.80410534 -214.90942383 224.52148438 C-214.9377832 223.338125 -214.96614258 222.15476563 -214.99536133 220.93554688 C-215.03513359 217.45945076 -214.99270967 213.99677545 -214.90942383 210.52148438 C-214.89685547 209.8734082 -214.88428711 209.22533203 -214.87133789 208.55761719 C-214.44667389 190.27973206 -211.61891012 171.90464152 -205.90942383 154.52148438 C-205.55235352 153.35230469 -205.1952832 152.183125 -204.82739258 150.97851562 C-198.77672808 131.77423264 -189.72113434 113.46017523 -178.97192383 96.45898438 C-178.59430908 95.85666992 -178.21669434 95.25435547 -177.82763672 94.63378906 C-176.91177455 93.22438475 -175.91758693 91.86641232 -174.90942383 90.52148438 C-174.24942383 90.52148438 -173.58942383 90.52148438 -172.90942383 90.52148438 C-172.62067383 89.75835937 -172.33192383 88.99523437 -172.03442383 88.20898438 C-170.90942383 85.52148438 -170.90942383 85.52148438 -168.90942383 82.52148438 C-168.24942383 82.52148438 -167.58942383 82.52148438 -166.90942383 82.52148438 C-166.65161133 81.95945312 -166.39379883 81.39742188 -166.12817383 80.81835938 C-164.76772606 78.25443859 -163.18153421 76.06922072 -161.40942383 73.77148438 C-160.80098633 72.97226563 -160.19254883 72.17304687 -159.56567383 71.34960938 C-159.01911133 70.74632813 -158.47254883 70.14304687 -157.90942383 69.52148438 C-157.24942383 69.52148438 -156.58942383 69.52148438 -155.90942383 69.52148438 C-155.90942383 68.86148438 -155.90942383 68.20148438 -155.90942383 67.52148438 C-155.24942383 67.52148438 -154.58942383 67.52148438 -153.90942383 67.52148438 C-153.90942383 66.86148438 -153.90942383 66.20148438 -153.90942383 65.52148438 C-151.16986821 62.47753369 -148.72878911 60.07752208 -144.90942383 58.52148438 C-144.90942383 57.86148438 -144.90942383 57.20148438 -144.90942383 56.52148438 C-144.24942383 56.52148438 -143.58942383 56.52148438 -142.90942383 56.52148438 C-142.90942383 55.86148438 -142.90942383 55.20148438 -142.90942383 54.52148438 C-139.44788537 51.52148438 -139.44788537 51.52148438 -136.90942383 51.52148438 C-136.90942383 50.86148438 -136.90942383 50.20148438 -136.90942383 49.52148438 C-134.57349408 47.5768987 -132.23126752 45.75519008 -129.78442383 43.95898438 C-129.05739258 43.42176758 -128.33036133 42.88455078 -127.58129883 42.33105469 C-115.92194151 33.79473951 -104.02326282 26.60114613 -90.90942383 20.52148438 C-89.73597412 19.97210205 -89.73597412 19.97210205 -88.53881836 19.41162109 C-78.61089798 14.81183516 -68.5802268 10.85830006 -58.09692383 7.70898438 C-57.23518555 7.44335693 -56.37344727 7.17772949 -55.4855957 6.90405273 C-37.3094671 1.71250416 -18.83858007 -0.15186515 0 0 Z " fill="#FDFDFD" transform="translate(246.909423828125,32.478515625)"/>
<path d="M0 0 C3.15662141 0.02150853 6.31097423 0.00000442 9.4675293 -0.02539062 C27.98182719 -0.05149414 45.91421915 2.55789354 63.71557617 7.70898438 C64.74062256 8.00087646 65.76566895 8.29276855 66.82177734 8.59350586 C77.30206496 11.69383328 87.20733742 15.88998027 97.09057617 20.52148438 C98.19143555 21.02292969 99.29229492 21.524375 100.42651367 22.04101562 C110.75660863 26.95134843 120.57991609 33.18104432 130.09057617 39.52148438 C130.09057617 40.18148437 130.09057617 40.84148437 130.09057617 41.52148438 C130.85370117 41.81023437 131.61682617 42.09898438 132.40307617 42.39648438 C135.09057617 43.52148438 135.09057617 43.52148438 138.09057617 45.52148438 C138.09057617 46.18148437 138.09057617 46.84148437 138.09057617 47.52148438 C138.65260742 47.77929688 139.21463867 48.03710938 139.79370117 48.30273438 C142.35762196 49.66318214 144.54283983 51.24937399 146.84057617 53.02148438 C147.63979492 53.62992188 148.43901367 54.23835938 149.26245117 54.86523438 C149.86573242 55.41179687 150.46901367 55.95835938 151.09057617 56.52148438 C151.09057617 57.18148437 151.09057617 57.84148437 151.09057617 58.52148438 C151.75057617 58.52148438 152.41057617 58.52148438 153.09057617 58.52148438 C153.09057617 59.18148437 153.09057617 59.84148437 153.09057617 60.52148438 C153.75057617 60.52148438 154.41057617 60.52148438 155.09057617 60.52148438 C157.71557617 62.89648437 157.71557617 62.89648437 160.09057617 65.52148438 C160.09057617 66.18148437 160.09057617 66.84148437 160.09057617 67.52148438 C160.75057617 67.52148438 161.41057617 67.52148438 162.09057617 67.52148438 C162.09057617 68.18148437 162.09057617 68.84148437 162.09057617 69.52148438 C162.75057617 69.52148438 163.41057617 69.52148438 164.09057617 69.52148438 C167.29855025 73.01176017 170.16541949 76.79276707 173.09057617 80.52148438 C173.72608398 81.32714844 174.3615918 82.1328125 175.01635742 82.96289062 C179.09057617 88.24284476 179.09057617 88.24284476 179.09057617 90.52148438 C179.75057617 90.52148438 180.41057617 90.52148438 181.09057617 90.52148438 C182.76994235 92.92877725 184.32145207 95.32779384 185.84057617 97.83398438 C186.29158691 98.5694751 186.74259766 99.30496582 187.20727539 100.06274414 C209.90531885 137.32095085 219.40326801 173.65147212 221.09057617 217.52148438 C77.54057617 217.52148438 -66.00942383 217.52148438 -213.90942383 217.52148438 C-213.90942383 219.83148438 -213.90942383 222.14148438 -213.90942383 224.52148438 C-214.23942383 224.52148438 -214.56942383 224.52148438 -214.90942383 224.52148438 C-215.25296817 200.77875349 -213.36272531 177.2138781 -205.90942383 154.52148438 C-205.55235352 153.35230469 -205.1952832 152.183125 -204.82739258 150.97851562 C-198.77672808 131.77423264 -189.72113434 113.46017523 -178.97192383 96.45898438 C-178.59430908 95.85666992 -178.21669434 95.25435547 -177.82763672 94.63378906 C-176.91177455 93.22438475 -175.91758693 91.86641232 -174.90942383 90.52148438 C-174.24942383 90.52148438 -173.58942383 90.52148438 -172.90942383 90.52148438 C-172.62067383 89.75835937 -172.33192383 88.99523437 -172.03442383 88.20898438 C-170.90942383 85.52148438 -170.90942383 85.52148438 -168.90942383 82.52148438 C-168.24942383 82.52148438 -167.58942383 82.52148438 -166.90942383 82.52148438 C-166.65161133 81.95945312 -166.39379883 81.39742188 -166.12817383 80.81835938 C-164.76772606 78.25443859 -163.18153421 76.06922072 -161.40942383 73.77148438 C-160.80098633 72.97226563 -160.19254883 72.17304687 -159.56567383 71.34960938 C-159.01911133 70.74632813 -158.47254883 70.14304687 -157.90942383 69.52148438 C-157.24942383 69.52148438 -156.58942383 69.52148438 -155.90942383 69.52148438 C-155.90942383 68.86148438 -155.90942383 68.20148438 -155.90942383 67.52148438 C-155.24942383 67.52148438 -154.58942383 67.52148438 -153.90942383 67.52148438 C-153.90942383 66.86148438 -153.90942383 66.20148438 -153.90942383 65.52148438 C-151.16986821 62.47753369 -148.72878911 60.07752208 -144.90942383 58.52148438 C-144.90942383 57.86148438 -144.90942383 57.20148438 -144.90942383 56.52148438 C-144.24942383 56.52148438 -143.58942383 56.52148438 -142.90942383 56.52148438 C-142.90942383 55.86148438 -142.90942383 55.20148438 -142.90942383 54.52148438 C-139.44788537 51.52148438 -139.44788537 51.52148438 -136.90942383 51.52148438 C-136.90942383 50.86148438 -136.90942383 50.20148438 -136.90942383 49.52148438 C-134.57349408 47.5768987 -132.23126752 45.75519008 -129.78442383 43.95898438 C-129.05739258 43.42176758 -128.33036133 42.88455078 -127.58129883 42.33105469 C-115.92194151 33.79473951 -104.02326282 26.60114613 -90.90942383 20.52148438 C-89.73597412 19.97210205 -89.73597412 19.97210205 -88.53881836 19.41162109 C-78.61089798 14.81183516 -68.5802268 10.85830006 -58.09692383 7.70898438 C-57.23518555 7.44335693 -56.37344727 7.17772949 -55.4855957 6.90405273 C-37.3094671 1.71250416 -18.83858007 -0.15186515 0 0 Z " fill="#012B7E" transform="translate(246.909423828125,32.478515625)"/>
<path d="M0 0 C7.88091286 1.12584469 7.88091286 1.12584469 11.41796875 2.63671875 C12.19084229 2.96325439 12.96371582 3.28979004 13.76000977 3.6262207 C14.56108154 3.97644287 15.36215332 4.32666504 16.1875 4.6875 C17.03046631 5.05125732 17.87343262 5.41501465 18.74194336 5.78979492 C32.91275096 11.95768885 46.14246318 19.42830879 59 28 C59 28.66 59 29.32 59 30 C59.763125 30.28875 60.52625 30.5775 61.3125 30.875 C64 32 64 32 67 34 C67 34.66 67 35.32 67 36 C67.56203125 36.2578125 68.1240625 36.515625 68.703125 36.78125 C71.26704579 38.14169777 73.45226365 39.72788962 75.75 41.5 C76.54921875 42.1084375 77.3484375 42.716875 78.171875 43.34375 C78.77515625 43.8903125 79.3784375 44.436875 80 45 C80 45.66 80 46.32 80 47 C80.66 47 81.32 47 82 47 C82 47.66 82 48.32 82 49 C82.66 49 83.32 49 84 49 C86.625 51.375 86.625 51.375 89 54 C89 54.66 89 55.32 89 56 C89.66 56 90.32 56 91 56 C91 56.66 91 57.32 91 58 C91.66 58 92.32 58 93 58 C96.20797408 61.4902758 99.07484332 65.27128269 102 69 C102.63550781 69.80566406 103.27101563 70.61132812 103.92578125 71.44140625 C108 76.72136038 108 76.72136038 108 79 C108.66 79 109.32 79 110 79 C111.67936617 81.40729288 113.2308759 83.80630946 114.75 86.3125 C115.20101074 87.04799072 115.65202148 87.78348145 116.11669922 88.54125977 C138.81474268 125.79946648 148.31269184 162.12998774 150 206 C100.5 206 51 206 0 206 C0 138.02 0 70.04 0 0 Z " fill="#C00000" transform="translate(318,44)"/>
<path d="M0 0 C0.495 0.99 0.495 0.99 1 2 C0.27296875 2.14695312 -0.4540625 2.29390625 -1.203125 2.4453125 C-18.53221851 6.31103336 -33.2012017 15.86223863 -44 30 C-44.67775976 31.66218649 -45.34469255 33.32883443 -46 35 C-46.96873047 36.16208984 -46.96873047 36.16208984 -47.95703125 37.34765625 C-50.38340716 40.49776952 -51.52624151 43.69234803 -52.6875 47.4375 C-52.89955078 48.08009766 -53.11160156 48.72269531 -53.33007812 49.38476562 C-55.87209634 57.28346577 -56.18246692 64.58341136 -56.1875 72.8125 C-56.20586914 74.37581055 -56.20586914 74.37581055 -56.22460938 75.97070312 C-56.24376866 86.14428223 -54.35220173 94.20308221 -50 103.375 C-49.60844727 104.20209473 -49.21689453 105.02918945 -48.81347656 105.88134766 C-45.23542045 113.1039297 -40.87613953 118.45463654 -35 124 C-34.16984375 124.84820312 -33.3396875 125.69640625 -32.484375 126.5703125 C-23.15513951 135.69418746 -11.6068362 140.28087847 1 143 C-1.62352491 145.62352491 -3.58945008 145.31227849 -7.16870117 145.38085938 C-27.4789657 145.33361247 -45.93279643 139.20932427 -60.44921875 124.66015625 C-61.29097656 123.78230469 -62.13273437 122.90445313 -63 122 C-63.68707031 121.29746094 -64.37414062 120.59492188 -65.08203125 119.87109375 C-73.46262827 110.833195 -77.52102093 100.61847727 -81 89 C-81.24878906 88.28199219 -81.49757813 87.56398438 -81.75390625 86.82421875 C-86.75111775 71.06378249 -81.99916614 52.62533267 -74.75 38.5 C-71.81037051 33.13876491 -68.64510032 28.05680266 -64 24 C-63.34 24 -62.68 24 -62 24 C-62 23.34 -62 22.68 -62 22 C-61.02149805 20.97895449 -60.02019573 19.9793879 -59 19 C-58.67 18.34 -58.34 17.68 -58 17 C-54.9375 16.375 -54.9375 16.375 -52 16 C-51.94328125 15.4121875 -51.8865625 14.824375 -51.828125 14.21875 C-49.986129 9.28359091 -43.48092044 7.17226132 -39 5 C-25.94665375 -0.05193239 -13.76204317 -0.14220251 0 0 Z " fill="#F9CF1B" transform="translate(165,69)"/>
<path d="M0 0 C0.66 0 1.32 0 2 0 C2 11.55 2 23.1 2 35 C4.97 35.66 7.94 36.32 11 37 C18.4118003 38.75421792 25.72894424 40.73181668 33 43 C32.67 43.99 32.34 44.98 32 46 C30.13671875 46.73828125 30.13671875 46.73828125 27.6875 47.3125 C22.32447632 48.76113283 17.66915585 51.02272597 12.76171875 53.59765625 C10 55 10 55 5 57 C4.67 68.22 4.34 79.44 4 91 C0.80773921 87.80773921 -1.66029745 85.30027918 -4.1875 81.75 C-6.16196239 78.87731574 -6.16196239 78.87731574 -9 77 C-10 75 -11 73 -12 71 C-13.29241051 69.30140333 -14.61490475 67.62390477 -16 66 C-20.31705266 66.55703905 -23.83426753 68.22815287 -27.7421875 70.02734375 C-30.74682034 71.3217271 -33.85639447 72.10182699 -37 73 C-39.38501529 74.05256047 -41.73837071 75.15139227 -44.08203125 76.29296875 C-45.03142578 76.64294922 -45.03142578 76.64294922 -46 77 C-46.66 76.67 -47.32 76.34 -48 76 C-43.54566796 67.68661531 -38.76505931 59.54106305 -33 52.0625 C-30.80473074 49.35617742 -30.80473074 49.35617742 -31.08984375 47.19140625 C-32.40187284 44.03240059 -34.44577851 41.5253914 -36.5625 38.875 C-37.00706543 38.30676514 -37.45163086 37.73853027 -37.90966797 37.15307617 C-41.40981045 32.69261255 -44.98525944 28.29250293 -48.6015625 23.92578125 C-50 22 -50 22 -50 20 C-42.36162527 21.84664004 -34.83107005 23.90256016 -27.32421875 26.23046875 C-23.77897306 27.05116605 -20.62642677 27.13329072 -17 27 C-16.61908203 26.07767578 -16.61908203 26.07767578 -16.23046875 25.13671875 C-15.88628906 24.32847656 -15.54210937 23.52023438 -15.1875 22.6875 C-14.85105469 21.88699219 -14.51460937 21.08648437 -14.16796875 20.26171875 C-13 18 -13 18 -11.57763672 16.58203125 C-9.96146465 14.96135731 -8.81803282 13.35282434 -7.58984375 11.42578125 C-6.94112305 10.42514648 -6.94112305 10.42514648 -6.27929688 9.40429688 C-5.37829968 7.99968552 -4.47989575 6.5934076 -3.58398438 5.18554688 C-2.43868201 3.4239383 -1.22446621 1.70753178 0 0 Z " fill="#FAD01B" transform="translate(192,95)"/>
<path d="M0 0 C2.71102279 3.29543489 4.34966851 6.75700723 6.125 10.625 C9.40070084 17.46469905 13.61165387 22.64244442 19 28 C19.804375 28.886875 20.60875 29.77375 21.4375 30.6875 C31.1814542 39.48082453 42.23801453 44.2474149 55 47 C52.37647509 49.62352491 50.41054992 49.31227849 46.83129883 49.38085938 C27.78093064 49.33654331 9.36278248 44.00866957 -4.59375 30.46875 C-5.0578125 29.9840625 -5.521875 29.499375 -6 29 C-5.34 28.67 -4.68 28.34 -4 28 C-3.34 28.33 -2.68 28.66 -2 29 C-0.11608215 25.73454239 0.49287967 22.71888239 1 19 C2.32 18.67 3.64 18.34 5 18 C4.54636829 16.41531323 4.08688548 14.83230076 3.625 13.25 C3.36976562 12.36828125 3.11453125 11.4865625 2.8515625 10.578125 C2.08898863 8.02759671 2.08898863 8.02759671 0.8984375 5.921875 C0 4 0 4 0 0 Z " fill="#F2CC21" transform="translate(111,165)"/>
<path d="M0 0 C1.79323253 0.28187936 3.58457126 0.5758281 5.375 0.875 C6.37273437 1.03742187 7.37046875 1.19984375 8.3984375 1.3671875 C11 2 11 2 13 4 C13.18112485 6.72166623 13.23577816 9.33956547 13.20254517 12.06106567 C13.19898311 13.32544663 13.19898311 13.32544663 13.1953491 14.61537063 C13.1848845 17.45611495 13.16000053 20.2965538 13.13525391 23.13720703 C13.12483386 25.16702863 13.11529751 27.19685493 13.10658264 29.22668457 C13.08034282 34.75126282 13.04167819 40.27569373 13.00085878 45.80018091 C12.96032634 51.56839808 12.93111504 57.33667203 12.90072632 63.10494995 C12.84141544 74.03430923 12.77185572 84.96357855 12.69865549 95.89285266 C12.61583348 108.3327635 12.54437347 120.77273138 12.47388959 133.21271729 C12.32861006 158.8085621 12.1689913 184.40430155 12 210 C10 209 10 209 8.875 205.9375 C8.58625 204.968125 8.2975 203.99875 8 203 C8.33 202.67 8.66 202.34 9 202 C9.0977625 199.4454283 9.12995146 196.91791539 9.12025452 194.36289978 C9.12110894 193.55350199 9.12196337 192.7441042 9.12284368 191.9101792 C9.12450096 189.17699528 9.11897309 186.44387169 9.11352539 183.71069336 C9.11324355 181.75983176 9.1134012 179.80897006 9.1139679 177.85810852 C9.11425598 172.54427841 9.10835754 167.23047066 9.10139394 161.91664577 C9.09516216 156.36993315 9.09455674 150.82322009 9.09336853 145.27650452 C9.09025469 134.76507375 9.0820406 124.25365334 9.07201904 113.74222714 C9.06085953 101.77870865 9.05534786 89.81518968 9.05032361 77.85166728 C9.03985803 53.23443911 9.02225758 28.61722013 9 4 C7.88625 3.896875 6.7725 3.79375 5.625 3.6875 C3.830625 3.3471875 3.830625 3.3471875 2 3 C1.34 2.01 0.68 1.02 0 0 Z " fill="#252063" transform="translate(306,40)"/>
<path d="M0 0 C0.495 0.99 0.495 0.99 1 2 C0.27296875 2.14695312 -0.4540625 2.29390625 -1.203125 2.4453125 C-18.53221851 6.31103336 -33.2012017 15.86223863 -44 30 C-44.67775976 31.66218649 -45.34469255 33.32883443 -46 35 C-46.64453125 35.76699219 -47.2890625 36.53398438 -47.953125 37.32421875 C-50.49538006 40.64758653 -51.54385693 43.84891665 -52.75 47.8125 C-52.97042969 48.50537109 -53.19085938 49.19824219 -53.41796875 49.91210938 C-53.95503027 51.60502068 -54.47888708 53.30211158 -55 55 C-55.33 55 -55.66 55 -56 55 C-56 52.69 -56 50.38 -56 48 C-55.34 48 -54.68 48 -54 48 C-54 46.02 -54 44.04 -54 42 C-53.34 42 -52.68 42 -52 42 C-52.33 40.35 -52.66 38.7 -53 37 C-52.01 37.33 -51.02 37.66 -50 38 C-49.690625 37.360625 -49.38125 36.72125 -49.0625 36.0625 C-48 34 -48 34 -47 33 C-46.92820036 31.48071962 -46.91607993 29.95832518 -46.9375 28.4375 C-46.94652344 27.61121094 -46.95554687 26.78492187 -46.96484375 25.93359375 C-46.97644531 25.29550781 -46.98804687 24.65742187 -47 24 C-46.34 24 -45.68 24 -45 24 C-45 24.66 -45 25.32 -45 26 C-44.34 26 -43.68 26 -43 26 C-43.185625 25.360625 -43.37125 24.72125 -43.5625 24.0625 C-43.706875 23.381875 -43.85125 22.70125 -44 22 C-43 21 -43 21 -40.4375 20.9375 C-39.2309375 20.9684375 -39.2309375 20.9684375 -38 21 C-38.33 19.68 -38.66 18.36 -39 17 C-37.68 17.33 -36.36 17.66 -35 18 C-35.33 17.01 -35.66 16.02 -36 15 C-34.5625 12.3125 -34.5625 12.3125 -33 10 C-34.49743119 8.50256881 -35.98824239 8.66797307 -38.0625 8.4375 C-39.361875 8.293125 -40.66125 8.14875 -42 8 C-37.55060523 2.55493647 -28.44666714 1.16915039 -21.75 0.25 C-14.53811157 -0.33401356 -7.2290627 -0.07469755 0 0 Z " fill="#E8C62D" transform="translate(165,69)"/>
<path d="M0 0 C0 0.66 0 1.32 0 2 C-0.969375 2.2475 -1.93875 2.495 -2.9375 2.75 C-3.948125 3.1625 -4.95875 3.575 -6 4 C-6.66179847 5.98045559 -6.66179847 5.98045559 -7 8 C-9.95545121 10.11103658 -12.43855901 10.19785783 -16 10 C-16.33 10.99 -16.66 11.98 -17 13 C-14.66705225 13.04241723 -12.33297433 13.04092937 -10 13 C-9.67 12.67 -9.34 12.34 -9 12 C-5.88272557 11.74982758 -2.7511343 11.81477852 0.375 11.8125 C1.2515625 11.80025391 2.128125 11.78800781 3.03125 11.77539062 C3.87429687 11.77345703 4.71734375 11.77152344 5.5859375 11.76953125 C6.3598584 11.76542236 7.1337793 11.76131348 7.93115234 11.75708008 C10 12 10 12 13 14 C13 15.32 13 16.64 13 18 C12.41992188 18.06058594 11.83984375 18.12117188 11.2421875 18.18359375 C6.79907137 18.66016561 2.40094577 19.21008666 -2 20 C0.46301423 17.53698577 2.27360036 17.23233479 5.625 16.375 C7.12933594 15.98441406 7.12933594 15.98441406 8.6640625 15.5859375 C9.43492187 15.39257812 10.20578125 15.19921875 11 15 C1.1312041 14.78952805 -8.31862008 14.77230187 -18 17 C-19.28970703 17.29197266 -19.28970703 17.29197266 -20.60546875 17.58984375 C-26.3576183 19.09699611 -30.9918519 21.55641002 -35.96875 24.79296875 C-38 26 -38 26 -40 26 C-40.33 27.32 -40.66 28.64 -41 30 C-42.98 30.33 -44.96 30.66 -47 31 C-46.67 30.34 -46.34 29.68 -46 29 C-45.34 29 -44.68 29 -44 29 C-44 28.34 -44 27.68 -44 27 C-41.66409996 25.05543906 -39.32168884 23.23385249 -36.875 21.4375 C-35.78880371 20.6338501 -35.78880371 20.6338501 -34.68066406 19.81396484 C-7.64390369 0 -7.64390369 0 0 0 Z " fill="#062361" transform="translate(154,55)"/>
<path d="M0 0 C0.90878906 0.56267578 0.90878906 0.56267578 1.8359375 1.13671875 C11.70768952 7.16608113 20.61297717 11.59346425 32 14 C29.37612655 16.62387345 27.40961405 16.3126964 23.82983398 16.38012695 C10.00800657 16.35197659 -1.83263018 13.98550173 -14 7 C-12.1875 6.375 -12.1875 6.375 -10 6 C-9.01 6.66 -8.02 7.32 -7 8 C-3.18434452 9.49308258 -0.09861731 10.24109514 4 10 C3.67 7.69 3.34 5.38 3 3 C2.01 3 1.02 3 0 3 C0 2.01 0 1.02 0 0 Z " fill="#F8D022" transform="translate(134,198)"/>
<path d="M0 0 C3.26601889 0.03704369 6.53090946 0.0410135 9.79711914 0.04052734 C20.20407652 0.0765529 30.32345291 0.23185574 40.54125977 2.41162109 C40.54125977 2.74162109 40.54125977 3.07162109 40.54125977 3.41162109 C39.70280518 3.38132813 38.86435059 3.35103516 38.00048828 3.31982422 C3.15953098 1.48841848 3.15953098 1.48841848 -31.45874023 4.41162109 C-32.66401367 4.57919922 -33.86928711 4.74677734 -35.11108398 4.91943359 C-42.03594125 5.85454125 -42.03594125 5.85454125 -48.45874023 8.41162109 C-49.46936523 8.53537109 -50.47999023 8.65912109 -51.52124023 8.78662109 C-52.49061523 8.99287109 -53.45999023 9.19912109 -54.45874023 9.41162109 C-55.10842773 10.43255859 -55.10842773 10.43255859 -55.77124023 11.47412109 C-57.45874023 13.41162109 -57.45874023 13.41162109 -59.32202148 13.63818359 C-60.86949901 13.61145687 -62.41668997 13.55945682 -63.96264648 13.48583984 C-67.85374844 13.37014198 -71.60151286 13.92181444 -75.45874023 14.41162109 C-70.85298275 11.34111611 -65.71352878 10.06467742 -60.45874023 8.41162109 C-59.4494043 8.07904297 -58.44006836 7.74646484 -57.40014648 7.40380859 C-38.65505683 1.57608182 -19.54787386 -0.22890826 0 0 Z " fill="#082154" transform="translate(247.458740234375,32.58837890625)"/>
<path d="M0 0 C8.73686561 2.11220927 17.37109608 4.4853638 26 7 C26 7.33 26 7.66 26 8 C25.37351563 8.02578125 24.74703125 8.0515625 24.1015625 8.078125 C23.28429687 8.13484375 22.46703125 8.1915625 21.625 8.25 C20.81289062 8.29640625 20.00078125 8.3428125 19.1640625 8.390625 C16.8532701 8.79609384 16.8532701 8.79609384 15.6953125 10.84765625 C14.7252475 13.85049792 15.19657784 15.9871669 16 19 C16.66 19.33 17.32 19.66 18 20 C18.33 20.99 18.66 21.98 19 23 C19.66 23.33 20.32 23.66 21 24 C21 26.31 21 28.62 21 31 C20.34 31 19.68 31 19 31 C19 31.99 19 32.98 19 34 C18.34 34 17.68 34 17 34 C17.5259375 32.88625 17.5259375 32.88625 18.0625 31.75 C19.12217702 28.64161406 19.14279276 27.99454027 18 25 C16.5294623 22.88448963 15.04144447 20.88333253 13.4375 18.875 C12.99293457 18.30676514 12.54836914 17.73853027 12.09033203 17.15307617 C8.59018955 12.69261255 5.01474056 8.29250293 1.3984375 3.92578125 C0 2 0 2 0 0 Z " fill="#F3CC25" transform="translate(142,115)"/>
<path d="M0 0 C2.56235857 1.28117928 2.79036139 2.3224652 3.953125 4.91015625 C4.32211914 5.72693848 4.69111328 6.5437207 5.07128906 7.38525391 C5.46026367 8.26874512 5.84923828 9.15223633 6.25 10.0625 C6.65186523 10.96919434 7.05373047 11.87588867 7.46777344 12.81005859 C16.15394436 32.6060438 25.82185705 55.98288231 25 78 C22.23192479 73.51380915 21.93392553 68.3085949 21.14453125 63.19921875 C20.5283179 59.41580128 19.87330323 56.38403163 18 53 C17.42975335 50.75069376 16.99946458 48.49720816 16.5625 46.21875 C16.08085794 43.9777604 16.08085794 43.9777604 14.984375 42 C13.89245121 39.78148818 13.59192726 37.94233757 13.25 35.5 C12.25310197 30.11991537 10.07079028 25.78546751 7.5234375 20.9765625 C5.68973062 17.39378137 4.25107098 13.73316609 2.859375 9.9609375 C2.06309859 7.82055489 2.06309859 7.82055489 0 6 C-0.125 2.875 -0.125 2.875 0 0 Z " fill="#840809" transform="translate(441,146)"/>
<path d="M0 0 C0.66 0.33 1.32 0.66 2 1 C1.67 12.22 1.34 23.44 1 35 C-2.44312589 31.55687411 -4.79263746 29.11379744 -7.3125 25.1875 C-7.82425781 24.39730469 -8.33601562 23.60710937 -8.86328125 22.79296875 C-9.23839844 22.20128906 -9.61351562 21.60960937 -10 21 C-8.68 21.33 -7.36 21.66 -6 22 C-5.67 21.34 -5.34 20.68 -5 20 C-4.87625 20.639375 -4.7525 21.27875 -4.625 21.9375 C-4.41875 22.618125 -4.2125 23.29875 -4 24 C-3.34 24.33 -2.68 24.66 -2 25 C-2 17.08 -2 9.16 -2 1 C-1.34 0.67 -0.68 0.34 0 0 Z " fill="#CEB73A" transform="translate(195,151)"/>
<path d="M0 0 C2.97 0.495 2.97 0.495 6 1 C6 1.99 6 2.98 6 4 C6.99 4 7.98 4 9 4 C9.66 6.31 10.32 8.62 11 11 C10 12 10 12 8 12.3125 C4.28729942 11.92576036 1.52151113 10.58665789 -1.81640625 8.97265625 C-3.87380127 8.05621375 -5.80349085 7.47317091 -8 7 C-8 6.34 -8 5.68 -8 5 C-8.66 4.67 -9.32 4.34 -10 4 C-9.34 3.34 -8.68 2.68 -8 2 C-7.67 2.99 -7.34 3.98 -7 5 C-2.76915097 3.31192092 -2.76915097 3.31192092 0 0 Z " fill="#FBD018" transform="translate(128,197)"/>
<path d="M0 0 C0.495 0.99 0.495 0.99 1 2 C0.34 2.99 -0.32 3.98 -1 5 C-1.66 5 -2.32 5 -3 5 C-3 5.66 -3 6.32 -3 7 C-3.70125 7.515625 -4.4025 8.03125 -5.125 8.5625 C-11.1772117 13.69372297 -14.6527596 20.91929915 -18 28 C-18.33 28 -18.66 28 -19 28 C-19.33 26.35 -19.66 24.7 -20 23 C-20.7734375 24.794375 -20.7734375 24.794375 -21.5625 26.625 C-23.82757316 31.2205636 -26.93151883 33.98292408 -31 37 C-31 33.40142046 -30.04169485 31.90548882 -28 29 C-27.34 29 -26.68 29 -26 29 C-25.7421875 28.43796875 -25.484375 27.8759375 -25.21875 27.296875 C-23.85830223 24.73295421 -22.27211038 22.54773635 -20.5 20.25 C-19.8915625 19.45078125 -19.283125 18.6515625 -18.65625 17.828125 C-18.1096875 17.22484375 -17.563125 16.6215625 -17 16 C-16.34 16 -15.68 16 -15 16 C-15 15.34 -15 14.68 -15 14 C-14.34 14 -13.68 14 -13 14 C-13 13.34 -13 12.68 -13 12 C-10.26044438 8.95604931 -7.81936528 6.55603771 -4 5 C-4 4.34 -4 3.68 -4 3 C-3.34 3 -2.68 3 -2 3 C-2 2.34 -2 1.68 -2 1 C-1.34 0.67 -0.68 0.34 0 0 Z " fill="#07225B" transform="translate(106,86)"/>
<path d="M0 0 C1.13583456 3.71727674 0.66670026 5.47051709 -1 9 C-1.66 9 -2.32 9 -3 9 C-3 10.65 -3 12.3 -3 14 C-3.66 14 -4.32 14 -5 14 C-6.2607067 20.55064457 -6.18604876 27.04395684 -6.18530273 33.68505859 C-6.18748681 35.86185334 -6.20567081 38.03813855 -6.22460938 40.21484375 C-6.25088395 47.12614763 -5.90904108 53.31432869 -4 60 C-4.44213867 62.20263672 -4.44213867 62.20263672 -5 64 C-11.7155326 43.27778511 -12.17462578 24.39140624 -2.3125 4.5 C-1.5456461 2.99796168 -0.77622194 1.4972186 0 0 Z " fill="#CFB93E" transform="translate(92,104)"/>
<path d="M0 0 C0.33 0.66 0.66 1.32 1 2 C0.23816406 2.18175781 -0.52367187 2.36351563 -1.30859375 2.55078125 C-7.65889864 4.09673563 -13.83123818 5.84093336 -20 8 C-20.33 6.68 -20.66 5.36 -21 4 C-23.64 4 -26.28 4 -29 4 C-29 3.34 -29 2.68 -29 2 C-19.2648233 -0.10084738 -9.89613084 -0.21105492 0 0 Z " fill="#F5D124" transform="translate(165,69)"/>
<path d="M0 0 C0.90878906 0.56267578 0.90878906 0.56267578 1.8359375 1.13671875 C11.70768952 7.16608113 20.61297717 11.59346425 32 14 C30 16 30 16 28.1081543 16.24291992 C27.35445557 16.23881104 26.60075684 16.23470215 25.82421875 16.23046875 C24.99599609 16.22853516 24.16777344 16.22660156 23.31445312 16.22460938 C22.44755859 16.21236328 21.58066406 16.20011719 20.6875 16.1875 C19.83220703 16.18685547 18.97691406 16.18621094 18.09570312 16.18554688 C13.94373976 16.15660213 10.04703319 16.04304979 6 15 C6 14.67 6 14.34 6 14 C11.28 14.33 16.56 14.66 22 15 C22 14.34 22 13.68 22 13 C20.9790625 12.8453125 20.9790625 12.8453125 19.9375 12.6875 C17 12 17 12 13.5 10.4375 C10.26560853 9.10908922 8.41907614 8.6891749 5 9 C4.34 7.02 3.68 5.04 3 3 C2.01 3 1.02 3 0 3 C0 2.01 0 1.02 0 0 Z " fill="#C0B042" transform="translate(134,198)"/>
<path d="M0 0 C2.74364842 3.35057671 4.5087288 6.91528661 6.375 10.8125 C8.85480397 15.90954444 11.49383829 20.53761237 15 25 C13.68 25 12.36 25 11 25 C10.67 25.66 10.34 26.32 10 27 C8.95550089 23.86650268 9.06576355 23.01031744 10 20 C6.88667752 20.66868314 6.88667752 20.66868314 5.8125 23.0625 C5.544375 23.701875 5.27625 24.34125 5 25 C4.34 25 3.68 25 3 25 C2.34 23.02 1.68 21.04 1 19 C2.32 18.67 3.64 18.34 5 18 C4.54636829 16.41531323 4.08688548 14.83230076 3.625 13.25 C3.36976562 12.36828125 3.11453125 11.4865625 2.8515625 10.578125 C2.08898863 8.02759671 2.08898863 8.02759671 0.8984375 5.921875 C0 4 0 4 0 0 Z " fill="#DDBF31" transform="translate(111,165)"/>
<path d="M0 0 C0.8765625 -0.01224609 1.753125 -0.02449219 2.65625 -0.03710938 C3.49929687 -0.03904297 4.34234375 -0.04097656 5.2109375 -0.04296875 C5.9848584 -0.04707764 6.7587793 -0.05118652 7.55615234 -0.05541992 C9.625 0.1875 9.625 0.1875 12.625 2.1875 C12.625 3.5075 12.625 4.8275 12.625 6.1875 C12.04492188 6.24808594 11.46484375 6.30867188 10.8671875 6.37109375 C6.42407137 6.84766561 2.02594577 7.39758666 -2.375 8.1875 C0.08801423 5.72448577 1.89860036 5.41983479 5.25 4.5625 C6.25289062 4.30210938 7.25578125 4.04171875 8.2890625 3.7734375 C9.05992187 3.58007812 9.83078125 3.38671875 10.625 3.1875 C0.70227661 2.97587794 -8.60692181 3.18716112 -18.375 5.1875 C-20.37391287 5.52729175 -22.37367 5.86224725 -24.375 6.1875 C-24.045 5.5275 -23.715 4.8675 -23.375 4.1875 C-22.385 4.1875 -21.395 4.1875 -20.375 4.1875 C-20.375 3.5275 -20.375 2.8675 -20.375 2.1875 C-19.30958984 2.09662109 -19.30958984 2.09662109 -18.22265625 2.00390625 C-16.84400391 1.87822266 -16.84400391 1.87822266 -15.4375 1.75 C-14.52097656 1.66878906 -13.60445312 1.58757812 -12.66015625 1.50390625 C-1.80812912 0.00131788 -1.80812912 0.00131788 0 0 Z " fill="#1C385D" transform="translate(154.375,66.8125)"/>
<path d="M0 0 C1.32 0.33 2.64 0.66 4 1 C2.58782791 4.17032634 0.86350624 6.40874862 -1.5 8.9375 C-4.14320193 11.88044647 -5.68200123 14.24877274 -7 18 C-7.93005859 19.06734375 -7.93005859 19.06734375 -8.87890625 20.15625 C-11.42555464 23.57054103 -12.52242312 26.77848165 -13.75 30.8125 C-13.97042969 31.50537109 -14.19085938 32.19824219 -14.41796875 32.91210938 C-14.95503027 34.60502068 -15.47888708 36.30211158 -16 38 C-16.33 38 -16.66 38 -17 38 C-17 35.69 -17 33.38 -17 31 C-16.34 31 -15.68 31 -15 31 C-15 29.02 -15 27.04 -15 25 C-14.34 25 -13.68 25 -13 25 C-13.33 23.35 -13.66 21.7 -14 20 C-13.01 20.33 -12.02 20.66 -11 21 C-10.690625 20.360625 -10.38125 19.72125 -10.0625 19.0625 C-9 17 -9 17 -8 16 C-7.92820036 14.48071962 -7.91607993 12.95832518 -7.9375 11.4375 C-7.94652344 10.61121094 -7.95554687 9.78492187 -7.96484375 8.93359375 C-7.97644531 8.29550781 -7.98804687 7.65742187 -8 7 C-7.34 7 -6.68 7 -6 7 C-6 7.66 -6 8.32 -6 9 C-5.34 9 -4.68 9 -4 9 C-4.185625 8.360625 -4.37125 7.72125 -4.5625 7.0625 C-4.706875 6.381875 -4.85125 5.70125 -5 5 C-4 4 -4 4 -1.4375 3.9375 C-0.2309375 3.9684375 -0.2309375 3.9684375 1 4 C0.67 2.68 0.34 1.36 0 0 Z " fill="#DDC136" transform="translate(126,86)"/>
<path d="M0 0 C1.69458607 1.64474531 3.35614246 3.30530151 5 5 C5.56203125 5.5775 6.1240625 6.155 6.703125 6.75 C7.25484375 7.348125 7.8065625 7.94625 8.375 8.5625 C8.89835938 9.12066406 9.42171875 9.67882812 9.9609375 10.25390625 C11 12 11 12 10.8203125 13.94921875 C9.91028504 16.2242874 8.81648976 18.18341723 7.5 20.25 C7.0565625 20.95640625 6.613125 21.6628125 6.15625 22.390625 C5.58390625 23.18726563 5.58390625 23.18726563 5 24 C4.67 24 4.34 24 4 24 C2.66742597 14.58997722 2.66742597 14.58997722 4 10 C4.66 10 5.32 10 6 10 C6 9.34 6 8.68 6 8 C4.35 8 2.7 8 1 8 C1.020625 7.236875 1.04125 6.47375 1.0625 5.6875 C1.12942841 2.89814214 1.12942841 2.89814214 0 0 Z " fill="#153466" transform="translate(151,129)"/>
<path d="M0 0 C2.125 0.375 2.125 0.375 4 1 C3.01 1 2.02 1 1 1 C1 1.66 1 2.32 1 3 C0.34 3 -0.32 3 -1 3 C-1 14.22 -1 25.44 -1 37 C-6.99942697 35.50014326 -10.57049618 33.14425573 -14 28 C-13.625 25.3125 -13.625 25.3125 -13 23 C-10.10115314 25.73319846 -7.61341827 28.41715612 -5.32421875 31.68359375 C-4.88553467 32.3067749 -4.44685059 32.92995605 -3.99487305 33.57202148 C-3.66656494 34.04325439 -3.33825684 34.5144873 -3 35 C-2.98018066 34.01080566 -2.96036133 33.02161133 -2.93994141 32.00244141 C-2.86396544 28.33827923 -2.77523648 24.67451836 -2.68261719 21.01074219 C-2.64429415 19.42390862 -2.60944712 17.83698719 -2.578125 16.25 C-2.53254569 13.97103434 -2.47454162 11.69267532 -2.4140625 9.4140625 C-2.40251129 8.70255035 -2.39096008 7.99103821 -2.37905884 7.25796509 C-2.22774341 2.22774341 -2.22774341 2.22774341 0 0 Z " fill="#24394F" transform="translate(198,150)"/>
<path d="M0 0 C0.33 0 0.66 0 1 0 C0.99214478 1.24873901 0.99214478 1.24873901 0.98413086 2.52270508 C0.96707775 5.61449935 0.95454435 8.70626964 0.94506836 11.7980957 C0.93757271 13.79314768 0.92486655 15.78817786 0.91210938 17.78320312 C0.90727539 19.66362305 0.90727539 19.66362305 0.90234375 21.58203125 C0.89710693 22.73936768 0.89187012 23.8967041 0.88647461 25.08911133 C0.86700539 28.06604411 0.86700539 28.06604411 2 31 C1.54625 31.886875 1.0925 32.77375 0.625 33.6875 C-1.31476876 37.64164401 -1.62408204 40.63935165 -2 45 C-2.33 45 -2.66 45 -3 45 C-3.21887626 29.87321867 -2.71302984 14.90849406 0 0 Z " fill="#0C2559" transform="translate(35,212)"/>
<path d="M0 0 C0.33 0.66 0.66 1.32 1 2 C1.66 2.33 2.32 2.66 3 3 C3.33 3.33 3.66 3.66 4 4 C5.99958364 4.04080783 8.00045254 4.04254356 10 4 C10 3.34 10 2.68 10 2 C11.65 2 13.3 2 15 2 C12.76682227 4.88999471 10.51216781 5.5325715 7.04296875 6.390625 C3.84567901 7.34430989 0.91206533 8.83457059 -2.08203125 10.29296875 C-3.03142578 10.64294922 -3.03142578 10.64294922 -4 11 C-4.66 10.67 -5.32 10.34 -6 10 C-5.18957164 8.51969728 -4.37659652 7.04078858 -3.5625 5.5625 C-2.88380859 4.32693359 -2.88380859 4.32693359 -2.19140625 3.06640625 C-1 1 -1 1 0 0 Z " fill="#D9BF3E" transform="translate(150,161)"/>
<path d="M0 0 C0.66 0 1.32 0 2 0 C1.5020163 3.73487777 1.12508244 5.81237635 -1 9 C-1.66 9 -2.32 9 -3 9 C-2.67 10.32 -2.34 11.64 -2 13 C-7.75 18 -7.75 18 -10 18 C-10.33 19.98 -10.66 21.96 -11 24 C-11.99 24.33 -12.98 24.66 -14 25 C-10.88089813 16.20980382 -5.53261726 7.45579405 0 0 Z " fill="#07205C" transform="translate(72,123)"/>
<path d="M0 0 C0.66 0.33 1.32 0.66 2 1 C-1.625 4 -1.625 4 -5 4 C-5.309375 4.928125 -5.309375 4.928125 -5.625 5.875 C-7.56307869 8.87021253 -9.63160418 9.05684917 -13 10 C-16.13229749 11.13110743 -16.78571943 11.55001079 -18.25 14.625 C-18.4975 15.40875 -18.745 16.1925 -19 17 C-19.99 17 -20.98 17 -22 17 C-22.33 17.99 -22.66 18.98 -23 20 C-23.99 20.33 -24.98 20.66 -26 21 C-22.31254575 11.90707305 -11.44547134 5.2700051 -3 1 C-2.01 0.67 -1.02 0.34 0 0 Z " fill="#404C50" transform="translate(150,75)"/>
<path d="M0 0 C0.33 0 0.66 0 1 0 C2.03387512 8.0125322 2.10466648 15.92905177 2 24 C2.93070313 23.979375 3.86140625 23.95875 4.8203125 23.9375 C8.0648695 24.00127508 10.09146752 24.63127883 13 26 C13 26.66 13 27.32 13 28 C8.29284832 27.4351418 4.57427092 26.52475697 0 25 C0 16.75 0 8.5 0 0 Z " fill="#374950" transform="translate(194,105)"/>
<path d="M0 0 C0 0.33 0 0.66 0 1 C-0.928125 1.0825 -1.85625 1.165 -2.8125 1.25 C-6.10361499 1.63288728 -6.10361499 1.63288728 -7.3125 4.0625 C-9 6 -9 6 -10.86328125 6.2265625 C-12.41075877 6.19983577 -13.95794974 6.14783573 -15.50390625 6.07421875 C-19.3950082 5.95852088 -23.14277262 6.51019335 -27 7 C-24.01203276 5.00802184 -21.51985412 4.0507751 -18.125 2.9375 C-17.09632813 2.59589844 -16.06765625 2.25429688 -15.0078125 1.90234375 C-9.85391647 0.35617494 -5.39265149 -0.10573826 0 0 Z " fill="#072462" transform="translate(199,40)"/>
<path d="M0 0 C2.97 0 5.94 0 9 0 C9.33 1.32 9.66 2.64 10 4 C7.69 4.33 5.38 4.66 3 5 C3 5.99 3 6.98 3 8 C2.34 8 1.68 8 1 8 C1 7.01 1 6.02 1 5 C0.01 4.67 -0.98 4.34 -2 4 C-2 3.34 -2 2.68 -2 2 C-1.34 2 -0.68 2 0 2 C0 1.34 0 0.68 0 0 Z " fill="#FCD016" transform="translate(135,73)"/>
<path d="M0 0 C0.66 0 1.32 0 2 0 C2 11.55 2 23.1 2 35 C1.67 35 1.34 35 1 35 C0.67 25.43 0.34 15.86 0 6 C-1.98 6.99 -1.98 6.99 -4 8 C-2.87548273 5.0280615 -1.77706209 2.66559313 0 0 Z " fill="#B8A948" transform="translate(192,95)"/>
<path d="M0 0 C0.33 0.66 0.66 1.32 1 2 C-2.63 2.66 -6.26 3.32 -10 4 C-10 3.67 -10 3.34 -10 3 C-16.27 3 -22.54 3 -29 3 C-21.35906308 -2.09395795 -8.93224527 -0.09229645 0 0 Z " fill="#BAAD58" transform="translate(165,69)"/>
<path d="M0 0 C2.475 0.99 2.475 0.99 5 2 C5 3.65 5 5.3 5 7 C3.68 7.33 2.36 7.66 1 8 C0.67 9.32 0.34 10.64 0 12 C-0.67119549 10.5437455 -1.33681807 9.08492133 -2 7.625 C-2.37125 6.81289062 -2.7425 6.00078125 -3.125 5.1640625 C-4 3 -4 3 -4 1 C-3.34 1 -2.68 1 -2 1 C-1.67 1.66 -1.34 2.32 -1 3 C-0.67 2.01 -0.34 1.02 0 0 Z " fill="#022C7A" transform="translate(114,160)"/>
<path d="M0 0 C1.1087792 3.32633759 0.86099192 4.58520806 0.125 7.9375 C-0.05804688 8.79214844 -0.24109375 9.64679688 -0.4296875 10.52734375 C-0.76432603 11.97820807 -1.12116477 13.42483085 -1.52954102 14.85668945 C-2.04928123 17.22451474 -2.11318873 19.34255801 -2.09765625 21.765625 C-2.09443359 22.65507812 -2.09121094 23.54453125 -2.08789062 24.4609375 C-2.07532227 25.84152344 -2.07532227 25.84152344 -2.0625 27.25 C-2.05798828 28.18585938 -2.05347656 29.12171875 -2.04882812 30.0859375 C-2.03706918 32.39069041 -2.02063426 34.69531227 -2 37 C-2.66 37 -3.32 37 -4 37 C-4 28.42 -4 19.84 -4 11 C-3.34 11 -2.68 11 -2 11 C-2 8.03 -2 5.06 -2 2 C-1.34 2 -0.68 2 0 2 C0 1.34 0 0.68 0 0 Z " fill="#1E3751" transform="translate(85,117)"/>
<path d="M0 0 C1.14926266 0.95421808 2.29430541 1.91352045 3.4375 2.875 C4.07558594 3.40867188 4.71367188 3.94234375 5.37109375 4.4921875 C7 6 7 6 8 8 C6.68 8.33 5.36 8.66 4 9 C4 9.66 4 10.32 4 11 C1.03 10.505 1.03 10.505 -2 10 C-2.33 8.68 -2.66 7.36 -3 6 C-2.01 6 -1.02 6 0 6 C0 4.02 0 2.04 0 0 Z " fill="#0B3273" transform="translate(101,190)"/>
<path d="M0 0 C0.66 0 1.32 0 2 0 C2.33 0.66 2.66 1.32 3 2 C3.66 2.28875 4.32 2.5775 5 2.875 C7 4 7 4 7.625 6.0625 C7.74875 6.701875 7.8725 7.34125 8 8 C8.66 8.33 9.32 8.66 10 9 C10.33 9.99 10.66 10.98 11 12 C11.66 12.33 12.32 12.66 13 13 C13 15.31 13 17.62 13 20 C12.34 20 11.68 20 11 20 C11 20.99 11 21.98 11 23 C10.34 23 9.68 23 9 23 C9.350625 22.2575 9.70125 21.515 10.0625 20.75 C11.09072401 17.73387625 11.0093164 16.91834019 10 14 C8.35992899 11.70390058 6.70347615 9.5060027 4.9375 7.3125 C0 1.10862892 0 1.10862892 0 0 Z " fill="#D1BB43" transform="translate(150,126)"/>
<path d="M0 0 C2.01648182 3.68431959 3.30736903 7.59045548 4.625 11.5625 C4.85445313 12.23474609 5.08390625 12.90699219 5.3203125 13.59960938 C6.29558139 16.52251345 7 18.8973156 7 22 C3 17.25 3 17.25 3 15 C2.34 15 1.68 15 1 15 C0.15318867 9.91913204 -0.09038099 5.15171623 0 0 Z " fill="#2F4054" transform="translate(83,154)"/>
<path d="M0 0 C1.96035175 0.44962196 3.91824309 0.90998248 5.875 1.375 C7.51082031 1.75785156 7.51082031 1.75785156 9.1796875 2.1484375 C12 3 12 3 14 5 C11.69 4.67 9.38 4.34 7 4 C7.33 5.98 7.66 7.96 8 10 C6.33333333 8.33333333 4.66666667 6.66666667 3 5 C2.401875 4.443125 1.80375 3.88625 1.1875 3.3125 C0 2 0 2 0 0 Z " fill="#CBBA48" transform="translate(142,115)"/>
<path d="M0 0 C-7.71428571 6 -7.71428571 6 -11 6 C-11.33 7.32 -11.66 8.64 -12 10 C-13.98 10.33 -15.96 10.66 -18 11 C-17.67 10.34 -17.34 9.68 -17 9 C-16.34 9 -15.68 9 -15 9 C-15 8.34 -15 7.68 -15 7 C-10.61290363 2.69089646 -6.46524004 -1.1604277 0 0 Z " fill="#54512D" transform="translate(125,75)"/>
<path d="M0 0 C2.97 1.65 5.94 3.3 9 5 C9 5.66 9 6.32 9 7 C9.763125 7.28875 10.52625 7.5775 11.3125 7.875 C14 9 14 9 17 11 C17 11.66 17 12.32 17 13 C17.99 13.33 18.98 13.66 20 14 C18.1875 14.6875 18.1875 14.6875 16 15 C14.58203125 13.71484375 14.58203125 13.71484375 13 12 C11.84532967 10.9450512 10.67832998 9.90345467 9.5 8.875 C8.9121875 8.35679688 8.324375 7.83859375 7.71875 7.3046875 C5.92138774 5.79506369 5.92138774 5.79506369 3 5 C3 4.34 3 3.68 3 3 C2.01 2.67 1.02 2.34 0 2 C0 1.34 0 0.68 0 0 Z " fill="#780807" transform="translate(368,67)"/>
<path d="M0 0 C-0.33 0.99 -0.66 1.98 -1 3 C-1.99 3 -2.98 3 -4 3 C-4 3.99 -4 4.98 -4 6 C-9.94 6.495 -9.94 6.495 -16 7 C-16 5.35 -16 3.7 -16 2 C-15.34 2 -14.68 2 -14 2 C-13.67 2.99 -13.34 3.98 -13 5 C-11.5414128 4.35474023 -10.08313863 3.7087728 -8.625 3.0625 C-7.81289062 2.70285156 -7.00078125 2.34320313 -6.1640625 1.97265625 C-1.7751004 0 -1.7751004 0 0 0 Z " fill="#2C4355" transform="translate(159,166)"/>
<path d="M0 0 C0.33 0 0.66 0 1 0 C0.99476318 0.82725586 0.98952637 1.65451172 0.98413086 2.50683594 C0.96334531 6.25454957 0.95033476 10.00225106 0.9375 13.75 C0.92912109 15.05195313 0.92074219 16.35390625 0.91210938 17.6953125 C0.90888672 18.94570312 0.90566406 20.19609375 0.90234375 21.484375 C0.89710693 22.63647461 0.89187012 23.78857422 0.88647461 24.97558594 C0.98257652 27.53582361 1.38375203 29.54606811 2 32 C1.0625 34.25 1.0625 34.25 0 36 C-1.30643229 30.0277381 -1.1470264 24.07928649 -1.125 18 C-1.12886719 16.93265625 -1.13273437 15.8653125 -1.13671875 14.765625 C-1.13046636 9.73870265 -1.07989207 4.93664946 0 0 Z " fill="#2F414C" transform="translate(109,124)"/>
<path d="M0 0 C0 0.33 0 0.66 0 1 C-0.64960693 1.0501123 -1.29921387 1.10022461 -1.96850586 1.15185547 C-4.95872901 1.3863098 -7.94807452 1.63059304 -10.9375 1.875 C-12.46987305 1.99294922 -12.46987305 1.99294922 -14.03320312 2.11328125 C-20.19036192 2.62473853 -26.00219266 3.51149307 -32 5 C-31.67 4.34 -31.34 3.68 -31 3 C-30.01 3 -29.02 3 -28 3 C-28 2.34 -28 1.68 -28 1 C-18.64087671 0.00736571 -9.39605802 -0.10731538 0 0 Z " fill="#2C3F4B" transform="translate(162,68)"/>
<path d="M0 0 C3.98337757 1.94061984 6.03341427 5.56071774 8.4375 9.1875 C7.4475 9.6825 7.4475 9.6825 6.4375 10.1875 C5.81875 9.383125 5.2 8.57875 4.5625 7.75 C2.69585959 5.14875481 2.69585959 5.14875481 0.4375 4.1875 C-1.44112875 4.27494368 -3.31705181 4.42925542 -5.1875 4.625 C-6.19039062 4.72683594 -7.19328125 4.82867187 -8.2265625 4.93359375 C-8.99742187 5.01738281 -9.76828125 5.10117188 -10.5625 5.1875 C-8.64437464 1.35124929 -4.06267704 0.29726905 0 0 Z " fill="#3F4D4D" transform="translate(174.5625,159.8125)"/>
<path d="M0 0 C0.33 0.66 0.66 1.32 1 2 C0.01 3.485 0.01 3.485 -1 5 C-1.66 5 -2.32 5 -3 5 C-3 5.66 -3 6.32 -3 7 C-4.6396721 8.36639342 -6.31110128 9.6949419 -8 11 C-9.35147138 12.31494512 -10.69112542 13.64264858 -12 15 C-12.33 14.01 -12.66 13.02 -13 12 C-10.19195732 9.03595495 -7.81684226 6.55500981 -4 5 C-4 4.34 -4 3.68 -4 3 C-3.34 3 -2.68 3 -2 3 C-2 2.34 -2 1.68 -2 1 C-1.34 0.67 -0.68 0.34 0 0 Z " fill="#555023" transform="translate(106,86)"/>
<path d="M0 0 C3.86108345 0.68246753 6.82768052 2.46907957 10.1875 4.4375 C11.78658203 5.36369141 11.78658203 5.36369141 13.41796875 6.30859375 C16 8 16 8 17 10 C15.68 10 14.36 10 13 10 C13 9.34 13 8.68 13 8 C9.35206816 6.72746564 5.8063457 5.67170806 2 5 C2 4.01 2 3.02 2 2 C1.34 2 0.68 2 0 2 C0 1.34 0 0.68 0 0 Z " fill="#7C0808" transform="translate(350,57)"/>
<path d="M0 0 C4.41599467 0.58835857 8.15109365 1.70215899 12.25 3.4375 C13.28640625 3.86933594 14.3228125 4.30117187 15.390625 4.74609375 C18 6 18 6 20 8 C13.20623777 7.26553922 4.59716243 5.38129382 0 0 Z " fill="#D1BD45" transform="translate(120,204)"/>
<path d="M0 0 C2.64752004 2.57784846 4.94432065 4.91648098 7 8 C6.67 8.99 6.34 9.98 6 11 C2.13230615 9.71076872 1.25865172 8.38797758 -1 5 C-0.625 2.3125 -0.625 2.3125 0 0 Z " fill="#223D5F" transform="translate(185,173)"/>
<path d="M0 0 C1.13583456 3.71727674 0.66670026 5.47051709 -1 9 C-1.66 9 -2.32 9 -3 9 C-3 10.65 -3 12.3 -3 14 C-3.66 14 -4.32 14 -5 14 C-5.12375 14.94875 -5.2475 15.8975 -5.375 16.875 C-6 20 -6 20 -8 22 C-6.8348881 13.84421671 -3.75414819 7.2503778 0 0 Z " fill="#B7AB45" transform="translate(92,104)"/>
<path d="M0 0 C1.32 0.33 2.64 0.66 4 1 C4.103125 1.94875 4.20625 2.8975 4.3125 3.875 C4.68539295 7.29107501 4.68539295 7.29107501 8 9 C9.25 10.9375 9.25 10.9375 10 13 C9.67 13.99 9.34 14.98 9 16 C0 4.52427184 0 4.52427184 0 0 Z " fill="#1E3757" transform="translate(115,172)"/>
<path d="M0 0 C0.99 0.33 1.98 0.66 3 1 C3 1.66 3 2.32 3 3 C3.66 3 4.32 3 5 3 C5 3.66 5 4.32 5 5 C5.66 5 6.32 5 7 5 C12 10.47619048 12 10.47619048 12 13 C10.68 13 9.36 13 8 13 C8 11.68 8 10.36 8 9 C7.4225 8.773125 6.845 8.54625 6.25 8.3125 C3.40260191 6.65151778 1.87932807 4.68475439 0 2 C0 1.34 0 0.68 0 0 Z " fill="#830608" transform="translate(404,97)"/>
<path d="M0 0 C0.93423645 3.01031744 1.04449911 3.86650268 0 7 C-0.66 7 -1.32 7 -2 7 C-2 7.99 -2 8.98 -2 10 C-5.22791555 12.1519437 -6.28400809 12.20086443 -10 12 C-9.38382813 11.76410156 -8.76765625 11.52820313 -8.1328125 11.28515625 C-5.44283306 9.6642712 -4.98264784 8.33693111 -3.875 5.4375 C-2.19444444 1.09722222 -2.19444444 1.09722222 0 0 Z " fill="#A69F41" transform="translate(181,112)"/>
<path d="M0 0 C0.99 0.144375 1.98 0.28875 3 0.4375 C5.02207905 0.73221598 7.03803612 1.00401891 9.0703125 1.21875 C13.0300472 1.64031871 16.38754874 2.30666347 20 4 C20 4.66 20 5.32 20 6 C12.91296261 5.45484328 6.67203894 3.39081395 0 1 C0 0.67 0 0.34 0 0 Z " fill="#35484D" transform="translate(144,115)"/>
<path d="M0 0 C0.33 1.32 0.66 2.64 1 4 C1.99 4 2.98 4 4 4 C4 4.99 4 5.98 4 7 C2.35 7.33 0.7 7.66 -1 8 C-1.33 8.99 -1.66 9.98 -2 11 C-2.66 11 -3.32 11 -4 11 C-3.38461538 3.49230769 -3.38461538 3.49230769 -1.4375 1 C-0.963125 0.67 -0.48875 0.34 0 0 Z " fill="#E9C82E" transform="translate(96,99)"/>
<path d="M0 0 C4.63767704 0.4637677 7.984095 1.87139639 12.03125 4.01171875 C14.60193836 5.3021635 17.24922959 6.17476888 20 7 C15.9899944 8.61582535 13.32195519 7.28787304 9.4375 5.75 C7.73400391 5.09257812 7.73400391 5.09257812 5.99609375 4.421875 C3.3494604 3.16584561 1.83826685 2.22423747 0 0 Z " fill="#3D4A4B" transform="translate(142,203)"/>
<path d="M0 0 C1.32 0.33 2.64 0.66 4 1 C3.01 1.33 2.02 1.66 1 2 C0.566875 2.86625 0.566875 2.86625 0.125 3.75 C-1.39612622 6.79225245 -3.48713896 8.73842507 -6 11 C-6.66 11 -7.32 11 -8 11 C-8 11.66 -8 12.32 -8 13 C-8.66 13 -9.32 13 -10 13 C-8.95125002 10.37812506 -8.35068687 9.20628639 -5.875 7.75 C-5.25625 7.5025 -4.6375 7.255 -4 7 C-4 6.34 -4 5.68 -4 5 C-3.02149805 3.97895449 -2.02019573 2.9793879 -1 2 C-0.67 1.34 -0.34 0.68 0 0 Z " fill="#E5CA32" transform="translate(107,86)"/>
<path d="M0 0 C-1.62384142 1.14747465 -3.24911056 2.2929291 -4.875 3.4375 C-6.23238281 4.39462891 -6.23238281 4.39462891 -7.6171875 5.37109375 C-10 7 -10 7 -12 8 C-12.33 6.68 -12.66 5.36 -13 4 C-12.01 4 -11.02 4 -10 4 C-9.67 3.34 -9.34 2.68 -9 2 C-8.34 2.33 -7.68 2.66 -7 3 C-7 2.01 -7 1.02 -7 0 C-3.86650268 -1.04449911 -3.01031744 -0.93423645 0 0 Z " fill="#DDC439" transform="translate(145,78)"/>
<path d="M0 0 C0.33 1.32 0.66 2.64 1 4 C-2.51187196 6.40814077 -4.72656908 7.36629408 -9 7 C-6.19195732 4.03595495 -3.81684226 1.55500981 0 0 Z " fill="#0D234F" transform="translate(130,68)"/>
<path d="M0 0 C5.94 1.485 5.94 1.485 12 3 C11.67 3.99 11.34 4.98 11 6 C9.02 6.33 7.04 6.66 5 7 C5 6.01 5 5.02 5 4 C2.53673288 2.3553326 2.53673288 2.3553326 0 1 C0 0.67 0 0.34 0 0 Z " fill="#D4BF47" transform="translate(213,135)"/>
<path d="M0 0 C2 1 2 1 3 2 C4.99958364 2.04080783 7.00045254 2.04254356 9 2 C9 1.34 9 0.68 9 0 C10.65 0 12.3 0 14 0 C11.57190162 2.93927699 9.75776054 3.57298176 6 4 C3.66698014 4.03824623 1.33288492 4.04574284 -1 4 C-0.67 2.68 -0.34 1.36 0 0 Z " fill="#E0C233" transform="translate(151,163)"/>
<path d="M0 0 C0 3 0 6 0 9 C-0.639375 9.12375 -1.27875 9.2475 -1.9375 9.375 C-2.618125 9.58125 -3.29875 9.7875 -4 10 C-4.33 10.66 -4.66 11.32 -5 12 C-5.66 12 -6.32 12 -7 12 C-5.63855967 6.80177328 -3.53269829 3.90456127 0 0 Z " fill="#C6B241" transform="translate(158,149)"/>
<path d="M0 0 C0.99 0 1.98 0 3 0 C2.57405412 1.44096586 2.13373367 2.87768712 1.6875 4.3125 C1.44386719 5.11300781 1.20023437 5.91351563 0.94921875 6.73828125 C0 9 0 9 -3 12 C-2.67 8.7 -2.34 5.4 -2 2 C-1.34 2 -0.68 2 0 2 C0 1.34 0 0.68 0 0 Z " fill="#233647" transform="translate(91,100)"/>
<path d="M0 0 C0.66 0.33 1.32 0.66 2 1 C-1.625 4 -1.625 4 -5 4 C-5.66 5.32 -6.32 6.64 -7 8 C-8.32 8 -9.64 8 -11 8 C-11 7.34 -11 6.68 -11 6 C-9.35546875 4.74609375 -9.35546875 4.74609375 -7.1875 3.4375 C-6.47980469 3.00308594 -5.77210938 2.56867188 -5.04296875 2.12109375 C-3 1 -3 1 0 0 Z " fill="#2A3F55" transform="translate(150,75)"/>
<path d="M0 0 C2.74277578 3.19990508 4.6302836 6.00499382 6 10 C4.68 9.34 3.36 8.68 2 8 C1.67 8.66 1.34 9.32 1 10 C0.34 10 -0.32 10 -1 10 C-0.67 6.7 -0.34 3.4 0 0 Z " fill="#263D59" transform="translate(91,176)"/>
<path d="M0 0 C2.22023926 2.22023926 2.99988963 3.98529101 4.1875 6.875 C4.55230469 7.73867187 4.91710937 8.60234375 5.29296875 9.4921875 C6.04664008 12.16543056 5.9388856 13.42852989 5 16 C4.15787744 14.08717875 3.32661136 12.16957527 2.5 10.25 C2.0359375 9.18265625 1.571875 8.1153125 1.09375 7.015625 C0 4 0 4 0 0 Z " fill="#750707" transform="translate(450,165)"/>
<path d="M0 0 C1.37504799 2.75009598 0.6294275 3.96944052 -0.25 6.875 C-0.62898438 8.17050781 -0.62898438 8.17050781 -1.015625 9.4921875 C-2.02317157 12.05903233 -3.24900878 13.8850387 -5 16 C-4.39363767 10.23955788 -2.24341721 5.27985631 0 0 Z " fill="#35474B" transform="translate(115,108)"/>
<path d="M0 0 C0.66 0.33 1.32 0.66 2 1 C0.35 3.64 -1.3 6.28 -3 9 C-3.66 7.68 -4.32 6.36 -5 5 C-4 2 -4 2 -2.0625 0.75 C-1.381875 0.5025 -0.70125 0.255 0 0 Z " fill="#113161" transform="translate(189,97)"/>
<path d="M0 0 C2.5 1.375 2.5 1.375 5 3 C5 3.66 5 4.32 5 5 C5.66 5 6.32 5 7 5 C7 5.66 7 6.32 7 7 C7.66 7 8.32 7 9 7 C9 7.66 9 8.32 9 9 C8.01 9 7.02 9 6 9 C6 8.34 6 7.68 6 7 C5.38125 6.95875 4.7625 6.9175 4.125 6.875 C3.42375 6.58625 2.7225 6.2975 2 6 C0.75 2.9375 0.75 2.9375 0 0 Z " fill="#850707" transform="translate(393,86)"/>
<path d="M0 0 C2.72869407 0.03287583 5.2966618 0.56397771 8 1 C5.06171403 3.50298434 2.82097239 4.46930939 -1 5 C-1.33 4.01 -1.66 3.02 -2 2 C-1.34 1.34 -0.68 0.68 0 0 Z " fill="#E7C634" transform="translate(146,72)"/>
<path d="M0 0 C1.51953125 1.11328125 1.51953125 1.11328125 3 3 C3.07421875 5.91796875 3.07421875 5.91796875 2.6875 9.1875 C2.56761719 10.27417969 2.44773438 11.36085938 2.32421875 12.48046875 C2.21722656 13.31191406 2.11023438 14.14335938 2 15 C1.67 15 1.34 15 1 15 C1 11.7 1 8.4 1 5 C0.34 5 -0.32 5 -1 5 C-0.67 3.35 -0.34 1.7 0 0 Z " fill="#103066" transform="translate(193,90)"/>
<path d="M0 0 C1.96301592 3.50538557 2.95902388 7.13351728 4 11 C0.71211176 7.88983545 -1.83735988 4.98381075 -4 1 C-2.68 1.33 -1.36 1.66 0 2 C0 1.34 0 0.68 0 0 Z " fill="#E1C739" transform="translate(189,171)"/>
<path d="M0 0 C0.33 0 0.66 0 1 0 C1 2.31 1 4.62 1 7 C0.01 7.33 -0.98 7.66 -2 8 C-2.33 8.99 -2.66 9.98 -3 11 C-3.33 10.34 -3.66 9.68 -4 9 C-3.22265625 6.8359375 -3.22265625 6.8359375 -2.0625 4.375 C-1.68222656 3.55773437 -1.30195312 2.74046875 -0.91015625 1.8984375 C-0.60980469 1.27195313 -0.30945312 0.64546875 0 0 Z " fill="#091F57" transform="translate(51,161)"/>
<path d="M0 0 C2.66666667 2.66666667 5.33333333 5.33333333 8 8 C7.67 8.66 7.34 9.32 7 10 C5.02 9.34 3.04 8.68 1 8 C1.020625 7.236875 1.04125 6.47375 1.0625 5.6875 C1.12942841 2.89814214 1.12942841 2.89814214 0 0 Z " fill="#233C57" transform="translate(151,129)"/>
<path d="M0 0 C3.0831351 1.19899698 6.06279492 2.47700477 9 4 C9 4.33 9 4.66 9 5 C3.25 5.125 3.25 5.125 1 4 C0.375 1.9375 0.375 1.9375 0 0 Z " fill="#2D4357" transform="translate(118,204)"/>
<path d="M0 0 C1.44096586 0.42594588 2.87768712 0.86626633 4.3125 1.3125 C5.11300781 1.55613281 5.91351563 1.79976562 6.73828125 2.05078125 C9.09964573 3.04182023 10.33879993 4.08074943 12 6 C10.35 6 8.7 6 7 6 C7 5.34 7 4.68 7 4 C6.21625 3.896875 5.4325 3.79375 4.625 3.6875 C2 3 2 3 0 0 Z " fill="#D5C04D" transform="translate(149,207)"/>
<path d="M0 0 C1 3 1 3 1 7 C-3.875 5.25 -3.875 5.25 -5 3 C-3.68 3 -2.36 3 -1 3 C-0.67 2.01 -0.34 1.02 0 0 Z " fill="#223B62" transform="translate(139,194)"/>
<path d="M0 0 C0.33 0.66 0.66 1.32 1 2 C0.67 2.99 0.34 3.98 0 5 C0.66 5.33 1.32 5.66 2 6 C0.02 6.66 -1.96 7.32 -4 8 C-1.125 1.125 -1.125 1.125 0 0 Z " fill="#B5AB55" transform="translate(148,164)"/>
<path d="M0 0 C0.66 0 1.32 0 2 0 C2.33 1.65 2.66 3.3 3 5 C3.66 5 4.32 5 5 5 C5 6.98 5 8.96 5 11 C2.03947516 7.63576723 1.07710178 4.30840713 0 0 Z " fill="#243D55" transform="translate(110,161)"/>
<path d="M0 0 C1.24546405 2.49092811 0.7767578 3.41080733 0 6 C-0.66 6 -1.32 6 -2 6 C-2.33 6.99 -2.66 7.98 -3 9 C-3.66 9 -4.32 9 -5 9 C-3.7508258 5.54074837 -2.32472205 2.85306797 0 0 Z " fill="#A99E45" transform="translate(187,103)"/>
<path d="M0 0 C3.63 0.66 7.26 1.32 11 2 C10.01 2.66 9.02 3.32 8 4 C4.375 3.25 4.375 3.25 1 2 C0.67 1.34 0.34 0.68 0 0 Z " fill="#091C4D" transform="translate(306,40)"/>
<path d="M0 0 C3.48331435 3.01887244 4.79157144 5.56909529 6 10 C5.34 10 4.68 10 4 10 C3.67 8.35 3.34 6.7 3 5 C2.01 4.67 1.02 4.34 0 4 C0 2.68 0 1.36 0 0 Z " fill="#720606" transform="translate(435,136)"/>
<path d="M0 0 C1.98 1.65 3.96 3.3 6 5 C2.25 6.125 2.25 6.125 0 5 C0 3.35 0 1.7 0 0 Z " fill="#2E4159" transform="translate(103,192)"/>
<path d="M0 0 C1.98 0 3.96 0 6 0 C2.79663178 2.83374881 0.21912747 3.5205537 -4 4 C-4 3.34 -4 2.68 -4 2 C-2.68 2 -1.36 2 0 2 C0 1.34 0 0.68 0 0 Z " fill="#C0AE46" transform="translate(200,147)"/>
<path d="M0 0 C0.66 0.66 1.32 1.32 2 2 C1.67 2.99 1.34 3.98 1 5 C-0.32 4.67 -1.64 4.34 -3 4 C-2.67 3.34 -2.34 2.68 -2 2 C-2.99 1.67 -3.98 1.34 -5 1 C-2.625 0.375 -2.625 0.375 0 0 Z " fill="#2E4761" transform="translate(227,136)"/>
<path d="M0 0 C0.33 0 0.66 0 1 0 C1 2.31 1 4.62 1 7 C0.67 6.34 0.34 5.68 0 5 C-1.98 5.99 -1.98 5.99 -4 7 C-2.92598892 4.08482708 -2.22189824 2.22189824 0 0 Z " fill="#BEB44C" transform="translate(192,96)"/>
<path d="M0 0 C0.66 0.33 1.32 0.66 2 1 C0.9375 2.5 0.9375 2.5 -1 4 C-4.6875 4.1875 -4.6875 4.1875 -8 4 C-5.31143836 2.20762558 -3.0466145 1.01553817 0 0 Z " fill="#092055" transform="translate(170,47)"/>
<path d="M0 0 C3.08089673 2.77280706 4.68775452 5.06326356 6 9 C5.01 8.34 4.02 7.68 3 7 C3 6.34 3 5.68 3 5 C2.01 4.67 1.02 4.34 0 4 C0 2.68 0 1.36 0 0 Z " fill="#7A070A" transform="translate(420,114)"/>
<path d="M0 0 C5.75 1.75 5.75 1.75 8 4 C6 5 6 5 2.875 4.0625 C1.92625 3.711875 0.9775 3.36125 0 3 C0 2.01 0 1.02 0 0 Z " fill="#850807" transform="translate(336,50)"/>
</svg>
