<?xml version="1.0" encoding="UTF-8"?>
<svg version="1.1" xmlns="http://www.w3.org/2000/svg" width="500" height="500">
<path d="M0 0 C2.04865952 0.00535725 4.09709903 0.0000169 6.14575195 -0.00634766 C18.08488299 -0.01413259 29.96435083 0.34328898 41.67895508 2.81787109 C42.51700684 2.99229736 43.35505859 3.16672363 44.21850586 3.34643555 C78.05834856 10.62297612 108.33912384 24.53043886 136.11645508 45.13037109 C136.85951904 45.64535156 137.60258301 46.16033203 138.36816406 46.69091797 C138.9451001 47.1659375 139.52203613 47.64095703 140.11645508 48.13037109 C140.11645508 48.79037109 140.11645508 49.45037109 140.11645508 50.13037109 C140.73520508 50.43974609 141.35395508 50.74912109 141.99145508 51.06787109 C143.36645508 51.75537109 144.74145508 52.44287109 146.11645508 53.13037109 C146.11645508 53.79037109 146.11645508 54.45037109 146.11645508 55.13037109 C146.70072266 55.39011719 147.28499023 55.64986328 147.88696289 55.91748047 C150.27206672 57.2150271 151.86836145 58.62378232 153.78833008 60.53662109 C154.45219727 61.19791016 155.11606445 61.85919922 155.80004883 62.54052734 C156.48196289 63.23017578 157.16387695 63.91982422 157.86645508 64.63037109 C158.9125293 65.66484375 158.9125293 65.66484375 159.97973633 66.72021484 C160.63844727 67.38150391 161.2971582 68.04279297 161.97583008 68.72412109 C162.57878906 69.32933594 163.18174805 69.93455078 163.80297852 70.55810547 C165.11645508 72.13037109 165.11645508 72.13037109 165.11645508 74.13037109 C165.77645508 74.13037109 166.43645508 74.13037109 167.11645508 74.13037109 C170.11645508 77.59190956 170.11645508 77.59190956 170.11645508 80.13037109 C170.77645508 80.13037109 171.43645508 80.13037109 172.11645508 80.13037109 C173.37817383 81.51293945 173.37817383 81.51293945 174.80395508 83.47021484 C175.33279297 84.1945874 175.86163086 84.91895996 176.40649414 85.6652832 C176.97078125 86.45813721 177.53506836 87.25099121 178.11645508 88.06787109 C178.98995605 89.29098999 178.98995605 89.29098999 179.88110352 90.53881836 C193.72457381 110.18327162 203.80356457 131.2663338 211.11645508 154.13037109 C211.70040039 155.94601563 211.70040039 155.94601563 212.29614258 157.79833984 C214.32889817 164.51903953 215.87942188 171.32212391 217.30395508 178.19287109 C217.55471802 179.37913086 217.55471802 179.37913086 217.81054688 180.58935547 C220.15959769 192.43021749 220.28034565 204.38105107 220.24682617 216.40551758 C220.24145377 218.69342648 220.24681379 220.98113987 220.25317383 223.26904297 C220.2599807 234.85473031 219.77940895 246.18735114 217.42895508 257.56787109 C217.16949097 258.8341333 217.16949097 258.8341333 216.90478516 260.12597656 C209.90130459 293.14977672 196.69297633 323.11554614 176.40161133 350.08349609 C174.91935276 352.05984085 173.48680361 354.0748483 172.11645508 356.13037109 C171.45645508 356.13037109 170.79645508 356.13037109 170.11645508 356.13037109 C169.65239258 357.05849609 169.65239258 357.05849609 169.17895508 358.00537109 C168.49145508 359.38037109 167.80395508 360.75537109 167.11645508 362.13037109 C166.45645508 362.13037109 165.79645508 362.13037109 165.11645508 362.13037109 C164.85670898 362.71463867 164.59696289 363.29890625 164.3293457 363.90087891 C163.03179907 366.28598274 161.62304385 367.88227746 159.71020508 369.80224609 C159.04891602 370.46611328 158.38762695 371.12998047 157.70629883 371.81396484 C157.01665039 372.49587891 156.32700195 373.17779297 155.61645508 373.88037109 C154.58198242 374.92644531 154.58198242 374.92644531 153.52661133 375.99365234 C152.86532227 376.65236328 152.2040332 377.31107422 151.52270508 377.98974609 C150.91749023 378.59270508 150.31227539 379.19566406 149.6887207 379.81689453 C148.11645508 381.13037109 148.11645508 381.13037109 146.11645508 381.13037109 C146.11645508 381.79037109 146.11645508 382.45037109 146.11645508 383.13037109 C142.65491662 386.13037109 142.65491662 386.13037109 140.11645508 386.13037109 C140.11645508 386.79037109 140.11645508 387.45037109 140.11645508 388.13037109 C138.765625 389.3762207 138.765625 389.3762207 136.84692383 390.78271484 C136.13270264 391.30647705 135.41848145 391.83023926 134.68261719 392.36987305 C133.89765869 392.9302124 133.1127002 393.49055176 132.30395508 394.06787109 C131.49514893 394.64690186 130.68634277 395.22593262 129.85302734 395.82250977 C103.17077102 414.61605428 73.62309613 426.82645284 41.74145508 433.38037109 C40.95802734 433.54359863 40.17459961 433.70682617 39.36743164 433.875 C27.96771176 436.1115936 16.54431586 436.29291246 4.97167969 436.26074219 C2.68588608 436.25538733 0.4002896 436.26071797 -1.88549805 436.26708984 C-15.34432422 436.27636841 -28.1941526 435.39652748 -41.38354492 432.50537109 C-42.59896973 432.24030762 -43.81439453 431.97524414 -45.06665039 431.70214844 C-76.4570915 424.62702602 -104.88616365 410.89904235 -130.67651367 391.75927734 C-132.37871046 390.50296573 -134.12325353 389.30389869 -135.88354492 388.13037109 C-135.88354492 387.47037109 -135.88354492 386.81037109 -135.88354492 386.13037109 C-136.50229492 385.82099609 -137.12104492 385.51162109 -137.75854492 385.19287109 C-139.13354492 384.50537109 -140.50854492 383.81787109 -141.88354492 383.13037109 C-141.88354492 382.47037109 -141.88354492 381.81037109 -141.88354492 381.13037109 C-142.4678125 380.870625 -143.05208008 380.61087891 -143.65405273 380.34326172 C-146.03915656 379.04571509 -147.63545129 377.63695987 -149.55541992 375.72412109 C-150.21928711 375.06283203 -150.8831543 374.40154297 -151.56713867 373.72021484 C-152.59000977 372.68574219 -152.59000977 372.68574219 -153.63354492 371.63037109 C-154.67961914 370.59589844 -154.67961914 370.59589844 -155.74682617 369.54052734 C-156.40553711 368.87923828 -157.06424805 368.21794922 -157.74291992 367.53662109 C-158.34587891 366.93140625 -158.94883789 366.32619141 -159.57006836 365.70263672 C-160.88354492 364.13037109 -160.88354492 364.13037109 -160.88354492 362.13037109 C-161.54354492 362.13037109 -162.20354492 362.13037109 -162.88354492 362.13037109 C-165.88354492 358.66883263 -165.88354492 358.66883263 -165.88354492 356.13037109 C-166.54354492 356.13037109 -167.20354492 356.13037109 -167.88354492 356.13037109 C-169.14526367 354.74780273 -169.14526367 354.74780273 -170.57104492 352.79052734 C-171.36430176 351.70396851 -171.36430176 351.70396851 -172.17358398 350.59545898 C-173.02001465 349.40617798 -173.02001465 349.40617798 -173.88354492 348.19287109 C-174.46587891 347.3774585 -175.04821289 346.5620459 -175.64819336 345.72192383 C-189.49499077 326.07274925 -199.55637209 304.99395692 -206.88354492 282.13037109 C-207.2728418 280.93154297 -207.66213867 279.73271484 -208.06323242 278.49755859 C-210.16457134 271.60712168 -211.68271403 264.63008619 -213.07104492 257.56787109 C-213.23822021 256.7294165 -213.40539551 255.89096191 -213.57763672 255.02709961 C-215.74275975 243.48758507 -216.05008509 231.90510892 -216.01391602 220.19189453 C-216.00854982 218.13224941 -216.01390374 216.07282224 -216.02026367 214.01318359 C-216.02790886 202.24627227 -215.47049032 190.69194396 -213.19604492 179.13037109 C-212.93331787 177.79389526 -212.93331787 177.79389526 -212.6652832 176.43041992 C-205.84990152 143.00217617 -191.80398909 112.67973728 -171.51245117 85.33740234 C-170.25613956 83.63520555 -169.05707251 81.89066248 -167.88354492 80.13037109 C-167.22354492 80.13037109 -166.56354492 80.13037109 -165.88354492 80.13037109 C-165.57416992 79.51162109 -165.26479492 78.89287109 -164.94604492 78.25537109 C-164.25854492 76.88037109 -163.57104492 75.50537109 -162.88354492 74.13037109 C-162.22354492 74.13037109 -161.56354492 74.13037109 -160.88354492 74.13037109 C-160.62379883 73.54610352 -160.36405273 72.96183594 -160.09643555 72.35986328 C-158.79888892 69.97475945 -157.3901337 68.37846473 -155.47729492 66.45849609 C-154.48536133 65.46269531 -154.48536133 65.46269531 -153.47338867 64.44677734 C-152.78374023 63.76486328 -152.0940918 63.08294922 -151.38354492 62.38037109 C-150.69389648 61.68298828 -150.00424805 60.98560547 -149.29370117 60.26708984 C-148.63241211 59.60837891 -147.97112305 58.94966797 -147.28979492 58.27099609 C-146.68458008 57.66803711 -146.07936523 57.06507812 -145.45581055 56.44384766 C-143.88354492 55.13037109 -143.88354492 55.13037109 -141.88354492 55.13037109 C-141.88354492 54.47037109 -141.88354492 53.81037109 -141.88354492 53.13037109 C-138.42200646 50.13037109 -138.42200646 50.13037109 -135.88354492 50.13037109 C-135.88354492 49.47037109 -135.88354492 48.81037109 -135.88354492 48.13037109 C-134.53271484 46.88452148 -134.53271484 46.88452148 -132.61401367 45.47802734 C-131.89979248 44.95426514 -131.18557129 44.43050293 -130.44970703 43.89086914 C-129.27226929 43.05036011 -129.27226929 43.05036011 -128.07104492 42.19287109 C-127.26223877 41.61384033 -126.45343262 41.03480957 -125.62011719 40.43823242 C-105.9027922 26.55041048 -84.77795917 16.52603862 -61.88354492 9.13037109 C-60.68213867 8.73978516 -59.48073242 8.34919922 -58.24291992 7.94677734 C-51.3544193 5.84921258 -44.38043187 4.33064602 -37.32104492 2.94287109 C-36.48259033 2.7756958 -35.64413574 2.60852051 -34.78027344 2.4362793 C-23.25910622 0.27459872 -11.69468356 -0.03621939 0 0 Z " fill="#FED001" transform="translate(247.883544921875,31.86962890625)"/>
<path d="M0 0 C2.04865952 0.00535725 4.09709903 0.0000169 6.14575195 -0.00634766 C18.20684564 -0.01430281 30.15545397 0.40538941 41.99145508 2.88037109 C42.74813477 3.02474609 43.50481445 3.16912109 44.28442383 3.31787109 C52.49673308 4.98452633 59.99637216 7.59284518 68.11645508 10.13037109 C68.11645508 78.77037109 68.11645508 147.41037109 68.11645508 218.13037109 C-25.27354492 218.13037109 -118.66354492 218.13037109 -214.88354492 218.13037109 C-214.88354492 183.82481554 -214.88354492 183.82481554 -210.88354492 168.13037109 C-210.67987305 167.2916748 -210.47620117 166.45297852 -210.26635742 165.58886719 C-203.04779404 136.2523137 -189.45236005 109.51097653 -171.51245117 85.33740234 C-170.25613956 83.63520555 -169.05707251 81.89066248 -167.88354492 80.13037109 C-167.22354492 80.13037109 -166.56354492 80.13037109 -165.88354492 80.13037109 C-165.57416992 79.51162109 -165.26479492 78.89287109 -164.94604492 78.25537109 C-164.25854492 76.88037109 -163.57104492 75.50537109 -162.88354492 74.13037109 C-162.22354492 74.13037109 -161.56354492 74.13037109 -160.88354492 74.13037109 C-160.62379883 73.54610352 -160.36405273 72.96183594 -160.09643555 72.35986328 C-158.79888892 69.97475945 -157.3901337 68.37846473 -155.47729492 66.45849609 C-154.48536133 65.46269531 -154.48536133 65.46269531 -153.47338867 64.44677734 C-152.78374023 63.76486328 -152.0940918 63.08294922 -151.38354492 62.38037109 C-150.69389648 61.68298828 -150.00424805 60.98560547 -149.29370117 60.26708984 C-148.63241211 59.60837891 -147.97112305 58.94966797 -147.28979492 58.27099609 C-146.68458008 57.66803711 -146.07936523 57.06507812 -145.45581055 56.44384766 C-143.88354492 55.13037109 -143.88354492 55.13037109 -141.88354492 55.13037109 C-141.88354492 54.47037109 -141.88354492 53.81037109 -141.88354492 53.13037109 C-138.42200646 50.13037109 -138.42200646 50.13037109 -135.88354492 50.13037109 C-135.88354492 49.47037109 -135.88354492 48.81037109 -135.88354492 48.13037109 C-134.53271484 46.88452148 -134.53271484 46.88452148 -132.61401367 45.47802734 C-131.89979248 44.95426514 -131.18557129 44.43050293 -130.44970703 43.89086914 C-129.27226929 43.05036011 -129.27226929 43.05036011 -128.07104492 42.19287109 C-127.26223877 41.61384033 -126.45343262 41.03480957 -125.62011719 40.43823242 C-105.9027922 26.55041048 -84.77795917 16.52603862 -61.88354492 9.13037109 C-60.68213867 8.73978516 -59.48073242 8.34919922 -58.24291992 7.94677734 C-51.3544193 5.84921258 -44.38043187 4.33064602 -37.32104492 2.94287109 C-36.48259033 2.7756958 -35.64413574 2.60852051 -34.78027344 2.4362793 C-23.25910622 0.27459872 -11.69468356 -0.03621939 0 0 Z " fill="#DC2410" transform="translate(247.883544921875,31.86962890625)"/>
<path d="M0 0 C1.83542713 1.10873691 3.64748375 2.25685098 5.4375 3.4375 C8.16566212 5.23428387 10.82366886 6.91233537 13.75 8.3671875 C18.16017323 10.58287549 22.34137878 13.13376554 26.5625 15.6875 C27.44856934 16.22133301 28.33463867 16.75516602 29.24755859 17.30517578 C35.2472146 20.92503731 41.2232856 24.58134768 47.18359375 28.265625 C50.59238893 30.36479984 54.02132069 32.4285022 57.45825195 34.48120117 C59.87219857 35.9236334 62.28417764 37.36927984 64.6953125 38.81640625 C65.56792725 39.34008789 66.44054199 39.86376953 67.33959961 40.40332031 C68.21753174 40.93022461 69.09546387 41.45712891 70 42 C71.60805872 42.96486741 73.21613131 43.92971171 74.82421875 44.89453125 C149.86328125 89.91796875 149.86328125 89.91796875 152.41601562 91.44970703 C154.13465068 92.48082311 155.85340017 93.51174851 157.57226562 94.54248047 C161.4818512 96.88718004 165.39015186 99.23389174 169.29296875 101.58984375 C177.01666182 106.25454851 177.01666182 106.25454851 184.875 110.6875 C188.60049308 112.72401021 192.09909645 115.01103739 195.61328125 117.390625 C201.87532512 121.61314885 208.12158026 125.69989804 214.94140625 128.9609375 C219.09076262 131.05529954 223.13154858 133.42367477 227 136 C227 136.33 227 136.66 227 137 C133.94 137 40.88 137 -55 137 C-55 102.69444444 -55 102.69444444 -51 87 C-50.79632813 86.16130371 -50.59265625 85.32260742 -50.3828125 84.45849609 C-43.16424912 55.12194261 -29.56881513 28.38060544 -11.62890625 4.20703125 C-10.37259464 2.50483446 -9.17352759 0.76029139 -8 -1 C-4.27799828 -2.24066724 -3.46116698 -1.66686539 0 0 Z " fill="#020101" transform="translate(88,113)"/>
<path d="M0 0 C2.04865952 0.00535725 4.09709903 0.0000169 6.14575195 -0.00634766 C18.20684564 -0.01430281 30.15545397 0.40538941 41.99145508 2.88037109 C43.12647461 3.09693359 43.12647461 3.09693359 44.28442383 3.31787109 C52.49673308 4.98452633 59.99637216 7.59284518 68.11645508 10.13037109 C68.11645508 78.77037109 68.11645508 147.41037109 68.11645508 218.13037109 C65.47645508 216.81037109 62.83645508 215.49037109 60.11645508 214.13037109 C63.11645508 212.13037109 63.11645508 212.13037109 66.11645508 212.13037109 C65.78645508 146.13037109 65.45645508 80.13037109 65.11645508 12.13037109 C57.28734618 9.72141451 50.07493422 7.51717044 42.11645508 6.13037109 C40.13707877 5.77737796 38.15791311 5.4232017 36.17895508 5.06787109 C35.28305664 4.91189453 34.3871582 4.75591797 33.46411133 4.59521484 C31.11645508 4.13037109 31.11645508 4.13037109 28.11645508 3.13037109 C17.54233454 1.43032198 6.60098931 2.01925762 -4.07104492 2.06787109 C-5.99617397 2.07289585 -7.92130428 2.07745703 -9.84643555 2.08154297 C-14.52550376 2.09247195 -19.2045101 2.10968289 -23.88354492 2.13037109 C-23.88354492 2.79037109 -23.88354492 3.45037109 -23.88354492 4.13037109 C-24.9225293 4.32373047 -25.96151367 4.51708984 -27.03198242 4.71630859 C-28.03841797 4.90422974 -28.03841797 4.90422974 -29.06518555 5.09594727 C-30.53509222 5.37032766 -32.00514622 5.6439199 -33.4753418 5.91674805 C-37.45923771 6.65999253 -41.42348951 7.4551004 -45.38354492 8.31787109 C-49.62510839 9.18775106 -53.56100676 9.2904651 -57.88354492 9.13037109 C-54.51202037 6.88268806 -51.32181896 6.06126147 -47.44604492 5.13037109 C-46.72956787 4.95594482 -46.01309082 4.78151855 -45.27490234 4.60180664 C-30.26872863 1.02061669 -15.40484359 -0.04771006 0 0 Z " fill="#DA4A02" transform="translate(247.883544921875,31.86962890625)"/>
<path d="M0 0 C0.33 0 0.66 0 1 0 C1 5.28 1 10.56 1 16 C94.06 16 187.12 16 283 16 C283 16.33 283 16.66 283 17 C190.6 17 98.2 17 3 17 C1.33612009 30.17184535 1.33612009 30.17184535 5 41 C5.16225859 43.75238641 5.27970047 46.4952046 5.375 49.25 C5.67180325 56.18252504 6.54270978 62.57977502 8.37890625 69.30078125 C8.99249996 71.96740548 9.11416016 74.27504672 9 77 C6.66005344 73.49008017 5.90950386 70.11003489 5 66.0625 C4.82557373 65.29905273 4.65114746 64.53560547 4.47143555 63.74902344 C0.83445277 47.56878591 -0.16151493 31.71552054 -0.0625 15.1875 C-0.05746824 13.70507966 -0.05290834 12.22265764 -0.04882812 10.74023438 C-0.0379707 7.1601205 -0.02080135 3.58007157 0 0 Z " fill="#DBBB23" transform="translate(32,234)"/>
<path d="M0 0 C11.25 3.375 11.25 3.375 15.1328125 5.04296875 C16.3703125 5.56987305 16.3703125 5.56987305 17.6328125 6.10742188 C18.45523437 6.46384766 19.27765625 6.82027344 20.125 7.1875 C21.41664063 7.73954102 21.41664063 7.73954102 22.734375 8.30273438 C24.82501656 9.19706438 26.91345163 10.09617176 29 11 C25.30581799 12.231394 22.7943739 11.64432764 19 11 C19 10.34 19 9.68 19 9 C17.35 9 15.7 9 14 9 C14 8.34 14 7.68 14 7 C12.35 6.67 10.7 6.34 9 6 C9 5.34 9 4.68 9 4 C6.36 3.67 3.72 3.34 1 3 C1 70.65 1 138.3 1 208 C0.67 208 0.34 208 0 208 C0 139.36 0 70.72 0 0 Z " fill="#FEC41A" transform="translate(316,42)"/>
<path d="M0 0 C-3.54281256 2.36187504 -6.97557205 3.09101009 -11.0625 4 C-11.83327881 4.17515137 -12.60405762 4.35030273 -13.39819336 4.53076172 C-15.59734994 5.02727829 -17.79840857 5.51441733 -20 6 C-20.9178125 6.20882813 -21.835625 6.41765625 -22.78125 6.6328125 C-35.59964781 9.39842573 -48.37510647 10.31582255 -61.4465332 10.20581055 C-63.69689239 10.18742326 -65.94683855 10.18530298 -68.19726562 10.18554688 C-80.59260878 10.15733193 -92.65961297 9.56089209 -104.8125 6.9375 C-105.70775391 6.75123047 -106.60300781 6.56496094 -107.52539062 6.37304688 C-109.68523125 5.92259883 -111.84324485 5.46495441 -114 5 C-114 4.67 -114 4.34 -114 4 C-106.25 3.875 -106.25 3.875 -104 5 C-96.38891308 6.22769003 -88.66343578 6.16057888 -80.9765625 6.16796875 C-79.7539975 6.17129715 -78.5314325 6.17462555 -77.27182007 6.17805481 C-74.69846978 6.18309327 -72.12511303 6.18546409 -69.55175781 6.18530273 C-65.64376945 6.1874895 -61.73606358 6.20567938 -57.828125 6.22460938 C-55.31510512 6.227544 -52.80208392 6.22952833 -50.2890625 6.23046875 C-49.13556305 6.23765427 -47.9820636 6.24483978 -46.79360962 6.25224304 C-34.6769752 6.82703188 -34.6769752 6.82703188 -24 3 C-16.21084549 0.72890256 -8.08954546 -0.08605899 0 0 Z " fill="#D2BC53" transform="translate(314,458)"/>
<path d="M0 0 C2.04865952 0.00535725 4.09709903 0.0000169 6.14575195 -0.00634766 C18.20271156 -0.01430008 30.16135069 0.39008234 41.99145508 2.88037109 C42.82644531 3.05084961 43.66143555 3.22132812 44.52172852 3.39697266 C52.56134057 5.10382535 60.34302195 7.48132405 68.11645508 10.13037109 C67.78645508 10.79037109 67.45645508 11.45037109 67.11645508 12.13037109 C66.1496582 11.86482422 65.18286133 11.59927734 64.18676758 11.32568359 C55.89030437 9.06670327 47.63481196 7.11709716 39.16723633 5.60302734 C38.18110352 5.42642578 37.1949707 5.24982422 36.17895508 5.06787109 C35.28305664 4.91189453 34.3871582 4.75591797 33.46411133 4.59521484 C31.11645508 4.13037109 31.11645508 4.13037109 28.11645508 3.13037109 C17.54233454 1.43032198 6.60098931 2.01925762 -4.07104492 2.06787109 C-5.99617397 2.07289585 -7.92130428 2.07745703 -9.84643555 2.08154297 C-14.52550376 2.09247195 -19.2045101 2.10968289 -23.88354492 2.13037109 C-23.88354492 2.79037109 -23.88354492 3.45037109 -23.88354492 4.13037109 C-24.9225293 4.32373047 -25.96151367 4.51708984 -27.03198242 4.71630859 C-28.03841797 4.90422974 -28.03841797 4.90422974 -29.06518555 5.09594727 C-30.53509222 5.37032766 -32.00514622 5.6439199 -33.4753418 5.91674805 C-37.45923771 6.65999253 -41.42348951 7.4551004 -45.38354492 8.31787109 C-49.62510839 9.18775106 -53.56100676 9.2904651 -57.88354492 9.13037109 C-54.51202037 6.88268806 -51.32181896 6.06126147 -47.44604492 5.13037109 C-46.72956787 4.95594482 -46.01309082 4.78151855 -45.27490234 4.60180664 C-30.26872863 1.02061669 -15.40484359 -0.04771006 0 0 Z " fill="#C88E87" transform="translate(247.883544921875,31.86962890625)"/>
<path d="M0 0 C2.6439571 3.96593565 3.1604566 7.74473921 4.0625 12.375 C4.23587891 13.20644531 4.40925781 14.03789062 4.58789062 14.89453125 C6.98038758 26.93951592 7.16447115 39.04240859 7.13037109 51.27514648 C7.1249987 53.56305539 7.13035871 55.85076878 7.13671875 58.13867188 C7.15108212 81.27337682 7.15108212 81.27337682 4 86 C4.00444122 85.3287207 4.00888245 84.65744141 4.01345825 83.96582031 C4.05782289 76.95754126 4.08792094 69.94930233 4.10986328 62.94091797 C4.11989948 60.32794575 4.13353136 57.71498469 4.15087891 55.10205078 C4.17523163 51.33883908 4.18650721 47.57577633 4.1953125 43.8125 C4.20563507 42.65073242 4.21595764 41.48896484 4.22659302 40.29199219 C4.22744035 34.11892399 3.70800654 28.92282117 2 23 C1.7373681 21.06882798 1.52172935 19.1303118 1.3671875 17.1875 C1.28339844 16.17558594 1.19960938 15.16367188 1.11328125 14.12109375 C1.03464844 13.09113281 0.95601563 12.06117188 0.875 11 C0.78863281 9.93910156 0.70226562 8.87820312 0.61328125 7.78515625 C0.40290531 5.19051971 0.1986266 2.5955579 0 0 Z " fill="#C8B767" transform="translate(461,197)"/>
<path d="M0 0 C0.33 0 0.66 0 1 0 C1.06058594 1.14339844 1.12117188 2.28679687 1.18359375 3.46484375 C1.26798428 4.95574305 1.35263302 6.44662775 1.4375 7.9375 C1.47681641 8.69224609 1.51613281 9.44699219 1.55664062 10.22460938 C1.44038024 13.91944187 1.44038024 13.91944187 3 17 C3.14530987 18.69428307 3.22716523 20.39410742 3.28125 22.09375 C3.31863281 23.12371094 3.35601562 24.15367187 3.39453125 25.21484375 C3.46484375 27.40494792 3.53515625 29.59505208 3.60546875 31.78515625 C3.64285156 32.81511719 3.68023437 33.84507812 3.71875 34.90625 C3.74904297 35.85822266 3.77933594 36.81019531 3.81054688 37.79101562 C3.75885402 39.97355315 3.75885402 39.97355315 5 41 C5.16225859 43.75238641 5.27970047 46.4952046 5.375 49.25 C5.67180325 56.18252504 6.54270978 62.57977502 8.37890625 69.30078125 C8.99249996 71.96740548 9.11416016 74.27504672 9 77 C6.66005344 73.49008017 5.90950386 70.11003489 5 66.0625 C4.82557373 65.29905273 4.65114746 64.53560547 4.47143555 63.74902344 C0.83445277 47.56878591 -0.16151493 31.71552054 -0.0625 15.1875 C-0.05746824 13.70507966 -0.05290834 12.22265764 -0.04882812 10.74023438 C-0.0379707 7.1601205 -0.02080135 3.58007157 0 0 Z " fill="#D1BC55" transform="translate(32,234)"/>
<path d="M0 0 C2 1 4 2 6 3 C6 3.66 6 4.32 6 5 C6.58426758 5.25974609 7.16853516 5.51949219 7.77050781 5.78710938 C10.15561164 7.084656 11.75190637 8.49341122 13.671875 10.40625 C14.33574219 11.06753906 14.99960937 11.72882813 15.68359375 12.41015625 C16.36550781 13.09980469 17.04742187 13.78945312 17.75 14.5 C18.44738281 15.18964844 19.14476562 15.87929687 19.86328125 16.58984375 C20.52199219 17.25113281 21.18070312 17.91242188 21.859375 18.59375 C22.46233398 19.19896484 23.06529297 19.80417969 23.68652344 20.42773438 C25 22 25 22 25 24 C25.66 24 26.32 24 27 24 C30 27.46153846 30 27.46153846 30 30 C30.66 30 31.32 30 32 30 C33.35693359 31.55712891 33.35693359 31.55712891 34.8984375 33.7265625 C35.46046875 34.51160156 36.0225 35.29664063 36.6015625 36.10546875 C37.47941406 37.35263672 37.47941406 37.35263672 38.375 38.625 C38.9525 39.43324219 39.53 40.24148437 40.125 41.07421875 C41.2502329 42.65416905 42.36861613 44.23902407 43.47949219 45.82910156 C44.41844392 47.16968583 45.36980908 48.50178756 46.34082031 49.81933594 C47.4765625 51.3984375 47.4765625 51.3984375 49 54 C48.67 54.99 48.34 55.98 48 57 C47.01216806 55.92456217 46.03506057 54.83926783 45.0625 53.75 C44.51722656 53.14671875 43.97195313 52.5434375 43.41015625 51.921875 C41.91903906 49.88965989 41.57663178 48.41495359 41 46 C40.21625 45.21625 39.4325 44.4325 38.625 43.625 C35.87890297 40.87890297 34.72097311 38.44194623 33 35 C31.35259924 33.3142876 29.68933922 31.6436814 28 30 C28 29.34 28 28.68 28 28 C27.34 28 26.68 28 26 28 C24.09988302 26.43033815 22.98885346 24.97949768 21.80859375 22.80859375 C19.45388235 19.15192529 16.58569903 16.2946476 13.5 13.25 C12.91863281 12.66089844 12.33726562 12.07179688 11.73828125 11.46484375 C11.17496094 10.90410156 10.61164063 10.34335938 10.03125 9.765625 C9.52142578 9.25805664 9.01160156 8.75048828 8.48632812 8.22753906 C6.89842356 6.76598097 6.89842356 6.76598097 4 6 C2.60287726 4.04402816 1.26220093 2.04563599 0 0 Z " fill="#D1BB5A" transform="translate(388,82)"/>
<path d="M0 0 C3.37462715 0.54723683 5.08235 1.0549 8 3 C8 3.66 8 4.32 8 5 C8.99 5.33 9.98 5.66 11 6 C11.7115625 6.95132812 11.7115625 6.95132812 12.4375 7.921875 C14.15891396 10.21135557 15.45510557 10.99626525 18 12.25 C32.43575419 19.87150838 32.43575419 19.87150838 35 25 C36.64142963 26.0409066 38.30712215 27.04504326 40 28 C30.88360751 28 21.57245373 18.43064942 14.57470703 13.1574707 C13.08177251 12.06010596 11.54166657 11.02777771 10 10 C10 9.34 10 8.68 10 8 C9.38125 7.690625 8.7625 7.38125 8.125 7.0625 C6.75 6.375 5.375 5.6875 4 5 C4 4.34 4 3.68 4 3 C2.68 2.34 1.36 1.68 0 1 C0 0.67 0 0.34 0 0 Z " fill="#D7BC4D" transform="translate(102,410)"/>
<path d="M0 0 C-28.09003215 21 -28.09003215 21 -39 21 C-38.814375 20.38125 -38.62875 19.7625 -38.4375 19.125 C-37.76313824 16.95839822 -37.76313824 16.95839822 -39 15 C-37.7625 15.12375 -36.525 15.2475 -35.25 15.375 C-28.03968579 15.40928042 -21.40131184 11.59119203 -15.76953125 7.30078125 C-14 6 -14 6 -12 6 C-11.34 4.68 -10.68 3.36 -10 2 C-9.01 2 -8.02 2 -7 2 C-7 1.34 -7 0.68 -7 0 C-2.25 -1.125 -2.25 -1.125 0 0 Z " fill="#C8B55E" transform="translate(375,429)"/>
<path d="M0 0 C5.37221205 -0.49974066 6.90554841 0.72443873 11 4 C13.86040969 5.14088076 16.74220407 6.12247779 19.671875 7.0703125 C22 8 22 8 23 10 C25.13585917 11.06536328 25.13585917 11.06536328 27.6875 12 C28.59113281 12.34933594 29.49476563 12.69867188 30.42578125 13.05859375 C32.3910355 13.77729826 34.3790239 14.43413715 36.375 15.0625 C39.04490971 16.01603918 40.84656698 17.17786437 43 19 C31.39608338 16.96422515 20.75017444 11.9924742 10.25 6.8125 C9.5705835 6.47976074 8.89116699 6.14702148 8.19116211 5.80419922 C5.02942884 4.20789874 2.28359084 2.75223821 0 0 Z " fill="#D4BD4E" transform="translate(142,439)"/>
<path d="M0 0 C0.33 0 0.66 0 1 0 C1.24006003 6.17095485 0.44496426 11.41866499 -1.125 17.375 C-1.34583252 18.23335449 -1.56666504 19.09170898 -1.79418945 19.97607422 C-3.40395063 26.0870076 -5.21423503 32.12201724 -7.1875 38.125 C-7.43709473 38.8886084 -7.68668945 39.6522168 -7.94384766 40.43896484 C-9.74736647 45.74736647 -9.74736647 45.74736647 -12 48 C-11.88590407 46.54077307 -11.75834456 45.08259402 -11.625 43.625 C-11.55539062 42.81289063 -11.48578125 42.00078125 -11.4140625 41.1640625 C-11 39 -11 39 -9 37 C-8.59106354 34.86728277 -8.26905431 32.71733679 -8 30.5625 C-7.22008253 24.3301238 -7.22008253 24.3301238 -5 21 C-4.61500109 19.34450469 -4.27206865 17.6777567 -4 16 C-3.34 16 -2.68 16 -2 16 C-2.02320313 15.43152344 -2.04640625 14.86304688 -2.0703125 14.27734375 C-2.19191688 9.07441352 -1.67723492 4.92687757 0 0 Z " fill="#E0C53C" transform="translate(464,283)"/>
<path d="M0 0 C3.34373475 0.55728913 6.03312999 1.35173889 9 3 C9 3.66 9 4.32 9 5 C10.051875 5.1546875 10.051875 5.1546875 11.125 5.3125 C14.39137647 6.09359003 17.0471852 7.42058743 20 9 C20 9.66 20 10.32 20 11 C20.556875 11.12375 21.11375 11.2475 21.6875 11.375 C24.22114364 12.05976855 26.57921032 12.99133763 29 14 C29 14.99 29 15.98 29 17 C29.99 17 30.98 17 32 17 C32.495 18.485 32.495 18.485 33 20 C28.96532167 18.53352098 25.51140295 16.58636867 21.875 14.3125 C21.03110718 13.7872876 21.03110718 13.7872876 20.17016602 13.25146484 C15.53321015 10.35833816 10.92939627 7.41299308 6.33984375 4.4453125 C4.26855462 3.16588516 2.19677923 2.04511899 0 1 C0 0.67 0 0.34 0 0 Z " fill="#B32618" transform="translate(183,170)"/>
<path d="M0 0 C12.30251968 -1.12523046 25.70861547 2.03828277 37 7 C36.67 7.66 36.34 8.32 36 9 C35.03320312 8.73445313 34.06640625 8.46890625 33.0703125 8.1953125 C25.75212167 6.20269846 18.46960528 4.34500931 11 3 C9.99195313 2.814375 8.98390625 2.62875 7.9453125 2.4375 C5.29788433 1.95247499 2.64951193 1.47348692 0 1 C0 0.67 0 0.34 0 0 Z " fill="#C16055" transform="translate(279,35)"/>
<path d="M0 0 C-3.02959703 2.01973136 -4.32158226 2.36959001 -7.81640625 2.81640625 C-8.74517578 2.94080078 -9.67394531 3.06519531 -10.63085938 3.19335938 C-12.08202148 3.37608398 -12.08202148 3.37608398 -13.5625 3.5625 C-15.48086883 3.81072954 -17.39886157 4.06188851 -19.31640625 4.31640625 C-20.59173218 4.47798218 -20.59173218 4.47798218 -21.89282227 4.64282227 C-24.04883657 4.90298237 -24.04883657 4.90298237 -26 6 C-28.6723621 6.13415472 -31.32250488 6.04318541 -34 6 C-24.33011429 -0.44659047 -11.20416325 -0.57952569 0 0 Z " fill="#C2564A" transform="translate(224,35)"/>
<path d="M0 0 C-1.07401108 2.91517292 -1.77810176 4.77810176 -4 7 C-5.5159375 7.495 -5.5159375 7.495 -7.0625 8 C-10.12150806 8.65752556 -10.12150806 8.65752556 -11 11 C-12.99541868 11.68025637 -14.99617991 12.34490497 -17 13 C-18.69207001 13.9563874 -20.36816893 14.94410931 -22 16 C-22 15.34 -22 14.68 -22 14 C-20.37939453 12.59545898 -20.37939453 12.59545898 -18.1328125 10.99609375 C-17.32972656 10.42052734 -16.52664062 9.84496094 -15.69921875 9.25195312 C-14.84972656 8.65318359 -14.00023438 8.05441406 -13.125 7.4375 C-12.28324219 6.83486328 -11.44148438 6.23222656 -10.57421875 5.61132812 C-2.70198513 0 -2.70198513 0 0 0 Z " fill="#C8655A" transform="translate(134,66)"/>
<path d="M0 0 C-1.38685223 3.1195572 -3.00189491 5.25855799 -5.40625 7.671875 C-6.06753906 8.33574219 -6.72882813 8.99960937 -7.41015625 9.68359375 C-8.09980469 10.36550781 -8.78945313 11.04742187 -9.5 11.75 C-10.18964844 12.44738281 -10.87929688 13.14476562 -11.58984375 13.86328125 C-12.25113281 14.52199219 -12.91242188 15.18070312 -13.59375 15.859375 C-14.19896484 16.46233398 -14.80417969 17.06529297 -15.42773438 17.68652344 C-17 19 -17 19 -19 19 C-19 19.66 -19 20.32 -19 21 C-20.32 21.33 -21.64 21.66 -23 22 C-21.5834979 18.5767866 -19.93172851 17.17515341 -17 15 C-16.67 14.01 -16.34 13.02 -16 12 C-14.3364521 11.32558869 -12.66933058 10.6599679 -11 10 C-8.28411465 7.66132095 -7.14339427 6.43018282 -6 3 C-2.55555556 0 -2.55555556 0 0 0 Z " fill="#CCBA5A" transform="translate(413,394)"/>
<path d="M0 0 C5.37431777 0.94988219 10.14486298 2.90388835 15.1875 4.9375 C16.10208984 5.29779297 17.01667969 5.65808594 17.95898438 6.02929688 C19.26899414 6.55426758 19.26899414 6.55426758 20.60546875 7.08984375 C21.40106201 7.40816162 22.19665527 7.72647949 23.01635742 8.05444336 C25 9 25 9 27 11 C23.7 10.67 20.4 10.34 17 10 C17 9.34 17 8.68 17 8 C15.35 8 13.7 8 12 8 C12 7.34 12 6.68 12 6 C10.35 5.67 8.7 5.34 7 5 C7 4.34 7 3.68 7 3 C5.824375 2.814375 5.824375 2.814375 4.625 2.625 C2 2 2 2 0 0 Z " fill="#D3BB4B" transform="translate(318,43)"/>
<path d="M0 0 C3.50355245 3.50355245 4.83132441 8.40177572 6.6875 12.9375 C7.11611328 13.95263672 7.54472656 14.96777344 7.98632812 16.01367188 C8.38658203 16.98755859 8.78683594 17.96144531 9.19921875 18.96484375 C9.56877686 19.8580835 9.93833496 20.75132324 10.3190918 21.67163086 C11 24 11 24 10 27 C7.42853943 24.42853943 7.19882003 22.3949583 6.375 18.875 C6.11460937 17.77929688 5.85421875 16.68359375 5.5859375 15.5546875 C5.29589844 14.29011719 5.29589844 14.29011719 5 13 C4.34 13 3.68 13 3 13 C0.78145293 8.37802694 -0.38281159 5.23175837 0 0 Z " fill="#CAB75B" transform="translate(446,155)"/>
<path d="M0 0 C0 0.66 0 1.32 0 2 C-0.99 2 -1.98 2 -3 2 C-3.33 2.99 -3.66 3.98 -4 5 C-4.66 5 -5.32 5 -6 5 C-6 5.66 -6 6.32 -6 7 C-11 8.66666667 -16 10.33333333 -21 12 C-18.23097155 8.75073415 -14.61429667 6.91724922 -10.9375 4.875 C-10.30005859 4.51535156 -9.66261719 4.15570313 -9.00585938 3.78515625 C-2.27905548 0 -2.27905548 0 0 0 Z " fill="#C66960" transform="translate(155,54)"/>
<path d="M0 0 C0.66 0 1.32 0 2 0 C3.5078125 1.6796875 3.5078125 1.6796875 5.125 3.875 C5.66382812 4.59429687 6.20265625 5.31359375 6.7578125 6.0546875 C8 8 8 8 8 10 C8.66 10 9.32 10 10 10 C10 10.99 10 11.98 10 13 C10.66 13 11.32 13 12 13 C12.268125 13.639375 12.53625 14.27875 12.8125 14.9375 C13.88667752 17.33131686 13.88667752 17.33131686 17 18 C17.33 19.65 17.66 21.3 18 23 C17.34 23 16.68 23 16 23 C16 22.34 16 21.68 16 21 C15.34 21 14.68 21 14 21 C12.59545898 19.39526367 12.59545898 19.39526367 10.99609375 17.16796875 C10.42052734 16.36939453 9.84496094 15.57082031 9.25195312 14.74804688 C8.35379883 13.48057617 8.35379883 13.48057617 7.4375 12.1875 C6.83486328 11.35412109 6.23222656 10.52074219 5.61132812 9.66210938 C1.13643973 3.4093192 1.13643973 3.4093192 0 0 Z " fill="#CDBA59" transform="translate(66,367)"/>
<path d="M0 0 C2.37426733 3.56140099 2.92246243 6.86692433 3.625 11 C3.75688721 11.75659912 3.88877441 12.51319824 4.0246582 13.29272461 C4.99985437 19.22395971 5.35054952 24.98872485 5 31 C4.67 31 4.34 31 4 31 C2.09915768 24.35503862 1.40022215 17.87954915 0.875 11 C0.78863281 9.93910156 0.70226562 8.87820312 0.61328125 7.78515625 C0.40290531 5.19051971 0.1986266 2.5955579 0 0 Z " fill="#D6BC4C" transform="translate(461,197)"/>
<path d="M0 0 C1.32 0 2.64 0 4 0 C4 0.66 4 1.32 4 2 C4.94875 2.309375 5.8975 2.61875 6.875 2.9375 C10 4 10 4 12 5 C12 5.66 12 6.32 12 7 C13.09054688 7.17402344 13.09054688 7.17402344 14.203125 7.3515625 C17.06193993 8.01436037 19.19014155 8.95762871 21.75 10.375 C22.91789062 11.00535156 22.91789062 11.00535156 24.109375 11.6484375 C26 13 26 13 27 16 C22.87282934 14.54335153 19.61920511 12.43742385 16 10 C15.0925 9.54625 14.185 9.0925 13.25 8.625 C8.68937558 6.34468779 4.25700596 3.80996046 0 1 C0 0.67 0 0.34 0 0 Z " fill="#AE261A" transform="translate(86,112)"/>
<path d="M0 0 C-2.41664028 0.97556995 -4.83524848 1.94545974 -7.2578125 2.90625 C-8.94584226 3.57953822 -10.62932603 4.26453026 -12.3046875 4.96875 C-16.01384955 6.4804085 -18.1802416 7.23679402 -22 6 C-19 4 -19 4 -16 4 C-16 3.34 -16 2.68 -16 2 C-14.02 2 -12.04 2 -10 2 C-10 1.34 -10 0.68 -10 0 C-3.375 -1.125 -3.375 -1.125 0 0 Z " fill="#E0C53B" transform="translate(336,451)"/>
<path d="M0 0 C-0.66 0 -1.32 0 -2 0 C-2.33 0.99 -2.66 1.98 -3 3 C-8.68336965 6.01929013 -15.73278688 6.78699101 -22 8 C-18.51943035 5.0446314 -14.63590813 3.41802715 -10.4375 1.75 C-9.76525391 1.46898437 -9.09300781 1.18796875 -8.40039062 0.8984375 C-3.36507154 -1.12169051 -3.36507154 -1.12169051 0 0 Z " fill="#C7625A" transform="translate(177,46)"/>
<path d="M0 0 C3.53360517 0.61097986 6.63248844 1.55388537 9.9375 2.9375 C12.74558895 4.09745353 15.47305307 5.14892412 18.375 6.0625 C21.04490971 7.01603918 22.84656698 8.17786437 25 10 C19.03822173 8.95407399 13.61081771 7.21868068 8 5 C7.3289624 4.73880371 6.6579248 4.47760742 5.96655273 4.20849609 C1.12376909 2.24753818 1.12376909 2.24753818 0 0 Z " fill="#D0BB67" transform="translate(160,448)"/>
<path d="M0 0 C-3.33992588 2.22661725 -5.31214152 2.48716262 -9.25 3 C-14.66183714 3.75668232 -14.66183714 3.75668232 -19.9375 5.125 C-23.10403075 6.02972307 -25.72493652 6.15975919 -29 6 C-28.360625 5.690625 -27.72125 5.38125 -27.0625 5.0625 C-25.06389179 4.1654837 -25.06389179 4.1654837 -24 3 C-16.21084549 0.72890256 -8.08954546 -0.08605899 0 0 Z " fill="#EACA30" transform="translate(314,458)"/>
<path d="M0 0 C0.33 0 0.66 0 1 0 C1.21908649 6.02487844 0.49398047 11.17549506 -1 17 C-1.28617187 18.16208984 -1.28617187 18.16208984 -1.578125 19.34765625 C-2.04384543 21.23382399 -2.52074817 23.11722494 -3 25 C-3.33 25 -3.66 25 -4 25 C-4 22.03 -4 19.06 -4 16 C-3.34 16 -2.68 16 -2 16 C-2.02320313 15.43152344 -2.04640625 14.86304688 -2.0703125 14.27734375 C-2.19191688 9.07441352 -1.67723492 4.92687757 0 0 Z " fill="#CEB954" transform="translate(464,283)"/>
<path d="M0 0 C4.15151338 1.44202476 7.29978445 3.5010438 10.8125 6.125 C11.78832031 6.84945312 12.76414062 7.57390625 13.76953125 8.3203125 C14.50558594 8.87460938 15.24164063 9.42890625 16 10 C15.01 10.33 14.02 10.66 13 11 C11.32012773 9.68334336 9.65533995 8.34736973 8 7 C6.4221875 6.5359375 6.4221875 6.5359375 4.8125 6.0625 C2 5 2 5 0.625 2.375 C0.41875 1.59125 0.2125 0.8075 0 0 Z " fill="#D5C34D" transform="translate(362,63)"/>
<path d="M0 0 C1.32 0 2.64 0 4 0 C4.433125 0.45375 4.86625 0.9075 5.3125 1.375 C7.8230828 3.79259825 10.6763314 4.18476053 14 5 C14 5.66 14 6.32 14 7 C14.66 7 15.32 7 16 7 C16.33 8.32 16.66 9.64 17 11 C14.72565347 9.73513885 12.45561255 8.46345297 10.1875 7.1875 C9.54490234 6.83107422 8.90230469 6.47464844 8.24023438 6.10742188 C5.13461565 4.3534714 2.32540905 2.74035193 0 0 Z " fill="#B1251A" transform="translate(230,198)"/>
<path d="M0 0 C0 3.73864842 -0.85962891 4.23642706 -3.375 6.875 C-6.02703781 9.77884746 -7.9147864 12.14146274 -9 16 C-10.32 16 -11.64 16 -13 16 C-12 14 -11 12 -10 10 C-9.34 10 -8.68 10 -8 10 C-7.79375 9.46375 -7.5875 8.9275 -7.375 8.375 C-5.42003056 4.9982346 -2.81776305 2.69525161 0 0 Z " fill="#BD726B" transform="translate(95,96)"/>
<path d="M0 0 C3.37462715 0.54723683 5.08235 1.0549 8 3 C8 3.66 8 4.32 8 5 C8.99 5.33 9.98 5.66 11 6 C11.33 6.99 11.66 7.98 12 9 C11.01 9.495 11.01 9.495 10 10 C10 9.34 10 8.68 10 8 C9.38125 7.690625 8.7625 7.38125 8.125 7.0625 C6.75 6.375 5.375 5.6875 4 5 C4 4.34 4 3.68 4 3 C2.68 2.34 1.36 1.68 0 1 C0 0.67 0 0.34 0 0 Z " fill="#DDC54C" transform="translate(102,410)"/>
<path d="M0 0 C0.70125 0.144375 1.4025 0.28875 2.125 0.4375 C5.07556141 1.01478375 8.03270151 1.51695141 11 2 C11 2.66 11 3.32 11 4 C11.99 4.66 12.98 5.32 14 6 C14 6.66 14 7.32 14 8 C8.76481294 6.56032356 4.36973991 4.18303389 0 1 C0 0.67 0 0.34 0 0 Z " fill="#B7271A" transform="translate(151,151)"/>
<path d="M0 0 C0.66 0.33 1.32 0.66 2 1 C-0.69528673 4.69354107 -3.08979114 6.71109725 -7 9 C-8.7041054 10.62836738 -10.38025441 12.28769752 -12 14 C-12.66 13.67 -13.32 13.34 -14 13 C-12.71451591 11.66070495 -11.42141845 10.32871357 -10.125 9 C-9.04605469 7.88625 -9.04605469 7.88625 -7.9453125 6.75 C-6 5 -6 5 -4 5 C-4 4.34 -4 3.68 -4 3 C-2 1.375 -2 1.375 0 0 Z " fill="#C07168" transform="translate(110,82)"/>
<path d="M0 0 C-1.43160268 1.00842453 -2.87051453 2.00647891 -4.3125 3 C-5.51326172 3.8353125 -5.51326172 3.8353125 -6.73828125 4.6875 C-9 6 -9 6 -12 6 C-11.34 4.68 -10.68 3.36 -10 2 C-9.01 2 -8.02 2 -7 2 C-7 1.34 -7 0.68 -7 0 C-2.25 -1.125 -2.25 -1.125 0 0 Z " fill="#DEC43B" transform="translate(375,429)"/>
<path d="M0 0 C0.33 0.66 0.66 1.32 1 2 C-0.07421875 4.390625 -0.07421875 4.390625 -1.6875 7.25 C-2.24050781 8.23097656 -2.79351562 9.21195312 -3.36328125 10.22265625 C-5.13975212 13.23714501 -6.98891648 16.13807346 -9 19 C-9.33 18.01 -9.66 17.02 -10 16 C-8.86168879 14.32601292 -7.70990354 12.65903349 -6.48046875 11.05078125 C-3.96955294 7.57259972 -2.01452211 3.78044363 0 0 Z " fill="#C7B366" transform="translate(444,347)"/>
<path d="M0 0 C3.33511388 2.9901021 5.21521119 5.89498574 7 10 C7 10.66 7 11.32 7 12 C6.01 12 5.02 12 4 12 C3.32332002 10.75539217 2.65905281 9.50403104 2 8.25 C1.62875 7.55390625 1.2575 6.8578125 0.875 6.140625 C0 4 0 4 0 0 Z " fill="#D4BD4C" transform="translate(437,139)"/>
<path d="M0 0 C2.97 0.33 5.94 0.66 9 1 C9 1.66 9 2.32 9 3 C3.375 6 3.375 6 0 6 C0.185625 5.38125 0.37125 4.7625 0.5625 4.125 C1.23686176 1.95839822 1.23686176 1.95839822 0 0 Z " fill="#DAC03F" transform="translate(336,444)"/>
<path d="M0 0 C0.99 0 1.98 0 3 0 C2.4409112 3.24271506 1.5867822 4.93057424 -1 7 C-1.66 7 -2.32 7 -3 7 C-3 7.66 -3 8.32 -3 9 C-4.32 9.33 -5.64 9.66 -7 10 C-5.5834979 6.5767866 -3.93172851 5.17515341 -1 3 C-0.67 2.01 -0.34 1.02 0 0 Z " fill="#D8C152" transform="translate(397,406)"/>
<path d="M0 0 C-1.07401108 2.91517292 -1.77810176 4.77810176 -4 7 C-6.625 6.625 -6.625 6.625 -9 6 C-3.15384615 0 -3.15384615 0 0 0 Z " fill="#C95446" transform="translate(134,66)"/>
<path d="M0 0 C2.97 0.495 2.97 0.495 6 1 C6 1.66 6 2.32 6 3 C6.7425 3.28875 7.485 3.5775 8.25 3.875 C10.56739797 4.82302644 12.77917115 5.84845911 15 7 C14.67 7.66 14.34 8.32 14 9 C7.07 5.04 7.07 5.04 0 1 C0 0.67 0 0.34 0 0 Z " fill="#B02919" transform="translate(113,128)"/>
<path d="M0 0 C1 3 1 3 0.25 5.0625 C-1 7 -1 7 -4 9 C-3.34 9.66 -2.68 10.32 -2 11 C-3.32 11 -4.64 11 -6 11 C-5.55530671 5.96014269 -3.28656638 3.62365012 0 0 Z " fill="#CE2A18" transform="translate(92,101)"/>
<path d="M0 0 C0 0.66 0 1.32 0 2 C-4.49656104 4.24828052 -8.07872966 4.16682272 -13 4 C-9.4281377 0.4281377 -4.89813766 0 0 0 Z " fill="#C35F57" transform="translate(190,41)"/>
<path d="M0 0 C3.21561653 3.21561653 3.97094793 5.12843777 4.125 9.75 C4.08375 10.8225 4.0425 11.895 4 13 C0.25474201 9.25474201 0.31090051 5.01729091 0 0 Z " fill="#DFC24C" transform="translate(446,155)"/>
<path d="M0 0 C1.65 0 3.3 0 5 0 C5.33 0.99 5.66 1.98 6 3 C7.65 3.33 9.3 3.66 11 4 C11.33 4.99 11.66 5.98 12 7 C7.69235185 5.43358249 3.93828536 3.31663844 0 1 C0 0.67 0 0.34 0 0 Z " fill="#B4241A" transform="translate(128,137)"/>
<path d="M0 0 C0 0.66 0 1.32 0 2 C-0.99 2 -1.98 2 -3 2 C-3.33 2.99 -3.66 3.98 -4 5 C-4.66 5 -5.32 5 -6 5 C-6 5.66 -6 6.32 -6 7 C-7.65 7 -9.3 7 -11 7 C-10.01 6.67 -9.02 6.34 -8 6 C-8 5.01 -8 4.02 -8 3 C-2.25 0 -2.25 0 0 0 Z " fill="#C75548" transform="translate(155,54)"/>
<path d="M0 0 C1.48206495 0.254496 2.96068615 0.52911762 4.4375 0.8125 C5.67306641 1.03873047 5.67306641 1.03873047 6.93359375 1.26953125 C7.95646484 1.63111328 7.95646484 1.63111328 9 2 C9.33 2.99 9.66 3.98 10 5 C10.66 5 11.32 5 12 5 C12 5.66 12 6.32 12 7 C8 5 4 3 0 1 C0 0.67 0 0.34 0 0 Z " fill="#AF2619" transform="translate(296,238)"/>
<path d="M0 0 C1.98 0 3.96 0 6 0 C5.67 0.99 5.34 1.98 5 3 C6.65 3.33 8.3 3.66 10 4 C10.33 4.99 10.66 5.98 11 7 C6.89188572 5.55007731 3.53144334 3.54592427 0 1 C0 0.67 0 0.34 0 0 Z " fill="#B42518" transform="translate(282,229)"/>
<path d="M0 0 C0.33 0 0.66 0 1 0 C1 2.31 1 4.62 1 7 C-1.31 6.01 -3.62 5.02 -6 4 C-3 2 -3 2 0 2 C0 1.34 0 0.68 0 0 Z " fill="#C12A0C" transform="translate(314,242)"/>
<path d="M0 0 C1.23593891 3.70781672 0.5678132 4.67510253 -0.9375 8.1875 C-1.31777344 9.08855469 -1.69804687 9.98960937 -2.08984375 10.91796875 C-2.54037109 11.94857422 -2.54037109 11.94857422 -3 13 C-4.32757546 9.01727361 -3.3296542 6.9189808 -2 3 C-1.34 2.01 -0.68 1.02 0 0 Z " fill="#CBB856" transform="translate(456,318)"/>
<path d="M0 0 C3.78383679 0.92493788 5.56693694 1.39371171 7.875 4.625 C8.431875 5.800625 8.431875 5.800625 9 7 C4.58110387 5.64978174 2.65654657 3.73884332 0 0 Z " fill="#CBB95E" transform="translate(113,419)"/>
<path d="M0 0 C3.59391114 1.33488128 6.75490696 2.96022723 10 5 C9.01 5.495 9.01 5.495 8 6 C4.4375 4.75 4.4375 4.75 1 3 C0.67 2.01 0.34 1.02 0 0 Z " fill="#2D0201" transform="translate(273,225)"/>
<path d="M0 0 C4.87362847 0.45336079 7.39042389 1.7089159 11 5 C10.01 5.495 10.01 5.495 9 6 C6.8359375 5.00390625 6.8359375 5.00390625 4.375 3.5625 C3.55773437 3.08941406 2.74046875 2.61632812 1.8984375 2.12890625 C1.27195312 1.75636719 0.64546875 1.38382813 0 1 C0 0.67 0 0.34 0 0 Z " fill="#B22619" transform="translate(256,214)"/>
<path d="M0 0 C1.48253267 0.61697319 2.96095174 1.24383896 4.4375 1.875 C5.67306641 2.39707031 5.67306641 2.39707031 6.93359375 2.9296875 C9 4 9 4 10 6 C7.33333333 5.33333333 4.66666667 4.66666667 2 4 C2 3.34 2 2.68 2 2 C1.34 2 0.68 2 0 2 C0 1.34 0 0.68 0 0 Z " fill="#2C0100" transform="translate(96,119)"/>
<path d="M0 0 C-1.24420647 0.5345256 -2.49570936 1.05208611 -3.75 1.5625 C-4.44609375 1.85253906 -5.1421875 2.14257812 -5.859375 2.44140625 C-8.30012784 3.07831803 -9.6403655 2.80248831 -12 2 C-7.75950782 -0.82699479 -4.85416215 -1.37070821 0 0 Z " fill="#CEB856" transform="translate(326,455)"/>
<path d="M0 0 C1.32 0 2.64 0 4 0 C4 0.99 4 1.98 4 3 C4.99 3 5.98 3 7 3 C7.33 3.99 7.66 4.98 8 6 C5.0280615 4.87548273 2.66559313 3.77706209 0 2 C0 1.34 0 0.68 0 0 Z " fill="#AB2217" transform="translate(208,184)"/>
<path d="M0 0 C0.66 0.33 1.32 0.66 2 1 C0.4169423 5.2742558 -2.50568404 7.26531794 -6 10 C-4.6302836 6.00499382 -2.74277578 3.19990508 0 0 Z " fill="#818182" transform="translate(80,112)"/>
<path d="M0 0 C3.14624993 -0.26218749 4.61837017 -0.24754367 7.3125 1.5 C8.1478125 2.2425 8.1478125 2.2425 9 3 C2.25 3.125 2.25 3.125 0 2 C0 1.34 0 0.68 0 0 Z " fill="#E1C63C" transform="translate(155,445)"/>
<path d="M0 0 C1.14926266 0.95421808 2.29430541 1.91352045 3.4375 2.875 C4.07558594 3.40867187 4.71367187 3.94234375 5.37109375 4.4921875 C7 6 7 6 8 8 C5.6875 7.8125 5.6875 7.8125 3 7 C0 2.96551724 0 2.96551724 0 0 Z " fill="#F5D119" transform="translate(399,93)"/>
<path d="M0 0 C0 0.99 0 1.98 0 3 C0.66 3 1.32 3 2 3 C2 3.66 2 4.32 2 5 C-0.02045442 4.39816251 -2.02111039 3.72693904 -4 3 C-4.33 2.34 -4.66 1.68 -5 1 C-2 0 -2 0 0 0 Z " fill="#B12413" transform="translate(228,193)"/>
</svg>
