<?xml version="1.0" encoding="UTF-8"?>
<svg version="1.1" xmlns="http://www.w3.org/2000/svg" width="500" height="500">
<path d="M0 0 C2.12320052 0.00537581 4.24619044 0.00000555 6.36938477 -0.00634766 C19.5459915 -0.01608809 32.10239383 0.9197054 44.99633789 3.75537109 C46.20700928 4.01970947 47.41768066 4.28404785 48.66503906 4.55639648 C64.56592271 8.1341737 80.08069086 12.66665843 94.6159668 20.13525391 C96.76706971 21.23702514 98.93427236 22.30350118 101.10180664 23.37255859 C111.63241435 28.65447562 121.25071315 34.72395328 130.69360352 41.76171875 C131.97885926 42.70480039 133.28094869 43.62522123 134.59594727 44.52636719 C136.28241098 45.68211075 137.92528659 46.90097562 139.55883789 48.13037109 C139.55883789 48.79037109 139.55883789 49.45037109 139.55883789 50.13037109 C140.1015332 50.35595703 140.64422852 50.58154297 141.20336914 50.81396484 C144.27546732 52.53087543 146.69756852 54.79990743 149.24633789 57.19287109 C149.77235596 57.68166748 150.29837402 58.17046387 150.84033203 58.67407227 C164.48619318 71.42138938 164.48619318 71.42138938 169.55883789 78.13037109 C169.55883789 78.79037109 169.55883789 79.45037109 169.55883789 80.13037109 C170.21883789 80.13037109 170.87883789 80.13037109 171.55883789 80.13037109 C172.82055664 81.51293945 172.82055664 81.51293945 174.24633789 83.47021484 C174.77517578 84.1945874 175.30401367 84.91895996 175.84887695 85.6652832 C176.41316406 86.45813721 176.97745117 87.25099121 177.55883789 88.06787109 C178.43233887 89.29098999 178.43233887 89.29098999 179.32348633 90.53881836 C192.53449479 109.28578229 202.38433416 129.37392147 209.55883789 151.13037109 C209.85274414 151.94248047 210.14665039 152.75458984 210.44946289 153.59130859 C217.8062144 174.01803354 219.79108821 195.83466706 219.80883789 217.38037109 C219.80951263 218.12337463 219.81018738 218.86637817 219.81088257 219.63189697 C219.74416571 266.22021652 204.79746891 310.41618908 177.55883789 348.13037109 C176.58817383 349.50515625 176.58817383 349.50515625 175.59790039 350.90771484 C174.31132376 352.69323217 172.94662192 354.42232921 171.55883789 356.13037109 C170.89883789 356.13037109 170.23883789 356.13037109 169.55883789 356.13037109 C169.09477539 357.05849609 169.09477539 357.05849609 168.62133789 358.00537109 C167.93383789 359.38037109 167.24633789 360.75537109 166.55883789 362.13037109 C165.89883789 362.13037109 165.23883789 362.13037109 164.55883789 362.13037109 C164.30666504 362.70779053 164.05449219 363.28520996 163.79467773 363.88012695 C162.40545211 366.40965927 160.83078272 368.10132228 158.78540039 370.13427734 C158.04290039 370.87484375 157.30040039 371.61541016 156.53540039 372.37841797 C155.75938477 373.1421875 154.98336914 373.90595703 154.18383789 374.69287109 C153.41555664 375.46050781 152.64727539 376.22814453 151.85571289 377.01904297 C142.67289222 386.13037109 142.67289222 386.13037109 139.55883789 386.13037109 C139.55883789 386.79037109 139.55883789 387.45037109 139.55883789 388.13037109 C138.20800781 389.3762207 138.20800781 389.3762207 136.28930664 390.78271484 C135.21845825 391.56811646 135.21845825 391.56811646 134.12597656 392.36938477 C133.3406958 392.92988525 132.55541504 393.49038574 131.74633789 394.06787109 C130.93463135 394.64835205 130.1229248 395.22883301 129.28662109 395.8269043 C107.91325331 410.86940043 84.71341728 422.08182803 59.55883789 429.13037109 C58.79635742 429.34419434 58.03387695 429.55801758 57.24829102 429.77832031 C38.59062757 434.91211136 20.25892387 436.20403679 0.99633789 436.25537109 C-0.21022461 436.26004395 -1.41678711 436.2647168 -2.65991211 436.26953125 C-14.3843245 436.24884485 -25.98467634 435.73257421 -37.50366211 433.44287109 C-38.39013428 433.26771973 -39.27660645 433.09256836 -40.18994141 432.91210938 C-68.24361262 427.16423815 -97.92211249 416.83712836 -120.79663086 399.14990234 C-122.83295185 397.5948389 -124.87071422 396.13584171 -126.99194336 394.70458984 C-127.89807373 394.09272827 -127.89807373 394.09272827 -128.82250977 393.46850586 C-130.00531937 392.67405048 -131.19109824 391.88399391 -132.38012695 391.09887695 C-133.76871422 390.15899148 -135.11022802 389.15026017 -136.44116211 388.13037109 C-136.44116211 387.47037109 -136.44116211 386.81037109 -136.44116211 386.13037109 C-137.00706055 385.88158203 -137.57295898 385.63279297 -138.15600586 385.37646484 C-148.46374085 379.75566576 -159.46247524 367.51550171 -166.44116211 358.13037109 C-166.44116211 357.47037109 -166.44116211 356.81037109 -166.44116211 356.13037109 C-167.10116211 356.13037109 -167.76116211 356.13037109 -168.44116211 356.13037109 C-169.70288086 354.74780273 -169.70288086 354.74780273 -171.12866211 352.79052734 C-171.92191895 351.70396851 -171.92191895 351.70396851 -172.73120117 350.59545898 C-173.57763184 349.40617798 -173.57763184 349.40617798 -174.44116211 348.19287109 C-175.02349609 347.3774585 -175.60583008 346.5620459 -176.20581055 345.72192383 C-190.05593651 326.06802591 -200.09966033 304.99347478 -207.44116211 282.13037109 C-207.83045898 280.94314453 -208.21975586 279.75591797 -208.62084961 278.53271484 C-210.79196474 271.4723831 -212.2731525 264.32055252 -213.62866211 257.06787109 C-213.7958374 256.18180176 -213.9630127 255.29573242 -214.13525391 254.3828125 C-216.31925439 242.11145274 -216.64686995 229.82055361 -216.62866211 217.38037109 C-216.6283902 216.67726807 -216.62811829 215.97416504 -216.62783813 215.24975586 C-216.60917655 204.73835519 -216.20705898 194.51339763 -214.44116211 184.13037109 C-214.25811523 182.90189453 -214.07506836 181.67341797 -213.88647461 180.40771484 C-208.37468601 146.96272601 -194.29251676 115.45135613 -174.44116211 88.13037109 C-173.7953418 87.21642578 -173.14952148 86.30248047 -172.48413086 85.36083984 C-171.19679387 83.57234976 -169.83074751 81.84063005 -168.44116211 80.13037109 C-167.78116211 80.13037109 -167.12116211 80.13037109 -166.44116211 80.13037109 C-166.21428711 79.58638672 -165.98741211 79.04240234 -165.75366211 78.48193359 C-164.05306099 75.43502325 -161.8130446 73.03298736 -159.44116211 70.50537109 C-158.95566895 69.98265625 -158.47017578 69.45994141 -157.9699707 68.92138672 C-144.75421421 54.77542615 -144.75421421 54.77542615 -138.44116211 50.13037109 C-137.78116211 50.13037109 -137.12116211 50.13037109 -136.44116211 50.13037109 C-136.44116211 49.47037109 -136.44116211 48.81037109 -136.44116211 48.13037109 C-135.05859375 46.86865234 -135.05859375 46.86865234 -133.10131836 45.44287109 C-132.3769458 44.9140332 -131.65257324 44.38519531 -130.90625 43.84033203 C-130.113396 43.27604492 -129.32054199 42.71175781 -128.50366211 42.13037109 C-127.68824951 41.54803711 -126.87283691 40.96570313 -126.03271484 40.36572266 C-88.87613628 14.18143619 -45.48721774 -0.13651941 0 0 Z " fill="#FEFEFE" transform="translate(248.441162109375,31.86962890625)"/>
<path d="M0 0 C143.22 0 286.44 0 434 0 C434 50.839974 420.01608012 93.41869312 390 134 C389.17628906 135.18529297 389.17628906 135.18529297 388.3359375 136.39453125 C387.89507812 136.92433594 387.45421875 137.45414063 387 138 C386.34 138 385.68 138 385 138 C384.690625 138.61875 384.38125 139.2375 384.0625 139.875 C383.375 141.25 382.6875 142.625 382 144 C381.34 144 380.68 144 380 144 C379.74782715 144.57741943 379.4956543 145.15483887 379.23583984 145.74975586 C377.84661422 148.27928818 376.27194483 149.97095119 374.2265625 152.00390625 C373.1128125 153.11475586 373.1128125 153.11475586 371.9765625 154.24804688 C370.81253906 155.39370117 370.81253906 155.39370117 369.625 156.5625 C368.85671875 157.33013672 368.0884375 158.09777344 367.296875 158.88867188 C358.11405433 168 358.11405433 168 355 168 C355 168.66 355 169.32 355 170 C353.64916992 171.24584961 353.64916992 171.24584961 351.73046875 172.65234375 C351.01656982 173.17594482 350.3026709 173.6995459 349.56713867 174.23901367 C348.78185791 174.79951416 347.99657715 175.36001465 347.1875 175.9375 C346.37579346 176.51798096 345.56408691 177.09846191 344.7277832 177.6965332 C323.35441542 192.73902933 300.15457939 203.95145694 275 211 C274.23751953 211.21382324 273.47503906 211.42764648 272.68945312 211.64794922 C254.03178968 216.78174026 235.70008598 218.0736657 216.4375 218.125 C215.2309375 218.12967285 214.024375 218.1343457 212.78125 218.13916016 C201.05683761 218.11847376 189.45648577 217.60220312 177.9375 215.3125 C177.05102783 215.13734863 176.16455566 214.96219727 175.2512207 214.78173828 C147.19754949 209.03386706 117.51904962 198.70675727 94.64453125 181.01953125 C92.60821026 179.4644678 90.57044789 178.00547062 88.44921875 176.57421875 C87.84513184 176.16631104 87.24104492 175.75840332 86.61865234 175.33813477 C85.43584274 174.54367938 84.25006387 173.75362281 83.06103516 172.96850586 C81.67244789 172.02862039 80.33093409 171.01988908 79 170 C79 169.34 79 168.68 79 168 C78.43410156 167.75121094 77.86820312 167.50242187 77.28515625 167.24609375 C66.97742126 161.62529467 55.97868687 149.38513062 49 140 C49 139.34 49 138.68 49 138 C48.34 138 47.68 138 47 138 C45.73828125 136.61743164 45.73828125 136.61743164 44.3125 134.66015625 C43.51924316 133.57359741 43.51924316 133.57359741 42.70996094 132.46508789 C41.86353027 131.27580688 41.86353027 131.27580688 41 130.0625 C40.41766602 129.2470874 39.83533203 128.4316748 39.23535156 127.59155273 C22.60897984 103.99804798 11.11454419 77.95240347 4 50 C3.83209961 49.36328369 3.66419922 48.72656738 3.49121094 48.07055664 C1.84546298 41.37688137 1.34460302 34.67563263 0.875 27.8125 C0.78863281 26.68263672 0.70226563 25.55277344 0.61328125 24.38867188 C0.02601397 16.19955596 0 8.25324292 0 0 Z " fill="#010101" transform="translate(33,250)"/>
<path d="M0 0 C0 7.48327623 -8.24854853 13.86274691 -13 19 C-13 14.99721935 -11.47550007 13.51202411 -9.125 10.3125 C-8.04605469 8.82169922 -8.04605469 8.82169922 -6.9453125 7.30078125 C-6.30335937 6.54152344 -5.66140625 5.78226562 -5 5 C-4.34 5 -3.68 5 -3 5 C-2.690625 4.360625 -2.38125 3.72125 -2.0625 3.0625 C-1 1 -1 1 0 0 Z " fill="#BFBFBF" transform="translate(85,107)"/>
<path d="M0 0 C0 3.99904969 -1.72586967 5.80200422 -4 9 C-4.33 7.68 -4.66 6.36 -5 5 C-4.34 5 -3.68 5 -3 5 C-2.5359375 4.0409375 -2.5359375 4.0409375 -2.0625 3.0625 C-1 1 -1 1 0 0 Z " fill="#D5D5D5" transform="translate(85,107)"/>
</svg>
