<?xml version="1.0" encoding="UTF-8"?>
<svg version="1.1" xmlns="http://www.w3.org/2000/svg" width="500" height="500">
<path d="M0 0 C1.12124268 0.00290039 1.12124268 0.00290039 2.26513672 0.00585938 C23.40968325 0.11711718 45.38336012 6.49396863 65 14 C65.6492041 14.24717773 66.2984082 14.49435547 66.96728516 14.74902344 C87.37644386 22.67353832 106.02590579 34.28163494 123 48 C123.5347998 48.43038574 124.06959961 48.86077148 124.62060547 49.30419922 C131.14761769 54.59207905 137.34129727 60.15281378 143.3125 66.0625 C143.88226563 66.62300049 144.45203125 67.18350098 145.0390625 67.76098633 C149 71.75325258 149 71.75325258 149 74 C149.66 74 150.32 74 151 74 C154 77.46153846 154 77.46153846 154 80 C154.66 80 155.32 80 156 80 C157.90841487 82.41998033 159.68657706 84.84365783 161.4375 87.375 C161.97028564 88.14086426 162.50307129 88.90672852 163.05200195 89.69580078 C182.95628902 118.60307678 195.56355919 148.84925495 201.5703125 183.56591797 C201.86917037 185.25887989 202.1925646 186.94761823 202.53491211 188.63232422 C212.73979929 240.58350318 194.49178278 293.62541517 169 338 C168.34 338 167.68 338 167 338 C166.62681641 339.06541016 166.62681641 339.06541016 166.24609375 340.15234375 C164.85955252 343.32095991 163.13061563 345.79345877 161.0625 348.5625 C160.37285156 349.49191406 159.68320312 350.42132813 158.97265625 351.37890625 C158.32167969 352.24386719 157.67070312 353.10882813 157 354 C156.19369141 355.15822266 156.19369141 355.15822266 155.37109375 356.33984375 C154.69240234 357.16162109 154.69240234 357.16162109 154 358 C153.34 358 152.68 358 152 358 C151.5359375 358.928125 151.5359375 358.928125 151.0625 359.875 C150.375 361.25 149.6875 362.625 149 364 C148.34 364 147.68 364 147 364 C147 364.66 147 365.32 147 366 C146.34 366 145.68 366 145 366 C144.34 367.32 143.68 368.64 143 370 C142.34 370 141.68 370 141 370 C140.67 370.99 140.34 371.98 140 373 C139.34 373 138.68 373 138 373 C137.34 374.32 136.68 375.64 136 377 C135.34 377 134.68 377 134 377 C134 377.66 134 378.32 134 379 C133.34 379 132.68 379 132 379 C132 379.66 132 380.32 132 381 C128.53846154 384 128.53846154 384 126 384 C126 384.66 126 385.32 126 386 C124.26451831 387.44526736 122.46024037 388.8087222 120.625 390.125 C119.62726563 390.84945313 118.62953125 391.57390625 117.6015625 392.3203125 C115 394 115 394 113 394 C113 394.66 113 395.32 113 396 C108.61538462 399 108.61538462 399 106 399 C106 399.66 106 400.32 106 401 C105.46632813 401.29132813 104.93265625 401.58265625 104.3828125 401.8828125 C100.32749143 404.1139407 96.35106599 406.40327411 92.4375 408.875 C86.22020188 412.63632032 79.59368789 415.38984248 72.90722656 418.19482422 C71.22041117 418.90694879 69.54301352 419.64129205 67.8671875 420.37890625 C40.10588724 432.4441035 10.11234678 436.76233789 -20 436 C-20.66338379 435.98743164 -21.32676758 435.97486328 -22.01025391 435.96191406 C-62.85426401 435.05938577 -99.03085931 421.08865529 -134 401 C-134 400.34 -134 399.68 -134 399 C-135.04800781 398.64421875 -135.04800781 398.64421875 -136.1171875 398.28125 C-139.53477618 396.7623217 -142.16630192 394.78390729 -145.125 392.5 C-148.04998988 390.25337435 -150.93097688 388.04601541 -154 386 C-154 385.34 -154 384.68 -154 384 C-154.61875 383.690625 -155.2375 383.38125 -155.875 383.0625 C-157.25 382.375 -158.625 381.6875 -160 381 C-160 380.34 -160 379.68 -160 379 C-160.66 379 -161.32 379 -162 379 C-162 378.34 -162 377.68 -162 377 C-163.32 376.34 -164.64 375.68 -166 375 C-166 374.34 -166 373.68 -166 373 C-166.99 372.67 -167.98 372.34 -169 372 C-169 371.34 -169 370.68 -169 370 C-170.32 369.34 -171.64 368.68 -173 368 C-173 367.34 -173 366.68 -173 366 C-173.66 366 -174.32 366 -175 366 C-175 365.34 -175 364.68 -175 364 C-175.66 364 -176.32 364 -177 364 C-180 360.53846154 -180 360.53846154 -180 358 C-180.66 358 -181.32 358 -182 358 C-183.59895559 356.20424987 -185.05442871 354.4148013 -186.5 352.5 C-187.15887207 351.63507935 -187.15887207 351.63507935 -187.83105469 350.75268555 C-192.54266906 344.45236847 -196.69408404 337.81242086 -200.74780273 331.07568359 C-201.6417482 329.59385004 -202.54607816 328.1182608 -203.45727539 326.64697266 C-231.77389777 280.50772095 -238.95914365 221.35123702 -227 169 C-224.95952602 160.91134528 -222.56002359 152.93795658 -220 145 C-219.75523926 144.23961426 -219.51047852 143.47922852 -219.25830078 142.69580078 C-211.80595407 120.09683549 -198.73512196 99.51145975 -184 81 C-182.12129126 78.50663054 -180.24312364 76.01302853 -178.375 73.51171875 C-177.694375 72.76341797 -177.694375 72.76341797 -177 72 C-176.34 72 -175.68 72 -175 72 C-174.78859375 71.46503906 -174.5771875 70.93007812 -174.359375 70.37890625 C-172.47825796 67.08695143 -169.92379421 64.58462295 -167.25 61.9375 C-166.67435303 61.36604248 -166.09870605 60.79458496 -165.50561523 60.20581055 C-159.40561166 54.26080098 -152.83395492 49.06740613 -146 44 C-145.43700195 43.5762207 -144.87400391 43.15244141 -144.29394531 42.71582031 C-124.01748684 27.4938512 -102.07464381 16.77692145 -78 9 C-76.79859375 8.60941406 -75.5971875 8.21882813 -74.359375 7.81640625 C-49.78877381 0.33459996 -25.47850676 -0.30604813 0 0 Z M-41 291 C-41 291.33 -41 291.66 -41 292 C-35.06 292 -29.12 292 -23 292 C-23 291.67 -23 291.34 -23 291 C-28.94 291 -34.88 291 -41 291 Z M-12 291 C-12 291.33 -12 291.66 -12 292 C-3.09 292 5.82 292 15 292 C15 291.67 15 291.34 15 291 C6.09 291 -2.82 291 -12 291 Z " fill="#FCD116" transform="translate(264,32)"/>
<path d="M0 0 C1.12124268 0.00290039 1.12124268 0.00290039 2.26513672 0.00585938 C23.40968325 0.11711718 45.38336012 6.49396863 65 14 C65.6492041 14.24717773 66.2984082 14.49435547 66.96728516 14.74902344 C87.37644386 22.67353832 106.02590579 34.28163494 123 48 C123.5347998 48.43038574 124.06959961 48.86077148 124.62060547 49.30419922 C131.14761769 54.59207905 137.34129727 60.15281378 143.3125 66.0625 C143.88226563 66.62300049 144.45203125 67.18350098 145.0390625 67.76098633 C149 71.75325258 149 71.75325258 149 74 C149.66 74 150.32 74 151 74 C154 77.46153846 154 77.46153846 154 80 C154.66 80 155.32 80 156 80 C157.90841487 82.41998033 159.68657706 84.84365783 161.4375 87.375 C161.97028564 88.14086426 162.50307129 88.90672852 163.05200195 89.69580078 C170.82987681 100.99171781 178.00953542 112.49313299 183.9375 124.875 C184.46766724 125.97884033 184.46766724 125.97884033 185.00854492 127.10498047 C187.89160851 133.32985537 189.7934513 139.38035391 192 146 C56.04 146.33 -79.92 146.66 -220 147 C-218.1607546 140.86918199 -216.44327809 135.16042408 -213.875 129.375 C-213.57787109 128.70186768 -213.28074219 128.02873535 -212.97460938 127.33520508 C-209.48342714 119.60997868 -205.33501493 112.27770389 -201 105 C-200.41347656 104.01257813 -199.82695312 103.02515625 -199.22265625 102.0078125 C-195.35357269 95.72624155 -190.99129713 89.89803158 -186.4375 84.10546875 C-184.89767157 82.14366811 -183.3744489 80.16861499 -181.875 78.17578125 C-180.946875 76.94408203 -180.946875 76.94408203 -180 75.6875 C-179.46375 74.96949219 -178.9275 74.25148438 -178.375 73.51171875 C-177.694375 72.76341797 -177.694375 72.76341797 -177 72 C-176.34 72 -175.68 72 -175 72 C-174.78859375 71.46503906 -174.5771875 70.93007812 -174.359375 70.37890625 C-172.47825796 67.08695143 -169.92379421 64.58462295 -167.25 61.9375 C-166.38652954 61.08031372 -166.38652954 61.08031372 -165.50561523 60.20581055 C-159.40561166 54.26080098 -152.83395492 49.06740613 -146 44 C-145.43700195 43.5762207 -144.87400391 43.15244141 -144.29394531 42.71582031 C-124.01748684 27.4938512 -102.07464381 16.77692145 -78 9 C-76.79859375 8.60941406 -75.5971875 8.21882813 -74.359375 7.81640625 C-49.78877381 0.33459996 -25.47850676 -0.30604813 0 0 Z " fill="#FEFEFD" transform="translate(264,32)"/>
<path d="M0 0 C134.64 0 269.28 0 408 0 C408 6.15113974 407.49573686 9.04047336 404.875 14.1875 C404.55587646 14.83968506 404.23675293 15.49187012 403.90795898 16.16381836 C403.25670157 17.49013008 402.59944546 18.81351418 401.93603516 20.13378906 C401.10159362 21.79744872 400.28944815 23.47224882 399.48046875 25.1484375 C395.67390626 32.97129044 391.37828765 40.48801408 387 48 C386.34 48 385.68 48 385 48 C384.62681641 49.06541016 384.62681641 49.06541016 384.24609375 50.15234375 C382.85955252 53.32095991 381.13061563 55.79345877 379.0625 58.5625 C378.02802734 59.95662109 378.02802734 59.95662109 376.97265625 61.37890625 C376.32167969 62.24386719 375.67070312 63.10882813 375 64 C374.46246094 64.77214844 373.92492187 65.54429687 373.37109375 66.33984375 C372.69240234 67.16162109 372.69240234 67.16162109 372 68 C371.34 68 370.68 68 370 68 C369.690625 68.61875 369.38125 69.2375 369.0625 69.875 C368.375 71.25 367.6875 72.625 367 74 C366.34 74 365.68 74 365 74 C365 74.66 365 75.32 365 76 C364.34 76 363.68 76 363 76 C362.34 77.32 361.68 78.64 361 80 C360.34 80 359.68 80 359 80 C358.67 80.99 358.34 81.98 358 83 C357.34 83 356.68 83 356 83 C355.34 84.32 354.68 85.64 354 87 C353.34 87 352.68 87 352 87 C352 87.66 352 88.32 352 89 C351.34 89 350.68 89 350 89 C350 89.66 350 90.32 350 91 C346.53846154 94 346.53846154 94 344 94 C344 94.66 344 95.32 344 96 C342.26451831 97.44526736 340.46024037 98.8087222 338.625 100.125 C337.62726563 100.84945312 336.62953125 101.57390625 335.6015625 102.3203125 C333 104 333 104 331 104 C331 104.66 331 105.32 331 106 C326.61538462 109 326.61538462 109 324 109 C324 109.66 324 110.32 324 111 C323.46632813 111.29132813 322.93265625 111.58265625 322.3828125 111.8828125 C318.32749143 114.1139407 314.35106599 116.40327411 310.4375 118.875 C304.22020188 122.63632032 297.59368789 125.38984248 290.90722656 128.19482422 C289.22041117 128.90694879 287.54301352 129.64129205 285.8671875 130.37890625 C258.10588724 142.4441035 228.11234678 146.76233789 198 146 C197.33661621 145.98743164 196.67323242 145.97486328 195.98974609 145.96191406 C155.14573599 145.05938577 118.96914069 131.08865529 84 111 C84 110.34 84 109.68 84 109 C83.30132812 108.7628125 82.60265625 108.525625 81.8828125 108.28125 C78.46522382 106.7623217 75.83369808 104.78390729 72.875 102.5 C69.95001012 100.25337435 67.06902312 98.04601541 64 96 C64 95.34 64 94.68 64 94 C63.071875 93.5359375 63.071875 93.5359375 62.125 93.0625 C60.75 92.375 59.375 91.6875 58 91 C58 90.34 58 89.68 58 89 C57.34 89 56.68 89 56 89 C56 88.34 56 87.68 56 87 C54.68 86.34 53.36 85.68 52 85 C52 84.34 52 83.68 52 83 C51.01 82.67 50.02 82.34 49 82 C49 81.34 49 80.68 49 80 C47.68 79.34 46.36 78.68 45 78 C45 77.34 45 76.68 45 76 C44.34 76 43.68 76 43 76 C43 75.34 43 74.68 43 74 C42.34 74 41.68 74 41 74 C38 70.53846154 38 70.53846154 38 68 C37.34 68 36.68 68 36 68 C34.40104441 66.20424987 32.94557129 64.4148013 31.5 62.5 C31.06075195 61.92338623 30.62150391 61.34677246 30.16894531 60.75268555 C25.45659852 54.45138908 21.30360148 47.81059672 17.25048828 41.07202148 C16.36319671 39.60180603 15.46454008 38.13842268 14.55810547 36.67993164 C10.8012911 30.57374975 7.60313004 24.33109581 4.625 17.8125 C3.95017578 16.39420898 3.95017578 16.39420898 3.26171875 14.94726562 C2.83761719 14.02236328 2.41351563 13.09746094 1.9765625 12.14453125 C1.59580566 11.32315674 1.21504883 10.50178223 0.82275391 9.65551758 C0 7 0 7 0 0 Z M177 1 C177 1.33 177 1.66 177 2 C182.94 2 188.88 2 195 2 C195 1.67 195 1.34 195 1 C189.06 1 183.12 1 177 1 Z M206 1 C206 1.33 206 1.66 206 2 C214.91 2 223.82 2 233 2 C233 1.67 233 1.34 233 1 C224.09 1 215.18 1 206 1 Z " fill="#020201" transform="translate(46,322)"/>
<path d="M0 0 C1.87164151 0.00113916 1.87164151 0.00113916 3.78109396 0.00230134 C4.82543786 -0.0011602 4.82543786 -0.0011602 5.89087963 -0.00469166 C8.24731938 -0.01002773 10.6034913 -0.00097795 12.95991743 0.00788796 C14.65693714 0.00701663 16.3539566 0.00526699 18.05097461 0.00270963 C22.73253685 -0.00178216 27.41400833 0.00626479 32.095559 0.01626575 C37.13715246 0.02487171 42.17874045 0.02198212 47.22033918 0.0204612 C55.96131967 0.01941054 64.70227039 0.02570606 73.44324338 0.03693688 C86.08134904 0.05316438 98.71944025 0.05839706 111.3575552 0.06091286 C131.8601391 0.0652943 152.36270713 0.07861553 172.86528242 0.09751809 C192.78618004 0.1158653 212.70707336 0.13002747 232.62797773 0.13853371 C233.85510746 0.13905916 235.0822372 0.13958461 236.34655268 0.14012598 C242.50246467 0.14273598 248.65837669 0.14526341 254.81428874 0.14774978 C305.91495646 0.16849624 357.01560695 0.20373394 408.11625898 0.24839699 C408.95903328 2.64127403 409.790629 5.03710718 410.61625898 7.43589699 C410.85473554 8.10943215 411.0932121 8.78296731 411.33891523 9.47691262 C412.6035349 13.18044167 413.42077118 16.32780235 413.11625898 20.24839699 C412.45625898 20.24839699 411.79625898 20.24839699 411.11625898 20.24839699 C410.45625898 16.28839699 409.79625898 12.32839699 409.11625898 8.24839699 C408.45625898 8.24839699 407.79625898 8.24839699 407.11625898 8.24839699 C407.11625898 5.93839699 407.11625898 3.62839699 407.11625898 1.24839699 C272.14625898 1.24839699 137.17625898 1.24839699 -1.88374102 1.24839699 C-2.54374102 2.89839699 -3.20374102 4.54839699 -3.88374102 6.24839699 C-4.54374102 6.90839699 -5.20374102 7.56839699 -5.88374102 8.24839699 C-4.86249459 0.41884102 -4.86249459 0.41884102 0 0 Z " fill="#EECE3F" transform="translate(47.88374102115631,177.7516030073166)"/>
<path d="M0 0 C0.99 0 1.98 0 3 0 C3 1.98 3 3.96 3 6 C138.3 6.33 273.6 6.66 413 7 C413 4.69 413 2.38 413 0 C413.99 0 414.98 0 416 0 C415.71758359 1.46015291 415.42373386 2.91809793 415.125 4.375 C414.88136719 5.59316406 414.88136719 5.59316406 414.6328125 6.8359375 C414 9 414 9 412 11 C412 10.01 412 9.02 412 8 C277.36 8 142.72 8 4 8 C3.67 8.99 3.34 9.98 3 11 C2.49384702 9.73160474 1.99530901 8.46016898 1.5 7.1875 C1.2215625 6.47980469 0.943125 5.77210938 0.65625 5.04296875 C0 3 0 3 0 0 Z " fill="#F2CF3D" transform="translate(42,314)"/>
<path d="M0 0 C0.33 0 0.66 0 1 0 C1.33 1.65 1.66 3.3 2 5 C135.98 5.33 269.96 5.66 408 6 C407.67 4.02 407.34 2.04 407 0 C409 3 409 3 410 7 C274.04 7.33 138.08 7.66 -2 8 C-1.34 5.36 -0.68 2.72 0 0 Z " fill="#FCF2BA" transform="translate(46,171)"/>
<path d="M0 0 C0.33 0 0.66 0 1 0 C1.00808685 0.71472977 1.01617371 1.42945953 1.02450562 2.16584778 C1.10289001 8.94670323 1.19030753 15.7273906 1.28752708 22.50800037 C1.33718296 25.99284302 1.38351176 29.47765977 1.421875 32.96264648 C1.46627146 36.98178991 1.52578971 41.00059244 1.5859375 45.01953125 C1.59748871 46.25331009 1.60903992 47.48708893 1.62094116 48.758255 C1.74341942 56.03428913 2.42960306 62.89049498 4 70 C4.33 70 4.66 70 5 70 C5.33 74.29 5.66 78.58 6 83 C5.34 83 4.68 83 4 83 C-3.43075928 57.83449525 -5.69826884 25.80980592 0 0 Z " fill="#D9C055" transform="translate(34,218)"/>
<path d="M0 0 C0.66 0 1.32 0 2 0 C2.96765535 17.49843432 -1.17255351 34.28368263 -6 51 C-6.33 51 -6.66 51 -7 51 C-7.08333357 46.1666528 -6.95261487 41.76307437 -6 37 C-5.34 37 -4.68 37 -4 37 C-2.68 24.79 -1.36 12.58 0 0 Z " fill="#D9C054" transform="translate(465,263)"/>
<path d="M0 0 C0.33 0 0.66 0 1 0 C5.05692286 20.57217939 6.16903921 40.06774413 6 61 C5.34 60.67 4.68 60.34 4 60 C3.98018066 58.98687744 3.96036133 57.97375488 3.93994141 56.92993164 C3.86326389 53.13331281 3.7746481 49.33704659 3.68261719 45.54077148 C3.644582 43.90477514 3.60968712 42.26870239 3.578125 40.63256836 C3.44860589 29.16412108 3.44860589 29.16412108 1.46337891 17.90844727 C0.62751341 14.46589692 0.53370397 10.96535702 0.375 7.4375 C0.33632813 6.71498047 0.29765625 5.99246094 0.2578125 5.24804688 C0.16514995 3.49904125 0.08157448 1.74955784 0 0 Z " fill="#D0BB5D" transform="translate(462,201)"/>
<path d="M0 0 C2.70705488 3.3384591 3.51178906 5.70374369 4 10 C4.33 10 4.66 10 5 10 C5.33 14.29 5.66 18.58 6 23 C5.34 23 4.68 23 4 23 C1.59847776 15.32721195 0.40621064 8.02616194 0 0 Z " fill="#DDC34C" transform="translate(34,278)"/>
<path d="M0 0 C0.33 0 0.66 0 1 0 C1.02688151 1.64574566 1.04634123 3.29161413 1.0625 4.9375 C1.07410156 5.85402344 1.08570313 6.77054688 1.09765625 7.71484375 C1 10 1 10 0 11 C-0.39148761 12.51165654 -0.73972457 14.03469632 -1.0625 15.5625 C-1.23910156 16.38878906 -1.41570313 17.21507812 -1.59765625 18.06640625 C-1.73042969 18.70449219 -1.86320312 19.34257812 -2 20 C-2.33 20 -2.66 20 -3 20 C-3.40850553 12.91923749 -1.90420731 6.80074041 0 0 Z " fill="#D7BF53" transform="translate(38,198)"/>
<path d="M0 0 C0.66 0.33 1.32 0.66 2 1 C-0.41337795 5.82675589 -3.86062408 8.69984002 -8 12 C-6.59023295 8.96147295 -4.91129772 6.4060405 -2.875 3.75 C-2.06675781 2.69039063 -2.06675781 2.69039063 -1.2421875 1.609375 C-0.83226563 1.07828125 -0.42234375 0.5471875 0 0 Z " fill="#CCCCCC" transform="translate(82,110)"/>
<path d="M0 0 C0.99 0 1.98 0 3 0 C2.71758359 1.46015291 2.42373386 2.91809793 2.125 4.375 C1.96257812 5.18710937 1.80015625 5.99921875 1.6328125 6.8359375 C1 9 1 9 -1 11 C-0.67 7.37 -0.34 3.74 0 0 Z " fill="#CEB654" transform="translate(455,314)"/>
<path d="M0 0 C0.99 0 1.98 0 3 0 C3.33 3.63 3.66 7.26 4 11 C1.6870518 8.6870518 1.50419025 7.52095125 0.875 4.375 C0.70742188 3.55773437 0.53984375 2.74046875 0.3671875 1.8984375 C0.24601562 1.27195312 0.12484375 0.64546875 0 0 Z " fill="#CEB655" transform="translate(42,314)"/>
<path d="M0 0 C0.33 0 0.66 0 1 0 C1.33 2.31 1.66 4.62 2 7 C1.01 7.33 0.02 7.66 -1 8 C-1.33 8.99 -1.66 9.98 -2 11 C-1 3.57142857 -1 3.57142857 0 0 Z " fill="#CFBA5C" transform="translate(41,186)"/>
<path d="M0 0 C2.125 0.375 2.125 0.375 4 1 C3.01 1 2.02 1 1 1 C0.71125 1.78375 0.4225 2.5675 0.125 3.375 C-1 6 -1 6 -3 8 C-2.25 2.25 -2.25 2.25 0 0 Z " fill="#DCC553" transform="translate(45,178)"/>
</svg>
