<?xml version="1.0" encoding="UTF-8"?>
<svg version="1.1" xmlns="http://www.w3.org/2000/svg" width="500" height="500">
<path d="M0 0 C2.12108532 0.00535689 4.24195817 0.00001827 6.36303711 -0.00634766 C19.93535552 -0.01638512 32.96942538 0.82238066 46.25170898 3.75537109 C47.46262207 4.02043457 48.67353516 4.28549805 49.92114258 4.55859375 C67.3001116 8.49012414 83.66108714 14.3825944 99.68920898 22.13037109 C100.38433594 22.46230469 101.07946289 22.79423828 101.7956543 23.13623047 C114.30714744 29.18432954 125.50493359 36.92091022 136.68920898 45.13037109 C137.80815552 45.90501709 137.80815552 45.90501709 138.94970703 46.6953125 C139.52374268 47.16888184 140.09777832 47.64245117 140.68920898 48.13037109 C140.68920898 48.79037109 140.68920898 49.45037109 140.68920898 50.13037109 C141.30795898 50.43974609 141.92670898 50.74912109 142.56420898 51.06787109 C143.93920898 51.75537109 145.31420898 52.44287109 146.68920898 53.13037109 C146.68920898 53.79037109 146.68920898 54.45037109 146.68920898 55.13037109 C147.27347656 55.39011719 147.85774414 55.64986328 148.4597168 55.91748047 C150.84482063 57.2150271 152.44111535 58.62378232 154.36108398 60.53662109 C155.02495117 61.19791016 155.68881836 61.85919922 156.37280273 62.54052734 C157.0547168 63.23017578 157.73663086 63.91982422 158.43920898 64.63037109 C159.4852832 65.66484375 159.4852832 65.66484375 160.55249023 66.72021484 C161.21120117 67.38150391 161.86991211 68.04279297 162.54858398 68.72412109 C163.15154297 69.32933594 163.75450195 69.93455078 164.37573242 70.55810547 C165.68920898 72.13037109 165.68920898 72.13037109 165.68920898 74.13037109 C166.34920898 74.13037109 167.00920898 74.13037109 167.68920898 74.13037109 C170.68920898 77.59190956 170.68920898 77.59190956 170.68920898 80.13037109 C171.34920898 80.13037109 172.00920898 80.13037109 172.68920898 80.13037109 C173.95092773 81.51293945 173.95092773 81.51293945 175.37670898 83.47021484 C175.90554688 84.1945874 176.43438477 84.91895996 176.97924805 85.6652832 C177.54353516 86.45813721 178.10782227 87.25099121 178.68920898 88.06787109 C179.56270996 89.29098999 179.56270996 89.29098999 180.45385742 90.53881836 C194.30065484 110.18799294 204.36203615 131.26678527 211.68920898 154.13037109 C212.07850586 155.32919922 212.46780273 156.52802734 212.86889648 157.76318359 C214.97659088 164.67446055 216.49086556 171.67070884 217.87670898 178.75537109 C218.04388428 179.60220459 218.21105957 180.44903809 218.38330078 181.3215332 C220.51392734 192.72109877 220.87579924 204.11597949 220.87451172 215.68310547 C220.87669226 217.86364465 220.8949113 220.04367108 220.91381836 222.22412109 C220.95281788 232.00989952 220.12672688 241.45558256 218.68920898 251.13037109 C218.57407959 251.95811035 218.4589502 252.78584961 218.34033203 253.63867188 C214.32595231 281.63519124 204.01813277 309.35754861 188.68920898 333.13037109 C188.22901367 333.84644531 187.76881836 334.56251953 187.29467773 335.30029297 C185.68657662 337.79225115 184.06519284 340.27504859 182.43920898 342.75537109 C181.90714844 343.57505371 181.37508789 344.39473633 180.8269043 345.23925781 C180.32255859 345.99996582 179.81821289 346.76067383 179.29858398 347.54443359 C178.84451172 348.2348877 178.39043945 348.9253418 177.92260742 349.63671875 C177.51558594 350.12962402 177.10856445 350.6225293 176.68920898 351.13037109 C176.02920898 351.13037109 175.36920898 351.13037109 174.68920898 351.13037109 C174.02920898 352.78037109 173.36920898 354.43037109 172.68920898 356.13037109 C172.02920898 356.13037109 171.36920898 356.13037109 170.68920898 356.13037109 C170.22514648 357.05849609 170.22514648 357.05849609 169.75170898 358.00537109 C169.06420898 359.38037109 168.37670898 360.75537109 167.68920898 362.13037109 C167.02920898 362.13037109 166.36920898 362.13037109 165.68920898 362.13037109 C165.42946289 362.71463867 165.1697168 363.29890625 164.90209961 363.90087891 C163.60455298 366.28598274 162.19579776 367.88227746 160.28295898 369.80224609 C159.62166992 370.46611328 158.96038086 371.12998047 158.27905273 371.81396484 C157.5894043 372.49587891 156.89975586 373.17779297 156.18920898 373.88037109 C155.15473633 374.92644531 155.15473633 374.92644531 154.09936523 375.99365234 C153.43807617 376.65236328 152.77678711 377.31107422 152.09545898 377.98974609 C151.49024414 378.59270508 150.8850293 379.19566406 150.26147461 379.81689453 C148.68920898 381.13037109 148.68920898 381.13037109 146.68920898 381.13037109 C146.68920898 381.79037109 146.68920898 382.45037109 146.68920898 383.13037109 C143.22767052 386.13037109 143.22767052 386.13037109 140.68920898 386.13037109 C140.68920898 386.79037109 140.68920898 387.45037109 140.68920898 388.13037109 C138.78676696 389.68832525 136.8913907 391.10385338 134.87670898 392.50537109 C134.2528833 392.94236328 133.62905762 393.37935547 132.98632812 393.82958984 C130.89703972 395.27804073 128.79590334 396.70736224 126.68920898 398.13037109 C125.60542969 398.86368652 125.60542969 398.86368652 124.49975586 399.61181641 C99.30769557 416.48366431 71.98193841 427.26195701 42.37670898 433.38037109 C41.60166016 433.54359863 40.82661133 433.70682617 40.02807617 433.875 C28.58404001 436.12971044 17.0027706 436.29552561 5.37841797 436.26074219 C3.25733265 436.2553853 1.1364598 436.26072391 -0.98461914 436.26708984 C-13.04022365 436.27469094 -25.03891375 435.94129574 -36.87329102 433.44287109 C-38.12601807 433.18340698 -38.12601807 433.18340698 -39.40405273 432.91870117 C-73.74893309 425.55908395 -102.73005292 411.29152618 -131.31079102 391.13037109 C-132.05731934 390.61627686 -132.80384766 390.10218262 -133.57299805 389.57250977 C-134.43320557 388.85865112 -134.43320557 388.85865112 -135.31079102 388.13037109 C-135.31079102 387.47037109 -135.31079102 386.81037109 -135.31079102 386.13037109 C-135.92954102 385.82099609 -136.54829102 385.51162109 -137.18579102 385.19287109 C-138.56079102 384.50537109 -139.93579102 383.81787109 -141.31079102 383.13037109 C-141.31079102 382.47037109 -141.31079102 381.81037109 -141.31079102 381.13037109 C-141.89505859 380.870625 -142.47932617 380.61087891 -143.08129883 380.34326172 C-145.46640266 379.04571509 -147.06269738 377.63695987 -148.98266602 375.72412109 C-149.6465332 375.06283203 -150.31040039 374.40154297 -150.99438477 373.72021484 C-152.01725586 372.68574219 -152.01725586 372.68574219 -153.06079102 371.63037109 C-154.10686523 370.59589844 -154.10686523 370.59589844 -155.17407227 369.54052734 C-155.8327832 368.87923828 -156.49149414 368.21794922 -157.17016602 367.53662109 C-157.773125 366.93140625 -158.37608398 366.32619141 -158.99731445 365.70263672 C-160.31079102 364.13037109 -160.31079102 364.13037109 -160.31079102 362.13037109 C-160.97079102 362.13037109 -161.63079102 362.13037109 -162.31079102 362.13037109 C-165.31079102 358.66883263 -165.31079102 358.66883263 -165.31079102 356.13037109 C-165.97079102 356.13037109 -166.63079102 356.13037109 -167.31079102 356.13037109 C-167.97079102 354.48037109 -168.63079102 352.83037109 -169.31079102 351.13037109 C-169.97079102 351.13037109 -170.63079102 351.13037109 -171.31079102 351.13037109 C-172.94600133 348.93286726 -174.45369205 346.74112591 -175.93579102 344.44287109 C-176.3830957 343.75660645 -176.83040039 343.0703418 -177.29125977 342.36328125 C-178.20673114 340.95323363 -179.11850984 339.54078178 -180.02661133 338.12597656 C-181.13648925 336.40123471 -182.26491958 334.6884577 -183.39672852 332.97802734 C-193.54791984 317.21260571 -200.64873935 299.94463581 -206.31079102 282.13037109 C-206.69879883 280.93412109 -207.08680664 279.73787109 -207.48657227 278.50537109 C-209.59803884 271.59215233 -211.11189349 264.592866 -212.49829102 257.50537109 C-212.66546631 256.6585376 -212.8326416 255.8117041 -213.00488281 254.93920898 C-215.12103179 243.61710331 -215.475237 232.32725817 -215.44116211 220.84008789 C-215.43580671 218.69914647 -215.44114012 216.55841555 -215.44750977 214.41748047 C-215.45495892 202.52537229 -214.92264057 190.82211673 -212.62329102 179.13037109 C-212.44886475 178.2408374 -212.27443848 177.35130371 -212.09472656 176.43481445 C-205.27961414 142.94803096 -191.2560153 112.71312785 -170.93969727 85.33740234 C-169.68338565 83.63520555 -168.48431861 81.89066248 -167.31079102 80.13037109 C-166.65079102 80.13037109 -165.99079102 80.13037109 -165.31079102 80.13037109 C-165.00141602 79.51162109 -164.69204102 78.89287109 -164.37329102 78.25537109 C-163.68579102 76.88037109 -162.99829102 75.50537109 -162.31079102 74.13037109 C-161.65079102 74.13037109 -160.99079102 74.13037109 -160.31079102 74.13037109 C-160.05104492 73.54610352 -159.79129883 72.96183594 -159.52368164 72.35986328 C-158.22613501 69.97475945 -156.81737979 68.37846473 -154.90454102 66.45849609 C-153.91260742 65.46269531 -153.91260742 65.46269531 -152.90063477 64.44677734 C-152.21098633 63.76486328 -151.52133789 63.08294922 -150.81079102 62.38037109 C-150.12114258 61.68298828 -149.43149414 60.98560547 -148.72094727 60.26708984 C-148.0596582 59.60837891 -147.39836914 58.94966797 -146.71704102 58.27099609 C-146.11182617 57.66803711 -145.50661133 57.06507812 -144.88305664 56.44384766 C-143.31079102 55.13037109 -143.31079102 55.13037109 -141.31079102 55.13037109 C-141.31079102 54.47037109 -141.31079102 53.81037109 -141.31079102 53.13037109 C-137.84925255 50.13037109 -137.84925255 50.13037109 -135.31079102 50.13037109 C-135.31079102 49.47037109 -135.31079102 48.81037109 -135.31079102 48.13037109 C-133.92822266 46.86865234 -133.92822266 46.86865234 -131.97094727 45.44287109 C-131.24657471 44.9140332 -130.52220215 44.38519531 -129.77587891 43.84033203 C-128.9830249 43.27604492 -128.1901709 42.71175781 -127.37329102 42.13037109 C-126.55787842 41.54803711 -125.74246582 40.96570313 -124.90234375 40.36572266 C-105.25789049 26.52225236 -84.17482831 16.4432616 -61.31079102 9.13037109 C-60.10036133 8.74107422 -58.88993164 8.35177734 -57.64282227 7.95068359 C-50.92212258 5.917928 -44.1190382 4.36740429 -37.24829102 2.94287109 C-36.06203125 2.69210815 -36.06203125 2.69210815 -34.85180664 2.4362793 C-23.33546973 0.15160943 -11.70086005 -0.03501236 0 0 Z " fill="#FACF10" transform="translate(247.310791015625,31.86962890625)"/>
<path d="M0 0 C143.22 0 286.44 0 434 0 C434 41.27722232 425.602315 79.94725725 403 115 C402.30970703 116.07411133 402.30970703 116.07411133 401.60546875 117.16992188 C399.99736763 119.66188006 398.37598386 122.14467749 396.75 124.625 C396.21793945 125.44468262 395.68587891 126.26436523 395.13769531 127.10888672 C394.38117676 128.24994873 394.38117676 128.24994873 393.609375 129.4140625 C393.15530273 130.1045166 392.70123047 130.7949707 392.23339844 131.50634766 C391.82637695 131.99925293 391.41935547 132.4921582 391 133 C390.34 133 389.68 133 389 133 C388.34 134.65 387.68 136.3 387 138 C386.34 138 385.68 138 385 138 C384.690625 138.61875 384.38125 139.2375 384.0625 139.875 C383.375 141.25 382.6875 142.625 382 144 C381.34 144 380.68 144 380 144 C379.74025391 144.58426758 379.48050781 145.16853516 379.21289062 145.77050781 C377.915344 148.15561164 376.50658878 149.75190637 374.59375 151.671875 C373.93246094 152.33574219 373.27117187 152.99960937 372.58984375 153.68359375 C371.55537109 154.70646484 371.55537109 154.70646484 370.5 155.75 C369.46552734 156.79607422 369.46552734 156.79607422 368.41015625 157.86328125 C367.74886719 158.52199219 367.08757812 159.18070313 366.40625 159.859375 C365.80103516 160.46233398 365.19582031 161.06529297 364.57226562 161.68652344 C363 163 363 163 361 163 C361 163.66 361 164.32 361 165 C357.53846154 168 357.53846154 168 355 168 C355 168.66 355 169.32 355 170 C353.09755798 171.55795415 351.20218172 172.97348228 349.1875 174.375 C348.56367432 174.81199219 347.93984863 175.24898437 347.29711914 175.69921875 C345.20783073 177.14766964 343.10669436 178.57699114 341 180 C340.27748047 180.48887695 339.55496094 180.97775391 338.81054688 181.48144531 C313.61848658 198.35329321 286.29272942 209.13158592 256.6875 215.25 C255.91245117 215.41322754 255.13740234 215.57645508 254.33886719 215.74462891 C242.89483103 217.99933935 231.31356161 218.16515452 219.68920898 218.13037109 C217.56812367 218.1250142 215.44725082 218.13035282 213.32617188 218.13671875 C201.27056737 218.14431985 189.27187727 217.81092464 177.4375 215.3125 C176.18477295 215.05303589 176.18477295 215.05303589 174.90673828 214.78833008 C140.56185792 207.42871286 111.5807381 193.16115509 83 173 C82.25347168 172.48590576 81.50694336 171.97181152 80.73779297 171.44213867 C80.16432129 170.96623291 79.59084961 170.49032715 79 170 C79 169.34 79 168.68 79 168 C78.38125 167.690625 77.7625 167.38125 77.125 167.0625 C75.75 166.375 74.375 165.6875 73 165 C73 164.34 73 163.68 73 163 C72.41573242 162.74025391 71.83146484 162.48050781 71.22949219 162.21289062 C68.84438836 160.915344 67.24809363 159.50658878 65.328125 157.59375 C64.66425781 156.93246094 64.00039062 156.27117187 63.31640625 155.58984375 C62.63449219 154.90019531 61.95257813 154.21054687 61.25 153.5 C60.55261719 152.81035156 59.85523438 152.12070312 59.13671875 151.41015625 C58.47800781 150.74886719 57.81929687 150.08757812 57.140625 149.40625 C56.53766602 148.80103516 55.93470703 148.19582031 55.31347656 147.57226562 C54 146 54 146 54 144 C53.34 144 52.68 144 52 144 C49 140.53846154 49 140.53846154 49 138 C48.34 138 47.68 138 47 138 C46.34 136.35 45.68 134.7 45 133 C44.34 133 43.68 133 43 133 C41.36478968 130.80249617 39.85709897 128.61075482 38.375 126.3125 C37.92769531 125.62623535 37.48039062 124.9399707 37.01953125 124.23291016 C36.10405987 122.82286254 35.19228118 121.41041069 34.28417969 119.99560547 C33.17430177 118.27086362 32.04587143 116.5580866 30.9140625 114.84765625 C18.18305705 95.07562533 9.78180277 72.71618244 4 50 C3.83209961 49.36328369 3.66419922 48.72656738 3.49121094 48.07055664 C1.84546298 41.37688137 1.34460302 34.67563263 0.875 27.8125 C0.78863281 26.68263672 0.70226563 25.55277344 0.61328125 24.38867188 C0.02601397 16.19955596 0 8.25324292 0 0 Z " fill="#002878" transform="translate(33,250)"/>
<path d="M0 0 C143.22 0 286.44 0 434 0 C434 9.53571259 433.99783546 18.59183708 433 28 C432.67 28 432.34 28 432 28 C432.00523682 27.27820557 432.01047363 26.55641113 432.01586914 25.81274414 C432.03657358 22.56267151 432.04963918 19.31261272 432.0625 16.0625 C432.07087891 14.92619141 432.07925781 13.78988281 432.08789062 12.61914062 C432.09111328 11.53955078 432.09433594 10.45996094 432.09765625 9.34765625 C432.10289307 8.34742432 432.10812988 7.34719238 432.11352539 6.31665039 C432.26181095 4.03792772 432.26181095 4.03792772 431 3 C428.77240713 2.89772602 426.54149797 2.86782402 424.31156158 2.86412811 C423.24513483 2.86031418 423.24513483 2.86031418 422.1571641 2.8564232 C419.74461463 2.84903011 417.33211572 2.84882649 414.91955566 2.84851074 C413.18444009 2.84466456 411.44932544 2.84037779 409.71421194 2.83568525 C404.9223833 2.82399683 400.13056419 2.81854968 395.33872414 2.81405044 C390.17968664 2.80811975 385.02066196 2.79644735 379.8616333 2.78541565 C370.91331824 2.76703257 361.9650029 2.75220025 353.01667786 2.73963928 C340.06894318 2.72137325 327.12122672 2.69670699 314.17350644 2.67026538 C293.15604144 2.62742743 272.13857139 2.58832642 251.12109375 2.55224609 C249.86198061 2.55008329 248.60286747 2.54792049 247.30559939 2.54569215 C238.37039975 2.53036761 229.4351999 2.51517339 220.5 2.5 C210.3072915 2.48268399 200.11458312 2.46529591 189.921875 2.44775391 C188.66671422 2.44559504 187.41155344 2.44343617 186.11835748 2.44121188 C165.19157558 2.40509796 144.2648027 2.36514012 123.3380332 2.32245111 C110.42389869 2.29629539 97.50976693 2.27363605 84.59561867 2.25546753 C75.74318765 2.24279539 66.89076731 2.22666723 58.0383473 2.20781839 C52.92950283 2.19706638 47.82066868 2.18794438 42.71181488 2.18312263 C38.03349936 2.17868226 33.35521502 2.16971668 28.67691439 2.15717942 C26.98568118 2.15345029 25.29444329 2.15138311 23.60320598 2.15115923 C15.67692286 2.14928782 7.86518803 2.12433275 0 1 C0 0.67 0 0.34 0 0 Z " fill="#163154" transform="translate(33,250)"/>
<path d="M0 0 C2.31455299 3.47182949 3.28648701 6.90167206 4.375 10.875 C4.69936035 12.05473389 4.69936035 12.05473389 5.03027344 13.25830078 C6.67458149 19.41902326 8.03811486 25.61567574 9.25 31.875 C9.41290527 32.70499512 9.57581055 33.53499023 9.74365234 34.39013672 C11.84499997 45.71865587 12.1865819 57.06075166 12.18530273 68.55273438 C12.18748327 70.73327356 12.20570232 72.91329999 12.22460938 75.09375 C12.26216792 84.87217908 11.43992724 94.33086816 10 104 C9.67 104 9.34 104 9 104 C9.66 93.11 10.32 82.22 11 71 C-132.22 71 -275.44 71 -423 71 C-422.34 79.58 -421.68 88.16 -421 97 C-421 99.31 -421 101.62 -421 104 C-425.89671109 95.47614157 -424.15885477 83.31200255 -424.13037109 73.7097168 C-424.1250157 71.56877537 -424.13034911 69.42804445 -424.13671875 67.28710938 C-424.15193221 44.30386443 -424.15193221 44.30386443 -421 38 C-421 48.56 -421 59.12 -421 70 C-279.1 70 -137.2 70 9 70 C10.899475 55.73051929 10.899475 55.73051929 7 44 C6.8132196 42.67178382 6.67619172 41.33645776 6.5625 40 C6.08767894 35.22881417 5.133187 30.65376798 4 26 C3.34 26 2.68 26 2 26 C2.03480469 24.7315625 2.03480469 24.7315625 2.0703125 23.4375 C2.1752193 16.84335811 1.80628007 11.32198025 0 5 C-0.125 2 -0.125 2 0 0 Z " fill="#CFBD5A" transform="translate(456,179)"/>
<path d="M0 0 C2.12108532 0.00535689 4.24195817 0.00001827 6.36303711 -0.00634766 C20.24579015 -0.01701826 33.42724401 0.95910364 47.00170898 4.00537109 C48.79705078 4.39015625 48.79705078 4.39015625 50.62866211 4.78271484 C57.14361724 6.2097661 63.40961122 7.88236932 69.68920898 10.13037109 C65.6830066 11.31141543 62.96405917 10.75224909 58.87670898 9.81787109 C57.69463867 9.55361328 56.51256836 9.28935547 55.29467773 9.01708984 C52.9435352 8.43885652 50.60824437 7.79039029 48.29858398 7.06396484 C44.0731951 5.97103417 40.09554441 5.68403785 35.75170898 5.50537109 C34.9724707 5.46669922 34.19323242 5.42802734 33.39038086 5.38818359 C31.4903352 5.29492982 29.5898062 5.21161147 27.68920898 5.13037109 C27.68920898 4.47037109 27.68920898 3.81037109 27.68920898 3.13037109 C20.28221773 3.21513703 12.87543056 3.31015712 5.46873569 3.41789818 C2.02867648 3.46762448 -1.4113555 3.51395427 -4.8515625 3.55224609 C-8.81600519 3.59652746 -12.78015112 3.65607811 -16.74438477 3.71630859 C-17.9666124 3.7278598 -19.18884003 3.73941101 -20.44810486 3.75131226 C-28.38207077 3.88715216 -35.2976109 4.93345773 -42.87329102 7.19287109 C-46.31079102 8.13037109 -46.31079102 8.13037109 -50.24829102 8.56787109 C-53.6827128 8.95310091 -56.63458708 9.87852464 -59.84985352 11.18115234 C-62.46119928 12.18838571 -65.10513002 13.06193769 -67.76708984 13.92504883 C-77.31057919 16.88140738 -77.31057919 16.88140738 -86.31079102 21.13037109 C-86.64079102 21.79037109 -86.97079102 22.45037109 -87.31079102 23.13037109 C-89.27172852 23.98193359 -89.27172852 23.98193359 -91.68579102 24.75537109 C-92.87301758 25.14595703 -92.87301758 25.14595703 -94.08422852 25.54443359 C-96.31079102 26.13037109 -96.31079102 26.13037109 -99.31079102 26.13037109 C-99.31079102 26.79037109 -99.31079102 27.45037109 -99.31079102 28.13037109 C-103.89233363 30.52579693 -108.33844882 32.63866843 -113.31079102 34.13037109 C-110.14242144 29.37781674 -105.3349289 27.66998465 -100.31079102 25.13037109 C-99.2937207 24.61482666 -99.2937207 24.61482666 -98.25610352 24.08886719 C-86.2624854 18.06271431 -74.0908074 13.21796329 -61.31079102 9.13037109 C-60.10036133 8.74107422 -58.88993164 8.35177734 -57.64282227 7.95068359 C-50.92212258 5.917928 -44.1190382 4.36740429 -37.24829102 2.94287109 C-36.45745117 2.7756958 -35.66661133 2.60852051 -34.85180664 2.4362793 C-23.33546973 0.15160943 -11.70086005 -0.03501236 0 0 Z " fill="#DBC150" transform="translate(247.310791015625,31.86962890625)"/>
<path d="M0 0 C0 0.33 0 0.66 0 1 C-1.12277344 1.12117188 -2.24554688 1.24234375 -3.40234375 1.3671875 C-12.32861723 2.35611572 -20.93487147 3.48934763 -29.5625 6.0625 C-33 7 -33 7 -36.9375 7.4375 C-40.37192178 7.82272982 -43.32379606 8.74815354 -46.5390625 10.05078125 C-49.15040827 11.05801462 -51.794339 11.9315666 -54.45629883 12.79467773 C-63.99978817 15.75103628 -63.99978817 15.75103628 -73 20 C-73.33 20.66 -73.66 21.32 -74 22 C-75.9609375 22.8515625 -75.9609375 22.8515625 -78.375 23.625 C-79.56222656 24.01558594 -79.56222656 24.01558594 -80.7734375 24.4140625 C-83 25 -83 25 -86 25 C-86 25.66 -86 26.32 -86 27 C-90.58154261 29.39542583 -95.0276578 31.50829734 -100 33 C-96.83163043 28.24744564 -92.02413788 26.53961356 -87 24 C-85.98292969 23.48445557 -85.98292969 23.48445557 -84.9453125 22.95849609 C-72.95169438 16.93234322 -60.78001638 12.0875922 -48 8 C-46.78957031 7.61070313 -45.57914063 7.22140625 -44.33203125 6.8203125 C-29.8553982 2.44168257 -15.18124608 -0.90484248 0 0 Z " fill="#C7B668" transform="translate(234,33)"/>
<path d="M0 0 C23.72123834 3.53905572 47.2464055 20.09215649 66 34 C66.74306396 34.51498047 67.48612793 35.02996094 68.25170898 35.56054688 C68.82864502 36.03556641 69.40558105 36.51058594 70 37 C70 37.66 70 38.32 70 39 C67.33333333 37.66666667 64.66666667 36.33333333 62 35 C62 34.34 62 33.68 62 33 C61.01 33 60.02 33 59 33 C59 32.34 59 31.68 59 31 C58.43152344 30.731875 57.86304688 30.46375 57.27734375 30.1875 C54.1036621 28.53261283 51.25116073 26.47906833 48.31640625 24.4375 C46.02984978 22.91861759 46.02984978 22.91861759 43.40234375 22 C40.91231451 20.96350003 39.81292596 19.93917429 38 18 C32.37723451 14.72857281 26.96683025 13.06410066 20.63671875 11.61328125 C15.23845704 10.35768556 15.23845704 10.35768556 13 7 C9.94570927 5.78715124 9.94570927 5.78715124 7 5 C7 4.34 7 3.68 7 3 C5.824375 2.814375 5.824375 2.814375 4.625 2.625 C2 2 2 2 0 0 Z " fill="#CBBB66" transform="translate(318,43)"/>
<path d="M0 0 C2 1 4 2 6 3 C6 3.66 6 4.32 6 5 C6.58426758 5.25974609 7.16853516 5.51949219 7.77050781 5.78710938 C10.15561164 7.084656 11.75190637 8.49341122 13.671875 10.40625 C14.33574219 11.06753906 14.99960937 11.72882813 15.68359375 12.41015625 C16.36550781 13.09980469 17.04742187 13.78945312 17.75 14.5 C18.44738281 15.18964844 19.14476562 15.87929687 19.86328125 16.58984375 C20.52199219 17.25113281 21.18070312 17.91242188 21.859375 18.59375 C22.46233398 19.19896484 23.06529297 19.80417969 23.68652344 20.42773438 C25 22 25 22 25 24 C25.66 24 26.32 24 27 24 C30 27.46153846 30 27.46153846 30 30 C30.66 30 31.32 30 32 30 C33.35693359 31.55712891 33.35693359 31.55712891 34.8984375 33.7265625 C35.46046875 34.51160156 36.0225 35.29664063 36.6015625 36.10546875 C37.47941406 37.35263672 37.47941406 37.35263672 38.375 38.625 C38.9525 39.43324219 39.53 40.24148437 40.125 41.07421875 C41.2502329 42.65416905 42.36861613 44.23902407 43.47949219 45.82910156 C44.41844392 47.16968583 45.36980908 48.50178756 46.34082031 49.81933594 C47.4765625 51.3984375 47.4765625 51.3984375 49 54 C48.67 54.99 48.34 55.98 48 57 C43.26622115 51.22110114 38.76924215 45.35971339 34.54296875 39.19921875 C33.28937969 37.41245764 31.93886874 35.69399229 30.5625 34 C29 32 29 32 29 30 C28.34 30 27.68 30 27 30 C26.71125 29.360625 26.4225 28.72125 26.125 28.0625 C25.17176549 25.84793921 25.17176549 25.84793921 23 25 C22.37544922 23.92105469 22.37544922 23.92105469 21.73828125 22.8203125 C19.60677504 19.36200355 17.05677803 16.72650059 14.1875 13.875 C13.67896484 13.35035156 13.17042969 12.82570313 12.64648438 12.28515625 C9.34647769 8.98096704 6.24213488 7.04432839 2 5 C0.625 2.3125 0.625 2.3125 0 0 Z " fill="#D9C153" transform="translate(388,82)"/>
<path d="M0 0 C14.52 0 29.04 0 44 0 C34.10093748 4.94953126 20.6307843 3.12592199 9.6875 3.0625 C8.15690253 3.05746888 6.62630343 3.05290886 5.09570312 3.04882812 C1.39710089 3.03796424 -2.30143864 3.02079101 -6 3 C-6 2.67 -6 2.34 -6 2 C-4.02 2 -2.04 2 0 2 C0 1.34 0 0.68 0 0 Z " fill="#4F648F" transform="translate(240,465)"/>
<path d="M0 0 C1.10392951 3.78375839 0.89992886 5.45922348 -1 9 C-1.845625 9.825 -2.69125 10.65 -3.5625 11.5 C-6.18946901 14.19432719 -6.49936721 15.39544388 -7 19 C-7.66 19.33 -8.32 19.66 -9 20 C-9.78015621 21.82510997 -10.47795406 23.68606676 -11.125 25.5625 C-11.47820313 26.57441406 -11.83140625 27.58632812 -12.1953125 28.62890625 C-12.46085937 29.41136719 -12.72640625 30.19382813 -13 31 C-13.99 31 -14.98 31 -16 31 C-16.103125 31.70125 -16.20625 32.4025 -16.3125 33.125 C-17.09359003 36.39137647 -18.42058743 39.0471852 -20 42 C-20.33 41.34 -20.66 40.68 -21 40 C-20.08110405 37.49419493 -19.09913413 35.11363068 -18 32.6875 C-17.67966797 31.97053955 -17.35933594 31.2535791 -17.02929688 30.51489258 C-12.1872069 19.8298403 -6.45477197 9.79006448 0 0 Z " fill="#D3BC58" transform="translate(68,129)"/>
<path d="M0 0 C8.36175138 12.54262707 8.21200842 30.50612213 9 45 C8.34 44.67 7.68 44.34 7 44 C6.65625 42.25 6.65625 42.25 6.5 40 C6.07754041 35.21468502 5.13515819 30.66186325 4 26 C3.34 26 2.68 26 2 26 C2.03480469 24.7315625 2.03480469 24.7315625 2.0703125 23.4375 C2.1752193 16.84335811 1.80628007 11.32198025 0 5 C-0.125 2 -0.125 2 0 0 Z " fill="#E0C54C" transform="translate(456,179)"/>
<path d="M0 0 C0.66 0.33 1.32 0.66 2 1 C-1.75 4 -1.75 4 -4 4 C-4 4.99 -4 5.98 -4 7 C-7.16216412 9.37162309 -10.41213553 11.34406255 -14 13 C-14 14.32 -14 15.64 -14 17 C-14.66 17 -15.32 17 -16 17 C-16.33 17.99 -16.66 18.98 -17 20 C-17.66 20 -18.32 20 -19 20 C-19 19.34 -19 18.68 -19 18 C-19.598125 18.350625 -20.19625 18.70125 -20.8125 19.0625 C-23 20 -23 20 -26 19 C-22.25 16 -22.25 16 -20 16 C-20 15.34 -20 14.68 -20 14 C-18.37939453 12.59545898 -18.37939453 12.59545898 -16.1328125 10.99609375 C-15.32972656 10.42052734 -14.52664062 9.84496094 -13.69921875 9.25195312 C-12.84972656 8.65318359 -12.00023438 8.05441406 -11.125 7.4375 C-10.28324219 6.83486328 -9.44148438 6.23222656 -8.57421875 5.61132812 C-2.35138628 1.17569314 -2.35138628 1.17569314 0 0 Z " fill="#D2BE5A" transform="translate(132,66)"/>
<path d="M0 0 C5.34506269 0.94910113 10.10296412 2.86474461 15.125 4.875 C16.03121094 5.22691406 16.93742187 5.57882813 17.87109375 5.94140625 C18.74121094 6.28816406 19.61132812 6.63492188 20.5078125 6.9921875 C21.69334717 7.46180908 21.69334717 7.46180908 22.90283203 7.94091797 C25.06446968 9.03255756 26.402191 10.19870551 28 12 C25.14380618 13.42809691 23.54498306 12.56733756 20.5 11.75 C19.5203125 11.49734375 18.540625 11.2446875 17.53125 10.984375 C15 10 15 10 13 7 C9.94570927 5.78715124 9.94570927 5.78715124 7 5 C7 4.34 7 3.68 7 3 C5.824375 2.814375 5.824375 2.814375 4.625 2.625 C2 2 2 2 0 0 Z " fill="#D6BF4D" transform="translate(318,43)"/>
<path d="M0 0 C0 0.99 0 1.98 0 3 C-0.763125 3.70125 -1.52625 4.4025 -2.3125 5.125 C-5.71472487 8.7645894 -6.73125674 12.26542149 -8 17 C-8.7425 17.04125 -9.485 17.0825 -10.25 17.125 C-14.09214133 18.34749951 -14.89038575 20.66544844 -17 24 C-19.25 25.375 -19.25 25.375 -21 26 C-19.63312778 22.01328937 -17.84804907 19.11505367 -15 16 C-14.34 16 -13.68 16 -13 16 C-12.690625 15.38125 -12.38125 14.7625 -12.0625 14.125 C-11.375 12.75 -10.6875 11.375 -10 10 C-9.34 10 -8.68 10 -8 10 C-7.79375 9.46375 -7.5875 8.9275 -7.375 8.375 C-5.42003056 4.9982346 -2.81776305 2.69525161 0 0 Z " fill="#D9C145" transform="translate(95,96)"/>
<path d="M0 0 C0.66 0.33 1.32 0.66 2 1 C1.649375 1.598125 1.29875 2.19625 0.9375 2.8125 C-0.33304698 5.10813214 -0.33304698 5.10813214 1 8 C-0.0625 9.5625 -0.0625 9.5625 -2 11 C-8.44444444 10.55555556 -8.44444444 10.55555556 -10 9 C-10.99 8.67 -11.98 8.34 -13 8 C-11.58531689 7.03874097 -10.1681636 6.08111675 -8.75 5.125 C-7.96109375 4.59132813 -7.1721875 4.05765625 -6.359375 3.5078125 C-4.26684277 2.17053197 -2.30109848 0.93420665 0 0 Z " fill="#F5CF1D" transform="translate(141,62)"/>
<path d="M0 0 C2 1 4 2 6 3 C6 3.66 6 4.32 6 5 C6.58426758 5.2582959 7.16853516 5.5165918 7.77050781 5.78271484 C10.17716622 7.09673136 11.75319337 8.52480015 13.671875 10.4765625 C14.33574219 11.146875 14.99960937 11.8171875 15.68359375 12.5078125 C16.36550781 13.20648438 17.04742187 13.90515625 17.75 14.625 C18.44738281 15.33140625 19.14476562 16.0378125 19.86328125 16.765625 C21.58012488 18.50598703 23.29211832 20.25084981 25 22 C24.67 22.66 24.34 23.32 24 24 C23.5467334 23.53102295 23.0934668 23.0620459 22.62646484 22.57885742 C20.55071011 20.44040146 18.46305132 18.31394806 16.375 16.1875 C15.66214844 15.44951172 14.94929688 14.71152344 14.21484375 13.95117188 C10.34911992 10.03225002 7.07434362 7.28964285 2 5 C0.625 2.3125 0.625 2.3125 0 0 Z " fill="#C6B36A" transform="translate(388,82)"/>
<path d="M0 0 C12.4997815 0.31536146 25.24403925 3.87678375 37 8 C33.13466945 9.42911725 30.12956934 8.58866645 26.1875 7.6875 C24.93710937 7.40390625 23.68671875 7.1203125 22.3984375 6.828125 C20.02332856 6.24936282 17.6615408 5.61434226 15.3125 4.9375 C11.33321777 3.81128805 7.34293589 3.18584308 3.2578125 2.5625 C2.51273437 2.376875 1.76765625 2.19125 1 2 C0.67 1.34 0.34 0.68 0 0 Z " fill="#C5B562" transform="translate(280,34)"/>
<path d="M0 0 C0.66 0.33 1.32 0.66 2 1 C2 2.32 2 3.64 2 5 C2.969375 5.2475 3.93875 5.495 4.9375 5.75 C5.948125 6.1625 6.95875 6.575 8 7 C8.3721042 8.32303717 8.70630173 9.65737935 9 11 C11.49034386 12.29660434 11.49034386 12.29660434 14 13 C14 13.99 14 14.98 14 16 C10.01328937 14.63312778 7.11505367 12.84804907 4 10 C4 9.34 4 8.68 4 8 C3.38125 7.690625 2.7625 7.38125 2.125 7.0625 C0.75 6.375 -0.625 5.6875 -2 5 C-2 4.34 -2 3.68 -2 3 C-1.34 3 -0.68 3 0 3 C0 2.01 0 1.02 0 0 Z " fill="#4D648F" transform="translate(108,410)"/>
<path d="M0 0 C0.99 0 1.98 0 3 0 C3 0.99 3 1.98 3 3 C4.134375 3.28875 5.26875 3.5775 6.4375 3.875 C7.613125 4.24625 8.78875 4.6175 10 5 C10.33 5.66 10.66 6.32 11 7 C9.5625 9.625 9.5625 9.625 8 12 C4.72257902 8.89973691 2.06895163 6.02901106 0 2 C0 1.34 0 0.68 0 0 Z " fill="#2C4882" transform="translate(66,366)"/>
<path d="M0 0 C0.33 0.66 0.66 1.32 1 2 C-0.43554025 2.50559908 -1.8735202 3.0042749 -3.3125 3.5 C-4.51326172 3.91765625 -4.51326172 3.91765625 -5.73828125 4.34375 C-8 5 -8 5 -11 5 C-11 5.66 -11 6.32 -11 7 C-15.58154261 9.39542583 -20.0276578 11.50829734 -25 13 C-22.77238918 9.65858377 -21.25320771 8.83774831 -17.75 7 C-16.26693359 6.22076172 -16.26693359 6.22076172 -14.75390625 5.42578125 C-13.39072266 4.72001953 -13.39072266 4.72001953 -12 4 C-10.906875 3.401875 -9.81375 2.80375 -8.6875 2.1875 C-5.78092395 0.90319895 -3.14598669 0.37452223 0 0 Z " fill="#D4BD61" transform="translate(159,53)"/>
<path d="M0 0 C0.97582031 0.0721875 1.95164063 0.144375 2.95703125 0.21875 C4.22933594 0.3115625 5.50164062 0.404375 6.8125 0.5 C8.07707031 0.5928125 9.34164062 0.685625 10.64453125 0.78125 C12.75978517 0.91914781 14.88025592 1 17 1 C17 1.66 17 2.32 17 3 C20.63 3.99 24.26 4.98 28 6 C28 6.33 28 6.66 28 7 C22.28274316 6.37194347 16.78133394 5.39060356 11.1875 4.0625 C10.43791016 3.89298828 9.68832031 3.72347656 8.91601562 3.54882812 C5.46227322 2.73709063 2.98052617 1.98701745 0 0 Z " fill="#5C6F94" transform="translate(186,458)"/>
<path d="M0 0 C2.64 0 5.28 0 8 0 C8 0.66 8 1.32 8 2 C6.35 1.67 4.7 1.34 3 1 C2.67 7.6 2.34 14.2 2 21 C1.67 21 1.34 21 1 21 C-0.10087193 13.98194143 -0.09733092 7.09434233 0 0 Z " fill="#0B2B67" transform="translate(33,251)"/>
<path d="M0 0 C2.31 0 4.62 0 7 0 C3.33494586 3.99824088 -0.11112852 6.60168569 -5 9 C-5.66 8.67 -6.32 8.34 -7 8 C-7 7.01 -7 6.02 -7 5 C-5.68 5 -4.36 5 -3 5 C-3 4.34 -3 3.68 -3 3 C-2.01 2.67 -1.02 2.34 0 2 C0 1.34 0 0.68 0 0 Z " fill="#334D86" transform="translate(368,428)"/>
<path d="M0 0 C-2.43123269 1.36663387 -4.86886163 2.7183867 -7.3125 4.0625 C-8.00279297 4.45244141 -8.69308594 4.84238281 -9.40429688 5.24414062 C-11.22925688 6.24037483 -13.11273877 7.12752842 -15 8 C-15.99 7.67 -16.98 7.34 -18 7 C-16.68 6.67 -15.36 6.34 -14 6 C-13.67 4.68 -13.34 3.36 -13 2 C-11.21089097 1.47044766 -9.41860852 0.9516063 -7.625 0.4375 C-6.62726563 0.14746094 -5.62953125 -0.14257812 -4.6015625 -0.44140625 C-2 -1 -2 -1 0 0 Z " fill="#566792" transform="translate(358,440)"/>
<path d="M0 0 C4.455 0.99 4.455 0.99 9 2 C9.33 3.32 9.66 4.64 10 6 C12.2869518 7.0332159 12.2869518 7.0332159 15 7.5625 C17.75 8.19140625 17.75 8.19140625 20 9 C20.33 9.99 20.66 10.98 21 12 C15.020048 10.42632842 10.19166035 7.23347467 5 4 C4.07316406 3.46246094 3.14632812 2.92492187 2.19140625 2.37109375 C1.46824219 1.91863281 0.74507812 1.46617187 0 1 C0 0.67 0 0.34 0 0 Z " fill="#7586A2" transform="translate(134,434)"/>
<path d="M0 0 C2 1 2 1 3.125 3.9375 C4.363999 8.58374625 4.17279393 13.22896766 4 18 C0.5965383 14.5965383 0.14884531 9.55827869 -0.125 4.8515625 C-0.125 3.23383832 -0.06877709 1.6162615 0 0 Z " fill="#495C89" transform="translate(35,284)"/>
<path d="M0 0 C0.33 0 0.66 0 1 0 C1.24911914 8.58077055 0.69882188 16.58173087 -1 25 C-1.33 25 -1.66 25 -2 25 C-2 19.72 -2 14.44 -2 9 C-1.34 9 -0.68 9 0 9 C0 6.03 0 3.06 0 0 Z " fill="#F4CE23" transform="translate(37,207)"/>
<path d="M0 0 C1.98 0 3.96 0 6 0 C6 0.99 6 1.98 6 3 C5.34 3 4.68 3 4 3 C3.67 3.99 3.34 4.98 3 6 C2.34 6 1.68 6 1 6 C1 5.34 1 4.68 1 4 C0.401875 4.350625 -0.19625 4.70125 -0.8125 5.0625 C-3 6 -3 6 -6 5 C-2.25 2 -2.25 2 0 2 C0 1.34 0 0.68 0 0 Z " fill="#F4D118" transform="translate(112,80)"/>
<path d="M0 0 C2.41276856 2.41276856 2.8306806 4.17218155 3.75 7.4375 C4.03359375 8.40558594 4.3171875 9.37367188 4.609375 10.37109375 C5 13 5 13 3 16 C2.29695778 14.27709395 1.61316509 12.54632534 0.9375 10.8125 C0.55464844 9.84957031 0.17179687 8.88664062 -0.22265625 7.89453125 C-1.05622133 4.79065325 -0.88679818 3.05080883 0 0 Z " fill="#46608B" transform="translate(43,313)"/>
<path d="M0 0 C-5.22531563 3.48354375 -10.8131337 4.30934332 -17 4 C-17.33 3.34 -17.66 2.68 -18 2 C-11.84629161 0.176679 -6.40353322 -0.2361959 0 0 Z " fill="#485E8A" transform="translate(311,459)"/>
<path d="M0 0 C0.66 0 1.32 0 2 0 C0.34627709 3.90879961 -2.30176354 6.76211625 -5 10 C-5.350625 10.7425 -5.70125 11.485 -6.0625 12.25 C-7.28374255 14.52965275 -8.64557703 15.05823081 -11 16 C-9.63312778 12.01328937 -7.84804907 9.11505367 -5 6 C-4.34 6 -3.68 6 -3 6 C-2.690625 5.38125 -2.38125 4.7625 -2.0625 4.125 C-1.375 2.75 -0.6875 1.375 0 0 Z " fill="#CAB66D" transform="translate(85,106)"/>
<path d="M0 0 C0.66 0 1.32 0 2 0 C1.45484328 7.08703739 -0.60918605 13.32796106 -3 20 C-5.07680621 13.76958138 -2.2607165 5.97475075 0 0 Z " fill="#5F6E96" transform="translate(459,303)"/>
<path d="M0 0 C8.30150517 1.32267168 8.30150517 1.32267168 11.0625 4 C12 6 12 6 12 8 C7.44328408 6.48109469 3.68276708 4.04597738 0 1 C0 0.67 0 0.34 0 0 Z " fill="#445A8A" transform="translate(122,426)"/>
<path d="M0 0 C2.5 1.125 2.5 1.125 5 3 C5.1875 5.9375 5.1875 5.9375 5 9 C5.65129797 10.34090759 6.31513275 11.67592331 7 13 C6.67 13.99 6.34 14.98 6 16 C4.9955866 13.7101766 3.99632388 11.4183401 3 9.125 C2.71382812 8.47402344 2.42765625 7.82304687 2.1328125 7.15234375 C0 2.2265625 0 2.2265625 0 0 Z " fill="#5C6F9A" transform="translate(47,329)"/>
<path d="M0 0 C3.33511388 2.9901021 5.21521119 5.89498574 7 10 C7 10.66 7 11.32 7 12 C6.01 12 5.02 12 4 12 C3.32332002 10.75539217 2.65905281 9.50403104 2 8.25 C1.62875 7.55390625 1.2575 6.8578125 0.875 6.140625 C0 4 0 4 0 0 Z " fill="#D2BC53" transform="translate(437,139)"/>
<path d="M0 0 C1.98 0.66 3.96 1.32 6 2 C6 3.32 6 4.64 6 6 C6.99 6 7.98 6 9 6 C9.33 7.65 9.66 9.3 10 11 C8.8944811 10.06409496 7.79064547 9.12620142 6.6875 8.1875 C6.07261719 7.66542969 5.45773438 7.14335937 4.82421875 6.60546875 C1.48047722 3.6626898 1.48047722 3.6626898 0 2 C0 1.34 0 0.68 0 0 Z " fill="#4D618E" transform="translate(87,394)"/>
<path d="M0 0 C1.65 0 3.3 0 5 0 C3.6062718 4.43458973 1.39417765 6.87378374 -2 10 C-2 8.68 -2 7.36 -2 6 C-1.34 6 -0.68 6 0 6 C0 4.02 0 2.04 0 0 Z " fill="#435888" transform="translate(428,368)"/>
<path d="M0 0 C1.32 0 2.64 0 4 0 C4.66 0.99 5.32 1.98 6 3 C5.125 5.6875 5.125 5.6875 4 8 C1.84622436 5.37801226 0.59927826 3.35595828 0 0 Z " fill="#395289" transform="translate(54,345)"/>
<path d="M0 0 C0.66 0.33 1.32 0.66 2 1 C0.625 2.5 0.625 2.5 -1 4 C-1.66 4 -2.32 4 -3 4 C-3 4.66 -3 5.32 -3 6 C-5 7.625 -5 7.625 -7 9 C-7.66 8.67 -8.32 8.34 -9 8 C-8.34 6.68 -7.68 5.36 -7 4 C-6.01 4 -5.02 4 -4 4 C-4 3.34 -4 2.68 -4 2 C-2.125 0.9375 -2.125 0.9375 0 0 Z " fill="#67779B" transform="translate(397,409)"/>
<path d="M0 0 C0.33 0.99 0.66 1.98 1 3 C-5.75 2.25 -5.75 2.25 -8 0 C-5.13822943 -1.43088528 -3.06624227 -0.59991697 0 0 Z " fill="#495A8F" transform="translate(185,455)"/>
<path d="M0 0 C3.3 0.33 6.6 0.66 10 1 C10.33 2.32 10.66 3.64 11 5 C9.53932801 4.54917531 8.08151968 4.08906463 6.625 3.625 C5.81289062 3.36976563 5.00078125 3.11453125 4.1640625 2.8515625 C2 2 2 2 0 0 Z " fill="#556C96" transform="translate(155,446)"/>
<path d="M0 0 C-1.64169528 2.02054804 -3.30911778 4.02043058 -5 6 C-5.33 6 -5.66 6 -6 6 C-6 4.02 -6 2.04 -6 0 C-3 -1 -3 -1 0 0 Z " fill="#364F81" transform="translate(407,401)"/>
<path d="M0 0 C0.66 0.33 1.32 0.66 2 1 C0.8125 3 0.8125 3 -1 5 C-3.6875 5.25 -3.6875 5.25 -6 5 C-6.33 4.34 -6.66 3.68 -7 3 C-4.69631264 1.93347808 -2.35981813 0.93578995 0 0 Z " fill="#F1D022" transform="translate(168,49)"/>
<path d="M0 0 C2.31 0 4.62 0 7 0 C5.35 1.65 3.7 3.3 2 5 C1.34 4.67 0.68 4.34 0 4 C0 2.68 0 1.36 0 0 Z " fill="#495F8B" transform="translate(368,428)"/>
<path d="M0 0 C2.5 2.3125 2.5 2.3125 5 5 C5 5.99 5 6.98 5 8 C2.5 6.25 2.5 6.25 0 4 C0 2.68 0 1.36 0 0 Z " fill="#CDBC5F" transform="translate(420,114)"/>
<path d="M0 0 C6.4 -0.49230769 6.4 -0.49230769 9.4375 2 C10.2109375 2.99 10.2109375 2.99 11 4 C7.0507432 3.44894091 3.65079826 2.61064629 0 1 C0 0.67 0 0.34 0 0 Z " fill="#566792" transform="translate(166,451)"/>
<path d="M0 0 C1.48206495 0.254496 2.96068615 0.52911762 4.4375 0.8125 C5.67306641 1.03873047 5.67306641 1.03873047 6.93359375 1.26953125 C7.95646484 1.63111328 7.95646484 1.63111328 9 2 C9.33 2.99 9.66 3.98 10 5 C6.05140217 4.4359146 3.29120954 3.2568294 0 1 C0 0.67 0 0.34 0 0 Z " fill="#4A608A" transform="translate(134,434)"/>
<path d="M0 0 C0.33 0 0.66 0 1 0 C1.33 3.3 1.66 6.6 2 10 C1.01 10.33 0.02 10.66 -1 11 C-0.67 7.37 -0.34 3.74 0 0 Z " fill="#F5CF24" transform="translate(459,194)"/>
<path d="M0 0 C2.27618181 2.1677922 4.32954824 4.32727719 6 7 C5.67 7.99 5.34 8.98 5 10 C0 4.5 0 4.5 0 0 Z " fill="#D1BD69" transform="translate(431,129)"/>
<path d="M0 0 C2.86697492 1.28519565 4.97607712 2.57129254 7 5 C7 5.66 7 6.32 7 7 C4.625 6.3125 4.625 6.3125 2 5 C0.6875 2.375 0.6875 2.375 0 0 Z " fill="#DBC159" transform="translate(388,82)"/>
<path d="M0 0 C2.50298434 2.93828597 3.46930939 5.17902761 4 9 C3.01 8.67 2.02 8.34 1 8 C0.67 5.36 0.34 2.72 0 0 Z " fill="#D3BB5C" transform="translate(444,151)"/>
<path d="M0 0 C0 3 0 3 -2 6 C-2.66 6 -3.32 6 -4 6 C-4 4.35 -4 2.7 -4 1 C-2.68 0.67 -1.36 0.34 0 0 Z " fill="#566997" transform="translate(417,388)"/>
<path d="M0 0 C3.14958831 3.42346555 3.56179109 6.44262737 4 11 C3.34 10.67 2.68 10.34 2 10 C2 8.68 2 7.36 2 6 C1.34 6 0.68 6 0 6 C0 4.02 0 2.04 0 0 Z " fill="#ECCD35" transform="translate(453,175)"/>
<path d="M0 0 C0.66 0 1.32 0 2 0 C1.75 1.875 1.75 1.875 1 4 C-0.875 5.3125 -0.875 5.3125 -3 6 C-3.99 5.67 -4.98 5.34 -6 5 C-2.25 2 -2.25 2 0 2 C0 1.34 0 0.68 0 0 Z " fill="#CCB45E" transform="translate(112,80)"/>
</svg>
