<?xml version="1.0" encoding="UTF-8"?>
<svg version="1.1" xmlns="http://www.w3.org/2000/svg" width="500" height="500">
<path d="M0 0 C29.92980323 -0.73518193 61.72021012 3.3553765 88.70996094 17.06201172 C89.89203125 17.62404297 91.07410156 18.18607422 92.29199219 18.76513672 C108.61885697 26.58418068 123.33139296 35.91900507 137.08740234 47.69824219 C138.57504785 48.94861652 140.11513336 50.13589845 141.65917969 51.31591797 C142.67431641 52.18023437 142.67431641 52.18023437 143.70996094 53.06201172 C143.70996094 53.72201172 143.70996094 54.38201172 143.70996094 55.06201172 C144.36996094 55.06201172 145.02996094 55.06201172 145.70996094 55.06201172 C145.70996094 55.72201172 145.70996094 56.38201172 145.70996094 57.06201172 C146.36996094 57.06201172 147.02996094 57.06201172 147.70996094 57.06201172 C147.70996094 57.72201172 147.70996094 58.38201172 147.70996094 59.06201172 C148.36996094 59.06201172 149.02996094 59.06201172 149.70996094 59.06201172 C149.70996094 59.72201172 149.70996094 60.38201172 149.70996094 61.06201172 C150.36996094 61.06201172 151.02996094 61.06201172 151.70996094 61.06201172 C151.70996094 61.72201172 151.70996094 62.38201172 151.70996094 63.06201172 C152.29261719 63.29919922 152.87527344 63.53638672 153.47558594 63.78076172 C156.18548931 65.33469232 157.57526896 67.08130603 159.45996094 69.56201172 C160.07355469 70.35607422 160.68714844 71.15013672 161.31933594 71.96826172 C162.70996094 74.06201172 162.70996094 74.06201172 162.70996094 76.06201172 C163.36996094 76.06201172 164.02996094 76.06201172 164.70996094 76.06201172 C166.21656669 78.01155957 167.59862742 79.95173472 168.95996094 81.99951172 C169.56602173 82.89802856 169.56602173 82.89802856 170.18432617 83.81469727 C170.99532605 85.01818423 171.80387633 86.22332586 172.60986328 87.43017578 C173.5040329 88.75654722 174.42535539 90.06458351 175.35449219 91.36669922 C179.91792775 97.82842341 183.32668715 104.8655663 186.72070312 111.98876953 C187.35206283 113.3119449 187.990075 114.63198037 188.63671875 115.94775391 C209.78934968 159.15460331 212.00743587 214.25123184 196.88574219 259.68701172 C192.02722599 273.69161194 186.66604247 288.09079054 177.99902344 300.23388672 C176.52019919 302.26199798 176.52019919 302.26199798 174.83496094 305.43701172 C171.94288958 310.63068986 168.24805684 315.29919031 164.70996094 320.06201172 C164.12214844 320.88185547 163.53433594 321.70169922 162.92871094 322.54638672 C162.40277344 323.27341797 161.87683594 324.00044922 161.33496094 324.74951172 C160.64273438 325.714375 160.64273438 325.714375 159.93652344 326.69873047 C159.53175781 327.14861328 159.12699219 327.59849609 158.70996094 328.06201172 C158.04996094 328.06201172 157.38996094 328.06201172 156.70996094 328.06201172 C156.45126221 328.64450684 156.19256348 329.22700195 155.92602539 329.82714844 C153.70268097 333.91317429 150.17656632 336.93241969 146.89746094 340.18701172 C146.13062988 340.94892822 145.36379883 341.71084473 144.57373047 342.49584961 C138.31905251 348.62350588 131.88899062 354.02793603 124.70996094 359.06201172 C123.89688477 359.64958252 123.89688477 359.64958252 123.06738281 360.24902344 C106.2125789 372.40186438 87.46927836 381.70567326 67.70996094 388.06201172 C66.49179687 388.45904297 65.27363281 388.85607422 64.01855469 389.26513672 C18.29643736 403.20544098 -35.94499077 399.53175711 -78.60400391 377.5234375 C-81.28353932 376.07369116 -83.93393726 374.58023355 -86.56787109 373.04931641 C-89.0593465 371.62097411 -91.61626504 370.32215742 -94.16503906 368.99951172 C-99.91488993 365.83493214 -105.08096715 362.04010135 -110.29003906 358.06201172 C-111.34835938 357.28341797 -112.40667969 356.50482422 -113.49707031 355.70263672 C-120.72839075 350.29664742 -127.2659604 344.36981393 -133.66503906 337.99951172 C-134.7993335 336.87331421 -134.7993335 336.87331421 -135.95654297 335.72436523 C-141.29003906 330.31979706 -141.29003906 330.31979706 -141.29003906 328.06201172 C-141.95003906 328.06201172 -142.61003906 328.06201172 -143.29003906 328.06201172 C-144.93918276 326.13851322 -146.46702605 324.21547925 -147.97753906 322.18701172 C-148.4201709 321.60000488 -148.86280273 321.01299805 -149.31884766 320.40820312 C-150.65128123 318.63242819 -151.97218563 316.84862506 -153.29003906 315.06201172 C-154.0209375 314.07716797 -154.75183594 313.09232422 -155.50488281 312.07763672 C-160.29003906 305.46257409 -160.29003906 305.46257409 -160.29003906 302.06201172 C-160.95003906 302.06201172 -161.61003906 302.06201172 -162.29003906 302.06201172 C-174.54190754 281.11371895 -184.55578807 257.12406509 -188.29003906 233.06201172 C-188.49242187 231.82322266 -188.69480469 230.58443359 -188.90332031 229.30810547 C-193.95533706 194.5182702 -189.98115908 158.74120935 -177.29003906 126.06201172 C-176.89042969 125.02044922 -176.49082031 123.97888672 -176.07910156 122.90576172 C-171.20040939 110.72540275 -165.43433509 97.45149206 -157.29003906 87.06201172 C-156.63003906 87.06201172 -155.97003906 87.06201172 -155.29003906 87.06201172 C-155.04253906 86.36076172 -154.79503906 85.65951172 -154.54003906 84.93701172 C-153.11823668 81.66686624 -151.41757618 78.92088972 -149.29003906 76.06201172 C-148.63003906 76.06201172 -147.97003906 76.06201172 -147.29003906 76.06201172 C-147.03222656 75.49998047 -146.77441406 74.93794922 -146.50878906 74.35888672 C-145.1483413 71.79496593 -143.56214945 69.60974806 -141.79003906 67.31201172 C-141.18160156 66.51279297 -140.57316406 65.71357422 -139.94628906 64.89013672 C-139.39972656 64.28685547 -138.85316406 63.68357422 -138.29003906 63.06201172 C-137.63003906 63.06201172 -136.97003906 63.06201172 -136.29003906 63.06201172 C-136.29003906 62.40201172 -136.29003906 61.74201172 -136.29003906 61.06201172 C-135.63003906 61.06201172 -134.97003906 61.06201172 -134.29003906 61.06201172 C-134.29003906 60.40201172 -134.29003906 59.74201172 -134.29003906 59.06201172 C-133.63003906 59.06201172 -132.97003906 59.06201172 -132.29003906 59.06201172 C-132.29003906 58.40201172 -132.29003906 57.74201172 -132.29003906 57.06201172 C-131.63003906 57.06201172 -130.97003906 57.06201172 -130.29003906 57.06201172 C-130.06316406 56.48966797 -129.83628906 55.91732422 -129.60253906 55.32763672 C-127.92568544 52.43306797 -125.91319136 50.88370586 -123.29003906 48.81201172 C-122.29617187 48.02310547 -121.30230469 47.23419922 -120.27832031 46.42138672 C-118.79912109 45.25349609 -118.79912109 45.25349609 -117.29003906 44.06201172 C-116.47921875 43.38654297 -115.66839844 42.71107422 -114.83300781 42.01513672 C-99.55779353 29.34912156 -81.91247066 19.77009192 -63.29003906 13.06201172 C-61.6417883 12.38032776 -59.99581501 11.69310222 -58.35253906 10.99951172 C-39.8147166 3.62584112 -19.83925887 0.53722513 0 0 Z " fill="#FEFEFE" transform="translate(242.2900390625,48.93798828125)"/>
<path d="M0 0 C1.30930346 3.60879698 0.69694491 5.49654801 -0.80859375 8.96484375 C-1.22222168 9.92390625 -1.63584961 10.88296875 -2.06201172 11.87109375 C-2.51592285 12.88300781 -2.96983398 13.89492188 -3.4375 14.9375 C-4.12223389 16.48824219 -4.12223389 16.48824219 -4.82080078 18.0703125 C-8.31555564 25.83156537 -12.29268673 32.90588001 -17 40 C-17.68001261 41.20087333 -18.34910043 42.40810081 -19 43.625 C-21.98905168 48.66902472 -25.50644615 53.29713905 -29 58 C-29.5878125 58.81984375 -30.175625 59.6396875 -30.78125 60.484375 C-31.3071875 61.21140625 -31.833125 61.9384375 -32.375 62.6875 C-32.83648437 63.33074219 -33.29796875 63.97398437 -33.7734375 64.63671875 C-34.17820312 65.08660156 -34.58296875 65.53648437 -35 66 C-35.66 66 -36.32 66 -37 66 C-37.25869873 66.58249512 -37.51739746 67.16499023 -37.78393555 67.76513672 C-40.00727996 71.85116257 -43.53339462 74.87040797 -46.8125 78.125 C-47.57933105 78.8869165 -48.34616211 79.64883301 -49.13623047 80.43383789 C-55.39090842 86.56149416 -61.82097032 91.96592431 -69 97 C-69.54205078 97.39171387 -70.08410156 97.78342773 -70.64257812 98.18701172 C-87.49738204 110.33985266 -106.24068258 119.64366155 -126 126 C-127.82724609 126.59554687 -127.82724609 126.59554687 -129.69140625 127.203125 C-175.41352358 141.14342926 -229.65495171 137.4697454 -272.31396484 115.46142578 C-274.99350026 114.01167944 -277.64389819 112.51822183 -280.27783203 110.98730469 C-282.76930744 109.55896239 -285.32622598 108.2601457 -287.875 106.9375 C-293.62485087 103.77292042 -298.79092809 99.97808963 -304 96 C-305.05832031 95.22140625 -306.11664063 94.4428125 -307.20703125 93.640625 C-314.43835168 88.2346357 -320.97592134 82.30780221 -327.375 75.9375 C-328.13119629 75.18670166 -328.88739258 74.43590332 -329.66650391 73.66235352 C-335 68.25778534 -335 68.25778534 -335 66 C-335.66 66 -336.32 66 -337 66 C-338.64914369 64.07650151 -340.17698699 62.15346753 -341.6875 60.125 C-342.13013184 59.53799316 -342.57276367 58.95098633 -343.02880859 58.34619141 C-344.36124216 56.57041647 -345.68214657 54.78661334 -347 53 C-347.73089844 52.01515625 -348.46179688 51.0303125 -349.21484375 50.015625 C-354 43.40056237 -354 43.40056237 -354 40 C-354.66 40 -355.32 40 -356 40 C-360.0294464 33.11043675 -363.49147127 26.00192032 -366.8125 18.75 C-367.20945068 17.89889648 -367.60640137 17.04779297 -368.01538086 16.17089844 C-368.38800049 15.3462207 -368.76062012 14.52154297 -369.14453125 13.671875 C-369.47815674 12.9406543 -369.81178223 12.20943359 -370.15551758 11.45605469 C-371 9 -371 9 -372 2 C-249.24 2 -126.48 2 0 2 C0 1.34 0 0.68 0 0 Z " fill="#F4362E" transform="translate(436,311)"/>
<path d="M0 0 C30.85771062 -0.5966045 63.08401778 2.82298193 91 17 C92.18207031 17.56203125 93.36414063 18.1240625 94.58203125 18.703125 C110.90889604 26.52216896 125.62143202 35.85699335 139.37744141 47.63623047 C140.86508691 48.8866048 142.40517242 50.07388674 143.94921875 51.25390625 C144.96435547 52.11822266 144.96435547 52.11822266 146 53 C146 53.66 146 54.32 146 55 C146.66 55 147.32 55 148 55 C148 55.66 148 56.32 148 57 C148.66 57 149.32 57 150 57 C150 57.66 150 58.32 150 59 C150.66 59 151.32 59 152 59 C152 59.66 152 60.32 152 61 C152.66 61 153.32 61 154 61 C154 61.66 154 62.32 154 63 C154.58265625 63.2371875 155.1653125 63.474375 155.765625 63.71875 C158.47552837 65.2726806 159.86530802 67.01929431 161.75 69.5 C162.36359375 70.2940625 162.9771875 71.088125 163.609375 71.90625 C165 74 165 74 165 76 C165.66 76 166.32 76 167 76 C168.50660576 77.94954785 169.88866648 79.889723 171.25 81.9375 C171.65404053 82.53651123 172.05808105 83.13552246 172.47436523 83.75268555 C173.28536512 84.95617251 174.09391539 86.16131415 174.89990234 87.36816406 C175.79407196 88.69453551 176.71539445 90.00257179 177.64453125 91.3046875 C186.50625941 103.85269927 191.48407013 116.90442078 194 132 C133.28 132 72.56 132 10 132 C10 88.77 10 45.54 10 1 C6.7 1 3.4 1 0 1 C0 0.67 0 0.34 0 0 Z " fill="#0384D6" transform="translate(240,49)"/>
<path d="M0 0 C4.9206863 0.42177311 6.60828528 2.60828528 10 6 C15.06903608 8.3576912 20.49021886 8.58622197 26 9 C26 10.65 26 12.3 26 14 C26.66 14 27.32 14 28 14 C28.99 11.03 29.98 8.06 31 5 C35.89572933 6.22393233 36.75404028 7.62879211 39.56640625 11.5703125 C41.54589252 14.92519113 42.65625712 18.41430687 43.89453125 22.09375 C47.31861959 31.09559355 53.2921531 39.1045568 58.71142578 47.01269531 C60.51580652 49.66250494 61.98048155 51.94144466 63 55 C63.99 55.33 64.98 55.66 66 56 C67.32294637 57.58286299 68.58453654 59.21736672 69.8125 60.875 C81.75354331 75.76754513 99.21533592 85.7606289 117 92 C123.65921788 94.65921788 123.65921788 94.65921788 125 96 C125 107.55 125 119.1 125 131 C59.99 131 -5.02 131 -72 131 C-72 102.70454545 -72 102.70454545 -70 93 C-69.80664062 92.03368652 -69.80664062 92.03368652 -69.609375 91.04785156 C-67.36144512 80.01114028 -64.03111422 69.50746382 -60 59 C-59.59910156 57.95328125 -59.19820312 56.9065625 -58.78515625 55.828125 C-53.89876143 43.65326921 -48.14307578 30.3879237 -40 20 C-39.34 20 -38.68 20 -38 20 C-37.34 18.35 -36.68 16.7 -36 15 C-35.04480469 14.93941406 -34.08960938 14.87882813 -33.10546875 14.81640625 C-25.39161337 14.31650535 -17.69430925 13.75183479 -10 13 C-9.34 13.99 -8.68 14.98 -8 16 C-7.82984375 15.39671875 -7.6596875 14.7934375 -7.484375 14.171875 C-6.03550105 9.39367367 -4.86029574 6.34558964 -1 3 C-0.67 2.01 -0.34 1.02 0 0 Z " fill="#012B7F" transform="translate(125,116)"/>
<path d="M0 0 C0 43.23 0 86.46 0 131 C60.39 130.67 120.78 130.34 183 130 C182.34 127.36 181.68 124.72 181 122 C181.33 120.68 181.66 119.36 182 118 C189.36483254 133.79784689 189.36483254 133.79784689 189 140 C187.5268006 137.25002779 186.77595125 135.10380501 186 132 C124.62 132 63.24 132 0 132 C0 141.9 0 151.8 0 162 C-3.3 160.68 -6.6 159.36 -10 158 C-11.72551681 157.42640139 -13.45394133 156.86131505 -15.1875 156.3125 C-26.65913575 152.16906216 -36.8021522 144.86945662 -46 137 C-46.63292969 136.49984375 -47.26585937 135.9996875 -47.91796875 135.484375 C-52.02591586 132.18350801 -55.1192631 128.49778879 -58.2265625 124.24609375 C-60.00649208 121.88941187 -60.00649208 121.88941187 -62.4296875 119.6484375 C-65.25423672 116.73803572 -67.37939366 113.61727752 -69.5 110.1875 C-69.89018311 109.56584961 -70.28036621 108.94419922 -70.68237305 108.30371094 C-71.44993688 107.0800816 -72.21524828 105.85503572 -72.97802734 104.62841797 C-73.81601499 103.29316293 -74.67988247 101.97418236 -75.55078125 100.66015625 C-78.33667706 96.44249975 -80.2306696 92.17478551 -82.03515625 87.45703125 C-84.24750812 81.82314735 -86.74623802 76.39098011 -91 72 C-91.99 72 -92.98 72 -94 72 C-94.99 74.64 -95.98 77.28 -97 80 C-97.66 80 -98.32 80 -99 80 C-99 78.35 -99 76.7 -99 75 C-99.64066406 75.03480469 -100.28132813 75.06960937 -100.94140625 75.10546875 C-106.70433565 75.28582869 -110.86088078 74.92224426 -116 72 C-117.68615782 70.35305515 -119.35570171 68.68873879 -121 67 C-123.17346568 66.13880866 -123.17346568 66.13880866 -125 66 C-125.0825 66.7425 -125.165 67.485 -125.25 68.25 C-126 71 -126 71 -127.875 72.8125 C-130.85566542 75.88083205 -131.65257037 78.9577111 -133 83 C-133.66 81.68 -134.32 80.36 -135 79 C-135.94746094 79.2165625 -135.94746094 79.2165625 -136.9140625 79.4375 C-144.66646318 81.04606729 -152.10127559 81.20755772 -160 81 C-159.01 79.02 -158.02 77.04 -157 75 C-156.34 75 -155.68 75 -155 75 C-154.7421875 74.43796875 -154.484375 73.8759375 -154.21875 73.296875 C-152.85830223 70.73295421 -151.27211038 68.54773635 -149.5 66.25 C-148.8915625 65.45078125 -148.283125 64.6515625 -147.65625 63.828125 C-147.1096875 63.22484375 -146.563125 62.6215625 -146 62 C-145.34 62 -144.68 62 -144 62 C-144 61.34 -144 60.68 -144 60 C-143.34 60 -142.68 60 -142 60 C-142 59.34 -142 58.68 -142 58 C-141.34 58 -140.68 58 -140 58 C-140 57.34 -140 56.68 -140 56 C-139.34 56 -138.68 56 -138 56 C-137.773125 55.42765625 -137.54625 54.8553125 -137.3125 54.265625 C-135.63564638 51.37105625 -133.6231523 49.82169415 -131 47.75 C-130.00613281 46.96109375 -129.01226562 46.1721875 -127.98828125 45.359375 C-127.00214844 44.58078125 -126.01601562 43.8021875 -125 43 C-124.18917969 42.32453125 -123.37835938 41.6490625 -122.54296875 40.953125 C-107.26775447 28.28710984 -89.6224316 18.7080802 -71 12 C-69.35174923 11.31831604 -67.70577595 10.6310905 -66.0625 9.9375 C-59.84253732 7.46342539 -53.4938171 5.60565573 -47 4 C-46.25379395 3.81373047 -45.50758789 3.62746094 -44.73876953 3.43554688 C-29.34410293 -0.27401134 -16.33177947 0 0 0 Z " fill="#76CBFD" transform="translate(250,50)"/>
<path d="M0 0 C0.33 0 0.66 0 1 0 C1 4.62 1 9.24 1 14 C66.01 14 131.02 14 198 14 C198 35.78 198 57.56 198 80 C136.62 80 75.24 80 12 80 C11.505 80.99 11.505 80.99 11 82 C1.88821371 54.34027334 -0.3582523 28.89718139 0 0 Z " fill="#76CBFE" transform="translate(52,233)"/>
<path d="M0 0 C0.33 0 0.66 0 1 0 C1 21.45 1 42.9 1 65 C-60.38 65 -121.76 65 -185 65 C-185.495 65.99 -185.495 65.99 -186 67 C-186.99104523 64.00379571 -187.96559215 61.00246131 -188.9375 58 C-189.21529297 57.16082031 -189.49308594 56.32164062 -189.77929688 55.45703125 C-191.44611499 50.27583759 -192.50420422 45.42237414 -193 40 C-192.01 40 -191.02 40 -190 40 C-188.38167861 44.41483493 -187.52746659 48.58975968 -186.9375 53.25 C-186.47712522 57.77751397 -186.47712522 57.77751397 -185 62 C-123.95 62.33 -62.9 62.66 0 63 C0 42.21 0 21.42 0 0 Z " fill="#9CBDE4" transform="translate(249,248)"/>
<path d="M0 0 C1.35114472 3.05744748 0.9224598 4.22040365 -0.21484375 7.453125 C-0.77745053 8.72395443 -1.35209051 9.98951218 -1.9375 11.25 C-2.22818359 11.8996875 -2.51886719 12.549375 -2.81835938 13.21875 C-3.53528975 14.81715215 -4.26628949 16.40923054 -5 18 C-6 15 -6 15 -3 3 C-124.11 3 -245.22 3 -370 3 C-368.68 6.96 -367.36 10.92 -366 15 C-366.33 15.99 -366.66 16.98 -367 18 C-367.84212256 16.08717875 -368.67338864 14.16957527 -369.5 12.25 C-369.9640625 11.18265625 -370.428125 10.1153125 -370.90625 9.015625 C-372 6 -372 6 -372 2 C-249.24 2 -126.48 2 0 2 C0 1.34 0 0.68 0 0 Z " fill="#C06A70" transform="translate(436,311)"/>
<path d="M0 0 C0.33 0 0.66 0 1 0 C1 4.62 1 9.24 1 14 C66.01 14 131.02 14 198 14 C198 14.33 198 14.66 198 15 C133.32 15 68.64 15 2 15 C2.33 19.29 2.66 23.58 3 28 C3.06204015 31.44695059 3.09869529 34.86837932 3.0625 38.3125 C3.05798828 39.16005859 3.05347656 40.00761719 3.04882812 40.88085938 C3.03730414 42.9206053 3.01938456 44.96031363 3 47 C3.66 47 4.32 47 5 47 C5.33 48.65 5.66 50.3 6 52 C5.01 52 4.02 52 3 52 C2.6860122 50.00023304 2.37389057 48.00017303 2.0625 46 C1.80146484 44.329375 1.80146484 44.329375 1.53515625 42.625 C1.35855469 41.42875 1.18195312 40.2325 1 39 C0.814375 37.865625 0.62875 36.73125 0.4375 35.5625 C-0.39539556 28.76147698 -0.10363518 21.84085816 -0.0625 15 C-0.05747576 13.54297029 -0.05291449 12.0859389 -0.04882812 10.62890625 C-0.03789388 7.0859023 -0.02068 3.54296203 0 0 Z " fill="#6DADEF" transform="translate(52,233)"/>
<path d="M0 0 C3.34322445 1.67161222 3.89367553 5.40362536 5.125 8.75 C5.40214844 9.46671875 5.67929687 10.1834375 5.96484375 10.921875 C7.38795077 14.7355214 8.37467924 17.86223799 8 22 C6.5268006 19.25002779 5.77595125 17.10380501 5 14 C-56.38 14 -117.76 14 -181 14 C-181 13.67 -181 13.34 -181 13 C-120.61 12.67 -60.22 12.34 2 12 C1.01 8.04 1.01 8.04 0 4 C0 2.68 0 1.36 0 0 Z " fill="#63B0DE" transform="translate(431,168)"/>
<path d="M0 0 C23.87713513 4.18285579 47.26704651 21.28373534 65 37 C60.84531885 37 58.90767975 35.8801743 55.9375 33 C55.298125 32.34 54.65875 31.68 54 31 C53.01 30.34 52.02 29.68 51 29 C50.01 28.34 49.02 27.68 48 27 C44.92156804 26.35866001 42.14585085 26 39 26 C39.33 24.68 39.66 23.36 40 22 C39.01 22.33 38.02 22.66 37 23 C36.9175 22.38125 36.835 21.7625 36.75 21.125 C36.18741541 18.81562433 36.18741541 18.81562433 33.9375 17.75 C33.298125 17.5025 32.65875 17.255 32 17 C32 16.34 32 15.68 32 15 C30.68 15 29.36 15 28 15 C28 14.34 28 13.68 28 13 C27.13375 12.896875 26.2675 12.79375 25.375 12.6875 C20.61415498 11.71769824 17.0158281 9.67721873 13 7 C11.0103005 6.60986284 9.00980131 6.26797351 7 6 C7 5.34 7 4.68 7 4 C6.01 4 5.02 4 4 4 C4 3.34 4 2.68 4 2 C2.68 1.34 1.36 0.68 0 0 Z M40 26 C42 27 42 27 42 27 Z " fill="#5093C0" transform="translate(316,61)"/>
<path d="M0 0 C26.37513393 -0.50993814 50.96756657 2.57529137 76 11 C76 11.33 76 11.66 76 12 C69.375 12.25 69.375 12.25 66 10 C64.10226456 9.51324203 62.18375866 9.10534927 60.2578125 8.74609375 C59.10796875 8.53146484 57.958125 8.31683594 56.7734375 8.09570312 C55.56945312 7.87849609 54.36546875 7.66128906 53.125 7.4375 C51.37703125 7.10588867 51.37703125 7.10588867 49.59375 6.76757812 C42.57503499 5.4797762 35.66836683 4.63034104 28.54248047 4.23071289 C26 4 26 4 24 3 C22.18963178 2.77866002 20.37287901 2.60838518 18.5546875 2.46484375 C17.47832031 2.37783203 16.40195312 2.29082031 15.29296875 2.20117188 C14.16503906 2.11416016 13.03710938 2.02714844 11.875 1.9375 C10.73933594 1.84662109 9.60367188 1.75574219 8.43359375 1.66210938 C5.62266799 1.43770774 2.81149234 1.21716834 0 1 C0 0.67 0 0.34 0 0 Z " fill="#5492BD" transform="translate(240,49)"/>
<path d="M0 0 C0 3.79198367 -0.86274697 4.24799063 -3.48046875 6.87890625 C-4.59881104 8.00643311 -4.59881104 8.00643311 -5.73974609 9.15673828 C-6.54750488 9.95063965 -7.35526367 10.74454102 -8.1875 11.5625 C-9.00814941 12.37444824 -9.82879883 13.18639648 -10.67431641 14.02294922 C-20.57280269 23.68571125 -31.39707413 31.51559016 -43 39 C-43.66 38.67 -44.32 38.34 -45 38 C-44.36191406 37.62488281 -43.72382813 37.24976563 -43.06640625 36.86328125 C-42.24011719 36.35152344 -41.41382813 35.83976562 -40.5625 35.3125 C-39.73878906 34.81363281 -38.91507812 34.31476563 -38.06640625 33.80078125 C-35.56280677 31.61900552 -35.30406442 30.24519666 -35 27 C-34.34 27 -33.68 27 -33 27 C-33 26.34 -33 25.68 -33 25 C-31.68 25.33 -30.36 25.66 -29 26 C-29.33 25.01 -29.66 24.02 -30 23 C-28.02 23.33 -26.04 23.66 -24 24 C-24 23.01 -24 22.02 -24 21 C-24.66 20.67 -25.32 20.34 -26 20 C-24.25 18.4375 -24.25 18.4375 -22 17 C-21.0409375 17.309375 -21.0409375 17.309375 -20.0625 17.625 C-19.381875 17.74875 -18.70125 17.8725 -18 18 C-15.43727882 15.85554017 -15.43727882 15.85554017 -13 13 C-12.0925 12.154375 -11.185 11.30875 -10.25 10.4375 C-7.86952572 8.26416286 -7.86952572 8.26416286 -7.5 5.8125 C-7.335 5.214375 -7.17 4.61625 -7 4 C-4.5625 2.875 -4.5625 2.875 -2 2 C-1.34 1.34 -0.68 0.68 0 0 Z " fill="#DC5A55" transform="translate(398,377)"/>
<path d="M0 0 C7.05192688 -0.19087922 13.25327536 -0.29134044 20 2 C29.62864351 4.77796499 39.69423073 4.44835485 49.625 4.625 C51.41017381 4.66325141 53.19533058 4.7023071 54.98046875 4.7421875 C59.32017145 4.83740448 63.65996019 4.92171508 68 5 C68 5.33 68 5.66 68 6 C53.68805011 7.51793408 40.03589685 7.16031151 25.75 5.6875 C24.57824219 5.56987305 23.40648437 5.45224609 22.19921875 5.33105469 C14.60107051 4.49371648 7.36277517 3.05220991 0 1 C0 0.67 0 0.34 0 0 Z " fill="#D98D8C" transform="translate(202,439)"/>
<path d="M0 0 C0.78375 0.185625 1.5675 0.37125 2.375 0.5625 C7.03933441 1.12543691 11.35977729 0.59607604 16 0 C8.0732069 5.28452873 -2.78291598 7.16181464 -12.0625 8.8125 C-12.75166504 8.93616943 -13.44083008 9.05983887 -14.15087891 9.18725586 C-18.47113927 9.90169989 -22.62622099 10.10806476 -27 10 C-27 9.67 -27 9.34 -27 9 C-21.555 8.505 -21.555 8.505 -16 8 C-15.67 7.01 -15.34 6.02 -15 5 C-11.7 5 -8.4 5 -5 5 C-5 4.34 -5 3.68 -5 3 C-3.68 3 -2.36 3 -1 3 C-0.67 2.01 -0.34 1.02 0 0 Z " fill="#D56662" transform="translate(299,434)"/>
<path d="M0 0 C1.485 0.99 1.485 0.99 3 2 C3 2.66 3 3.32 3 4 C3.66 4 4.32 4 5 4 C6.50656608 5.94949651 7.88850752 7.88990329 9.25 9.9375 C9.65186523 10.53216064 10.05373047 11.12682129 10.46777344 11.73950195 C11.27686306 12.93839917 12.08321053 14.13915183 12.88671875 15.34179688 C13.82716244 16.742563 14.78651079 18.13060925 15.75 19.515625 C25 32.90885417 25 32.90885417 25 38 C24.34 38 23.68 38 23 38 C22.34 37.01 21.68 36.02 21 35 C20.01 34.34 19.02 33.68 18 33 C17.4375 30.8125 17.4375 30.8125 17 28 C16.34853151 25.66237777 15.68473395 23.32809543 15 21 C14.34 21 13.68 21 13 21 C9.48352195 17.24100622 6.33048559 13.28776943 6 8 C5.34 8 4.68 8 4 8 C4 7.34 4 6.68 4 6 C2.68 5.34 1.36 4.68 0 4 C0 2.68 0 1.36 0 0 Z " fill="#4890BF" transform="translate(402,121)"/>
<path d="M0 0 C0.33 0 0.66 0 1 0 C2.26953906 15.688599 3.34901658 31.25547423 3 47 C3.66 47 4.32 47 5 47 C5.33 48.65 5.66 50.3 6 52 C5.01 52 4.02 52 3 52 C2.6860122 50.00023304 2.37389057 48.00017303 2.0625 46 C1.80146484 44.329375 1.80146484 44.329375 1.53515625 42.625 C1.35855469 41.42875 1.18195312 40.2325 1 39 C0.814375 37.865625 0.62875 36.73125 0.4375 35.5625 C-0.39539556 28.76147698 -0.10363518 21.84085816 -0.0625 15 C-0.05747576 13.54297029 -0.05291449 12.0859389 -0.04882812 10.62890625 C-0.03789388 7.0859023 -0.02068 3.54296203 0 0 Z " fill="#92B9D4" transform="translate(52,233)"/>
<path d="M0 0 C2 0 2 0 3.4375 1.125 C5.44888645 3.53866374 6.62263979 6.18539435 8 9 C9.82915641 11.23845015 9.82915641 11.23845015 12.5 11.3125 C13.325 11.539375 14.15 11.76625 15 12 C16.27096025 14.40813521 16.93261197 16.76720497 17.6875 19.375 C19.66232105 23.3246421 22.78910367 26.02090634 26 29 C25.67 29.66 25.34 30.32 25 31 C23.32737283 29.38113585 21.66204463 27.7547271 20 26.125 C19.071875 25.22007812 18.14375 24.31515625 17.1875 23.3828125 C15 21 15 21 15 19 C14.34 19 13.68 19 13 19 C11.26505599 16.99424997 9.65503059 14.98918203 8.0625 12.875 C7.61970703 12.30523437 7.17691406 11.73546875 6.72070312 11.1484375 C4.01607578 7.60138524 1.87518586 4.0721858 0 0 Z " fill="#D46663" transform="translate(86,358)"/>
<path d="M0 0 C4.71172563 0.49524707 7.43266206 1.63700707 11.1875 4.5 C12.1259375 5.2115625 13.064375 5.923125 14.03125 6.65625 C18.74065594 10.37420206 23.39545812 14.15249112 28 18 C23.84531885 18 21.90767975 16.8801743 18.9375 14 C18.298125 13.34 17.65875 12.68 17 12 C16.01 11.34 15.02 10.68 14 10 C13.01 9.34 12.02 8.68 11 8 C7.92156804 7.35866001 5.14585085 7 2 7 C2.33 5.68 2.66 4.36 3 3 C2.01 3.33 1.02 3.66 0 4 C0 2.66666667 0 1.33333333 0 0 Z M3 7 C5 8 5 8 5 8 Z " fill="#0A81CC" transform="translate(353,80)"/>
<path d="M0 0 C0.66 0.33 1.32 0.66 2 1 C-0.20866368 4.4873637 -2.04746952 5.81424086 -6 7 C-6.99 7 -7.98 7 -9 7 C-9 7.66 -9 8.32 -9 9 C-9.54269531 9.23074219 -10.08539063 9.46148437 -10.64453125 9.69921875 C-15.33001847 11.70924011 -15.33001847 11.70924011 -18.4375 15.5625 C-20.89502959 19.39624616 -24.7420136 19.90202867 -29 21 C-20.85457225 12.32906078 -10.6290567 5.31452835 0 0 Z " fill="#93BCD1" transform="translate(153,74)"/>
<path d="M0 0 C-0.33 0.99 -0.66 1.98 -1 3 C-2.093125 3.12375 -3.18625 3.2475 -4.3125 3.375 C-8.07381802 3.75464801 -8.07381802 3.75464801 -11 6 C-12.9453125 6.34375 -12.9453125 6.34375 -15.125 6.5 C-19.86352055 6.92794521 -24.38268143 7.87568839 -29 9 C-28 7 -28 7 -25.85449219 6.13037109 C-24.92797852 5.84758301 -24.00146484 5.56479492 -23.046875 5.2734375 C-22.03496094 4.9640625 -21.02304688 4.6546875 -19.98046875 4.3359375 C-18.91441406 4.01882812 -17.84835938 3.70171875 -16.75 3.375 C-15.69941406 3.05015625 -14.64882812 2.7253125 -13.56640625 2.390625 C-8.89960286 0.9828947 -4.91149883 -0.20788825 0 0 Z " fill="#8DBAD7" transform="translate(208,54)"/>
<path d="M0 0 C10.64356436 3.46534653 10.64356436 3.46534653 13 7 C13.928125 7.2165625 13.928125 7.2165625 14.875 7.4375 C17.75396817 8.19957981 18.993278 9.85949653 21 12 C21.66 12.33 22.32 12.66 23 13 C23 13.66 23 14.32 23 15 C14.73477231 13.51303147 6.29436605 6.37455898 0 1 C0 0.67 0 0.34 0 0 Z " fill="#D1716C" transform="translate(131,405)"/>
<path d="M0 0 C0.33 0.66 0.66 1.32 1 2 C-0.4375 4.625 -0.4375 4.625 -2 7 C-1.34 7.33 -0.68 7.66 0 8 C-0.99 9.485 -0.99 9.485 -2 11 C-2.66 11 -3.32 11 -4 11 C-4.66 13.64 -5.32 16.28 -6 19 C-6.66 19 -7.32 19 -8 19 C-8.99 20.98 -9.98 22.96 -11 25 C-12 22 -12 22 -10.48828125 18.41796875 C-9.77326818 17.00258907 -9.04752864 15.5925894 -8.3125 14.1875 C-7.95994141 13.48818359 -7.60738281 12.78886719 -7.24414062 12.06835938 C-5.08099034 7.84092308 -2.71097445 3.89817319 0 0 Z " fill="#60729F" transform="translate(81,143)"/>
<path d="M0 0 C-6.08556364 3.94739263 -12.40696706 7.2994067 -18.9375 10.4375 C-19.68314209 10.80359375 -20.42878418 11.1696875 -21.19702148 11.546875 C-26.6440476 14.1186508 -26.6440476 14.1186508 -30 13 C-26.55930376 10.70620251 -25.27709699 10 -21 10 C-21 9.34 -21 8.68 -21 8 C-20.28972656 7.73445313 -19.57945312 7.46890625 -18.84765625 7.1953125 C-17.92855469 6.84210938 -17.00945312 6.48890625 -16.0625 6.125 C-14.68771484 5.60292969 -14.68771484 5.60292969 -13.28515625 5.0703125 C-10.85058944 4.2180914 -10.85058944 4.2180914 -10 2 C-9.01 2 -8.02 2 -7 2 C-7 1.34 -7 0.68 -7 0 C-2.25 -1.125 -2.25 -1.125 0 0 Z " fill="#D37E7A" transform="translate(353,417)"/>
<path d="M0 0 C0.99 0 1.98 0 3 0 C3.17015625 0.64066406 3.3403125 1.28132813 3.515625 1.94140625 C5.07167642 7.49518551 6.81797158 12.17563433 10 17 C10.66 17.33 11.32 17.66 12 18 C13.10546875 19.99609375 13.10546875 19.99609375 14.1875 22.4375 C14.55230469 23.24058594 14.91710937 24.04367187 15.29296875 24.87109375 C16 27 16 27 15 29 C12 25.375 12 25.375 12 22 C11.34 22 10.68 22 10 22 C0 3.86666667 0 3.86666667 0 0 Z " fill="#D08680" transform="translate(70,329)"/>
<path d="M0 0 C0.66 0.33 1.32 0.66 2 1 C1.38511719 1.65355469 1.38511719 1.65355469 0.7578125 2.3203125 C-2.61090002 6.04362634 -4.78240479 9.00785965 -6 14 C-3.36 14.33 -0.72 14.66 2 15 C2 15.33 2 15.66 2 16 C-2.62 16 -7.24 16 -12 16 C-11.01 14.02 -10.02 12.04 -9 10 C-8.34 10 -7.68 10 -7 10 C-6.773125 9.46375 -6.54625 8.9275 -6.3125 8.375 C-4.56617944 5.21499137 -2.3597151 2.7323017 0 0 Z " fill="#84B7DB" transform="translate(102,115)"/>
<path d="M0 0 C0.99 0 1.98 0 3 0 C1.56054834 5.50932987 -1.12725692 9.34601208 -4.5 13.8125 C-5.24830078 14.8324707 -5.24830078 14.8324707 -6.01171875 15.87304688 C-9.72136657 20.86068328 -9.72136657 20.86068328 -12 22 C-12.375 19.25 -12.375 19.25 -12 16 C-9.1875 13.875 -9.1875 13.875 -6 12 C-3.68107047 9.44118121 -2.60663905 7.39717866 -2 4 C-1.34 4 -0.68 4 0 4 C0 2.68 0 1.36 0 0 Z " fill="#D07973" transform="translate(417,348)"/>
<path d="M0 0 C7.06318693 -0.19118401 13.23195341 -0.25601553 20 2 C22.66332637 2.43125035 25.3151654 2.71738583 28 3 C28 3.33 28 3.66 28 4 C18.16256984 4.33706931 9.49613298 4.02149686 0 1 C0 0.67 0 0.34 0 0 Z " fill="#CE6A61" transform="translate(202,439)"/>
<path d="M0 0 C0.99 0 1.98 0 3 0 C4.59834285 4.37370806 5.46949787 8.51054643 6.0625 13.125 C6.76732199 18.6143741 6.76732199 18.6143741 8 24 C5.48711143 21.79140144 4.48016117 20.09308893 3.61328125 16.875 C3.39736328 16.08609375 3.18144531 15.2971875 2.95898438 14.484375 C2.74564453 13.66453125 2.53230469 12.8446875 2.3125 12 C1.97508789 10.77023437 1.97508789 10.77023437 1.63085938 9.515625 C0.74476606 6.21903468 0 3.43167058 0 0 Z " fill="#8FBAD4" transform="translate(56,288)"/>
<path d="M0 0 C-3.25226215 2.16817477 -5.18179405 2.5056783 -9 3.0625 C-12.15690815 3.53061996 -14.96881474 3.98960491 -18 5 C-20.26171875 4.87890625 -20.26171875 4.87890625 -22.6875 4.5625 C-23.89986328 4.40974609 -23.89986328 4.40974609 -25.13671875 4.25390625 C-25.75160156 4.17011719 -26.36648437 4.08632813 -27 4 C-18.79239855 -0.52178043 -9.12264124 -0.28657512 0 0 Z " fill="#90B9D0" transform="translate(236,50)"/>
<path d="M0 0 C0 3 0 3 -1.65234375 4.99291992 C-2.78349609 6.10050659 -2.78349609 6.10050659 -3.9375 7.23046875 C-4.74960937 8.03291016 -5.56171875 8.83535156 -6.3984375 9.66210938 C-7.25695312 10.49548828 -8.11546875 11.32886719 -9 12.1875 C-10.28777344 13.4549707 -10.28777344 13.4549707 -11.6015625 14.74804688 C-13.7278365 16.83888298 -15.86078464 18.92241983 -18 21 C-18.66 20.67 -19.32 20.34 -20 20 C-17.02390405 15.90786807 -13.62316835 12.89208144 -9.70703125 9.74609375 C-7.79523553 7.79054985 -7.58092913 6.60322015 -7 4 C-4.5625 2.875 -4.5625 2.875 -2 2 C-1.34 1.34 -0.68 0.68 0 0 Z " fill="#CB7D73" transform="translate(398,377)"/>
<path d="M0 0 C0.66 0 1.32 0 2 0 C2 0.66 2 1.32 2 2 C2.66 2 3.32 2 4 2 C4 2.66 4 3.32 4 4 C4.66 4 5.32 4 6 4 C6 4.66 6 5.32 6 6 C6.66 6 7.32 6 8 6 C8 6.66 8 7.32 8 8 C8.5775 8.226875 9.155 8.45375 9.75 8.6875 C12.5663661 10.33038023 14.08077114 12.39533227 16 15 C15.67 15.66 15.34 16.32 15 17 C13.62437146 15.71034824 12.29233607 14.37310707 11 13 C11 12.34 11 11.68 11 11 C9.68 10.67 8.36 10.34 7 10 C7 9.34 7 8.68 7 8 C4.03 7.505 4.03 7.505 1 7 C1.33 5.68 1.66 4.36 2 3 C1.34 3 0.68 3 0 3 C0 2.01 0 1.02 0 0 Z " fill="#679BC0" transform="translate(386,104)"/>
<path d="M0 0 C1.81886298 6.56245762 1.44146678 12.70358568 -1 19 C-1.99 19.33 -2.98 19.66 -4 20 C-3.56615452 12.96871122 -2.25678003 6.670985 0 0 Z " fill="#5A6D99" transform="translate(60,189)"/>
<path d="M0 0 C5.31520851 0.4504414 8.49372692 1.03534666 13 4 C14.5159375 4.4640625 14.5159375 4.4640625 16.0625 4.9375 C19.27388697 6.0990655 20.78689143 7.44641319 23 10 C14.88406495 7.91147495 7.52943541 4.64670147 0 1 C0 0.67 0 0.34 0 0 Z " fill="#CF6F6A" transform="translate(161,424)"/>
<path d="M0 0 C2.8442585 1.15877198 4.27847757 2.29275847 6.4375 4.5625 C8.7193606 7.21629624 8.7193606 7.21629624 11.5 7.3125 C15.26247364 8.34718025 16.21311007 11.01310655 18.08203125 14.28515625 C18.38496094 14.85105469 18.68789062 15.41695313 19 16 C11.42072605 12.56919701 4.95299031 6.60398708 0 0 Z " fill="#CF6E6E" transform="translate(112,389)"/>
<path d="M0 0 C5.79859195 0.56810529 10.97686594 1.73679735 16.5 3.5625 C17.22703125 3.79646484 17.9540625 4.03042969 18.703125 4.27148438 C20.47080261 4.84132781 22.23570969 5.41975404 24 6 C24 6.33 24 6.66 24 7 C17.375 7.25 17.375 7.25 14 5 C11.89271567 4.40396725 11.89271567 4.40396725 9.625 4 C6.23576685 3.30335501 3.16794533 2.43068499 0 1 C0 0.67 0 0.34 0 0 Z " fill="#5E9AC0" transform="translate(292,54)"/>
<path d="M0 0 C2.97 0.495 2.97 0.495 6 1 C6 1.66 6 2.32 6 3 C1.545 4.485 1.545 4.485 -3 6 C-3 6.66 -3 7.32 -3 8 C-7.625 10.125 -7.625 10.125 -11 9 C-9 7 -9 7 -6.375 6.875 C-5.59125 6.91625 -4.8075 6.9575 -4 7 C-4 6.01 -4 5.02 -4 4 C-2.68 4 -1.36 4 0 4 C0 2.68 0 1.36 0 0 Z " fill="#DC4C45" transform="translate(326,424)"/>
<path d="M0 0 C0.94875 0.04125 1.8975 0.0825 2.875 0.125 C1.67118552 2.61861571 0.42071278 4.80643083 -1.125 7.125 C-3.25 7.8125 -3.25 7.8125 -5.125 8.125 C-5.125 7.465 -5.125 6.805 -5.125 6.125 C-5.785 6.125 -6.445 6.125 -7.125 6.125 C-4.34782609 0.17391304 -4.34782609 0.17391304 0 0 Z " fill="#DE504A" transform="translate(402.125,369.875)"/>
<path d="M0 0 C1.485 0.99 1.485 0.99 3 2 C3 2.66 3 3.32 3 4 C3.66 4 4.32 4 5 4 C6.44074715 5.782129 7.80510649 7.62660276 9.125 9.5 C10.21167969 11.03140625 10.21167969 11.03140625 11.3203125 12.59375 C11.87460937 13.3878125 12.42890625 14.181875 13 15 C12.67 15.66 12.34 16.32 12 17 C7.2 13.67692308 7.2 13.67692308 6.1875 10.25 C6.125625 9.5075 6.06375 8.765 6 8 C5.34 8 4.68 8 4 8 C4 7.34 4 6.68 4 6 C2.68 5.34 1.36 4.68 0 4 C0 2.68 0 1.36 0 0 Z " fill="#5494C5" transform="translate(402,121)"/>
<path d="M0 0 C2 1 2 1 2.8515625 3.06640625 C3.10679688 3.89011719 3.36203125 4.71382813 3.625 5.5625 C3.88539062 6.38878906 4.14578125 7.21507812 4.4140625 8.06640625 C4.60742188 8.70449219 4.80078125 9.34257812 5 10 C5.66 10 6.32 10 7 10 C7 10.66 7 11.32 7 12 C7.99 11.67 8.98 11.34 10 11 C10.99 12.98 11.98 14.96 13 17 C12.34 17.99 11.68 18.98 11 20 C9 17 9 17 9 14 C8.01 13.67 7.02 13.34 6 13 C6 12.34 6 11.68 6 11 C5.34 11 4.68 11 4 11 C3.32591692 9.73308493 2.66099503 8.46129251 2 7.1875 C1.62875 6.47980469 1.2575 5.77210938 0.875 5.04296875 C0 3 0 3 0 0 Z " fill="#E73B39" transform="translate(82,347)"/>
<path d="M0 0 C4.8603687 1.5194373 8.06079356 4.32918654 11.8125 7.625 C12.7087207 8.3984375 12.7087207 8.3984375 13.62304688 9.1875 C15.08712409 10.45246272 16.54427155 11.72543834 18 13 C13.84531885 13 11.90767975 11.8801743 8.9375 9 C8.298125 8.34 7.65875 7.68 7 7 C6.01 6.34 5.02 5.68 4 5 C2.62804426 3.70644173 1.28817344 2.37701298 0 1 C0 0.67 0 0.34 0 0 Z " fill="#67A0C8" transform="translate(363,85)"/>
<path d="M0 0 C0.66 0.33 1.32 0.66 2 1 C-0.24460607 3.49560036 -2.38520597 4.8705484 -5.4375 6.25 C-6.19933594 6.60578125 -6.96117187 6.9615625 -7.74609375 7.328125 C-10.27972334 8.08338373 -11.54185126 7.87351072 -14 7 C-11.71296692 5.80274117 -9.42115138 4.61702982 -7.125 3.4375 C-6.14853516 2.92413086 -6.14853516 2.92413086 -5.15234375 2.40039062 C-3.46470143 1.53917109 -1.73420407 0.76313297 0 0 Z " fill="#8CBED8" transform="translate(169,66)"/>
<path d="M0 0 C6.70126536 -0.48736475 11.06561592 0.92291196 17 4 C17 4.33 17 4.66 17 5 C11.0870696 4.35729017 5.65755469 2.80996216 0 1 C0 0.67 0 0.34 0 0 Z " fill="#CD6D69" transform="translate(185,434)"/>
<path d="M0 0 C2.00461299 0.65266469 4.00379834 1.32204472 6 2 C6.9075 2.28875 7.815 2.5775 8.75 2.875 C11.40512998 4.20256499 11.99540849 5.26020496 13 8 C7.63951758 7.66496985 3.90710652 4.4126588 0 1 C0 0.67 0 0.34 0 0 Z " fill="#D26563" transform="translate(131,405)"/>
<path d="M0 0 C0.99 0.33 1.98 0.66 3 1 C1.99382318 3.67576692 1.45785454 4.7785108 -1.1640625 6.046875 C-1.97617188 6.27890625 -2.78828125 6.5109375 -3.625 6.75 C-4.85089844 7.11351563 -4.85089844 7.11351563 -6.1015625 7.484375 C-7.04128906 7.73960938 -7.04128906 7.73960938 -8 8 C-5.33333333 5.33333333 -2.66666667 2.66666667 0 0 Z " fill="#8BBFE1" transform="translate(132,87)"/>
<path d="M0 0 C2.5499869 1.27499345 2.65976415 2.18491352 3.625 4.8125 C4.01558594 5.84310547 4.01558594 5.84310547 4.4140625 6.89453125 C5 9 5 9 5 13 C4.01 12.67 3.02 12.34 2 12 C0.65743047 7.68964518 0 4.52218352 0 0 Z " fill="#4F94BD" transform="translate(431,168)"/>
<path d="M0 0 C1.65 0.33 3.3 0.66 5 1 C4.01 1.66 3.02 2.32 2 3 C2 3.99 2 4.98 2 6 C0.02 6.99 0.02 6.99 -2 8 C-2.66 7.34 -3.32 6.68 -4 6 C-3.525625 5.566875 -3.05125 5.13375 -2.5625 4.6875 C-0.76313043 2.97690387 -0.76313043 2.97690387 0 0 Z " fill="#124A94" transform="translate(125,116)"/>
<path d="M0 0 C0.33 0.99 0.66 1.98 1 3 C-0.65 4.65 -2.3 6.3 -4 8 C-4 6.02 -4 4.04 -4 2 C-2.68 1.34 -1.36 0.68 0 0 Z " fill="#D15D5B" transform="translate(409,362)"/>
<path d="M0 0 C0.66 0.33 1.32 0.66 2 1 C1.74279326 2.58560393 1.46861201 4.16845924 1.1875 5.75 C1.03667969 6.63171875 0.88585937 7.5134375 0.73046875 8.421875 C-0.05414248 11.1910911 -1.14595359 12.8259401 -3 15 C-2.44854729 9.76119922 -1.57077907 5.02649303 0 0 Z " fill="#D35E5D" transform="translate(433,314)"/>
<path d="M0 0 C1.07396066 4.29584263 1.07329796 7.60212211 1 12 C0.01 12.33 -0.98 12.66 -2 13 C-1.34 8.71 -0.68 4.42 0 0 Z " fill="#375485" transform="translate(60,189)"/>
<path d="M0 0 C-6.625 4 -6.625 4 -10 4 C-10 3.34 -10 2.68 -10 2 C-9.01 2 -8.02 2 -7 2 C-7 1.34 -7 0.68 -7 0 C-2.25 -1.125 -2.25 -1.125 0 0 Z " fill="#D26D67" transform="translate(353,417)"/>
<path d="M0 0 C0 3 0 3 -2.375 5.6875 C-5 8 -5 8 -7 8 C-7 6.68 -7 5.36 -7 4 C-5.824375 3.566875 -5.824375 3.566875 -4.625 3.125 C-1.90328368 2.15087746 -1.90328368 2.15087746 0 0 Z " fill="#D16C6B" transform="translate(398,377)"/>
<path d="M0 0 C1.32 0 2.64 0 4 0 C3.43628586 3.26954202 2.50037734 4.82575883 0 7 C-0.66 5.35 -1.32 3.7 -2 2 C-1.34 1.34 -0.68 0.68 0 0 Z " fill="#E83B34" transform="translate(411,353)"/>
<path d="M0 0 C0.33 0.66 0.66 1.32 1 2 C-0.4375 4.625 -0.4375 4.625 -2 7 C-1.34 7.33 -0.68 7.66 0 8 C-0.99 9.485 -0.99 9.485 -2 11 C-2.66 11 -3.32 11 -4 11 C-3.56179109 6.44262737 -3.14958831 3.42346555 0 0 Z " fill="#465E90" transform="translate(81,143)"/>
<path d="M0 0 C1.65 0 3.3 0 5 0 C4.67 0.99 4.34 1.98 4 3 C0.9375 4.1875 0.9375 4.1875 -2 5 C-1.34 3.35 -0.68 1.7 0 0 Z " fill="#304F83" transform="translate(89,131)"/>
<path d="M0 0 C0.66 0 1.32 0 2 0 C2 0.66 2 1.32 2 2 C2.66 2 3.32 2 4 2 C4.33 3.65 4.66 5.3 5 7 C3.68 6.67 2.36 6.34 1 6 C1.33 5.01 1.66 4.02 2 3 C1.34 3 0.68 3 0 3 C0 2.01 0 1.02 0 0 Z " fill="#3888BB" transform="translate(386,104)"/>
<path d="M0 0 C2.97 0.495 2.97 0.495 6 1 C6.33 2.65 6.66 4.3 7 6 C1.125 2.25 1.125 2.25 0 0 Z " fill="#E04038" transform="translate(128,401)"/>
<path d="M0 0 C0.99 0 1.98 0 3 0 C3.33 2.64 3.66 5.28 4 8 C1.10067643 5.60490662 0.49831724 3.68754757 0 0 Z " fill="#D36765" transform="translate(70,329)"/>
<path d="M0 0 C0.66 0 1.32 0 2 0 C2 1.32 2 2.64 2 4 C1.34 4 0.68 4 0 4 C0 4.66 0 5.32 0 6 C-0.99 6 -1.98 6 -3 6 C-1.125 1.125 -1.125 1.125 0 0 Z " fill="#092A6F" transform="translate(82,144)"/>
<path d="M0 0 C1.65 0 3.3 0 5 0 C2.47211993 2.79872437 0.79588866 4.45773019 -3 5 C-3 4.34 -3 3.68 -3 3 C-2.01 3 -1.02 3 0 3 C0 2.01 0 1.02 0 0 Z " fill="#E23E39" transform="translate(352,412)"/>
<path d="M0 0 C0.66 0 1.32 0 2 0 C1.67 2.31 1.34 4.62 1 7 C0.34 7 -0.32 7 -1 7 C-0.67 4.69 -0.34 2.38 0 0 Z " fill="#76B7F7" transform="translate(152,123)"/>
<path d="M0 0 C3.37503669 1.1858237 5.64722731 2.27573689 8 5 C5.03 4.505 5.03 4.505 2 4 C2 3.34 2 2.68 2 2 C1.34 2 0.68 2 0 2 C0 1.34 0 0.68 0 0 Z " fill="#63A0C8" transform="translate(355,80)"/>
<path d="M0 0 C0.66 0.33 1.32 0.66 2 1 C-0.25 3.0625 -0.25 3.0625 -3 5 C-5.3125 4.75 -5.3125 4.75 -7 4 C-1.7265625 0.77734375 -1.7265625 0.77734375 0 0 Z " fill="#90B5CC" transform="translate(162,69)"/>
</svg>
