<?xml version="1.0" encoding="UTF-8"?>
<svg version="1.1" xmlns="http://www.w3.org/2000/svg" width="500" height="500">
<path d="M0 0 C2.53207074 1.69768528 5.12416957 3.08249207 7.83203125 4.48046875 C14.18365037 7.88247557 19.74296565 12.16007621 25.39453125 16.60546875 C26.69583984 17.61480469 26.69583984 17.61480469 28.0234375 18.64453125 C37.04770705 25.73402001 45.36406933 33.48136887 53.51953125 41.54296875 C54.19588623 42.20627197 54.87224121 42.8695752 55.5690918 43.55297852 C56.19468994 44.17744873 56.82028809 44.80191895 57.46484375 45.4453125 C58.02961426 46.00597412 58.59438477 46.56663574 59.17626953 47.14428711 C60.39453125 48.60546875 60.39453125 48.60546875 60.39453125 50.60546875 C61.05453125 50.60546875 61.71453125 50.60546875 62.39453125 50.60546875 C64.31742477 52.92085162 66.11830979 55.24310533 67.89453125 57.66796875 C68.43207031 58.39749756 68.96960938 59.12702637 69.5234375 59.87866211 C71.15841967 62.1129928 72.77882069 64.35717326 74.39453125 66.60546875 C74.83925781 67.2190625 75.28398437 67.83265625 75.7421875 68.46484375 C86.44003397 83.35463633 95.21703142 99.90229168 101.2109375 117.23046875 C102.35872358 120.64437869 102.35872358 120.64437869 103.89453125 124.00390625 C105.57039728 128.02773041 106.74554758 132.01696725 107.83203125 136.23046875 C108.15071167 137.46228882 108.15071167 137.46228882 108.47583008 138.71899414 C116.5478669 170.6782248 118.55455073 201.9932645 113.39453125 234.60546875 C113.17772705 235.97880371 113.17772705 235.97880371 112.95654297 237.37988281 C110.13379131 254.67900538 105.73656463 271.64273326 98.39453125 287.60546875 C97.82671686 288.88406749 97.25901652 290.16271688 96.69140625 291.44140625 C90.10246015 306.06025516 82.45900965 320.23424446 72.53515625 332.87109375 C69.55038474 336.68375809 66.79739049 340.65350039 64.0234375 344.62109375 C63.21712891 345.60335937 63.21712891 345.60335937 62.39453125 346.60546875 C61.73453125 346.60546875 61.07453125 346.60546875 60.39453125 346.60546875 C60.03875 347.44803223 60.03875 347.44803223 59.67578125 348.30761719 C58.10133768 351.13129533 56.1776858 353.08161717 53.89453125 355.37109375 C53.00765625 356.26054687 52.12078125 357.15 51.20703125 358.06640625 C50.27890625 358.98679687 49.35078125 359.9071875 48.39453125 360.85546875 C47.46640625 361.79132813 46.53828125 362.7271875 45.58203125 363.69140625 C44.69515625 364.57570313 43.80828125 365.46 42.89453125 366.37109375 C42.07984375 367.18352539 41.26515625 367.99595703 40.42578125 368.83300781 C38.39453125 370.60546875 38.39453125 370.60546875 36.39453125 370.60546875 C36.39453125 371.26546875 36.39453125 371.92546875 36.39453125 372.60546875 C34.74320826 374.00879085 33.01895102 375.32651957 31.26953125 376.60546875 C30.73400635 376.99774658 30.19848145 377.39002441 29.64672852 377.79418945 C28.49573127 378.63491355 27.34240073 379.47245059 26.18701172 380.30712891 C24.40549099 381.59753033 22.63582804 382.902957 20.8671875 384.2109375 C13.96343142 389.27821233 7.01862491 393.67541778 -0.60546875 397.60546875 C-1.79342956 398.25721362 -2.97952085 398.91237379 -4.1640625 399.5703125 C-11.12743589 403.41456243 -18.0179462 406.74359694 -25.515625 409.4609375 C-28.48585198 410.56116064 -31.34077011 411.81091582 -34.23046875 413.10546875 C-69.18219239 427.71831258 -110.68316111 429.61801693 -147.60546875 423.60546875 C-148.95753418 423.38866455 -148.95753418 423.38866455 -150.33691406 423.16748047 C-167.65585388 420.3209201 -184.61858466 415.95860923 -200.60546875 408.60546875 C-201.88406749 408.03765436 -203.16271688 407.46995402 -204.44140625 406.90234375 C-219.06025516 400.31339765 -233.23424446 392.66994715 -245.87109375 382.74609375 C-249.68375809 379.76132224 -253.65350039 377.00832799 -257.62109375 374.234375 C-258.60335937 373.42806641 -258.60335937 373.42806641 -259.60546875 372.60546875 C-259.60546875 371.94546875 -259.60546875 371.28546875 -259.60546875 370.60546875 C-260.176604 370.35740479 -260.74773926 370.10934082 -261.33618164 369.85375977 C-265.91428183 367.33543526 -269.37787794 363.21451458 -273.04296875 359.54296875 C-274.38343262 358.20117554 -274.38343262 358.20117554 -275.75097656 356.83227539 C-282.96061583 349.49468126 -289.32211035 341.79546046 -295.29492188 333.43310547 C-296.50504329 331.74551812 -297.74914479 330.08243611 -298.99609375 328.421875 C-302.5161536 323.72194323 -305.659832 319.01670766 -308.40234375 313.82421875 C-309.66621133 311.49344997 -311.06202741 309.28261298 -312.48046875 307.04296875 C-316.58692498 300.23046315 -319.59921761 292.95236086 -322.60546875 285.60546875 C-322.87391602 284.95271973 -323.14236328 284.2999707 -323.41894531 283.62744141 C-344.30983115 232.20272676 -346.00338393 170.28211214 -325.35546875 118.46875 C-324.57860826 116.75914582 -323.77731287 115.06038387 -322.94921875 113.375 C-321.55675676 110.50507108 -320.31086317 107.59661002 -319.06787109 104.65991211 C-316.43757894 98.47237461 -313.66069017 92.62713589 -310.046875 86.9375 C-308.54633086 84.50979037 -307.27309331 82.02426344 -305.98046875 79.48046875 C-302.1124948 72.27803451 -297.03114422 65.95024019 -292.03857422 59.50585938 C-290.5867023 57.58058322 -289.22286022 55.60961378 -287.859375 53.62109375 C-287.11558594 52.6259375 -286.37179687 51.63078125 -285.60546875 50.60546875 C-284.94546875 50.60546875 -284.28546875 50.60546875 -283.60546875 50.60546875 C-283.36828125 50.04375977 -283.13109375 49.48205078 -282.88671875 48.90332031 C-281.31227518 46.07964217 -279.3886233 44.12932033 -277.10546875 41.83984375 C-276.21859375 40.95039062 -275.33171875 40.0609375 -274.41796875 39.14453125 C-273.48984375 38.22414063 -272.56171875 37.30375 -271.60546875 36.35546875 C-270.67734375 35.41960937 -269.74921875 34.48375 -268.79296875 33.51953125 C-267.90609375 32.63523438 -267.01921875 31.7509375 -266.10546875 30.83984375 C-265.29078125 30.02741211 -264.47609375 29.21498047 -263.63671875 28.37792969 C-261.60546875 26.60546875 -261.60546875 26.60546875 -259.60546875 26.60546875 C-259.60546875 25.94546875 -259.60546875 25.28546875 -259.60546875 24.60546875 C-257.29013038 22.68261218 -254.96760203 20.88190805 -252.54296875 19.10546875 C-251.81779053 18.57010498 -251.0926123 18.03474121 -250.34545898 17.4831543 C-233.72776463 5.30550862 -216.70556584 -4.59678519 -197.60546875 -12.39453125 C-196.54328125 -12.8740625 -195.48109375 -13.35359375 -194.38671875 -13.84765625 C-185.96797826 -17.51637344 -177.38410883 -19.90664612 -168.48046875 -22.14453125 C-167.31306152 -22.43835693 -166.1456543 -22.73218262 -164.94287109 -23.03491211 C-112.47563774 -35.79551614 -45.68257067 -31.43824155 0 0 Z " fill="#FCD017" transform="translate(361.60546875,51.39453125)"/>
<path d="M0 0 C0.33 0 0.66 0 1 0 C1 5.61 1 11.22 1 17 C75.58 17 150.16 17 227 17 C227 91.58 227 166.16 227 243 C195.410269 243 166.6019366 240.1554127 138 227 C136.72140126 226.43218561 135.44275187 225.86448527 134.1640625 225.296875 C119.54521359 218.7079289 105.37122429 211.0644784 92.734375 201.140625 C88.92171066 198.15585349 84.95196836 195.40285924 80.984375 192.62890625 C80.00210938 191.82259766 80.00210938 191.82259766 79 191 C79 190.34 79 189.68 79 189 C78.42886475 188.75193604 77.85772949 188.50387207 77.26928711 188.24829102 C72.69118692 185.72996651 69.22759081 181.60904583 65.5625 177.9375 C64.22203613 176.59570679 64.22203613 176.59570679 62.85449219 175.22680664 C55.64485292 167.88921251 49.2833584 160.18999171 43.31054688 151.82763672 C42.10042546 150.14004937 40.85632396 148.47696736 39.609375 146.81640625 C36.08931515 142.11647448 32.94563675 137.41123891 30.203125 132.21875 C28.93925742 129.88798122 27.54344134 127.67714423 26.125 125.4375 C22.01854377 118.6249944 19.00625114 111.34689211 16 104 C15.73155273 103.34725098 15.46310547 102.69450195 15.18652344 102.02197266 C2.75367642 71.41744899 -5.56278673 32.97619974 0 0 Z " fill="#FCD016" transform="translate(23,233)"/>
<path d="M0 0 C74.58 0 149.16 0 226 0 C226 31.589731 223.1554127 60.3980634 210 89 C209.43218561 90.27859874 208.86448527 91.55724813 208.296875 92.8359375 C201.7079289 107.45478641 194.0644784 121.62877571 184.140625 134.265625 C181.15585349 138.07828934 178.40285924 142.04803164 175.62890625 146.015625 C174.82259766 146.99789062 174.82259766 146.99789062 174 148 C173.34 148 172.68 148 172 148 C171.64421875 148.84256348 171.64421875 148.84256348 171.28125 149.70214844 C169.70680643 152.52582658 167.78315455 154.47614842 165.5 156.765625 C164.613125 157.65507812 163.72625 158.54453125 162.8125 159.4609375 C161.884375 160.38132812 160.95625 161.30171875 160 162.25 C159.071875 163.18585938 158.14375 164.12171875 157.1875 165.0859375 C156.300625 165.97023438 155.41375 166.85453125 154.5 167.765625 C153.6853125 168.57805664 152.870625 169.39048828 152.03125 170.22753906 C150 172 150 172 148 172 C148 172.66 148 173.32 148 174 C146.34867701 175.4033221 144.62441977 176.72105082 142.875 178 C142.3394751 178.39227783 141.8039502 178.78455566 141.25219727 179.1887207 C140.10120002 180.0294448 138.94786948 180.86698184 137.79248047 181.70166016 C136.01095974 182.99206158 134.24129679 184.29748825 132.47265625 185.60546875 C125.56890017 190.67274358 118.62409366 195.06994903 111 199 C109.81203919 199.65174487 108.6259479 200.30690504 107.44140625 200.96484375 C100.47803286 204.80909368 93.58752255 208.13812819 86.08984375 210.85546875 C83.11961677 211.95569189 80.26469864 213.20544707 77.375 214.5 C49.91496163 225.98067135 10.39729503 233.04385177 -19 227 C-19 226.67 -19 226.34 -19 226 C-12.73 226 -6.46 226 0 226 C0 151.42 0 76.84 0 0 Z " fill="#D9251B" transform="translate(250,250)"/>
<path d="M0 0 C0 74.91 0 149.82 0 227 C-74.58 227 -149.16 227 -226 227 C-226 197.00491446 -224.02912776 168.83343066 -211.20239258 141.55810547 C-210.14802202 139.31491873 -209.15290938 137.06143129 -208.19140625 134.77734375 C-205.32764334 128.01055604 -202.39238567 121.55250276 -198.44140625 115.33203125 C-196.94086211 112.90432162 -195.66762456 110.41879469 -194.375 107.875 C-190.50702605 100.67256576 -185.42567547 94.34477144 -180.43310547 87.90039062 C-178.98123355 85.97511447 -177.61739147 84.00414503 -176.25390625 82.015625 C-175.51011719 81.02046875 -174.76632813 80.0253125 -174 79 C-173.34 79 -172.68 79 -172 79 C-171.7628125 78.43829102 -171.525625 77.87658203 -171.28125 77.29785156 C-169.70680643 74.47417342 -167.78315455 72.52385158 -165.5 70.234375 C-164.1696875 68.90019531 -164.1696875 68.90019531 -162.8125 67.5390625 C-161.884375 66.61867188 -160.95625 65.69828125 -160 64.75 C-159.071875 63.81414062 -158.14375 62.87828125 -157.1875 61.9140625 C-156.300625 61.02976563 -155.41375 60.14546875 -154.5 59.234375 C-153.6853125 58.42194336 -152.870625 57.60951172 -152.03125 56.77246094 C-150 55 -150 55 -148 55 C-148 54.34 -148 53.68 -148 53 C-145.68466163 51.07714343 -143.36213328 49.2764393 -140.9375 47.5 C-140.21232178 46.96463623 -139.48714355 46.42927246 -138.73999023 45.87768555 C-122.12229588 33.70003987 -105.10009709 23.79774606 -86 16 C-84.9378125 15.52046875 -83.875625 15.0409375 -82.78125 14.546875 C-74.36250951 10.87815781 -65.77864008 8.48788513 -56.875 6.25 C-55.70759277 5.95617432 -54.54018555 5.66234863 -53.33740234 5.35961914 C-35.41427924 1.0005199 -18.5232567 0 0 0 Z " fill="#D9251C" transform="translate(250,23)"/>
<path d="M0 0 C0.66 0 1.32 0 2 0 C2 11.55 2 23.1 2 35 C3.65 35.33 5.3 35.66 7 36 C8.92151063 36.58801713 10.83397768 37.20609943 12.73828125 37.84765625 C13.80498047 38.20537109 14.87167969 38.56308594 15.97070312 38.93164062 C17.07349609 39.30482422 18.17628906 39.67800781 19.3125 40.0625 C20.43462891 40.43955078 21.55675781 40.81660156 22.71289062 41.20507812 C25.47618351 42.13401488 28.23850178 43.06574442 31 44 C31 44.99 31 45.98 31 47 C27.19268645 48.28556666 23.38407809 49.56721183 19.57421875 50.84521484 C18.27795677 51.28065756 16.98205562 51.71717592 15.68652344 52.15478516 C13.82581959 52.78309327 11.96370969 53.40723259 10.1015625 54.03125 C8.42054443 54.59682617 8.42054443 54.59682617 6.70556641 55.17382812 C4 56 4 56 2 56 C2 67.55 2 79.1 2 91 C-1.42281132 87.57718868 -3.44447465 84.8975396 -5.875 80.8125 C-9.10531304 75.43853055 -12.4665059 70.17978113 -16 65 C-25.65231924 65.72847692 -34.14447038 69.58009968 -43.00390625 73.265625 C-45 74 -45 74 -47 74 C-45.41189755 69.36877387 -42.92197937 65.63610671 -40.1875 61.625 C-39.76146484 60.99078125 -39.33542969 60.3565625 -38.89648438 59.703125 C-35.37515901 54.48240055 -35.37515901 54.48240055 -33.52587891 52.10449219 C-30.79606602 48.9416845 -30.79606602 48.9416845 -30.23168945 45.03417969 C-31.61905532 41.36098857 -33.78582451 38.18335439 -35.875 34.875 C-36.32230469 34.14667969 -36.76960938 33.41835937 -37.23046875 32.66796875 C-37.66746094 31.97058594 -38.10445312 31.27320312 -38.5546875 30.5546875 C-38.95155762 29.92030762 -39.34842773 29.28592773 -39.75732422 28.63232422 C-41.07950699 26.71152677 -41.07950699 26.71152677 -44 25 C-42.73058503 21.08597051 -41.48832306 19.20927127 -38 17 C-37.67 17.99 -37.34 18.98 -37 20 C-34.90116424 21.0700119 -34.90116424 21.0700119 -32.30859375 21.82421875 C-30.89223633 22.28344727 -30.89223633 22.28344727 -29.44726562 22.75195312 C-28.45404297 23.06068359 -27.46082031 23.36941406 -26.4375 23.6875 C-25.44041016 24.00783203 -24.44332031 24.32816406 -23.41601562 24.65820312 C-20.9472375 25.44962961 -18.47542039 26.22965145 -16 27 C-15.72671875 26.26338135 -15.4534375 25.5267627 -15.171875 24.76782227 C-14.06825778 22.16121633 -12.84137393 20.04602475 -11.25 17.71484375 C-10.7240625 16.93689453 -10.198125 16.15894531 -9.65625 15.35742188 C-8.83640625 14.15956055 -8.83640625 14.15956055 -8 12.9375 C-6.91455105 11.34388686 -5.83114147 9.74888231 -4.75 8.15234375 C-4.03070313 7.1003479 -4.03070313 7.1003479 -3.296875 6.02709961 C-2.04523275 4.07070172 -0.99714323 2.09570579 0 0 Z " fill="#FDF9F8" transform="translate(111,91)"/>
<path d="M0 0 C0 74.91 0 149.82 0 227 C-74.25 227 -148.5 227 -225 227 C-225 226.67 -225 226.34 -225 226 C-151.08 226 -77.16 226 -1 226 C-1 152.08 -1 78.16 -1 2 C-12.18384831 2.02922715 -12.18384831 2.02922715 -23 4 C-25.83168318 4.30294382 -28.66402835 4.50755058 -31.50390625 4.71875 C-33.99588427 4.8545027 -33.99588427 4.8545027 -36 6 C-38.33077343 6.30791869 -40.66241896 6.50895274 -43.00390625 6.71875 C-44.99583131 6.79532012 -44.99583131 6.79532012 -46 8 C-48.12083823 8.30169671 -50.24709203 8.5655519 -52.375 8.8125 C-58.18537551 9.58603576 -63.09558724 11.0132349 -68.51171875 13.1796875 C-72.15470698 14.38067263 -75.19829571 14.28692108 -79 14 C-76.78353687 11.78353687 -75.63230638 11.43354906 -72.66796875 10.59765625 C-71.79333984 10.34854492 -70.91871094 10.09943359 -70.01757812 9.84277344 C-69.08365234 9.5852832 -68.14972656 9.32779297 -67.1875 9.0625 C-66.23423828 8.79598633 -65.28097656 8.52947266 -64.29882812 8.25488281 C-42.62401203 2.25206086 -22.6119573 0 0 0 Z " fill="#CA3906" transform="translate(250,23)"/>
<path d="M0 0 C0.33 0 0.66 0 1 0 C1 5.61 1 11.22 1 17 C75.58 17 150.16 17 227 17 C227 91.58 227 166.16 227 243 C191.01785714 243 191.01785714 243 175 239 C175 238.67 175 238.34 175 238 C186.00571237 238.59251831 197.00463556 239.23778447 208 240 C208 240.66 208 241.32 208 242 C213.94 242 219.88 242 226 242 C226 168.08 226 94.16 226 18 C152.08 18 78.16 18 2 18 C2 21.63 2 25.26 2 29 C1.72756589 31.00920153 1.42849573 33.01820725 1 35 C0.67 35 0.34 35 0 35 C-1.01479818 29.13672162 -1.15021794 23.44302718 -1.125 17.5 C-1.12886719 16.58863281 -1.13273437 15.67726562 -1.13671875 14.73828125 C-1.12947362 9.71740838 -0.85647028 4.94849492 0 0 Z " fill="#FEC32C" transform="translate(23,233)"/>
<path d="M0 0 C0.59039063 0.74636719 1.18078125 1.49273437 1.7890625 2.26171875 C10.90898606 13.5568891 23.87675309 22.59449028 38.4375 25.1875 C39.73494141 25.42533203 39.73494141 25.42533203 41.05859375 25.66796875 C42.01958984 25.83232422 42.01958984 25.83232422 43 26 C38.66383533 30.33616467 32.33236286 30.29471841 26.5 30.3125 C16.91233128 30.26405467 5.03114892 29.58844042 -3 24 C-4.7855134 18.39138733 -3.52135942 13.57217295 -2.0625 8.0625 C-1.86720703 7.28326172 -1.67191406 6.50402344 -1.47070312 5.70117188 C-0.99195476 3.79785522 -0.49757721 1.89848129 0 0 Z " fill="#FAF3F2" transform="translate(30,190)"/>
<path d="M0 0 C30.41749824 -0.81556351 63.86991896 2.46806051 92 15 C92.99 15.99 92.99 15.99 94 17 C89.13608733 16.32361214 84.65497856 15.06311809 80 13.5625 C79.31421875 13.34529297 78.6284375 13.12808594 77.921875 12.90429688 C74.93145846 11.95409773 71.95812418 10.98516898 69 9.9375 C65.37569141 8.80490357 61.73682845 8.07066281 58 7.4375 C57.2376001 7.30746582 56.4752002 7.17743164 55.68969727 7.04345703 C48.15263001 5.85740956 40.6175016 5.50910304 32.99804688 5.29077148 C32.10021484 5.26442627 31.20238281 5.23808105 30.27734375 5.2109375 C29.47546631 5.19337402 28.67358887 5.17581055 27.84741211 5.15771484 C26 5 26 5 25 4 C21.04 4 17.08 4 13 4 C13 77.59 13 151.18 13 227 C12.34 227 11.68 227 11 227 C10.67 152.75 10.34 78.5 10 2 C6.7 1.67 3.4 1.34 0 1 C0 0.67 0 0.34 0 0 Z " fill="#FFC922" transform="translate(240,22)"/>
<path d="M0 0 C0.33 0 0.66 0 1 0 C1 74.25 1 148.5 1 225 C15.93548103 224.40964806 15.93548103 224.40964806 30.40234375 222.59375 C33.33263216 222.11014106 36.24496166 221.70632447 39.19140625 221.34375 C48.91171057 220.13591636 58.09742078 218.78248109 67.41796875 215.671875 C70 215 70 215 73 216 C44.71661415 224.64395011 10.65686125 233.09721654 -19 227 C-19 226.67 -19 226.34 -19 226 C-12.73 226 -6.46 226 0 226 C0 151.42 0 76.84 0 0 Z " fill="#E05E15" transform="translate(250,250)"/>
<path d="M0 0 C0.33 0 0.66 0 1 0 C1 5.61 1 11.22 1 17 C75.58 17 150.16 17 227 17 C227 17.33 227 17.66 227 18 C152.75 18 78.5 18 2 18 C2 21.63 2 25.26 2 29 C1.72756589 31.00920153 1.42849573 33.01820725 1 35 C0.67 35 0.34 35 0 35 C-1.01479818 29.13672162 -1.15021794 23.44302718 -1.125 17.5 C-1.12886719 16.58863281 -1.13273437 15.67726562 -1.13671875 14.73828125 C-1.12947362 9.71740838 -0.85647028 4.94849492 0 0 Z " fill="#FEAF29" transform="translate(23,233)"/>
<path d="M0 0 C30.41749824 -0.81556351 63.86991896 2.46806051 92 15 C92.99 15.99 92.99 15.99 94 17 C89.13608733 16.32361214 84.65497856 15.06311809 80 13.5625 C79.31421875 13.34529297 78.6284375 13.12808594 77.921875 12.90429688 C74.93145846 11.95409773 71.95812418 10.98516898 69 9.9375 C65.37569141 8.80490357 61.73682845 8.07066281 58 7.4375 C57.2376001 7.30746582 56.4752002 7.17743164 55.68969727 7.04345703 C48.15263001 5.85740956 40.6175016 5.50910304 32.99804688 5.29077148 C32.10021484 5.26442627 31.20238281 5.23808105 30.27734375 5.2109375 C29.47546631 5.19337402 28.67358887 5.17581055 27.84741211 5.15771484 C26 5 26 5 25 4 C22.67013877 3.79031249 20.33555964 3.63184611 18 3.5 C11.11111111 3.11111111 11.11111111 3.11111111 10 2 C8.31816052 1.76712992 6.6287584 1.58735834 4.9375 1.4375 C4.01839844 1.35371094 3.09929687 1.26992188 2.15234375 1.18359375 C1.08693359 1.09271484 1.08693359 1.09271484 0 1 C0 0.67 0 0.34 0 0 Z " fill="#CBB969" transform="translate(240,22)"/>
<path d="M0 0 C0 0.66 0 1.32 0 2 C-0.88522339 2.03758423 -0.88522339 2.03758423 -1.78833008 2.07592773 C-4.46326814 2.19200052 -7.1378638 2.31467572 -9.8125 2.4375 C-11.2056543 2.49647461 -11.2056543 2.49647461 -12.62695312 2.55664062 C-13.9659668 2.61948242 -13.9659668 2.61948242 -15.33203125 2.68359375 C-16.56530151 2.73858032 -16.56530151 2.73858032 -17.82348633 2.79467773 C-20.17905178 2.93427772 -20.17905178 2.93427772 -23 4 C-25.83168318 4.30294382 -28.66402835 4.50755058 -31.50390625 4.71875 C-33.99588427 4.8545027 -33.99588427 4.8545027 -36 6 C-38.33077343 6.30791869 -40.66241896 6.50895274 -43.00390625 6.71875 C-44.99583131 6.79532012 -44.99583131 6.79532012 -46 8 C-48.12083823 8.30169671 -50.24709203 8.5655519 -52.375 8.8125 C-58.18537551 9.58603576 -63.09558724 11.0132349 -68.51171875 13.1796875 C-72.15470698 14.38067263 -75.19829571 14.28692108 -79 14 C-76.78353687 11.78353687 -75.63230638 11.43354906 -72.66796875 10.59765625 C-71.79333984 10.34854492 -70.91871094 10.09943359 -70.01757812 9.84277344 C-69.08365234 9.5852832 -68.14972656 9.32779297 -67.1875 9.0625 C-66.23423828 8.79598633 -65.28097656 8.52947266 -64.29882812 8.25488281 C-42.87338594 2.32112476 -22.18964218 -0.2391698 0 0 Z " fill="#C45550" transform="translate(250,23)"/>
<path d="M0 0 C-28.28338585 8.64395011 -62.34313875 17.09721654 -92 11 C-92 10.67 -92 10.34 -92 10 C-90.85635986 9.9498877 -89.71271973 9.89977539 -88.53442383 9.84814453 C-84.23069746 9.65766994 -79.92744545 9.45782931 -75.62426758 9.25537109 C-73.77314466 9.16954148 -71.9219071 9.08614411 -70.07055664 9.00537109 C-60.57553214 8.5895306 -51.22725841 8.11222109 -41.84594727 6.49072266 C-39.038859 6.0067004 -36.23782531 5.63055273 -33.41015625 5.2890625 C-23.82336913 4.10596362 -14.77338448 2.73936411 -5.58203125 -0.328125 C-3 -1 -3 -1 0 0 Z " fill="#C07666" transform="translate(323,466)"/>
<path d="M0 0 C0 3.34419152 -0.47519394 4.06840321 -2.375 6.6875 C-2.81585938 7.31011719 -3.25671875 7.93273437 -3.7109375 8.57421875 C-4.13632812 9.04472656 -4.56171875 9.51523437 -5 10 C-5.66 10 -6.32 10 -7 10 C-7.2371875 10.56170898 -7.474375 11.12341797 -7.71875 11.70214844 C-9.29319357 14.52582658 -11.21684545 16.47614842 -13.5 18.765625 C-14.8303125 20.09980469 -14.8303125 20.09980469 -16.1875 21.4609375 C-17.115625 22.38132812 -18.04375 23.30171875 -19 24.25 C-19.928125 25.18585938 -20.85625 26.12171875 -21.8125 27.0859375 C-22.699375 27.97023438 -23.58625 28.85453125 -24.5 29.765625 C-25.3146875 30.57805664 -26.129375 31.39048828 -26.96875 32.22753906 C-29 34 -29 34 -31 34 C-31 34.66 -31 35.32 -31 36 C-31.66 36 -32.32 36 -33 36 C-33 34.35 -33 32.7 -33 31 C-31.68 31 -30.36 31 -29 31 C-26.77810176 28.77810176 -26.07401108 26.91517292 -25 24 C-24.01 24 -23.02 24 -22 24 C-22 23.01 -22 22.02 -22 21 C-22.99 20.67 -23.98 20.34 -25 20 C-23.47005208 18.76302083 -21.94010417 17.52604167 -20.41015625 16.2890625 C-18.86733563 15.0333609 -18.86733563 15.0333609 -18 13 C-16.68 13 -15.36 13 -14 13 C-8.9827976 11.71353785 -6.96919673 9.04140666 -4 5 C-3.67 4.01 -3.34 3.02 -3 2 C-2.01 1.34 -1.02 0.68 0 0 Z " fill="#CB534D" transform="translate(429,388)"/>
<path d="M0 0 C12.96324616 12.28572458 25.37285639 34.70753383 30 52 C29.609375 54.30859375 29.609375 54.30859375 29 56 C26.93178736 52.89768104 25.46549807 49.77272875 24.125 46.3125 C22.06179474 41.0294441 19.62886723 36.02220012 17 31 C16.51273437 30.05511719 16.02546875 29.11023438 15.5234375 28.13671875 C12.38906516 22.15642864 12.38906516 22.15642864 8.3125 16.8125 C5.86976343 13.84160417 4.88977545 11.41638479 3.69140625 7.828125 C2.83355529 5.55990891 1.51532798 3.87612035 0 2 C0 1.34 0 0.68 0 0 Z " fill="#CDBB63" transform="translate(433,116)"/>
<path d="M0 0 C0.97744926 3.04095325 1.16271218 4.99632687 0 8 C-0.474375 8.45375 -0.94875 8.9075 -1.4375 9.375 C-3.26451548 11.03634035 -3.26451548 11.03634035 -4 14.125 C-4.33 15.07375 -4.66 16.0225 -5 17 C-5.99 17.33 -6.98 17.66 -8 18 C-7.773125 18.886875 -7.54625 19.77375 -7.3125 20.6875 C-6.94458369 24.5874129 -7.59759022 25.97474324 -10 29 C-10.66 29 -11.32 29 -12 29 C-12.12375 29.598125 -12.2475 30.19625 -12.375 30.8125 C-13 33 -13 33 -15 36 C-15.38499891 37.65549531 -15.72793135 39.3222433 -16 41 C-16.66 41 -17.32 41 -18 41 C-18.33 42.32 -18.66 43.64 -19 45 C-19.91080427 42.51805838 -20.10290094 41.30655904 -19.25 38.765625 C-18.8375 37.93546875 -18.425 37.1053125 -18 36.25 C-16.04611654 32.2069226 -14.19548264 28.15145283 -12.44604492 24.01757812 C-9.77644821 17.73270276 -6.94572125 11.78891112 -3.26171875 6.015625 C-2.03763702 4.06012602 -0.99725286 2.0787806 0 0 Z " fill="#C55F5C" transform="translate(55,132)"/>
<path d="M0 0 C1.8125 0.0625 1.8125 0.0625 4 1 C4.75455951 2.70596063 5.50048848 4.41774106 6.15625 6.1640625 C7.48207614 9.04896198 9.69519173 10.86383624 12 13 C16 17.54054054 16 17.54054054 16 21 C17.98 20.67 19.96 20.34 22 20 C21.690625 21.6396875 21.690625 21.6396875 21.375 23.3125 C21.28942546 28.07900173 23.88477016 30.71003943 27 34 C28.6405659 35.69802735 30.3059777 37.35437834 32 39 C31.67 39.66 31.34 40.32 31 41 C26.00805941 36.25181928 21.68353823 31.2645685 17.5625 25.75 C17.00191895 25.00709717 16.44133789 24.26419434 15.86376953 23.4987793 C14.23641117 21.33701201 12.61745718 19.16918004 11 17 C10.56381348 16.42008301 10.12762695 15.84016602 9.67822266 15.24267578 C5.96340753 10.30229178 2.67144272 5.59383915 0 0 Z " fill="#D9BF4F" transform="translate(54,366)"/>
<path d="M0 0 C0.66 0 1.32 0 2 0 C3.47905238 2.95810476 3.12190903 5.9547155 3.09765625 9.1953125 C3.0962413 9.90275604 3.09482635 10.61019958 3.09336853 11.33908081 C3.087766 13.60109669 3.07521318 15.86301398 3.0625 18.125 C3.05748532 19.65755065 3.05292236 21.19010286 3.04882812 22.72265625 C3.03779577 26.48180888 3.02052952 30.24088772 3 34 C3.99 34 4.98 34 6 34 C6 34.66 6 35.32 6 36 C8.64 36.33 11.28 36.66 14 37 C14 37.66 14 38.32 14 39 C17.465 39.495 17.465 39.495 21 40 C20.67 40.66 20.34 41.32 20 42 C18.33198595 41.56766547 16.66566192 41.12880988 15 40.6875 C14.071875 40.44386719 13.14375 40.20023438 12.1875 39.94921875 C8.3972962 38.82051835 4.70289595 37.38858598 1 36 C0.67 24.12 0.34 12.24 0 0 Z " fill="#CC4A44" transform="translate(112,90)"/>
<path d="M0 0 C1.98 0.66 3.96 1.32 6 2 C2.46321557 5.67458123 -1.24749022 8.91332616 -5.3125 12 C-5.88137939 12.43352783 -6.45025879 12.86705566 -7.03637695 13.3137207 C-11.22137492 16.47309443 -15.3917188 19.47848764 -20 22 C-20.66 21.67 -21.32 21.34 -22 21 C-21.01 20.67 -20.02 20.34 -19 20 C-19 19.01 -19 18.02 -19 17 C-18.34 17 -17.68 17 -17 17 C-17.33 15.68 -17.66 14.36 -18 13 C-17.34 13 -16.68 13 -16 13 C-16 13.66 -16 14.32 -16 15 C-15.34 15 -14.68 15 -14 15 C-14 14.34 -14 13.68 -14 13 C-13.01 13 -12.02 13 -11 13 C-11 12.34 -11 11.68 -11 11 C-9.02 10.67 -7.04 10.34 -5 10 C-5 8.68 -5 7.36 -5 6 C-4.01 5.67 -3.02 5.34 -2 5 C-0.78130071 2.49552484 -0.78130071 2.49552484 0 0 Z " fill="#C64E48" transform="translate(390,422)"/>
<path d="M0 0 C11.00571237 0.59251831 22.00463556 1.23778447 33 2 C33 2.66 33 3.32 33 4 C38.94 4 44.88 4 51 4 C51 4.33 51 4.66 51 5 C33.51449391 5.45852058 17.0996503 5.22772811 0 1 C0 0.67 0 0.34 0 0 Z " fill="#DBC14C" transform="translate(198,471)"/>
<path d="M0 0 C3.52081558 -0.02927632 7.04159939 -0.04689119 10.5625 -0.0625 C11.55314453 -0.07087891 12.54378906 -0.07925781 13.56445312 -0.08789062 C18.82548699 -0.10536914 23.81764665 0.07691602 29 1 C29 1.66 29 2.32 29 3 C30.15628906 2.96519531 30.15628906 2.96519531 31.3359375 2.9296875 C32.33882813 2.91164063 33.34171875 2.89359375 34.375 2.875 C35.37273437 2.85179687 36.37046875 2.82859375 37.3984375 2.8046875 C40 3 40 3 42 5 C39.35409986 5.02684679 36.70846904 5.04676357 34.0625 5.0625 C32.93038086 5.07506836 32.93038086 5.07506836 31.77539062 5.08789062 C29.85005687 5.09652441 27.92464419 5.05224333 26 5 C25.67 4.67 25.34 4.34 25 4 C22.67013877 3.79031249 20.33555964 3.63184611 18 3.5 C11.11111111 3.11111111 11.11111111 3.11111111 10 2 C8.31816052 1.76712992 6.6287584 1.58735834 4.9375 1.4375 C4.01839844 1.35371094 3.09929687 1.26992188 2.15234375 1.18359375 C1.08693359 1.09271484 1.08693359 1.09271484 0 1 C0 0.67 0 0.34 0 0 Z " fill="#E4CC65" transform="translate(240,22)"/>
<path d="M0 0 C0.66 0.33 1.32 0.66 2 1 C1.01 1.33 0.02 1.66 -1 2 C-1.33 2.99 -1.66 3.98 -2 5 C-3.31200404 6.35432675 -4.64631404 7.68733482 -6 9 C-6.99 10.485 -6.99 10.485 -8 12 C-11.625 12.6875 -11.625 12.6875 -15 13 C-15 13.66 -15 14.32 -15 15 C-16.390625 16.32421875 -16.390625 16.32421875 -18.25 17.6875 C-18.85328125 18.14511719 -19.4565625 18.60273437 -20.078125 19.07421875 C-22 20 -22 20 -24.234375 19.64453125 C-24.81703125 19.43183594 -25.3996875 19.21914062 -26 19 C-17.58175474 12.22555411 -9.11340828 5.82523716 0 0 Z " fill="#C85B56" transform="translate(130,56)"/>
<path d="M0 0 C0 0.66 0 1.32 0 2 C-0.88522339 2.03758423 -0.88522339 2.03758423 -1.78833008 2.07592773 C-4.46326814 2.19200052 -7.1378638 2.31467572 -9.8125 2.4375 C-11.2056543 2.49647461 -11.2056543 2.49647461 -12.62695312 2.55664062 C-13.51962891 2.59853516 -14.41230469 2.64042969 -15.33203125 2.68359375 C-16.15421143 2.72025146 -16.9763916 2.75690918 -17.82348633 2.79467773 C-20.17905178 2.93427772 -20.17905178 2.93427772 -23 4 C-25.56634861 4.22718496 -28.11678107 4.41608184 -30.6875 4.5625 C-31.7403418 4.62727539 -31.7403418 4.62727539 -32.81445312 4.69335938 C-34.54275206 4.7991736 -36.2713511 4.90006581 -38 5 C-37.01 4.67 -36.02 4.34 -35 4 C-35 3.34 -35 2.68 -35 2 C-23.2646477 0.46273748 -11.8343655 -0.26964377 0 0 Z " fill="#C1514B" transform="translate(250,23)"/>
<path d="M0 0 C0.33 0 0.66 0 1 0 C1.3387045 8.74986635 0.39747924 16.75381512 -1.375 25.3125 C-1.59671875 26.43978516 -1.8184375 27.56707031 -2.046875 28.72851562 C-3.14676834 34.23121732 -4.3440303 39.63744392 -6 45 C-6.33 45 -6.66 45 -7 45 C-7.26444598 38.24645654 -6.39734711 32.72559694 -4.5625 26.25 C-2.67708379 19.2305407 -1.40571944 12.7142232 -1.140625 5.43359375 C-1 3 -1 3 0 0 Z " fill="#C67570" transform="translate(475,269)"/>
<path d="M0 0 C2.81083807 2.81083807 3.77143886 6.21585145 5.125 9.875 C5.40214844 10.59558594 5.67929687 11.31617188 5.96484375 12.05859375 C6.22652344 12.75855469 6.48820312 13.45851563 6.7578125 14.1796875 C6.9964502 14.81632324 7.23508789 15.45295898 7.48095703 16.10888672 C8 18 8 18 8 22 C8.66 22 9.32 22 10 22 C10.6708712 23.6232687 11.33657029 25.24867578 12 26.875 C12.37125 27.77992188 12.7425 28.68484375 13.125 29.6171875 C14 32 14 32 14 34 C14.66 34 15.32 34 16 34 C16.66 36.97 17.32 39.94 18 43 C14.27479276 39.77907846 12.47753137 36.21625136 10.625 31.75 C10.32899902 31.05269775 10.03299805 30.35539551 9.72802734 29.63696289 C7.6137621 24.60275638 5.58513244 19.53360339 3.625 14.4375 C3.37443848 13.79586914 3.12387695 13.15423828 2.86572266 12.49316406 C1.29226589 8.29508943 0.48966244 4.42404321 0 0 Z " fill="#D2C077" transform="translate(32,314)"/>
<path d="M0 0 C0.33 0 0.66 0 1 0 C2.78832117 26.95255474 2.78832117 26.95255474 1 35 C0.67 35 0.34 35 0 35 C-1.01479818 29.13672162 -1.15021794 23.44302718 -1.125 17.5 C-1.12886719 16.58863281 -1.13273437 15.67726562 -1.13671875 14.73828125 C-1.12947362 9.71740838 -0.85647028 4.94849492 0 0 Z " fill="#DAB382" transform="translate(23,233)"/>
<path d="M0 0 C0.33 0 0.66 0 1 0 C1.33 1.98 1.66 3.96 2 6 C11.83399717 9.24659712 11.83399717 9.24659712 22 11 C22 11.33 22 11.66 22 12 C14.65081658 12.43230491 8.09784913 10.81774185 1 9 C0.95101563 9.71027344 0.90203125 10.42054688 0.8515625 11.15234375 C0.77679687 12.07144531 0.70203125 12.99054688 0.625 13.9375 C0.52058594 15.31228516 0.52058594 15.31228516 0.4140625 16.71484375 C0.27742188 17.46894531 0.14078125 18.22304687 0 19 C-0.66 19.33 -1.32 19.66 -2 20 C-2.26404456 13.13484138 -1.25841946 6.74153283 0 0 Z " fill="#C15E59" transform="translate(26,208)"/>
<path d="M0 0 C0.925198 2.50959958 1.0890388 3.72639118 0.25 6.3046875 C-0.1625 7.15289062 -0.575 8.00109375 -1 8.875 C-1.68642578 10.30392578 -1.68642578 10.30392578 -2.38671875 11.76171875 C-2.91910156 12.83035156 -3.45148438 13.89898437 -4 15 C-4.63152566 16.27733622 -5.26303547 17.55468026 -5.89453125 18.83203125 C-7.58078143 22.22932942 -9.28606831 25.61659017 -11 29 C-12 27 -12 27 -11.25 23.5625 C-10.04276591 20.12188283 -9.40120784 19.40120784 -7 17 C-6.2730774 13.89160979 -6.2730774 13.89160979 -6 11 C-5.34 11 -4.68 11 -4 11 C-3.67 8.36 -3.34 5.72 -3 3 C-2.01 3 -1.02 3 0 3 C0 2.01 0 1.02 0 0 Z " fill="#C6635D" transform="translate(462,328)"/>
<path d="M0 0 C1.1875 1.6875 1.1875 1.6875 2 4 C0.75 6.75 0.75 6.75 -1 9 C-1.66 9 -2.32 9 -3 9 C-3.12375 9.598125 -3.2475 10.19625 -3.375 10.8125 C-4 13 -4 13 -6 16 C-6.38499891 17.65549531 -6.72793135 19.3222433 -7 21 C-7.66 21 -8.32 21 -9 21 C-9.33 22.32 -9.66 23.64 -10 25 C-11.07908598 22.25028091 -11.05073828 21.14210844 -10.0390625 18.30859375 C-9.57242188 17.36113281 -9.10578125 16.41367188 -8.625 15.4375 C-7.25596801 12.61912967 -5.99162508 9.97487523 -5 7 C-4.34 6.67 -3.68 6.34 -3 6 C-1.95191959 4.02477154 -0.9479589 2.02518491 0 0 Z " fill="#C54C46" transform="translate(46,152)"/>
<path d="M0 0 C0.99 0 1.98 0 3 0 C3.75166913 7.69118596 4.13690844 15.27227893 4 23 C0.00077839 19.00077839 0.11956469 11.6715236 -0.125 6.20703125 C-0.125 4.13760132 -0.06894271 2.0682812 0 0 Z " fill="#DEC356" transform="translate(24,272)"/>
<path d="M0 0 C4.19406632 0.62598005 7.40513828 2.9735939 10.875 5.25 C11.47441406 5.63285156 12.07382812 6.01570313 12.69140625 6.41015625 C16.71374153 9.01900277 20.36944866 11.86906582 24 15 C20.30581799 15 18.22163822 13.71820705 15 12 C15 11.34 15 10.68 15 10 C14.42765625 9.71382812 13.8553125 9.42765625 13.265625 9.1328125 C9.84375 7.421875 6.421875 5.7109375 3 4 C3 3.34 3 2.68 3 2 C2.01 1.67 1.02 1.34 0 1 C0 0.67 0 0.34 0 0 Z " fill="#D0BC63" transform="translate(364,54)"/>
<path d="M0 0 C-3.28968992 0.96520574 -6.58208688 1.92085401 -9.875 2.875 C-10.7928125 3.14441406 -11.710625 3.41382813 -12.65625 3.69140625 C-21.03899539 6.1117764 -29.22292591 8.38161192 -38 8 C-38 7.67 -38 7.34 -38 7 C-33.63809072 5.39088103 -29.61648201 4.61251642 -25 4.125 C-18.29162578 3.30965412 -12.2717588 1.78870747 -5.828125 -0.29296875 C-3 -1 -3 -1 0 0 Z " fill="#C67E79" transform="translate(323,466)"/>
<path d="M0 0 C0 3.5606672 -0.49400496 3.81204335 -2.875 6.25 C-6.01061782 9.71840745 -7.07164354 12.45105334 -8 17 C-7.195625 17.12375 -6.39125 17.2475 -5.5625 17.375 C-4.2940625 17.684375 -4.2940625 17.684375 -3 18 C-2.67 18.66 -2.34 19.32 -2 20 C-4.97 19.01 -7.94 18.02 -11 17 C-11.25532751 13.93606987 -11.21861333 12.36766788 -9.625 9.6875 C-8.820625 8.8521875 -8.820625 8.8521875 -8 8 C-7.34 8 -6.68 8 -6 8 C-5.7525 7.4225 -5.505 6.845 -5.25 6.25 C-3.83316683 3.6997003 -2.12372463 1.98214299 0 0 Z " fill="#C7605C" transform="translate(84,94)"/>
<path d="M0 0 C-2.56538479 2.56538479 -5.06045896 3.37357879 -8.4375 4.6875 C-9.59121094 5.14511719 -10.74492187 5.60273438 -11.93359375 6.07421875 C-15 7 -15 7 -18 6 C-18 5.01 -18 4.02 -18 3 C-15.93918639 2.49309416 -13.87626474 1.99475381 -11.8125 1.5 C-10.66394531 1.2215625 -9.51539063 0.943125 -8.33203125 0.65625 C-5.43181171 0.08504615 -2.93903615 -0.13283779 0 0 Z " fill="#CA4440" transform="translate(341,458)"/>
<path d="M0 0 C0.66 0 1.32 0 2 0 C2 11.22 2 22.44 2 34 C1.67 34 1.34 34 1 34 C0.67 24.76 0.34 15.52 0 6 C-0.66 6 -1.32 6 -2 6 C-1.34 4.02 -0.68 2.04 0 0 Z " fill="#FFD6D3" transform="translate(111,91)"/>
<path d="M0 0 C-0.33 1.65 -0.66 3.3 -1 5 C-2.56159059 5.48212214 -4.12431928 5.96055873 -5.6875 6.4375 C-6.55761719 6.70433594 -7.42773438 6.97117187 -8.32421875 7.24609375 C-10.87025921 7.96344529 -13.4003423 8.517541 -16 9 C-13.50506504 6.18368359 -10.73437182 4.59044019 -7.4375 2.8125 C-6.46683594 2.28269531 -5.49617187 1.75289062 -4.49609375 1.20703125 C-2 0 -2 0 0 0 Z " fill="#C75C57" transform="translate(148,47)"/>
<path d="M0 0 C2.64 0.33 5.28 0.66 8 1 C4.43204781 4.56795219 -0.04129245 4.94388517 -4.9375 5.23046875 C-6.29173673 5.22654722 -7.6459818 5.21214209 -9 5.1875 C-9.67289063 5.18685547 -10.34578125 5.18621094 -11.0390625 5.18554688 C-15.45703642 5.14716679 -19.65275079 4.70756009 -24 4 C-24 3.67 -24 3.34 -24 3 C-23.34926514 3.00523682 -22.69853027 3.01047363 -22.02807617 3.01586914 C-19.08122726 3.03664938 -16.13439377 3.0496635 -13.1875 3.0625 C-11.65125977 3.07506836 -11.65125977 3.07506836 -10.08398438 3.08789062 C-9.10107422 3.09111328 -8.11816406 3.09433594 -7.10546875 3.09765625 C-6.19949951 3.10289307 -5.29353027 3.10812988 -4.36010742 3.11352539 C-1.84715961 3.09920981 -1.84715961 3.09920981 1 2 C0.67 1.34 0.34 0.68 0 0 Z " fill="#F8BFBF" transform="translate(65,215)"/>
<path d="M0 0 C1.98 0.66 3.96 1.32 6 2 C3.42215154 4.64752004 1.08351902 6.94432065 -2 9 C-2.99 9 -3.98 9 -5 9 C-5 8.01 -5 7.02 -5 6 C-4.01 5.67 -3.02 5.34 -2 5 C-0.78130071 2.49552484 -0.78130071 2.49552484 0 0 Z " fill="#CA4A41" transform="translate(390,422)"/>
<path d="M0 0 C6.20920739 0.43573385 9.76745812 1.64327502 15 5 C15.969375 5.5775 16.93875 6.155 17.9375 6.75 C18.618125 7.1625 19.29875 7.575 20 8 C16.51371731 9.16209423 16.13629782 8.88616059 12.98828125 7.34765625 C12.23095703 6.98349609 11.47363281 6.61933594 10.69335938 6.24414062 C9.90767578 5.85419922 9.12199219 5.46425781 8.3125 5.0625 C7.51521484 4.67642578 6.71792969 4.29035156 5.89648438 3.89257812 C3.92653557 2.93709398 1.96150061 1.97267894 0 1 C0 0.67 0 0.34 0 0 Z " fill="#D3BE5B" transform="translate(146,452)"/>
<path d="M0 0 C1.65 0 3.3 0 5 0 C4.06409496 1.1055189 3.12620142 2.20935453 2.1875 3.3125 C1.40439453 4.23482422 1.40439453 4.23482422 0.60546875 5.17578125 C-2.3373102 8.51952278 -2.3373102 8.51952278 -4 10 C-4.66 10 -5.32 10 -6 10 C-6 10.66 -6 11.32 -6 12 C-6.66 12 -7.32 12 -8 12 C-8 10.35 -8 8.7 -8 7 C-6.68 7 -5.36 7 -4 7 C-1.77810176 4.77810176 -1.07401108 2.91517292 0 0 Z " fill="#CA6C67" transform="translate(404,412)"/>
<path d="M0 0 C2.27127721 0.47705823 4.54200832 0.95671706 6.8125 1.4375 C8.07707031 1.70433594 9.34164062 1.97117187 10.64453125 2.24609375 C14 3 14 3 17 4 C17 4.66 17 5.32 17 6 C17.66 6.33 18.32 6.66 19 7 C12.28460827 5.70024676 6.27980887 3.70071112 0 1 C0 0.67 0 0.34 0 0 Z " fill="#D3BC62" transform="translate(167,461)"/>
<path d="M0 0 C-2.2863012 1.36402043 -4.57821749 2.71634274 -6.875 4.0625 C-7.85146484 4.64741211 -7.85146484 4.64741211 -8.84765625 5.24414062 C-10.53065725 6.22444533 -12.26296199 7.11898432 -14 8 C-14.66 7.67 -15.32 7.34 -16 7 C-15.67 6.01 -15.34 5.02 -15 4 C-13.35 4 -11.7 4 -10 4 C-10 3.34 -10 2.68 -10 2 C-6.70021068 -0.19985954 -3.76967739 -1.88483869 0 0 Z " fill="#C1625B" transform="translate(368,445)"/>
<path d="M0 0 C-2.47937284 3.71905926 -3.71739996 3.96900369 -8 5 C-10.69303025 5.15015097 -13.29865447 5.09314985 -16 5 C-13.13879225 3.09252817 -10.64745007 1.99646294 -7.4375 0.8125 C-6.46683594 0.44769531 -5.49617188 0.08289063 -4.49609375 -0.29296875 C-2 -1 -2 -1 0 0 Z " fill="#D04842" transform="translate(131,142)"/>
<path d="M0 0 C0.66 0.33 1.32 0.66 2 1 C0.68 3.31 -0.64 5.62 -2 8 C-6.48525648 7.343621 -10.66914029 6.29925791 -15 5 C-15 4.67 -15 4.34 -15 4 C-10.71 4.33 -6.42 4.66 -2 5 C-1.34 3.35 -0.68 1.7 0 0 Z " fill="#CC413F" transform="translate(97,110)"/>
<path d="M0 0 C0.99 0 1.98 0 3 0 C2.00956295 4.83628305 1.04301154 9.47618873 -1 14 C-1.33 14 -1.66 14 -2 14 C-2.1799928 8.78020872 -1.97094808 4.92737019 0 0 Z " fill="#C36260" transform="translate(465,314)"/>
<path d="M0 0 C1.8125 0.0625 1.8125 0.0625 4 1 C4.75306206 2.70257509 5.49677117 4.41191957 6.13671875 6.16015625 C7.02997578 8.3434256 7.02997578 8.3434256 9.75 10.6875 C10.86375 11.8321875 10.86375 11.8321875 12 13 C11.640625 15.14453125 11.640625 15.14453125 11 17 C9.72346071 15.29592618 8.4540296 13.58652649 7.1875 11.875 C6.47980469 10.92367188 5.77210937 9.97234375 5.04296875 8.9921875 C3.05996771 6.08783034 1.49489388 3.17841791 0 0 Z " fill="#C9B771" transform="translate(54,366)"/>
<path d="M0 0 C0.66 0 1.32 0 2 0 C2.50780894 2.20655075 3.00591365 4.41533605 3.5 6.625 C3.7784375 7.85476562 4.056875 9.08453125 4.34375 10.3515625 C4.94091621 13.67152228 5.12409534 16.63908451 5 20 C4.67 20 4.34 20 4 20 C3.32331051 17.79471728 2.65906502 15.58561391 2 13.375 C1.62875 12.14523438 1.2575 10.91546875 0.875 9.6484375 C0.06272281 6.26153174 -0.17041013 3.46145571 0 0 Z " fill="#CBBB60" transform="translate(469,193)"/>
<path d="M0 0 C0 3.75366417 -1.11420063 5.78715662 -3 9 C-3.99 9.33 -4.98 9.66 -6 10 C-6.70211894 11.65204456 -7.36971413 13.31923769 -8 15 C-8.99 15.495 -8.99 15.495 -10 16 C-8.61936434 12.14254559 -6.82183102 9.07512134 -4.4375 5.75 C-3.81746094 4.87859375 -3.19742188 4.0071875 -2.55859375 3.109375 C-1 1 -1 1 0 0 Z " fill="#C87270" transform="translate(66,116)"/>
<path d="M0 0 C2.81379388 2.81379388 3.81213054 6.21813533 5.1875 9.875 C5.47302734 10.59558594 5.75855469 11.31617188 6.05273438 12.05859375 C7.47811319 15.82492317 8.24642663 18.15902534 7 22 C6.01083967 19.64960987 5.03363319 17.29533139 4.0625 14.9375 C3.78470703 14.28072266 3.50691406 13.62394531 3.22070312 12.94726562 C1.44318052 8.59983081 0.4802742 4.67507417 0 0 Z " fill="#C9B66D" transform="translate(32,314)"/>
<path d="M0 0 C5.57142857 5.14285714 5.57142857 5.14285714 6 9 C4.35 9.33 2.7 9.66 1 10 C0 2.25 0 2.25 0 0 Z " fill="#D13F38" transform="translate(98,161)"/>
<path d="M0 0 C4 0 4 0 7 1 C3.25 6.875 3.25 6.875 1 8 C0.67 5.36 0.34 2.72 0 0 Z " fill="#CB3C34" transform="translate(411,401)"/>
<path d="M0 0 C4.2552033 4.2552033 4.125 9.72646601 4.125 15.4375 C4.09314594 17.2918612 4.05479286 19.1461748 4 21 C1.77302853 17.65954279 1.44275365 15.56322772 0.875 11.625 C0.70742188 10.50351563 0.53984375 9.38203125 0.3671875 8.2265625 C0.05034712 5.44241196 -0.07332983 2.79700916 0 0 Z " fill="#ECCF3F" transform="translate(471,206)"/>
<path d="M0 0 C0.33 0.66 0.66 1.32 1 2 C1.66 2.33 2.32 2.66 3 3 C1.47005208 4.20442708 -0.05989583 5.40885417 -1.58984375 6.61328125 C-3.27155077 8.05683091 -3.27155077 8.05683091 -4 11 C-4.66 11 -5.32 11 -6 11 C-6 11.66 -6 12.32 -6 13 C-6.66 12.67 -7.32 12.34 -8 12 C-5.36 8.04 -2.72 4.08 0 0 Z " fill="#FDE0DA" transform="translate(108,97)"/>
<path d="M0 0 C-1.65 0.33 -3.3 0.66 -5 1 C-5 1.66 -5 2.32 -5 3 C-8.21451269 4.60725635 -11.43612536 4.05748185 -15 4 C-12.69846709 1.69846709 -11.15124095 1.2422972 -8.0625 0.3125 C-7.18722656 0.04050781 -6.31195313 -0.23148438 -5.41015625 -0.51171875 C-3 -1 -3 -1 0 0 Z " fill="#C3746E" transform="translate(186,33)"/>
<path d="M0 0 C3.29148243 1.13499394 3.9959869 1.99283376 5.75 5.125 C6.1625 6.07375 6.575 7.0225 7 8 C6.34 8 5.68 8 5 8 C5 7.34 5 6.68 5 6 C4.01 6 3.02 6 2 6 C2 5.01 2 4.02 2 3 C1.34 3 0.68 3 0 3 C-0.33 3.99 -0.66 4.98 -1 6 C-1 2 -1 2 0 0 Z " fill="#CC3E39" transform="translate(67,116)"/>
<path d="M0 0 C0 3.80345877 -1.13786331 4.77701015 -3.5 7.6875 C-4.47453125 8.89986328 -4.47453125 8.89986328 -5.46875 10.13671875 C-5.9740625 10.75160156 -6.479375 11.36648438 -7 12 C-7 8.4905346 -6.4074459 6.2170192 -5 3 C-2.375 1.125 -2.375 1.125 0 0 Z " fill="#C9736E" transform="translate(438,376)"/>
<path d="M0 0 C0.33 0 0.66 0 1 0 C1.2358396 5.77807024 0.86783046 10.51324804 -1 16 C-1.33 16 -1.66 16 -2 16 C-2.2358396 10.22192976 -1.86783046 5.48675196 0 0 Z " fill="#C06561" transform="translate(470,298)"/>
<path d="M0 0 C0.66 0.33 1.32 0.66 2 1 C-0.60313168 4.90469752 -2.49467394 5.06786357 -7 6 C-9.2265625 5.546875 -9.2265625 5.546875 -11 5 C-9.21289414 4.13633178 -7.4201535 3.28431406 -5.625 2.4375 C-4.62726563 1.96183594 -3.62953125 1.48617187 -2.6015625 0.99609375 C-1.74304688 0.66738281 -0.88453125 0.33867188 0 0 Z " fill="#C76E68" transform="translate(159,41)"/>
<path d="M0 0 C1 3 1 3 0.00390625 5.04296875 C-0.47175781 5.75066406 -0.94742187 6.45835937 -1.4375 7.1875 C-1.91058594 7.90292969 -2.38367188 8.61835938 -2.87109375 9.35546875 C-3.24363281 9.89816406 -3.61617188 10.44085938 -4 11 C-5.43088528 8.13822943 -4.59991697 6.06624227 -4 3 C-3.34 3 -2.68 3 -2 3 C-2 2.34 -2 1.68 -2 1 C-1.34 0.67 -0.68 0.34 0 0 Z " fill="#C3635C" transform="translate(449,357)"/>
<path d="M0 0 C0.66 0 1.32 0 2 0 C0.6302836 3.99500618 -1.25722422 6.80009492 -4 10 C-4 8.02 -4 6.04 -4 4 C-2.68 3.34 -1.36 2.68 0 2 C0 1.34 0 0.68 0 0 Z " fill="#CD3A37" transform="translate(73,146)"/>
<path d="M0 0 C0.33 0.99 0.66 1.98 1 3 C1.66 3 2.32 3 3 3 C4.7143618 4.95927063 6.38405168 6.95880212 8 9 C7.01 10.485 7.01 10.485 6 12 C5.7525 11.4225 5.505 10.845 5.25 10.25 C4.07618973 7.86885658 4.07618973 7.86885658 1.875 6 C0 4 0 4 0 0 Z " fill="#E5CA44" transform="translate(439,126)"/>
<path d="M0 0 C2.97 0.33 5.94 0.66 9 1 C9 1.66 9 2.32 9 3 C10.32 3.66 11.64 4.32 13 5 C8.15340923 4.40895235 4.39251833 3.02055843 0 1 C0 0.67 0 0.34 0 0 Z " fill="#D04F48" transform="translate(54,210)"/>
<path d="M0 0 C0.33 0.99 0.66 1.98 1 3 C0.34 3 -0.32 3 -1 3 C-1 5.31 -1 7.62 -1 10 C-2.32 9.34 -3.64 8.68 -5 8 C-3.8141763 4.62496331 -2.72426311 2.35277269 0 0 Z " fill="#D4B7B4" transform="translate(72,108)"/>
<path d="M0 0 C-4.455 3.465 -4.455 3.465 -9 7 C-9.66 6.67 -10.32 6.34 -11 6 C-10.360625 5.566875 -9.72125 5.13375 -9.0625 4.6875 C-6.73253997 3.08760823 -6.73253997 3.08760823 -6 0 C-3.42525708 -0.99667468 -2.51072708 -1.25536354 0 0 Z " fill="#C77A74" transform="translate(387,432)"/>
<path d="M0 0 C0 1.32 0 2.64 0 4 C-2.64 4.33 -5.28 4.66 -8 5 C-7.01 4.34 -6.02 3.68 -5 3 C-5.66 2.34 -6.32 1.68 -7 1 C-4.50935112 0.31292445 -2.62113708 0 0 0 Z " fill="#D74A43" transform="translate(76,214)"/>
<path d="M0 0 C1.65 0.33 3.3 0.66 5 1 C4 3 4 3 2.15234375 3.6328125 C1.42144531 3.79523438 0.69054687 3.95765625 -0.0625 4.125 C-0.79597656 4.29257813 -1.52945313 4.46015625 -2.28515625 4.6328125 C-2.85105469 4.75398437 -3.41695312 4.87515625 -4 5 C-3.67 4.01 -3.34 3.02 -3 2 C-2.01 2 -1.02 2 0 2 C0 1.34 0 0.68 0 0 Z " fill="#FBCFCA" transform="translate(138,135)"/>
<path d="M0 0 C2.64 0 5.28 0 8 0 C7.67 0.66 7.34 1.32 7 2 C4.93359375 2.6328125 4.93359375 2.6328125 2.4375 3.125 C1.19806641 3.37636719 1.19806641 3.37636719 -0.06640625 3.6328125 C-0.70449219 3.75398438 -1.34257812 3.87515625 -2 4 C-1.34 3.67 -0.68 3.34 0 3 C0 2.01 0 1.02 0 0 Z " fill="#C35F5A" transform="translate(325,461)"/>
<path d="M0 0 C0.99 0.99 1.98 1.98 3 3 C3.33 2.34 3.66 1.68 4 1 C4.66 1.66 5.32 2.32 6 3 C1.545 4.485 1.545 4.485 -3 6 C-1.125 1.125 -1.125 1.125 0 0 Z " fill="#FDCBC7" transform="translate(67,159)"/>
<path d="M0 0 C2.64 0.33 5.28 0.66 8 1 C4.99382731 4.00617269 2.17618402 3.59585316 -2 4 C-1.01 3.34 -0.02 2.68 1 2 C0.67 1.34 0.34 0.68 0 0 Z " fill="#FDD5D1" transform="translate(65,215)"/>
<path d="M0 0 C0.66 0 1.32 0 2 0 C2.99 2.31 3.98 4.62 5 7 C4.34 7.66 3.68 8.32 3 9 C0.70620251 5.55930376 0 4.27709699 0 0 Z " fill="#DDC64D" transform="translate(453,150)"/>
<path d="M0 0 C0.66 0 1.32 0 2 0 C2 2.97 2 5.94 2 9 C1.34 8.01 0.68 7.02 0 6 C-0.66 6 -1.32 6 -2 6 C-1.34 4.02 -0.68 2.04 0 0 Z " fill="#FDCECB" transform="translate(111,91)"/>
<path d="M0 0 C2.64 0.66 5.28 1.32 8 2 C8 3.32 8 4.64 8 6 C4.63408134 4.55746343 2.48952921 2.66735273 0 0 Z " fill="#D9BF56" transform="translate(108,427)"/>
<path d="M0 0 C1.65 0 3.3 0 5 0 C3.71937515 1.7074998 2.38232443 3.37373596 1 5 C0.34 5 -0.32 5 -1 5 C-0.67 3.35 -0.34 1.7 0 0 Z " fill="#C6504E" transform="translate(404,412)"/>
<path d="M0 0 C4.875 4.625 4.875 4.625 6 8 C4.68 8 3.36 8 2 8 C1.34 5.36 0.68 2.72 0 0 Z " fill="#D6BF55" transform="translate(427,108)"/>
<path d="M0 0 C2.0625 1.75 2.0625 1.75 4 4 C3.75 6.25 3.75 6.25 3 8 C0.37613513 4.93882432 0 4.26826873 0 0 Z " fill="#DDC645" transform="translate(66,380)"/>
<path d="M0 0 C0.99 0 1.98 0 3 0 C3.66 2.97 4.32 5.94 5 9 C1.7457985 6.16569547 0.4793247 4.31392226 0 0 Z " fill="#CCB869" transform="translate(45,348)"/>
<path d="M0 0 C5.445 1.485 5.445 1.485 11 3 C11 3.33 11 3.66 11 4 C6.53160785 4.21278058 3.17737474 3.59138085 -1 2 C-0.67 1.34 -0.34 0.68 0 0 Z " fill="#FBD9D6" transform="translate(84,115)"/>
<path d="M0 0 C4.42857143 5.14285714 4.42857143 5.14285714 5 9 C3.0625 8.4375 3.0625 8.4375 1 7 C0.25 3.375 0.25 3.375 0 0 Z " fill="#CC3F3D" transform="translate(107,174)"/>
<path d="M0 0 C0.66 0.66 1.32 1.32 2 2 C1.625 4.125 1.625 4.125 1 6 C-0.32 6 -1.64 6 -3 6 C-1.125 1.125 -1.125 1.125 0 0 Z " fill="#C72F29" transform="translate(59,128)"/>
</svg>
