<?xml version="1.0" encoding="UTF-8"?>
<svg version="1.1" xmlns="http://www.w3.org/2000/svg" width="500" height="500">
<path d="M0 0 C0.74900574 0.00141495 1.49801147 0.0028299 2.26971436 0.00428772 C4.65380912 0.00986966 7.03780878 0.0224188 9.421875 0.03515625 C11.04166531 0.04017359 12.66145709 0.04473609 14.28125 0.04882812 C18.24482812 0.05983317 22.20833545 0.07708534 26.171875 0.09765625 C26.171875 0.42765625 26.171875 0.75765625 26.171875 1.09765625 C27.02458984 1.08025391 27.02458984 1.08025391 27.89453125 1.0625 C33.84312887 0.99298383 39.4746936 1.19859578 45.171875 3.09765625 C46.5636523 3.31320876 47.96018716 3.49959371 49.359375 3.66015625 C50.6175 3.80453125 51.875625 3.94890625 53.171875 4.09765625 C53.171875 4.75765625 53.171875 5.41765625 53.171875 6.09765625 C54.038125 5.89140625 54.904375 5.68515625 55.796875 5.47265625 C59.70612915 5.03829468 61.50538915 5.71407668 65.171875 7.09765625 C66.93899063 7.59035671 68.71029266 8.06816243 70.484375 8.53515625 C74.60564339 9.64856344 78.66669844 10.84111783 82.69921875 12.2421875 C84.51566291 12.87062553 86.34302414 13.46773329 88.17578125 14.046875 C98.82112964 17.56243038 108.38200281 22.69818654 118.171875 28.09765625 C119.44915123 28.78918722 120.7264898 29.48060307 122.00390625 30.171875 C136.79899966 38.35816125 150.18946855 48.60560743 162.734375 59.91015625 C163.2598291 60.3786499 163.7852832 60.84714355 164.32666016 61.32983398 C166.77306777 63.57001081 168.10421043 64.89466255 169.171875 68.09765625 C169.81125 68.40703125 170.450625 68.71640625 171.109375 69.03515625 C173.67239218 70.35549843 173.9126087 71.57912365 175.171875 74.09765625 C175.74679687 74.34 176.32171875 74.58234375 176.9140625 74.83203125 C180.16970819 76.65699527 182.08074038 79.42374883 184.296875 82.34765625 C184.77406982 82.96664795 185.25126465 83.58563965 185.74291992 84.22338867 C190.72217039 90.7273857 195.4905969 97.37709121 200.171875 104.09765625 C200.74808594 104.92007813 201.32429688 105.7425 201.91796875 106.58984375 C223.12475875 137.5462489 235.95730946 177.99241632 236.4453125 215.44921875 C236.45788589 216.33340485 236.47045929 217.21759094 236.4834137 218.12857056 C236.90603376 255.07020399 231.89070833 289.29527708 216.171875 323.09765625 C215.85637695 323.78230957 215.54087891 324.46696289 215.21582031 325.17236328 C207.80898983 341.07210353 198.75172969 355.97307029 187.52929688 369.46386719 C186.19257963 371.07273621 184.8766262 372.69687601 183.5625 374.32421875 C172.97900438 387.28717886 161.21066571 398.95249594 147.75927734 408.92041016 C146.2886554 410.01104981 144.83307135 411.12188786 143.37890625 412.234375 C131.82235321 420.92312758 119.2496551 427.97139845 106.171875 434.09765625 C105.1214502 434.59096436 105.1214502 434.59096436 104.04980469 435.09423828 C85.26450052 443.84507971 66.48442287 449.38466728 45.98046875 452.625 C43.29156469 453.07751376 40.64672128 453.63603758 37.984375 454.22265625 C33.92004845 455.06966453 30.12646174 455.24043392 25.984375 455.0703125 C24.0694617 454.96816676 24.0694617 454.96816676 22.171875 456.09765625 C20.19851231 456.19488431 18.22184916 456.22842209 16.24609375 456.23046875 C15.05693359 456.23175781 13.86777344 456.23304688 12.64257812 456.234375 C10.76989258 456.22857422 10.76989258 456.22857422 8.859375 456.22265625 C7.62251953 456.22652344 6.38566406 456.23039062 5.11132812 456.234375 C3.91830078 456.23308594 2.72527344 456.23179687 1.49609375 456.23046875 C0.40385498 456.22934082 -0.68838379 456.22821289 -1.8137207 456.22705078 C-4.60698531 456.10714876 -7.10619533 455.70314494 -9.828125 455.09765625 C-11.7429337 454.92917448 -13.65994321 454.78448285 -15.578125 454.66015625 C-19.99745927 454.31565273 -24.12220695 453.68920317 -28.41796875 452.62890625 C-31.37160049 451.97786263 -34.33267235 451.57667342 -37.328125 451.16015625 C-41.95532728 450.47385047 -46.1293249 449.48888317 -50.51171875 447.8828125 C-53.29221418 446.94035115 -56.09655311 446.273747 -58.953125 445.59765625 C-63.50564148 444.48532855 -67.5654467 443.07675689 -71.828125 441.09765625 C-73.63993318 440.36677227 -75.45252508 439.63782991 -77.265625 438.91015625 C-90.64255218 433.32949547 -103.27578323 426.30857599 -115.828125 419.09765625 C-115.828125 418.43765625 -115.828125 417.77765625 -115.828125 417.09765625 C-117.148125 416.76765625 -118.468125 416.43765625 -119.828125 416.09765625 C-119.828125 415.43765625 -119.828125 414.77765625 -119.828125 414.09765625 C-120.40046875 413.99324219 -120.9728125 413.88882812 -121.5625 413.78125 C-124.19798268 412.98606126 -125.88843808 411.81864134 -128.078125 410.16015625 C-128.78453125 409.63550781 -129.4909375 409.11085938 -130.21875 408.5703125 C-131.01539063 407.84134766 -131.01539063 407.84134766 -131.828125 407.09765625 C-131.828125 406.43765625 -131.828125 405.77765625 -131.828125 405.09765625 C-133.0346875 404.69546875 -133.0346875 404.69546875 -134.265625 404.28515625 C-135.11125 403.89328125 -135.956875 403.50140625 -136.828125 403.09765625 C-137.323125 401.61265625 -137.323125 401.61265625 -137.828125 400.09765625 C-138.42625 399.97390625 -139.024375 399.85015625 -139.640625 399.72265625 C-142.83028413 398.81132507 -143.837302 396.69175895 -145.828125 394.09765625 C-147.189375 393.01484375 -147.189375 393.01484375 -148.578125 391.91015625 C-149.320625 391.31203125 -150.063125 390.71390625 -150.828125 390.09765625 C-150.828125 389.43765625 -150.828125 388.77765625 -150.828125 388.09765625 C-151.6634375 387.75734375 -151.6634375 387.75734375 -152.515625 387.41015625 C-179.41469774 372.14311496 -197.91974969 327.009223 -207.14892578 299.1328125 C-207.80196892 297.17603046 -208.48265406 295.23082558 -209.16796875 293.28515625 C-227.31894185 240.3584449 -220.04271301 178.66546291 -195.91870117 128.98461914 C-186.71521021 110.41371848 -175.51044754 93.63594053 -161.828125 78.09765625 C-161.23773438 77.39640625 -160.64734375 76.69515625 -160.0390625 75.97265625 C-156.26944435 71.51596484 -152.22263454 67.32911316 -148.140625 63.16015625 C-147.58133301 62.57943359 -147.02204102 61.99871094 -146.44580078 61.40039062 C-145.90810059 60.85833984 -145.37040039 60.31628906 -144.81640625 59.7578125 C-144.33727783 59.26933838 -143.85814941 58.78086426 -143.36450195 58.27758789 C-141.5648569 56.89546736 -140.01180913 56.61676387 -137.828125 56.09765625 C-137.56 55.52015625 -137.291875 54.94265625 -137.015625 54.34765625 C-135.20703914 50.920862 -132.15046438 49.00956853 -128.828125 47.09765625 C-128.168125 47.09765625 -127.508125 47.09765625 -126.828125 47.09765625 C-126.60125 46.45828125 -126.374375 45.81890625 -126.140625 45.16015625 C-124.828125 43.09765625 -124.828125 43.09765625 -122.203125 42.34765625 C-121.419375 42.26515625 -120.635625 42.18265625 -119.828125 42.09765625 C-119.498125 41.10765625 -119.168125 40.11765625 -118.828125 39.09765625 C-117.838125 39.09765625 -116.848125 39.09765625 -115.828125 39.09765625 C-115.828125 38.43765625 -115.828125 37.77765625 -115.828125 37.09765625 C-110.19596456 32.84676709 -103.91721361 29.47365972 -97.5703125 26.421875 C-95.4780786 25.41152273 -93.40284647 24.36588573 -91.3359375 23.3046875 C-90.72468018 22.99144531 -90.11342285 22.67820312 -89.48364258 22.35546875 C-87.72881636 21.45539098 -85.97569009 20.55200123 -84.22265625 19.6484375 C-80.80322874 18.08628247 -77.44616897 17.09316653 -73.828125 16.09765625 C-72.6525 15.35515625 -72.6525 15.35515625 -71.453125 14.59765625 C-68.35150567 12.82530235 -65.52651475 12.2585479 -62.046875 11.57421875 C-59.59299699 11.09386578 -59.59299699 11.09386578 -56.390625 9.91015625 C-53.828125 9.09765625 -53.828125 9.09765625 -51.828125 10.09765625 C-51.828125 9.43765625 -51.828125 8.77765625 -51.828125 8.09765625 C-47.078125 6.97265625 -47.078125 6.97265625 -44.828125 8.09765625 C-44.828125 7.43765625 -44.828125 6.77765625 -44.828125 6.09765625 C-38.203125 4.97265625 -38.203125 4.97265625 -34.828125 6.09765625 C-34.828125 5.43765625 -34.828125 4.77765625 -34.828125 4.09765625 C-34.09207031 4.03707031 -33.35601562 3.97648437 -32.59765625 3.9140625 C-31.62183594 3.83027344 -30.64601562 3.74648438 -29.640625 3.66015625 C-28.19623047 3.53833984 -28.19623047 3.53833984 -26.72265625 3.4140625 C-24.03853393 3.12065642 -21.46825026 2.65278193 -18.828125 2.09765625 C-17.6525 1.93265625 -16.476875 1.76765625 -15.265625 1.59765625 C-12.08449955 1.22294229 -12.08449955 1.22294229 -10.10253906 0.57250977 C-6.74832166 -0.12778573 -3.41013068 -0.02434179 0 0 Z " fill="#000001" transform="translate(240.828125,21.90234375)"/>
<path d="M0 0 C0.74900574 0.00141495 1.49801147 0.0028299 2.26971436 0.00428772 C4.65380912 0.00986966 7.03780878 0.0224188 9.421875 0.03515625 C11.04166531 0.04017359 12.66145709 0.04473609 14.28125 0.04882812 C18.24482812 0.05983317 22.20833545 0.07708534 26.171875 0.09765625 C26.171875 0.42765625 26.171875 0.75765625 26.171875 1.09765625 C27.02458984 1.08025391 27.02458984 1.08025391 27.89453125 1.0625 C33.84312887 0.99298383 39.4746936 1.19859578 45.171875 3.09765625 C46.5636523 3.31320876 47.96018716 3.49959371 49.359375 3.66015625 C50.6175 3.80453125 51.875625 3.94890625 53.171875 4.09765625 C53.171875 4.75765625 53.171875 5.41765625 53.171875 6.09765625 C54.038125 5.89140625 54.904375 5.68515625 55.796875 5.47265625 C59.70612915 5.03829468 61.50538915 5.71407668 65.171875 7.09765625 C66.93899063 7.59035671 68.71029266 8.06816243 70.484375 8.53515625 C74.60564339 9.64856344 78.66669844 10.84111783 82.69921875 12.2421875 C84.51566291 12.87062553 86.34302414 13.46773329 88.17578125 14.046875 C98.82112964 17.56243038 108.38200281 22.69818654 118.171875 28.09765625 C119.44915123 28.78918722 120.7264898 29.48060307 122.00390625 30.171875 C136.79899966 38.35816125 150.18946855 48.60560743 162.734375 59.91015625 C163.2598291 60.3786499 163.7852832 60.84714355 164.32666016 61.32983398 C166.77306777 63.57001081 168.10421043 64.89466255 169.171875 68.09765625 C169.81125 68.40703125 170.450625 68.71640625 171.109375 69.03515625 C173.67239218 70.35549843 173.9126087 71.57912365 175.171875 74.09765625 C177.2054698 75.36570191 177.2054698 75.36570191 179.171875 76.09765625 C179.171875 76.42765625 179.171875 76.75765625 179.171875 77.09765625 C66.971875 77.09765625 -45.228125 77.09765625 -160.828125 77.09765625 C-156.70355364 72.28565633 -152.64289517 67.7039196 -148.203125 63.22265625 C-147.64367187 62.64257812 -147.08421875 62.0625 -146.5078125 61.46484375 C-145.68796875 60.63726562 -145.68796875 60.63726562 -144.8515625 59.79296875 C-144.36606934 59.29812988 -143.88057617 58.80329102 -143.38037109 58.29345703 C-141.57137198 56.89986193 -140.02562666 56.61807167 -137.828125 56.09765625 C-137.56 55.52015625 -137.291875 54.94265625 -137.015625 54.34765625 C-135.20703914 50.920862 -132.15046438 49.00956853 -128.828125 47.09765625 C-128.168125 47.09765625 -127.508125 47.09765625 -126.828125 47.09765625 C-126.60125 46.45828125 -126.374375 45.81890625 -126.140625 45.16015625 C-124.828125 43.09765625 -124.828125 43.09765625 -122.203125 42.34765625 C-121.419375 42.26515625 -120.635625 42.18265625 -119.828125 42.09765625 C-119.498125 41.10765625 -119.168125 40.11765625 -118.828125 39.09765625 C-117.838125 39.09765625 -116.848125 39.09765625 -115.828125 39.09765625 C-115.828125 38.43765625 -115.828125 37.77765625 -115.828125 37.09765625 C-110.19596456 32.84676709 -103.91721361 29.47365972 -97.5703125 26.421875 C-95.4780786 25.41152273 -93.40284647 24.36588573 -91.3359375 23.3046875 C-90.72468018 22.99144531 -90.11342285 22.67820312 -89.48364258 22.35546875 C-87.72881636 21.45539098 -85.97569009 20.55200123 -84.22265625 19.6484375 C-80.80322874 18.08628247 -77.44616897 17.09316653 -73.828125 16.09765625 C-72.6525 15.35515625 -72.6525 15.35515625 -71.453125 14.59765625 C-68.35150567 12.82530235 -65.52651475 12.2585479 -62.046875 11.57421875 C-59.59299699 11.09386578 -59.59299699 11.09386578 -56.390625 9.91015625 C-53.828125 9.09765625 -53.828125 9.09765625 -51.828125 10.09765625 C-51.828125 9.43765625 -51.828125 8.77765625 -51.828125 8.09765625 C-47.078125 6.97265625 -47.078125 6.97265625 -44.828125 8.09765625 C-44.828125 7.43765625 -44.828125 6.77765625 -44.828125 6.09765625 C-38.203125 4.97265625 -38.203125 4.97265625 -34.828125 6.09765625 C-34.828125 5.43765625 -34.828125 4.77765625 -34.828125 4.09765625 C-34.09207031 4.03707031 -33.35601562 3.97648437 -32.59765625 3.9140625 C-31.62183594 3.83027344 -30.64601562 3.74648438 -29.640625 3.66015625 C-28.19623047 3.53833984 -28.19623047 3.53833984 -26.72265625 3.4140625 C-24.03853393 3.12065642 -21.46825026 2.65278193 -18.828125 2.09765625 C-17.6525 1.93265625 -16.476875 1.76765625 -15.265625 1.59765625 C-12.08449955 1.22294229 -12.08449955 1.22294229 -10.10253906 0.57250977 C-6.74832166 -0.12778573 -3.41013068 -0.02434179 0 0 Z " fill="#FBFCFC" transform="translate(240.828125,21.90234375)"/>
<path d="M0 0 C112.2 0 224.4 0 340 0 C329.93210949 11.74587226 319.36878487 21.7634971 307 31 C305.61361328 32.06154297 305.61361328 32.06154297 304.19921875 33.14453125 C292.6407439 41.82623013 280.07575703 48.8746899 267 55 C266.2997168 55.32887207 265.59943359 55.65774414 264.87792969 55.99658203 C246.09262552 64.74742346 227.31254787 70.28701103 206.80859375 73.52734375 C204.11968969 73.97985751 201.47484628 74.53838133 198.8125 75.125 C194.74817345 75.97200828 190.95458674 76.14277767 186.8125 75.97265625 C184.8975867 75.87051051 184.8975867 75.87051051 183 77 C181.02663731 77.09722806 179.04997416 77.13076584 177.07421875 77.1328125 C175.88505859 77.13410156 174.69589844 77.13539063 173.47070312 77.13671875 C172.22224609 77.13285156 170.97378906 77.12898438 169.6875 77.125 C168.45064453 77.12886719 167.21378906 77.13273437 165.93945312 77.13671875 C164.74642578 77.13542969 163.55339844 77.13414062 162.32421875 77.1328125 C161.23197998 77.13168457 160.13974121 77.13055664 159.0144043 77.12939453 C156.22113969 77.00949251 153.72192967 76.60548869 151 76 C149.0851913 75.83151823 147.16818179 75.6868266 145.25 75.5625 C140.83066573 75.21799648 136.70591805 74.59154692 132.41015625 73.53125 C129.45652451 72.88020638 126.49545265 72.47901717 123.5 72.0625 C118.87279772 71.37619422 114.6988001 70.39122692 110.31640625 68.78515625 C107.53591082 67.8426949 104.73157189 67.17609075 101.875 66.5 C97.32248352 65.3876723 93.2626783 63.97910064 89 62 C87.18819182 61.26911602 85.37559992 60.54017366 83.5625 59.8125 C70.18557282 54.23183922 57.55234177 47.21091974 45 40 C45 39.34 45 38.68 45 38 C43.68 37.67 42.36 37.34 41 37 C41 36.34 41 35.68 41 35 C40.42765625 34.89558594 39.8553125 34.79117188 39.265625 34.68359375 C36.63014232 33.88840501 34.93968692 32.72098509 32.75 31.0625 C32.04359375 30.53785156 31.3371875 30.01320313 30.609375 29.47265625 C30.07828125 28.98667969 29.5471875 28.50070312 29 28 C29 27.34 29 26.68 29 26 C28.195625 25.731875 27.39125 25.46375 26.5625 25.1875 C25.716875 24.795625 24.87125 24.40375 24 24 C23.67 23.01 23.34 22.02 23 21 C22.401875 20.87625 21.80375 20.7525 21.1875 20.625 C17.99784087 19.71366882 16.990823 17.5941027 15 15 C14.0925 14.278125 13.185 13.55625 12.25 12.8125 C11.5075 12.214375 10.765 11.61625 10 11 C10 10.34 10 9.68 10 9 C9.443125 8.773125 8.88625 8.54625 8.3125 8.3125 C4.80040423 6.31914835 1.81940125 3.63880251 0 0 Z " fill="#FEFEFE" transform="translate(80,401)"/>
<path d="M0 0 C-0.66644531 0.09796875 -1.33289063 0.1959375 -2.01953125 0.296875 C-27.1499122 4.37397177 -49.26342658 19.28964404 -64.1875 39.6875 C-82.23417241 65.21303763 -90.06410167 97.33163008 -84.81982422 128.21801758 C-81.97425383 143.12097356 -77.68439588 156.4613276 -70.57421875 169.8671875 C-69 173 -69 173 -69 175 C-68.34 175 -67.68 175 -67 175 C-65.66796875 176.79296875 -65.66796875 176.79296875 -64.1875 179.1875 C-61.75675602 182.95047866 -59.25308304 185.89822315 -56 189 C-55.41089844 189.71671875 -54.82179688 190.4334375 -54.21484375 191.171875 C-40.60498183 207.5545873 -20.56513047 216.28077428 0 220 C-9.67664229 226.45109486 -28.05066606 224.09888327 -39.140625 222.31640625 C-66.76721665 216.72585975 -88.75679869 198.32170506 -104.1159668 175.29589844 C-121.04565587 149.08662549 -127.01764661 114.39122154 -120.46362305 83.83984375 C-119.45772383 79.83887677 -118.31076746 75.9113082 -117 72 C-116.59265625 70.76636719 -116.1853125 69.53273438 -115.765625 68.26171875 C-114.62436082 65.10842065 -113.36931868 62.06034477 -112 59 C-111.57203125 58.02289063 -111.1440625 57.04578125 -110.703125 56.0390625 C-106.77669025 47.63472745 -101.58340126 40.35868371 -96 33 C-95.47535156 32.29875 -94.95070312 31.5975 -94.41015625 30.875 C-90.05522732 25.4218716 -84.45427889 21.29514538 -79 17 C-78.15308594 16.31421875 -77.30617187 15.6284375 -76.43359375 14.921875 C-70.6758111 10.37479785 -64.8674034 6.65057675 -58 4 C-57.22785156 3.67128906 -56.45570313 3.34257812 -55.66015625 3.00390625 C-41.73262808 -2.85466877 -13.32220377 -8.88146918 0 0 Z " fill="#FBFBFB" transform="translate(263,140)"/>
<path d="M0 0 C0.66 0 1.32 0 2 0 C2 17.82 2 35.64 2 54 C5.96 54.99 9.92 55.98 14 57 C15.485 57.99 15.485 57.99 17 59 C18.56908541 59.52394286 20.15489932 59.999095 21.75 60.4375 C25.29024583 61.45627578 28.57022409 62.64632157 31.9296875 64.171875 C36.82456191 66.12982476 41.94884267 67.50364212 47 69 C47 69.66 47 70.32 47 71 C45.92105469 71.35191406 44.84210938 71.70382813 43.73046875 72.06640625 C34.54332841 75.08462406 25.4302917 78.25303438 16.37182617 81.63891602 C4.70155032 86 4.70155032 86 2 86 C2 104.15 2 122.3 2 141 C-0.54835823 139.72582088 -0.89227577 138.57779894 -2.1875 136.0625 C-3.98665754 132.72493239 -5.90203628 129.6330686 -8.125 126.5625 C-12.12778516 120.98152421 -15.64562596 115.12785955 -19.18017578 109.24438477 C-19.63118652 108.49600342 -20.08219727 107.74762207 -20.546875 106.9765625 C-20.94745117 106.30705566 -21.34802734 105.63754883 -21.76074219 104.94775391 C-23.08998647 102.85856737 -24.3881961 100.8832411 -26 99 C-30.74884185 98.30732181 -34.11006803 99.61894287 -38.4375 101.5 C-45.30542329 104.39504711 -52.2727853 106.92906696 -59.3125 109.375 C-60.33335693 109.73271484 -61.35421387 110.09042969 -62.40600586 110.45898438 C-63.36128174 110.78962891 -64.31655762 111.12027344 -65.30078125 111.4609375 C-66.15841064 111.75790527 -67.01604004 112.05487305 -67.8996582 112.36083984 C-70 113 -70 113 -72 113 C-70.73691946 109.61621909 -69.29419412 106.68071673 -67.3125 103.6640625 C-66.78301758 102.85396729 -66.25353516 102.04387207 -65.70800781 101.20922852 C-64.86254395 99.9300354 -64.86254395 99.9300354 -64 98.625 C-63.4234668 97.74320068 -62.84693359 96.86140137 -62.25292969 95.95288086 C-59.52242787 91.78588781 -56.76584227 87.63931287 -53.953125 83.52734375 C-53.49421875 82.85300293 -53.0353125 82.17866211 -52.5625 81.48388672 C-51.7106496 80.23685125 -50.85166058 78.99465117 -49.984375 77.75830078 C-47.80512175 74.56948638 -46.11161639 71.91970515 -46 68 C-47.02490304 65.93053273 -47.02490304 65.93053273 -48.6875 64.125 C-51.05974951 61.20447315 -53.00331953 58.34144982 -54.81640625 55.03125 C-56.99754631 51.28803934 -59.48366622 47.73955591 -61.8984375 44.14453125 C-63.93847507 41.09205868 -65.95030081 38.02460985 -67.9375 34.9375 C-68.50339844 34.05964844 -69.06929687 33.18179688 -69.65234375 32.27734375 C-71 30 -71 30 -72 27 C-65.83339877 28.7272544 -59.78383928 30.73704146 -53.75 32.875 C-53.02401611 33.1318457 -52.29803223 33.38869141 -51.55004883 33.65332031 C-48.01323493 34.91040189 -44.48505239 36.18659851 -40.96875 37.5 C-39.7415625 37.95375 -38.514375 38.4075 -37.25 38.875 C-36.16203125 39.28492188 -35.0740625 39.69484375 -33.953125 40.1171875 C-30.99955015 41.00013448 -29.03535517 41.56721284 -26 41 C-24.09532248 38.96585839 -24.09532248 38.96585839 -22.625 36.1875 C-22.02558594 35.17558594 -21.42617188 34.16367188 -20.80859375 33.12109375 C-20.21175781 32.09113281 -19.61492187 31.06117188 -19 30 C-17.90587267 28.24370577 -16.80180609 26.49356129 -15.6875 24.75 C-15.1203125 23.85667969 -14.553125 22.96335938 -13.96875 22.04296875 C-11.15932152 17.70061798 -8.27626666 13.40794893 -5.37573242 9.12597656 C-3.38203042 6.16390502 -1.47735436 3.25670934 0 0 Z " fill="#FBFBFB" transform="translate(312,180)"/>
<path d="M0 0 C112.2 0 224.4 0 340 0 C335.94500008 4.73083325 332.75103691 8.26704243 328 12 C328.309375 11.278125 328.61875 10.55625 328.9375 9.8125 C330.2020621 6.69635477 330.2020621 6.69635477 331 2 C223.42 2 115.84 2 5 2 C4.67 2.66 4.34 3.32 4 4 C2.68 2.68 1.36 1.36 0 0 Z " fill="#BABBBC" transform="translate(80,401)"/>
<path d="M0 0 C6.14894169 10.59728391 4.28155019 26.74625231 4.20581055 38.54589844 C4.18735823 41.52287237 4.18530294 44.49953683 4.18554688 47.4765625 C4.18063671 49.39062767 4.17481059 51.30469076 4.16796875 53.21875 C4.16685593 54.09801147 4.1657431 54.97727295 4.16459656 55.88317871 C4.12773463 60.6901831 3.80339949 65.25894126 3 70 C2.67 70 2.34 70 2 70 C1.33365889 53.90148221 0.87210887 37.86457885 1.03710938 21.75097656 C1.04548828 20.64463867 1.05386719 19.53830078 1.0625 18.3984375 C1.07410156 17.42567871 1.08570313 16.45291992 1.09765625 15.45068359 C1.10827949 12.8611663 1.10827949 12.8611663 0 10 C-0.06802967 8.27204648 -0.08495645 6.54164635 -0.0625 4.8125 C-0.05347656 3.91144531 -0.04445313 3.01039063 -0.03515625 2.08203125 C-0.02355469 1.39496094 -0.01195312 0.70789063 0 0 Z " fill="#00002E" transform="translate(473,209)"/>
<path d="M0 0 C0.66 0 1.32 0 2 0 C2 17.82 2 35.64 2 54 C1.67 54 1.34 54 1 54 C0.67 37.83 0.34 21.66 0 5 C-0.99 5.66 -1.98 6.32 -3 7 C-1.125 2.25 -1.125 2.25 0 0 Z " fill="#BCBCBC" transform="translate(312,180)"/>
<path d="M0 0 C0.33 0.66 0.66 1.32 1 2 C0.17944876 4.41391256 -0.70140629 6.71703418 -1.6875 9.0625 C-2.10153076 10.07098999 -2.10153076 10.07098999 -2.52392578 11.09985352 C-4.59156685 16.10777883 -6.75147727 21.07054632 -9 26 C-9.33 26 -9.66 26 -10 26 C-10 23.69 -10 21.38 -10 19 C-9.34 19 -8.68 19 -8 19 C-7.72285156 18.14019531 -7.44570313 17.28039062 -7.16015625 16.39453125 C-6.03369193 13.0985801 -4.7783605 9.90156263 -3.4375 6.6875 C-3.00308594 5.63949219 -2.56867188 4.59148437 -2.12109375 3.51171875 C-1 1 -1 1 0 0 Z " fill="#000031" transform="translate(463,326)"/>
<path d="M0 0 C0.99 0.33 1.98 0.66 3 1 C2.2884375 1.6496875 2.2884375 1.6496875 1.5625 2.3125 C-0.23686957 4.02309613 -0.23686957 4.02309613 -1 7 C-1.9075 7.598125 -2.815 8.19625 -3.75 8.8125 C-7.3584411 11.24125843 -9.36142936 13.58537918 -12 17 C-12 12.63541582 -9.31277615 10.49675087 -6.5625 7.375 C-6.04623047 6.776875 -5.52996094 6.17875 -4.99804688 5.5625 C-1.36941964 1.36941964 -1.36941964 1.36941964 0 0 Z " fill="#000129" transform="translate(80,99)"/>
<path d="M0 0 C2.04315802 3.06473703 2.74260315 5.26954295 3.625 8.8125 C3.88539063 9.82957031 4.14578125 10.84664062 4.4140625 11.89453125 C5.001462 15.00774858 5.10390886 17.84022615 5 21 C4.34 21 3.68 21 3 21 C2.90912109 20.04287109 2.90912109 20.04287109 2.81640625 19.06640625 C2.73261719 18.24011719 2.64882813 17.41382813 2.5625 16.5625 C2.44068359 15.32693359 2.44068359 15.32693359 2.31640625 14.06640625 C2.21069185 12.01337975 2.21069185 12.01337975 1 11 C0.76636119 9.15108054 0.58696365 7.29511969 0.4375 5.4375 C0.35371094 4.42558594 0.26992188 3.41367188 0.18359375 2.37109375 C0.12300781 1.58863281 0.06242187 0.80617187 0 0 Z " fill="#000037" transform="translate(468,187)"/>
<path d="M0 0 C0.66 0.33 1.32 0.66 2 1 C-2.95 5.95 -7.9 10.9 -13 16 C-13.66 15.67 -14.32 15.34 -15 15 C-10.39863498 9.46398272 -5.53601728 4.60136502 0 0 Z " fill="#DADADA" transform="translate(181,159)"/>
<path d="M0 0 C0.33 0 0.66 0 1 0 C1.33 2.31 1.66 4.62 2 7 C1.01 7.495 1.01 7.495 0 8 C0 9.32 0 10.64 0 12 C-1.65 12.33 -3.3 12.66 -5 13 C-3.58192622 8.52761347 -1.88695626 4.28853694 0 0 Z " fill="#000126" transform="translate(46,148)"/>
<path d="M0 0 C2.97 0.33 5.94 0.66 9 1 C5.23140928 3.51239382 2.73760751 4.12663199 -1.6875 4.0625 C-2.89986328 4.04896484 -2.89986328 4.04896484 -4.13671875 4.03515625 C-5.05904297 4.01775391 -5.05904297 4.01775391 -6 4 C-6 3.67 -6 3.34 -6 3 C-4.02 3 -2.04 3 0 3 C0 2.01 0 1.02 0 0 Z " fill="#BDBDBD" transform="translate(254,359)"/>
<path d="M0 0 C0.99 0.33 1.98 0.66 3 1 C-0.732388 4.57011026 -5.0949989 5.10913442 -10 6 C-10 5.01 -10 4.02 -10 3 C-9.236875 2.855625 -8.47375 2.71125 -7.6875 2.5625 C-4.91827092 2.0367406 -4.91827092 2.0367406 -2 1 C-1.34 1.33 -0.68 1.66 0 2 C0 1.34 0 0.68 0 0 Z " fill="#F2F3FE" transform="translate(189,30)"/>
<path d="M0 0 C0.75 1.75 0.75 1.75 1 4 C-0.8125 6 -0.8125 6 -3 8 C-4.23512079 10.13309192 -4.23512079 10.13309192 -5 12 C-5.33 11.34 -5.66 10.68 -6 10 C-5.0390625 7.87109375 -5.0390625 7.87109375 -3.625 5.4375 C-3.16351563 4.63183594 -2.70203125 3.82617188 -2.2265625 2.99609375 C-1 1 -1 1 0 0 Z " fill="#00002E" transform="translate(58,128)"/>
<path d="M0 0 C-2.66559313 1.77706209 -5.0280615 2.87548273 -8 4 C-8 3.34 -8 2.68 -8 2 C-8.99 2 -9.98 2 -11 2 C-11 1.34 -11 0.68 -11 0 C-7.01803543 -1.05404945 -4.01804691 -0.84098656 0 0 Z " fill="#F3F5FE" transform="translate(217,26)"/>
<path d="M0 0 C0 3.39593478 -0.52165948 4.06619881 -2.5 6.6875 C-2.9640625 7.31011719 -3.428125 7.93273437 -3.90625 8.57421875 C-4.2671875 9.04472656 -4.628125 9.51523437 -5 10 C-6.125 6.25 -6.125 6.25 -5 4 C-4.01 4 -3.02 4 -2 4 C-2 3.01 -2 2.02 -2 1 C-1.34 0.67 -0.68 0.34 0 0 Z " fill="#00002B" transform="translate(439,374)"/>
<path d="M0 0 C2.61500768 2.36595933 4.38999603 4.86049226 6 8 C5.67 8.66 5.34 9.32 5 10 C4.01 9.34 3.02 8.68 2 8 C2 6.68 2 5.36 2 4 C1.34 4 0.68 4 0 4 C0 2.68 0 1.36 0 0 Z " fill="#000029" transform="translate(447,138)"/>
<path d="M0 0 C2.0625 1.6875 2.0625 1.6875 4 4 C3.75 6.75 3.75 6.75 3 9 C2.34 9 1.68 9 1 9 C0.67 6.03 0.34 3.06 0 0 Z " fill="#000024" transform="translate(443,131)"/>
<path d="M0 0 C0.99 0.33 1.98 0.66 3 1 C1.515 3.475 1.515 3.475 0 6 C-1.32 5.67 -2.64 5.34 -4 5 C-2.25 1.125 -2.25 1.125 0 0 Z " fill="#F2F5FB" transform="translate(118,64)"/>
<path d="M0 0 C0.33 0 0.66 0 1 0 C1.25 6.625 1.25 6.625 -1 10 C-1.66 10 -2.32 10 -3 10 C-2.01 6.7 -1.02 3.4 0 0 Z " fill="#00002E" transform="translate(40,161)"/>
<path d="M0 0 C3.45925163 1.2491742 6.14693203 2.67527795 9 5 C8.67 5.66 8.34 6.32 8 7 C4.46399535 5.08864614 2.21027154 3.37357234 0 0 Z " fill="#F2F4FE" transform="translate(377,62)"/>
<path d="M0 0 C0.66 0.33 1.32 0.66 2 1 C0.6875 3.9375 0.6875 3.9375 -1 7 C-1.99 7.33 -2.98 7.66 -4 8 C-3.40072174 4.64404172 -2.15377564 2.62198774 0 0 Z " fill="#F7FBF7" transform="translate(101,78)"/>
<path d="M0 0 C-2.622514 1.74834267 -3.99484478 2.51529754 -7 3 C-7.66 2.67 -8.32 2.34 -9 2 C-9 1.34 -9 0.68 -9 0 C-5.67465243 -1.10844919 -3.37817425 -0.84454356 0 0 Z " fill="#F2F4FE" transform="translate(205,28)"/>
</svg>
